<svg width="322" height="105" viewBox="0 0 322 105" fill="none" xmlns="http://www.w3.org/2000/svg">
<g clip-path="url(#clip0_324_110)">
<path d="M1.93555 102.079C7.49727 74.1872 9.17074 46.8681 5.85667 19.3581C16.3239 15.7117 26.1676 11.7599 36.2738 9.06808C39.8176 8.13263 44.7067 9.04899 47.6926 11.359C53.8613 16.1126 59.6692 14.1654 65.8543 12.7717C75.2387 10.6526 84.6395 8.62899 94.1059 6.98718C101.981 5.63172 109.905 4.48627 117.846 3.97081C128.904 3.26445 139.994 3.22627 151.085 2.92081C159.337 2.71081 167.589 2.4817 175.842 2.40534C179.632 2.36716 183.438 2.57717 187.211 2.92081C196.12 3.70354 205.029 5.53627 213.921 5.30718C226.947 4.98263 237.218 8.8199 242.779 24.0735C242.779 19.2626 242.779 14.4326 242.779 8.49536C247.061 9.50718 250.835 10.4044 254.592 11.3017C256.889 11.8554 259.153 12.8099 261.466 12.9626C271.179 13.6308 271.179 13.5544 271.523 25.0853C276.182 12.2563 284.386 8.26627 295.017 10.6526C307.305 13.4208 316.607 21.8017 318.757 35.8908C320.873 49.7699 320.709 64.3172 320.02 78.4635C319.495 89.2881 308.716 96.829 298.823 94.7099C286.239 92.0372 276.609 84.9544 272.409 69.9872C271.95 68.3262 269.899 66.4172 268.389 66.1308C253.591 63.439 238.776 60.7281 223.912 58.6853C211.033 56.9099 198.056 55.9362 185.128 54.7526C182.076 54.4662 178.975 54.7526 175.907 54.7526C162.077 54.7526 148.246 54.6381 134.416 54.829C130.462 54.8862 126.541 56.1653 122.587 56.3753C113.236 56.8908 103.851 56.9481 94.4996 57.5781C92.4488 57.7117 90.5785 60.0981 88.4785 60.4608C81.1777 61.7781 73.8442 62.9999 66.4942 63.6108C60.8832 64.069 56.9949 65.1572 54.9113 72.6981C51.9746 83.3508 44.4442 89.4408 35.0926 92.2853C25.8723 95.0917 16.652 97.9172 7.43166 100.724C6.06994 101.182 4.6918 101.43 1.93555 102.079ZM43.8699 48.9108C45.8879 45.4553 48.4145 42.2862 49.809 38.5444C51.9418 32.779 52.1387 26.689 48.6934 21.2099C45.5598 16.2272 40.8676 14.5854 36.1098 16.0554C28.0051 18.5563 20.1301 22.0499 12.9442 24.8181C14.0926 47.6317 14.4699 69.9299 10.2043 91.1017C16.7832 89.4981 23.6246 87.9517 30.4168 86.0999C33.5668 85.2408 36.8317 84.3435 39.6207 82.5872C52.5652 74.4735 54.4027 58.3608 43.8699 48.9108ZM277.643 46.8299C277.741 46.8299 277.856 46.8299 277.954 46.8299C277.954 51.2399 277.938 55.6499 277.954 60.0599C278.036 74.0726 284.796 83.8472 296.608 87.1117C307.781 90.2044 314.819 83.8472 314.639 70.5408C314.524 61.3008 314.015 52.0799 313.654 42.859C313.113 28.3308 301.399 16.2081 288.799 17.1054C282.187 17.5826 277.987 22.2026 277.675 29.839C277.462 35.4708 277.643 41.1599 277.643 46.8299ZM151.036 29.6481C150.199 29.9153 149.346 30.1635 148.509 30.4308C145.966 23.749 143.423 17.0672 140.864 10.3472C136.106 10.7672 130.446 11.2635 125.573 11.6835C125.573 24.1308 125.573 36.2917 125.573 48.3762C129.56 48.1662 134.449 47.9181 137.829 47.7462C136.795 41.1981 135.729 34.4399 134.646 27.6626C135.384 27.3953 136.139 27.109 136.877 26.8417C139.764 33.5617 142.668 40.3008 145.835 47.6699C150.56 47.6699 156.811 47.6699 162.29 47.6699C157.746 35.3753 159.189 22.5272 161.798 9.88897C157.319 9.88897 152.414 9.88897 148.788 9.88897C149.559 16.6472 150.297 23.1572 151.036 29.6481ZM204.307 49.0444C208.08 49.4072 212.28 49.3117 216.316 50.2662C232.23 54.0272 237.07 49.4072 236.25 30.7362C235.823 21.1908 231.59 14.929 223.371 13.3063C217.054 12.0654 210.574 11.989 204.536 11.4163C206.505 24.0735 207.44 36.6353 204.307 49.0444ZM110.036 12.1799C110.036 21.6872 110.348 30.8317 109.757 39.8999C109.643 41.599 106.017 43.5272 103.753 44.2144C102.982 44.4435 100.471 41.1981 100.389 39.4608C100.029 30.8126 100.225 22.1453 100.225 13.4017C96.9277 13.8408 92.859 14.3754 88.7738 14.9099C89.0527 16.1317 89.3973 16.9526 89.3973 17.7544C89.3973 24.2644 89.3481 30.7744 89.3152 37.2844C89.2496 48.529 92.1207 51.9653 101.866 51.2208C105.771 50.9344 109.692 49.6553 113.432 48.2235C117.255 46.7726 118.863 43.4317 118.879 38.5062C118.896 29.3044 119.454 20.1217 119.782 10.7862C116.812 11.2062 113.088 11.7408 110.036 12.1799ZM250.786 17.8499C247.554 29.8008 244.371 41.5799 241.254 53.0917C244.469 53.9317 248.144 54.8672 251.803 55.8217C251.573 53.7217 251.376 51.7935 251.163 49.8081C260.432 49.2926 261.515 50.0753 261.269 56.8717C265.633 57.9981 270.03 59.1244 274.066 60.1744C270.44 46.8299 266.896 33.7717 263.271 20.4081C259.415 19.6062 254.838 18.6708 250.786 17.8499ZM200.287 11.0917C188.95 10.3663 177.909 9.67899 166.523 8.95354C167.114 13.5735 167.606 17.2963 168.098 21.0572C171.018 18.3463 173.479 16.0554 176.383 13.3635C178.664 23.2717 177.663 42.0572 175.153 46.8681C180.714 47.3835 186.375 47.899 191.69 48.3953C187.425 37.9717 189.443 26.8608 188.573 16.0362C189.246 15.5972 189.935 15.139 190.607 14.6999C193.134 17.4872 195.661 20.2744 198.335 23.2144C198.925 19.4153 199.582 15.4254 200.287 11.0917ZM54.7309 58.9717C64.3942 57.139 74.6317 55.1917 84.9512 53.2253C84.7051 49.4262 84.459 45.7226 84.1473 41.1981C79.9637 47.4217 75.5996 51.4881 68.2332 50.7053C69.0699 39.8426 65.9856 28.9608 70.7762 18.8235C65.8051 19.8544 60.7356 20.9044 56.3715 21.8017C56.9457 34.4208 58.0121 46.7917 54.7309 58.9717Z" stroke="black" stroke-width="1.64062"/>
<path d="M43.8711 48.9108C54.4039 58.3608 52.5664 74.4735 39.6547 82.6062C36.8492 84.3626 33.5844 85.2599 30.4508 86.119C23.6586 87.9517 16.8008 89.5171 10.2383 91.1208C14.5039 69.9299 14.1266 47.6317 12.9781 24.8371C20.1641 22.069 28.0391 18.5754 36.1438 16.0745C40.9016 14.6045 45.5774 16.2463 48.7274 21.229C52.1727 26.689 51.9758 32.779 49.843 38.5635C48.4156 42.2862 45.9055 45.4553 43.8711 48.9108ZM26.1195 75.9053C33.7649 76.3062 39.261 67.1426 35.7828 59.9071C34.9133 58.0935 32.0258 56.3562 30.3031 56.6426C28.7281 56.8908 26.5625 59.7544 26.3 61.7399C25.7094 66.379 26.1195 71.1899 26.1195 75.9053ZM26.9235 48.4144C35.307 45.9326 38.211 41.6371 37.4235 33.9053C37.0297 30.0871 35.6352 27.6435 31.8781 28.0635C28.5477 28.4262 26.6281 29.9726 26.8578 34.3444C27.1039 38.869 26.9235 43.4317 26.9235 48.4144Z" fill="#FF0000"/>
<path d="M277.642 46.8304C277.642 41.1604 277.461 35.4904 277.691 29.8395C278.003 22.2031 282.203 17.5832 288.814 17.1059C301.414 16.1895 313.128 28.3122 313.67 42.8595C314.014 52.0804 314.523 61.3204 314.654 70.5413C314.835 83.8668 307.78 90.205 296.624 87.1122C284.811 83.8477 278.052 74.0731 277.97 60.0604C277.937 55.6504 277.97 51.2404 277.97 46.8304C277.855 46.8304 277.756 46.8304 277.642 46.8304ZM301.07 53.9131C300.692 48.3386 300.66 41.7904 299.577 35.4904C299.249 33.5431 296.082 32.264 294.228 30.6604C293.063 32.7031 290.964 34.7268 290.914 36.8077C290.717 45.3795 291.111 53.9704 291.357 62.5613C291.423 64.6422 291.029 67.3913 291.997 68.6704C293.687 70.9231 296.279 72.2786 298.494 74.0159C299.347 71.8204 300.742 69.6822 300.955 67.3913C301.349 63.2486 301.07 59.0295 301.07 53.9131Z" fill="#FF0000"/>
<path d="M151.037 29.6482C150.298 23.1573 149.56 16.6473 148.789 9.88916C152.415 9.88916 157.32 9.88916 161.799 9.88916C159.191 22.5273 157.747 35.3755 162.291 47.67C156.828 47.67 150.577 47.67 145.836 47.67C142.653 40.2818 139.766 33.5618 136.878 26.8418C136.14 27.1282 135.385 27.3955 134.647 27.6627C135.713 34.44 136.796 41.1982 137.83 47.7464C134.45 47.9182 129.561 48.1855 125.574 48.3764C125.574 36.3109 125.574 24.1309 125.574 11.6837C130.447 11.2637 136.107 10.7674 140.865 10.3474C143.424 17.0483 145.967 23.73 148.51 30.4309C149.363 30.1636 150.2 29.9155 151.037 29.6482Z" fill="#FF0000"/>
<path d="M204.307 49.0447C207.44 36.6547 206.505 24.0738 204.52 11.4165C210.557 11.9701 217.038 12.0465 223.354 13.3065C231.574 14.9293 235.823 21.2102 236.233 30.7365C237.054 49.4075 232.214 54.0275 216.3 50.2665C212.296 49.312 208.08 49.3884 204.307 49.0447ZM216.89 18.5183C216.89 25.8875 216.89 32.7602 216.89 39.6329C216.89 42.4584 216.857 45.2456 220.45 44.9975C223.453 44.7684 225.832 44.062 225.668 39.6711C225.52 35.4902 225.602 31.3093 225.569 27.1284C225.504 19.9502 224.011 18.4038 216.89 18.5183Z" fill="#FF0000"/>
<path d="M110.038 12.1798C113.089 11.7407 116.814 11.2061 119.783 10.7861C119.455 20.1216 118.897 29.3234 118.881 38.5061C118.864 43.4316 117.257 46.7534 113.434 48.2234C109.693 49.6552 105.772 50.9343 101.868 51.2207C92.1059 51.9461 89.2348 48.5098 89.3168 37.2843C89.366 30.7743 89.4152 24.2643 89.3988 17.7543C89.3988 16.9525 89.0543 16.1316 88.7754 14.9098C92.8441 14.3752 96.9293 13.8407 100.227 13.4016C100.227 22.1452 100.03 30.8125 100.391 39.4607C100.457 41.198 102.983 44.4434 103.754 44.2143C106.018 43.527 109.644 41.5989 109.759 39.8998C110.35 30.8125 110.038 21.668 110.038 12.1798Z" fill="#FF0000"/>
<path d="M250.787 17.8501C254.855 18.671 259.416 19.6065 263.255 20.3892C266.881 33.7528 270.425 46.811 274.051 60.1556C270.015 59.1056 265.634 57.9792 261.254 56.8528C261.5 50.0565 260.417 49.2928 251.148 49.7892C251.361 51.7746 251.574 53.7219 251.788 55.8028C248.129 54.8483 244.454 53.9128 241.238 53.0728C244.355 41.5801 247.555 29.801 250.787 17.8501ZM256.48 34.0583C256.02 34.1156 255.577 34.1919 255.118 34.2492C254.232 37.4756 253.363 40.7019 252.378 44.291C255.003 44.7874 256.873 45.131 259.597 45.6656C258.383 41.1792 257.431 37.6283 256.48 34.0583Z" fill="#FF0000"/>
<path d="M200.288 11.0918C199.583 15.4063 198.927 19.3963 198.32 23.2144C195.645 20.2554 193.119 17.4872 190.592 14.7C189.92 15.1391 189.23 15.5972 188.558 16.0363C189.427 26.8608 187.409 37.9717 191.675 48.3954C186.359 47.899 180.699 47.3835 175.138 46.8681C177.648 42.0572 178.648 23.2717 176.368 13.3636C173.48 16.0554 171.003 18.3463 168.083 21.0572C167.591 17.2963 167.115 13.5736 166.508 8.95361C177.894 9.67907 188.952 10.3854 200.288 11.0918Z" fill="#FF0000"/>
<path d="M54.7324 58.9719C58.0137 46.7919 56.9473 34.421 56.3895 21.8019C60.7535 20.9046 65.823 19.8546 70.7941 18.8237C66.0035 28.9419 69.0715 39.8428 68.2512 50.7055C75.6176 51.5073 79.9652 47.441 84.1652 41.1983C84.4605 45.7228 84.7066 49.4264 84.9691 53.2255C74.6332 55.1919 64.3957 57.1392 54.7324 58.9719Z" fill="#FF0000"/>
<path d="M26.1198 75.9055C26.1198 71.1901 25.7097 66.3792 26.3167 61.7401C26.5628 59.7546 28.7448 56.891 30.3198 56.6428C32.0261 56.3756 34.9136 58.0937 35.7995 59.9074C39.2613 67.1428 33.7652 76.3065 26.1198 75.9055Z" fill="white"/>
<path d="M26.9232 48.4148C26.9232 43.4321 27.1201 38.8694 26.874 34.3448C26.6443 29.973 28.5638 28.4266 31.8943 28.0639C35.6349 27.6439 37.0459 30.0875 37.4396 33.9057C38.2107 41.6184 35.2904 45.933 26.9232 48.4148Z" fill="white"/>
<path d="M301.071 53.9131C301.071 59.0104 301.366 63.2484 300.956 67.372C300.726 69.6629 299.348 71.8011 298.495 73.9966C296.28 72.2593 293.704 70.904 291.998 68.6513C291.03 67.3722 291.407 64.642 291.358 62.542C291.128 53.9511 290.718 45.3602 290.915 36.7886C290.964 34.7077 293.064 32.7029 294.229 30.6411C296.1 32.2257 299.25 33.5238 299.578 35.4711C300.644 41.8093 300.693 48.3577 301.071 53.9131Z" fill="white"/>
<path d="M216.891 18.5184C224.011 18.4039 225.504 19.9693 225.57 27.1284C225.602 31.3093 225.52 35.4902 225.668 39.6711C225.816 44.062 223.453 44.7684 220.451 44.9975C216.858 45.2647 216.891 42.4775 216.891 39.6329C216.891 32.7602 216.891 25.8684 216.891 18.5184Z" fill="white"/>
<path d="M256.479 34.0586C257.43 37.6286 258.398 41.1986 259.596 45.6659C256.872 45.1504 255.002 44.8068 252.377 44.2913C253.361 40.7022 254.231 37.4759 255.117 34.2495C255.56 34.1922 256.019 34.1159 256.479 34.0586Z" fill="white"/>
</g>
<defs>
<clipPath id="clip0_324_110">
<rect width="321.562" height="105" fill="white"/>
</clipPath>
</defs>
</svg>
