<svg width="767" height="575" viewBox="0 0 767 575" fill="none" xmlns="http://www.w3.org/2000/svg">
<path d="M0.916016 192.5C0.916016 167.5 5.58302 144 14.916 122C24.583 99.667 37.916 80 54.916 63C71.916 45.667 91.416 32.167 113.416 22.5C135.749 12.5 159.749 7.5 185.416 7.5C210.749 7.5 234.416 12.5 256.416 22.5C278.749 32.167 298.416 45.667 315.416 63C332.749 80 346.249 99.667 355.916 122C365.583 144 370.416 167.5 370.416 192.5C370.416 218.167 365.583 242.167 355.916 264.5C346.249 286.833 332.749 306.5 315.416 323.5C298.416 340.167 278.749 353.333 256.416 363C234.416 372.333 210.749 377 185.416 377C159.749 377 135.749 372.333 113.416 363C91.416 353.667 71.916 340.667 54.916 324C37.916 307.333 24.583 287.833 14.916 265.5C5.58302 243.167 0.916016 218.833 0.916016 192.5ZM50.916 193C50.916 212 54.416 229.833 61.416 246.5C68.416 262.833 78.083 277.333 90.416 290C102.749 302.667 117.083 312.667 133.416 320C149.749 327 167.416 330.5 186.416 330.5C205.083 330.5 222.583 327 238.916 320C255.249 312.667 269.416 302.667 281.416 290C293.416 277.333 302.916 262.833 309.916 246.5C316.916 229.833 320.416 211.833 320.416 192.5C320.416 173.5 316.916 155.667 309.916 139C302.916 122 293.249 107.167 280.916 94.5C268.583 81.833 254.249 72 237.916 65C221.583 57.667 204.083 54 185.416 54C166.416 54 148.749 57.667 132.416 65C116.083 72.333 101.749 82.333 89.416 95C77.083 107.667 67.583 122.5 60.916 139.5C54.249 156.167 50.916 174 50.916 193ZM765.127 384.5L485.627 101L499.627 104.5L500.627 373H452.127V0.5H454.627L731.127 285L719.627 282.5L718.627 11.5H766.627V384.5H765.127ZM98.02 428.4C112.553 428.4 123.953 431.4 132.22 437.4C140.62 443.267 144.82 452.467 144.82 465C144.82 472.6 143.086 479.2 139.62 484.8C136.153 490.4 131.286 494.8 125.02 498C118.886 501.2 111.62 503 103.22 503.4L100.42 493.4C110.153 493.667 118.886 495.4 126.62 498.6C134.353 501.8 140.486 506.267 145.02 512C149.553 517.733 151.82 524.533 151.82 532.4C151.82 539.6 150.486 545.8 147.82 551C145.153 556.067 141.553 560.267 137.02 563.6C132.486 566.8 127.353 569.2 121.62 570.8C115.886 572.267 109.953 573 103.82 573H60.82V428.4H98.02ZM102.02 491.8C110.02 491.8 115.82 489.6 119.42 485.2C123.02 480.667 124.82 475.2 124.82 468.8C124.82 461.2 122.486 455.667 117.82 452.2C113.153 448.733 106.886 447 99.02 447H80.22V491.8H102.02ZM102.82 555C108.153 555 113.02 554.2 117.42 552.6C121.953 551 125.486 548.533 128.02 545.2C130.686 541.867 132.02 537.667 132.02 532.6C132.02 527 130.486 522.6 127.42 519.4C124.486 516.2 120.686 513.933 116.02 512.6C111.353 511.133 106.553 510.4 101.62 510.4H80.22V555H102.82ZM175.452 500.8C175.452 490.8 177.319 481.4 181.052 472.6C184.919 463.667 190.252 455.8 197.052 449C203.852 442.067 211.652 436.667 220.452 432.8C229.386 428.8 238.986 426.8 249.252 426.8C259.386 426.8 268.852 428.8 277.652 432.8C286.586 436.667 294.452 442.067 301.252 449C308.186 455.8 313.586 463.667 317.452 472.6C321.319 481.4 323.252 490.8 323.252 500.8C323.252 511.067 321.319 520.667 317.452 529.6C313.586 538.533 308.186 546.4 301.252 553.2C294.452 559.867 286.586 565.133 277.652 569C268.852 572.733 259.386 574.6 249.252 574.6C238.986 574.6 229.386 572.733 220.452 569C211.652 565.267 203.852 560.067 197.052 553.4C190.252 546.733 184.919 538.933 181.052 530C177.319 521.067 175.452 511.333 175.452 500.8ZM195.452 501C195.452 508.6 196.852 515.733 199.652 522.4C202.452 528.933 206.319 534.733 211.252 539.8C216.186 544.867 221.919 548.867 228.452 551.8C234.986 554.6 242.052 556 249.652 556C257.119 556 264.119 554.6 270.652 551.8C277.186 548.867 282.852 544.867 287.652 539.8C292.452 534.733 296.252 528.933 299.052 522.4C301.852 515.733 303.252 508.533 303.252 500.8C303.252 493.2 301.852 486.067 299.052 479.4C296.252 472.6 292.386 466.667 287.452 461.6C282.519 456.533 276.786 452.6 270.252 449.8C263.719 446.867 256.719 445.4 249.252 445.4C241.652 445.4 234.586 446.867 228.052 449.8C221.519 452.733 215.786 456.733 210.852 461.8C205.919 466.867 202.119 472.8 199.452 479.6C196.786 486.267 195.452 493.4 195.452 501ZM333.724 573L396.924 422.4H398.124L461.124 573H438.924L391.724 452.8L405.524 443.8L352.724 573H333.724ZM370.724 518.2H424.524L430.924 535H365.124L370.724 518.2ZM526.759 428.4C534.092 428.4 540.825 429.4 546.959 431.4C553.225 433.267 558.625 436.133 563.159 440C567.825 443.733 571.425 448.4 573.959 454C576.625 459.467 577.959 465.867 577.959 473.2C577.959 478.933 577.092 484.533 575.359 490C573.759 495.467 571.025 500.467 567.159 505C563.292 509.4 558.225 513 551.959 515.8C545.825 518.467 538.225 519.8 529.159 519.8H507.759V573H488.359V428.4H526.759ZM528.759 501.2C534.492 501.2 539.225 500.333 542.959 498.6C546.825 496.867 549.825 494.667 551.959 492C554.092 489.2 555.625 486.2 556.559 483C557.492 479.8 557.959 476.8 557.959 474C557.959 471.067 557.425 468.067 556.359 465C555.425 461.8 553.825 458.867 551.559 456.2C549.425 453.533 546.559 451.333 542.959 449.6C539.492 447.867 535.225 447 530.159 447H507.759V501.2H528.759ZM552.559 512.2L590.359 573H567.959L529.559 512.8L552.559 512.2ZM620.195 573V428.4H659.595C673.861 428.4 685.995 430.6 695.995 435C706.128 439.4 714.261 445.2 720.395 452.4C726.528 459.6 730.995 467.6 733.795 476.4C736.728 485.067 738.195 493.733 738.195 502.4C738.195 513.333 736.261 523.133 732.395 531.8C728.661 540.467 723.461 547.867 716.795 554C710.128 560.133 702.461 564.867 693.795 568.2C685.261 571.4 676.195 573 666.595 573H620.195ZM639.595 554.4H662.795C670.795 554.4 678.128 553.2 684.795 550.8C691.595 548.4 697.461 544.933 702.395 540.4C707.461 535.867 711.395 530.333 714.195 523.8C716.995 517.133 718.395 509.6 718.395 501.2C718.395 492.267 716.928 484.467 713.995 477.8C711.061 471 707.061 465.333 701.995 460.8C696.928 456.267 691.195 452.867 684.795 450.6C678.395 448.2 671.661 447 664.595 447H639.595V554.4Z" fill="#35B6FF"/>
</svg>
