<svg width="246" height="196" viewBox="0 0 246 196" fill="none" xmlns="http://www.w3.org/2000/svg">
<path d="M100.382 88.8172C99.8123 85.6248 100.962 81.8668 100.221 78.1662C99.8786 76.4554 98.4631 75.7451 96.8856 75.6091C95.4122 75.482 93.9098 76.8487 93.635 78.648C93.3201 80.7117 93.1386 82.8187 93.1565 84.9048C93.1867 88.3978 93.4175 91.8889 93.5718 95.3807C93.6248 96.5794 93.5983 97.7941 93.7906 98.9723C94.1332 101.075 95.2218 101.978 97.2186 102.03C99.323 102.086 100.375 101.378 100.75 99.1771C101.301 95.9408 99.8746 92.6989 100.382 88.8172ZM140.66 85.0202C140.656 84.9996 140.66 85.0411 140.66 85.0202C141.335 89.5772 141.126 92.3575 141.922 96.6568C142.238 98.3606 143.443 99.4421 145.313 99.5373C147.063 99.6266 148.549 98.7125 149.197 96.8358C149.647 95.5318 149.906 94.1233 150.003 92.7444C150.365 87.6209 150.065 82.5552 148 77.7566C147.384 76.3258 146.423 75.2474 144.576 75.3389C142.704 75.4319 141.484 76.4151 140.978 78.0354C140.423 79.8151 140.639 82.1428 140.66 85.0202ZM117.674 175.46C119.988 175.278 122.49 175.051 124.997 174.89C133.233 174.361 141.006 172.087 148.362 168.469C158.084 163.687 166.24 156.909 172.849 148.363C181.82 136.762 187.309 123.695 188.829 109.08C189.01 107.336 188.684 105.463 188.216 103.752C187.845 102.397 186.814 101.354 185.14 101.273C183.471 101.192 182.424 102.031 181.893 103.449C181.336 104.939 180.88 106.488 180.582 108.049C178.926 116.742 176.661 125.225 172.189 132.969C165.736 144.145 157.334 153.421 145.693 159.4C133.7 165.56 120.993 167.354 107.658 165.375C97.0322 163.799 87.7125 159.536 79.4748 152.711C73.4435 147.715 69.4794 141.263 66.0026 134.426C65.5491 133.534 65.1914 132.51 64.4988 131.849C63.9386 131.315 62.8334 130.869 62.1704 131.063C61.5671 131.239 60.8772 132.318 60.8516 133.021C60.7906 134.704 60.876 136.456 61.295 138.079C63.3661 146.102 68.0467 152.63 73.9356 158.204C86.0887 169.708 100.893 174.845 117.674 175.46ZM109.151 195.265C95.3509 195.191 85.6814 193.419 77.0768 187.682C70.5368 183.321 65.1365 177.748 60.9567 171.193C56.3813 164.017 52.3274 156.508 48.1156 149.106C46.1825 145.708 44.5751 142.121 42.5372 138.791C38.9529 132.935 38.1768 126.525 38.7662 119.956C39.7235 109.29 43.0983 99.2502 47.2609 89.4203C48.7235 85.9669 50.9406 83.274 53.6135 80.7995C62.3244 72.7354 71.2603 64.9425 81.2871 58.5132C91.6446 51.872 102.494 46.3472 114.576 43.3648C132.166 39.0225 148.787 41.2569 164.131 50.7423C179.357 60.1553 191.02 72.9627 198.396 89.3831C201.874 97.1251 203.722 105.268 204.316 113.761C205.488 130.506 201.442 145.911 192.919 160.264C187.861 168.779 180.296 174.446 171.603 178.772C158.041 185.522 143.786 190.308 128.845 192.827C121.135 194.127 113.313 194.764 109.151 195.265Z" fill="#F08D13"/>
<path d="M117.674 175.451C100.893 174.836 86.0887 169.7 73.9356 158.196C68.0466 152.622 63.3661 146.093 61.295 138.071C60.876 136.447 60.7906 134.695 60.8516 133.013C60.8772 132.309 61.5671 131.231 62.1703 131.054C62.8334 130.86 63.9386 131.306 64.4987 131.84C65.1914 132.501 65.5491 133.525 66.0026 134.417C69.4794 141.255 73.4435 147.706 79.4748 152.702C87.7125 159.527 97.0322 163.79 107.658 165.367C120.993 167.345 133.7 165.552 145.693 159.391C157.334 153.412 165.736 144.136 172.189 132.961C176.661 125.216 178.926 116.733 180.582 108.041C180.88 106.479 181.336 104.93 181.893 103.44C182.424 102.022 183.471 101.184 185.14 101.264C186.814 101.345 187.845 102.388 188.216 103.744C188.684 105.454 189.01 107.327 188.829 109.072C187.309 123.686 181.82 136.754 172.849 148.354C166.24 156.9 158.084 163.678 148.362 168.46C141.006 172.078 133.233 174.352 124.997 174.882C122.49 175.043 119.988 175.269 117.674 175.451" fill="black"/>
<path d="M140.695 85.335C140.446 83.0463 140.424 79.8115 140.981 78.0254C141.487 76.4051 142.707 75.4219 144.578 75.3289C146.426 75.2374 147.387 76.3158 148.003 77.7466C150.068 82.5452 150.368 87.6109 150.006 92.7344C149.908 94.1133 149.65 95.5218 149.199 96.8258C148.552 98.7025 147.066 99.6166 145.316 99.5272C143.446 99.432 142.24 98.3506 141.925 96.6468C141.127 92.3367 141.371 89.6258 140.695 85.335" fill="black"/>
<path d="M100.381 88.8123C100.275 90.2131 101.3 95.9359 100.749 99.1722C100.374 101.373 99.322 102.081 97.2176 102.025C95.2208 101.973 94.1322 101.07 93.7896 98.9674C93.5973 97.7893 93.6238 96.5746 93.5708 95.3758C93.4165 91.8841 93.1857 88.3929 93.1555 84.8999C93.1376 82.8138 93.3191 80.7068 93.634 78.6431C93.9088 76.8438 95.4112 75.4771 96.8846 75.6042C98.4621 75.7403 99.8776 76.4505 100.22 78.1614C100.961 81.8619 100.381 88.8123 100.381 88.8123" fill="black"/>
<path d="M226.165 90.4569C226.74 91.9255 227.043 93.1915 227.689 94.249C228.967 96.3409 233.064 97.1303 235.596 95.9227C237.336 95.0927 237.489 93.91 236.242 90.7182C236.18 90.5585 235.963 90.459 235.96 90.4569C232.729 90.4569 229.645 90.4569 226.165 90.4569V90.4569ZM210.289 90.9353C210.832 92.4748 211.1 93.7356 211.695 94.8188C212.939 97.087 217.266 98.0963 220.064 96.9031C221.998 96.0781 222.184 94.8499 220.902 91.2009C220.845 91.0406 220.634 90.934 220.636 90.9353C217.215 90.9353 213.94 90.9353 210.289 90.9353V90.9353ZM201.643 77.0594C202.611 76.3409 203.568 76.4846 204.371 77.2617C205.747 78.594 207.412 78.6072 209.156 78.5513C216.1 78.3284 223.046 78.131 229.992 77.9541C231.439 77.9173 232.667 77.6713 233.808 76.569C235.082 75.339 236.047 75.6377 236.829 77.258C237.305 78.2427 237.609 79.3143 237.941 80.3623C239.481 85.2272 241.121 90.0657 242.481 94.9804C243.112 97.2611 243.437 99.693 243.453 102.059C243.473 105.069 242.081 107.511 239.147 108.707C236.252 109.888 233.38 109.677 230.885 107.723C229.567 106.69 228.527 105.306 227.263 103.976C226.812 106.447 226.023 108.791 223.451 109.843C220.732 110.954 217.983 111.015 215.289 109.674C214.882 109.519 214.474 109.364 214.066 109.21C211.378 107.079 209.696 104.255 208.654 101.067C206.326 93.9453 204.08 86.7965 201.833 79.6484C201.66 79.0994 201.747 78.4693 201.713 77.877C201.689 77.6047 201.666 77.332 201.643 77.0594" fill="black"/>
<path d="M5.6314 125.452C8.63354 126.082 11.5893 126.702 14.6291 127.34C14.6486 122.341 13.0912 120.566 8.83046 120.275C6.67066 120.127 5.66015 120.973 5.49213 123.161C5.43978 123.844 5.56987 124.54 5.6314 125.452V125.452ZM2.18415 139.135C0.769487 138.671 0.56813 137.49 0.526729 136.25C0.322362 130.134 0.0353138 124.017 0.000169878 117.9C-0.0104215 116.047 0.475456 114.112 1.11659 112.353C2.17825 109.441 4.20685 107.396 7.51821 107.199C11.0412 106.99 13.7684 108.448 15.5602 111.496C16.1116 112.435 16.4924 113.472 17.0409 114.658C18.73 109.667 22.2026 110.86 25.5776 111.351C26.6373 111.505 27.6537 110.869 28.0009 109.859L28.42 108.64C30.3684 108.087 31.6532 109.216 32.6383 110.634C34.8567 113.827 35.0952 117.358 33.8821 120.96C33.1337 123.181 31.4209 124.395 29.0479 124.314C27.455 124.26 25.8649 123.942 24.2875 123.663C20.5017 122.995 19.8011 123.568 19.8608 127.412C19.8654 127.708 19.9288 128.004 20.0051 128.631C22.8952 129.337 25.8667 130.143 28.8801 130.737C29.5165 130.862 30.3651 130.308 31.009 129.899C31.6609 129.485 32.1801 128.863 33.1463 127.976C34.4694 128.477 34.4694 128.477 34.4632 131.777C34.4543 136.689 34.8249 140.112 34.9257 145.024C34.9392 145.688 34.7183 146.482 34.0491 147.132C33.3614 146.854 32.841 146.813 32.67 146.549C31.0426 144.029 28.4556 143.44 25.7646 142.825C20.1872 141.55 14.6543 140.083 9.09765 138.717C5.44388 137.818 5.43966 137.836 2.18415 139.135" fill="black"/>
<path d="M47.2076 65.221C48.368 66.1133 50.0487 66.0697 51.0479 65.0009C52.0616 63.9164 52.1032 62.8872 51.4358 61.0952C48.9253 54.3533 44.8395 48.5758 39.9584 43.3369C39.1021 42.4179 37.8241 41.5987 36.7861 42.4554C35.9184 43.1714 35.2489 44.5965 35.2181 45.727C35.182 47.0467 35.6713 48.554 36.3923 49.6904C39.4389 54.4927 42.5964 59.229 45.8556 63.8906C46.2103 64.3981 46.6869 64.821 47.2076 65.221V65.221ZM59.3854 54.5007C59.1688 62.0483 56.0596 67.8951 50.3433 72.3025C45.8824 75.7418 41.0497 75.7728 36.7605 72.3096C28.2046 65.4004 22.266 51.2146 32.9202 38.8469C33.9576 37.6427 35.1614 36.533 36.4477 35.5971C41.1443 32.18 46.1209 32.2626 50.5066 36.0783C56.1453 40.984 59.1531 47.2454 59.3854 54.5007" fill="black"/>
<path d="M120.753 10.7048C120.608 10.6701 121.551 6.2566 118.886 5.60289C117.807 5.33821 116.263 5.81291 115.439 6.54769C114.465 7.41695 113.775 8.83307 113.434 10.135C112.326 14.3686 111.361 18.644 110.489 22.9328C110.114 24.7782 110.005 26.6948 109.96 28.5832C109.931 29.7705 110.15 31.0918 111.562 31.5008C112.926 31.8956 114.241 31.4915 115.038 30.3287C115.871 29.1116 116.729 27.7907 117.087 26.3908C118.418 21.1897 119.548 15.9376 120.753 10.7048V10.7048ZM110.406 36.4136C109.136 36.3138 107.913 36.3337 106.739 36.1056C100.64 34.9213 97.2398 30.5744 97.3979 23.9992C97.4971 19.8679 98.382 15.8685 100.236 12.1345C104.66 3.22264 115.516 -1.86703 124.74 0.625916C129.637 1.949 132.388 5.17119 132.905 10.1896C134.21 22.838 126.361 33.7143 114.236 36.011C112.96 36.2527 111.645 36.2883 110.406 36.4136" fill="black"/>
<path d="M14.1473 77.6535C12.2329 79.4344 12.389 81.078 13.3777 82.6261C14.1214 83.7908 15.0114 84.9736 16.1075 85.7842C20.4446 88.991 24.8761 92.0723 29.3064 95.152C29.9458 95.5966 30.7512 95.8361 31.5109 96.0704C33.8587 96.7941 35.4646 95.6285 34.9048 93.2753C34.5381 91.7348 33.5318 90.1501 32.3795 89.026C28.136 84.886 18.5061 78.8952 18.1734 78.6664C16.8833 77.7797 15.707 77.0299 14.1473 77.6535V77.6535ZM6.95508 84.5867C7.09468 79.9585 8.25719 75.6592 10.8512 71.8256C13.8593 67.3805 18.3341 65.8827 23.4775 67.4505C37.2763 71.6565 44.08 86.7108 37.944 99.4605C34.556 106.5 28.4624 108.794 21.492 105.357C14.4471 101.885 9.22607 96.7164 7.4879 88.7417C7.19168 87.3824 7.12682 85.973 6.95508 84.5867" fill="black"/>
<path d="M214.066 109.225C214.474 109.38 214.882 109.534 215.29 109.689C215.216 111.74 216.574 112.713 218.228 113.287C225.33 115.756 232.425 118.259 239.599 120.506C241.056 120.962 242.844 120.366 244.854 120.23C245.84 120.698 245.847 121.917 245.784 123.134C245.39 130.745 245.042 138.359 244.548 145.964C244.342 149.13 242.634 150.208 239.615 149.328C237.98 148.852 236.378 148.257 234.772 147.688C233.466 147.227 232.915 146.247 232.933 144.898C232.952 143.445 233.521 142.353 234.991 141.941C236.517 141.512 238.065 141.161 239.74 140.742C239.925 138.473 240.094 136.394 240.289 133.999C237.391 132.99 234.487 131.979 231.585 130.969C230.703 132.823 231.521 134.12 232.616 135.413C233.807 136.819 234.956 138.301 233.314 140.532C232.672 140.482 231.766 140.564 230.962 140.316C229.048 139.728 227.193 138.951 225.293 138.312C223.982 137.871 222.88 137.303 222.724 135.736C222.56 134.083 223.642 133.394 224.943 132.964C226.687 132.387 227.35 131.307 226.77 129.35C223.461 128.242 220.064 127.105 216.538 125.925C215.611 129.724 215.942 132.899 219.202 135.383C220.288 136.211 221.375 137.353 221.836 138.584C222.226 139.624 222.021 141.149 221.517 142.189C220.921 143.413 219.643 142.77 218.558 142.476C217.225 142.115 215.836 141.961 214.472 141.718C213.822 141.5 213.172 141.281 212.521 141.062C211.003 138.941 210.648 136.602 210.825 134.017C211.315 126.826 211.652 119.623 212.014 112.423C212.089 110.924 212.315 109.613 214.066 109.225" fill="black"/>
<path d="M25.3079 162.884C23.9326 159.558 23.2553 158.498 21.7955 158.084C18.7091 157.208 15.645 157.573 12.7028 158.74C11.2951 159.298 10.8357 160.497 11.3134 161.939C11.5813 162.748 11.9927 163.51 12.359 164.338C16.7418 163.846 20.8893 163.38 25.3079 162.884ZM30.1303 162.261C32.2924 162.015 34.3993 161.891 36.4488 161.481C37.2176 161.328 37.9672 160.608 38.5153 159.968C39.0034 159.398 39.4689 158.679 39.7567 157.375C41.6091 157.272 41.6932 158.52 42.0074 159.227C43.9578 163.613 45.8299 168.038 47.5689 172.513C48.1595 174.033 48.0067 174.212 47.6009 174.904C47.6009 174.904 46.5145 175.429 45.2432 174.561C43.6568 173.477 42.082 173.411 40.355 173.609C33.1585 174.437 25.9572 175.227 18.7712 176.139C17.8651 176.254 16.9309 176.875 16.1988 177.486C14.3124 179.061 13.4662 179.105 12.5679 177.013C9.92265 170.855 7.21356 164.708 4.95461 158.406C3.20583 153.527 4.79331 149.354 8.53243 147.423C10.8093 146.247 13.2775 145.807 15.8469 146.147C19.1964 146.592 22.0352 148.106 24.0279 150.775C25.6324 152.924 26.9053 155.332 28.1917 157.698C28.9491 159.091 29.4462 160.624 30.1303 162.261Z" fill="black"/>
<path d="M212.52 141.064C213.17 141.282 213.82 141.501 214.47 141.719C216.331 143.345 218.073 145.137 220.081 146.555C222.622 148.351 222.504 151.817 218.787 152.83C217.145 153.278 215.51 153.756 213.883 154.256C211.798 154.897 210.4 156.329 209.876 158.381C209.661 159.221 209.851 160.409 210.331 161.12C210.974 162.071 212.166 162.297 213.3 161.698C214.271 161.184 215.248 160.671 216.161 160.066C217.75 159.013 219.251 157.827 220.861 156.81C224.435 154.55 228.131 153.983 231.902 156.356C235.772 158.791 237.344 162.416 237.025 166.847C236.711 171.228 234.719 174.87 231.61 177.929C230.969 178.56 230.29 179.152 229.513 179.868C229.997 182.519 231.459 185.508 227.796 187.531C224.769 185.896 222.289 183.555 219.817 181.253C218.625 180.144 219.009 178.43 220.59 177.463C221.679 176.796 223.021 176.553 224.176 175.975C225.862 175.131 227.639 174.35 229.086 173.184C230.649 171.926 230.796 170.05 229.877 168.91C229.019 167.847 227.514 167.684 225.774 168.765C223.136 170.403 220.677 172.338 218.001 173.907C212.126 177.352 205.255 174.694 203.21 168.22C202.347 165.486 202.522 162.695 203.332 159.934C204.651 155.434 207.081 151.776 211.39 149.403C211.011 148.084 210.588 146.872 210.321 145.627C209.842 143.395 210.435 142.245 212.52 141.064Z" fill="black"/>
<path d="M62.4901 55.0063C62.5877 53.9547 62.4506 53.0483 62.7794 52.3645C63.5364 50.7909 63.3854 49.3146 62.9593 47.7041C61.2696 41.3202 59.6169 34.9259 58.0563 28.5097C57.5677 26.5013 57.0898 24.6314 54.9872 23.6746C54.6791 23.5343 53.8189 22.9739 53.373 22.338C54.2653 21.5554 55.7406 20.7236 56.712 20.1512C63.0222 16.4332 69.3545 12.751 75.7244 9.13641C79.2319 7.14611 80.8338 7.84894 81.9063 11.6708C82.2576 12.923 82.5573 14.1917 82.8239 15.4644C83.2494 17.4974 82.7613 18.5017 81.1206 19.469C79.5255 20.4091 78.2533 19.9074 77.0566 18.7557C76.1958 17.9266 75.3204 17.1127 74.2408 16.0929C72.3675 17.1234 70.5607 18.117 68.5497 19.223C69.4161 22.588 70.2542 25.8436 71.0922 29.0993C71.3067 29.1803 71.5211 29.2614 71.7356 29.3425C72.3724 28.4499 73.0977 27.6055 73.6233 26.6518C74.247 25.5212 74.5126 24.1506 75.2899 23.1628C75.8162 22.4946 76.987 21.9515 77.814 22.0199C78.4468 22.0724 79.3015 23.0783 79.5212 23.8186C80.3174 26.5007 80.9305 29.2399 81.523 31.977C81.7852 33.187 81.6771 34.3643 80.4717 35.182C79.2559 36.0064 78.1393 35.594 77.0927 34.9471C75.6008 34.0253 74.1783 32.9006 72.5348 34.9044C73.0438 36.8409 73.6677 38.8478 74.0815 40.8968C74.4522 42.732 75.0742 44.1021 77.2329 44.3026C77.7998 44.3554 78.3113 45.0051 78.832 45.3693C77.4871 47.8674 66.3042 54.59 62.4901 55.0063" fill="black"/>
<path d="M144.999 3.52536C145.873 2.85814 145.873 2.85814 147.951 3.55545C155.179 5.98023 162.748 7.25142 170.119 9.20641C173.565 10.1208 174.268 11.9373 172.568 15.0204C171.843 16.3349 171.078 17.6297 170.279 18.9012C169.444 20.231 168.27 20.788 166.678 20.345C165.175 19.9268 164.182 19.1205 164.099 17.4501C164.03 16.0579 163.909 14.6679 163.793 13.012C162.707 12.7077 161.678 12.4062 160.642 12.1329C159.686 11.8811 158.722 11.6597 157.554 11.3748C155.806 14.3605 154.112 17.2514 152.419 20.1426C152.557 20.3603 152.695 20.578 152.832 20.7957C154.107 20.4905 155.392 20.2246 156.652 19.8684C157.797 19.5448 158.894 18.8935 160.047 18.7953C162.063 18.6239 163.231 20.1211 162.344 21.8686C160.943 24.6286 159.354 27.3205 157.58 29.8571C156.208 31.8185 153.775 31.3487 152.828 29.1321C152.594 28.5831 152.489 27.9798 152.311 27.4059C151.792 25.7414 151.79 25.7423 149.478 25.1577C148.241 27.2327 146.839 29.3038 145.764 31.5311C145.361 32.3672 145.602 33.585 145.767 34.5936C145.871 35.2335 146.376 35.8086 146.64 36.2996C146.067 37.9178 144.857 37.7658 143.812 37.5115C139.232 36.3976 134.664 35.2311 130.124 33.9663C129.499 33.7919 128.667 32.9724 128.647 32.4265C128.628 31.9079 129.456 31.0896 130.078 30.8691C131.836 30.2455 132.807 28.9762 133.685 27.4544C136.636 22.3365 139.654 17.2566 142.651 12.1648C145.014 8.15014 145.017 8.152 144.999 3.52536" fill="black"/>
<path d="M193.826 45.5941C195.26 45.2023 196.324 44.9929 197.328 44.6229C200.715 43.3738 204.041 41.9461 207.471 40.8336C209.246 40.2579 211.211 39.875 213.055 39.9849C216.214 40.1731 218.94 43.4736 218.495 46.0839C217.941 49.3303 214.456 51.596 211.239 50.7937C208.905 50.2115 207.869 48.4828 207.392 46.0743C203.183 47.5463 199.124 48.9514 195.075 50.3853C191.483 51.6581 187.904 52.9679 184.314 54.2483C183.747 54.4504 183.161 54.6067 182.574 54.7436C180.63 55.1974 178.734 55.2889 177.326 53.5406C175.945 51.8257 176.666 50.1111 177.565 48.5031C181.131 42.1208 184.738 35.7605 188.335 29.3954C189.323 27.6486 190.221 25.9761 190.001 23.7699C189.805 21.7903 191.312 21.1207 192.968 22.4176C196.449 25.1427 199.871 27.9498 203.192 30.8661C204.763 32.2469 204.439 33.6084 202.376 34.0966C200.561 34.5259 199.69 35.6475 198.869 37.0716C197.323 39.754 195.719 42.4032 193.826 45.5941" fill="black"/>
<path d="M201.643 77.0801C201.666 77.3527 201.689 77.6254 201.712 77.8978C199.736 78.1514 198.4 77.4003 197.329 75.6591C195.496 72.6785 193.412 69.8524 191.471 66.9361C190.936 66.1313 190.537 65.2362 190.154 64.5285C191.032 62.9263 192.101 63.4483 193.201 63.5585C194.637 63.7022 196.203 63.8692 197.539 63.4621C203.952 61.5074 210.301 59.3451 216.686 57.2959C218.637 56.6695 220.48 55.9946 221.296 53.8539C221.41 53.5554 221.762 53.2134 222.193 53.2134C224.916 54.5948 231.76 64.7112 231.861 67.7553C230.99 67.6997 230.041 67.8808 229.34 67.5459C227.713 66.7684 226.232 67.1224 224.681 67.6404C218.037 69.8589 211.385 72.057 204.737 74.2617C203.284 74.7431 201.828 75.219 201.643 77.0801" fill="black"/>
</svg>
