<svg width="395" height="86" viewBox="0 0 395 86" fill="none" xmlns="http://www.w3.org/2000/svg">
<path d="M0 24.7162C0 11.405 10.7908 0.614258 24.1019 0.614258H222.943C236.254 0.614258 247.045 11.4051 247.045 24.7162V61.6397C247.045 74.9509 236.254 85.7417 222.943 85.7417H24.1019C10.7908 85.7417 0 74.9509 0 61.6397V24.7162Z" fill="#B5B1B1" fill-opacity="0.95"/>
<path d="M30.139 33.3019L22.3056 58.6777H13.9867L25.792 26.5497H31.0658L30.139 33.3019ZM36.6264 58.6777L28.7709 33.3019L27.7559 26.5497H33.0959L44.9674 58.6777H36.6264ZM36.3175 46.6959V52.6758H19.8342V46.6959H36.3175ZM53.8599 55.765L60.2591 26.5497H64.0765L66.1507 29.0431L59.3323 58.6777H55.1177L53.8599 55.765ZM52.1609 26.5497L57.567 55.9857L56.1769 58.6777H51.3003L44.4819 26.5497H52.1609ZM69.6592 55.8312L75.0212 26.5497H82.6781L75.8597 58.6777H71.0052L69.6592 55.8312ZM66.8347 26.5497L73.3883 55.9416L72.0644 58.6777H67.8498L60.8769 28.999L63.0394 26.5497H66.8347ZM107.833 52.7199V58.6777H90.7101V52.7199H107.833ZM93.4684 26.5497V58.6777H85.7232V26.5497H93.4684ZM105.627 39.3038V45.063H90.7101V39.3038H105.627ZM107.9 26.5497V32.5296H90.7101V26.5497H107.9ZM127.56 50.1382C127.56 49.638 127.487 49.1894 127.34 48.7922C127.193 48.3803 126.92 47.9978 126.523 47.6447C126.126 47.2917 125.552 46.9386 124.802 46.5856C124.067 46.2178 123.096 45.8353 121.889 45.4382C120.477 44.9674 119.116 44.4378 117.807 43.8494C116.498 43.2463 115.328 42.5475 114.299 41.7531C113.269 40.944 112.452 40.0026 111.849 38.9287C111.246 37.8401 110.945 36.575 110.945 35.1333C110.945 33.7505 111.254 32.5075 111.871 31.4042C112.489 30.2862 113.35 29.3373 114.453 28.5577C115.571 27.7633 116.88 27.1602 118.381 26.7483C119.881 26.3217 121.522 26.1084 123.302 26.1084C125.655 26.1084 127.729 26.5203 129.524 27.3441C131.334 28.1531 132.746 29.3079 133.761 30.8084C134.791 32.2942 135.305 34.0521 135.305 36.0822H127.604C127.604 35.2731 127.435 34.5596 127.097 33.9418C126.773 33.3239 126.28 32.8385 125.618 32.4854C124.957 32.1324 124.125 31.9558 123.125 31.9558C122.154 31.9558 121.338 32.1029 120.676 32.3972C120.014 32.6914 119.514 33.0886 119.175 33.5887C118.837 34.0742 118.668 34.6111 118.668 35.1995C118.668 35.685 118.8 36.1263 119.065 36.5235C119.344 36.906 119.734 37.2664 120.234 37.6047C120.749 37.9431 121.367 38.2667 122.088 38.5756C122.823 38.8846 123.647 39.1861 124.559 39.4803C126.266 40.0246 127.781 40.6351 129.105 41.3118C130.444 41.9738 131.569 42.7314 132.481 43.5846C133.408 44.4231 134.107 45.3793 134.577 46.4532C135.063 47.5271 135.305 48.7407 135.305 50.0941C135.305 51.5357 135.026 52.8155 134.467 53.9336C133.908 55.0516 133.106 56.0004 132.062 56.7801C131.017 57.545 129.767 58.1261 128.311 58.5233C126.854 58.9205 125.229 59.1191 123.434 59.1191C121.786 59.1191 120.161 58.9131 118.557 58.5012C116.969 58.0746 115.527 57.4273 114.232 56.5594C112.938 55.6768 111.901 54.5514 111.121 53.1833C110.356 51.8005 109.974 50.1603 109.974 48.2626H117.741C117.741 49.2041 117.866 49.9985 118.116 50.6457C118.366 51.293 118.734 51.8152 119.219 52.2124C119.705 52.5949 120.301 52.8744 121.007 53.0509C121.713 53.2127 122.522 53.2936 123.434 53.2936C124.42 53.2936 125.214 53.1539 125.817 52.8744C126.42 52.5802 126.862 52.1977 127.141 51.727C127.421 51.2415 127.56 50.7119 127.56 50.1382ZM166.485 41.9738V43.2757C166.485 45.7324 166.139 47.939 165.448 49.8955C164.771 51.8373 163.807 53.4996 162.557 54.8824C161.307 56.2505 159.828 57.3023 158.122 58.0378C156.415 58.7586 154.532 59.1191 152.473 59.1191C150.399 59.1191 148.501 58.7586 146.78 58.0378C145.073 57.3023 143.588 56.2505 142.322 54.8824C141.072 53.4996 140.101 51.8373 139.41 49.8955C138.733 47.939 138.395 45.7324 138.395 43.2757V41.9738C138.395 39.5171 138.733 37.3105 139.41 35.354C140.101 33.3975 141.065 31.7352 142.3 30.3671C143.551 28.9843 145.029 27.9325 146.736 27.2117C148.457 26.4761 150.354 26.1084 152.429 26.1084C154.488 26.1084 156.371 26.4761 158.078 27.2117C159.799 27.9325 161.284 28.9843 162.535 30.3671C163.785 31.7352 164.756 33.3975 165.448 35.354C166.139 37.3105 166.485 39.5171 166.485 41.9738ZM158.629 43.2757V41.9297C158.629 40.3409 158.489 38.9434 158.21 37.7371C157.945 36.5161 157.548 35.4938 157.018 34.67C156.489 33.8462 155.834 33.2283 155.054 32.8164C154.29 32.3898 153.414 32.1765 152.429 32.1765C151.399 32.1765 150.502 32.3898 149.737 32.8164C148.972 33.2283 148.332 33.8462 147.817 34.67C147.302 35.4938 146.912 36.5161 146.647 37.7371C146.397 38.9434 146.272 40.3409 146.272 41.9297V43.2757C146.272 44.8497 146.397 46.2472 146.647 47.4682C146.912 48.6745 147.302 49.6969 147.817 50.5354C148.346 51.3739 148.994 52.0065 149.759 52.4331C150.538 52.8597 151.443 53.073 152.473 53.073C153.458 53.073 154.334 52.8597 155.099 52.4331C155.864 52.0065 156.503 51.3739 157.018 50.5354C157.548 49.6969 157.945 48.6745 158.21 47.4682C158.489 46.2472 158.629 44.8497 158.629 43.2757ZM174.34 26.5497H180.651L187.822 48.9025L194.994 26.5497H201.305L190.382 58.6777H185.263L174.34 26.5497ZM170.501 26.5497H177.032L178.246 51.1753V58.6777H170.501V26.5497ZM198.613 26.5497H205.166V58.6777H197.399V51.1753L198.613 26.5497ZM232.241 52.7199V58.6777H215.118V52.7199H232.241ZM217.876 26.5497V58.6777H210.131V26.5497H217.876ZM230.035 39.3038V45.063H215.118V39.3038H230.035ZM232.307 26.5497V32.5296H215.118V26.5497H232.307Z" fill="white"/>
<path d="M24.1019 3.627H222.943C234.59 3.627 244.032 13.0689 244.032 24.7162V61.6397C244.032 73.287 234.59 82.7289 222.943 82.7289H24.1019C12.4547 82.7289 3.01274 73.287 3.01274 61.6397V24.7162C3.01274 13.0689 12.4547 3.627 24.1019 3.627Z" stroke="#B5B1B1" stroke-opacity="0.95" stroke-width="6.02548"/>
<path d="M294.27 26.5507V58.6787H287.099L274.963 37.9146V58.6787H267.769V26.5507H274.963L287.121 47.3147V26.5507H294.27ZM321.433 53.1181V58.6787H304.332V53.1181H321.433ZM306.782 26.5507V58.6787H299.588V26.5507H306.782ZM319.227 39.4813V44.8654H304.332V39.4813H319.227ZM321.456 26.5507V32.1333H304.332V26.5507H321.456ZM338.314 32.6629L330.017 58.6787H322.338L334.232 26.5507H339.086L338.314 32.6629ZM345.199 58.6787L336.88 32.6629L336.019 26.5507H340.94L352.877 58.6787H345.199ZM344.845 46.719V52.2796H328.097V46.719H344.845ZM355.547 26.5507H367.882C370.339 26.5507 372.465 26.9184 374.259 27.654C376.069 28.3895 377.459 29.4781 378.43 30.9197C379.401 32.3614 379.886 34.1414 379.886 36.2597C379.886 38.025 379.599 39.5254 379.026 40.7611C378.452 41.9968 377.643 43.0192 376.598 43.8283C375.569 44.6374 374.362 45.292 372.98 45.7922L370.641 47.072H360.137L360.093 41.4893H367.904C368.978 41.4893 369.868 41.2981 370.574 40.9156C371.28 40.5331 371.81 39.9962 372.163 39.3048C372.531 38.5987 372.715 37.7749 372.715 36.8334C372.715 35.8625 372.531 35.024 372.163 34.3179C371.795 33.6118 371.251 33.0748 370.53 32.7071C369.824 32.3246 368.941 32.1333 367.882 32.1333H362.741V58.6787H355.547V26.5507ZM373.333 58.6787L366.117 44.402L373.708 44.38L381.034 58.3477V58.6787H373.333Z" fill="#B5B1B1"/>
</svg>
