<svg width="395" height="86" viewBox="0 0 395 86" fill="none" xmlns="http://www.w3.org/2000/svg">
<path d="M0 24.8939C0 11.5828 10.7908 0.791992 24.1019 0.791992H222.943C236.254 0.791992 247.045 11.5828 247.045 24.8939V61.8175C247.045 75.1286 236.254 85.9194 222.943 85.9194H24.1019C10.7908 85.9194 0 75.1286 0 61.8175V24.8939Z" fill="#0052CC" fill-opacity="0.95"/>
<path d="M30.139 33.4796L22.3056 58.8555H13.9867L25.792 26.7274H31.0658L30.139 33.4796ZM36.6264 58.8555L28.7709 33.4796L27.7559 26.7274H33.0959L44.9674 58.8555H36.6264ZM36.3175 46.8736V52.8535H19.8342V46.8736H36.3175ZM53.8599 55.9428L60.2591 26.7274H64.0765L66.1507 29.2209L59.3323 58.8555H55.1177L53.8599 55.9428ZM52.1609 26.7274L57.567 56.1634L56.1769 58.8555H51.3003L44.4819 26.7274H52.1609ZM69.6592 56.009L75.0212 26.7274H82.6781L75.8597 58.8555H71.0052L69.6592 56.009ZM66.8347 26.7274L73.3883 56.1193L72.0644 58.8555H67.8498L60.8769 29.1767L63.0394 26.7274H66.8347ZM107.833 52.8977V58.8555H90.7101V52.8977H107.833ZM93.4684 26.7274V58.8555H85.7232V26.7274H93.4684ZM105.627 39.4815V45.2408H90.7101V39.4815H105.627ZM107.9 26.7274V32.7073H90.7101V26.7274H107.9ZM127.56 50.3159C127.56 49.8158 127.487 49.3671 127.34 48.9699C127.193 48.558 126.92 48.1755 126.523 47.8225C126.126 47.4694 125.552 47.1164 124.802 46.7633C124.067 46.3956 123.096 46.0131 121.889 45.6159C120.477 45.1451 119.116 44.6156 117.807 44.0271C116.498 43.424 115.328 42.7252 114.299 41.9309C113.269 41.1218 112.452 40.1803 111.849 39.1064C111.246 38.0178 110.945 36.7527 110.945 35.3111C110.945 33.9283 111.254 32.6852 111.871 31.5819C112.489 30.4639 113.35 29.5151 114.453 28.7354C115.571 27.941 116.88 27.3379 118.381 26.926C119.881 26.4994 121.522 26.2861 123.302 26.2861C125.655 26.2861 127.729 26.698 129.524 27.5218C131.334 28.3309 132.746 29.4857 133.761 30.9861C134.791 32.4719 135.305 34.2298 135.305 36.2599H127.604C127.604 35.4508 127.435 34.7374 127.097 34.1195C126.773 33.5017 126.28 33.0162 125.618 32.6632C124.957 32.3101 124.125 32.1336 123.125 32.1336C122.154 32.1336 121.338 32.2807 120.676 32.5749C120.014 32.8691 119.514 33.2663 119.175 33.7665C118.837 34.2519 118.668 34.7888 118.668 35.3773C118.668 35.8627 118.8 36.304 119.065 36.7012C119.344 37.0837 119.734 37.4441 120.234 37.7825C120.749 38.1208 121.367 38.4444 122.088 38.7534C122.823 39.0623 123.647 39.3639 124.559 39.6581C126.266 40.2024 127.781 40.8129 129.105 41.4895C130.444 42.1515 131.569 42.9091 132.481 43.7623C133.408 44.6009 134.107 45.557 134.577 46.6309C135.063 47.7048 135.305 48.9184 135.305 50.2718C135.305 51.7134 135.026 52.9933 134.467 54.1113C133.908 55.2293 133.106 56.1781 132.062 56.9578C131.017 57.7227 129.767 58.3038 128.311 58.701C126.854 59.0982 125.229 59.2968 123.434 59.2968C121.786 59.2968 120.161 59.0908 118.557 58.6789C116.969 58.2523 115.527 57.6051 114.232 56.7371C112.938 55.8545 111.901 54.7291 111.121 53.361C110.356 51.9782 109.974 50.338 109.974 48.4403H117.741C117.741 49.3818 117.866 50.1762 118.116 50.8235C118.366 51.4707 118.734 51.993 119.219 52.3901C119.705 52.7726 120.301 53.0521 121.007 53.2286C121.713 53.3905 122.522 53.4714 123.434 53.4714C124.42 53.4714 125.214 53.3316 125.817 53.0521C126.42 52.7579 126.862 52.3754 127.141 51.9047C127.421 51.4192 127.56 50.8897 127.56 50.3159ZM166.485 42.1515V43.4534C166.485 45.9101 166.139 48.1167 165.448 50.0732C164.771 52.015 163.807 53.6773 162.557 55.0601C161.307 56.4282 159.828 57.48 158.122 58.2156C156.415 58.9364 154.532 59.2968 152.473 59.2968C150.399 59.2968 148.501 58.9364 146.78 58.2156C145.073 57.48 143.588 56.4282 142.322 55.0601C141.072 53.6773 140.101 52.015 139.41 50.0732C138.733 48.1167 138.395 45.9101 138.395 43.4534V42.1515C138.395 39.6949 138.733 37.4883 139.41 35.5317C140.101 33.5752 141.065 31.9129 142.3 30.5448C143.551 29.162 145.029 28.1102 146.736 27.3894C148.457 26.6539 150.354 26.2861 152.429 26.2861C154.488 26.2861 156.371 26.6539 158.078 27.3894C159.799 28.1102 161.284 29.162 162.535 30.5448C163.785 31.9129 164.756 33.5752 165.448 35.5317C166.139 37.4883 166.485 39.6949 166.485 42.1515ZM158.629 43.4534V42.1074C158.629 40.5186 158.489 39.1211 158.21 37.9149C157.945 36.6939 157.548 35.6715 157.018 34.8477C156.489 34.0239 155.834 33.406 155.054 32.9942C154.29 32.5675 153.414 32.3542 152.429 32.3542C151.399 32.3542 150.502 32.5675 149.737 32.9942C148.972 33.406 148.332 34.0239 147.817 34.8477C147.302 35.6715 146.912 36.6939 146.647 37.9149C146.397 39.1211 146.272 40.5186 146.272 42.1074V43.4534C146.272 45.0275 146.397 46.425 146.647 47.646C146.912 48.8522 147.302 49.8746 147.817 50.7131C148.346 51.5516 148.994 52.1842 149.759 52.6108C150.538 53.0374 151.443 53.2507 152.473 53.2507C153.458 53.2507 154.334 53.0374 155.099 52.6108C155.864 52.1842 156.503 51.5516 157.018 50.7131C157.548 49.8746 157.945 48.8522 158.21 47.646C158.489 46.425 158.629 45.0275 158.629 43.4534ZM174.34 26.7274H180.651L187.822 49.0802L194.994 26.7274H201.305L190.382 58.8555H185.263L174.34 26.7274ZM170.501 26.7274H177.032L178.246 51.353V58.8555H170.501V26.7274ZM198.613 26.7274H205.166V58.8555H197.399V51.353L198.613 26.7274ZM232.241 52.8977V58.8555H215.118V52.8977H232.241ZM217.876 26.7274V58.8555H210.131V26.7274H217.876ZM230.035 39.4815V45.2408H215.118V39.4815H230.035ZM232.307 26.7274V32.7073H215.118V26.7274H232.307Z" fill="white"/>
<path d="M24.1019 3.80473H222.943C234.59 3.80473 244.032 13.2467 244.032 24.8939V61.8175C244.032 73.4647 234.59 82.9067 222.943 82.9067H24.1019C12.4547 82.9067 3.01274 73.4647 3.01274 61.8175V24.8939C3.01274 13.2467 12.4547 3.80473 24.1019 3.80473Z" stroke="#0052CC" stroke-opacity="0.95" stroke-width="6.02548"/>
<path d="M294.27 26.7284V58.8564H287.099L274.963 38.0924V58.8564H267.769V26.7284H274.963L287.121 47.4925V26.7284H294.27ZM321.433 53.2958V58.8564H304.332V53.2958H321.433ZM306.782 26.7284V58.8564H299.588V26.7284H306.782ZM319.227 39.6591V45.0431H304.332V39.6591H319.227ZM321.456 26.7284V32.3111H304.332V26.7284H321.456ZM338.314 32.8407L330.017 58.8564H322.338L334.232 26.7284H339.086L338.314 32.8407ZM345.199 58.8564L336.88 32.8407L336.019 26.7284H340.94L352.877 58.8564H345.199ZM344.845 46.8967V52.4573H328.097V46.8967H344.845ZM355.547 26.7284H367.882C370.339 26.7284 372.465 27.0962 374.259 27.8317C376.069 28.5672 377.459 29.6558 378.43 31.0975C379.401 32.5391 379.886 34.3191 379.886 36.4374C379.886 38.2027 379.599 39.7032 379.026 40.9389C378.452 42.1746 377.643 43.197 376.598 44.006C375.569 44.8151 374.362 45.4698 372.98 45.9699L370.641 47.2497H360.137L360.093 41.6671H367.904C368.978 41.6671 369.868 41.4758 370.574 41.0933C371.28 40.7109 371.81 40.1739 372.163 39.4825C372.531 38.7764 372.715 37.9526 372.715 37.0111C372.715 36.0402 372.531 35.2017 372.163 34.4956C371.795 33.7895 371.251 33.2526 370.53 32.8848C369.824 32.5023 368.941 32.3111 367.882 32.3111H362.741V58.8564H355.547V26.7284ZM373.333 58.8564L366.117 44.5798L373.708 44.5577L381.034 58.5255V58.8564H373.333Z" fill="#0052CC"/>
</svg>
