<svg width="352" height="81" viewBox="0 0 352 81" fill="none" xmlns="http://www.w3.org/2000/svg">
<g clip-path="url(#clip0_203_38)">
<path d="M64.5094 37.194L51.4908 14.7483C50.993 13.911 50.2844 13.2172 49.4347 12.7352C48.585 12.2533 47.6236 11.9999 46.6454 12H20.6054C19.6234 12.0002 18.6587 12.2573 17.8082 12.7455C16.9577 13.2337 16.2514 13.9358 15.7601 14.7813L2.74148 37.2187C2.25555 38.066 2 39.0246 2 40C2 40.9754 2.25555 41.934 2.74148 42.7813L15.7601 65.2187C16.2492 66.0661 16.9551 66.7697 17.806 67.2582C18.657 67.7467 19.6228 68.0026 20.6054 68H46.6427C47.6247 67.9998 48.5894 67.7427 49.4399 67.2545C50.2904 66.7663 50.9968 66.0642 51.488 65.2187L64.5066 42.7813C64.9933 41.9298 65.2494 40.9674 65.2499 39.988C65.2504 39.0086 64.9952 38.0459 64.5094 37.194V37.194ZM33.6241 59.2493V55.4017C36.6904 55.4017 39.6878 54.4976 42.2373 52.8037C44.7869 51.1098 46.774 48.7023 47.9474 45.8855C49.1208 43.0687 49.4278 39.9692 48.8296 36.9789C48.2314 33.9886 46.7549 31.2418 44.5867 29.0859C42.4185 26.9301 39.656 25.4619 36.6486 24.8671C33.6413 24.2723 30.524 24.5775 27.6911 25.7443C24.8582 26.9111 22.4369 28.8869 20.7334 31.4219C19.0298 33.957 18.1206 36.9374 18.1206 39.9863C18.1119 43.3482 19.2228 46.6184 21.2799 49.2866L24.0771 46.5768C22.7183 44.6434 21.9942 42.3394 22.004 39.9808C22.004 37.6907 22.687 35.4521 23.9666 33.548C25.2461 31.6439 27.0648 30.1598 29.1926 29.2834C31.3205 28.4071 33.6618 28.1778 35.9207 28.6245C38.1796 29.0713 40.2545 30.1741 41.8831 31.7934C43.5117 33.4127 44.6207 35.4758 45.0701 37.7219C45.5194 39.9679 45.2888 42.296 44.4074 44.4117C43.526 46.5275 42.0335 48.3358 40.1185 49.6081C38.2035 50.8804 35.9521 51.5595 33.6489 51.5595V47.7118C35.1836 47.7075 36.6825 47.251 37.9564 46.4001C39.2303 45.5492 40.222 44.3419 40.8063 42.9309C41.3906 41.5199 41.5412 39.9683 41.2391 38.4722C40.937 36.9761 40.1958 35.6026 39.1091 34.5251C38.0224 33.4476 36.6389 32.7146 35.1334 32.4185C33.6279 32.1224 32.0679 32.2765 30.6505 32.8615C29.2331 33.4464 28.0218 34.4359 27.1696 35.705C26.3175 36.9741 25.8626 38.4658 25.8626 39.9918C25.8579 41.3431 26.2157 42.6713 26.8992 43.8394L29.7931 41.0334C29.6965 40.6983 29.6481 40.3513 29.6494 40.0028C29.6494 39.2206 29.8826 38.4559 30.3197 37.8056C30.7567 37.1552 31.3779 36.6483 32.1047 36.3489C32.8315 36.0496 33.6312 35.9713 34.4028 36.1239C35.1743 36.2765 35.883 36.6532 36.4393 37.2062C36.9956 37.7593 37.3744 38.464 37.5278 39.2312C37.6813 39.9984 37.6025 40.7936 37.3015 41.5162C37.0005 42.2389 36.4907 42.8565 35.8366 43.2911C35.1825 43.7257 34.4135 43.9576 33.6268 43.9576C33.2411 43.9544 32.8585 43.8894 32.4936 43.7652L22.4878 53.4723C22.3943 53.5649 22.2894 53.6453 22.1754 53.7114C22.1505 53.7362 22.1036 53.7362 22.0787 53.7582C22.0037 53.8079 21.9229 53.8485 21.8382 53.8791C21.7912 53.9038 21.7415 53.9038 21.6945 53.9258L21.4761 53.9973C21.4295 53.9961 21.3831 54.0055 21.3407 54.0247C21.2688 54.0247 21.1969 54.0495 21.1472 54.0495C21.0753 54.0495 21.0035 54.0247 20.9288 54.0247C20.8716 54.0268 20.8144 54.0184 20.7602 54L20.5419 53.9285C20.4949 53.9038 20.4451 53.9038 20.3981 53.8818C20.3205 53.851 20.2471 53.8103 20.1798 53.7609C20.1362 53.7426 20.0953 53.7186 20.0582 53.6894C19.9886 53.6396 19.9238 53.5835 19.8647 53.5218C19.8398 53.4971 19.7928 53.4751 19.7679 53.4256C16.6502 50.2402 14.7366 46.0805 14.3518 41.6521C13.967 37.2238 15.1347 32.7994 17.6568 29.1295C20.1789 25.4596 23.9002 22.7702 28.1893 21.5175C32.4783 20.2649 37.0712 20.526 41.1887 22.2567C45.3062 23.9874 48.6948 27.0811 50.7797 31.013C52.8646 34.9448 53.5174 39.4727 52.6274 43.8286C51.7373 48.1845 49.3593 52.1002 45.8966 54.9114C42.4339 57.7226 38.0999 59.2562 33.6296 59.2521L33.6241 59.2493ZM80.1815 21.949H92.0917C103.615 21.828 112.103 29.2375 111.935 39.9285C112.103 50.4052 103.618 58.2929 92.0917 58.1225H80.1815V21.949ZM92.0198 51.4605C99.3501 51.4605 104.267 46.9066 104.267 39.9533C104.267 32.9285 99.4689 28.6631 92.0198 28.6631H87.5974V51.4743H92.0198V51.4605ZM139.227 58.1472H132.38V55.5116C131.292 56.5931 129.993 57.4423 128.563 58.0071C127.133 58.5718 125.601 58.8402 124.063 58.7958C118.278 58.7958 114.635 55.4401 114.635 50.6938C114.635 45.8045 118.613 42.806 124.953 42.806H131.8V41.6078C131.857 40.9442 131.764 40.2762 131.526 39.6535C131.288 39.0308 130.912 38.4694 130.426 38.011C129.94 37.5526 129.357 37.209 128.719 37.0057C128.081 36.8024 127.405 36.7446 126.742 36.8367C125.33 36.8744 123.945 37.2307 122.692 37.8787C121.439 38.5267 120.35 39.4494 119.508 40.5772L115.639 36.0232C117.059 34.2396 118.876 32.8071 120.946 31.8378C123.016 30.8685 125.283 30.3886 127.571 30.4358C129.144 30.2871 130.73 30.4856 132.216 31.0172C133.703 31.5489 135.053 32.4005 136.17 33.5112C137.287 34.6219 138.143 35.9642 138.678 37.4423C139.213 38.9203 139.412 40.4976 139.263 42.0612V58.1472H139.227ZM131.764 47.6706H125.943C123.508 47.6706 122.134 48.605 122.134 50.4024C122.134 52.1998 123.676 53.3514 126.04 53.3514C126.776 53.3928 127.513 53.2848 128.205 53.0339C128.898 52.783 129.532 52.3945 130.069 51.8921C130.606 51.3896 131.034 50.7838 131.328 50.1114C131.622 49.439 131.775 48.7142 131.778 47.9812L131.764 47.6706ZM160.609 58.7958C159.092 58.8439 157.582 58.5766 156.174 58.0111C154.767 57.4456 153.494 56.5943 152.436 55.5116V68H144.973V31.0157H151.82V34.4154C152.846 33.0863 154.183 32.0268 155.715 31.3289C157.247 30.631 158.927 30.3159 160.609 30.4111C162.427 30.4281 164.223 30.813 165.886 31.5425C167.55 32.2719 169.046 33.3306 170.285 34.6539C171.523 35.9772 172.478 37.5374 173.09 39.2395C173.703 40.9416 173.96 42.7498 173.846 44.554C173.962 46.3635 173.707 48.1774 173.096 49.886C172.486 51.5945 171.533 53.1621 170.295 54.4936C169.058 55.8252 167.561 56.8931 165.896 57.6326C164.231 58.3721 162.433 58.7679 160.609 58.7958V58.7958ZM159.227 37.1005C158.265 37.0827 157.309 37.2682 156.424 37.6449C155.538 38.0215 154.744 38.5807 154.092 39.2855C153.44 39.9902 152.946 40.8245 152.642 41.7332C152.339 42.6419 152.233 43.6043 152.331 44.5567C152.232 45.5116 152.338 46.4763 152.641 47.3878C152.943 48.2992 153.437 49.1366 154.088 49.8452C154.739 50.5537 155.534 51.1173 156.419 51.4989C157.305 51.8806 158.262 52.0717 159.227 52.0597C160.193 52.0635 161.15 51.8699 162.038 51.4909C162.925 51.1119 163.725 50.5556 164.388 49.8564C165.05 49.1573 165.561 48.3302 165.889 47.4266C166.216 46.523 166.354 45.5621 166.292 44.6035C166.366 43.6405 166.238 42.6727 165.916 41.7616C165.594 40.8504 165.085 40.0157 164.422 39.3103C163.759 38.6049 162.955 38.0442 162.062 37.6638C161.169 37.2834 160.207 37.0916 159.236 37.1005H159.227ZM193.905 58.7958C192.388 58.8439 190.877 58.5766 189.47 58.0111C188.063 57.4456 186.789 56.5943 185.732 55.5116V68H178.269V31.0157H185.137V34.4154C186.161 33.0895 187.495 32.0319 189.023 31.3341C190.55 30.6364 192.226 30.3195 193.905 30.4111C195.723 30.4281 197.518 30.813 199.182 31.5425C200.845 32.2719 202.342 33.3306 203.58 34.6539C204.819 35.9772 205.773 37.5374 206.386 39.2395C206.998 40.9416 207.255 42.7498 207.142 44.554C207.257 46.3635 207.002 48.1774 206.392 49.886C205.781 51.5945 204.829 53.1621 203.591 54.4936C202.353 55.8252 200.857 56.8931 199.192 57.6326C197.527 58.3721 195.728 58.7679 193.905 58.7958V58.7958ZM192.523 37.1005C191.56 37.0827 190.605 37.2682 189.719 37.6449C188.834 38.0215 188.039 38.5807 187.387 39.2855C186.735 39.9902 186.241 40.8245 185.938 41.7332C185.634 42.6419 185.528 43.6043 185.627 44.5567C185.528 45.5116 185.634 46.4763 185.936 47.3878C186.239 48.2992 186.732 49.1366 187.384 49.8452C188.035 50.5537 188.829 51.1173 189.715 51.4989C190.601 51.8806 191.558 52.0717 192.523 52.0597C193.489 52.0635 194.446 51.8699 195.333 51.4909C196.221 51.1119 197.021 50.5556 197.683 49.8564C198.346 49.1573 198.856 48.3302 199.184 47.4266C199.512 46.523 199.649 45.5621 199.588 44.6035C199.664 43.64 199.537 42.6714 199.216 41.7593C198.895 40.8472 198.386 40.0116 197.722 39.3058C197.059 38.5999 196.254 38.0393 195.36 37.6596C194.467 37.2799 193.503 37.0895 192.531 37.1005H192.523ZM234.218 58.1472L224.79 45.3702H219.342V58.1472H211.88V21.949H225.55C233.168 21.949 238.666 26.6706 238.666 33.6239C238.705 35.7698 238.123 37.8818 236.991 39.7091C235.859 41.5364 234.223 43.0023 232.278 43.9329L242.596 58.1253H234.218V58.1472ZM219.32 38.8512H225.548C226.267 38.9272 226.994 38.8473 227.68 38.6169C228.365 38.3865 228.992 38.0111 229.518 37.5166C230.043 37.0222 230.454 36.4203 230.723 35.7526C230.992 35.0848 231.113 34.367 231.076 33.6486C231.099 32.936 230.969 32.2267 230.694 31.568C230.42 30.9093 230.007 30.3163 229.484 29.8287C228.961 29.341 228.339 28.9699 227.66 28.74C226.982 28.5101 226.261 28.4267 225.548 28.4955H219.329L219.32 38.8512ZM267.608 58.1472H260.761V55.5116C259.673 56.5931 258.374 57.4423 256.944 58.0071C255.514 58.5718 253.983 58.8402 252.445 58.7958C246.659 58.7958 243.016 55.4401 243.016 50.6938C243.016 45.8045 246.994 42.806 253.335 42.806H260.181V41.6078C260.239 40.9436 260.145 40.2751 259.907 39.652C259.669 39.0288 259.292 38.4671 258.806 38.0086C258.319 37.5501 257.735 37.2066 257.096 37.0037C256.458 36.8008 255.781 36.7437 255.117 36.8367C253.705 36.8744 252.321 37.2307 251.067 37.8787C249.814 38.5267 248.726 39.4494 247.884 40.5772L244.014 36.0232C245.433 34.2431 247.246 32.813 249.312 31.8443C251.378 30.8756 253.641 30.3945 255.924 30.4386C257.497 30.2898 259.083 30.4883 260.57 31.02C262.056 31.5516 263.406 32.4032 264.523 33.5139C265.64 34.6246 266.497 35.9669 267.032 37.445C267.566 38.9231 267.766 40.5003 267.616 42.064V58.15L267.608 58.1472ZM260.145 47.6706H254.31C251.875 47.6706 250.501 48.605 250.501 50.4024C250.501 52.1998 252.044 53.3514 254.407 53.3514C255.143 53.3928 255.88 53.2848 256.573 53.0339C257.265 52.783 257.9 52.3945 258.436 51.8921C258.973 51.3896 259.402 50.7838 259.695 50.1114C259.989 49.439 260.142 48.7142 260.145 47.9812V47.6706ZM300.688 17.0102V58.1225H293.841V54.7668C292.817 56.0938 291.482 57.1522 289.953 57.85C288.423 58.5478 286.746 58.864 285.066 58.7711C283.244 58.7525 281.445 58.3648 279.779 57.6317C278.113 56.8985 276.615 55.8353 275.376 54.507C274.137 53.1788 273.183 51.6133 272.574 49.9062C271.964 48.1992 271.71 46.3864 271.829 44.5787C271.71 42.771 271.964 40.9582 272.574 39.2512C273.183 37.5442 274.137 35.9787 275.376 34.6504C276.615 33.3221 278.113 32.2589 279.779 31.5258C281.445 30.7926 283.244 30.4049 285.066 30.3863C286.582 30.3139 288.095 30.5654 289.505 31.1239C290.915 31.6824 292.188 32.5349 293.239 33.6239V17.0102H300.688ZM286.464 37.1005C285.498 37.0967 284.542 37.2903 283.654 37.6693C282.766 38.0483 281.967 38.6046 281.304 39.3038C280.642 40.0029 280.131 40.83 279.803 41.7336C279.475 42.6372 279.338 43.5981 279.399 44.5567C279.323 45.5209 279.45 46.4902 279.772 47.4029C280.093 48.3155 280.603 49.1515 281.268 49.8575C281.932 50.5635 282.738 51.1239 283.633 51.5031C284.527 51.8823 285.492 52.0718 286.464 52.0597C287.427 52.0775 288.383 51.892 289.268 51.5153C290.153 51.1387 290.948 50.5795 291.6 49.8747C292.252 49.17 292.746 48.3357 293.049 47.427C293.353 46.5183 293.459 45.5559 293.361 44.6035C293.455 43.6494 293.347 42.6862 293.043 41.7766C292.738 40.8669 292.245 40.031 291.595 39.3234C290.944 38.6157 290.151 38.0521 289.267 37.6691C288.383 37.2861 287.428 37.0924 286.464 37.1005V37.1005ZM329.569 58.1472H322.723V55.5116C321.634 56.5931 320.335 57.4423 318.905 58.0071C317.475 58.5718 315.944 58.8402 314.406 58.7958C308.621 58.7958 304.978 55.4401 304.978 50.6938C304.978 45.8045 308.955 42.806 315.296 42.806H322.142V41.6078C322.2 40.9436 322.106 40.2751 321.868 39.652C321.63 39.0288 321.254 38.4671 320.767 38.0086C320.281 37.5501 319.696 37.2066 319.058 37.0037C318.419 36.8008 317.743 36.7437 317.079 36.8367C315.667 36.8744 314.282 37.2307 313.029 37.8787C311.776 38.5267 310.687 39.4494 309.845 40.5772L305.976 36.0232C307.394 34.2431 309.207 32.813 311.273 31.8443C313.339 30.8756 315.602 30.3945 317.886 30.4386C319.458 30.2898 321.045 30.4883 322.531 31.02C324.018 31.5516 325.368 32.4032 326.485 33.5139C327.602 34.6246 328.458 35.9669 328.993 37.445C329.528 38.9231 329.727 40.5003 329.578 42.064V58.15L329.569 58.1472ZM322.142 47.6706H316.31C313.875 47.6706 312.501 48.605 312.501 50.4024C312.501 52.1998 314.044 53.3514 316.407 53.3514C317.143 53.3928 317.88 53.2848 318.573 53.0339C319.265 52.783 319.9 52.3945 320.436 51.8921C320.973 51.3896 321.402 50.7838 321.695 50.1114C321.989 49.439 322.142 48.7142 322.145 47.9812L322.142 47.6706ZM352.113 37.532H350.137C349.166 37.4196 348.181 37.5234 347.256 37.8358C346.33 38.1482 345.486 38.6615 344.784 39.3384C344.082 40.0152 343.541 40.8388 343.199 41.7495C342.857 42.6601 342.723 43.635 342.806 44.6035V58.1472H335.343V31.0102H342.19V34.2477C343.082 33.122 344.222 32.2146 345.522 31.5952C346.822 30.9758 348.247 30.661 349.689 30.6749C350.514 30.6532 351.336 30.7665 352.124 31.0102V37.532H352.113Z" fill="#006CFF"/>
</g>
<defs>
<clipPath id="clip0_203_38">
<rect width="352" height="81" fill="white"/>
</clipPath>
</defs>
</svg>
