<svg width="353" height="82" viewBox="0 0 353 82" fill="none" xmlns="http://www.w3.org/2000/svg">
<circle cx="40.5669" cy="40.5669" r="40.2317" fill="#B5B1B1" stroke="#B5B1B1" stroke-width="0.670528"/>
<path d="M23.6123 61.7133V62.2392H24.1382H31.8125H32.3385V61.7133V46.4108H42.4847C47.2058 46.4108 50.9278 45.2297 53.573 42.7944L53.5731 42.7944L53.5763 42.7913C56.2221 40.3136 57.52 36.9049 57.52 32.6346C57.52 28.3647 56.2221 24.9737 53.573 22.5349C50.9278 20.0995 47.2058 18.9184 42.4847 18.9184H24.1382H23.6123V19.4443V61.7133ZM41.2856 39.3034H32.3385V26.0258H41.2856C43.98 26.0258 45.9026 26.6083 47.1476 27.6819C48.3776 28.7425 49.0336 30.3595 49.0336 32.6346C49.0336 34.9312 48.3767 36.5635 47.1459 37.6338C45.9011 38.7163 43.9791 39.3034 41.2856 39.3034Z" fill="white" stroke="white" stroke-width="1.05186"/>
<path d="M107.092 53.4277V26.4826H118.787C121.743 26.4826 124.024 27.2215 125.629 28.6993C127.234 30.1772 128.037 32.2411 128.037 34.891C128.037 37.5409 127.234 39.6175 125.629 41.1209C124.024 42.5987 121.743 43.3376 118.787 43.3376H111.984V53.4277H107.092ZM111.984 39.4774H118.023C121.539 39.4774 123.297 37.9486 123.297 34.891C123.297 31.8589 121.539 30.3428 118.023 30.3428H111.984V39.4774ZM131.575 53.4277V34.7381H136.238V38.025C137.155 35.8083 139.117 34.5852 142.124 34.3559L143.576 34.2412L143.882 38.2926L141.13 38.5601C137.996 38.8659 136.429 40.4711 136.429 43.3759V53.4277H131.575ZM155.149 53.8099C153.212 53.8099 151.531 53.415 150.104 52.6251C148.677 51.8352 147.568 50.7141 146.779 49.2617C145.989 47.7839 145.594 46.0513 145.594 44.0638C145.594 42.0764 145.989 40.3565 146.779 38.9041C147.568 37.4517 148.677 36.3306 150.104 35.5407C151.531 34.7509 153.212 34.3559 155.149 34.3559C157.085 34.3559 158.767 34.7509 160.194 35.5407C161.621 36.3306 162.729 37.4517 163.519 38.9041C164.309 40.3565 164.704 42.0764 164.704 44.0638C164.704 46.0513 164.309 47.7839 163.519 49.2617C162.729 50.7141 161.621 51.8352 160.194 52.6251C158.767 53.415 157.085 53.8099 155.149 53.8099ZM155.149 50.179C156.576 50.179 157.722 49.6694 158.589 48.6502C159.455 47.6055 159.888 46.0767 159.888 44.0638C159.888 42.0254 159.455 40.5093 158.589 39.5156C157.722 38.4964 156.576 37.9868 155.149 37.9868C153.722 37.9868 152.575 38.4964 151.709 39.5156C150.843 40.5093 150.41 42.0254 150.41 44.0638C150.41 46.0767 150.843 47.6055 151.709 48.6502C152.575 49.6694 153.722 50.179 155.149 50.179ZM176.215 53.8099C174.584 53.8099 173.144 53.415 171.896 52.6251C170.673 51.8352 169.717 50.7141 169.029 49.2617C168.341 47.7839 167.997 46.0513 167.997 44.0638C167.997 42.0509 168.341 40.331 169.029 38.9041C169.717 37.4517 170.673 36.3306 171.896 35.5407C173.144 34.7509 174.584 34.3559 176.215 34.3559C177.54 34.3559 178.737 34.6489 179.807 35.235C180.878 35.821 181.68 36.5982 182.215 37.5664V26.4826H186.993V53.4277H182.33V50.3319C181.82 51.4021 181.018 52.2557 179.922 52.8927C178.826 53.5042 177.591 53.8099 176.215 53.8099ZM177.552 50.179C178.979 50.179 180.126 49.6694 180.992 48.6502C181.858 47.6055 182.292 46.0767 182.292 44.0638C182.292 42.0254 181.858 40.5093 180.992 39.5156C180.126 38.4964 178.979 37.9868 177.552 37.9868C176.125 37.9868 174.979 38.4964 174.113 39.5156C173.246 40.5093 172.813 42.0254 172.813 44.0638C172.813 46.0767 173.246 47.6055 174.113 48.6502C174.979 49.6694 176.125 50.179 177.552 50.179ZM199.094 53.8099C194.507 53.8099 192.214 51.2364 192.214 46.0895V34.7381H196.991V46.1659C196.991 47.4909 197.259 48.4719 197.794 49.1089C198.329 49.7459 199.183 50.0644 200.355 50.0644C201.629 50.0644 202.674 49.6312 203.489 48.7649C204.304 47.8731 204.712 46.701 204.712 45.2486V34.7381H209.489V53.4277H204.827V50.6377C203.578 52.7525 201.667 53.8099 199.094 53.8099ZM223.482 53.8099C221.52 53.8099 219.813 53.415 218.36 52.6251C216.908 51.8098 215.787 50.6631 214.997 49.1853C214.207 47.7075 213.812 45.9748 213.812 43.9874C213.812 41.9999 214.207 40.2928 214.997 38.8659C215.787 37.4135 216.908 36.3051 218.36 35.5407C219.813 34.7509 221.52 34.3559 223.482 34.3559C224.679 34.3559 225.864 34.547 227.036 34.9292C228.208 35.3114 229.177 35.8465 229.941 36.5345L228.527 39.8596C227.864 39.2736 227.113 38.8277 226.272 38.5219C225.457 38.2161 224.667 38.0633 223.902 38.0633C222.246 38.0633 220.959 38.5856 220.042 39.6303C219.15 40.6495 218.704 42.1146 218.704 44.0256C218.704 45.9111 219.15 47.4017 220.042 48.4973C220.959 49.5675 222.246 50.1026 223.902 50.1026C224.641 50.1026 225.431 49.9497 226.272 49.6439C227.113 49.3382 227.864 48.8795 228.527 48.268L229.941 51.6314C229.177 52.2939 228.196 52.829 226.998 53.2366C225.826 53.6188 224.654 53.8099 223.482 53.8099ZM241.89 53.8099C236.947 53.8099 234.475 51.3638 234.475 46.4717V38.3308H230.883V34.7381H234.475V29.158H239.253V34.7381H244.909V38.3308H239.253V46.2041C239.253 47.4272 239.52 48.3445 240.055 48.956C240.59 49.5675 241.457 49.8733 242.654 49.8733C243.011 49.8733 243.38 49.835 243.763 49.7586C244.145 49.6567 244.54 49.5548 244.948 49.4528L245.674 52.9691C245.215 53.2239 244.629 53.4277 243.916 53.5806C243.228 53.7335 242.552 53.8099 241.89 53.8099ZM259.522 53.4277V26.4826H264.414V37.7193H278.288V26.4826H283.18V53.4277H278.288V41.8088H264.414V53.4277H259.522ZM295.771 53.8099C291.185 53.8099 288.891 51.2364 288.891 46.0895V34.7381H293.669V46.1659C293.669 47.4909 293.936 48.4719 294.471 49.1089C295.007 49.7459 295.86 50.0644 297.032 50.0644C298.306 50.0644 299.351 49.6312 300.166 48.7649C300.982 47.8731 301.389 46.701 301.389 45.2486V34.7381H306.167V53.4277H301.504V50.6377C300.255 52.7525 298.344 53.8099 295.771 53.8099ZM311.522 53.4277V34.7381H316.184V37.6428C316.821 36.5727 317.675 35.7573 318.745 35.1968C319.841 34.6362 321.064 34.3559 322.414 34.3559C326.822 34.3559 329.026 36.9167 329.026 42.0381V53.4277H324.249V42.2675C324.249 40.8151 323.969 39.7577 323.408 39.0952C322.873 38.4327 322.032 38.1015 320.885 38.1015C319.484 38.1015 318.363 38.5474 317.522 39.4392C316.707 40.3055 316.299 41.4648 316.299 42.9172V53.4277H311.522ZM342.822 53.8099C337.879 53.8099 335.408 51.3638 335.408 46.4717V38.3308H331.815V34.7381H335.408V29.158H340.185V34.7381H345.842V38.3308H340.185V46.2041C340.185 47.4272 340.453 48.3445 340.988 48.956C341.523 49.5675 342.389 49.8733 343.587 49.8733C343.943 49.8733 344.313 49.835 344.695 49.7586C345.077 49.6567 345.472 49.5548 345.88 49.4528L346.606 52.9691C346.147 53.2239 345.561 53.4277 344.848 53.5806C344.16 53.7335 343.485 53.8099 342.822 53.8099Z" fill="#B5B1B1"/>
</svg>
