<svg width="353" height="82" viewBox="0 0 353 82" fill="none" xmlns="http://www.w3.org/2000/svg">
<circle cx="40.5669" cy="41.1333" r="40.2317" fill="#DA552F" stroke="#DA552F" stroke-width="0.670528"/>
<path d="M23.6123 62.2797V62.8056H24.1382H31.8125H32.3385V62.2797V46.9773H42.4847C47.2058 46.9773 50.9278 45.7961 53.573 43.3608L53.5731 43.3608L53.5763 43.3577C56.2221 40.88 57.52 37.4713 57.52 33.2011C57.52 28.9312 56.2221 25.5401 53.573 23.1013C50.9278 20.6659 47.2058 19.4848 42.4847 19.4848H24.1382H23.6123V20.0107V62.2797ZM41.2856 39.8698H32.3385V26.5922H41.2856C43.98 26.5922 45.9026 27.1748 47.1476 28.2483C48.3776 29.309 49.0336 30.9259 49.0336 33.2011C49.0336 35.4976 48.3767 37.13 47.1459 38.2002C45.9011 39.2827 43.9791 39.8698 41.2856 39.8698Z" fill="white" stroke="white" stroke-width="1.05186"/>
<path d="M107.092 53.9941V27.049H118.787C121.743 27.049 124.024 27.7879 125.629 29.2657C127.234 30.7436 128.037 32.8075 128.037 35.4574C128.037 38.1073 127.234 40.1839 125.629 41.6873C124.024 43.1651 121.743 43.904 118.787 43.904H111.984V53.9941H107.092ZM111.984 40.0438H118.023C121.539 40.0438 123.297 38.515 123.297 35.4574C123.297 32.4253 121.539 30.9092 118.023 30.9092H111.984V40.0438ZM131.575 53.9941V35.3045H136.238V38.5914C137.155 36.3747 139.117 35.1516 142.124 34.9223L143.576 34.8077L143.882 38.859L141.13 39.1265C137.996 39.4323 136.429 41.0375 136.429 43.9423V53.9941H131.575ZM155.149 54.3763C153.212 54.3763 151.531 53.9814 150.104 53.1915C148.677 52.4016 147.568 51.2805 146.779 49.8282C145.989 48.3503 145.594 46.6177 145.594 44.6302C145.594 42.6428 145.989 40.9229 146.779 39.4705C147.568 38.0181 148.677 36.897 150.104 36.1071C151.531 35.3173 153.212 34.9223 155.149 34.9223C157.085 34.9223 158.767 35.3173 160.194 36.1071C161.621 36.897 162.729 38.0181 163.519 39.4705C164.309 40.9229 164.704 42.6428 164.704 44.6302C164.704 46.6177 164.309 48.3503 163.519 49.8282C162.729 51.2805 161.621 52.4016 160.194 53.1915C158.767 53.9814 157.085 54.3763 155.149 54.3763ZM155.149 50.7454C156.576 50.7454 157.722 50.2358 158.589 49.2166C159.455 48.1719 159.888 46.6431 159.888 44.6302C159.888 42.5918 159.455 41.0757 158.589 40.082C157.722 39.0628 156.576 38.5532 155.149 38.5532C153.722 38.5532 152.575 39.0628 151.709 40.082C150.843 41.0757 150.41 42.5918 150.41 44.6302C150.41 46.6431 150.843 48.1719 151.709 49.2166C152.575 50.2358 153.722 50.7454 155.149 50.7454ZM176.215 54.3763C174.584 54.3763 173.144 53.9814 171.896 53.1915C170.673 52.4016 169.717 51.2805 169.029 49.8282C168.341 48.3503 167.997 46.6177 167.997 44.6302C167.997 42.6173 168.341 40.8974 169.029 39.4705C169.717 38.0181 170.673 36.897 171.896 36.1071C173.144 35.3173 174.584 34.9223 176.215 34.9223C177.54 34.9223 178.737 35.2153 179.807 35.8014C180.878 36.3874 181.68 37.1646 182.215 38.1328V27.049H186.993V53.9941H182.33V50.8983C181.82 51.9685 181.018 52.8221 179.922 53.4591C178.826 54.0706 177.591 54.3763 176.215 54.3763ZM177.552 50.7454C178.979 50.7454 180.126 50.2358 180.992 49.2166C181.858 48.1719 182.292 46.6431 182.292 44.6302C182.292 42.5918 181.858 41.0757 180.992 40.082C180.126 39.0628 178.979 38.5532 177.552 38.5532C176.125 38.5532 174.979 39.0628 174.113 40.082C173.246 41.0757 172.813 42.5918 172.813 44.6302C172.813 46.6431 173.246 48.1719 174.113 49.2166C174.979 50.2358 176.125 50.7454 177.552 50.7454ZM199.094 54.3763C194.507 54.3763 192.214 51.8029 192.214 46.6559V35.3045H196.991V46.7323C196.991 48.0573 197.259 49.0383 197.794 49.6753C198.329 50.3123 199.183 50.6308 200.355 50.6308C201.629 50.6308 202.674 50.1976 203.489 49.3313C204.304 48.4395 204.712 47.2674 204.712 45.815V35.3045H209.489V53.9941H204.827V51.2041C203.578 53.3189 201.667 54.3763 199.094 54.3763ZM223.482 54.3763C221.52 54.3763 219.813 53.9814 218.36 53.1915C216.908 52.3762 215.787 51.2296 214.997 49.7517C214.207 48.2739 213.812 46.5412 213.812 44.5538C213.812 42.5663 214.207 40.8592 214.997 39.4323C215.787 37.9799 216.908 36.8715 218.36 36.1071C219.813 35.3173 221.52 34.9223 223.482 34.9223C224.679 34.9223 225.864 35.1134 227.036 35.4956C228.208 35.8778 229.177 36.4129 229.941 37.1009L228.527 40.426C227.864 39.84 227.113 39.3941 226.272 39.0883C225.457 38.7825 224.667 38.6297 223.902 38.6297C222.246 38.6297 220.959 39.152 220.042 40.1967C219.15 41.2159 218.704 42.681 218.704 44.592C218.704 46.4775 219.15 47.9681 220.042 49.0637C220.959 50.1339 222.246 50.669 223.902 50.669C224.641 50.669 225.431 50.5161 226.272 50.2104C227.113 49.9046 227.864 49.4459 228.527 48.8344L229.941 52.1978C229.177 52.8603 228.196 53.3954 226.998 53.803C225.826 54.1852 224.654 54.3763 223.482 54.3763ZM241.89 54.3763C236.947 54.3763 234.475 51.9303 234.475 47.0381V38.8972H230.883V35.3045H234.475V29.7244H239.253V35.3045H244.909V38.8972H239.253V46.7705C239.253 47.9936 239.52 48.9109 240.055 49.5224C240.59 50.1339 241.457 50.4397 242.654 50.4397C243.011 50.4397 243.38 50.4015 243.763 50.325C244.145 50.2231 244.54 50.1212 244.948 50.0193L245.674 53.5355C245.215 53.7903 244.629 53.9941 243.916 54.147C243.228 54.2999 242.552 54.3763 241.89 54.3763ZM259.522 53.9941V27.049H264.414V38.2857H278.288V27.049H283.18V53.9941H278.288V42.3752H264.414V53.9941H259.522ZM295.771 54.3763C291.185 54.3763 288.891 51.8029 288.891 46.6559V35.3045H293.669V46.7323C293.669 48.0573 293.936 49.0383 294.471 49.6753C295.007 50.3123 295.86 50.6308 297.032 50.6308C298.306 50.6308 299.351 50.1976 300.166 49.3313C300.982 48.4395 301.389 47.2674 301.389 45.815V35.3045H306.167V53.9941H301.504V51.2041C300.255 53.3189 298.344 54.3763 295.771 54.3763ZM311.522 53.9941V35.3045H316.184V38.2092C316.821 37.1391 317.675 36.3237 318.745 35.7632C319.841 35.2026 321.064 34.9223 322.414 34.9223C326.822 34.9223 329.026 37.4831 329.026 42.6046V53.9941H324.249V42.8339C324.249 41.3815 323.969 40.3241 323.408 39.6616C322.873 38.9991 322.032 38.6679 320.885 38.6679C319.484 38.6679 318.363 39.1138 317.522 40.0056C316.707 40.8719 316.299 42.0313 316.299 43.4836V53.9941H311.522ZM342.822 54.3763C337.879 54.3763 335.408 51.9303 335.408 47.0381V38.8972H331.815V35.3045H335.408V29.7244H340.185V35.3045H345.842V38.8972H340.185V46.7705C340.185 47.9936 340.453 48.9109 340.988 49.5224C341.523 50.1339 342.389 50.4397 343.587 50.4397C343.943 50.4397 344.313 50.4015 344.695 50.325C345.077 50.2231 345.472 50.1212 345.88 50.0193L346.606 53.5355C346.147 53.7903 345.561 53.9941 344.848 54.147C344.16 54.2999 343.485 54.3763 342.822 54.3763Z" fill="#DA552F"/>
</svg>
