<svg width="23" height="24" viewBox="0 0 23 24" fill="none" xmlns="http://www.w3.org/2000/svg">
<path d="M15.1429 7.19356C15.0584 7.19319 14.9748 7.17533 14.8969 7.141C14.8191 7.10667 14.7485 7.05655 14.6893 6.99356L9.94238 2.04023C9.82292 1.91292 9.75682 1.74131 9.75862 1.56316C9.76041 1.385 9.82996 1.21488 9.95196 1.09023C10.074 0.965574 10.2384 0.896599 10.4092 0.898475C10.5799 0.90035 10.7429 0.972922 10.8624 1.10023L15.6157 6.05356C15.7347 6.17847 15.8015 6.34744 15.8015 6.52356C15.8015 6.69968 15.7347 6.86865 15.6157 6.99356C15.5543 7.059 15.4806 7.11053 15.3993 7.14494C15.3179 7.17935 15.2307 7.1959 15.1429 7.19356ZM6.83099 15.8602C6.66338 15.8595 6.50277 15.7901 6.38377 15.6669L1.63043 10.7136C1.51013 10.5854 1.44355 10.4126 1.44535 10.2332C1.44715 10.0537 1.51717 9.88243 1.64002 9.75689C1.76286 9.63136 1.92847 9.56189 2.1004 9.56376C2.27234 9.56564 2.43652 9.63871 2.55682 9.76689L7.30377 14.7202C7.39387 14.8135 7.45532 14.9326 7.48028 15.0624C7.50524 15.1923 7.49258 15.3269 7.44392 15.4492C7.39526 15.5715 7.3128 15.6759 7.20705 15.7491C7.1013 15.8223 6.97705 15.861 6.85016 15.8602H6.83099ZM13.1879 20.6669L13.5074 21.8469C13.5298 21.9343 13.5327 22.0258 13.516 22.1146C13.4994 22.2033 13.4634 22.2869 13.411 22.359C13.3586 22.431 13.2911 22.4896 13.2137 22.5303C13.1363 22.5709 13.051 22.5926 12.9643 22.5936H2.34599C2.25932 22.5926 2.17401 22.5709 2.09659 22.5303C2.01917 22.4896 1.95168 22.431 1.89928 22.359C1.84688 22.2869 1.81096 22.2033 1.79426 22.1146C1.77756 22.0258 1.78053 21.9343 1.80293 21.8469L2.12877 20.6669C2.18866 20.4564 2.31284 20.2722 2.48239 20.1422C2.65194 20.0122 2.85756 19.9436 3.06793 19.9469H12.2424C12.4533 19.9444 12.6594 20.0131 12.8299 20.1429C13.0003 20.2726 13.1259 20.4565 13.1879 20.6669ZM20.5671 18.7202L11.776 9.64023L13.6927 7.64023L9.27793 3.00023L3.56627 8.96023L7.99377 13.5869L10.0446 11.4536L18.8229 20.5202C18.9365 20.6399 19.0719 20.7346 19.2211 20.7987C19.3704 20.8628 19.5304 20.8951 19.6918 20.8936C19.9342 20.8961 20.1717 20.8232 20.3742 20.6843C20.5767 20.5454 20.735 20.3467 20.8289 20.1136C20.9228 19.8805 20.948 19.6235 20.9014 19.3753C20.8548 19.1272 20.7384 18.8991 20.5671 18.7202Z" fill="#0F1D40"/>
</svg>
