<svg width="12" height="13" viewBox="0 0 12 13" fill="none" xmlns="http://www.w3.org/2000/svg">
<path d="M11.0564 2.04688L9.86108 0.851562C9.65015 0.640625 9.3689 0.5 9.06421 0.5H5.03296C4.40015 0.5 3.90796 1.01562 3.90796 1.625V2.75H2.03296C1.40015 2.75 0.907959 3.26562 0.907959 3.875V11.375C0.907959 12.0078 1.40015 12.5 2.03296 12.5H7.28296C7.89233 12.5 8.40796 12.0078 8.40796 11.375V10.25H10.283C10.8923 10.25 11.408 9.75781 11.408 9.125V2.84375C11.408 2.53906 11.2673 2.25781 11.0564 2.04688ZM7.14233 11.375H2.17358C2.07983 11.375 2.03296 11.3281 2.03296 11.2344V4.01562C2.03296 3.94531 2.07983 3.875 2.17358 3.875H3.90796V9.125C3.90796 9.75781 4.40015 10.25 5.03296 10.25H7.28296V11.2344C7.28296 11.3281 7.21265 11.375 7.14233 11.375ZM10.1423 9.125H5.17358C5.07983 9.125 5.03296 9.07812 5.03296 8.98438V1.76562C5.03296 1.69531 5.07983 1.625 5.17358 1.625H7.65796V3.6875C7.65796 4.01562 7.89233 4.25 8.22046 4.25H10.283V8.98438C10.283 9.07812 10.2126 9.125 10.1423 9.125ZM10.283 3.125H8.78296V1.625H8.9939C9.04077 1.625 9.06421 1.64844 9.08765 1.67188L10.2361 2.82031C10.2595 2.84375 10.283 2.86719 10.283 2.91406V3.125Z" fill="black"/>
</svg>
