<svg width="61" height="61" viewBox="0 0 61 61" fill="none" xmlns="http://www.w3.org/2000/svg">
<path d="M0 4.69231C0 2.10082 2.10082 0 4.69231 0H56.3077C58.8992 0 61 2.10082 61 4.69231V56.3077C61 58.8992 58.8992 61 56.3077 61H4.69231C2.10082 61 0 58.8992 0 56.3077V4.69231Z" fill="#009987"/>
<path d="M44.637 15.2688C44.5399 15.1621 44.4222 15.0762 44.291 15.0163C44.1598 14.9564 44.0178 14.9237 43.8735 14.9202C43.7293 14.9168 43.5859 14.9425 43.452 14.9961C43.318 15.0496 43.1963 15.1297 43.0942 15.2316L42.2723 16.0495C42.1727 16.1492 42.1167 16.2843 42.1167 16.4252C42.1167 16.5661 42.1727 16.7013 42.2723 16.801L43.0257 17.5531C43.0751 17.6027 43.1338 17.6421 43.1985 17.669C43.2631 17.6958 43.3325 17.7097 43.4025 17.7097C43.4725 17.7097 43.5418 17.6958 43.6065 17.669C43.6711 17.6421 43.7298 17.6027 43.7792 17.5531L44.5805 16.7558C44.9858 16.3511 45.0237 15.692 44.637 15.2688Z" fill="white"/>
<path d="M40.6104 17.7107L28.616 29.6839C28.5433 29.7563 28.4904 29.8462 28.4625 29.945L27.9077 31.5974C27.8944 31.6423 27.8935 31.6899 27.905 31.7352C27.9165 31.7805 27.94 31.8219 27.9731 31.855C28.0061 31.888 28.0475 31.9116 28.0928 31.9231C28.1382 31.9346 28.1858 31.9337 28.2306 31.9204L29.8817 31.3656C29.9805 31.3377 30.0704 31.2848 30.1429 31.2121L42.116 19.2163C42.2268 19.1043 42.2889 18.9532 42.2889 18.7957C42.2889 18.6382 42.2268 18.4871 42.116 18.3751L41.4549 17.7107C41.3428 17.5989 41.191 17.5361 41.0327 17.5361C40.8744 17.5361 40.7225 17.5989 40.6104 17.7107Z" fill="white"/>
<path d="M39.7467 24.5982L31.6479 32.7129C31.3349 33.0267 30.9501 33.2596 30.527 33.3913L28.8061 33.9674C28.3977 34.0827 27.9659 34.0871 27.5552 33.98C27.1446 33.8729 26.7699 33.6583 26.4698 33.3582C26.1697 33.0581 25.9551 32.6834 25.848 32.2728C25.7409 31.8621 25.7453 31.4304 25.8606 31.022L26.4367 29.3011C26.5681 28.878 26.8005 28.4933 27.1138 28.1802L35.2285 20.08C35.3029 20.0057 35.3536 19.911 35.3742 19.8079C35.3947 19.7048 35.3843 19.5979 35.3441 19.5007C35.3039 19.4036 35.2358 19.3205 35.1484 19.2621C35.061 19.2036 34.9583 19.1724 34.8531 19.1724H20.987C20.0001 19.1724 19.0537 19.5644 18.3559 20.2622C17.6581 20.96 17.2661 21.9064 17.2661 22.8932V38.8397C17.2661 39.8266 17.6581 40.773 18.3559 41.4708C19.0537 42.1686 20.0001 42.5606 20.987 42.5606H36.9335C37.9203 42.5606 38.8667 42.1686 39.5645 41.4708C40.2623 40.773 40.6543 39.8266 40.6543 38.8397V24.9736C40.6543 24.8684 40.6231 24.7657 40.5646 24.6783C40.5062 24.5909 40.4231 24.5228 40.3259 24.4826C40.2288 24.4424 40.1219 24.432 40.0188 24.4525C39.9157 24.4731 39.821 24.5238 39.7467 24.5982Z" fill="white"/>
</svg>
