<svg width="61" height="61" viewBox="0 0 61 61" fill="none" xmlns="http://www.w3.org/2000/svg">
<path d="M0 4C0 1.79086 1.79086 0 4 0H57C59.2091 0 61 1.79086 61 4V57C61 59.2091 59.2091 61 57 61H4C1.79086 61 0 59.2091 0 57V4Z" fill="#009987"/>
<path d="M22.8749 38.125H22.8902M22.8749 44.225C21.2571 44.225 19.7055 43.5823 18.5616 42.4384C17.4176 41.2944 16.7749 39.7428 16.7749 38.125V19.825C16.7749 19.0161 17.0962 18.2403 17.6682 17.6683C18.2402 17.0964 19.016 16.775 19.8249 16.775H25.9249C26.7338 16.775 27.5096 17.0964 28.0816 17.6683C28.6536 18.2403 28.9749 19.0161 28.9749 19.825V38.125C28.9749 39.7428 28.3322 41.2944 27.1883 42.4384C26.0443 43.5823 24.4927 44.225 22.8749 44.225V44.225ZM22.8749 44.225H41.1749C41.9838 44.225 42.7596 43.9037 43.3316 43.3317C43.9036 42.7597 44.2249 41.9839 44.2249 41.175V35.075C44.2249 34.2661 43.9036 33.4903 43.3316 32.9184C42.7596 32.3464 41.9838 32.025 41.1749 32.025H37.6018L22.8749 44.225ZM28.9749 23.3981L31.5018 20.8712C32.0738 20.2994 32.8494 19.9782 33.6582 19.9782C34.4669 19.9782 35.2426 20.2994 35.8145 20.8712L40.1288 25.1854C40.7005 25.7574 41.0218 26.533 41.0218 27.3417C41.0218 28.1505 40.7005 28.9261 40.1288 29.4981L27.1876 42.4377L28.9749 23.3981Z" stroke="white" stroke-width="2" stroke-linecap="round" stroke-linejoin="round"/>
</svg>
