<svg width="41" height="41" viewBox="0 0 41 41" fill="none" xmlns="http://www.w3.org/2000/svg">
<path d="M35.2344 4.48438H5.76562C5.05693 4.48438 4.48438 5.05693 4.48438 5.76562V35.2344C4.48438 35.9431 5.05693 36.5156 5.76562 36.5156H35.2344C35.9431 36.5156 36.5156 35.9431 36.5156 35.2344V5.76562C36.5156 5.05693 35.9431 4.48438 35.2344 4.48438ZM31.5348 13.8335H28.9763C26.9703 13.8335 26.5819 14.7864 26.5819 16.1878V19.2748H31.3706L30.746 24.1075H26.5819V36.5156H21.5891V24.1115H17.413V19.2748H21.5891V15.7113C21.5891 11.5753 24.1155 9.32109 27.8071 9.32109C29.5769 9.32109 31.0943 9.45322 31.5388 9.51328V13.8335H31.5348Z" fill="#009987"/>
</svg>
