<svg width="31" height="30" viewBox="0 0 31 30" fill="none" xmlns="http://www.w3.org/2000/svg">
<path fill-rule="evenodd" clip-rule="evenodd" d="M15.5 0C18.057 0.00801837 20.5269 0.930262 22.4634 2.60013C23.9475 3.87888 25.0228 5.54513 25.2999 7.21719C28.5471 7.93406 31 10.7628 31 14.1786C31 18.1466 27.6908 21.3125 23.6743 21.3125H16.4688V11.0573L20.6266 15.2171C20.8085 15.399 21.0552 15.5012 21.3125 15.5012C21.5698 15.5012 21.8165 15.399 21.9984 15.2171C22.1803 15.0352 22.2825 14.7885 22.2825 14.5312C22.2825 14.274 22.1803 14.0273 21.9984 13.8454L16.1859 8.03288C16.0959 7.94266 15.989 7.87108 15.8713 7.82224C15.7536 7.77341 15.6274 7.74827 15.5 7.74827C15.3726 7.74827 15.2464 7.77341 15.1287 7.82224C15.011 7.87108 14.9041 7.94266 14.8141 8.03288L9.00163 13.8454C8.81972 14.0273 8.71753 14.274 8.71753 14.5312C8.71753 14.7885 8.81972 15.0352 9.00163 15.2171C9.18353 15.399 9.43025 15.5012 9.6875 15.5012C9.94475 15.5012 10.1915 15.399 10.3734 15.2171L14.5312 11.0573V21.3125H6.417C2.90238 21.3125 0 18.5419 0 15.0602C0 11.8904 2.40637 9.30775 5.49088 8.87181C5.96169 3.87306 10.2881 0 15.5 0ZM16.4688 28.0938V21.3125H14.5312V28.0938C14.5312 28.3507 14.6333 28.5971 14.815 28.7788C14.9967 28.9604 15.2431 29.0625 15.5 29.0625C15.7569 29.0625 16.0033 28.9604 16.185 28.7788C16.3667 28.5971 16.4688 28.3507 16.4688 28.0938Z" fill="#009987"/>
</svg>
