<svg width="20" height="20" viewBox="0 0 20 20" fill="none" xmlns="http://www.w3.org/2000/svg">
<path d="M10 0C8.02219 0 6.08879 0.58649 4.4443 1.6853C2.79981 2.78412 1.51809 4.3459 0.761209 6.17317C0.00433284 8.00043 -0.193701 10.0111 0.192152 11.9509C0.578004 13.8907 1.53041 15.6725 2.92894 17.0711C4.32746 18.4696 6.10929 19.422 8.0491 19.8079C9.98891 20.1937 11.9996 19.9957 13.8268 19.2388C15.6541 18.4819 17.2159 17.2002 18.3147 15.5557C19.4135 13.9112 20 11.9778 20 10C20 8.68678 19.7413 7.38642 19.2388 6.17317C18.7363 4.95991 17.9997 3.85752 17.0711 2.92893C16.1425 2.00035 15.0401 1.26375 13.8268 0.761205C12.6136 0.258658 11.3132 0 10 0V0ZM10 18C7.87827 18 5.84344 17.1571 4.34315 15.6569C2.84286 14.1566 2 12.1217 2 10C1.9978 8.22334 2.59302 6.49755 3.69 5.1L14.9 16.31C13.5025 17.407 11.7767 18.0022 10 18V18ZM16.31 14.9L5.1 3.69C6.49755 2.59302 8.22335 1.99779 10 2C12.1217 2 14.1566 2.84285 15.6569 4.34315C17.1572 5.84344 18 7.87827 18 10C18.0022 11.7767 17.407 13.5025 16.31 14.9Z" fill="white"/>
</svg>
