<svg width="24" height="24" viewBox="0 0 24 24" fill="none" xmlns="http://www.w3.org/2000/svg">
<path fill-rule="evenodd" clip-rule="evenodd" d="M13.5 21H10.5C9.67155 21 9 20.3284 9 19.5V13.8075L3.4425 8.25C3.16081 7.96995 3.00167 7.5897 3 7.1925V4.5C3 3.67157 3.67157 3 4.5 3H19.5C20.3284 3 21 3.67157 21 4.5V7.1925C20.9984 7.5897 20.8392 7.96995 20.5575 8.25L15 13.8075V19.5C15 20.3284 14.3285 21 13.5 21ZM4.5 4.5V7.1925L10.5 13.1925V19.5H13.5V13.1925L19.5 7.1925V4.5H4.5Z" fill="#009987"/>
</svg>
