<svg width="24" height="24" viewBox="0 0 24 24" fill="none" xmlns="http://www.w3.org/2000/svg">
<path fill-rule="evenodd" clip-rule="evenodd" d="M7.7031 5.60341C7.45009 5.16481 7.4315 4.60691 7.7028 4.13686L8.80163 2.23303C9.20625 1.53205 10.1023 1.29189 10.803 1.6966L15.8783 4.62774C16.5791 5.03244 16.8192 5.92877 16.4146 6.62974L15.3158 8.53357C15.0448 9.00307 14.5532 9.26587 14.0476 9.26662L12.851 11.34L21.7331 16.4698L21.0005 17.739L12.1184 12.6092L10.921 14.6838C11.1732 15.1222 11.1914 15.6793 10.9205 16.1489L9.82155 18.0527C9.417 18.7537 8.52098 18.9939 7.82018 18.5892L2.74488 15.658C2.04413 15.2533 1.80403 14.3569 2.20861 13.656L3.30745 11.7522C3.57875 11.2821 4.07105 11.0193 4.57727 11.0191L7.7031 5.60341ZM14.0471 7.80045L8.97248 4.86964L8.97187 4.86927L10.0705 2.96581L15.1458 5.89696L14.0471 7.80045ZM8.87407 6.50563L5.94409 11.5822L9.7506 13.7805L12.6806 8.70397L8.87407 6.50563ZM3.47743 14.3888L4.57627 12.4849L9.6516 15.4161L8.55277 17.32L3.47743 14.3888ZM21.7675 21.75H22.5V20.2844H21.7675H2.23255H1.5V21.75H2.23255H21.7675Z" fill="#212529"/>
</svg>
