<svg width="12" height="11" viewBox="0 0 12 11" fill="none" xmlns="http://www.w3.org/2000/svg">
<path d="M6.15796 4.25781C5.45483 4.25781 4.89233 4.82031 4.89233 5.5C4.89233 6.20312 5.45483 6.76562 6.15796 6.76562C6.83765 6.76562 7.40015 6.20312 7.40015 5.5C7.40015 4.82031 6.83765 4.25781 6.15796 4.25781ZM9.06421 3.29688C8.94702 2.96875 8.68921 2.71094 8.36108 2.59375C7.8689 2.38281 6.69702 2.42969 6.15796 2.42969C5.59546 2.42969 4.42358 2.38281 3.9314 2.59375C3.60327 2.71094 3.34546 2.96875 3.22827 3.29688C3.04077 3.78906 3.06421 4.96094 3.06421 5.5C3.06421 6.0625 3.04077 7.23438 3.22827 7.72656C3.34546 8.05469 3.60327 8.3125 3.9314 8.42969C4.42358 8.64062 5.59546 8.59375 6.15796 8.59375C6.69702 8.59375 7.8689 8.64062 8.36108 8.42969C8.68921 8.3125 8.94702 8.05469 9.06421 7.72656C9.27515 7.23438 9.22827 6.0625 9.22827 5.5C9.22827 4.96094 9.27515 3.78906 9.06421 3.29688ZM6.15796 7.42188C5.07983 7.42188 4.23608 6.57812 4.23608 5.5C4.23608 4.44531 5.07983 3.57812 6.15796 3.57812C7.21265 3.57812 8.07983 4.44531 8.07983 5.5V5.52344C8.07983 6.57812 7.21265 7.44531 6.15796 7.44531V7.42188ZM8.15015 3.95312C7.89233 3.95312 7.70483 3.76562 7.70483 3.50781C7.70483 3.25 7.89233 3.0625 8.15015 3.0625C8.38452 3.0625 8.59546 3.25 8.59546 3.50781C8.59546 3.76562 8.38452 3.95312 8.15015 3.95312ZM10.283 0.25H2.03296C1.40015 0.25 0.907959 0.765625 0.907959 1.375V9.625C0.907959 10.2578 1.40015 10.75 2.03296 10.75H10.283C10.8923 10.75 11.408 10.2578 11.408 9.625V1.375C11.408 0.765625 10.8923 0.25 10.283 0.25ZM9.86108 7.04688C9.83765 7.65625 9.69702 8.19531 9.27515 8.61719C8.82983 9.0625 8.29077 9.20312 7.70483 9.22656C7.07202 9.27344 5.22046 9.27344 4.61108 9.22656C4.00171 9.20312 3.46265 9.0625 3.04077 8.61719C2.59546 8.19531 2.45483 7.65625 2.4314 7.04688C2.38452 6.4375 2.38452 4.58594 2.4314 3.95312C2.45483 3.36719 2.59546 2.82812 3.04077 2.38281C3.46265 1.96094 4.00171 1.82031 4.61108 1.79688C5.22046 1.75 7.07202 1.75 7.70483 1.79688C8.29077 1.82031 8.82983 1.96094 9.27515 2.40625C9.69702 2.82812 9.83765 3.36719 9.86108 3.97656C9.90796 4.58594 9.90796 6.4375 9.86108 7.04688Z" fill="#B331C9"/>
</svg>
