<svg width="41" height="41" viewBox="0 0 41 41" fill="none" xmlns="http://www.w3.org/2000/svg">
<rect x="4" y="4" width="32.03" height="32.03" rx="1" fill="#009987"/>
<path fill-rule="evenodd" clip-rule="evenodd" d="M19.874 19H20.126C20.57 17.275 22.136 16 24 16H26C27.0609 16 28.0783 16.4214 28.8284 17.1716C29.5786 17.9217 30 18.9391 30 20C30 21.0609 29.5786 22.0783 28.8284 22.8284C28.0783 23.5786 27.0609 24 26 24H24C23.1131 23.9999 22.2514 23.7052 21.5502 23.1622C20.849 22.6192 20.3481 21.8586 20.126 21H19.874C19.6519 21.8586 19.151 22.6192 18.4498 23.1622C17.7486 23.7052 16.8869 23.9999 16 24H14C12.9391 24 11.9217 23.5786 11.1716 22.8284C10.4214 22.0783 10 21.0609 10 20C10 18.9391 10.4214 17.9217 11.1716 17.1716C11.9217 16.4214 12.9391 16 14 16H16C16.8869 16.0001 17.7486 16.2948 18.4498 16.8378C19.151 17.3808 19.6519 18.1414 19.874 19V19ZM17.75 19.031C17.5769 18.7185 17.3234 18.4581 17.0156 18.2768C16.7079 18.0955 16.3572 17.9999 16 18H14C13.4696 18 12.9609 18.2107 12.5858 18.5858C12.2107 18.9609 12 19.4696 12 20C12 20.5304 12.2107 21.0391 12.5858 21.4142C12.9609 21.7893 13.4696 22 14 22H16C16.3572 22.0001 16.7079 21.9045 17.0156 21.7232C17.3234 21.5419 17.5769 21.2815 17.75 20.969C17.5347 20.9141 17.3438 20.789 17.2074 20.6136C17.0711 20.4381 16.9971 20.2222 16.9971 20C16.9971 19.7778 17.0711 19.5619 17.2074 19.3864C17.3438 19.211 17.5347 19.0859 17.75 19.031V19.031ZM22 20.97C22.1732 21.2823 22.4268 21.5425 22.7346 21.7236C23.0423 21.9047 23.3929 22.0002 23.75 22H25.75C26.2804 22 26.7891 21.7893 27.1642 21.4142C27.5393 21.0391 27.75 20.5304 27.75 20C27.75 19.4696 27.5393 18.9609 27.1642 18.5858C26.7891 18.2107 26.2804 18 25.75 18H23.75C23.3928 17.9999 23.0421 18.0955 22.7344 18.2768C22.4266 18.4581 22.1731 18.7185 22 19.031C22.2153 19.0859 22.4062 19.211 22.5426 19.3864C22.6789 19.5619 22.7529 19.7778 22.7529 20C22.7529 20.2222 22.6789 20.4381 22.5426 20.6136C22.4062 20.789 22.2153 20.9141 22 20.969V20.97Z" fill="white"/>
</svg>
