<svg width="139" height="135" viewBox="0 0 139 135" fill="none" xmlns="http://www.w3.org/2000/svg">
<path d="M1.392 128V116.72H2.416L9.216 125.792V116.72H10.432V128H9.44L2.624 118.896V128H1.392ZM16.2918 128.144C15.5344 128.144 14.8784 127.979 14.3238 127.648C13.7691 127.317 13.3371 126.853 13.0278 126.256C12.7291 125.648 12.5798 124.933 12.5798 124.112C12.5798 123.291 12.7291 122.581 13.0278 121.984C13.3371 121.376 13.7691 120.907 14.3238 120.576C14.8784 120.245 15.5344 120.08 16.2918 120.08C17.0384 120.08 17.6891 120.245 18.2438 120.576C18.8091 120.907 19.2411 121.376 19.5398 121.984C19.8491 122.581 20.0038 123.291 20.0038 124.112C20.0038 124.933 19.8491 125.648 19.5398 126.256C19.2411 126.853 18.8091 127.317 18.2438 127.648C17.6891 127.979 17.0384 128.144 16.2918 128.144ZM16.2918 127.104C17.0171 127.104 17.5984 126.848 18.0358 126.336C18.4731 125.813 18.6918 125.072 18.6918 124.112C18.6918 123.141 18.4731 122.4 18.0358 121.888C17.5984 121.376 17.0171 121.12 16.2918 121.12C15.5558 121.12 14.9691 121.376 14.5318 121.888C14.1051 122.4 13.8918 123.141 13.8918 124.112C13.8918 125.072 14.1051 125.813 14.5318 126.336C14.9691 126.848 15.5558 127.104 16.2918 127.104ZM29.1798 128.144C28.2624 128.144 27.5744 127.904 27.1158 127.424C26.6571 126.933 26.4278 126.229 26.4278 125.312V121.232H24.9078V120.224H26.4278V117.84H27.7238V120.224H30.1878V121.232H27.7238V125.184C27.7238 125.792 27.8518 126.256 28.1078 126.576C28.3638 126.885 28.7798 127.04 29.3558 127.04C29.5264 127.04 29.6971 127.019 29.8678 126.976C30.0384 126.933 30.1931 126.891 30.3318 126.848L30.5558 127.84C30.4171 127.915 30.2144 127.984 29.9478 128.048C29.6811 128.112 29.4251 128.144 29.1798 128.144ZM31.6535 128V120.224H32.9175V121.616C33.3335 120.677 34.1868 120.16 35.4775 120.064L35.9415 120.016L36.0375 121.136L35.2215 121.232C34.4855 121.296 33.9255 121.531 33.5415 121.936C33.1575 122.331 32.9655 122.875 32.9655 123.568V128H31.6535ZM39.7578 128.144C39.2244 128.144 38.7444 128.043 38.3178 127.84C37.9018 127.627 37.5711 127.339 37.3258 126.976C37.0804 126.613 36.9578 126.208 36.9578 125.76C36.9578 125.195 37.1018 124.747 37.3898 124.416C37.6884 124.085 38.1738 123.851 38.8458 123.712C39.5284 123.563 40.4564 123.488 41.6298 123.488H42.1418V122.992C42.1418 122.331 42.0031 121.856 41.7258 121.568C41.4591 121.269 41.0271 121.12 40.4298 121.12C39.9604 121.12 39.5071 121.189 39.0698 121.328C38.6324 121.456 38.1844 121.669 37.7258 121.968L37.2778 121.024C37.6831 120.736 38.1738 120.507 38.7498 120.336C39.3364 120.165 39.8964 120.08 40.4298 120.08C41.4324 120.08 42.1738 120.325 42.6538 120.816C43.1444 121.307 43.3898 122.069 43.3898 123.104V128H42.1738V126.656C41.9711 127.115 41.6564 127.477 41.2298 127.744C40.8138 128.011 40.3231 128.144 39.7578 128.144ZM39.9658 127.168C40.6058 127.168 41.1284 126.949 41.5338 126.512C41.9391 126.064 42.1418 125.499 42.1418 124.816V124.336H41.6458C40.7818 124.336 40.0991 124.379 39.5978 124.464C39.1071 124.539 38.7604 124.677 38.5578 124.88C38.3658 125.072 38.2698 125.339 38.2698 125.68C38.2698 126.117 38.4191 126.475 38.7178 126.752C39.0271 127.029 39.4431 127.168 39.9658 127.168ZM48.7541 128.144C48.0608 128.144 47.4528 127.979 46.9301 127.648C46.4181 127.317 46.0181 126.853 45.7301 126.256C45.4528 125.648 45.3141 124.933 45.3141 124.112C45.3141 123.28 45.4528 122.565 45.7301 121.968C46.0181 121.36 46.4181 120.896 46.9301 120.576C47.4528 120.245 48.0608 120.08 48.7541 120.08C49.3621 120.08 49.8955 120.213 50.3541 120.48C50.8235 120.747 51.1701 121.115 51.3941 121.584V116.72H52.6901V128H51.4261V126.576C51.2021 127.067 50.8555 127.451 50.3861 127.728C49.9168 128.005 49.3728 128.144 48.7541 128.144ZM49.0261 127.104C49.7515 127.104 50.3328 126.848 50.7701 126.336C51.2075 125.813 51.4261 125.072 51.4261 124.112C51.4261 123.141 51.2075 122.4 50.7701 121.888C50.3328 121.376 49.7515 121.12 49.0261 121.12C48.2901 121.12 47.7035 121.376 47.2661 121.888C46.8395 122.4 46.6261 123.141 46.6261 124.112C46.6261 125.072 46.8395 125.813 47.2661 126.336C47.7035 126.848 48.2901 127.104 49.0261 127.104ZM54.9622 118.288V116.832H56.5623V118.288H54.9622ZM55.1223 128V120.224H56.4183V128H55.1223ZM58.841 128V120.224H60.105V121.552C60.361 121.061 60.7237 120.693 61.193 120.448C61.6623 120.203 62.1903 120.08 62.777 120.08C64.6223 120.08 65.545 121.104 65.545 123.152V128H64.249V123.232C64.249 122.507 64.105 121.979 63.817 121.648C63.5397 121.307 63.0917 121.136 62.473 121.136C61.7583 121.136 61.1877 121.36 60.761 121.808C60.345 122.245 60.137 122.832 60.137 123.568V128H58.841ZM71.3748 131.024C70.7028 131.024 70.0681 130.933 69.4708 130.752C68.8841 130.581 68.3614 130.32 67.9028 129.968L68.3348 129.024C68.8148 129.365 69.2894 129.611 69.7588 129.76C70.2388 129.909 70.7561 129.984 71.3108 129.984C72.8468 129.984 73.6148 129.195 73.6148 127.616V126.24C73.3908 126.731 73.0388 127.12 72.5588 127.408C72.0894 127.685 71.5508 127.824 70.9427 127.824C70.2281 127.824 69.6094 127.659 69.0868 127.328C68.5641 126.997 68.1588 126.544 67.8708 125.968C67.5934 125.381 67.4548 124.704 67.4548 123.936C67.4548 123.168 67.5934 122.496 67.8708 121.92C68.1588 121.333 68.5641 120.88 69.0868 120.56C69.6094 120.24 70.2281 120.08 70.9427 120.08C71.5508 120.08 72.0894 120.219 72.5588 120.496C73.0388 120.773 73.3908 121.152 73.6148 121.632V120.224H74.8788V127.44C74.8788 128.635 74.5801 129.531 73.9828 130.128C73.3961 130.725 72.5268 131.024 71.3748 131.024ZM71.1828 126.768C71.9294 126.768 72.5214 126.512 72.9588 126C73.3961 125.488 73.6148 124.8 73.6148 123.936C73.6148 123.072 73.3961 122.389 72.9588 121.888C72.5214 121.376 71.9294 121.12 71.1828 121.12C70.4468 121.12 69.8601 121.376 69.4228 121.888C68.9854 122.389 68.7668 123.072 68.7668 123.936C68.7668 124.8 68.9854 125.488 69.4228 126C69.8601 126.512 70.4468 126.768 71.1828 126.768ZM84.3791 128.144C83.6858 128.144 83.0778 127.979 82.5551 127.648C82.0431 127.317 81.6431 126.853 81.3551 126.256C81.0778 125.648 80.9391 124.933 80.9391 124.112C80.9391 123.28 81.0778 122.565 81.3551 121.968C81.6431 121.36 82.0431 120.896 82.5551 120.576C83.0778 120.245 83.6858 120.08 84.3791 120.08C84.9871 120.08 85.5205 120.213 85.9791 120.48C86.4485 120.747 86.7951 121.115 87.0191 121.584V116.72H88.3151V128H87.0511V126.576C86.8271 127.067 86.4805 127.451 86.0111 127.728C85.5418 128.005 84.9978 128.144 84.3791 128.144ZM84.6511 127.104C85.3765 127.104 85.9578 126.848 86.3951 126.336C86.8325 125.813 87.0511 125.072 87.0511 124.112C87.0511 123.141 86.8325 122.4 86.3951 121.888C85.9578 121.376 85.3765 121.12 84.6511 121.12C83.9151 121.12 83.3285 121.376 82.8911 121.888C82.4645 122.4 82.2511 123.141 82.2511 124.112C82.2511 125.072 82.4645 125.813 82.8911 126.336C83.3285 126.848 83.9151 127.104 84.6511 127.104ZM93.1953 128.144C92.6619 128.144 92.1819 128.043 91.7553 127.84C91.3393 127.627 91.0086 127.339 90.7633 126.976C90.5179 126.613 90.3953 126.208 90.3953 125.76C90.3953 125.195 90.5393 124.747 90.8273 124.416C91.1259 124.085 91.6113 123.851 92.2833 123.712C92.9659 123.563 93.8939 123.488 95.0673 123.488H95.5793V122.992C95.5793 122.331 95.4406 121.856 95.1633 121.568C94.8966 121.269 94.4646 121.12 93.8673 121.12C93.3979 121.12 92.9446 121.189 92.5073 121.328C92.0699 121.456 91.6219 121.669 91.1633 121.968L90.7153 121.024C91.1206 120.736 91.6113 120.507 92.1873 120.336C92.7739 120.165 93.3339 120.08 93.8673 120.08C94.8699 120.08 95.6113 120.325 96.0913 120.816C96.5819 121.307 96.8273 122.069 96.8273 123.104V128H95.6113V126.656C95.4086 127.115 95.0939 127.477 94.6673 127.744C94.2513 128.011 93.7606 128.144 93.1953 128.144ZM93.4033 127.168C94.0433 127.168 94.5659 126.949 94.9713 126.512C95.3766 126.064 95.5793 125.499 95.5793 124.816V124.336H95.0833C94.2193 124.336 93.5366 124.379 93.0353 124.464C92.5446 124.539 92.1979 124.677 91.9953 124.88C91.8033 125.072 91.7073 125.339 91.7073 125.68C91.7073 126.117 91.8566 126.475 92.1553 126.752C92.4646 127.029 92.8806 127.168 93.4033 127.168ZM102.352 128.144C101.434 128.144 100.746 127.904 100.288 127.424C99.829 126.933 99.5996 126.229 99.5996 125.312V121.232H98.0796V120.224H99.5996V117.84H100.896V120.224H103.36V121.232H100.896V125.184C100.896 125.792 101.024 126.256 101.28 126.576C101.536 126.885 101.952 127.04 102.528 127.04C102.698 127.04 102.869 127.019 103.04 126.976C103.21 126.933 103.365 126.891 103.504 126.848L103.728 127.84C103.589 127.915 103.386 127.984 103.12 128.048C102.853 128.112 102.597 128.144 102.352 128.144ZM107.273 128.144C106.74 128.144 106.26 128.043 105.833 127.84C105.417 127.627 105.087 127.339 104.841 126.976C104.596 126.613 104.473 126.208 104.473 125.76C104.473 125.195 104.617 124.747 104.905 124.416C105.204 124.085 105.689 123.851 106.361 123.712C107.044 123.563 107.972 123.488 109.145 123.488H109.657V122.992C109.657 122.331 109.519 121.856 109.241 121.568C108.975 121.269 108.543 121.12 107.945 121.12C107.476 121.12 107.023 121.189 106.585 121.328C106.148 121.456 105.7 121.669 105.241 121.968L104.793 121.024C105.199 120.736 105.689 120.507 106.265 120.336C106.852 120.165 107.412 120.08 107.945 120.08C108.948 120.08 109.689 120.325 110.169 120.816C110.66 121.307 110.905 122.069 110.905 123.104V128H109.689V126.656C109.487 127.115 109.172 127.477 108.745 127.744C108.329 128.011 107.839 128.144 107.273 128.144ZM107.481 127.168C108.121 127.168 108.644 126.949 109.049 126.512C109.455 126.064 109.657 125.499 109.657 124.816V124.336H109.161C108.297 124.336 107.615 124.379 107.113 124.464C106.623 124.539 106.276 124.677 106.073 124.88C105.881 125.072 105.785 125.339 105.785 125.68C105.785 126.117 105.935 126.475 106.233 126.752C106.543 127.029 106.959 127.168 107.481 127.168ZM118.315 130.88L119.643 127.872L116.363 120.224H117.771L120.347 126.528L122.939 120.224H124.299L119.675 130.88H118.315ZM129.033 128.144C127.806 128.144 126.835 127.787 126.121 127.072C125.406 126.347 125.049 125.365 125.049 124.128C125.049 123.328 125.209 122.624 125.529 122.016C125.849 121.397 126.286 120.923 126.841 120.592C127.406 120.251 128.057 120.08 128.793 120.08C129.849 120.08 130.675 120.421 131.273 121.104C131.87 121.776 132.169 122.704 132.169 123.888V124.384H126.312C126.355 125.269 126.611 125.947 127.081 126.416C127.55 126.875 128.201 127.104 129.033 127.104C129.502 127.104 129.95 127.035 130.377 126.896C130.803 126.747 131.209 126.507 131.593 126.176L132.041 127.088C131.689 127.419 131.241 127.68 130.697 127.872C130.153 128.053 129.598 128.144 129.033 128.144ZM128.825 121.04C128.089 121.04 127.507 121.269 127.081 121.728C126.654 122.187 126.403 122.789 126.329 123.536H131.049C131.017 122.747 130.809 122.133 130.425 121.696C130.051 121.259 129.518 121.04 128.825 121.04ZM137.164 128.144C136.247 128.144 135.559 127.904 135.1 127.424C134.641 126.933 134.412 126.229 134.412 125.312V121.232H132.892V120.224H134.412V117.84H135.708V120.224H138.172V121.232H135.708V125.184C135.708 125.792 135.836 126.256 136.092 126.576C136.348 126.885 136.764 127.04 137.34 127.04C137.511 127.04 137.681 127.019 137.852 126.976C138.023 126.933 138.177 126.891 138.316 126.848L138.54 127.84C138.401 127.915 138.199 127.984 137.932 128.048C137.665 128.112 137.409 128.144 137.164 128.144Z" fill="#009987"/>
<g clip-path="url(#clip0_394_1438)">
<path d="M18 0H121V103H18V0Z" fill="white"/>
<path d="M112.47 8.52979H103.458L78.0297 41.0392L62.5797 23.0142L18 87.711V103H28.3L64.0281 51.0173L78.8344 68.0767L112.47 24.9454V8.52979Z" fill="#52C18E"/>
<path d="M121 0H18V81.5953L22.8281 74.675H21.3797V53.2703H37.4734L39.8875 49.8906H21.3797V28.325H42.7844V45.5453L46.1641 40.5563V28.325H54.5328L56.9469 24.9453H46.1641V3.37969H67.5687V23.8188L71.4313 28.325H83.5016L86.2375 24.9453H71.1094V3.37969H92.5141V16.7375L95.8938 12.3922V3.37969H117.298V24.7844H115.528V26.0719L113.919 28.1641H117.298V49.5687H97.3422L92.675 55.6844V74.5141H71.2703V64.375L67.8906 60.3516V74.3531H52.1188L49.7047 77.7328H67.8906V99.1375H46.325V82.8828L42.9453 87.8719V99.6203H34.8984L32.4844 103H121V0ZM42.9453 24.9453H21.3797V3.37969H42.7844C42.9453 3.37969 42.9453 24.9453 42.9453 24.9453ZM92.675 99.6203H71.2703V78.0547H92.675V99.6203ZM117.62 99.6203H96.0547V78.0547H117.459V99.6203H117.62ZM117.62 74.675H96.0547V53.2703H117.459V74.675H117.62Z" fill="#D0D5D8"/>
</g>
<defs>
<clipPath id="clip0_394_1438">
<rect width="103" height="103" fill="white" transform="translate(18)"/>
</clipPath>
</defs>
</svg>
