<svg width="30" height="24" viewBox="0 0 30 24" fill="none" xmlns="http://www.w3.org/2000/svg">
<g clip-path="url(#clip0_9911_93267)">
<path d="M28.8758 0H19.8758C19.2578 0 18.3923 0.3585 17.9558 0.795L6.79727 11.9535C6.58687 12.1649 6.46875 12.451 6.46875 12.7493C6.46875 13.0475 6.58687 13.3336 6.79727 13.545L16.4558 23.2035C16.6672 23.4139 16.9533 23.532 17.2515 23.532C17.5498 23.532 17.8359 23.4139 18.0473 23.2035L29.2058 12.045C29.6438 11.607 30.0008 10.743 30.0008 10.125V1.125C30 0.826875 29.8812 0.541187 29.6704 0.33038C29.4596 0.119573 29.1739 0.000791837 28.8758 0V0ZM23.2508 9C22.9552 8.9999 22.6625 8.94159 22.3895 8.82839C22.1165 8.71518 21.8684 8.54931 21.6595 8.34024C21.4505 8.13117 21.2848 7.88299 21.1718 7.60988C21.0588 7.33677 21.0007 7.04407 21.0008 6.7485C21.0009 6.45293 21.0592 6.16027 21.1724 5.88723C21.2856 5.6142 21.4515 5.36613 21.6605 5.1572C21.8696 4.94827 22.1178 4.78256 22.3909 4.66954C22.664 4.55652 22.9567 4.4984 23.2523 4.4985C23.8492 4.4987 24.4216 4.73602 24.8436 5.15826C25.2655 5.5805 25.5025 6.15306 25.5023 6.75C25.5021 7.34694 25.2648 7.91934 24.8425 8.3413C24.4203 8.76326 23.8477 9.0002 23.2508 9Z" fill="#0F1D40"/>
<path d="M3.00077 12.75L15.7508 0H13.8758C13.2578 0 12.3923 0.3585 11.9558 0.795L0.797271 11.9535C0.58687 12.1649 0.46875 12.451 0.46875 12.7493C0.46875 13.0475 0.58687 13.3336 0.797271 13.545L10.4558 23.2035C10.6672 23.4139 10.9533 23.532 11.2515 23.532C11.5498 23.532 11.8359 23.4139 12.0473 23.2035L12.7523 22.4985L3.00227 12.7485L3.00077 12.75Z" fill="#0F1D40"/>
</g>
<defs>
<clipPath id="clip0_9911_93267">
<rect width="30" height="24" fill="white"/>
</clipPath>
</defs>
</svg>
