<svg width="30" height="25" viewBox="0 0 30 25" fill="none" xmlns="http://www.w3.org/2000/svg">
<g clip-path="url(#clip0_298_1277)">
<path d="M28.8748 0.824707H19.8748C19.2568 0.824707 18.3913 1.18321 17.9548 1.61971L6.7963 12.7782C6.58589 12.9896 6.46777 13.2757 6.46777 13.574C6.46777 13.8722 6.58589 14.1583 6.7963 14.3697L16.4548 24.0282C16.6662 24.2386 16.9523 24.3567 17.2505 24.3567C17.5488 24.3567 17.8349 24.2386 18.0463 24.0282L29.2048 12.8697C29.6428 12.4317 29.9998 11.5677 29.9998 10.9497V1.94971C29.999 1.65158 29.8802 1.36589 29.6694 1.15509C29.4586 0.94428 29.1729 0.825499 28.8748 0.824707V0.824707ZM23.2498 9.82471C22.9542 9.82461 22.6616 9.76629 22.3885 9.65309C22.1155 9.53989 21.8674 9.37402 21.6585 9.16495C21.4496 8.95588 21.2839 8.7077 21.1708 8.43459C21.0578 8.16148 20.9997 7.86878 20.9998 7.57321C20.9999 7.27763 21.0582 6.98498 21.1714 6.71194C21.2846 6.4389 21.4505 6.19084 21.6596 5.98191C21.8686 5.77297 22.1168 5.60727 22.3899 5.49425C22.663 5.38123 22.9557 5.32311 23.2513 5.32321C23.8482 5.32341 24.4206 5.56073 24.8426 5.98297C25.2646 6.40521 25.5015 6.97777 25.5013 7.57471C25.5011 8.17164 25.2638 8.74405 24.8415 9.16601C24.4193 9.58797 23.8467 9.82491 23.2498 9.82471Z" fill="white"/>
<path d="M2.99979 13.5747L15.7498 0.824707H13.8748C13.2568 0.824707 12.3913 1.18321 11.9548 1.61971L0.796295 12.7782C0.585893 12.9896 0.467773 13.2757 0.467773 13.574C0.467773 13.8722 0.585893 14.1583 0.796295 14.3697L10.4548 24.0282C10.6662 24.2386 10.9523 24.3567 11.2505 24.3567C11.5488 24.3567 11.8349 24.2386 12.0463 24.0282L12.7513 23.3232L3.00129 13.5732L2.99979 13.5747Z" fill="white"/>
</g>
<defs>
<clipPath id="clip0_298_1277">
<rect width="30" height="24" fill="white" transform="translate(0 0.824707)"/>
</clipPath>
</defs>
</svg>
