<svg width="41" height="41" viewBox="0 0 41 41" fill="none" xmlns="http://www.w3.org/2000/svg">
<path d="M35.2344 4.48438H5.76562C5.05693 4.48438 4.48438 5.05693 4.48438 5.76562V35.2344C4.48438 35.9431 5.05693 36.5156 5.76562 36.5156H35.2344C35.9431 36.5156 36.5156 35.9431 36.5156 35.2344V5.76562C36.5156 5.05693 35.9431 4.48438 35.2344 4.48438ZM29.1204 16.0837C29.1324 16.2719 29.1324 16.4681 29.1324 16.6603C29.1324 22.538 24.6561 29.3086 16.4761 29.3086C13.9536 29.3086 11.6153 28.5759 9.64541 27.3146C10.0058 27.3547 10.3501 27.3707 10.7185 27.3707C12.8005 27.3707 14.7144 26.666 16.2398 25.4729C14.2859 25.4328 12.6443 24.1516 12.0838 22.3898C12.7685 22.4899 13.3851 22.4899 14.0897 22.3098C13.0837 22.1054 12.1794 21.559 11.5305 20.7634C10.8816 19.9678 10.5282 18.9721 10.5303 17.9455V17.8895C11.1188 18.2218 11.8115 18.426 12.5362 18.454C11.927 18.048 11.4274 17.4979 11.0817 16.8526C10.7359 16.2072 10.5548 15.4865 10.5543 14.7544C10.5543 13.9256 10.7705 13.1688 11.1589 12.5122C12.2756 13.8869 13.6691 15.0112 15.2487 15.8121C16.8284 16.613 18.5589 17.0725 20.3278 17.1607C19.6992 14.1378 21.9574 11.6914 24.6721 11.6914C25.9533 11.6914 27.1064 12.2279 27.9192 13.0928C28.9242 12.9046 29.8852 12.5282 30.742 12.0237C30.4097 13.0527 29.713 13.9216 28.7881 14.4701C29.685 14.374 30.5498 14.1258 31.3506 13.7774C30.746 14.6663 29.9893 15.4551 29.1204 16.0837V16.0837Z" fill="#009987"/>
</svg>
