<svg width="61" height="61" viewBox="0 0 61 61" fill="none" xmlns="http://www.w3.org/2000/svg">
<path d="M0 4C0 1.79086 1.79086 0 4 0H57C59.2091 0 61 1.79086 61 4V57C61 59.2091 59.2091 61 57 61H4C1.79086 61 0 59.2091 0 57V4Z" fill="#009987"/>
<path d="M26.0844 31.5017H31.5017V23.3758H35.5646L28.7931 16.6042L22.0215 23.3758H26.0844V31.5017ZM41.4397 33.5766C41.1553 33.2732 39.2579 31.2431 38.7161 30.7135C38.3365 30.3496 37.8308 30.1468 37.3049 30.1474H34.9254L39.075 34.2022H34.2753C34.2101 34.201 34.1457 34.2171 34.0886 34.2487C34.0316 34.2803 33.9839 34.3264 33.9503 34.3824L32.8452 36.919H24.7409L23.6358 34.3824C23.6021 34.3266 23.5543 34.2807 23.4973 34.2491C23.4403 34.2175 23.376 34.2013 23.3108 34.2022H18.5111L22.6594 30.1474H20.2812C19.7435 30.1474 19.2302 30.3628 18.87 30.7135C18.3283 31.2444 16.4309 33.2745 16.1464 33.5766C15.4842 34.2822 15.1199 34.8442 15.2932 35.539L16.053 39.7021C16.2264 40.3983 16.9888 40.9698 17.7486 40.9698H39.8402C40.6 40.9698 41.3625 40.3983 41.5358 39.7021L42.2956 35.539C42.4662 34.8442 42.1033 34.2822 41.4397 33.5766Z" fill="white"/>
</svg>
