<svg width="172" height="172" viewBox="0 0 172 172" fill="none" xmlns="http://www.w3.org/2000/svg">
<rect width="172" height="172" fill="white"/>
<path d="M42.8595 65.6991C44.1312 65.6991 45.2414 65.9578 46.1898 66.4751C47.1598 66.9924 47.9035 67.6715 48.4209 68.5121V65.9578H53.9499V83.9677C53.9499 85.6275 53.6158 87.1256 52.9476 88.4621C52.3009 89.8201 51.2986 90.8979 49.9405 91.6954C48.6041 92.493 46.9335 92.8918 44.9288 92.8918C42.2559 92.8918 40.0895 92.2559 38.4297 90.9841C36.7699 89.7339 35.8215 88.0309 35.5844 85.8754H41.0488C41.2212 86.5651 41.6308 87.104 42.2774 87.492C42.9241 87.9016 43.7217 88.1064 44.6701 88.1064C45.8126 88.1064 46.7179 87.7723 47.3862 87.104C48.076 86.4574 48.4209 85.4119 48.4209 83.9677V81.4133C47.882 82.254 47.1383 82.9438 46.1898 83.4827C45.2414 84 44.1312 84.2587 42.8595 84.2587C41.3721 84.2587 40.0249 83.8814 38.8177 83.127C37.6106 82.351 36.6514 81.2624 35.94 79.8613C35.2502 78.4386 34.9053 76.8003 34.9053 74.9465C34.9053 73.0927 35.2502 71.4653 35.94 70.0641C36.6514 68.663 37.6106 67.5852 38.8177 66.8308C40.0249 66.0763 41.3721 65.6991 42.8595 65.6991ZM48.4209 74.9789C48.4209 73.5993 48.0329 72.5107 47.2568 71.7132C46.5024 70.9156 45.5755 70.5168 44.4761 70.5168C43.3768 70.5168 42.4391 70.9156 41.6631 71.7132C40.9086 72.4892 40.5314 73.567 40.5314 74.9465C40.5314 76.3261 40.9086 77.4255 41.6631 78.2446C42.4391 79.0422 43.3768 79.4409 44.4761 79.4409C45.5755 79.4409 46.5024 79.0422 47.2568 78.2446C48.0329 77.447 48.4209 76.3585 48.4209 74.9789ZM74.9575 74.6879C74.9575 75.2052 74.9252 75.7441 74.8605 76.3046H62.3474C62.4336 77.4255 62.7893 78.2877 63.4144 78.8913C64.0611 79.4733 64.8478 79.7643 65.7747 79.7643C67.1543 79.7643 68.1135 79.1823 68.6524 78.0183H74.5372C74.2354 79.2038 73.6857 80.2708 72.8882 81.2193C72.1122 82.1678 71.1314 82.9114 69.9458 83.4503C68.7602 83.9892 67.4345 84.2587 65.9687 84.2587C64.2012 84.2587 62.6276 83.8814 61.248 83.127C59.8684 82.3725 58.7906 81.2947 58.0146 79.8936C57.2386 78.4925 56.8506 76.8542 56.8506 74.9789C56.8506 73.1035 57.2278 71.4653 57.9823 70.0641C58.7583 68.663 59.8361 67.5852 61.2157 66.8308C62.5953 66.0763 64.1796 65.6991 65.9687 65.6991C67.7148 65.6991 69.2668 66.0655 70.6248 66.7984C71.9828 67.5313 73.0391 68.5768 73.7935 69.9348C74.5695 71.2928 74.9575 72.8772 74.9575 74.6879ZM69.2991 73.2329C69.2991 72.2844 68.9758 71.5299 68.3291 70.9695C67.6824 70.409 66.8741 70.1288 65.9041 70.1288C64.9772 70.1288 64.1904 70.3983 63.5437 70.9372C62.9186 71.4761 62.5306 72.2413 62.3797 73.2329H69.2991ZM88.8679 65.7638C90.9803 65.7638 92.6617 66.4535 93.9119 67.8331C95.1837 69.1911 95.8196 71.0665 95.8196 73.4592V84H90.3229V74.2029C90.3229 72.9957 90.0103 72.0581 89.3852 71.3898C88.7601 70.7216 87.9194 70.3875 86.8632 70.3875C85.8069 70.3875 84.9663 70.7216 84.3411 71.3898C83.716 72.0581 83.4035 72.9957 83.4035 74.2029V84H77.8744V65.9578H83.4035V68.3505C83.9639 67.5529 84.7184 66.9278 85.6668 66.4751C86.6153 66.0009 87.6823 65.7638 88.8679 65.7638ZM98.5624 74.9465C98.5624 73.0927 98.9073 71.4653 99.5971 70.0641C100.308 68.663 101.268 67.5852 102.475 66.8308C103.682 66.0763 105.029 65.6991 106.517 65.6991C107.788 65.6991 108.898 65.9578 109.847 66.4751C110.817 66.9924 111.561 67.6715 112.078 68.5121V65.9578H117.607V84H112.078V81.4456C111.539 82.2863 110.785 82.9653 109.815 83.4827C108.866 84 107.756 84.2587 106.484 84.2587C105.018 84.2587 103.682 83.8814 102.475 83.127C101.268 82.351 100.308 81.2624 99.5971 79.8613C98.9073 78.4386 98.5624 76.8003 98.5624 74.9465ZM112.078 74.9789C112.078 73.5993 111.69 72.5107 110.914 71.7132C110.159 70.9156 109.233 70.5168 108.133 70.5168C107.034 70.5168 106.096 70.9156 105.32 71.7132C104.566 72.4892 104.189 73.567 104.189 74.9465C104.189 76.3261 104.566 77.4255 105.32 78.2446C106.096 79.0422 107.034 79.4409 108.133 79.4409C109.233 79.4409 110.159 79.0422 110.914 78.2446C111.69 77.447 112.078 76.3585 112.078 74.9789Z" fill="#262626"/>
<path d="M68.3332 87.972C70.7259 87.972 72.8168 88.4462 74.606 89.3946C76.3951 90.3431 77.7747 91.6796 78.7447 93.404C79.7362 95.1069 80.232 97.0793 80.232 99.3211C80.232 101.541 79.7362 103.514 78.7447 105.238C77.7747 106.963 76.3843 108.299 74.5736 109.248C72.7845 110.196 70.7043 110.67 68.3332 110.67H59.8294V87.972H68.3332ZM67.9775 105.885C70.0684 105.885 71.6959 105.314 72.8599 104.171C74.0239 103.029 74.606 101.412 74.606 99.3211C74.606 97.2302 74.0239 95.6027 72.8599 94.4387C71.6959 93.2747 70.0684 92.6927 67.9775 92.6927H65.3585V105.885H67.9775ZM88.851 95.6351C89.4977 94.6435 90.306 93.8675 91.276 93.307C92.246 92.725 93.3238 92.434 94.5094 92.434V98.2864H92.9897C91.6101 98.2864 90.5755 98.5882 89.8857 99.1918C89.1959 99.7738 88.851 100.808 88.851 102.296V110.67H83.3219V92.628H88.851V95.6351Z" fill="#262626"/>
<path d="M126.015 92.5262C126.554 91.6856 127.298 91.0065 128.246 90.4892C129.194 89.9719 130.305 89.7132 131.576 89.7132C133.064 89.7132 134.411 90.0904 135.618 90.8449C136.825 91.5993 137.774 92.6771 138.464 94.0782C139.175 95.4794 139.531 97.1068 139.531 98.9606C139.531 100.814 139.175 102.453 138.464 103.875C137.774 105.277 136.825 106.365 135.618 107.141C134.411 107.896 133.064 108.273 131.576 108.273C130.326 108.273 129.216 108.014 128.246 107.497C127.298 106.979 126.554 106.311 126.015 105.492V116.615H120.486V89.9719H126.015V92.5262ZM133.904 98.9606C133.904 97.5811 133.516 96.5033 132.74 95.7273C131.986 94.9297 131.048 94.5309 129.927 94.5309C128.828 94.5309 127.89 94.9297 127.114 95.7273C126.36 96.5248 125.983 97.6134 125.983 98.993C125.983 100.373 126.36 101.461 127.114 102.259C127.89 103.056 128.828 103.455 129.927 103.455C131.027 103.455 131.964 103.056 132.74 102.259C133.516 101.44 133.904 100.34 133.904 98.9606Z" fill="#262626"/>
<path d="M115.166 112.749L115.166 112.749C113.187 114.642 110.471 115.538 107.53 115.538C104.59 115.538 101.874 114.642 99.894 112.749L99.894 112.749C97.9117 110.854 96.7371 108.027 96.7371 104.3C96.7371 100.495 99.0435 96.3045 101.419 92.9802C103.814 89.629 106.373 87.0347 107.047 86.3909C107.173 86.2706 107.346 86.2008 107.53 86.2008C107.714 86.2008 107.887 86.2706 108.013 86.3909C108.687 87.0347 111.246 89.629 113.641 92.9802C116.017 96.3045 118.323 100.495 118.323 104.3C118.323 108.028 117.148 110.854 115.166 112.749Z" fill="#6C757D" stroke="#262626" stroke-width="0.60417"/>
<ellipse rx="2.92834" ry="2.6823" transform="matrix(0.804162 -0.594411 0.629004 0.777402 96.4747 104.571)" fill="#6C757D"/>
<path d="M96.2607 103.97C96.4718 103.987 96.6685 104.072 96.8204 104.208C96.9721 104.345 97.0712 104.525 97.1026 104.721C97.1339 104.917 97.0958 105.119 96.9921 105.294C96.8884 105.47 96.7252 105.608 96.5281 105.686" stroke="#262626" stroke-width="0.507612" stroke-linecap="round" stroke-linejoin="round"/>
<path d="M98.0223 102.561C97.6004 102.23 97.0853 102.027 96.5425 101.976C95.9996 101.926 95.4532 102.03 94.9724 102.277C94.4916 102.523 94.0979 102.9 93.8413 103.36C93.5846 103.82 93.4764 104.342 93.5304 104.861C93.5844 105.38 93.7982 105.872 94.1446 106.274C94.4911 106.677 94.9547 106.972 95.4768 107.123C95.9989 107.274 96.5562 107.274 97.078 107.122C97.5998 106.97 98.0628 106.674 98.4084 106.27" stroke="#262626" stroke-width="0.60417" stroke-linecap="round" stroke-linejoin="round"/>
<path d="M110.939 108.797C110.945 109.519 110.655 110.083 109.961 110.331C109.244 110.586 108.494 110.628 107.925 110.012C107.412 109.457 107.296 108.766 107.559 108.042C107.739 107.548 108.122 107.351 108.617 107.494C108.874 107.569 109.108 107.658 109.373 107.572C110.516 107.202 110.94 107.533 110.939 108.797Z" fill="#0B0F0F"/>
<path d="M108.757 108.87C109.33 108.828 109.765 109.066 110.081 109.53C110.166 109.655 110.132 109.793 110.003 109.865C109.513 110.144 109.009 110.1 108.511 109.888C108.205 109.757 107.929 109.501 107.983 109.191C108.049 108.811 108.458 108.891 108.757 108.87Z" fill="#F2BED5"/>
<path d="M110.448 109.263C109.801 108.542 109.099 108.381 108.307 108.487C108.162 108.507 107.934 108.711 107.906 108.367C107.888 108.157 108.049 107.954 108.211 107.974C108.843 108.049 109.438 107.945 110.059 107.868C110.602 107.803 110.519 108.621 110.448 109.263Z" fill="#A09DCA"/>
<path d="M106.898 104.442C106.892 105.232 106.275 105.87 105.747 106.544C105.676 106.635 105.456 106.65 105.31 106.636C104.482 106.557 103.718 106.291 103.104 105.717C102.6 105.244 102.421 104.626 102.732 103.997C103.031 103.389 103.559 103.125 104.238 103.423C104.464 103.521 104.573 103.423 104.704 103.277C105.123 102.81 105.628 102.707 106.19 102.98C106.732 103.241 106.879 103.73 106.898 104.442Z" fill="#0B0D0C"/>
<path d="M106.46 104.144C106.385 104.958 106.062 105.461 105.716 105.954C105.559 106.179 105.336 106.207 105.09 106.166C104.366 106.047 103.766 105.694 103.277 105.161C102.983 104.84 102.917 104.444 103.198 104.091C103.476 103.741 103.868 103.658 104.237 103.943C104.565 104.197 104.745 104.1 104.897 103.776C105.118 103.307 105.51 103.213 105.946 103.372C106.373 103.528 106.508 103.893 106.46 104.144Z" fill="#F4A4C7"/>
<path d="M111.281 103.521C111.246 103.073 111.421 102.693 111.853 102.448C112.322 102.182 112.764 102.253 113.141 102.614C113.349 102.814 113.5 102.896 113.809 102.759C114.229 102.572 114.644 102.746 114.935 103.082C115.254 103.45 115.266 103.885 115.056 104.324C114.717 105.037 113.383 105.79 112.642 105.683C112.109 105.608 111.295 104.336 111.281 103.521Z" fill="#0F1311"/>
<path d="M111.72 103.613C111.726 103.289 111.756 102.98 112.125 102.85C112.479 102.725 112.824 102.756 113.026 103.084C113.225 103.41 113.401 103.536 113.756 103.304C114.086 103.089 114.423 103.148 114.656 103.463C114.903 103.797 114.732 104.135 114.513 104.392C114.07 104.909 113.466 105.164 112.801 105.212C112.309 105.247 111.719 104.335 111.72 103.613Z" fill="#F3A4C6"/>
<ellipse cx="99.6331" cy="100.309" rx="0.456851" ry="0.436659" fill="#262626"/>
<rect width="1.23981" height="6.17852" rx="0.619904" transform="matrix(0.887975 0.459892 -0.493178 0.869929 102.899 93.6346)" fill="#262626"/>
</svg>
