<svg width="172" height="172" viewBox="0 0 172 172" fill="none" xmlns="http://www.w3.org/2000/svg">
<rect width="172" height="172" fill="white"/>
<path d="M37.5907 60C38.9643 60 40.1633 60.2794 41.1877 60.8381C42.2353 61.3969 43.0385 62.1302 43.5973 63.0382V60.2794H49.5689V79.7308C49.5689 81.5234 49.208 83.1414 48.4863 84.5849C47.7879 86.0516 46.7053 87.2156 45.2386 88.077C43.7952 88.9384 41.9909 89.3692 39.8257 89.3692C36.9389 89.3692 34.5991 88.6824 32.8065 87.3088C31.0138 85.9585 29.9894 84.1193 29.7334 81.7911H35.6351C35.8214 82.5361 36.2637 83.1182 36.9621 83.5372C37.6606 83.9796 38.522 84.2007 39.5464 84.2007C40.7803 84.2007 41.7581 83.8399 42.4798 83.1182C43.2248 82.4197 43.5973 81.2906 43.5973 79.7308V76.9719C43.0152 77.8799 42.212 78.6249 41.1877 79.2069C40.1633 79.7657 38.9643 80.0451 37.5907 80.0451C35.9843 80.0451 34.5293 79.6376 33.2255 78.8228C31.9218 77.9847 30.8858 76.809 30.1175 75.2957C29.3725 73.7592 29 71.9898 29 69.9876C29 67.9854 29.3725 66.2277 30.1175 64.7144C30.8858 63.2012 31.9218 62.0371 33.2255 61.2223C34.5293 60.4074 35.9843 60 37.5907 60ZM43.5973 70.0225C43.5973 68.5325 43.1782 67.3568 42.3401 66.4954C41.5253 65.634 40.5242 65.2033 39.3368 65.2033C38.1495 65.2033 37.1368 65.634 36.2986 66.4954C35.4838 67.3336 35.0764 68.4976 35.0764 69.9876C35.0764 71.4776 35.4838 72.6649 36.2986 73.5496C37.1368 74.411 38.1495 74.8417 39.3368 74.8417C40.5242 74.8417 41.5253 74.411 42.3401 73.5496C43.1782 72.6882 43.5973 71.5125 43.5973 70.0225Z" fill="#0D99FF"/>
<path d="M72.2579 69.7082C72.2579 70.267 72.223 70.849 72.1531 71.4543H58.6384C58.7316 72.6649 59.1157 73.5962 59.7908 74.2481C60.4893 74.8766 61.339 75.1909 62.3401 75.1909C63.8301 75.1909 64.8661 74.5623 65.4482 73.3052H71.8039C71.478 74.5856 70.8843 75.738 70.0229 76.7624C69.1848 77.7868 68.1255 78.59 66.845 79.172C65.5646 79.754 64.1328 80.0451 62.5497 80.0451C60.6406 80.0451 58.9411 79.6376 57.4511 78.8228C55.9611 78.008 54.797 76.8439 53.9589 75.3306C53.1208 73.8174 52.7017 72.048 52.7017 70.0225C52.7017 67.9971 53.1092 66.2277 53.924 64.7144C54.7621 63.2012 55.9262 62.0371 57.4162 61.2223C58.9062 60.4074 60.6173 60 62.5497 60C64.4354 60 66.1117 60.3958 67.5784 61.1873C69.0451 61.9789 70.1859 63.108 71.0007 64.5747C71.8388 66.0415 72.2579 67.7526 72.2579 69.7082ZM66.1466 68.1368C66.1466 67.1124 65.7974 66.2975 65.0989 65.6922C64.4005 65.0869 63.5275 64.7843 62.4798 64.7843C61.4787 64.7843 60.629 65.0753 59.9305 65.6573C59.2554 66.2393 58.8363 67.0658 58.6733 68.1368H66.1466Z" fill="#0D99FF"/>
<path d="M87.2816 60.0698C89.5631 60.0698 91.3791 60.8148 92.7294 62.3048C94.103 63.7715 94.7898 65.797 94.7898 68.3812V79.7657H88.8531V69.1844C88.8531 67.8807 88.5155 66.8679 87.8403 66.1462C87.1652 65.4245 86.2572 65.0636 85.1164 65.0636C83.9757 65.0636 83.0677 65.4245 82.3926 66.1462C81.7174 66.8679 81.3798 67.8807 81.3798 69.1844V79.7657H75.4082V60.2794H81.3798V62.8636C81.9851 62.0022 82.8 61.327 83.8243 60.8381C84.8487 60.3259 86.0011 60.0698 87.2816 60.0698Z" fill="#0D99FF"/>
<path d="M97.7521 69.9876C97.7521 67.9854 98.1246 66.2277 98.8696 64.7144C99.6379 63.2012 100.674 62.0371 101.978 61.2223C103.281 60.4074 104.736 60 106.343 60C107.716 60 108.915 60.2794 109.94 60.8381C110.987 61.3969 111.791 62.1302 112.349 63.0382V60.2794H118.321V79.7657H112.349V77.0069C111.767 77.9148 110.952 78.6482 109.905 79.2069C108.88 79.7657 107.681 80.0451 106.308 80.0451C104.725 80.0451 103.281 79.6376 101.978 78.8228C100.674 77.9847 99.6379 76.809 98.8696 75.2957C98.1246 73.7592 97.7521 71.9898 97.7521 69.9876ZM112.349 70.0225C112.349 68.5325 111.93 67.3568 111.092 66.4954C110.277 65.634 109.276 65.2033 108.089 65.2033C106.902 65.2033 105.889 65.634 105.051 66.4954C104.236 67.3336 103.828 68.4976 103.828 69.9876C103.828 71.4776 104.236 72.6649 105.051 73.5496C105.889 74.411 106.902 74.8417 108.089 74.8417C109.276 74.8417 110.277 74.411 111.092 73.5496C111.93 72.6882 112.349 71.5125 112.349 70.0225Z" fill="#0D99FF"/>
<path d="M65.1029 83.7541C67.6871 83.7541 69.9453 84.2663 71.8777 85.2906C73.81 86.315 75.3 87.7584 76.3477 89.6209C77.4186 91.4601 77.9541 93.5904 77.9541 96.0116C77.9541 98.4096 77.4186 100.54 76.3477 102.402C75.3 104.265 73.7984 105.708 71.8428 106.733C69.9104 107.757 67.6638 108.269 65.1029 108.269H55.9185V83.7541H65.1029ZM64.7187 103.101C66.977 103.101 68.7347 102.484 69.9919 101.25C71.2491 100.016 71.8777 98.2699 71.8777 96.0116C71.8777 93.7533 71.2491 91.9956 69.9919 90.7384C68.7347 89.4812 66.977 88.8527 64.7187 88.8527H61.8901V103.101H64.7187Z" fill="#0D99FF"/>
<path d="M87.2629 92.0305C87.9613 90.9596 88.8343 90.1215 89.882 89.5162C90.9296 88.8876 92.0937 88.5733 93.3742 88.5733V94.8941H91.7328C90.2429 94.8941 89.1254 95.22 88.3804 95.8719C87.6354 96.5005 87.2629 97.618 87.2629 99.2244V108.269H81.2913V88.7828H87.2629V92.0305Z" fill="#0D99FF"/>
<path d="M127.402 88.9244C127.984 88.0164 128.788 87.2831 129.812 86.7243C130.836 86.1656 132.035 85.8862 133.409 85.8862C135.015 85.8862 136.47 86.2936 137.774 87.1085C139.078 87.9233 140.102 89.0874 140.847 90.6006C141.615 92.1139 142 93.8716 142 95.8738C142 97.876 141.615 99.6454 140.847 101.182C140.102 102.695 139.078 103.871 137.774 104.709C136.47 105.524 135.015 105.931 133.409 105.931C132.059 105.931 130.86 105.652 129.812 105.093C128.788 104.534 127.984 103.813 127.402 102.928V114.941H121.431V86.1656H127.402V88.9244ZM135.923 95.8738C135.923 94.3838 135.504 93.2198 134.666 92.3816C133.851 91.5202 132.839 91.0895 131.628 91.0895C130.441 91.0895 129.428 91.5202 128.59 92.3816C127.775 93.243 127.367 94.4187 127.367 95.9087C127.367 97.3987 127.775 98.5744 128.59 99.4358C129.428 100.297 130.441 100.728 131.628 100.728C132.815 100.728 133.828 100.297 134.666 99.4358C135.504 98.5511 135.923 97.3638 135.923 95.8738Z" fill="#0D99FF"/>
<path d="M106.327 84.1909C110.296 88.5561 113.894 92.8309 116.468 98.1911C118.359 102.127 118.294 105.952 116.486 109.836C115.883 111.131 114.917 112.11 113.739 112.873C108.811 116.065 103.628 116.069 98.9545 112.582C97.3265 111.367 96.3455 109.731 95.8291 107.792C95.7071 107.335 95.5321 107.062 95.0145 106.882C93.4407 106.334 92.7604 104.891 92.9933 102.864C93.1326 101.655 94.1333 100.722 95.6036 100.503C95.9795 100.448 96.12 100.29 96.2284 99.9565C98.0918 94.1679 101.448 89.3101 105.575 84.9375C105.866 84.6301 105.976 84.5267 106.327 84.1909Z" fill="#020302"/>
<path d="M117.259 103.847C117.129 105.876 116.893 107.879 115.846 109.696C115.329 110.59 114.724 111.391 113.852 111.958C111.351 113.579 108.701 114.82 105.634 114.423C102.474 114.014 99.6739 112.834 97.7316 110.108C97.1622 109.308 96.9256 108.381 96.5867 107.491C96.461 107.162 96.6767 107.054 96.9453 106.955C97.8376 106.628 98.2726 105.869 98.6658 105.075C98.7459 104.915 98.8137 104.728 98.6424 104.622C98.4193 104.484 98.2837 104.665 98.179 104.844C98.1358 104.917 98.1075 104.997 98.0668 105.072C97.4728 106.162 96.5423 106.668 95.5244 106.455C94.515 106.244 93.7472 105.291 93.6671 104.117C93.608 103.233 93.5969 102.347 94.3055 101.667C95.1325 100.874 96.058 100.803 97.2633 101.409C97.4469 101.501 97.6515 101.766 97.8438 101.504C98.0631 101.206 97.7735 100.962 97.564 100.926C96.4179 100.73 96.8825 100.026 97.1019 99.457C99.0084 94.5091 101.77 90.0884 105.331 86.1689C106.478 84.906 106.488 84.9282 107.591 86.2602C110.727 90.0452 113.669 93.9586 115.772 98.4447C116.581 100.162 117.316 101.887 117.259 103.847Z" fill="url(#paint0_linear_185_16)"/>
<g filter="url(#filter0_d_185_16)">
<path d="M102.499 89.9243C102.216 90.5312 102.056 91.2162 102.056 91.9409C102.056 94.4365 103.948 96.4595 106.282 96.4595C108.616 96.4595 110.507 94.4365 110.507 91.9409C110.507 91.2162 110.407 90.4943 110.064 89.9241C108.688 87.6348 107.403 85.8445 106.574 85.2137C106.464 85.1299 106.32 85.1242 106.213 85.2119C105.452 85.8362 103.125 88.5864 102.499 89.9243Z" fill="url(#paint1_linear_185_16)" fill-opacity="0.89" shape-rendering="crispEdges"/>
</g>
<path d="M99.9204 96.2944C100.416 94.7303 100.911 92.9933 102.235 91.67C102.563 91.3416 103.019 91.1465 103.467 91.407C103.896 91.6551 104.006 92.1267 103.948 92.5872C103.753 94.155 103.095 95.5451 102.251 96.8561C102.131 97.0425 101.956 97.1956 101.795 97.3524C101.417 97.7202 100.996 97.8351 100.492 97.5956C100.001 97.361 99.9451 96.9302 99.9204 96.2944Z" fill="#DAEEE2"/>
<path d="M99.9204 96.2534C100.416 94.6893 100.911 92.9524 102.235 91.629C102.563 91.3006 103.019 91.1056 103.467 91.366C103.896 91.6142 104.006 92.0858 103.948 92.5462C103.753 94.1141 103.095 95.5041 102.251 96.8151C102.131 97.0016 101.956 97.1546 101.795 97.3114C101.417 97.6793 100.996 97.7941 100.492 97.5546C100.001 97.3201 99.9451 96.8892 99.9204 96.2534Z" fill="#DAEEE2"/>
<path d="M99.7479 98.9555C100.172 98.9123 100.428 99.1444 100.411 99.5271C100.389 99.9888 100.197 100.452 99.6407 100.457C99.2352 100.46 98.9481 100.136 98.9653 99.7357C98.9851 99.2925 99.1921 98.9136 99.7479 98.9555Z" fill="#D8EDE0"/>
<path d="M99.7479 98.9146C100.172 98.8714 100.428 99.1035 100.411 99.4861C100.389 99.9479 100.197 100.411 99.6407 100.416C99.2352 100.419 98.9481 100.095 98.9653 99.6948C98.9851 99.2516 99.1921 98.8726 99.7479 98.9146Z" fill="#D8EDE0"/>
<path d="M97.0726 103.913C97.048 104.152 97.1478 104.494 96.8187 104.54C96.454 104.592 96.4946 104.222 96.4613 103.998C96.3997 103.58 96.29 103.252 95.7872 103.196C95.5321 103.168 95.2634 103.017 95.3793 102.699C95.4951 102.38 95.8156 102.505 96.0337 102.558C96.6573 102.715 97.0677 103.278 97.0726 103.913Z" fill="#091D14"/>
<path d="M110.745 107.572C110.751 108.349 110.439 108.957 109.694 109.223C108.924 109.499 108.116 109.543 107.505 108.88C106.954 108.283 106.828 107.538 107.112 106.759C107.305 106.227 107.717 106.015 108.249 106.169C108.526 106.25 108.777 106.346 109.062 106.253C110.29 105.855 110.746 106.211 110.745 107.572Z" fill="#0B0F0F"/>
<path d="M108.401 107.651C109.017 107.605 109.484 107.862 109.824 108.362C109.915 108.496 109.878 108.645 109.74 108.722C109.213 109.022 108.672 108.975 108.136 108.747C107.807 108.606 107.511 108.33 107.569 107.996C107.639 107.587 108.079 107.673 108.401 107.651Z" fill="#F4A4C7"/>
<path d="M110.216 108.073C109.52 107.297 108.766 107.123 107.914 107.238C107.759 107.259 107.514 107.478 107.483 107.108C107.464 106.882 107.637 106.664 107.811 106.684C108.491 106.766 109.131 106.654 109.797 106.571C110.381 106.501 110.293 107.382 110.216 108.073Z" fill="#A09DCA"/>
<path d="M106.399 102.88C106.392 103.73 105.729 104.418 105.161 105.144C105.085 105.241 104.848 105.258 104.692 105.243C103.802 105.158 102.98 104.871 102.321 104.253C101.778 103.744 101.586 103.079 101.92 102.401C102.242 101.747 102.81 101.461 103.539 101.782C103.782 101.889 103.899 101.782 104.04 101.626C104.491 101.123 105.033 101.012 105.638 101.306C106.22 101.587 106.379 102.113 106.399 102.88Z" fill="#0B0D0C"/>
<path d="M105.929 102.56C105.848 103.436 105.501 103.978 105.129 104.509C104.96 104.751 104.721 104.782 104.456 104.737C103.678 104.609 103.032 104.229 102.507 103.655C102.191 103.309 102.12 102.883 102.422 102.503C102.721 102.126 103.142 102.036 103.539 102.344C103.891 102.617 104.085 102.513 104.249 102.163C104.487 101.659 104.908 101.557 105.376 101.729C105.835 101.897 105.98 102.289 105.929 102.56Z" fill="#F4A4C7"/>
<path d="M111.11 101.889C111.072 101.406 111.26 100.998 111.725 100.734C112.229 100.447 112.704 100.524 113.109 100.913C113.333 101.127 113.495 101.216 113.827 101.068C114.279 100.867 114.725 101.055 115.038 101.416C115.38 101.813 115.394 102.28 115.168 102.753C114.804 103.521 113.369 104.332 112.573 104.217C112 104.136 111.125 102.767 111.11 101.889Z" fill="#0F1311"/>
<path d="M111.582 101.989C111.588 101.641 111.62 101.307 112.017 101.168C112.398 101.033 112.769 101.067 112.986 101.42C113.2 101.77 113.389 101.906 113.771 101.657C114.126 101.425 114.488 101.489 114.738 101.828C115.003 102.188 114.82 102.552 114.584 102.828C114.109 103.385 113.459 103.659 112.744 103.711C112.216 103.749 111.581 102.767 111.582 101.989Z" fill="#F4A4C7"/>
<defs>
<filter id="filter0_d_185_16" x="94.197" y="85.1484" width="24.1697" height="27.0299" filterUnits="userSpaceOnUse" color-interpolation-filters="sRGB">
<feFlood flood-opacity="0" result="BackgroundImageFix"/>
<feColorMatrix in="SourceAlpha" type="matrix" values="0 0 0 0 0 0 0 0 0 0 0 0 0 0 0 0 0 0 127 0" result="hardAlpha"/>
<feOffset dy="7.85941"/>
<feGaussianBlur stdDeviation="3.9297"/>
<feComposite in2="hardAlpha" operator="out"/>
<feColorMatrix type="matrix" values="0 0 0 0 0.0947917 0 0 0 0 0.511494 0 0 0 0 0.875 0 0 0 1 0"/>
<feBlend mode="normal" in2="BackgroundImageFix" result="effect1_dropShadow_185_16"/>
<feBlend mode="normal" in="SourceGraphic" in2="effect1_dropShadow_185_16" result="shape"/>
</filter>
<linearGradient id="paint0_linear_185_16" x1="105.452" y1="85.241" x2="105.452" y2="114.498" gradientUnits="userSpaceOnUse">
<stop stop-color="#1875F1"/>
<stop offset="0.792172" stop-color="#52BBF8"/>
<stop offset="1" stop-color="#72F9FD"/>
</linearGradient>
<linearGradient id="paint1_linear_185_16" x1="106.282" y1="85.3684" x2="106.282" y2="89.0208" gradientUnits="userSpaceOnUse">
<stop stop-color="white" stop-opacity="0.73"/>
<stop offset="1" stop-color="white" stop-opacity="0"/>
</linearGradient>
</defs>
</svg>
