<svg width="172" height="172" viewBox="0 0 172 172" fill="none" xmlns="http://www.w3.org/2000/svg">
<rect width="172" height="172" fill="#2CA6FF"/>
<path d="M46.075 58C47.2063 58 48.1937 58.2301 49.0373 58.6902C49.9001 59.1504 50.5616 59.7544 51.0218 60.5021V58.2301H55.9398V74.2496C55.9398 75.7259 55.6426 77.0585 55.0482 78.2472C54.473 79.4552 53.5815 80.4138 52.3735 81.1233C51.1848 81.8327 49.6988 82.1874 47.9157 82.1874C45.5382 82.1874 43.6112 81.6218 42.1349 80.4905C40.6585 79.3785 39.8149 77.8638 39.604 75.9464H44.4645C44.6178 76.56 44.9821 77.0393 45.5573 77.3844C46.1325 77.7487 46.842 77.9309 47.6856 77.9309C48.7018 77.9309 49.5071 77.6337 50.1015 77.0393C50.715 76.4641 51.0218 75.5342 51.0218 74.2496V71.9775C50.5425 72.7253 49.881 73.3388 49.0373 73.8181C48.1937 74.2783 47.2063 74.5084 46.075 74.5084C44.7521 74.5084 43.5537 74.1729 42.48 73.5018C41.4063 72.8115 40.5531 71.8433 39.9203 70.597C39.3068 69.3315 39 67.8744 39 66.2254C39 64.5765 39.3068 63.1289 39.9203 61.8826C40.5531 60.6364 41.4063 59.6777 42.48 59.0066C43.5537 58.3355 44.7521 58 46.075 58ZM51.0218 66.2542C51.0218 65.0271 50.6767 64.0588 49.9864 63.3494C49.3153 62.64 48.4909 62.2853 47.513 62.2853C46.5352 62.2853 45.7011 62.64 45.0109 63.3494C44.3398 64.0397 44.0043 64.9983 44.0043 66.2254C44.0043 67.4525 44.3398 68.4304 45.0109 69.159C45.7011 69.8684 46.5352 70.2231 47.513 70.2231C48.4909 70.2231 49.3153 69.8684 49.9864 69.159C50.6767 68.4496 51.0218 67.4813 51.0218 66.2542Z" fill="white"/>
<path d="M74.6257 65.9954C74.6257 66.4555 74.5969 66.9349 74.5394 67.4334H63.4092C63.4858 68.4304 63.8022 69.1973 64.3582 69.7342C64.9334 70.2519 65.6333 70.5107 66.4577 70.5107C67.6848 70.5107 68.5381 69.993 69.0174 68.9577H74.2518C73.9833 70.0122 73.4944 70.9613 72.785 71.8049C72.0948 72.6486 71.2224 73.31 70.1678 73.7894C69.1133 74.2687 67.9341 74.5084 66.6303 74.5084C65.0581 74.5084 63.6584 74.1729 62.4313 73.5018C61.2042 72.8307 60.2455 71.872 59.5553 70.6258C58.865 69.3795 58.5199 67.9223 58.5199 66.2542C58.5199 64.5861 58.8554 63.1289 59.5265 61.8826C60.2168 60.6364 61.1754 59.6777 62.4025 59.0066C63.6296 58.3355 65.0389 58 66.6303 58C68.1834 58 69.5639 58.326 70.7718 58.9779C71.9797 59.6297 72.9192 60.5597 73.5903 61.7676C74.2805 62.9755 74.6257 64.3848 74.6257 65.9954ZM69.5926 64.7011C69.5926 63.8575 69.305 63.1864 68.7298 62.6879C68.1546 62.1894 67.4356 61.9402 66.5728 61.9402C65.7483 61.9402 65.0485 62.1798 64.4733 62.6592C63.9173 63.1385 63.5721 63.8192 63.4379 64.7011H69.5926Z" fill="white"/>
<path d="M86.9986 58.0575C88.8776 58.0575 90.3732 58.6711 91.4852 59.8982C92.6165 61.1061 93.1821 62.7742 93.1821 64.9025V74.2783H88.2928V65.564C88.2928 64.4902 88.0148 63.6562 87.4588 63.0618C86.9028 62.4674 86.155 62.1702 85.2155 62.1702C84.276 62.1702 83.5282 62.4674 82.9722 63.0618C82.4162 63.6562 82.1382 64.4902 82.1382 65.564V74.2783H77.2201V58.2301H82.1382V60.3583C82.6367 59.6489 83.3077 59.0929 84.1514 58.6902C84.995 58.2684 85.9441 58.0575 86.9986 58.0575Z" fill="white"/>
<path d="M95.6218 66.2254C95.6218 64.5765 95.9285 63.1289 96.5421 61.8826C97.1748 60.6364 98.0281 59.6777 99.1018 59.0066C100.175 58.3355 101.374 58 102.697 58C103.828 58 104.815 58.2301 105.659 58.6902C106.522 59.1504 107.183 59.7544 107.644 60.5021V58.2301H112.562V74.2783H107.644V72.0063C107.164 72.754 106.493 73.358 105.63 73.8181C104.787 74.2783 103.799 74.5084 102.668 74.5084C101.364 74.5084 100.175 74.1729 99.1018 73.5018C98.0281 72.8115 97.1748 71.8433 96.5421 70.597C95.9285 69.3315 95.6218 67.8744 95.6218 66.2254ZM107.644 66.2542C107.644 65.0271 107.298 64.0588 106.608 63.3494C105.937 62.64 105.113 62.2853 104.135 62.2853C103.157 62.2853 102.323 62.64 101.633 63.3494C100.962 64.0397 100.626 64.9983 100.626 66.2254C100.626 67.4525 100.962 68.4304 101.633 69.159C102.323 69.8684 103.157 70.2231 104.135 70.2231C105.113 70.2231 105.937 69.8684 106.608 69.159C107.298 68.4496 107.644 67.4813 107.644 66.2542Z" fill="white"/>
<path d="M68.7331 78.1302C70.8613 78.1302 72.7212 78.552 74.3126 79.3957C75.904 80.2393 77.1311 81.4281 77.9939 82.9619C78.8759 84.4766 79.3169 86.231 79.3169 88.2251C79.3169 90.1999 78.8759 91.9543 77.9939 93.4882C77.1311 95.0221 75.8944 96.2108 74.2838 97.0545C72.6924 97.8981 70.8422 98.3199 68.7331 98.3199H61.1691V78.1302H68.7331ZM68.4167 94.0634C70.2766 94.0634 71.7242 93.5553 72.7595 92.5391C73.7949 91.5229 74.3126 90.0849 74.3126 88.2251C74.3126 86.3652 73.7949 84.9176 72.7595 83.8823C71.7242 82.8469 70.2766 82.3292 68.4167 82.3292H66.0871V94.0634H68.4167Z" fill="white"/>
<path d="M86.9833 84.9464C87.5585 84.0644 88.2775 83.3742 89.1403 82.8757C90.0031 82.358 90.9618 82.0991 92.0163 82.0991V87.3047H90.6646C89.4375 87.3047 88.5172 87.5732 87.9036 88.11C87.2901 88.6277 86.9833 89.548 86.9833 90.871V98.3199H82.0653V82.2717H86.9833V84.9464Z" fill="white"/>
<path d="M120.041 81.6708C120.52 80.923 121.182 80.319 122.025 79.8589C122.869 79.3987 123.856 79.1686 124.987 79.1686C126.31 79.1686 127.509 79.5042 128.583 80.1752C129.656 80.8463 130.5 81.805 131.113 83.0513C131.746 84.2975 132.063 85.7451 132.063 87.3941C132.063 89.043 131.746 90.5002 131.113 91.7656C130.5 93.0119 129.656 93.9802 128.583 94.6704C127.509 95.3415 126.31 95.677 124.987 95.677C123.875 95.677 122.888 95.4469 122.025 94.9868C121.182 94.5266 120.52 93.9322 120.041 93.2036V103.097H115.123V79.3987H120.041V81.6708ZM127.058 87.3941C127.058 86.167 126.713 85.2083 126.023 84.518C125.352 83.8086 124.518 83.4539 123.521 83.4539C122.543 83.4539 121.709 83.8086 121.019 84.518C120.347 85.2275 120.012 86.1957 120.012 87.4228C120.012 88.6499 120.347 89.6182 121.019 90.3276C121.709 91.037 122.543 91.3917 123.521 91.3917C124.499 91.3917 125.333 91.037 126.023 90.3276C126.713 89.599 127.058 88.6212 127.058 87.3941Z" fill="white"/>
<path d="M110.231 99.9217L110.231 99.9219C108.523 101.556 106.169 102.339 103.599 102.339C101.03 102.339 98.6756 101.556 96.9665 99.9218L96.9664 99.9217C95.2575 98.2883 94.23 95.8392 94.23 92.574C94.23 89.2676 96.2413 85.5924 98.3513 82.6398C100.471 79.6738 102.737 77.3769 103.329 76.8113C103.397 76.7465 103.493 76.7064 103.599 76.7064C103.704 76.7064 103.801 76.7465 103.869 76.8113C104.46 77.3769 106.726 79.6737 108.846 82.6398C110.956 85.5924 112.967 89.2676 112.967 92.574C112.967 95.8403 111.94 98.2883 110.231 99.9217Z" fill="white" stroke="#262626"/>
<ellipse rx="2.60471" ry="2.38585" transform="matrix(0.804162 -0.594411 0.629004 0.777402 93.7652 92.815)" fill="white"/>
<path d="M93.557 92.5497C93.6841 92.5605 93.7998 92.6113 93.8876 92.69C93.9751 92.7684 94.0316 92.8716 94.0495 92.9836C94.0675 93.0959 94.046 93.2139 93.9843 93.3184C93.9224 93.4231 93.824 93.5072 93.7038 93.5546" stroke="#262626" stroke-linecap="round" stroke-linejoin="round"/>
<path d="M95.1414 91.0266C94.7661 90.7327 94.308 90.5519 93.8251 90.5069C93.3422 90.4619 92.8562 90.5548 92.4285 90.7738C92.0009 90.9928 91.6508 91.3281 91.4225 91.7373C91.1942 92.1464 91.0979 92.6112 91.146 93.0726C91.194 93.5341 91.3841 93.9716 91.6923 94.3297C92.0004 94.6879 92.4128 94.9507 92.8772 95.0849C93.3417 95.2191 93.8373 95.2186 94.3014 95.0836C94.7656 94.9485 95.1774 94.685 95.4849 94.3262" stroke="#262626" stroke-linecap="round" stroke-linejoin="round"/>
<path d="M105.922 96.6297C105.926 97.1516 105.716 97.5593 105.215 97.7382C104.697 97.923 104.154 97.9528 103.743 97.5079C103.373 97.1069 103.289 96.6073 103.479 96.0845C103.609 95.7274 103.886 95.5849 104.244 95.6885C104.429 95.7423 104.598 95.807 104.79 95.7448C105.616 95.4772 105.922 95.7167 105.922 96.6297Z" fill="#0B0F0F"/>
<path d="M104.345 96.6827C104.759 96.652 105.073 96.8243 105.302 97.1599C105.363 97.2502 105.338 97.3496 105.245 97.4018C104.891 97.6031 104.527 97.5716 104.167 97.4184C103.946 97.3239 103.747 97.1383 103.786 96.9146C103.833 96.6396 104.129 96.6976 104.345 96.6827Z" fill="#F2BED5"/>
<path d="M105.567 96.9669C105.099 96.4457 104.592 96.3289 104.019 96.406C103.915 96.42 103.75 96.5675 103.729 96.319C103.717 96.1673 103.833 96.0207 103.95 96.0348C104.407 96.0895 104.837 96.0141 105.285 95.9586C105.678 95.9113 105.618 96.5029 105.567 96.9669Z" fill="#A09DCA"/>
<path d="M103.001 93.4821C102.997 94.0529 102.551 94.5144 102.169 95.0016C102.118 95.067 101.959 95.0778 101.853 95.0679C101.255 95.0107 100.703 94.8185 100.259 94.4034C99.8949 94.062 99.7656 93.6155 99.9901 93.1606C100.206 92.7215 100.588 92.5301 101.079 92.7455C101.242 92.8168 101.321 92.7455 101.415 92.6403C101.718 92.3031 102.083 92.2286 102.49 92.4257C102.881 92.6146 102.988 92.9676 103.001 93.4821Z" fill="#0B0D0C"/>
<path d="M102.684 93.2667C102.631 93.8549 102.397 94.2186 102.147 94.5749C102.033 94.7373 101.872 94.758 101.694 94.7282C101.172 94.642 100.737 94.3868 100.384 94.0016C100.172 93.7696 100.124 93.4837 100.327 93.2286C100.528 92.9759 100.811 92.9154 101.078 93.1217C101.315 93.3048 101.445 93.2352 101.555 93.0007C101.715 92.6619 101.998 92.5939 102.313 92.7091C102.621 92.8218 102.719 93.0852 102.684 93.2667Z" fill="#F4A4C7"/>
<path d="M106.169 92.8168C106.143 92.4929 106.27 92.2187 106.582 92.0414C106.921 91.8491 107.24 91.9005 107.513 92.1615C107.664 92.3056 107.772 92.3653 107.996 92.2659C108.299 92.1308 108.599 92.2568 108.809 92.4995C109.04 92.7655 109.049 93.0795 108.897 93.3968C108.652 93.9121 107.688 94.4565 107.152 94.3794C106.767 94.3247 106.179 93.4059 106.169 92.8168Z" fill="#0F1311"/>
<path d="M106.486 92.8831C106.49 92.6495 106.512 92.4258 106.779 92.3321C107.035 92.2418 107.284 92.2642 107.43 92.5011C107.574 92.7364 107.701 92.8276 107.958 92.6602C108.196 92.5045 108.44 92.5475 108.608 92.7754C108.786 93.0165 108.663 93.2609 108.505 93.4465C108.185 93.8201 107.748 94.0041 107.268 94.0389C106.912 94.0645 106.486 93.405 106.486 92.8831Z" fill="#F3A4C6"/>
<ellipse cx="96.5743" cy="89.0235" rx="0.40636" ry="0.3884" fill="#262626"/>
<rect width="1.10279" height="5.49568" rx="0.551393" transform="matrix(0.887975 0.459892 -0.493178 0.869929 99.4792 83.0869)" fill="#262626"/>
</svg>
