<svg width="16" height="20" viewBox="0 0 16 20" fill="none" xmlns="http://www.w3.org/2000/svg">
<path d="M8.59111 0C11.1403 2.81239 13.4505 5.56658 15.1038 9.02003C16.3178 11.5556 16.2759 14.0204 15.1148 16.5226C14.7278 17.357 14.1074 17.9877 13.3508 18.4792C10.1866 20.536 6.85788 20.5384 3.85678 18.2915C2.8113 17.5089 2.18133 16.455 1.84972 15.2055C1.77137 14.9112 1.65898 14.7355 1.32658 14.6193C0.315928 14.2662 -0.12094 13.3364 0.0286403 12.0305C0.118072 11.2518 0.760711 10.6505 1.70489 10.5097C1.94627 10.4739 2.03649 10.3721 2.10614 10.1574C3.30278 6.42795 5.45784 3.29822 8.10833 0.48106C8.29511 0.283016 8.36556 0.216359 8.59111 0Z" fill="#020302"/>
<path d="M15.6116 12.6639C15.5277 13.9715 15.3766 15.2615 14.7039 16.4323C14.3722 17.0082 13.9837 17.5243 13.4233 17.8894C11.8175 18.9337 10.1159 19.7338 8.14608 19.4777C6.11686 19.2145 4.31873 18.4541 3.07144 16.698C2.7058 16.1826 2.55384 15.5853 2.3362 15.0118C2.25548 14.7994 2.39398 14.7302 2.56651 14.6666C3.1395 14.4558 3.41888 13.9667 3.67134 13.4553C3.72278 13.3519 3.76631 13.2318 3.6563 13.1634C3.51306 13.0743 3.426 13.1912 3.35873 13.3066C3.33103 13.3535 3.31282 13.4052 3.28671 13.4529C2.90524 14.1552 2.30771 14.4813 1.65399 14.3445C1.00581 14.2085 0.51275 13.5945 0.461307 12.8381C0.423319 12.2686 0.416195 11.6975 0.871267 11.2593C1.40232 10.7487 1.99668 10.7026 2.77069 11.0931C2.88862 11.1527 3.02 11.3229 3.14346 11.1543C3.28433 10.9626 3.09835 10.8052 2.9638 10.7821C2.22778 10.6556 2.52614 10.2023 2.66702 9.83561C3.89136 6.64781 5.66495 3.79964 7.95139 1.27437C8.68821 0.460721 8.69454 0.475037 9.40287 1.33323C11.4171 3.7718 13.3062 6.29308 14.6564 9.18342C15.1763 10.2898 15.648 11.4009 15.6116 12.6639Z" fill="url(#paint0_linear_1_4)"/>
<path d="M4.47699 7.7979C4.79514 6.79018 5.1133 5.67111 5.96329 4.81849C6.17381 4.60692 6.46664 4.48125 6.75472 4.64908C7.03014 4.80894 7.10057 5.11277 7.06338 5.40944C6.93833 6.41954 6.51571 7.31512 5.97358 8.15979C5.89681 8.27989 5.78443 8.37851 5.68075 8.47952C5.43778 8.71654 5.16791 8.79051 4.84421 8.63621C4.52843 8.48509 4.49282 8.20751 4.47699 7.7979Z" fill="#DAEEE2"/>
<path d="M4.47699 7.77147C4.79514 6.76375 5.1133 5.64468 5.96329 4.79206C6.17381 4.58049 6.46664 4.45483 6.75472 4.62265C7.03014 4.78251 7.10057 5.08634 7.06338 5.38301C6.93833 6.39311 6.51571 7.28869 5.97358 8.13336C5.89681 8.25346 5.78443 8.35208 5.68075 8.45309C5.43778 8.69011 5.16791 8.76408 4.84421 8.60978C4.52843 8.45866 4.49282 8.18108 4.47699 7.77147Z" fill="#DAEEE2"/>
<path d="M4.36611 9.51252C4.63837 9.48468 4.80298 9.63421 4.7919 9.88077C4.77766 10.1782 4.65419 10.4765 4.29726 10.4797C4.03688 10.4821 3.85248 10.2729 3.86356 10.0152C3.87622 9.72965 4.00918 9.48548 4.36611 9.51252Z" fill="#D8EDE0"/>
<path d="M4.36611 9.48607C4.63837 9.45824 4.80298 9.60776 4.7919 9.85433C4.77766 10.1518 4.65419 10.45 4.29726 10.4532C4.03688 10.4556 3.85248 10.2464 3.86356 9.98874C3.87622 9.70321 4.00918 9.45903 4.36611 9.48607Z" fill="#D8EDE0"/>
<path d="M2.64824 12.7066C2.63241 12.8601 2.69652 13.0804 2.48521 13.1106C2.25095 13.144 2.27706 12.9054 2.25569 12.7615C2.21612 12.4918 2.14569 12.2803 1.82278 12.2445C1.65896 12.2262 1.48643 12.1292 1.56082 11.924C1.63521 11.7188 1.84099 11.7991 1.98107 11.8333C2.38153 11.9343 2.64508 12.297 2.64824 12.7066Z" fill="#091D14"/>
<path d="M11.428 15.0635C11.432 15.5646 11.2317 15.9559 10.7529 16.1277C10.2583 16.3051 9.73989 16.3337 9.34734 15.9066C8.99357 15.5216 8.91284 15.042 9.09487 14.5402C9.21913 14.1974 9.48346 14.0606 9.82536 14.16C10.0026 14.2117 10.1641 14.2737 10.3469 14.2141C11.136 13.9572 11.4288 14.187 11.428 15.0635Z" fill="#0B0F0F"/>
<path d="M9.92242 15.1144C10.3181 15.085 10.6181 15.2504 10.8365 15.5725C10.8951 15.6592 10.8713 15.7547 10.7827 15.8048C10.444 15.9981 10.0965 15.9678 9.75226 15.8207C9.54095 15.73 9.35101 15.5519 9.3882 15.3371C9.43331 15.0731 9.71585 15.1287 9.92242 15.1144Z" fill="#F4A4C7"/>
<path d="M11.0885 15.3866C10.6413 14.8864 10.157 14.7742 9.61007 14.8482C9.51036 14.8617 9.35286 15.0033 9.33308 14.7647C9.3212 14.6191 9.432 14.4783 9.5436 14.4919C9.98046 14.5444 10.3912 14.472 10.8194 14.4187C11.1945 14.3734 11.1375 14.9412 11.0885 15.3866Z" fill="#A09DCA"/>
<path d="M8.63693 12.0407C8.63297 12.5887 8.20718 13.0317 7.84233 13.4993C7.79326 13.5622 7.64131 13.5725 7.5408 13.563C6.96939 13.5081 6.4415 13.3236 6.01809 12.9251C5.66986 12.5974 5.5464 12.1687 5.76088 11.7321C5.96744 11.3105 6.33229 11.1268 6.80081 11.3336C6.95672 11.402 7.03191 11.3336 7.12213 11.2326C7.4118 10.9089 7.76003 10.8373 8.14862 11.0266C8.52217 11.2079 8.62426 11.5467 8.63693 12.0407Z" fill="#0B0D0C"/>
<path d="M8.3352 11.8344C8.28376 12.3991 8.06058 12.7483 7.82156 13.0903C7.71314 13.2462 7.5596 13.2661 7.38945 13.2374C6.89005 13.1547 6.47535 12.9098 6.1382 12.5399C5.9348 12.3172 5.88969 12.0428 6.08359 11.7979C6.27511 11.5553 6.54578 11.4972 6.80062 11.6952C7.02697 11.871 7.15122 11.8042 7.25648 11.5791C7.40923 11.2538 7.6799 11.1886 7.98064 11.2992C8.27505 11.4073 8.36844 11.6603 8.3352 11.8344Z" fill="#F4A4C7"/>
<path d="M11.6626 11.4024C11.638 11.0914 11.7591 10.8281 12.0575 10.6579C12.3812 10.4734 12.6859 10.5227 12.9463 10.7732C13.0903 10.9116 13.194 10.9689 13.4077 10.8734C13.6973 10.7438 13.9838 10.8647 14.1849 11.0977C14.4049 11.353 14.4136 11.6545 14.2688 11.9591C14.0345 12.4538 13.1133 12.9764 12.602 12.9024C12.234 12.8499 11.6721 11.9679 11.6626 11.4024Z" fill="#0F1311"/>
<path d="M11.9658 11.4666C11.9698 11.2423 11.9904 11.0276 12.2452 10.9377C12.4897 10.851 12.728 10.8725 12.8673 11.1C13.005 11.3258 13.1261 11.4133 13.3714 11.2527C13.5993 11.1031 13.832 11.1445 13.9927 11.3632C14.1628 11.5947 14.0449 11.8293 13.8937 12.0075C13.5882 12.3662 13.1712 12.5427 12.7121 12.5762C12.3726 12.6008 11.965 11.9677 11.9658 11.4666Z" fill="#F4A4C7"/>
<defs>
<linearGradient id="paint0_linear_1_4" x1="8.02942" y1="0.676559" x2="8.02942" y2="19.5259" gradientUnits="userSpaceOnUse">
<stop stop-color="#1875F1"/>
<stop offset="0.792172" stop-color="#52BBF8"/>
<stop offset="1" stop-color="#72F9FD"/>
</linearGradient>
</defs>
</svg>
