<svg xmlns="http://www.w3.org/2000/svg" width="281.433" height="204.08" viewBox="0 0 281.433 204.08">
  <g id="Group_1" data-name="Group 1" transform="translate(-535 -221)">
    <path id="Path_1" data-name="Path 1" d="M25.4.4A21.182,21.182,0,0,1,35.7,2.8a17.6,17.6,0,0,1,6.9,6.3V1.2H59.7V56.9a30.648,30.648,0,0,1-3.1,13.9,22.79,22.79,0,0,1-9.3,10q-6.2,3.7-15.5,3.7-12.4,0-20.1-5.9A21.914,21.914,0,0,1,2.9,62.8H19.8a7.911,7.911,0,0,0,3.8,5A13.566,13.566,0,0,0,31,69.7a11.35,11.35,0,0,0,8.4-3.1q3.2-3,3.2-9.7V49a19.381,19.381,0,0,1-6.9,6.4,21.182,21.182,0,0,1-10.3,2.4,23.1,23.1,0,0,1-12.5-3.5A25.314,25.314,0,0,1,4,44.2,34.432,34.432,0,0,1,.8,29,33.787,33.787,0,0,1,4,13.9a24.583,24.583,0,0,1,8.9-10A23.1,23.1,0,0,1,25.4.4ZM42.6,29.1q0-6.4-3.6-10.1a11.375,11.375,0,0,0-8.6-3.7A11.694,11.694,0,0,0,21.7,19q-3.5,3.6-3.5,10t3.5,10.2a11.694,11.694,0,0,0,8.7,3.7A11.375,11.375,0,0,0,39,39.2Q42.6,35.5,42.6,29.1Zm82.071-.9a43.653,43.653,0,0,1-.3,5h-38.7q.4,5.2,3.3,8a10.523,10.523,0,0,0,7.3,2.7q6.4,0,8.9-5.4h18.2a25.479,25.479,0,0,1-14.2,16.8,29.392,29.392,0,0,1-12.3,2.5,29.93,29.93,0,0,1-14.6-3.5,24.9,24.9,0,0,1-10-10,30.872,30.872,0,0,1-3.6-15.2,31.587,31.587,0,0,1,3.5-15.2,24.9,24.9,0,0,1,10-10A30.141,30.141,0,0,1,96.871.4a29.838,29.838,0,0,1,14.4,3.4,24.086,24.086,0,0,1,9.8,9.7A29.116,29.116,0,0,1,124.671,28.2Zm-17.5-4.5a8.792,8.792,0,0,0-3-7,12.013,12.013,0,0,0-14.8-.1,11.215,11.215,0,0,0-3.6,7.1ZM167.692.6q9.8,0,15.6,6.4,5.9,6.3,5.9,17.4V57h-17V26.7q0-5.6-2.9-8.7a11.363,11.363,0,0,0-15.6,0q-2.9,3.1-2.9,8.7V57h-17.1V1.2h17.1V8.6a17.656,17.656,0,0,1,7-5.8A21.835,21.835,0,0,1,167.692.6ZM197.675,29a33.792,33.792,0,0,1,3.2-15.1,24.586,24.586,0,0,1,8.9-10,23.1,23.1,0,0,1,12.5-3.5,21.182,21.182,0,0,1,10.3,2.4,17.6,17.6,0,0,1,6.9,6.3V1.2h17.1V57h-17.1V49.1a18.376,18.376,0,0,1-7,6.3,21.182,21.182,0,0,1-10.3,2.4,22.929,22.929,0,0,1-12.4-3.5,25.317,25.317,0,0,1-8.9-10.1A34.436,34.436,0,0,1,197.675,29Zm41.8.1q0-6.4-3.6-10.1a11.375,11.375,0,0,0-8.6-3.7,11.694,11.694,0,0,0-8.7,3.7q-3.5,3.6-3.5,10t3.5,10.2a11.694,11.694,0,0,0,8.7,3.7,11.375,11.375,0,0,0,8.6-3.7Q239.475,35.5,239.475,29.1ZM115.266,48.8a40.834,40.834,0,0,1,19.4,4.4,31.02,31.02,0,0,1,12.8,12.4,35.709,35.709,0,0,1,4.6,18.3,36.054,36.054,0,0,1-4.6,18.3,30.876,30.876,0,0,1-12.9,12.4,40.616,40.616,0,0,1-19.3,4.4h-26.3V48.8Zm-1.1,55.4q9.7,0,15.1-5.3t5.4-15q0-9.7-5.4-15.1t-15.1-5.4h-8.1v40.8ZM197.422,119l-14.6-26.5h-4.1V119h-17.1V48.8h28.7a31.276,31.276,0,0,1,14.1,2.9,19.835,19.835,0,0,1,8.8,8,21.916,21.916,0,0,1,2.9,11.2,20.715,20.715,0,0,1-4,12.5q-3.9,5.5-11.6,7.8l16.2,27.8Zm-18.7-38.6h10.6q4.7,0,7-2.3a8.579,8.579,0,0,0,2.4-6.5,8.314,8.314,0,0,0-2.4-6.3q-2.3-2.3-7-2.3h-10.6ZM122.166,181.7a36.914,36.914,0,0,1-18.2-4.6,34.97,34.97,0,0,1-13.1-12.8,36.472,36.472,0,0,1-4.8-18.6,35.934,35.934,0,0,1,4.8-18.5,34.97,34.97,0,0,1,13.1-12.8,36.914,36.914,0,0,1,18.2-4.6,36.357,36.357,0,0,1,18.1,4.6,33.332,33.332,0,0,1,13,12.8,35.934,35.934,0,0,1,4.8,18.5,36.472,36.472,0,0,1-4.8,18.6,34.239,34.239,0,0,1-13,12.8A36.357,36.357,0,0,1,122.166,181.7Zm0-15.6q8.4,0,13.4-5.6,5.1-5.6,5.1-14.8,0-9.3-5.1-14.8-5-5.6-13.4-5.6-8.5,0-13.6,5.5-5,5.5-5,14.9,0,9.3,5,14.9Q113.666,166.1,122.166,166.1Zm98.913-32.7a22.884,22.884,0,0,1-2.8,11.2,20.694,20.694,0,0,1-8.6,8.1q-5.8,3.1-14.4,3.1h-10.6V181h-17.1V110.8h27.7a31.528,31.528,0,0,1,14.2,2.9,19.925,19.925,0,0,1,8.7,8A23.255,23.255,0,0,1,221.079,133.4Zm-27.1,8.8q4.9,0,7.3-2.3a10,10,0,0,0,0-13q-2.4-2.3-7.3-2.3h-9.3v17.6Zm44,39.6a10.67,10.67,0,0,1-7.4-2.6,8.82,8.82,0,0,1-2.8-6.6,8.934,8.934,0,0,1,2.8-6.7,10.431,10.431,0,0,1,7.4-2.7,9.941,9.941,0,0,1,7.2,2.7,8.781,8.781,0,0,1,2.9,6.7,8.671,8.671,0,0,1-2.9,6.6A10.161,10.161,0,0,1,237.981,181.8Z" transform="translate(534.2 220.6)" fill="#fff"/>
    <path id="Path_2" data-name="Path 2" d="M.86,10.5a6.141,6.141,0,0,1,.68-2.96A4.9,4.9,0,0,1,3.42,5.56a5.485,5.485,0,0,1,2.78-.7,5.364,5.364,0,0,1,3.32.98,4.608,4.608,0,0,1,1.74,2.72H9.3A2.8,2.8,0,0,0,8.2,6.98a3.318,3.318,0,0,0-2-.58A3.21,3.21,0,0,0,3.68,7.48a4.345,4.345,0,0,0-.96,3.02,4.454,4.454,0,0,0,.96,3.06A3.21,3.21,0,0,0,6.2,14.64a3.4,3.4,0,0,0,2-.56,2.839,2.839,0,0,0,1.1-1.6h1.96a4.868,4.868,0,0,1-1.76,2.7,5.308,5.308,0,0,1-3.3,1,5.485,5.485,0,0,1-2.78-.7A4.9,4.9,0,0,1,1.54,13.5,6.3,6.3,0,0,1,.86,10.5ZM15.508,6.82a3.511,3.511,0,0,1,1.36-1.46,4.29,4.29,0,0,1,2.18-.52V6.72h-.48q-3.06,0-3.06,3.32V16h-1.82V5.04h1.82ZM31.149,10.1a10.711,10.711,0,0,1-.06,1.1h-8.76a3.413,3.413,0,0,0,3.56,3.44,3.364,3.364,0,0,0,1.96-.54,2.946,2.946,0,0,0,1.12-1.48h1.96a4.76,4.76,0,0,1-1.76,2.58,5.35,5.35,0,0,1-3.28.98,5.6,5.6,0,0,1-2.8-.7,4.991,4.991,0,0,1-1.92-1.98,6.23,6.23,0,0,1-.7-3,6.259,6.259,0,0,1,.68-2.98,4.726,4.726,0,0,1,1.9-1.96,5.676,5.676,0,0,1,2.84-.7,5.5,5.5,0,0,1,2.76.68,4.625,4.625,0,0,1,1.84,1.88A5.4,5.4,0,0,1,31.149,10.1Zm-1.88-.38a3.306,3.306,0,0,0-.46-1.78,2.9,2.9,0,0,0-1.26-1.14,3.757,3.757,0,0,0-1.74-.4,3.409,3.409,0,0,0-2.36.88,3.607,3.607,0,0,0-1.1,2.44Zm3.6.76a6.1,6.1,0,0,1,.68-2.94,4.941,4.941,0,0,1,1.86-1.98,5.182,5.182,0,0,1,2.66-.7,4.863,4.863,0,0,1,2.5.62,4.13,4.13,0,0,1,1.58,1.56v-2h1.84V16h-1.84V13.96a4.341,4.341,0,0,1-1.62,1.6,4.823,4.823,0,0,1-2.48.62,4.968,4.968,0,0,1-2.64-.72,5.051,5.051,0,0,1-1.86-2.02A6.291,6.291,0,0,1,32.872,10.48Zm9.28.02a4.455,4.455,0,0,0-.5-2.16,3.442,3.442,0,0,0-1.36-1.4,3.568,3.568,0,0,0-1.86-.5,3.682,3.682,0,0,0-1.86.48,3.483,3.483,0,0,0-1.34,1.4,4.456,4.456,0,0,0-.5,2.16,4.618,4.618,0,0,0,.5,2.2,3.625,3.625,0,0,0,1.34,1.42,3.844,3.844,0,0,0,3.72,0,3.579,3.579,0,0,0,1.36-1.42A4.573,4.573,0,0,0,42.152,10.5Zm7.136-3.96V13a1.575,1.575,0,0,0,.34,1.14,1.713,1.713,0,0,0,1.18.32h1.34V16h-1.64a3.264,3.264,0,0,1-2.28-.7,3,3,0,0,1-.76-2.3V6.54h-1.42V5.04h1.42V2.28h1.82V5.04h2.86v1.5ZM64.353,10.1a10.713,10.713,0,0,1-.06,1.1h-8.76a3.413,3.413,0,0,0,3.56,3.44,3.364,3.364,0,0,0,1.96-.54,2.946,2.946,0,0,0,1.12-1.48h1.96a4.76,4.76,0,0,1-1.76,2.58,5.35,5.35,0,0,1-3.28.98,5.6,5.6,0,0,1-2.8-.7,4.992,4.992,0,0,1-1.92-1.98,6.23,6.23,0,0,1-.7-3,6.26,6.26,0,0,1,.68-2.98,4.727,4.727,0,0,1,1.9-1.96,5.676,5.676,0,0,1,2.84-.7,5.5,5.5,0,0,1,2.76.68,4.625,4.625,0,0,1,1.84,1.88A5.4,5.4,0,0,1,64.353,10.1Zm-1.88-.38a3.3,3.3,0,0,0-.46-1.78,2.9,2.9,0,0,0-1.26-1.14,3.757,3.757,0,0,0-1.74-.4,3.409,3.409,0,0,0-2.36.88,3.607,3.607,0,0,0-1.1,2.44Zm6.162,3.76-2.24,5.38h-1.22l1.46-5.38Zm20.6-8.64a4.722,4.722,0,0,1,2.28.54,3.761,3.761,0,0,1,1.58,1.58,5.308,5.308,0,0,1,.58,2.58V16h-1.8V9.8a3.487,3.487,0,0,0-.82-2.5,2.8,2.8,0,0,0-2.18-.88,2.91,2.91,0,0,0-2.26.92,3.7,3.7,0,0,0-.84,2.62V16h-1.8V9.8a3.487,3.487,0,0,0-.82-2.5,2.8,2.8,0,0,0-2.18-.88,2.91,2.91,0,0,0-2.26.92,3.7,3.7,0,0,0-.84,2.62V16h-1.82V5.04h1.82V6.62a3.613,3.613,0,0,1,1.44-1.32,4.453,4.453,0,0,1,2.02-.46,4.743,4.743,0,0,1,2.44.62,3.783,3.783,0,0,1,1.58,1.82,3.6,3.6,0,0,1,1.52-1.8A4.478,4.478,0,0,1,89.232,4.84ZM97.6,3.26a1.229,1.229,0,0,1-1.24-1.24A1.229,1.229,0,0,1,97.6.78a1.109,1.109,0,0,1,.84.36,1.2,1.2,0,0,1,.36.88,1.2,1.2,0,0,1-.36.88A1.109,1.109,0,0,1,97.6,3.26Zm.88,1.78V16h-1.82V5.04Zm8.442-.2a4.422,4.422,0,0,1,3.24,1.22,4.621,4.621,0,0,1,1.24,3.48V16h-1.8V9.8a3.485,3.485,0,0,0-.82-2.5,2.912,2.912,0,0,0-2.24-.88,3.032,3.032,0,0,0-2.3.9,3.7,3.7,0,0,0-.84,2.62V16h-1.82V5.04h1.82V6.6a3.631,3.631,0,0,1,1.46-1.3A4.623,4.623,0,0,1,106.919,4.84Zm9.673,1.7V13a1.573,1.573,0,0,0,.34,1.14,1.713,1.713,0,0,0,1.18.32h1.34V16h-1.64a3.265,3.265,0,0,1-2.28-.7,3,3,0,0,1-.76-2.3V6.54h-1.42V5.04h1.42V2.28h1.82V5.04h2.86v1.5Zm6.945,6.94-2.24,5.38h-1.22l1.46-5.38Zm9.237-6.66a3.508,3.508,0,0,1,1.36-1.46,4.291,4.291,0,0,1,2.18-.52V6.72h-.48q-3.06,0-3.06,3.32V16h-1.82V5.04h1.82Zm15.641,3.28a10.709,10.709,0,0,1-.06,1.1H139.6a3.413,3.413,0,0,0,3.56,3.44,3.363,3.363,0,0,0,1.96-.54,2.946,2.946,0,0,0,1.12-1.48h1.96a4.758,4.758,0,0,1-1.76,2.58,5.349,5.349,0,0,1-3.28.98,5.6,5.6,0,0,1-2.8-.7,5,5,0,0,1-1.92-1.98,6.226,6.226,0,0,1-.7-3,6.264,6.264,0,0,1,.68-2.98,4.727,4.727,0,0,1,1.9-1.96,5.676,5.676,0,0,1,2.84-.7,5.5,5.5,0,0,1,2.76.68,4.627,4.627,0,0,1,1.84,1.88A5.4,5.4,0,0,1,148.415,10.1Zm-1.88-.38a3.3,3.3,0,0,0-.46-1.78,2.9,2.9,0,0,0-1.26-1.14,3.757,3.757,0,0,0-1.74-.4,3.409,3.409,0,0,0-2.36.88,3.605,3.605,0,0,0-1.1,2.44Zm8.162,6.46a5.788,5.788,0,0,1-2.26-.42,3.933,3.933,0,0,1-1.58-1.2,3.249,3.249,0,0,1-.64-1.78h1.88a1.858,1.858,0,0,0,.76,1.34,2.977,2.977,0,0,0,1.82.52,2.632,2.632,0,0,0,1.64-.46,1.406,1.406,0,0,0,.6-1.16,1.123,1.123,0,0,0-.64-1.06,8.544,8.544,0,0,0-1.98-.7,16.314,16.314,0,0,1-2-.64,3.81,3.81,0,0,1-1.32-.98,2.629,2.629,0,0,1-.54-1.72,2.594,2.594,0,0,1,.5-1.54,3.326,3.326,0,0,1,1.42-1.1,5.009,5.009,0,0,1,2.1-.42,4.482,4.482,0,0,1,2.94.92,3.313,3.313,0,0,1,1.2,2.52h-1.82a1.866,1.866,0,0,0-.7-1.38,2.531,2.531,0,0,0-1.68-.52,2.608,2.608,0,0,0-1.56.42,1.3,1.3,0,0,0-.58,1.1,1.262,1.262,0,0,0,.34.9,2.935,2.935,0,0,0,.88.56q.54.2,1.48.46a14.546,14.546,0,0,1,1.92.64,3.175,3.175,0,0,1,1.26.92,2.454,2.454,0,0,1,.56,1.62,2.769,2.769,0,0,1-.5,1.62,3.388,3.388,0,0,1-1.42,1.14A5.076,5.076,0,0,1,154.7,16.18Zm16.57-6.08a10.713,10.713,0,0,1-.06,1.1h-8.76a3.413,3.413,0,0,0,3.56,3.44,3.365,3.365,0,0,0,1.96-.54,2.951,2.951,0,0,0,1.12-1.48h1.96a4.763,4.763,0,0,1-1.76,2.58,5.352,5.352,0,0,1-3.28.98,5.593,5.593,0,0,1-2.8-.7,4.983,4.983,0,0,1-1.92-1.98,6.226,6.226,0,0,1-.7-3,6.252,6.252,0,0,1,.68-2.98,4.721,4.721,0,0,1,1.9-1.96,5.674,5.674,0,0,1,2.84-.7,5.5,5.5,0,0,1,2.76.68,4.627,4.627,0,0,1,1.84,1.88A5.4,5.4,0,0,1,171.267,10.1Zm-1.88-.38a3.311,3.311,0,0,0-.46-1.78,2.9,2.9,0,0,0-1.26-1.14,3.757,3.757,0,0,0-1.74-.4,3.409,3.409,0,0,0-2.36.88,3.605,3.605,0,0,0-1.1,2.44Zm6.1-8.52V16h-1.82V1.2Zm4.922,0V16h-1.82V1.2Zm3.682,14.92a1.24,1.24,0,1,1,0-2.48,1.11,1.11,0,0,1,.84.36,1.256,1.256,0,0,1,0,1.76A1.11,1.11,0,0,1,184.093,16.12Z" transform="translate(631.14 406.22)" fill="#fff"/>
  </g>
</svg>
