<svg width="127" height="119" viewBox="0 0 127 119" fill="none" xmlns="http://www.w3.org/2000/svg">
<path d="M11.6609 75.5721C7.36108 72.9494 4.90441 69.1814 4.84057 64.2163C4.77791 59.3815 6.83894 55.5486 11.0513 53.0039C12.293 52.2545 13.6798 51.8896 15.1354 51.7501C28.7205 50.4514 42.2645 48.845 55.8293 47.3961C67.1297 46.1881 78.4259 44.9504 89.7234 43.7226C95.9546 43.0445 102.202 42.462 108.411 41.6488C112.671 41.09 115.799 42.7018 118.247 46.0346C121.814 50.8928 122.218 58.1301 119.149 63.0762C117.764 65.3083 115.771 66.7534 113.037 67.044C101.837 68.2356 90.6361 69.4246 79.4353 70.6091C59.6335 72.7009 39.823 74.7378 20.0352 76.9332C17.0321 77.2674 14.3045 77.1129 11.6609 75.5721Z" fill="#4B4B5A"/>
<path d="M90.5274 49.7217C90.6265 49.7115 90.7522 49.7369 90.8193 49.6883C93.0347 48.0815 95.6691 47.9127 98.2926 47.6807C100.802 47.4598 103.307 47.1948 105.815 46.9479C106.166 46.9957 106.499 46.8854 106.84 46.8478L106.837 46.8441C107.485 47.4005 107.989 46.6854 108.573 46.6875C110.857 46.0023 112.138 46.3717 113.881 48.3379C114.47 49.0024 115.017 49.7473 115.2 50.6588C115.169 51.1282 115.323 51.5292 115.68 51.8531C116.491 54.4864 116.53 57.1046 115.452 59.6193C114.863 61.0003 113.836 62.0464 112.2 62.2251C105.615 62.9471 99.027 63.6538 92.439 64.3604C92.3445 64.3708 92.2441 64.3211 92.1463 64.3001C90.8546 64.3682 89.5344 64.2427 88.3192 64.8C83.3643 65.3216 78.4104 65.8414 73.457 66.3684C73.2234 66.3937 72.9953 66.463 72.7674 66.3414C72.7677 66.312 72.77 66.3451 72.772 66.3417C71.6234 66.7272 70.405 66.7273 69.2166 66.8605C63.8365 67.4655 58.4478 68.0156 53.0603 68.58C52.9985 68.5861 52.9322 68.5464 52.8678 68.5283C52.7075 68.5517 52.5764 68.5028 52.4738 68.3744C52.6153 67.3163 52.7982 67.1782 53.8963 67.3583C53.2177 66.6661 53.4266 66.1672 54.1533 65.785C54.2296 65.7325 54.3109 65.6918 54.3973 65.6586C55.4083 65.4095 56.383 65.0716 57.2522 64.4945C58.7199 63.5721 60.404 63.1063 61.9902 62.4373C66.7605 60.4303 71.5575 58.4793 76.2737 56.3531C76.6784 56.1693 77.0695 55.8483 77.582 56.0486C77.7664 56.5576 78.0948 56.6085 78.5083 56.3388C78.75 56.1792 78.9277 55.9221 79.2975 55.8871C78.9267 55.8783 78.7656 56.1516 78.5198 56.277C78.1752 56.4536 77.8343 56.5572 77.6048 56.091C77.5472 55.8992 77.6343 55.7572 77.7955 55.6865C80.3427 54.5468 82.7736 53.1662 85.4037 52.1939C85.7242 52.1926 86.0181 52.1102 86.2838 51.9369C86.3623 51.897 86.4442 51.8636 86.5285 51.8383C86.9607 51.6678 87.4415 51.5726 87.7018 51.1276C88.4778 50.3432 89.5492 50.1236 90.5274 49.7217Z" fill="#0D99FF"/>
<path d="M48.4947 53.1009C53.196 52.4455 57.9341 52.0519 62.6552 51.535C67.3119 51.025 71.9652 50.5086 76.6208 50.0003C76.7482 49.9856 76.8838 50.0348 77.017 50.0553C77.5774 50.212 78.0823 50.0575 78.5757 49.8283C79.8255 49.6979 81.0743 49.5692 82.3241 49.4388C82.4265 49.4146 82.5348 49.4211 82.6005 49.4991C82.9621 49.9464 82.9625 50.3927 82.6039 50.83C83.005 50.8968 83.5563 50.7799 83.4294 51.4934C83.263 51.9458 82.8433 52.0982 82.4557 52.2848C76.4273 55.1776 70.3538 57.9768 64.1458 60.4929C60.5053 61.9697 56.8638 63.4526 53.1424 64.7335C52.7634 64.8634 52.3866 65.006 51.9709 64.9195C51.8246 64.8438 51.7578 64.7014 51.6807 64.5692C51.5631 64.7487 51.729 64.9719 51.5997 65.1516C50.4079 65.9406 48.9792 66.1772 47.6706 66.6932C46.9773 66.9667 46.3089 67.3863 45.4971 67.2903C45.0117 67.1122 44.7139 67.388 44.4316 67.7022C43.9527 68.1376 43.2769 68.0364 42.7279 68.2775C41.2911 68.4664 40.026 69.1411 38.6729 69.5706C38.2641 69.6996 37.839 69.783 37.4202 69.8882C37.3057 69.785 37.2261 69.8061 37.1842 69.9509C35.6553 70.7044 33.9539 70.6257 32.3108 70.812C31.8499 70.8638 31.9941 70.5128 32.0295 70.2597C32.2103 68.9871 32.3884 67.7153 32.5664 66.4434C32.6111 65.7518 32.5975 65.0432 33.3079 64.6154C33.4386 64.5367 33.3538 64.3933 33.1995 64.3358C32.9855 63.933 32.8381 63.4949 32.4878 63.1767C32.4089 63.064 32.3125 62.9618 32.2505 62.8358C31.6797 60.9096 31.1308 58.9775 30.0769 57.2249C30.0784 57.0277 30.0311 56.8509 29.8616 56.7211C29.7236 56.6388 29.6062 56.5407 29.6005 56.3646C29.9974 55.876 30.7099 55.6679 30.86 54.9629C35.5696 54.4418 40.2784 53.918 44.9888 53.3996C45.1479 53.3824 45.3163 53.4273 45.4804 53.4425C46.4794 53.2685 47.5441 53.6071 48.4947 53.1009Z" fill="#0D99FF"/>
<path d="M26.9731 59.3869C27.8208 61.2941 28.4989 63.233 28.2639 65.3466C28.1155 65.3904 28.0101 65.3332 27.9281 65.2096C27.894 65.27 27.9372 65.3217 27.9571 65.3693C28.3174 66.2119 27.8093 66.5831 27.1496 66.8756C26.9446 66.9785 26.7613 66.8524 26.5692 66.8123C26.4188 66.7935 26.2771 66.8046 26.1555 66.9044C25.954 67.1913 26.1449 67.4901 26.138 67.7798C26.1095 68.2689 26.1838 68.7705 25.9823 69.2395C25.5604 69.5159 25.1616 69.3706 24.7688 69.14C24.7341 69.0567 24.7274 68.9733 24.7435 68.8868C24.9957 68.4851 24.9064 68.0889 24.6949 67.6942C24.5348 66.1157 24.7049 64.5185 24.2642 62.8249C24.1405 64.7578 24.2305 66.5972 23.5799 68.3263C23.4788 68.4808 23.3482 68.6006 23.176 68.6742C23.0169 68.737 22.8527 68.7923 22.7027 68.8761C22.5547 68.9565 22.4083 69.0423 22.2317 69.0451C21.9367 68.9721 22.1826 68.5942 21.909 68.5082C21.7925 68.4539 21.7015 68.3753 21.6269 68.2717C21.5419 68.1328 21.4872 67.9813 21.4122 67.8412C21.3726 67.7665 21.3452 67.6373 21.2464 67.6635C21.1585 67.6868 21.1749 67.8234 21.1379 67.9095C21.0951 67.9855 21.0349 68.0426 20.9633 68.091C20.8422 68.1319 20.7141 68.1439 20.5877 68.1568C20.5074 68.1752 20.4252 68.1926 20.3454 68.2182C19.8393 68.4949 20.1034 69.0033 20.0088 69.4029C19.8478 70.3589 19.2934 71.1227 18.8118 71.9229C18.6189 72.2443 18.3271 72.4347 17.9391 72.4731L17.9518 72.4712C16.7378 72.4761 16.4386 72.1458 16.7952 71.0953C17.2205 69.8445 17.4146 68.5567 17.4387 67.239C17.4603 67.0145 17.6603 66.7882 17.4201 66.5685C17.0259 67.607 17.0112 68.7297 16.6404 69.7723C15.859 71.9692 15.4148 72.1442 13.3705 70.8981C11.9201 70.0143 11.0668 68.6842 10.4828 67.1579C10.1394 65.8423 9.58897 64.542 10.071 63.1617C10.1333 63.0967 10.2108 63.0585 10.3001 63.0451C10.405 63.0246 10.5404 63.1238 10.615 63.0247C10.6638 62.9589 10.5165 62.9055 10.5042 62.828C10.5112 62.5383 10.2651 62.9457 10.2345 62.7351C10.0431 62.3791 10.1687 62.0653 10.334 61.7557C10.8232 61.0826 11.3914 60.4518 11.5298 59.5854C11.6712 59.0325 12.0241 58.6717 12.5545 58.4678C12.8857 58.4681 13.1868 58.2032 13.5389 58.3653C13.6563 58.964 13.9055 59.4823 14.4806 59.7952C15.4982 60.5443 16.4314 61.3686 16.9494 62.5483C17.0065 62.6168 16.9746 62.7809 17.0682 62.7723C17.1928 62.7583 17.0638 62.838 17.0394 62.6991C16.6241 61.5069 16.165 60.3468 15.3238 59.3718C15.1101 59.1011 14.8126 58.9333 14.5102 58.8197C13.8054 58.5588 13.6039 58.1175 13.8747 57.451C14.6182 56.3478 15.1742 56.3427 15.8742 57.4315C16.1041 57.7728 16.2933 58.1617 16.7721 58.2314C17.3565 58.536 17.765 58.987 17.9758 59.6066C17.881 60.1016 18.2841 60.256 18.5969 60.4711C19.2516 61.2181 19.7808 62.0262 19.9195 63.0261C19.7971 63.3258 19.5974 63.6137 19.8137 63.9586C19.9133 64.2082 20.1795 64.2742 20.3559 64.4374C20.6736 64.8259 20.4912 65.3397 20.7537 65.8427C21.0625 62.8491 20.4573 60.1684 18.6598 57.7644C18.5584 57.6298 18.4522 57.4994 18.3683 57.3542C18.1905 57.0446 17.8319 56.7286 18.0951 56.3695C18.3105 56.0745 18.6911 55.9706 19.0874 56.1121C19.2845 56.1186 19.4995 56.1761 19.6773 56.1216C20.875 55.7524 21.6398 56.1883 22.042 57.3458C21.7809 57.788 21.4764 57.0451 21.2132 57.3586C21.2292 57.4132 21.1574 57.4865 21.2585 57.5184C21.25 57.4135 21.3005 57.3487 21.3969 57.3143C21.9816 57.4074 22.1931 58.0091 22.6755 58.2379C23.2213 58.6731 22.9717 59.5587 23.6668 59.9028C24.0675 59.7965 23.7973 59.5555 23.7641 59.366C23.3984 58.8185 23.5194 58.1653 23.3244 57.5797L23.3797 57.5313C23.3014 57.2026 23.376 56.826 23.0501 56.5762C22.836 56.1323 22.4895 55.6252 23.4436 55.7376C24.052 56.215 24.3659 56.813 24.2657 57.5826C24.5541 57.7748 24.7159 58.0094 24.5411 58.3523C24.6089 58.882 24.957 59.4152 24.6661 59.7449C24.8536 59.4911 24.7758 58.9626 24.8696 58.4693C25.1807 58.2942 25.5066 58.362 25.8333 58.4324C26.0161 58.4808 26.0677 58.799 26.3351 58.6767C26.6392 58.8368 26.8113 59.1068 26.9731 59.3869Z" fill="white"/>
<path d="M45.5133 67.122C47.5712 66.5643 49.5391 65.7647 51.5299 65.0281C51.5837 64.8126 51.7256 64.7721 51.9222 64.8374C56.8995 63.2497 61.6986 61.2248 66.51 59.2318C71.9702 56.9698 77.3185 54.4718 82.6367 51.9112C82.8415 51.8128 83.0228 51.6692 83.2132 51.5468C83.5732 51.281 83.9606 51.0534 84.347 50.8275C84.4609 50.7621 84.5843 50.7088 84.706 50.6545C84.8638 50.5774 85.0157 50.4901 85.1702 50.4065C85.7449 50.0661 86.3937 49.8676 86.9676 49.5244C87.3516 49.3609 87.7123 49.1433 88.1174 49.0417C88.2409 49.0295 88.1257 49.1511 88.1801 49.0339C88.2089 48.9705 88.152 48.943 88.0779 48.9876C87.7741 49.0006 87.4896 49.0746 87.202 49.1377C86.8128 49.1822 86.4316 49.2995 86.0309 49.2693C85.6326 49.2472 85.2485 49.3447 84.8551 49.3595C84.684 49.3814 84.5144 49.4132 84.344 49.4422C84.2565 49.4566 84.1704 49.4604 84.0826 49.4587C83.8242 49.4245 83.5429 49.4433 83.394 49.1568C83.4963 48.9961 83.648 48.8472 83.6921 48.6695C83.8429 48.0628 84.1549 47.9565 84.6816 48.3013C85.2101 48.6471 85.6722 48.5686 86.0616 48.085C86.2825 47.8091 86.592 47.6741 86.9462 47.7578C87.4781 47.8825 86.9535 48.3285 87.2418 48.6367C87.6766 47.9899 88.2352 47.6449 89.0466 47.9318C89.2806 48.0137 89.5541 48.0086 89.4122 48.3473C88.9479 49.4645 89.8723 49.4807 90.5218 49.7195C89.7278 50.4778 88.5201 50.5501 87.7294 51.3148C87.3219 51.5698 86.9237 51.8413 86.443 51.9571L86.4493 51.9584C86.134 52.0787 85.9003 52.3816 85.5168 52.3497C82.8787 53.5928 80.2395 54.8377 77.5996 56.0799L77.6006 56.0782C74.0342 57.6058 70.4771 59.15 66.9015 60.6565C64.0275 61.8668 61.1337 63.0295 58.2505 64.2187C57.9441 64.344 57.6536 64.5033 57.3555 64.647C56.3931 65.0624 55.448 65.5216 54.4106 65.7513L54.4133 65.7506C53.9097 66.1925 53.2412 66.3185 52.6643 66.6213C52.3823 66.749 52.0764 66.8154 51.791 66.9367C50.9207 67.288 50.04 67.6082 49.1491 67.9092C48.3866 68.1438 47.6488 68.4423 46.9071 68.7272C46.8293 68.7698 46.7474 68.8033 46.6647 68.834C46.252 68.9699 45.8248 69.0613 45.4017 69.1618C45.1582 69.2293 44.9163 69.3023 44.6721 69.3671C44.4477 69.409 44.216 69.5013 44.048 69.2404C43.7021 68.786 43.3488 68.3364 42.72 68.2595C43.1217 67.7623 43.8224 67.898 44.2959 67.5551C44.6979 67.3926 45.0255 67.0517 45.5133 67.122Z" fill="#4B4B5A"/>
<path d="M25.8723 69.2236C26.0264 68.7393 25.7932 68.205 26.0337 67.733C26.0598 67.3722 25.6949 66.9639 26.139 66.6522C26.2747 66.6764 26.4095 66.7024 26.5452 66.7265C26.8381 67.1921 26.8937 67.7309 27.0583 68.2379C27.1474 68.7752 27.0628 69.3101 27.075 69.8472C27.0698 70.0718 27.0564 70.2941 27.0484 70.5194C27.0543 70.6456 27.0218 70.8025 27.1326 70.8832C27.2894 70.9944 27.365 70.8436 27.4219 70.7345C27.5945 70.3995 27.6277 69.9722 28.0602 69.8178C28.3855 70.6977 27.9185 71.381 27.499 72.0547C27.3105 72.3558 26.9953 72.178 26.7944 72.0169C26.1779 71.5168 25.7614 71.7462 25.4551 72.3267C24.9512 73.2783 24.4334 72.5493 24.2869 72.18C24.1221 71.7685 23.8108 71.6088 23.5714 71.3214C23.3053 72.737 23.2978 72.7419 21.8136 72.7128C21.2528 72.7015 20.5948 72.4488 20.5382 73.4182C20.5199 73.7197 20.0893 73.7135 19.7823 73.5336C19.1719 73.1757 18.5557 72.8282 17.9442 72.4765C18.9918 71.554 19.4595 70.3067 19.874 69.0294C19.9385 68.6129 19.9942 68.1914 20.5104 68.0706L20.4829 68.0779C21.0281 68.1623 21.0233 68.5806 21.0565 68.977C20.9956 69.6686 20.9543 70.3667 20.72 71.0265C20.4999 71.6443 20.7543 71.781 21.3498 71.739C22.0769 71.687 22.5187 71.4127 22.6857 70.6695C22.8716 69.839 23.0392 68.9914 23.4372 68.2236C23.9671 66.249 23.9549 64.2054 24.1445 62.1641C24.9882 63.9665 24.8268 65.8668 24.8574 67.7455C25.0748 68.1503 24.9806 68.5409 24.8375 68.9313C24.7914 68.9759 24.7839 69.0263 24.8142 69.0843C24.9271 69.4802 24.9115 69.872 24.8254 70.2648C24.7945 70.4272 24.7618 70.5886 24.7292 70.75C24.7043 70.8975 24.6669 71.0425 24.6927 71.1913C24.7455 71.2962 24.8374 71.3321 24.9517 71.3238C25.6254 71.0232 25.4363 70.3363 25.6214 69.8217C25.62 69.5842 25.9023 69.4726 25.8723 69.2236Z" fill="#4B4B5A"/>
<path d="M15.8231 57.6676C15.1719 56.5585 14.9249 56.533 13.9811 57.4822C13.9427 57.6085 13.8567 57.6988 13.7532 57.7747C13.5793 57.8928 13.4279 58.0578 13.1832 58.0199C13.1555 57.9861 13.1269 57.9541 13.0993 57.9203C13.2062 57.2341 13.7713 56.8155 14.0879 56.2499C14.2936 55.8811 15.3906 56.2699 15.8629 56.848C16.5397 57.6757 17.1066 57.6927 17.4792 56.6967C17.776 55.9014 18.7453 55.9041 18.9744 55.1253C19.0216 54.963 19.3422 55.1643 19.4927 55.2492C19.684 55.357 19.5632 55.5256 19.4636 55.6651C19.3514 55.8226 18.9192 55.72 19.0938 56.1098C17.9877 56.3826 17.9691 56.3949 18.6857 57.3384C20.5896 59.8434 21.317 62.6385 21.0258 65.6921C21.0027 65.9317 21.1034 66.3366 20.7525 66.3504C20.272 66.3707 20.4863 65.9203 20.4157 65.6689C20.3016 65.2587 20.3918 64.8089 20.1466 64.4203C20.0307 64.2366 19.9102 64.0571 19.8553 63.8441C19.7657 63.5933 19.7298 63.3341 19.752 63.0713C19.4254 62.1521 19.0887 61.2386 18.3807 60.5116C18.2827 60.2219 17.9493 60.0681 17.9115 59.7419C17.5406 59.2118 17.2438 58.6166 16.6025 58.3301C16.18 58.3012 16.1021 57.8681 15.8231 57.6676Z" fill="#4B4B5A"/>
<path d="M10.5896 66.9534C11.4432 68.8252 12.6258 70.391 14.5686 71.3204C15.1443 71.595 15.439 71.5814 15.7593 71.0133C16.5564 69.6081 16.8715 68.0767 17.0338 66.4934C17.0565 66.2627 17.0425 65.9772 17.3339 65.9571C17.618 65.9376 17.498 66.2704 17.6154 66.414C17.7617 66.6512 17.6847 66.9036 17.6767 67.1495C17.651 68.6437 17.5178 70.1093 16.9507 71.5122C16.5382 72.5335 17.72 72.0393 17.9557 72.4658C17.3081 73.6845 17.2739 73.7494 16.0935 73.1316C15.7202 72.937 14.7208 72.9833 15.1146 72.0243C14.4517 72.0988 14.01 71.5038 13.386 71.4432C12.2184 71.3287 11.4267 70.4521 10.4441 69.9595C10.1308 69.8033 10.2283 69.5807 10.3788 69.3924C10.9038 68.7304 10.7252 68.2815 9.95173 67.9728C9.81449 67.9182 9.71044 67.7799 9.58772 67.6788C9.8138 67.3648 10.2529 67.6829 10.3788 67.3147C10.3399 67.1312 10.4205 67.0174 10.5896 66.9534Z" fill="#4B4B5A"/>
<path d="M49.0927 67.7552C49.9829 67.4265 50.8723 67.0952 51.7624 66.7665C51.9885 66.7506 52.2151 66.6963 52.4414 66.7875C52.517 66.8438 52.5711 66.9176 52.6029 67.0061C52.5197 67.4393 52.3895 67.8688 52.5073 68.3221C52.6285 68.3927 52.7479 68.4624 52.8691 68.533C51.2166 68.8436 49.5401 68.9815 47.8632 69.1077C47.8102 68.8252 47.9857 68.667 48.2126 68.6289C48.476 68.584 48.5056 68.4528 48.4706 68.2418C48.5589 67.9321 48.8698 67.898 49.0927 67.7552Z" fill="#0D99FF"/>
<path d="M10.5901 66.9542C10.5202 67.0741 10.4503 67.1939 10.3803 67.3138C10.1232 66.6067 9.96262 65.8403 9.09814 65.544C8.87936 65.4684 8.95291 65.28 9.04647 65.1348C9.56571 64.3216 9.76322 63.5409 9.06625 62.6495C8.72596 62.2141 9.57663 61.0326 10.2702 60.9367C10.5087 60.9028 10.7253 60.9202 10.8741 60.706C11.1688 61.2386 10.6326 61.4983 10.5003 61.8902C10.4088 62.1891 10.2096 62.4636 10.3111 62.8053C10.4148 62.9525 10.3557 63.0489 10.2196 63.1247C9.9334 64.4311 10.2799 65.6915 10.5901 66.9542Z" fill="#4B4B5A"/>
<path d="M84.5275 50.9077C84.169 51.2745 83.7415 51.5068 83.2157 51.5494C83.4249 50.5659 82.7336 51.2001 82.3649 51.1378C82.4732 50.5526 82.9989 49.9638 82.3267 49.43C82.6833 49.3398 83.0399 49.2496 83.3983 49.1604C83.6678 49.2123 83.9373 49.2641 84.2068 49.3159C84.5787 49.7987 85.0408 50.2664 84.5275 50.9077Z" fill="#0D99FF"/>
<path d="M26.913 69.8375C26.8905 69.3105 26.8707 68.7827 26.8481 68.2557C27.0214 67.8118 26.661 67.3128 26.9623 66.8819C27.4055 66.4104 28.2331 66.1307 27.7747 65.2054C27.7277 65.1106 27.7979 65.0774 28.2677 65.3492C28.2934 65.5934 28.5791 65.8069 28.3719 66.0792C28.0999 66.3628 28.3155 66.7461 28.1882 67.0588C27.9996 67.3849 27.8152 67.6996 27.7123 68.0808C27.5566 68.6507 27.7855 68.6091 28.1676 68.4695C28.2985 68.705 28.1384 68.8855 28.0592 69.0797C28.0928 69.2353 28.0566 69.3741 27.9656 69.4981C27.678 69.7887 27.3837 70.0665 26.913 69.8375Z" fill="white"/>
<path d="M12.6611 58.554C12.2663 58.8525 11.9067 59.1799 11.6965 59.6394C11.6347 59.8981 11.6164 60.1996 11.2093 60.102C11.2245 60.0378 11.276 59.9507 11.2511 59.9162C10.7698 59.2921 10.779 58.833 11.6369 58.7229C11.6857 58.2929 10.6854 58.7051 11.18 58.0556C11.4856 57.6544 11.8729 57.2448 12.4657 57.5222C12.6781 57.6214 12.781 57.948 13.102 57.9128L13.1218 57.9604C13.1473 58.3002 13.0474 58.5352 12.6611 58.554Z" fill="#4B4B5A"/>
<path d="M25.8391 58.513C25.5327 58.6383 25.2332 58.59 24.936 58.4589C24.7174 58.4699 24.454 58.7218 24.3102 58.3312C24.5514 58.069 24.4613 57.8976 24.148 57.7869C24.1318 57.2817 24.3913 56.7636 23.9562 56.277C23.7846 56.0846 23.8842 55.8335 24.1417 55.708C24.666 55.4074 24.9786 55.7179 25.1756 56.1385C25.4659 56.7619 25.8689 57.3054 26.2809 57.8495C26.278 57.9458 26.2395 58.0265 26.1742 58.0966C25.4063 58.1051 25.3482 57.4465 25.1188 57.0213C25.0366 57.4278 25.1152 57.7976 25.6221 58.0038C25.7914 58.0719 26.0888 58.2191 25.8391 58.513Z" fill="white"/>
<path d="M30.8606 54.9468C30.945 55.2151 31.5914 55.5546 30.6833 55.6752C30.3547 55.7197 30.2436 56.5127 29.6011 56.3484C29.312 56.0375 28.8508 55.6841 28.9506 55.3125C29.074 54.8496 29.6966 55.1279 30.082 54.9948C30.317 54.9133 30.5994 54.9588 30.8606 54.9468Z" fill="#0D99FF"/>
<path d="M23.7241 60.2833C22.7953 59.9189 23.0445 58.9307 22.6187 58.2992C22.6035 58.2268 22.6308 58.1785 22.6979 58.1504C23.0767 58.1409 23.3314 57.9956 23.3307 57.5787C23.7921 58.0642 23.6211 58.7483 23.9139 59.2844C24.1113 59.6711 24.06 60.0062 23.7241 60.2833Z" fill="#4B4B5A"/>
<path d="M32.251 62.8194C32.3759 62.8876 32.5018 62.954 32.6285 63.0232C32.8828 63.4374 32.7187 64.0594 33.3015 64.313C33.414 64.1716 33.4667 63.8918 33.7104 64.0019C33.9078 64.0905 33.7678 64.2892 33.6989 64.4278C33.3603 65.1153 32.6002 65.5651 32.5659 66.4287C32.4616 65.223 32.3572 64.0217 32.251 62.8194Z" fill="#0D99FF"/>
<path d="M88.3234 64.8064C88.8294 64.3271 89.367 64.1228 90.1352 64.2464C90.7819 64.3494 91.4725 63.8946 92.1487 64.3055C90.9 64.6367 89.602 64.658 88.3234 64.8064Z" fill="#0D99FF"/>
<path d="M28.1667 68.4689C28.124 68.975 27.6606 68.7206 27.4965 68.7054C27.2106 68.6784 27.5509 68.4516 27.5098 68.301C27.3319 67.6522 27.7055 67.2462 28.1344 66.8622C28.1125 66.661 28.1763 66.5149 28.3933 66.4735C28.4262 66.6718 28.4609 66.8711 28.4937 67.0694C28.6074 67.3975 28.45 67.6933 28.3952 68.0015C28.3211 68.1577 28.2425 68.3136 28.1667 68.4689Z" fill="white"/>
<path d="M27.8493 69.4315C27.9182 69.3134 27.9881 69.1935 28.0589 69.0764C28.1026 69.1147 28.1473 69.1513 28.193 69.1861C28.3694 69.4403 28.0665 69.5927 28.0678 69.8096L28.0613 69.8128C27.9501 70.0846 27.8219 70.3491 27.7339 70.6294C27.6117 71.0157 27.4888 71.4903 26.9883 71.3514C26.4627 71.2075 26.854 70.7659 26.8483 70.4532C27.2835 70.2071 27.5668 69.8207 27.8493 69.4315Z" fill="white"/>
<path d="M48.4931 53.0921C48.2505 53.572 47.862 53.7808 47.3411 53.5621C46.7223 53.3019 46.0789 53.8221 45.4792 53.4247C46.4594 53.1309 47.4789 53.1232 48.4931 53.0921Z" fill="#0D99FF"/>
<path d="M48.5258 68.3496C48.74 68.4954 48.7934 68.6325 48.4984 68.721C48.2511 68.7955 47.9997 68.8563 47.8658 69.1062C47.6392 69.2515 47.389 69.1695 47.1464 69.1693C46.8305 69.1459 46.5418 69.0991 46.6892 68.668L46.6936 68.6727C47.2938 68.5105 47.8507 68.1396 48.5258 68.3496Z" fill="#0D99FF"/>
<path d="M108.574 46.6894C108.332 46.8578 108.081 47.0186 107.846 47.1982C107.331 47.5948 107.023 47.4077 106.838 46.846C107.395 46.6071 107.974 46.5463 108.574 46.6894Z" fill="#0D99FF"/>
<path d="M24.1432 55.7148C24.0128 55.9667 24.0266 56.2111 24.1947 56.447C24.531 56.9143 24.4617 57.3599 24.1486 57.791C24.0422 57.0733 23.8137 56.3983 23.41 55.7815C23.3899 55.7178 23.3972 55.6718 23.4345 55.6428C23.4719 55.6138 23.4958 55.6046 23.5117 55.6136C23.7023 55.7847 23.9324 55.687 24.1432 55.7148Z" fill="white"/>
<path d="M46.6864 68.6691C46.7069 68.9514 46.9403 69.0466 47.1436 69.1704C46.5905 69.3979 45.9985 69.3303 45.4171 69.3597C45.2131 69.2993 45.1948 69.1911 45.3264 69.0446C45.7587 68.8491 46.2071 68.7037 46.6864 68.6691Z" fill="#0D99FF"/>
<path d="M28.0679 69.8116C27.9705 69.5746 28.1316 69.3924 28.1931 69.1881C28.6967 69.1558 28.7505 68.6218 29.0823 68.381C29.298 69.0374 29.1534 69.2359 28.0679 69.8116Z" fill="#4B4B5A"/>
<path d="M11.2089 60.1063C11.3708 59.9518 11.5344 59.7983 11.6962 59.6437C11.5569 60.5323 11.0656 61.2339 10.4964 61.8914C10.6206 61.4973 10.7449 61.1031 10.8701 60.7072C10.9821 60.5086 11.095 60.3083 11.2089 60.1063Z" fill="white"/>
<path d="M23.5117 55.6159C23.4778 55.6719 23.4439 55.7279 23.41 55.7839C22.5881 55.8051 23.0334 56.2406 23.1615 56.5722C23.2022 56.6407 23.2013 56.6879 23.1613 56.7132C23.1214 56.7385 23.0922 56.7448 23.0727 56.7338C23.0219 56.6915 22.958 56.66 22.922 56.6079C22.729 56.3169 22.2815 56.0054 22.4502 55.7228C22.6296 55.4212 23.1261 55.4554 23.5117 55.6159Z" fill="#4B4B5A"/>
<path d="M22.6959 58.1491C22.6775 58.2025 22.651 58.2536 22.6167 58.2979C21.928 58.3396 21.9319 57.4635 21.3578 57.3559C21.1798 57.3943 21.0697 57.3163 21.0064 57.1554C21.4369 56.7064 21.6463 57.6141 22.0472 57.3419C22.2637 57.6119 22.4802 57.8819 22.6959 58.1491Z" fill="white"/>
<path d="M115.682 51.8584C114.781 51.7375 114.943 51.2188 115.202 50.6641C115.46 51.0258 115.712 51.3907 115.682 51.8584Z" fill="#0D99FF"/>
<path d="M78.5767 49.8152C78.0952 50.1104 77.6714 50.7543 77.017 50.044C77.506 49.7895 78.0501 49.8551 78.5767 49.8152Z" fill="#0D99FF"/>
<path d="M26.9735 59.3889C26.7127 59.1644 26.4526 58.9426 26.1918 58.7182C26.0329 58.4784 26.019 58.2589 26.2724 58.0786C26.5764 58.1272 26.643 58.365 26.7077 58.6063C26.7969 58.866 27.0246 59.0831 26.9735 59.3889Z" fill="white"/>
<path d="M23.0709 56.725C23.1205 56.6824 23.1507 56.6289 23.1596 56.5634C23.6272 56.802 23.5846 57.1467 23.3831 57.5246C23.2797 57.2569 23.1753 56.991 23.0709 56.725Z" fill="white"/>
<path d="M37.1838 69.9328C37.0494 69.807 36.8302 69.6948 37.0369 69.4814C37.0926 69.424 37.2216 69.3898 37.3004 69.4115C37.5932 69.4924 37.4675 69.6946 37.4208 69.8685C37.3412 69.8896 37.2634 69.9117 37.1838 69.9328Z" fill="#0D99FF"/>
<path d="M44.0569 69.2491C44.2644 69.2909 44.4718 69.3328 44.681 69.3757C44.5561 69.5806 44.3878 69.7383 44.1333 69.6517C43.9118 69.5768 44.0067 69.396 44.0569 69.2491Z" fill="#4B4B5A"/>
<path d="M106.84 46.8441C106.521 47.0552 106.189 47.1799 105.815 46.9442C106.145 46.8141 106.475 46.6812 106.84 46.8441Z" fill="#0D99FF"/>
<path d="M45.3272 69.0426C45.3565 69.1478 45.3868 69.2514 45.4179 69.3577C45.1763 69.4922 44.9317 69.541 44.6778 69.3705C44.8156 69.1136 45.0437 69.0238 45.3272 69.0426Z" fill="#0D99FF"/>
<path d="M28.3968 67.9947C28.3732 67.6765 28.3208 67.3556 28.4953 67.0626C28.945 67.4323 28.5417 67.6964 28.3968 67.9947Z" fill="#4B4B5A"/>
<path d="M26.7074 58.603C26.5746 58.4371 26.4435 58.2722 26.3117 58.1045C26.1596 58.1507 26.1172 58.1018 26.187 57.9614C26.2139 57.9219 26.2461 57.8855 26.2827 57.8538C26.7513 57.9291 26.8334 58.2098 26.7074 58.603Z" fill="#4B4B5A"/>
<path d="M28.3945 66.4714C28.308 66.6001 28.2204 66.7305 28.1356 66.8602C28.0789 66.5552 27.855 66.199 28.3722 66.0765C28.3779 66.2071 28.3853 66.3388 28.3945 66.4714Z" fill="white"/>
<path d="M29.8625 56.7155C30.0185 56.7534 30.1727 56.7903 30.3287 56.8282C30.2457 56.9589 30.1617 57.0913 30.0769 57.221C29.9111 57.0888 29.8804 56.9031 29.8625 56.7155Z" fill="#0D99FF"/>
<path d="M27.3035 57.8511C27.4287 57.8899 27.4279 57.9782 27.3625 58.0528C27.2932 58.1343 27.3098 58.3326 27.1163 58.2576C27.0798 58.2438 27.052 58.144 27.0614 58.0901C27.0846 57.9621 27.1529 57.8618 27.3035 57.8511Z" fill="#4B4B5A"/>
<path d="M49.5198 14.7321C49.5818 14.9491 49.5734 15.2539 49.7193 15.3635C49.9328 15.5271 50.3017 15.6054 49.772 15.7459C49.1902 15.9003 48.909 16.1672 49.0679 16.8622C48.9253 16.1423 47.771 16.5132 47.9047 15.6305C48.4425 15.3307 48.982 15.0319 49.5198 14.7321Z" fill="#CCCCCC"/>
<path d="M46.9617 16.5122C46.8223 16.4655 46.5907 16.5534 46.6109 16.2735C46.7366 16.2078 46.8615 16.1394 46.9872 16.0738C47.0825 16.2276 47.037 16.3704 46.9617 16.5122Z" fill="#CECECD"/>
<path d="M52.5091 68.3194C52.1745 67.8531 51.9546 67.3946 52.561 66.9856C52.6154 66.8933 52.6065 66.7973 52.5696 66.7014C52.5487 66.635 52.5486 66.5689 52.5648 66.5029C53.0935 66.0455 53.8137 66.0307 54.4203 65.7537C53.4062 66.3311 53.8516 67.0147 54.5367 67.8857C53.5649 67.5107 52.7766 67.2118 52.5091 68.3194Z" fill="#0D99FF"/>
<path d="M77.6059 56.0808C78.5302 56.536 78.9618 55.4891 79.7816 55.4508C79.5234 56.1653 78.8611 56.4086 78.2913 56.6699C77.9411 56.8274 77.4532 56.7116 77.6059 56.0808C77.6059 56.0808 77.6069 56.0791 77.6059 56.0808Z" fill="#0D99FF"/>
<path d="M54.4176 65.7541C55.3768 65.3279 56.3186 64.8622 57.3625 64.6498C56.4744 65.2481 55.5514 65.7631 54.4176 65.7541Z" fill="#0D99FF"/>
<path d="M114.318 60.5725C114.629 60.0217 114.938 59.4727 115.249 58.9219C115.279 58.9389 115.308 58.955 115.338 58.9721C115.024 59.528 114.711 60.084 114.397 60.64C114.373 60.617 114.346 60.5948 114.318 60.5725Z" fill="#4B4B5A"/>
<path d="M86.45 51.9596C86.8011 51.5977 87.2456 51.4137 87.7364 51.3173C87.4469 51.7935 87.0554 52.078 86.45 51.9596Z" fill="#0D99FF"/>
<path d="M72.7762 66.343C72.5745 66.1792 72.4241 65.9989 72.6869 65.7852C72.7421 65.7412 72.9103 65.7451 72.9572 65.7943C73.2337 66.0822 72.7682 66.1337 72.7707 66.3445C72.7707 66.3445 72.7762 66.343 72.7762 66.343Z" fill="#0D99FF"/>
<path d="M85.5217 52.3504C85.8236 52.1998 86.0681 51.9235 86.4532 51.9608C86.2212 52.2646 85.9866 52.5647 85.5217 52.3504Z" fill="#0D99FF"/>
<path d="M33.3019 64.3132C33.265 64.5814 33.0824 64.8266 32.929 64.4738C32.7392 64.0323 32.4103 63.5601 32.6289 63.0234C33.0927 63.335 33.3238 63.7612 33.3019 64.3132Z" fill="#0D99FF"/>
<path d="M59.8595 52.3955C60.187 52.0795 60.5624 51.9271 60.9987 52.0639C61.031 52.073 61.0599 52.2782 61.0235 52.3055C60.6709 52.5708 60.2647 52.426 59.8595 52.3955Z" fill="#0D99FF"/>
<path d="M45.515 67.1199C45.1381 67.333 44.7768 67.5889 44.3046 67.557C44.5919 67.1137 44.89 66.6969 45.515 67.1199Z" fill="#0D99FF"/>
<path d="M51.9243 64.8385C51.7933 64.9012 51.6631 64.9665 51.532 65.0292C51.4567 64.7614 51.4364 64.4746 51.0641 64.2283C51.7549 64.1126 51.9311 64.3712 51.9243 64.8385Z" fill="#0D99FF"/>
<path d="M14.0772 62.8142C14.4256 63.5955 14.6413 64.409 14.7601 65.2497C14.858 65.7009 14.9979 66.1689 14.3841 66.3758C14.3126 66.1921 14.2421 66.0067 14.1707 65.8231C14.0081 65.5857 13.9432 65.3284 13.9841 65.0488C13.8686 64.4466 13.5079 63.977 13.0534 63.4089C12.788 64.4425 12.942 65.3737 13.0592 66.3C13.111 66.7047 13.4244 67.2706 12.974 67.4444C12.4444 67.651 12.3745 66.9721 12.1357 66.6463C12.0585 66.539 11.9776 66.4342 11.8976 66.3277C11.6864 66.0857 11.6068 65.8087 11.6535 65.4982C11.6403 65.352 11.6244 65.2064 11.6111 65.0602C11.2344 64.1058 11.5557 63.1719 11.6526 62.2344C11.6963 61.8175 11.9465 61.5103 12.329 61.3163C13.2943 61.376 13.6782 62.1022 14.0772 62.8142Z" fill="#4B4B5A"/>
<path d="M23.4345 68.2172C23.4074 69.3124 23.0054 70.3192 22.7218 71.3518C22.6034 71.7811 20.6952 72.2844 20.34 72.0203C20.1535 71.8833 20.2626 71.7355 20.2966 71.584C20.4947 70.6989 20.6892 69.8118 20.8854 68.9258C21.1517 68.6481 20.6961 68.3138 20.937 68.0355L20.9398 68.0347C21.2698 67.884 21.4357 68.3349 21.7427 68.2622C21.8613 68.3291 21.9782 68.395 22.0969 68.4619C22.2281 68.6224 21.7885 68.9343 22.2563 69.007C22.3397 68.8674 22.4428 68.7549 22.6281 68.7615C22.8681 68.8491 22.8583 68.5727 23.0017 68.517C23.2162 68.5174 23.3219 68.3631 23.4345 68.2172Z" fill="white"/>
<path d="M16.8826 62.7983C16.2474 61.6732 15.4042 60.7267 14.3433 59.9714C14.1899 59.7552 13.9418 59.6198 13.8239 59.3736C13.6859 59.0887 13.8118 58.857 13.9746 58.6553C14.1593 58.4271 14.3905 58.5302 14.5935 58.6629C14.9234 58.8808 15.335 58.9786 15.5822 59.3183C16.4758 60.3411 16.9313 61.5696 17.3296 62.8251C17.1665 63.1268 17.0233 63.0165 16.8826 62.7983Z" fill="#4B4B5A"/>
<path d="M12.376 61.4176C11.5038 62.1159 11.7961 63.166 11.6208 64.073C11.5594 64.3888 11.6101 64.7292 11.6089 65.0585C11.0416 65.0504 11.3369 64.5433 11.224 64.3089C10.8342 63.502 11.4386 61.772 12.1578 61.2581C12.2873 61.2355 12.3603 61.2881 12.376 61.4176Z" fill="white"/>
<path d="M15.2915 61.6531C14.3409 62.1343 14.1214 61.1867 13.586 60.878C13.4613 60.8054 13.4768 60.6412 13.569 60.5316C13.699 60.3796 13.8608 60.4321 14.0191 60.5032C14.5784 60.7572 14.9974 61.1482 15.2915 61.6531Z" fill="white"/>
<path d="M26.1866 57.9627C26.2404 57.9998 26.281 58.0478 26.3113 58.1058C26.2716 58.3087 26.2327 58.5143 26.1929 58.7172C25.968 58.843 25.9496 58.5982 25.8405 58.5185C25.7724 58.4118 25.7172 58.2282 25.6327 58.2124C24.9224 58.069 24.4981 57.8116 24.9332 57.0192C24.9938 56.9077 24.8328 56.6759 24.7494 56.4263C25.5219 56.7618 25.2983 57.8577 26.1866 57.9627Z" fill="white"/>
<path d="M15.5834 59.3269C15.4704 59.2541 15.3662 59.1657 15.2443 59.1129C14.8502 58.9385 14.4861 58.3508 14.0279 58.7866C13.5519 59.2418 14.1991 59.584 14.3445 59.98C13.5837 59.6944 13.468 59.0966 13.5378 58.41C13.4469 58.0993 13.5504 57.8414 13.7434 57.6066C13.8237 57.5677 13.9022 57.5278 13.9798 57.4896C13.9367 58.0751 14.1441 58.4606 14.7642 58.6647C15.0832 58.7694 15.4816 58.9031 15.5834 59.3269Z" fill="white"/>
<path d="M25.8731 69.2262C25.9643 69.4369 25.9096 69.6291 25.8037 69.8129C25.7343 70.1015 25.5117 70.2354 25.2561 70.337C25.0437 70.3742 24.8318 70.4892 24.6174 70.3273C24.6809 69.9125 24.7462 69.4987 24.8097 69.084C25.1569 69.2092 25.5402 68.993 25.8731 69.2262Z" fill="white"/>
<path d="M24.3092 58.3353C24.4833 58.5563 24.7659 58.2082 24.935 58.4629C25.3359 59.242 24.5244 59.8243 24.5898 60.5735C24.4738 59.8231 24.6138 59.0532 24.3092 58.3353Z" fill="white"/>
<path d="M21.7429 68.2616C21.7037 68.4056 21.7071 68.6397 21.6168 68.6798C21.4103 68.7727 21.4226 68.5316 21.3403 68.4169C21.2366 68.2697 21.0744 68.16 20.9372 68.0349C20.9411 67.7549 20.9432 67.4738 20.9473 67.1189C21.542 67.3473 21.7447 67.7369 21.7429 68.2616Z" fill="white"/>
<path d="M12.3771 61.4248C12.304 61.3723 12.231 61.3197 12.1589 61.2654C13.0657 61.11 13.9024 61.7867 14.077 62.8181C13.5448 62.3132 13.2407 61.5364 12.3771 61.4248Z" fill="white"/>
<path d="M22.5402 58.7288C22.3859 59.3336 22.5277 59.7981 23.1151 60.3706C21.9821 59.8137 21.8533 59.3427 22.5402 58.7288Z" fill="white"/>
<path d="M15.3442 58.5062C15.1711 58.2584 15.0009 58.0099 14.8278 57.7622C14.7904 57.5886 14.8528 57.4736 15.0251 57.4206C15.2952 57.8232 15.5486 58.2346 16.0245 58.4461C16.2709 58.5555 16.3344 58.7574 16.227 59.0018C15.8589 58.9717 15.5641 58.8032 15.3442 58.5062Z" fill="white"/>
<path d="M26.9615 66.8806C27.0533 67.3511 27.2279 67.8319 26.8473 68.2545C26.6724 67.7576 26.5467 67.252 26.5449 66.7254C26.7694 66.5425 26.8417 66.7744 26.9615 66.8806Z" fill="white"/>
<path d="M16.667 66.0944C16.2205 66.4434 16.5466 67.3964 15.4376 67.4219C16.1001 66.9922 16.0551 66.3683 16.3177 65.886C16.4974 65.8531 16.6142 65.919 16.667 66.0944Z" fill="white"/>
<path d="M14.3838 66.3761C14.71 66.0708 14.638 65.6274 14.7598 65.25C15.0017 65.5412 15.1425 65.8709 15.0609 66.2391C14.9544 66.7343 14.7104 66.7696 14.3838 66.3761Z" fill="white"/>
<path d="M13.7448 57.5989C13.7541 57.8886 13.7098 58.1617 13.5392 58.4023C13.2369 58.4002 13.0368 58.9041 12.6631 58.5568C12.8157 58.3607 12.9684 58.1646 13.1202 57.9657C13.3269 57.8433 13.5363 57.7202 13.7448 57.5989Z" fill="white"/>
<path d="M19.7553 63.0787C19.9368 63.3198 20.0284 63.5877 20.0329 63.886C19.9468 64.0263 19.8205 64.1053 19.6499 64.1183C19.4105 63.7399 19.2198 63.3661 19.7553 63.0787Z" fill="white"/>
<path d="M20.5077 68.0663C20.2949 68.3855 20.084 68.7058 19.8713 69.0251C19.7364 68.4779 19.5972 67.9261 20.5077 68.0663Z" fill="white"/>
<path d="M17.9168 59.7488C18.1631 59.9537 18.4038 60.16 18.386 60.5186C18.4798 60.1164 17.005 60.6251 17.9168 59.7488Z" fill="white"/>
<path d="M16.6668 66.0929C16.5519 66.0235 16.4342 65.9549 16.3193 65.8855C16.3827 65.7689 16.4462 65.6522 16.5097 65.5355C16.7038 65.183 16.9792 65.1084 17.3375 65.3173C17.1128 65.5752 16.8898 65.834 16.6668 66.0929Z" fill="white"/>
<path d="M24.8346 68.928C24.8403 68.533 24.8488 68.1372 24.8545 67.7422C25.3152 68.1544 25.3456 68.5516 24.8346 68.928Z" fill="white"/>
<path d="M17.3375 65.3175C17.0349 65.2994 16.7603 65.3766 16.5096 65.5356C16.4116 64.9479 16.93 65.0923 17.2054 65.0177C17.4644 64.9476 17.3922 65.1708 17.3375 65.3175Z" fill="white"/>
<path d="M20.9366 68.0383C20.9167 68.3343 21.3751 68.6679 20.885 68.9286C20.8335 68.606 20.7691 68.2898 20.4808 68.0726C20.6161 67.9031 20.7751 67.9563 20.9366 68.0383Z" fill="white"/>
<path d="M13.9826 65.0526C14.1297 65.2926 14.2548 65.5384 14.1692 65.8269C13.5839 65.6812 13.5664 65.4141 13.9826 65.0526Z" fill="white"/>
<path d="M11.654 65.4992C11.7363 65.7755 11.8158 66.0524 11.8981 66.3287C11.222 66.2114 11.137 65.9359 11.654 65.4992Z" fill="white"/>
<path d="M17.4156 60.857C17.2807 60.9471 17.1569 60.8977 17.0593 60.8017C16.9653 60.7077 16.8901 60.572 17.0154 60.4698C17.0585 60.4349 17.2075 60.4893 17.2852 60.5377C17.3974 60.6078 17.5197 60.6972 17.4156 60.857Z" fill="white"/>
<path d="M23.7224 60.2852C23.9721 59.9914 23.8457 59.6197 23.9131 59.2891C24.168 59.6854 24.4929 60.0985 23.7224 60.2852Z" fill="white"/>
<path d="M16.8841 62.802C17.0302 62.8616 17.1762 62.9463 17.3301 62.8305C17.4279 63.0131 17.6617 63.2565 17.2683 63.3168C16.9003 63.3733 16.8993 63.0564 16.8841 62.802Z" fill="#4B4B5A"/>
<path d="M26.1414 66.6511C25.8765 66.9842 26.3253 67.4011 26.0361 67.7319C25.854 67.347 25.4801 66.9382 26.1414 66.6511Z" fill="white"/>
<path d="M22.9992 68.5227C22.9509 68.7572 23.0742 69.118 22.7166 69.1439C22.4996 69.1604 22.5799 68.9144 22.6265 68.7655C22.7117 68.6269 22.8148 68.5144 22.9992 68.5227Z" fill="white"/>
<path d="M22.4997 68.0283C22.5726 67.5346 22.7223 67.2982 23.0065 67.026C22.9299 67.4061 22.9285 67.7148 22.4997 68.0283Z" fill="white"/>
<path d="M21.0059 57.1562C21.1227 57.2222 21.2386 57.2898 21.3573 57.3567C21.4295 57.5226 21.5016 57.6884 21.5821 57.8726C21.1713 57.7775 20.985 57.545 21.0059 57.1562Z" fill="white"/>
<path d="M19.651 64.1136C19.7371 63.9733 19.8463 63.8665 20.034 63.8813C20.0721 64.0621 20.112 64.2438 20.151 64.4229C19.9117 64.4335 19.7582 64.3083 19.651 64.1136Z" fill="white"/>
<path d="M22.256 69.0062C22.1416 69.0395 21.9498 69.1271 21.9257 69.0953C21.722 68.8234 22.0509 68.6789 22.0966 68.4612C22.4629 68.5608 22.0315 68.8705 22.256 69.0062Z" fill="white"/>
<path d="M10.5564 62.8697C10.6959 62.912 10.9567 62.7268 10.9515 62.8808C10.9407 63.1979 10.7154 63.3781 10.3528 63.21C10.3216 63.0377 10.3912 62.9267 10.5564 62.8697Z" fill="white"/>
<path d="M15.8232 57.6691C16.2635 57.683 16.3119 58.1518 16.6071 58.3319C16.0511 58.453 15.9827 58.0071 15.8232 57.6691Z" fill="white"/>
<path d="M19.0742 67.9207C19.1718 67.9257 19.274 67.9059 19.345 67.9414C19.5029 68.0214 19.4578 68.1552 19.3638 68.2433C19.3149 68.2886 19.2061 68.2705 19.1251 68.2817C19.1139 68.198 19.101 68.1133 19.0742 67.9207Z" fill="white"/>
<path d="M17.6755 67.1576C17.5628 66.9188 17.48 66.6764 17.6141 66.4221C18.0263 66.6431 17.8532 66.9005 17.6755 67.1576Z" fill="white"/>
<path d="M15.0282 57.4287C14.9621 57.5416 14.8951 57.6563 14.8309 57.7703C14.6954 57.6711 14.5297 57.5594 14.6706 57.384C14.766 57.2603 14.9369 57.1519 15.0282 57.4287Z" fill="white"/>
<path d="M15.3438 58.5095C15.6377 58.6753 15.9334 58.8421 16.2284 59.0061C15.7854 59.1045 15.4934 58.9353 15.3438 58.5095Z" fill="white"/>
<path d="M17.8788 70.7682C17.8422 71.0981 17.7606 71.2842 17.5336 71.3928C17.5003 71.1374 17.6226 70.9742 17.8788 70.7682Z" fill="white"/>
<path d="M10.5567 62.8654C10.4896 62.9801 10.4209 63.0938 10.3539 63.2085C10.3088 63.1808 10.261 63.1538 10.2149 63.1279C10.2445 63.0216 10.2768 62.9147 10.3064 62.8085C10.4136 62.6846 10.5198 62.5624 10.627 62.4386C10.783 62.613 10.5957 62.7259 10.5567 62.8654Z" fill="white"/>
<path d="M84.5267 50.911C84.4728 50.4437 84.6817 49.8788 84.0159 49.6398C84.079 49.5321 84.1411 49.426 84.2042 49.3182L84.2029 49.3289C84.6099 49.2694 85.0256 49.4469 85.4269 49.3022C85.6225 49.2077 85.8207 49.117 86.0223 49.0327C86.4135 49.0052 86.803 48.9768 87.1933 48.9511C87.6246 49.2581 87.3156 49.4502 87.0947 49.6556C86.5421 50.1473 85.8305 50.3331 85.1608 50.6018C84.9687 50.5617 84.8701 50.6745 84.7893 50.8179C84.6985 50.8463 84.6131 50.8778 84.5267 50.911Z" fill="#0D99FF"/>
<path d="M48.5256 68.3437C47.9139 68.4516 47.305 68.5588 46.6933 68.6668C47.4137 68.1673 48.2612 67.9807 49.0931 67.7512C48.9034 67.9468 48.7145 68.1453 48.5256 68.3437Z" fill="#0D99FF"/>
<path d="M87.0934 49.6529C87.1874 49.4283 87.3543 49.2152 87.1937 48.9494C87.515 48.8142 87.8412 48.716 88.1995 48.8338C88.3897 48.8979 88.4492 48.9952 88.2919 49.15C87.8915 49.3178 87.4921 49.484 87.0934 49.6529Z" fill="#0D99FF"/>
<path d="M86.0208 49.0247C85.8671 49.1565 85.7152 49.2893 85.5615 49.4211C85.2264 49.5849 84.9516 49.5301 84.755 49.1916C85.1754 49.1374 85.5995 49.0807 86.0208 49.0247Z" fill="#0D99FF"/>
<path d="M84.7539 49.196C84.9959 49.3711 85.2719 49.4198 85.5604 49.4254C85.0811 49.8947 84.6549 49.3426 84.202 49.3262C84.3638 49.1967 84.5497 49.165 84.7539 49.196Z" fill="#0D99FF"/>
<path d="M52.3869 66.8892C52.1785 66.849 51.9701 66.8089 51.7617 66.7687C52.0303 66.6813 52.2963 66.5946 52.5632 66.5062L52.5813 66.5528C52.6162 66.7226 52.5529 66.8349 52.3869 66.8892Z" fill="#0D99FF"/>
<path d="M88.289 49.1466C88.2579 49.0403 88.2276 48.9368 88.1965 48.8305C88.3716 48.7517 88.6585 48.6154 88.7188 48.7859C88.8242 49.0707 88.4993 49.0923 88.289 49.1466Z" fill="#0D99FF"/>
<path d="M84.7878 50.8164C84.6833 50.6459 84.7203 50.5098 84.9033 50.4378C85.0514 50.3779 85.149 50.4284 85.1612 50.6014C85.0353 50.6715 84.9102 50.7443 84.7878 50.8164Z" fill="#0D99FF"/>
<path d="M25.1044 70.1684C25.3372 70.0493 25.57 69.9303 25.8038 69.8096C25.596 70.4843 26.1033 71.5714 24.77 71.5933C24.6994 71.4329 24.5504 71.3329 24.4489 71.1983C24.481 71.0503 24.5149 70.9033 24.547 70.7553C24.7785 70.6014 24.8222 70.2755 25.1044 70.1684Z" fill="white"/>
<path d="M27.8488 69.4307C27.6919 69.9407 27.7313 70.6366 26.8471 70.4497C26.8175 70.2373 26.7771 70.0234 26.9114 69.8306C27.2245 69.6977 27.5358 69.5637 27.8488 69.4307Z" fill="white"/>
<path d="M24.4522 71.1949C24.7012 71.217 24.9811 71.2132 24.7733 71.5899C24.3292 71.7195 24.3697 71.4738 24.4522 71.1949Z" fill="white"/>
</svg>
