<svg width="130" height="123" viewBox="0 0 130 123" fill="none" xmlns="http://www.w3.org/2000/svg">
<g clip-path="url(#clip0_411_2)">
<path d="M46.6375 93.2648C43.6764 96.3415 40.7153 99.1959 36.7992 100.894C36.5543 100.996 36.3326 101.148 36.1478 101.338C35.3124 102.259 34.2777 102.977 33.1229 103.435C31.9681 103.894 30.7238 104.082 29.4853 103.985C27.4347 103.911 25.3027 104.104 23.3928 103.162C22.3035 102.599 21.2805 101.915 20.3428 101.123C19.1224 100.233 18.0051 99.2081 17.0116 98.069C16.1316 96.788 15.3496 95.4423 14.6723 94.0433C14.3984 93.5688 14.1023 93.1091 13.821 92.6421C13.2806 91.9215 12.8306 91.1372 12.481 90.3067C12.0961 88.9648 11.6889 87.534 12.3478 86.155C12.6915 85.3396 13.1695 84.5878 13.7617 83.9309C15.0498 82.6483 16.3305 81.3138 18.1072 80.654C18.2486 80.6186 18.3835 80.561 18.5069 80.4834C19.5587 79.7091 20.5487 78.8539 21.468 77.9257C22.3638 76.8729 23.0078 75.5681 23.8443 74.4412C24.3039 73.8054 24.8669 73.2515 25.51 72.8028C26.4057 72.1948 27.3162 71.8538 27.8789 70.6602C28.6148 69.3947 29.6271 68.3125 30.84 67.4945C35.0596 64.2843 39.3902 61.2669 43.5654 58.0345C47.7406 54.8021 51.7085 51.2583 55.891 48.0629C59.9108 45.001 64.234 42.3395 68.2611 39.2776C73.69 35.2397 79.502 31.7458 85.6133 28.8464C90.699 26.3628 95.9772 24.2647 101.159 21.9664C104.775 20.461 108.484 19.1906 112.263 18.1631C114.21 17.5848 117.216 18.5634 118.186 20.8024C119.481 23.8347 119.163 26.7334 117.919 29.61C115.854 34.3919 112.345 38.1433 108.999 41.9984C102.151 49.8793 95.0444 57.5674 87.4788 64.744C84.7091 67.3223 81.7951 69.7407 78.7509 71.9872C75.1161 74.7229 71.3481 77.251 67.6023 79.8533C63.7528 82.542 59.8935 85.2184 56.0243 87.8824C54.3513 89.039 52.619 90.1065 50.946 91.2631C50.2057 91.7821 49.5913 92.4864 48.8658 93.035C48.1403 93.5836 47.3482 93.895 46.6375 93.2648ZM29.5001 103.644C31.2997 103.61 33.0479 103.037 34.5192 101.998C35.5666 101.103 36.7084 100.325 37.9245 99.6778C40.2933 98.536 42.1366 96.6678 44.1058 94.9848C44.7171 94.5614 45.2235 94.0035 45.5863 93.3538C46.1659 91.8854 46.6457 90.3794 47.0225 88.8462C47.5409 86.7154 47.3804 84.4755 46.5635 82.4407C45.6456 79.8607 43.9577 77.9257 42.0478 76.0945C40.0115 74.1462 37.5353 72.7194 34.8301 71.9353C32.8313 71.3422 30.7734 70.9345 28.7302 70.4897C28.5451 70.4452 28.0935 70.7195 28.0861 70.8678C28.0195 72.2319 26.8721 72.4543 25.9911 72.9881C25.4422 73.261 24.9518 73.6388 24.5476 74.1002C23.6593 75.3012 22.993 76.6802 22.0307 77.8071C21.1067 78.9685 19.9989 79.9703 18.7512 80.7726C17.6038 81.4398 16.5304 82.1738 15.457 82.9374C14.1023 83.8419 13.4804 85.2505 12.6365 86.496C12.54 86.6464 12.4886 86.8214 12.4884 87.0002C12.4884 89.039 12.6513 91.0259 14.3391 92.5234C14.6549 92.8704 14.89 93.2831 15.0276 93.7319C15.5548 95.3427 16.4207 96.8216 17.5668 98.069C18.5735 99.0253 19.7136 99.8409 20.6611 100.849C21.4718 101.798 22.5508 102.478 23.7555 102.799C25.6432 103.192 27.5827 103.362 29.5001 103.637V103.644ZM86.9532 64.2621C89.0111 62.1788 90.9285 60.2586 92.8162 58.331C93.0579 58.0648 93.1947 57.7196 93.2011 57.3598C93.1103 55.2462 92.2087 53.2491 90.6842 51.7847C90.1364 51.2064 90.1734 50.8579 90.6472 50.3019C91.802 48.9748 92.905 47.6033 94.0376 46.254C95.6706 44.2933 96.7266 41.9162 97.0876 39.3888C97.3152 38.2443 97.1637 37.0567 96.6559 36.0063C96.1482 34.9559 95.3121 34.1001 94.2745 33.569C92.9573 32.9233 91.5647 32.4451 90.129 32.1455C88.9867 31.8464 87.7963 31.7784 86.6274 31.9453C83.7199 32.5519 81.04 33.9619 78.8915 36.0155C78.7065 36.186 78.4844 36.3195 78.2327 36.5122C78.1134 36.2784 77.9824 36.0508 77.8403 35.8302C77.3591 35.1407 76.2191 34.6662 75.7305 34.9924C72.8582 36.9126 70.0008 38.8476 67.1877 40.7529C67.6925 41.2687 68.1554 41.8241 68.572 42.4136C68.6394 42.5805 68.6638 42.7616 68.6431 42.9403C68.6224 43.1191 68.5573 43.2897 68.4536 43.4367C66.6991 45.0974 64.8484 46.6543 63.1236 48.3372C62.4531 48.9687 61.9257 49.737 61.5771 50.59C61.2284 51.4431 61.0666 52.3612 61.1026 53.2822C61.1692 55.6991 62.5832 57.3079 64.4561 58.4719C67.4172 60.3253 70.5486 61.3559 74.1315 60.696C77.1815 60.1178 80.0538 59.3022 82.5633 57.3228C82.7173 57.2688 82.8822 57.2534 83.0435 57.278C83.2048 57.3026 83.3576 57.3663 83.4887 57.4636C85.0385 58.9793 86.1028 60.9227 86.546 63.0462C86.6348 63.3872 86.7681 63.7431 86.9532 64.2547V64.2621ZM88.7965 31.1521C90.4251 31.5895 92.1277 32.0714 93.8378 32.4866C94.1752 32.5311 94.5177 32.4577 94.8075 32.279C96.2067 31.4634 97.5762 30.596 99.1308 29.6471C98.62 28.4386 98.05 27.0967 97.4725 25.7622L97.8131 25.6288C98.3165 26.6074 98.8717 27.5712 99.2936 28.5943C99.5897 29.2838 99.9155 29.3357 100.508 28.9798C102.247 28.016 104.017 27.0967 105.764 26.1403C106.578 25.6955 107.363 25.1914 108.251 24.6576L106.682 21.4548C103.076 22.2555 100.278 24.1979 97.3319 25.8067C94.3856 27.4155 91.5577 29.4024 88.7965 31.1447V31.1521ZM40.4118 68.9624C41.1521 69.3702 41.8924 69.8076 42.7141 70.1783C42.8301 70.2137 42.9524 70.2234 43.0726 70.2068C43.1927 70.1901 43.3079 70.1475 43.4099 70.0819C43.9577 69.7409 44.4685 69.3405 44.9867 68.9476C47.4148 67.1386 49.8133 65.3 52.2785 63.5429C52.6856 63.2464 52.8115 63.0981 52.6116 62.6755L51.131 59.5543C51.131 59.5543 51.0496 59.5098 50.9534 59.4653L51.094 59.9176C50.8872 59.948 50.687 60.0132 50.5018 60.1103C48.4216 61.7043 46.3562 63.3131 44.2835 64.9145C44.0123 65.1063 43.7914 65.3608 43.6393 65.6563C43.4873 65.9519 43.4086 66.2798 43.4099 66.6122C43.4099 67.235 43.5062 67.8503 43.5136 68.4731C43.4803 68.7441 43.4157 69.0103 43.3211 69.2664H43.0472L42.7659 66.3009L40.4118 68.9624ZM58.1785 54.1348C58.0749 54.4166 58.0675 54.55 58.0008 54.6093C56.4314 55.8326 54.8546 57.0559 53.2779 58.2643C52.8559 58.5905 52.4117 58.8797 51.9157 59.2355C52.3007 60.0955 52.7671 61.1409 53.226 62.201C53.3963 62.594 53.6332 62.7422 54.0255 62.4605L60.4586 57.9381L58.1785 54.1348ZM108.836 24.3833C109.406 24.109 109.887 23.9088 110.316 23.6419C111.105 23.2573 111.85 22.7874 112.537 22.2407C112.74 22.0284 112.897 21.7768 112.999 21.5014C113.101 21.226 113.145 20.9326 113.129 20.6393C113.041 19.9869 112.345 19.8238 111.649 19.7719C110.718 19.782 109.807 20.0377 109.006 20.5133C108.421 20.7802 107.829 21.0174 107.192 21.2547L108.836 24.3833ZM36.2884 71.6981L40.0861 73.5441L42.2329 71.8612C42.7141 71.4979 42.8695 71.1198 42.2329 70.8084C41.3445 70.371 40.4488 69.941 39.5309 69.5555C39.3993 69.5087 39.2594 69.4905 39.1202 69.502C38.9811 69.5135 38.846 69.5545 38.724 69.6222C37.9096 70.2302 37.1694 70.9048 36.2662 71.6981H36.2884ZM58.7929 54.0607L60.8583 57.2931L61.1766 57.2412C61.2462 56.8998 61.2612 56.5494 61.221 56.2033C60.8953 55.0022 60.4808 53.816 60.1995 52.8448L58.7929 54.0607ZM67.2247 43.4738C65.944 43.4071 65.1445 44.0447 65.2778 44.9566L67.2247 43.4738Z" fill="#B9B9B9"/>
<path d="M29.5002 103.637C27.5829 103.362 25.6434 103.192 23.7556 102.777C22.5509 102.455 21.4719 101.776 20.6613 100.827C19.7137 99.8186 18.5737 99.0031 17.5669 98.0467C16.4235 96.8058 15.5578 95.3348 15.0277 93.7319C14.8901 93.2831 14.655 92.8705 14.3393 92.5235C12.6514 91.0407 12.5034 89.039 12.4886 87.0002C12.4888 86.8214 12.5401 86.6464 12.6366 86.4961C13.5028 85.2505 14.1172 83.8419 15.4275 82.9078C16.5009 82.1664 17.5743 81.425 18.7217 80.7429C19.9694 79.9406 21.0773 78.9388 22.0012 77.7774C22.9635 76.6431 23.6298 75.2642 24.5181 74.0705C24.9223 73.6091 25.4127 73.2314 25.9617 72.9585C26.8426 72.4247 27.99 72.2171 28.0567 70.8381C28.0567 70.6898 28.5156 70.4155 28.7007 70.46C30.7439 70.9048 32.8019 71.3126 34.8006 71.9057C37.5059 72.6897 39.982 74.1166 42.0183 76.0648C43.9283 77.8961 45.6161 79.831 46.534 82.411C47.3509 84.4459 47.5114 86.6858 46.993 88.8166C46.6163 90.3498 46.1365 91.8557 45.5569 93.3242C45.1941 93.9738 44.6876 94.5318 44.0763 94.9552C42.1072 96.6381 40.2639 98.5064 37.895 99.6481C36.679 100.295 35.5371 101.073 34.4897 101.969C33.0293 103.009 31.292 103.59 29.5002 103.637V103.637ZM15.5533 87.2671C16.8636 87.9121 18.1591 88.6016 19.499 89.1873C23.4035 90.7789 26.7281 93.529 29.0264 97.0681C29.6261 98.0171 30.2553 98.9438 30.8845 99.8779C31.0001 100.037 31.1262 100.188 31.2621 100.33L31.4323 100.182C29.6927 97.2609 28.0197 94.2954 25.2658 92.1157C22.3639 89.81 18.9586 88.5645 15.5533 87.2671ZM45.816 88.7498C45.6531 85.3247 40.4415 78.0221 37.8135 76.9619C39.4221 78.5967 40.9278 80.3299 42.3219 82.1516C43.6766 84.131 44.5723 86.4145 45.816 88.7498ZM25.325 76.7692C26.9981 77.429 28.7599 77.9554 30.3663 78.7783C31.9727 79.6012 33.4385 80.7281 35.1782 81.8624C32.5855 79.0683 29.1011 77.2671 25.325 76.7692ZM24.6514 99.7519C23.8342 99.4852 23.0334 99.1708 22.2529 98.8104C21.4635 98.3941 20.7193 97.8972 20.032 97.3276C19.3197 96.765 18.6783 96.1177 18.1221 95.4C17.6638 94.6567 17.27 93.8754 16.9451 93.0647C17.3966 96.2007 21.9272 100.093 24.6662 99.7667L24.6514 99.7519ZM37.2361 97.5871C37.1917 95.4074 34.7562 91.2409 32.75 89.7581C34.6452 92.175 36.5107 94.5697 37.2805 97.6019L37.2361 97.5871ZM26.6131 87.6897C24.6736 85.6583 22.8155 83.5009 19.9062 82.7817C22.5416 83.879 24.4885 85.9178 26.6131 87.6897ZM29.3744 89.1057L29.1079 89.2985L33.5495 95.8152L33.7716 95.6669L29.3744 89.1057ZM37.4508 92.0712C38.0875 93.7616 38.7093 95.4371 39.3829 97.2609C39.568 96.0821 38.3391 92.9164 37.4508 92.0564V92.0712ZM33.0758 77.1769L33.1646 76.9619L27.9826 74.8786L27.8864 75.1159L33.0758 77.1769ZM44.5723 81.0692L44.328 81.1655C44.9202 82.6878 45.5149 84.2101 46.1121 85.7324L46.3934 85.6138L44.5723 81.0692ZM23.3633 97.6538C23.6286 97.9693 23.9799 98.2004 24.3744 98.319C24.7689 98.4375 25.1893 98.4382 25.5841 98.321L23.3633 97.6538Z" fill="white"/>
<path d="M86.9533 64.2547C86.7831 63.7431 86.635 63.3872 86.5462 63.024C86.1029 60.9004 85.0386 58.9571 83.4888 57.4414C83.3584 57.3428 83.2059 57.2777 83.0446 57.2519C82.8832 57.226 82.7181 57.2402 82.5635 57.2931C80.0909 59.2726 77.1816 60.0881 74.1317 60.6664C70.5487 61.341 67.3951 60.3105 64.4562 58.4422C62.5833 57.256 61.1694 55.6472 61.1028 53.2526C61.0668 52.3315 61.2286 51.4135 61.5772 50.5604C61.9259 49.7073 62.4532 48.9391 63.1237 48.3076C64.8486 46.6247 66.6993 45.0678 68.4537 43.4071C68.5574 43.2601 68.6226 43.0894 68.6433 42.9107C68.664 42.7319 68.6395 42.5508 68.5722 42.384C68.1556 41.7944 67.6927 41.2391 67.1879 40.7233C70.0009 38.8179 72.8584 36.8829 75.7307 34.9628C76.2193 34.6366 77.3593 35.111 77.8405 35.8005C77.9826 36.0211 78.1135 36.2488 78.2328 36.4826C78.4845 36.2898 78.7066 36.1564 78.8917 35.9859C81.0402 33.9322 83.72 32.5223 86.6276 31.9157C87.7965 31.7487 88.9868 31.8168 90.1291 32.1159C91.5648 32.4154 92.9575 32.8936 94.2747 33.5393C95.3122 34.0705 96.1484 34.9262 96.6561 35.9766C97.1638 37.027 97.3154 38.2146 97.0877 39.3591C96.7268 41.8866 95.6707 44.2636 94.0378 46.2243C92.9052 47.5736 91.817 48.9452 90.6473 50.2722C90.1735 50.8209 90.1365 51.1693 90.6843 51.755C92.2089 53.2195 93.1105 55.2165 93.2013 57.3302C93.1949 57.69 93.0581 58.0352 92.8163 58.3014C90.9286 60.2586 88.9891 62.1714 86.9533 64.2547ZM76.5894 52.4667C77.0935 52.0408 77.5303 51.5409 77.8849 50.984C77.95 50.7994 78.0701 50.6393 78.229 50.5253C78.3878 50.4113 78.5778 50.3488 78.7732 50.3464C79.5678 50.2572 80.3294 49.9784 80.9941 49.5333C81.6588 49.0882 82.2071 48.4899 82.5931 47.7886C82.8078 47.3809 82.9632 47.1659 83.4666 47.1214C83.9042 46.9903 84.3169 46.7874 84.6881 46.5209L83.9478 45.9203C84.2055 45.7289 84.4526 45.5234 84.6881 45.305C85.065 45.0143 85.36 44.6305 85.5443 44.1912C85.7286 43.7519 85.7958 43.2722 85.7393 42.7991C85.6515 42.2864 85.4425 41.8022 85.1298 41.3868C84.8171 40.9715 84.4098 40.637 83.9418 40.4114C83.4738 40.1857 82.9587 40.0754 82.4395 40.0897C81.9203 40.104 81.412 40.2424 80.9571 40.4934C80.2307 40.7934 79.4895 41.0557 78.7362 41.2793C78.5882 42.0874 78.5882 42.0874 77.3889 42.3024C76.9595 42.384 76.5228 42.4655 76.0934 42.5693C75.5691 42.671 75.0901 42.9356 74.7246 43.3256C74.3592 43.7156 74.1258 44.2111 74.0576 44.7416C73.9466 45.9352 73.458 46.3355 72.2958 46.1353C72.2958 46.2169 72.1847 46.3281 72.2069 46.3726C72.6881 47.1659 72.1477 47.7886 71.8738 48.4633C71.7282 48.7057 71.634 48.9755 71.597 49.2559C71.5601 49.5363 71.5811 49.8213 71.6589 50.0933C71.7367 50.3652 71.8695 50.6182 72.0491 50.8364C72.2287 51.0547 72.4513 51.2336 72.7029 51.3621C73.0516 51.664 73.4898 51.8429 73.9499 51.871C74.4101 51.8991 74.8667 51.775 75.2495 51.5178C76.0638 51.0136 76.1897 51.0952 76.3377 52.0219C76.4065 52.1768 76.4882 52.3256 76.582 52.4667H76.5894ZM68.2613 57.041C71.6888 58.6498 75.0792 58.3829 78.4697 56.8557C80.0021 56.1662 83.0668 53.6752 83.0668 52.8448C80.7572 54.2683 78.8769 56.2848 76.2119 56.9966C73.6044 57.6563 70.8759 57.6715 68.2613 57.041V57.041ZM94.06 36.8755C94.0059 37.0962 93.981 37.323 93.986 37.5502C94.5042 39.4555 93.7343 41.005 92.5498 42.3469C91.2617 43.8297 89.8404 45.1419 88.4857 46.5431C88.2469 46.808 88.0221 47.0852 87.812 47.3734C88.123 47.5143 88.2636 47.5143 88.3376 47.4476C90.8176 45.4533 93.1643 43.3329 94.4598 40.3303C94.6893 39.7678 94.7737 39.1564 94.7052 38.5526C94.6366 37.9488 94.4173 37.372 94.0674 36.8755H94.06ZM91.0101 34.859C88.693 33.6283 86.4351 34.5476 84.2291 35.1629C82.4006 35.6745 78.9213 38.4843 78.7214 39.4407C82.3266 36.4826 86.102 34.0805 91.0174 34.859H91.0101ZM64.6413 54.4462C64.5224 54.0216 64.4261 53.591 64.3526 53.1562C64.2985 52.4183 64.4027 51.6773 64.6581 50.983C64.9134 50.2887 65.3141 49.6571 65.8331 49.1305C66.8621 47.9147 67.9059 46.6988 68.9423 45.4829C68.0011 46.0909 67.1448 46.8213 66.3958 47.6552C65.2526 48.7323 64.3952 50.0776 63.901 51.5697C63.5605 52.8448 63.7678 53.7938 64.6413 54.4462ZM85.5024 53.7641C85.4073 53.8697 85.3299 53.9898 85.2729 54.12C84.9472 55.4767 86.7534 57.9603 88.234 58.0716C88.3228 58.0716 88.4265 58.0716 88.4931 58.0716C88.6326 57.9895 88.7661 57.8979 88.8929 57.7972C88.7977 57.6737 88.6884 57.5617 88.5671 57.4636C88.2118 57.256 87.8268 57.1152 87.4863 56.8853C86.4489 56.1391 85.7384 55.0213 85.5024 53.7641V53.7641ZM87.7232 52.9338C88.3102 53.3465 88.8469 53.8267 89.3222 54.3647C89.6959 55.0372 89.9962 55.7481 90.218 56.485C90.4679 56.2516 90.6296 55.9387 90.6754 55.5996C90.7213 55.2604 90.6486 54.9157 90.4696 54.6241C89.7664 53.3119 88.8336 52.7188 87.7084 52.9338H87.7232ZM87.4271 54.1941C87.3131 54.2357 87.2111 54.3047 87.13 54.395C87.0489 54.4853 86.9911 54.5941 86.9619 54.712C86.9326 54.8299 86.9328 54.9532 86.9623 55.071C86.9917 55.1889 87.0497 55.2976 87.131 55.3878C87.2736 55.5566 87.4502 55.6934 87.6492 55.7892C87.8482 55.885 88.0651 55.9377 88.2858 55.9438C88.5745 55.9438 88.9669 55.4397 89.0261 55.0986C89.0261 54.8985 88.6041 54.5278 88.2858 54.3572C88.1748 54.2979 87.8639 54.6019 87.5974 54.7724L87.4271 54.1941ZM71.5111 38.6252C71.2824 38.9142 71.1753 39.2812 71.2126 39.6482C71.2499 40.0151 71.4287 40.3529 71.711 40.5898C71.9748 40.9638 72.3475 41.247 72.7781 41.4009C73.2087 41.5549 73.6762 41.5719 74.1169 41.4498C72.8288 40.879 71.4223 40.4564 71.4963 38.6178L71.5111 38.6252ZM76.1008 39.6186C76.3525 38.0172 75.1236 36.8829 73.8134 37.4983C75.1903 37.5428 75.6641 38.5733 76.086 39.6112L76.1008 39.6186ZM73.0805 38.6252C72.7992 39.3666 73.2359 39.7076 73.8208 39.8484C74.0354 39.9003 74.4722 39.5964 74.561 39.3591C74.6499 39.1219 74.339 38.8402 74.2131 38.5807L73.9836 38.6993L74.028 39.3591L73.8504 39.4481L73.0805 38.6252Z" fill="white"/>
<path d="M88.7966 31.1447C91.5579 29.4024 94.3561 27.4378 97.3469 25.7919C100.338 24.146 103.091 22.2407 106.697 21.44L108.236 24.6724C107.348 25.1988 106.563 25.7029 105.749 26.1552C104.002 27.1116 102.233 28.0309 100.493 28.9947C99.9008 29.3283 99.5751 29.2986 99.279 28.6091C98.8422 27.6009 98.287 26.6371 97.7984 25.6436L97.4579 25.7771C98.0353 27.1116 98.6053 28.4535 99.1161 29.6619C97.5615 30.6109 96.155 31.4783 94.7929 32.2938C94.5031 32.4726 94.1606 32.5459 93.8231 32.5014C92.1279 32.0862 90.4252 31.5821 88.7966 31.1447Z" fill="white"/>
<path d="M40.4119 68.955L42.803 66.2341L43.0843 69.1997H43.3582C43.4528 68.9436 43.5174 68.6774 43.5507 68.4064C43.5507 67.7836 43.4545 67.1683 43.4471 66.5455C43.4457 66.2131 43.5244 65.8852 43.6765 65.5896C43.8285 65.2941 44.0495 65.0396 44.3206 64.8478C46.3934 63.2464 48.4588 61.6376 50.5389 60.0436C50.7241 59.9465 50.9243 59.8813 51.1312 59.8509L50.9905 59.3986C51.0868 59.4431 51.1534 59.4505 51.1682 59.4876L52.6487 62.6088C52.8486 63.0314 52.7228 63.1797 52.3156 63.4762C49.8505 65.2333 47.452 67.0719 45.0239 68.8809C44.5057 69.2738 43.9949 69.6741 43.4471 70.0152C43.345 70.0808 43.2299 70.1234 43.1097 70.1401C42.9896 70.1567 42.8672 70.147 42.7512 70.1116C41.9221 69.8002 41.1596 69.3628 40.4119 68.955Z" fill="white"/>
<path d="M58.1713 54.157L60.4513 57.9529L54.0183 62.4827C53.626 62.7645 53.3891 62.6162 53.2188 62.2233C52.7598 61.1705 52.2935 60.1251 51.9085 59.2577C52.4045 58.9019 52.8487 58.6127 53.2706 58.2865C54.8474 57.0781 56.4242 55.8548 57.9936 54.6315C58.0602 54.5722 58.0676 54.4388 58.1713 54.157Z" fill="white"/>
<path d="M108.836 24.3833L107.244 21.2621C107.881 20.9952 108.473 20.7579 109.058 20.5207C109.859 20.0451 110.77 19.7894 111.701 19.7793C112.375 19.8312 113.07 19.9943 113.181 20.6467C113.197 20.94 113.153 21.2334 113.051 21.5088C112.949 21.7842 112.792 22.0358 112.589 22.2481C111.902 22.7948 111.157 23.2647 110.368 23.6493C109.887 23.931 109.406 24.109 108.836 24.3833Z" fill="white"/>
<path d="M36.2664 71.6981C37.1695 70.9048 37.9024 70.2153 38.6871 69.6222C38.8092 69.5544 38.9442 69.5134 39.0834 69.5019C39.2225 69.4904 39.3624 69.5087 39.494 69.5555C40.4119 69.941 41.3077 70.371 42.196 70.8084C42.8474 71.1346 42.692 71.4979 42.196 71.8612L40.0492 73.5441L36.2664 71.6981Z" fill="white"/>
<path d="M58.7931 54.0607L60.2144 52.8448C60.5105 53.8161 60.9103 55.0023 61.236 56.2033C61.2762 56.5494 61.2612 56.8998 61.1916 57.2412L60.8585 57.2931L58.7931 54.0607Z" fill="white"/>
<path d="M67.2249 43.4738L65.2779 44.9565C65.1447 44.0446 65.9442 43.4071 67.2249 43.4738Z" fill="white"/>
<path d="M15.5533 87.2671C18.9586 88.5645 22.3639 89.81 25.325 92.138C28.0789 94.3176 29.7667 97.2831 31.4916 100.204L31.3213 100.352C31.1854 100.21 31.0593 100.059 30.9438 99.9002C30.3145 98.9661 29.6853 98.0393 29.0857 97.0904C26.7775 93.5281 23.4304 90.7636 19.499 89.1724C18.1591 88.6016 16.8636 87.9121 15.5533 87.2671Z" fill="#B9B9B9"/>
<path d="M45.816 88.7498C44.5723 86.4145 43.6766 84.131 42.3515 82.1441C40.9574 80.3225 39.4517 78.5893 37.8432 76.9545C40.4416 78.0517 45.6531 85.3246 45.816 88.7498Z" fill="#B9B9B9"/>
<path d="M25.325 76.7691C29.1011 77.2671 32.5855 79.0682 35.1782 81.8624C33.4681 80.7281 31.9876 79.6086 30.3812 78.7931C28.7747 77.9776 27.0129 77.4289 25.325 76.7691Z" fill="#B9B9B9"/>
<path d="M24.6662 99.7593C21.9272 100.093 17.3967 96.2007 16.9747 93.0869C17.2996 93.8977 17.6934 94.679 18.1517 95.4223C18.708 96.14 19.3493 96.7873 20.0617 97.3498C20.7489 97.9195 21.4931 98.4164 22.2825 98.8326C23.0571 99.1907 23.8532 99.5002 24.6662 99.7593V99.7593Z" fill="#B9B9B9"/>
<path d="M37.2806 97.6019C36.5403 94.5697 34.6452 92.175 32.7945 89.7729C34.8006 91.2557 37.2361 95.4223 37.2806 97.6019Z" fill="#B9B9B9"/>
<path d="M26.6131 87.6897C24.4885 85.9104 22.5416 83.8716 19.9062 82.7817C22.8155 83.5083 24.6736 85.6657 26.6131 87.6897Z" fill="#B9B9B9"/>
<path d="M29.3744 89.1131L33.816 95.6743L33.594 95.8226L29.1523 89.3059L29.3744 89.1131Z" fill="#B9B9B9"/>
<path d="M37.4508 92.0564C38.3391 92.9164 39.568 96.0821 39.3829 97.2461C38.7093 95.4223 38.0874 93.7467 37.4508 92.0564Z" fill="#B9B9B9"/>
<path d="M33.0758 77.1769L27.8938 75.1158L27.99 74.8786L33.172 76.9619L33.0758 77.1769Z" fill="#B9B9B9"/>
<path d="M44.5723 81.0692L46.423 85.6138L46.1417 85.7324C45.5445 84.2052 44.9498 82.6829 44.3576 81.1655L44.5723 81.0692Z" fill="#B9B9B9"/>
<path d="M23.3633 97.6538L25.5842 98.321C25.1893 98.4382 24.7689 98.4375 24.3744 98.319C23.98 98.2004 23.6286 97.9693 23.3633 97.6538V97.6538Z" fill="#B9B9B9"/>
<path d="M76.582 52.4667C76.474 52.3175 76.3798 52.1587 76.3007 51.9922C76.1526 51.0655 76.0268 50.984 75.2125 51.4881C74.8364 51.7405 74.389 51.8646 73.9369 51.8419C73.4847 51.8192 73.0519 51.6509 72.7029 51.3621C72.4615 51.2301 72.2488 51.0509 72.0777 50.8352C71.9065 50.6195 71.7803 50.3716 71.7064 50.1062C71.6326 49.8408 71.6126 49.5632 71.6477 49.2899C71.6829 49.0167 71.7723 48.7532 71.9108 48.5152C72.1848 47.8405 72.7252 47.2178 72.244 46.4245C72.244 46.38 72.3032 46.2688 72.3328 46.1872C73.495 46.3874 73.9836 45.9871 74.0947 44.7935C74.1628 44.263 74.3962 43.7675 74.7617 43.3775C75.1272 42.9875 75.6061 42.7229 76.1304 42.6212C76.5598 42.5174 76.9966 42.4359 77.4259 42.3543C78.6252 42.1393 78.6252 42.1393 78.7732 41.3312C79.5265 41.1076 80.2678 40.8453 80.9941 40.5453C81.449 40.2943 81.9573 40.1559 82.4765 40.1416C82.9957 40.1273 83.5108 40.2376 83.9788 40.4633C84.4468 40.6889 84.8542 41.0234 85.1668 41.4387C85.4795 41.8541 85.6885 42.3383 85.7763 42.851C85.8328 43.3241 85.7656 43.8038 85.5813 44.2431C85.3971 44.6824 85.102 45.0662 84.7251 45.3569C84.4897 45.5753 84.2425 45.7808 83.9848 45.9722L84.7251 46.5728C84.3539 46.8393 83.9412 47.0422 83.5036 47.1733C83.0002 47.2178 82.8448 47.4328 82.6301 47.8405C82.2442 48.5418 81.6958 49.1401 81.0312 49.5852C80.3665 50.0303 79.6048 50.3091 78.8103 50.3983C78.6148 50.4007 78.4249 50.4632 78.266 50.5772C78.1071 50.6912 77.9871 50.8513 77.9219 51.0359C77.5497 51.5776 77.0979 52.06 76.582 52.4667V52.4667ZM83.1261 46.5357C83.4226 45.9954 83.7617 45.4798 84.1403 44.9936C84.7103 44.3783 85.3543 43.8 85.1322 42.8659C85.065 42.4234 84.8871 42.0052 84.6152 41.6501C84.3432 41.2949 83.986 41.0144 83.5768 40.8347C83.1675 40.6549 82.7195 40.5817 82.2745 40.6218C81.8294 40.662 81.4017 40.8142 81.0311 41.0643C80.2908 41.4943 79.321 41.5907 78.8103 42.4878C78.6844 42.7176 78.181 42.7621 77.8405 42.8362C77.3519 42.9474 76.8559 42.9919 76.3599 43.0809C75.8794 43.1629 75.4354 43.3901 75.0874 43.732C74.7395 44.0739 74.5041 44.5141 74.413 44.9936C74.1421 45.5837 73.7826 46.1288 73.347 46.6098C73.2656 46.721 73.0657 46.7581 73.0213 46.8693C72.7622 47.4772 72.5253 48.0926 72.281 48.7079C72.1152 49.028 72.0667 49.396 72.1438 49.7482C72.2209 50.1003 72.4187 50.4143 72.7029 50.6355C73.3248 51.1397 74.0429 51.5103 74.7979 50.9617C75.553 50.4131 76.3599 50.4131 77.0854 51.5252L77.4037 49.946C79.3358 50.0498 81.3938 49.0119 82.0453 47.5143C82.3266 46.9138 82.6449 46.4616 83.1261 46.5653V46.5357Z" fill="#B9B9B9"/>
<path d="M68.2612 57.0411C70.8842 57.6704 73.6207 57.65 76.234 56.9817C78.899 56.2404 80.7794 54.2535 83.089 52.83C83.0224 53.6752 79.9947 56.1662 78.4697 56.8557C75.0866 58.3829 71.6961 58.6498 68.2612 57.0411Z" fill="#B9B9B9"/>
<path d="M94.0674 36.8755C94.4185 37.3714 94.6391 37.9478 94.709 38.5516C94.7789 39.1555 94.6957 39.7672 94.4672 40.3303C93.1717 43.3329 90.825 45.4532 88.3451 47.4476C88.271 47.5143 88.1304 47.5143 87.8195 47.3734C88.0295 47.0851 88.2544 46.808 88.4931 46.5431C89.8478 45.1419 91.2692 43.8074 92.5572 42.3469C93.7417 41.005 94.5116 39.4555 93.9934 37.5501C93.9885 37.323 94.0134 37.0962 94.0674 36.8755V36.8755Z" fill="#B9B9B9"/>
<path d="M91.0175 34.8589C86.102 34.1176 82.3562 36.4826 78.7288 39.4407C78.9287 38.4843 82.4302 35.6745 84.2365 35.1629C86.4425 34.5476 88.7004 33.6282 91.0175 34.8589Z" fill="#B9B9B9"/>
<path d="M64.6413 54.4462C63.7677 53.7938 63.5604 52.867 63.901 51.5548C64.3974 50.0681 65.2546 48.7281 66.3957 47.6552C67.163 46.8172 68.0395 46.0866 69.0015 45.4829C67.9651 46.6988 66.9213 47.9146 65.8923 49.1305C65.3733 49.657 64.9726 50.2886 64.7172 50.983C64.4619 51.6773 64.3577 52.4182 64.4118 53.1562C64.4657 53.5899 64.5423 54.0205 64.6413 54.4462Z" fill="#B9B9B9"/>
<path d="M85.5023 53.7642C85.7308 55.0129 86.4274 56.1268 87.4493 56.878C87.7824 57.1078 88.1896 57.2486 88.5301 57.4562C88.6513 57.5543 88.7606 57.6663 88.8558 57.7898C88.7291 57.8905 88.5955 57.9821 88.4561 58.0642C88.3894 58.1012 88.2858 58.0642 88.197 58.0642C86.783 57.953 84.9471 55.4693 85.2358 54.1126C85.3047 53.9824 85.3948 53.8647 85.5023 53.7642V53.7642Z" fill="#B9B9B9"/>
<path d="M87.7084 52.9338C88.8336 52.7188 89.7664 53.3119 90.4326 54.6241C90.6143 54.9133 90.6907 55.2564 90.6488 55.5955C90.607 55.9346 90.4496 56.2488 90.2031 56.485C89.9814 55.7481 89.681 55.0372 89.3074 54.3647C88.8321 53.8267 88.2954 53.3465 87.7084 52.9338V52.9338Z" fill="#B9B9B9"/>
<path d="M87.4123 54.1942L87.6048 54.7724C87.8713 54.6019 88.1822 54.2979 88.2932 54.3573C88.5968 54.5278 89.0335 54.8985 89.0335 55.0986C88.9669 55.4397 88.5745 55.929 88.2932 55.9438C88.0725 55.9377 87.8556 55.885 87.6566 55.7892C87.4576 55.6934 87.281 55.5566 87.1384 55.3878C87.0566 55.2991 86.9977 55.1918 86.9667 55.0752C86.9357 54.9586 86.9336 54.8361 86.9606 54.7185C86.9876 54.6009 87.0428 54.4916 87.1216 54.4003C87.2003 54.3089 87.3001 54.2381 87.4123 54.1942Z" fill="#B9B9B9"/>
<path d="M71.4963 38.6177C71.4223 40.4564 72.8288 40.8789 74.1021 41.4424C73.6614 41.5645 73.1939 41.5474 72.7633 41.3935C72.3327 41.2396 71.96 40.9563 71.6962 40.5824C71.414 40.3455 71.2352 40.0076 71.1978 39.6407C71.1605 39.2738 71.2676 38.9068 71.4963 38.6177V38.6177Z" fill="#B9B9B9"/>
<path d="M76.086 39.6112C75.627 38.5732 75.1902 37.5427 73.7985 37.4908C75.1088 36.8755 76.3377 38.0172 76.086 39.6112Z" fill="#B9B9B9"/>
<path d="M73.0657 38.6177L73.8059 39.4407L73.9836 39.3517L73.9392 38.6919L74.1687 38.5732C74.2945 38.8327 74.5906 39.1738 74.5166 39.3517C74.4426 39.5296 73.9762 39.8929 73.7763 39.841C73.2211 39.7001 72.7844 39.3443 73.0657 38.6177Z" fill="#B9B9B9"/>
<path d="M83.126 46.5653C82.6449 46.4615 82.3858 46.9063 82.0748 47.5439C81.4234 49.0267 79.3654 50.0795 77.4333 49.9757L77.1446 51.5548C76.4043 50.4427 75.7232 50.3686 74.8571 50.9913C73.991 51.6141 73.3766 51.1693 72.7621 50.6651C72.4779 50.4439 72.28 50.1299 72.203 49.7778C72.1259 49.4256 72.1744 49.0576 72.3402 48.7376C72.5771 48.1222 72.8139 47.5069 73.0804 46.8989C73.1249 46.7877 73.3247 46.7507 73.4062 46.6395C73.8418 46.1584 74.2013 45.6133 74.4722 45.0232C74.5624 44.5457 74.7955 44.107 75.1406 43.7654C75.4857 43.4237 75.9265 43.1953 76.4043 43.1105C76.9003 43.0215 77.3963 42.977 77.8849 42.8658C78.2254 42.7917 78.7288 42.7472 78.8546 42.5174C79.3432 41.6203 80.3352 41.5239 81.0755 41.0939C81.446 40.8438 81.8738 40.6916 82.3188 40.6515C82.7639 40.6113 83.2119 40.6845 83.6211 40.8643C84.0304 41.0441 84.3876 41.3245 84.6595 41.6797C84.9315 42.0348 85.1094 42.453 85.1766 42.8955C85.3987 43.8296 84.7546 44.3782 84.1846 45.0232C83.7908 45.5078 83.4368 46.0235 83.126 46.5653ZM78.8176 48.2334C79.1502 48.4649 79.5605 48.5558 79.9596 48.4864C80.3587 48.417 80.7144 48.1929 80.9496 47.8627C81.2235 47.4772 81.6085 47.025 81.0088 46.3281C80.9653 46.8697 80.7114 47.3726 80.3017 47.7288C79.892 48.0851 79.3592 48.2662 78.8176 48.2334V48.2334ZM75.8195 48.9377C75.1162 48.7005 74.0502 49.086 74.45 47.6774C73.8355 48.1519 73.6282 48.5448 73.991 48.9896C74.4648 49.5753 75.0348 49.5234 75.8195 48.9377V48.9377ZM82.6745 44.356C83.2741 43.6888 83.2815 43.2513 82.7707 42.7917C82.3858 42.4358 82.0304 42.4136 81.527 43.066C82.6967 42.9029 82.5264 43.6888 82.6745 44.356V44.356ZM76.2192 45.1419L78.1291 44.0076L78.0329 43.7258C77.5233 43.8139 77.0262 43.9633 76.5523 44.1707C76.4043 44.2967 76.3525 44.7489 76.2192 45.1419V45.1419Z" fill="white"/>
<path d="M78.8176 48.2335C79.3641 48.2744 79.9046 48.0969 80.3207 47.7399C80.7369 47.3828 80.995 46.8752 81.0385 46.3281C81.6381 47.025 81.2531 47.4773 80.9792 47.8628C80.8626 48.0304 80.7138 48.1732 80.5415 48.2828C80.3693 48.3923 80.177 48.4665 79.9759 48.501C79.7747 48.5355 79.5688 48.5296 79.3699 48.4837C79.1711 48.4378 78.9834 48.3527 78.8176 48.2335V48.2335Z" fill="#B9B9B9"/>
<path d="M75.8195 48.9378C75.0348 49.5235 74.4648 49.5754 73.991 48.9897C73.6283 48.5448 73.8356 48.1519 74.45 47.6774C74.0502 49.086 75.1162 48.7005 75.8195 48.9378Z" fill="#B9B9B9"/>
<path d="M82.6745 44.3561C82.5264 43.6888 82.6745 42.8733 81.527 43.0661C82.0304 42.4136 82.3858 42.4359 82.7707 42.7917C83.2815 43.2514 83.2741 43.6888 82.6745 44.3561Z" fill="#B9B9B9"/>
<path d="M76.2192 45.1419C76.3525 44.7489 76.3747 44.2967 76.5894 44.1707C77.0632 43.9633 77.5603 43.8139 78.0699 43.7258L78.1662 44.0076L76.2192 45.1419Z" fill="#B9B9B9"/>
</g>
<defs>
<clipPath id="clip0_411_2">
<rect width="107" height="86" fill="white" transform="translate(12 18)"/>
</clipPath>
</defs>
</svg>
