<svg width="125" height="29" viewBox="0 0 125 29" fill="none" xmlns="http://www.w3.org/2000/svg">
<path d="M6.96387 12.1201L83.2704 4.15357C87.9055 3.66966 92.0553 7.03485 92.5392 11.6699V11.6699C93.0231 16.305 89.6579 20.4548 85.0228 20.9387L8.71626 28.9052L9.40761 27.8112C12.3894 23.0928 11.7242 16.9415 7.80261 12.9696L6.96387 12.1201Z" fill="url(#paint0_linear_325_181)"/>
<path d="M81.4059 7.97238L79.7974 5.01614L114.684 1.37388C119.045 0.918643 122.949 4.08443 123.404 8.44485C123.859 12.8053 120.693 16.7091 116.333 17.1644L81.4417 20.8071L82.422 17.4594C83.351 14.2871 82.9857 10.876 81.4059 7.97238Z" fill="url(#paint1_linear_325_181)" stroke="#0D99FF"/>
<ellipse cx="7.5" cy="20.2529" rx="7.5" ry="8.5" fill="#0D99FF"/>
<defs>
<linearGradient id="paint0_linear_325_181" x1="49.3134" y1="7.69875" x2="51.0658" y2="24.4838" gradientUnits="userSpaceOnUse">
<stop stop-color="white"/>
<stop offset="1" stop-color="#DDD8D1"/>
</linearGradient>
<linearGradient id="paint1_linear_325_181" x1="101.013" y1="2.29853" x2="102.765" y2="19.0836" gradientUnits="userSpaceOnUse">
<stop offset="0.348958" stop-color="#0D99FF"/>
<stop offset="0.9999" stop-color="#B3DEFE"/>
</linearGradient>
</defs>
</svg>
