<svg width="100" height="84" viewBox="0 0 100 84" fill="none" xmlns="http://www.w3.org/2000/svg">
<path fill-rule="evenodd" clip-rule="evenodd" d="M1.00844 67.9547C1.62169 67.0117 2.64434 66.1505 4.04913 66.0406C4.08735 66.0378 4.14115 66.0327 4.2098 66.0274C5.46749 65.9277 11.6548 65.4345 17.8791 65.0466L19.0831 64.9739C23.3243 64.7201 28.2395 64.427 33.5059 64.1148C54.2739 62.8844 80.5052 61.3282 92.4068 60.4647L92.4103 60.4647C95.2727 60.2641 97.1606 62.3334 98.1795 64.5273C99.2193 66.7691 99.6543 69.6648 99.4984 72.4475C99.3427 75.2231 98.5864 78.1326 96.9923 80.3149C95.3377 82.5821 92.7914 84.0149 89.4423 83.6085L17.822 77.354L4.90028 76.4246C3.32015 76.3051 2.0513 75.6387 1.2057 74.5795C0.388674 73.5591 0.0763387 72.3163 0.0790669 71.182C0.0806377 70.0544 0.393706 68.8945 1.00761 67.9548L1.00844 67.9547ZM85.2926 64.5015C71.8605 65.3878 51.0133 66.6253 33.8697 67.6422C37.0946 68.6467 40.2705 69.8899 43.4424 71.1666C43.9675 71.3776 44.4905 71.5896 45.0156 71.8024C50.623 74.0666 56.2702 76.3492 62.3482 77.6883L89.8134 80.0853L89.8456 80.0899C90.1878 80.1332 90.5126 80.1446 90.819 80.1271C90.3924 79.5751 90.4649 78.7788 90.9996 78.3149L95.7288 74.2032C95.8095 73.7697 95.8733 73.3234 95.9149 72.8677L89.0824 78.8084C88.5288 79.2895 87.6903 79.2296 87.2078 78.6767C86.7267 78.1232 86.7862 77.284 87.3401 76.8036L95.8676 69.3888C95.824 69.0362 95.7687 68.6919 95.7027 68.36L86.7583 76.1355C86.2044 76.6159 85.3652 76.5564 84.8848 76.0025C84.4037 75.4489 84.4622 74.6111 85.0157 74.13L94.3728 65.9958C94.509 65.8766 94.6662 65.7894 94.8293 65.7362C94.6159 65.3239 94.3982 64.9982 94.1786 64.7464C94.1068 64.9653 93.9764 65.167 93.7909 65.3278L85.7721 72.2992C85.2165 72.7814 84.3787 72.7229 83.8976 72.1694C83.4165 71.6158 83.4739 70.7759 84.0274 70.2948L91.1481 64.1046L90.8951 64.1233C90.6856 64.1375 90.4765 64.1524 90.266 64.1662L89.6818 64.2075L86.1212 67.3032C85.5676 67.7843 84.727 67.7255 84.2466 67.1716C83.7655 66.6181 83.8236 65.7795 84.3786 65.2977L85.2926 64.5015ZM18.4543 68.5595C17.942 69.1251 17.6167 69.9462 17.5541 70.9162C17.4888 71.9491 17.7369 73.0007 18.247 73.8357L49.9159 76.6006C47.9326 75.8473 45.9941 75.0634 44.0858 74.291C43.5388 74.0696 42.9929 73.8485 42.4498 73.6313C36.1759 71.1062 30.2243 68.8631 24.0493 68.2251L18.4543 68.5595ZM52.1254 3.80774C57.3099 1.31078 61.2128 0.416162 64.1512 0.533926C67.203 0.655252 69.2159 1.88233 70.3439 3.46637C71.2608 4.75297 71.8063 6.05357 71.9765 7.37104C72.1477 8.69239 71.928 9.92296 71.4749 11.0429C70.6061 13.2005 68.8352 15.0276 67.2425 16.5414C66.8303 16.9316 66.431 17.3015 66.0495 17.6573C64.8343 18.7822 63.7865 19.7542 63.0367 20.7488C62.1073 21.978 62.0286 22.7219 62.378 23.4383C62.7086 24.1162 63.1123 24.4911 63.558 24.7268C64.0353 24.9786 64.676 25.1271 65.5431 25.1519C66.9869 25.192 68.6372 24.8981 70.5765 24.5531C71.099 24.4592 71.6427 24.3621 72.2073 24.2679C74.7172 23.846 77.6014 23.4817 80.2875 24.1298C83.1142 24.8104 85.581 26.571 87.2634 30.0204C88.5776 32.715 88.4384 35.2936 87.631 37.6385C86.8516 39.902 85.4263 42.01 84.134 43.8603C84.0053 44.0454 83.8783 44.2252 83.7528 44.4043C82.5545 46.1138 81.5147 47.5965 80.885 49.0411C80.2273 50.5477 80.1352 51.7459 80.6878 52.8987C80.7457 53.0138 80.7919 53.1356 80.8243 53.2597L80.8335 53.2983C80.8827 53.5074 80.8933 53.7204 80.8665 53.927L80.8485 54.0361C80.8026 54.281 80.7037 54.5184 80.5527 54.7301C80.4491 54.873 80.3251 55.003 80.1777 55.1136L80.1157 55.1597C79.954 55.2719 79.7771 55.3547 79.5938 55.4063L79.5545 55.4158C79.3176 55.4785 79.0746 55.4889 78.8391 55.4515L78.6951 55.4232C78.5173 55.3815 78.3455 55.3123 78.1873 55.2135L78.1195 55.1718C78.0078 55.0961 77.9036 55.007 77.8084 54.9057C76.111 53.1587 75.3687 51.3789 75.5086 49.523C75.6373 47.8029 76.5198 46.3205 77.2404 45.1791C77.3248 45.0456 77.4085 44.9141 77.4893 44.7859C78.9666 42.4529 79.8446 41.0694 78.8578 39.0463C78.7376 38.7997 78.5259 38.5713 77.8453 38.4529C77.091 38.3203 76.0006 38.3788 74.5316 38.6405C73.0882 38.8967 71.4437 39.3144 69.6275 39.7965C69.3641 39.866 69.0985 39.9366 68.8283 40.0085C67.262 40.4241 65.5968 40.8677 63.9202 41.2482C60.0406 42.1297 55.7855 42.7623 52.0818 41.8673C50.1903 41.4105 48.4152 40.5504 46.9195 39.1123C45.4245 37.6758 44.2922 35.7455 43.5598 33.279C42.5844 29.9985 43.6208 27.0933 45.3607 24.6366C47.064 22.2312 49.5762 20.0647 51.9338 18.1187C52.3046 17.813 52.671 17.5128 53.0308 17.2169C55.0473 15.5657 56.8762 14.0685 58.2158 12.5732C59.8189 10.7885 60.2787 9.49285 60.0168 8.39864C59.7376 7.23643 57.5038 5.12557 53.4305 7.11226C52.5522 7.54065 51.4908 7.17516 51.0624 6.29683C50.6399 5.43058 50.9875 4.39017 51.8366 3.94877L52.1254 3.80774ZM15.3103 68.762C10.1562 69.1065 5.55608 69.472 4.48788 69.5577C4.42029 69.5634 4.36543 69.5681 4.3258 69.5716C4.31801 69.5719 4.17399 69.5832 3.97332 69.8878C3.77151 70.2009 3.62079 70.6764 3.61926 71.1891C3.61952 71.7001 3.76227 72.1046 3.9715 72.3676C4.15104 72.5915 4.4771 72.8397 5.16539 72.8928L15.2526 73.6177C14.9563 72.6785 14.842 71.6918 14.9032 70.748C14.9462 70.0804 15.0781 69.4057 15.3104 68.7619L15.3103 68.762ZM61.3032 4.29927C62.3634 4.10499 63.2572 4.04379 64.0094 4.07454C66.1093 4.15785 67.0455 4.94254 67.4595 5.5209C68.1051 6.4279 68.3822 7.18909 68.4647 7.82712C68.5462 8.45946 68.4513 9.07661 68.1914 9.71973C67.6412 11.0877 66.4096 12.4493 64.8041 13.9731C64.4864 14.2758 64.1509 14.5855 63.8062 14.9049C62.5433 16.0724 61.1701 17.3456 60.2113 18.6155C60.0218 18.8654 59.8399 19.1274 59.6714 19.4005C58.2924 20.6818 56.9497 22.0897 55.9455 23.5587C54.4402 25.7549 53.4789 28.4229 54.7786 31.0877C55.4742 32.5139 56.4574 33.536 57.6676 34.2028C58.8588 34.8595 60.1955 35.1312 61.5528 35.1924C64.0873 35.3065 66.9976 34.6884 69.7165 34.1092C69.8579 34.0798 69.9978 34.0511 70.1364 34.0214C73.0836 33.3976 75.797 32.8598 78.0706 33.0501C79.1803 33.1431 80.1169 33.4076 80.8898 33.876C81.6494 34.3351 82.3196 35.0348 82.8474 36.117C83.3257 37.0976 83.3736 38.0164 83.114 38.9541C82.9892 39.1672 82.8598 39.3816 82.7258 39.5974C82.6154 38.9255 82.3974 38.2243 82.0418 37.4952C81.2887 35.9511 79.9115 35.2196 78.4575 34.9656C77.0783 34.7243 75.492 34.8735 73.9121 35.1531C72.3057 35.4396 70.5282 35.8949 68.722 36.3738C68.4515 36.4451 68.1792 36.5163 67.9073 36.59C66.3389 37.0066 64.7428 37.4297 63.1359 37.7965C59.3147 38.6644 55.7595 39.114 52.9137 38.4269C51.5305 38.0925 50.3472 37.4953 49.3719 36.56C48.396 35.6214 47.546 34.2609 46.9539 32.2714C46.3961 30.3882 46.8903 28.606 48.2511 26.6871C49.6471 24.7157 51.804 22.8201 54.1883 20.8531C54.5313 20.5698 54.8792 20.2857 55.23 19.9985C57.2326 18.3602 59.3131 16.6576 60.852 14.9412C62.6425 12.949 64.1497 10.4519 63.4606 7.57626C63.1475 6.26343 62.3814 5.13274 61.303 4.29965L61.3032 4.29927ZM58.8501 24.107C58.9349 24.3981 59.0491 24.6935 59.195 24.9926C59.8348 26.3044 60.7554 27.2541 61.9064 27.8609C63.0239 28.4515 64.2524 28.6598 65.4447 28.6931C67.2907 28.7445 69.4196 28.3624 71.4019 28.0061C71.8765 27.9206 72.3441 27.8369 72.7957 27.7617C75.2938 27.3412 77.5387 27.1119 79.4591 27.574C81.2363 28.0021 82.851 29.0548 84.08 31.5746C84.4838 32.4025 84.6757 33.2035 84.6996 34.0011C84.0386 32.9723 83.2194 32.1817 82.2657 31.6044C81.0495 30.8675 79.6862 30.5216 78.2931 30.4032C75.5575 30.1725 72.4433 30.8161 69.5859 31.4216C69.5001 31.4406 69.4162 31.4578 69.3322 31.475C66.4641 32.0839 63.8569 32.6359 61.6734 32.538C60.5766 32.488 59.6753 32.2757 58.9501 31.8764C58.2442 31.488 57.6349 30.8843 57.166 29.9229C56.4929 28.5429 56.837 26.9578 58.1373 25.0587C58.3547 24.7398 58.5919 24.4236 58.85 24.1068L58.8501 24.107Z" fill="#0D99FF"/>
</svg>
