<svg width="111" height="52" viewBox="0 0 111 52" fill="none" xmlns="http://www.w3.org/2000/svg">
<path d="M108.795 26.1695C108.607 25.874 108.394 25.5921 108.238 25.2801C107.217 23.2621 105.678 22.4089 103.449 22.7032C101.765 22.9254 100.098 23.3035 98.4072 23.4422C95.458 23.6843 92.5331 23.4577 89.6469 22.6469C86.1595 21.6684 82.5921 21.1401 78.9991 20.7054C76.891 20.4498 74.8268 19.8074 72.7399 19.3449C59.5455 16.4209 46.2192 14.478 32.7429 13.7313C27.3914 13.435 22.0261 13.4334 16.6657 13.2773C16.0908 13.2602 15.5129 13.1403 14.9469 13.0147C13.2858 12.6441 11.6281 12.2519 9.97233 11.8575C9.7118 11.7962 9.4616 11.6852 9.2079 11.5957C8.24999 11.7113 7.29208 11.8268 6.33209 11.9427C6.15419 12.1032 5.99769 12.297 5.7952 12.4163C3.4276 13.8062 2.74392 15.5788 3.63813 18.2105C3.91778 19.0344 4.31542 19.821 4.65435 20.6125C2.83248 22.278 2.19072 23.348 2.02338 25.033C1.97898 25.4788 1.97743 25.9278 1.95446 26.3752C2.0749 27.2774 2.19535 28.1796 2.31579 29.0817C2.3905 29.2919 2.4673 29.5018 2.53993 29.7122C3.08478 31.3155 3.48755 32.9822 4.20831 34.5053C5.1719 36.5449 5.58678 38.6359 5.42355 40.8282C5.29863 42.5292 6.00243 43.8141 7.33808 44.7171C8.31704 45.3787 9.42827 45.8874 10.5398 46.3032C12.0599 46.8722 13.6329 47.2977 15.1937 47.7584C15.6286 47.8872 16.0888 47.9349 16.5417 47.992C17.9496 48.1656 19.1566 47.5963 20.3575 46.9183C20.4896 47.1615 20.6005 47.3568 20.7051 47.5528C21.7109 49.4313 23.4021 50.0596 25.3248 49.1491C26.2284 48.7218 27.0266 48.0776 27.8827 47.5486C28.153 47.3811 28.4457 47.2067 28.7536 47.1464C30.9919 46.7098 33.2366 46.2894 35.4859 45.9041C35.7535 45.8592 36.1299 45.9782 36.3485 46.1541C37.1613 46.8104 38.0354 47.0674 39.0531 46.8119C40.4054 46.4738 41.7666 46.1705 43.1149 45.8181C52.6715 43.3183 62.2241 40.8043 71.7833 38.3085C72.7814 38.049 73.8068 37.6766 74.8156 37.7044C77.7913 37.7879 80.6914 37.4633 83.5649 36.7499C85.2378 36.3352 86.8049 35.6361 88.6519 35.7314C94.3549 36.0232 99.8052 34.7397 105.1 32.8194C106.907 32.1652 108.431 31.1004 108.952 29.0777C108.973 28.9972 109.089 28.9411 109.16 28.8735C109.036 27.9739 108.916 27.0717 108.795 26.1695ZM9.48257 40.703C9.24536 40.5146 8.77849 40.2738 8.80626 40.1482C8.97872 39.3751 8.24481 39.2466 7.93374 38.8226C8.09486 39.6482 8.25806 40.4736 8.42514 41.328C8.4314 41.3272 8.58959 41.3208 8.74805 41.3164C8.56408 41.6062 8.28826 41.7322 8.09684 41.9345C7.96111 42.0773 7.90057 42.3227 7.88152 42.5294C7.87479 42.6061 8.06807 42.7514 8.19103 42.7829C8.56283 42.8834 8.94606 42.9426 9.36656 43.0267C9.36908 43.0137 9.35666 42.8572 9.40711 42.7268C9.46982 42.5612 9.54912 42.3451 9.68466 42.2802C9.79237 42.2293 10.1181 42.3502 10.1331 42.4305C10.1618 42.5978 10.0743 42.8001 9.99278 42.968C9.88454 43.1897 9.73749 43.3908 9.65031 43.5319C9.12927 43.3778 8.61071 43.2738 8.13882 43.0589C7.90169 42.9506 7.62767 42.6612 7.59166 42.4232C7.49899 41.8085 7.5122 41.1768 7.51762 40.5503C7.53806 38.2255 7.18046 35.9758 6.1546 33.8511C4.89769 31.2505 4.29319 28.5017 4.23176 25.6431C4.2126 24.7372 4.374 23.8495 5.09384 23.1578C5.7087 24.0783 5.67408 24.0572 5.17601 24.9328C5.04356 25.1638 5.20245 25.5597 5.22674 25.8687C6.14554 25.1425 6.92208 24.5262 7.70072 23.9096C7.75981 23.9551 7.8171 24.003 7.87619 24.0486C7.76367 24.2223 7.59649 24.3837 7.55198 24.5745C7.50901 24.7609 7.55106 25.1394 7.62116 25.1562C8.34989 25.3254 8.62958 25.8796 8.82743 26.4879C8.9167 26.7595 9.0036 27.2674 8.90632 27.3171C8.61867 27.4656 8.2375 27.4378 8.01002 27.4653C7.78272 26.7952 7.63713 26.2606 7.40986 25.7654C7.35012 25.6357 7.03976 25.6141 6.84393 25.545C6.82112 25.7395 6.71203 25.9866 6.79374 26.1222C7.16743 26.7451 7.10032 27.0524 6.44668 27.3505C5.31767 27.8681 5.3054 27.9033 5.91682 28.9886C5.71573 29.0866 5.37081 29.1556 5.34596 29.2872C5.2802 29.6365 5.33713 30.0153 5.39783 30.3746C5.40199 30.4058 5.90194 30.4655 5.98993 30.3622C6.69247 29.5251 7.06284 29.472 7.90485 30.2197C8.10585 29.422 8.54592 29.5733 8.92876 30.0266C9.26364 30.4224 9.5111 30.8941 9.75509 31.3556C9.83138 31.4982 9.8419 31.7835 9.75016 31.8746C9.63587 31.9875 9.36497 32.0391 9.20321 31.987C8.97288 31.9136 8.77434 31.729 8.57188 31.5785C8.01651 31.1671 7.51628 31.3118 7.06248 31.7248C6.5672 32.1765 6.52169 33.0587 6.97232 33.6702C7.3401 34.1695 7.72692 33.8426 8.10864 33.668C8.20257 33.625 8.33444 33.6597 8.61226 33.6599C8.43012 33.9158 8.32416 34.0592 8.22292 34.2063C8.12016 34.3578 8.02003 34.5132 7.91962 34.6665C8.08916 34.7451 8.25869 34.8237 8.42614 34.9025C8.70179 35.0294 8.97563 35.1586 9.28981 35.3041C8.67497 35.6227 8.11559 35.8166 7.6827 36.1639C7.20388 36.5483 7.41659 37.1886 8.02283 37.2503C8.51514 37.3005 9.02158 37.2183 9.47888 37.1968C9.45561 37.6738 9.27894 38.3041 9.4319 38.8462C9.66981 39.6752 10.4922 39.3863 11.2027 39.387C11.0556 39.6513 10.9507 39.8347 10.86 39.9973C10.4975 39.8388 10.1888 39.7032 9.85296 39.5541C9.68493 39.9474 9.54477 40.2635 9.41769 40.5823C9.40514 40.6154 9.45101 40.6731 9.46601 40.7219C9.68809 40.6382 9.91255 40.5563 10.1568 40.4636C10.2231 40.5631 10.3281 40.7148 10.4895 40.9545C10.5748 40.704 10.6264 40.5503 10.6619 40.4511C11.2889 40.287 11.7935 40.4769 12.1537 41.0783C11.6192 41.5221 11.3906 42.0491 11.8977 42.6707C11.2411 43.1061 11.0799 43.0581 10.9252 42.4235C10.6502 41.285 10.2826 41.0406 9.12908 41.3273C9.2692 41.0744 9.37589 40.8887 9.48257 40.703ZM20.283 15.26C22.9468 15.358 25.6104 15.4707 28.2735 15.5476C36.3072 15.7773 43.9554 17.8048 51.4121 20.6856C54.3658 21.8275 56.889 23.525 58.7115 26.2322C61.1742 29.8906 64.4622 32.6633 68.4709 34.5756C69.1866 34.9171 69.8712 35.3276 70.5708 35.7068C65.068 35.3424 60.8175 32.4287 56.6837 28.8329C59.3244 33.73 63.6172 35.8483 68.5826 37.0004C68.1877 37.1871 67.8525 37.2971 67.51 37.3848C57.943 39.8542 48.3752 42.3174 38.8092 44.7951C38.2127 44.9492 37.9615 44.7667 37.7358 44.2039C36.5363 41.2234 35.4835 38.1662 34.0228 35.31C29.0192 25.5329 21.5032 18.5541 10.7216 15.4528C9.63018 15.1399 8.42024 15.1784 7.2686 15.193C6.93625 15.1973 6.39993 15.6434 6.33113 15.9699C6.13953 16.8697 6.71391 17.5823 7.17727 18.2892C7.50844 16.6877 8.43361 16.2157 9.88664 16.9655C8.69805 17.7517 7.53284 18.5224 6.20577 19.399C5.90329 18.3881 5.59112 17.5112 5.38428 16.6131C5.19063 15.7662 5.53542 15.0291 6.25092 14.5909C6.81541 14.2446 7.48355 13.8963 8.12101 13.8742C9.22285 13.8361 10.3572 13.9458 11.4435 14.1729C16.3565 15.2028 20.8552 17.3068 25.2228 19.7153C29.7276 22.1979 34.0429 24.9457 37.4933 28.8389C37.5083 28.8561 37.5594 28.8415 37.6696 28.8408C33.4012 22.3468 27.135 18.5194 20.283 15.26ZM46.1867 16.9665C46.3031 16.9651 46.3738 16.9545 46.4449 16.9628C53.4436 17.7789 60.4041 18.8651 67.3143 20.2735C68.2822 20.4707 69.2943 20.6183 70.1848 21.0145C71.9748 21.8101 73.7343 22.6957 75.4371 23.664C79.48 25.96 83.0073 28.8408 85.5009 32.8263C85.6947 33.1338 85.8492 33.4649 86.0547 33.8447C85.1284 34.1335 84.3193 34.4271 83.4909 34.6388C80.4616 35.4089 77.4337 36.0778 74.251 35.3807C68.6803 34.1584 64.1122 31.4074 60.6219 26.8657C57.9551 23.3943 54.5646 20.7751 50.6052 18.899C49.1694 18.2145 47.6904 17.6196 46.1867 16.9665ZM76.8479 22.8426C81.6027 23.6408 85.8064 25.6792 89.9277 27.9425C87.3911 25.684 84.3785 24.292 81.2797 22.9843C84.1998 23.477 87.073 24.1271 89.9472 24.7686C90.7384 24.945 91.531 25.1802 92.3332 25.2478C94.3087 25.4161 96.2902 25.4868 98.2656 25.6383C98.6706 25.6695 99.0997 25.8179 99.4571 26.0172C100.835 26.7887 102.162 27.6464 103.554 28.3846C104.547 28.9117 105.616 29.2948 106.762 29.7909C106.428 29.9618 106.221 30.0963 105.993 30.1829C104.506 30.7459 103.037 31.3699 101.517 31.8398C97.3526 33.1263 93.0878 33.839 88.6937 33.7413C88.2046 33.7307 87.7908 33.6816 87.4608 33.1946C85.5333 30.3526 83.1038 27.9588 80.4887 25.7477C79.3292 24.7665 78.1101 23.8472 76.8479 22.8426ZM29.2944 45.0665C30.2608 42.6318 30.2029 40.308 29.6747 37.9399C29.1508 35.5881 28.2808 33.3918 26.9903 31.3496C27.1468 32.0135 27.3764 32.6538 27.5629 33.3036C28.3536 36.0657 29.0012 38.8515 28.5898 41.7418C28.2316 44.2528 27.0116 46.1701 24.6111 47.2185C23.6992 47.6151 23.2071 47.5185 22.709 46.8853C22.0217 46.0094 21.9397 45.2206 22.4301 44.5103C22.8015 43.9723 23.1629 43.4229 23.4836 42.8553C24.5835 40.9124 25.3009 38.8048 25.1099 36.5794C24.6921 31.7028 23.4051 27.0343 21.0208 22.6922C20.9061 22.4847 20.8154 22.266 20.7128 22.0529C28.4452 27.444 32.8726 35.0652 36.0188 43.7325C33.744 44.1819 31.5955 44.6076 29.2944 45.0665ZM106.961 29.0293C104.672 27.9609 102.46 26.9403 100.668 25.1145C105.003 23.563 107.124 25.1679 106.961 29.0293ZM8.8872 23.1553C9.64577 23.4367 9.63969 24.0107 9.44572 24.4956C9.32351 24.8033 8.89852 24.9873 8.50488 25.3109C8.40908 24.5933 8.34595 24.1204 8.27424 23.5833C8.44126 23.4683 8.66409 23.3107 8.8872 23.1553ZM16.596 33.2929C16.5463 33.3495 16.4963 33.404 16.4445 33.4608C15.8219 33.1651 15.1971 32.8695 14.45 32.515C14.5153 32.21 14.6013 31.8056 14.7269 31.2214C15.4558 32.027 16.0259 32.66 16.596 33.2929ZM9.21268 26.2286C9.68137 26.2289 10.1293 26.1369 10.5008 26.267C10.7212 26.3458 10.8578 26.7655 10.9496 27.0558C10.9857 27.1673 10.8194 27.4466 10.6967 27.4804C10.3405 27.5761 9.38938 26.8373 9.21268 26.2286ZM12.6977 40.1022C12.2627 39.6553 11.8819 39.265 11.4422 38.8144C11.5645 38.6184 11.727 38.3586 11.8895 38.0987C11.9568 38.0948 12.026 38.0886 12.0933 38.0847C11.9399 38.8576 13.5354 38.9433 12.6977 40.1022ZM11.2013 22.7622C11.5797 22.4995 11.8369 22.1861 12.0223 22.2249C12.2686 22.2752 12.5673 22.5742 12.6342 22.8212C12.6761 22.9763 12.2844 23.426 12.1728 23.3995C11.8763 23.3235 11.6271 23.0607 11.2013 22.7622ZM11.5493 25.6073C10.929 25.9962 10.3769 26.086 9.88194 25.6505C9.72107 25.5097 9.76472 25.1378 9.69539 24.7774C10.4193 25.1009 10.9383 25.3354 11.5493 25.6073ZM10.7029 32.1495C10.8971 32.6825 11.0521 33.1126 11.2401 33.6315C10.9715 33.5417 10.8341 33.4972 10.7741 33.477C10.5321 33.856 10.3167 34.196 10.101 34.5339C10.0111 34.4963 9.9189 34.4569 9.82905 34.4192C9.94181 34.1043 10.0483 33.7901 10.1658 33.4788C10.3007 33.1232 10.4474 32.7768 10.7029 32.1495ZM13.5097 25.6784C13.0928 25.891 12.7148 26.1094 12.3121 26.2697C12.2275 26.3031 12.0569 26.1214 11.9249 26.0383C12.0129 25.9665 12.1103 25.9021 12.1906 25.8208C12.4863 25.5259 12.777 25.2253 13.0926 24.9048C13.234 25.1701 13.3522 25.3877 13.5097 25.6784ZM6.13499 21.9026C6.33437 21.2358 6.78928 21.0376 7.69014 21.3525C7.41056 21.4979 7.17284 21.6552 6.91138 21.7457C6.64992 21.8363 6.36471 21.8602 6.13499 21.9026ZM11.8158 44.2969C11.8095 44.3609 11.8011 44.4251 11.7948 44.4891C11.3716 44.4011 10.9482 44.311 10.7019 44.2606C10.6292 43.8753 10.5844 43.651 10.5621 43.5315C10.9385 43.7621 11.3772 44.0295 11.8158 44.2969ZM13.1865 21.2562C13.2448 21.2007 13.3032 21.1452 13.3615 21.0897C13.5339 21.2691 13.8148 21.4354 13.8432 21.6321C13.8691 21.8102 13.6156 22.0242 13.4853 22.2232C13.4231 22.1865 13.3633 22.1515 13.3012 22.1148C13.2629 21.8286 13.2247 21.5424 13.1865 21.2562ZM8.969 28.692C9.2744 28.4381 9.40502 28.2411 9.53454 28.2423C9.74892 28.2438 9.96377 28.3759 10.1777 28.4534C10.0357 28.597 9.91563 28.8095 9.74295 28.8662C9.58641 28.9167 9.37502 28.7947 8.969 28.692ZM11.6744 33.8826C11.7967 33.8615 11.919 33.8404 12.0437 33.8212C12.0971 34.2214 12.1803 34.6223 12.1828 35.0224C12.183 35.1193 11.9161 35.2169 11.8577 35.2555C11.791 34.7557 11.7325 34.3181 11.6744 33.8826ZM16.324 38.3876C16.2921 38.2756 16.2623 38.1633 16.2303 38.0512C16.4819 37.966 16.7353 37.8786 16.9869 37.7934C17.0345 37.9436 17.0798 38.092 17.1274 38.2422C16.8604 38.2913 16.5913 38.3406 16.324 38.3876Z" fill="#0D99FF"/>
<path d="M21.1437 14.4969C28.004 17.8442 34.2799 21.7705 38.5606 28.4152C38.4501 28.4135 38.3991 28.4283 38.3843 28.4128C34.9218 24.4264 30.6015 21.6078 26.0905 19.06C21.717 16.5903 17.2129 14.4293 12.2971 13.3629C11.2122 13.1279 10.0773 13.0109 8.9738 13.0495C8.33641 13.0706 7.66918 13.4248 7.10559 13.7773C6.39123 14.2234 6.04833 14.9757 6.24417 15.8416C6.45361 16.7619 6.76775 17.6567 7.07283 18.6903C8.39762 17.7978 9.56083 17.0131 10.7474 16.2127C9.29244 15.4429 8.37058 15.9227 8.04145 17.5587C7.57627 16.8352 7.00007 16.1057 7.18935 15.1867C7.2573 14.8532 7.79274 14.4007 8.1248 14.3951C9.27639 14.3829 10.4859 14.3444 11.5785 14.669C22.3681 17.8665 29.8997 25.0142 34.9305 35.0169C36.3983 37.9369 37.4592 41.0656 38.6664 44.1141C38.8935 44.6898 39.1455 44.879 39.7414 44.7208C49.2987 42.2126 58.8618 39.7166 68.4226 37.2187C68.7648 37.13 69.1018 37.0181 69.4942 36.8285C64.528 35.6389 60.228 33.4662 57.5744 28.4536C61.7174 32.138 65.9754 35.1257 71.479 35.5115C70.7785 35.1223 70.0929 34.7012 69.3763 34.3505C65.3627 32.3866 62.0675 29.5453 59.5955 25.801C57.7663 23.0323 55.2385 21.2895 52.2818 20.1154C44.8175 17.1513 37.1625 15.0633 29.1304 14.8087C26.4718 14.7273 23.8077 14.6035 21.1437 14.4969Z" fill="white"/>
<path d="M46.3781 17.0753C47.8592 17.7351 49.3158 18.3363 50.7299 19.0253C54.63 20.9198 57.9723 23.5596 60.6045 27.0542C64.0498 31.6283 68.551 34.4033 74.0346 35.6424C77.1677 36.3502 80.1452 35.685 83.1238 34.9181C83.9404 34.7071 84.7337 34.4141 85.6443 34.126C85.4415 33.746 85.2887 33.4128 85.0971 33.1013C82.634 29.0906 79.1565 26.1875 75.1731 23.8709C73.4934 22.8942 71.7621 21.9999 69.9991 21.1964C69.122 20.7962 68.1258 20.6455 67.1731 20.4451C60.3711 19.016 53.5201 17.9084 46.6319 17.0701C46.5643 17.0634 46.4927 17.0742 46.3781 17.0753Z" fill="white"/>
<path d="M77.2051 23.2759C78.4485 24.2879 79.6493 25.2141 80.7939 26.2042C83.3704 28.4313 85.7649 30.8412 87.6671 33.7002C87.9928 34.1901 88.3993 34.2383 88.8805 34.2522C93.1979 34.3617 97.3904 33.6585 101.481 32.375C102.973 31.9069 104.415 31.284 105.876 30.7223C106.1 30.636 106.305 30.5011 106.63 30.3306C105.502 29.8295 104.45 29.44 103.473 28.9103C102.101 28.1657 100.794 27.299 99.4398 26.5225C99.0877 26.3195 98.6658 26.1714 98.2676 26.1391C96.3255 25.982 94.3755 25.9063 92.4352 25.732C91.6466 25.6621 90.8688 25.4237 90.0886 25.2448C87.2617 24.5933 84.4378 23.933 81.5641 23.4311C84.6133 24.7501 87.5765 26.1578 90.078 28.4321C86.0185 26.147 81.881 24.0893 77.2051 23.2759Z" fill="white"/>
<path d="M28.8342 45.6506C31.1408 45.1954 33.294 44.7691 35.5756 44.3169C32.443 35.7802 28.0268 28.2791 20.2955 22.979C20.3978 23.1888 20.4881 23.4043 20.6025 23.6085C22.9806 27.8857 24.2584 32.4849 24.6646 37.289C24.8505 39.4824 24.1245 41.5616 23.0199 43.479C22.6951 44.0395 22.3317 44.5818 21.9604 45.1126C21.4694 45.8136 21.5475 46.5912 22.2339 47.4532C22.7313 48.0763 23.2241 48.1704 24.1386 47.7775C26.5461 46.739 27.775 44.8461 28.138 42.3705C28.5576 39.5225 27.9158 36.7778 27.1301 34.0547C26.9447 33.4125 26.7186 32.7836 26.5614 32.1298C27.8471 34.1404 28.7153 36.3032 29.2343 38.6204C29.7561 40.958 29.8084 43.2485 28.8342 45.6506Z" fill="white"/>
<path d="M10.0802 39.8418C10.0608 39.7985 10.0126 39.7447 10.0266 39.7132C10.1703 39.4099 10.3235 39.1095 10.5101 38.7355C10.8671 38.8693 11.1953 38.9927 11.5812 39.1389C11.6811 38.9839 11.7963 38.8072 11.9585 38.5573C11.1973 38.5654 10.3119 38.8527 10.0711 38.0733C9.91443 37.5658 10.1163 36.9655 10.1492 36.5147C9.65684 36.5422 9.11554 36.6291 8.58885 36.5872C7.94033 36.5361 7.72331 35.9346 8.24288 35.5662C8.71237 35.2317 9.31475 35.0401 9.97862 34.7298C9.64459 34.5972 9.35124 34.4796 9.06039 34.3636C8.88014 34.2919 8.69989 34.2203 8.52188 34.1483C8.632 34.002 8.73962 33.854 8.85448 33.7091C8.96539 33.5687 9.08129 33.4316 9.28068 33.1872C8.98339 33.1931 8.84249 33.1604 8.74116 33.2024C8.32715 33.3733 7.90958 33.6877 7.52409 33.2217C7.05152 32.6489 7.11316 31.8173 7.65347 31.3829C8.14422 30.9862 8.68491 30.8437 9.27253 31.2219C9.48683 31.3609 9.69636 31.5324 9.94181 31.5982C10.1142 31.645 10.4074 31.5918 10.5295 31.4838C10.6271 31.3966 10.6206 31.1272 10.5435 30.9935C10.2903 30.5632 10.0329 30.1195 9.68093 29.7507C9.2788 29.3303 8.81003 29.1941 8.58105 29.9485C7.69184 29.2551 7.29427 29.3108 6.52771 30.1121C6.43173 30.211 5.89952 30.1618 5.89336 30.1328C5.83441 29.7943 5.77982 29.4374 5.85613 29.1065C5.88497 28.9818 6.25555 28.9114 6.47257 28.8158C5.83604 27.8 5.84976 27.7666 7.06769 27.2606C7.77053 26.9695 7.84984 26.6779 7.46012 26.0952C7.37489 25.9684 7.4984 25.7351 7.5236 25.5493C7.73244 25.6136 8.06422 25.6273 8.12601 25.749C8.36133 26.2152 8.50798 26.716 8.74012 27.3454C8.98422 27.3161 9.38975 27.3368 9.70258 27.1919C9.80761 27.1436 9.7231 26.6651 9.63207 26.4099C9.43042 25.8384 9.14022 25.3191 8.36258 25.1704C8.29028 25.1572 8.24914 24.7987 8.2983 24.622C8.34918 24.4411 8.53097 24.2861 8.65441 24.1204C8.59189 24.0782 8.53133 24.0339 8.46881 23.9917C7.62448 24.5859 6.78213 25.1777 5.78609 25.8795C5.76529 25.588 5.60205 25.2184 5.74755 24.9963C6.29575 24.1618 6.33222 24.1792 5.68947 23.3211C4.90659 23.9833 4.71901 24.8261 4.72426 25.6815C4.74409 28.3802 5.34292 30.9676 6.64525 33.4048C7.70815 35.3962 8.05544 37.5153 7.99211 39.7116C7.97549 40.3015 7.95293 40.8981 8.03983 41.4795C8.07439 41.7038 8.36299 41.9729 8.61513 42.0717C9.11441 42.2659 9.67029 42.3559 10.226 42.4956C10.3218 42.361 10.4826 42.1688 10.6023 41.9578C10.6924 41.798 10.792 41.6073 10.7616 41.4481C10.7469 41.3724 10.4001 41.2631 10.2839 41.3129C10.1376 41.3761 10.0491 41.5814 9.97909 41.7388C9.92287 41.8628 9.93353 42.0104 9.93062 42.0227C9.48167 41.9496 9.07419 41.8973 8.67571 41.8102C8.54428 41.7803 8.33972 41.646 8.34848 41.5755C8.37237 41.3799 8.44135 41.1472 8.58914 41.0103C8.79756 40.8164 9.09535 40.6951 9.29701 40.4167C9.12748 40.4251 8.9602 40.4333 8.95098 40.4325C8.78644 39.628 8.6278 38.8507 8.46692 38.0736C8.79294 38.4693 9.5768 38.5796 9.37906 39.3124C9.34747 39.4334 9.84343 39.6538 10.0941 39.8263C10.103 39.8252 10.0802 39.8418 10.0802 39.8418Z" fill="white"/>
<path d="M107.826 29.5182C108.054 25.1015 105.519 23.2847 100.289 25.0902C102.429 27.1642 105.082 28.3142 107.826 29.5182Z" fill="white"/>
<path d="M9.92096 41.1858C9.81269 41.2919 9.70442 41.3981 9.55592 41.5431C10.6375 41.333 10.9651 41.4501 11.1604 42.0564C11.2687 42.3952 11.4172 42.4136 12.0469 42.1457C11.6081 41.8309 11.8488 41.5328 12.3661 41.266C12.0642 40.9563 11.6072 40.8753 11.0189 40.9941C10.9828 41.0495 10.9252 41.1359 10.8334 41.2764C10.6946 41.1536 10.6072 41.0756 10.551 41.0245C10.3202 41.0853 10.1086 41.1415 9.90063 41.1962C9.90063 41.1962 9.92096 41.1858 9.92096 41.1858Z" fill="white"/>
<path d="M9.41231 24.304C9.14758 24.422 8.88303 24.5415 8.68513 24.6304C8.73294 24.9899 8.77503 25.3064 8.8389 25.7867C9.30892 25.5437 9.80847 25.3943 9.96539 25.1807C10.2152 24.8401 10.2608 24.4495 9.41231 24.304Z" fill="white"/>
<path d="M16.9685 33.0748C16.5308 32.3187 16.0935 31.565 15.5339 30.6C15.4809 31.2624 15.445 31.721 15.4175 32.0669C15.9625 32.5137 16.4182 32.8862 16.8724 33.2589C16.9053 33.1967 16.9367 33.1346 16.9685 33.0748Z" fill="white"/>
<path d="M9.02991 27.1614C9.19316 27.763 10.0352 28.5027 10.3453 28.4133C10.4521 28.3816 10.5937 28.1109 10.5602 27.9986C10.4758 27.7117 10.3503 27.2967 10.1565 27.2162C9.82984 27.0833 9.43781 27.1681 9.02991 27.1614Z" fill="white"/>
<path d="M11.3498 23.1955C11.7819 23.5537 12.0372 23.8691 12.3344 23.9593C12.449 23.9949 12.8276 23.4742 12.7822 23.2917C12.7098 23.0012 12.4047 22.6449 12.1575 22.5808C11.9714 22.5316 11.7216 22.8933 11.3498 23.1955Z" fill="white"/>
<path d="M11.6112 25.1995C11.1026 24.8772 10.6692 24.6039 10.0703 24.2228C10.1388 24.6216 10.1187 25.0265 10.2555 25.1891C10.6738 25.6852 11.1204 25.6056 11.6112 25.1995Z" fill="white"/>
<path d="M10.8648 32.5535C10.6484 33.308 10.5239 33.727 10.4119 34.1497C10.3113 34.5247 10.2234 34.9059 10.1309 35.2825C10.2167 35.3314 10.3047 35.3825 10.3905 35.4313C10.5804 35.0275 10.7702 34.6237 10.9829 34.1683C11.04 34.1948 11.1706 34.2537 11.4262 34.3721C11.2283 33.7346 11.0647 33.2062 10.8648 32.5535Z" fill="white"/>
<path d="M14.5799 26.0022C14.3315 25.6897 14.1447 25.4518 13.9185 25.167C13.3455 25.5507 12.8173 25.9102 12.281 26.2636C12.1348 26.3587 11.9648 26.4403 11.8029 26.5279C12.0245 26.6114 12.3084 26.8024 12.454 26.7589C13.1643 26.5464 13.8368 26.2727 14.5799 26.0022Z" fill="white"/>
<path d="M6.86722 21.8024C7.06408 21.739 7.31549 21.7382 7.5322 21.5738C7.7489 21.4094 7.93155 21.0862 8.15395 20.7977C7.28517 19.9108 6.91775 20.2909 6.86722 21.8024Z" fill="white"/>
<path d="M12.8369 44.7307C12.2942 44.3871 11.7515 44.0436 11.2858 43.7473C11.3139 43.9 11.3678 44.187 11.462 44.679C11.7666 44.7471 12.2893 44.8615 12.8119 44.976C12.8194 44.8943 12.8268 44.8126 12.8369 44.7307Z" fill="white"/>
</svg>
