<svg width="30" height="20" viewBox="0 0 30 20" fill="none" xmlns="http://www.w3.org/2000/svg">
<path d="M3.84615 12.3077C1.72198 12.3077 0 14.0297 0 16.1538C0 18.278 1.72198 20 3.84615 20H18.6262C20.7504 20 22.4724 18.278 22.4724 16.1538C22.4724 14.0297 20.7504 12.3077 18.6262 12.3077H3.84615ZM20.3819 16.1538C20.3819 17.1451 19.5784 17.9487 18.5871 17.9487H3.88533C2.89405 17.9487 2.09046 17.1451 2.09046 16.1538C2.09046 15.1626 2.89405 14.359 3.88533 14.359H18.5871C19.5784 14.359 20.3819 15.1626 20.3819 16.1538ZM24.0402 13.3529C24.0402 12.7757 24.5082 12.3077 25.0855 12.3077C25.6627 12.3077 26.1307 12.7757 26.1307 13.3529V18.9548C26.1307 19.532 25.6627 20 25.0855 20C24.5082 20 24.0402 19.532 24.0402 18.9548V13.3529ZM27.6985 13.3529C27.6985 12.7757 28.1665 12.3077 28.7438 12.3077C29.321 12.3077 29.789 12.7757 29.789 13.3529V18.9548C29.789 19.532 29.321 20 28.7438 20C28.1665 20 27.6985 19.532 27.6985 18.9548V13.3529ZM24.1335 8.03205C23.8829 7.66106 23.7622 7.22011 23.7895 6.77583C23.8169 6.33155 23.9908 5.90807 24.2851 5.56936C24.8934 4.87511 25.2465 4.0005 25.2877 3.08581C25.3289 2.17112 25.0559 1.26935 24.5124 0.525128C24.2722 0.195186 23.8888 0 23.4807 0H21.7751C21.7527 0 21.7309 0.00688474 21.7126 0.0197185C21.6627 0.0546665 21.6512 0.123713 21.6871 0.172941L22.8112 1.71731C23.0825 2.08866 23.2187 2.53863 23.1981 2.99505C23.1776 3.45146 23.0014 3.88788 22.6978 4.23429C22.1082 4.91313 21.7596 5.76181 21.7048 6.65218C21.65 7.54254 21.892 8.42622 22.3941 9.16974L22.4748 9.28845C22.6682 9.57315 22.9901 9.74359 23.3342 9.74359C24.1683 9.74359 24.6624 8.81043 24.1937 8.12058L24.1335 8.03205ZM28.8371 8.03205C28.5865 7.66106 28.4657 7.22011 28.493 6.77583C28.5204 6.33155 28.6943 5.90807 28.9886 5.56936C29.5969 4.87511 29.95 4.0005 29.9912 3.08581C30.0324 2.17112 29.7594 1.26935 29.2159 0.525128C28.9758 0.195186 28.5923 0 28.1843 0H26.4786C26.4563 0 26.4344 0.00688474 26.4161 0.0197185C26.3663 0.0546665 26.3548 0.123713 26.3906 0.172941L27.5148 1.71731C27.786 2.08866 27.9222 2.53863 27.9017 2.99505C27.8811 3.45146 27.7049 3.88788 27.4014 4.23429C26.8117 4.91313 26.4631 5.76181 26.4083 6.65218C26.3535 7.54254 26.5955 8.42622 27.0977 9.16974L27.1783 9.28845C27.3717 9.57315 27.6936 9.74359 28.0378 9.74359C28.8718 9.74359 29.3659 8.81044 28.8972 8.12058L28.8371 8.03205Z" fill="#0D99FF"/>
</svg>
