<svg width="42" height="60" viewBox="0 0 42 60" fill="none" xmlns="http://www.w3.org/2000/svg">
<path
    d="M8.17197 15.8541C7.38827 15.855 6.63693 16.1667 6.08277 16.7209C5.52862 17.275 5.2169 18.0264 5.21601 18.8101V19.8894H2.37321C1.74553 19.8903 1.14369 20.1394 0.699056 20.5825C0.254426 21.0255 0.00312218 21.6265 0 22.2542V32.1862C0 32.3681 0.0722522 32.5425 0.200862 32.6711C0.329471 32.7997 0.503902 32.872 0.685783 32.872H1.4746V38.1218C1.47612 39.1766 1.85365 40.1963 2.53938 40.9979C3.22511 41.7994 4.17413 42.3302 5.21601 42.4949V43.1283C5.2169 43.912 5.52862 44.6634 6.08277 45.2175C6.63693 45.7717 7.38827 46.0834 8.17197 46.0843H11.5907V52.4303H4.22787C3.59799 52.4312 2.99419 52.682 2.54895 53.1275C2.10371 53.5731 1.85341 54.177 1.85297 54.8069V56.9183C1.85386 57.5479 2.10436 58.1515 2.54955 58.5967C2.99473 59.0418 3.59828 59.2923 4.22787 59.2932H37.7721C38.4017 59.2923 39.0053 59.0418 39.4505 58.5967C39.8956 58.1515 40.1461 57.5479 40.147 56.9183V54.8069C40.1466 54.177 39.8963 53.5731 39.451 53.1275C39.0058 52.682 38.402 52.4312 37.7721 52.4303H30.4093V46.0843H33.828C34.6117 46.0834 35.3631 45.7717 35.9172 45.2175C36.4714 44.6634 36.7831 43.912 36.784 43.1283V42.4949C37.8257 42.3301 38.7745 41.7993 39.46 40.9977C40.1454 40.1962 40.5226 39.1765 40.5237 38.1218V32.872H41.3142C41.4961 32.872 41.6705 32.7997 41.7991 32.6711C41.9277 32.5425 42 32.3681 42 32.1862V22.2626C41.9969 21.635 41.7456 21.034 41.3009 20.591C40.8563 20.1479 40.2545 19.8987 39.6268 19.8979H36.784V18.8185C36.7831 18.0348 36.4714 17.2835 35.9172 16.7293C35.3631 16.1752 34.6117 15.8634 33.828 15.8625H26.5648V12.5248H29.9228C30.9833 12.5239 32.0002 12.1022 32.7501 11.3523C33.5 10.6024 33.9217 9.58555 33.9226 8.525V3.99985C33.9217 2.9393 33.5 1.92244 32.7501 1.17252C32.0002 0.422597 30.9833 0.000894601 29.9228 0H12.0755C11.0151 0.00134088 9.99852 0.423189 9.2487 1.17301C8.49887 1.92284 8.07703 2.93944 8.07569 3.99985V8.53006C8.07837 9.5896 8.5008 10.6049 9.25048 11.3536C10.0002 12.1024 11.016 12.5235 12.0755 12.5248H15.4403V15.849L8.17197 15.8541ZM35.4124 32.1862V39.2315H6.58757V23.016H35.4124V32.1862ZM1.37663 22.2626C1.37708 21.9973 1.48281 21.7429 1.67061 21.5554C1.8584 21.368 2.11292 21.2627 2.37828 21.2627H5.22107V31.4987H1.37663V22.2626ZM2.85293 38.1218V32.872H5.21769V41.098C4.5448 40.9421 3.94443 40.5632 3.51418 40.0228C3.08392 39.4825 2.84909 38.8125 2.84786 38.1218H2.85293ZM12.9674 46.0843H15.6835V52.4303H12.9623L12.9674 46.0843ZM24.9601 46.0843V52.4303H17.05V46.0843H24.9601ZM38.7856 54.8069V56.9183C38.783 57.1833 38.6766 57.4367 38.4894 57.6243C38.3022 57.8118 38.0489 57.9186 37.784 57.9217H4.22787C3.96259 57.919 3.70891 57.8125 3.52132 57.6249C3.33373 57.4373 3.22717 57.1836 3.22453 56.9183V54.8069C3.22717 54.5416 3.33373 54.288 3.52132 54.1004C3.70891 53.9128 3.96259 53.8062 4.22787 53.8036H37.7721C38.0379 53.804 38.2927 53.9099 38.4805 54.0981C38.6683 54.2862 38.7738 54.5411 38.7738 54.8069H38.7856ZM29.0478 52.4303H26.3216V46.0843H29.036L29.0478 52.4303ZM35.4243 43.1283C35.4238 43.5483 35.2567 43.9508 34.9596 44.2476C34.6625 44.5444 34.2598 44.711 33.8399 44.711H8.17197C7.75205 44.711 7.34931 44.5444 7.05223 44.2476C6.75514 43.9508 6.58802 43.5483 6.58757 43.1283V40.6048H35.4124V43.1283H35.4243ZM39.164 38.1218C39.163 38.8118 38.9289 39.4813 38.4996 40.0215C38.0704 40.5618 37.4711 40.9411 36.7992 41.098V32.872H39.164V38.1218ZM39.6386 21.2627C39.9037 21.2631 40.1578 21.3686 40.3452 21.556C40.5326 21.7435 40.6381 21.9976 40.6386 22.2626V31.4987H36.784V21.2627H39.6386ZM35.4124 18.8101V21.6461H6.58757V18.8101C6.58802 18.39 6.75509 17.9873 7.05212 17.6902C7.34916 17.3932 7.7519 17.2261 8.17197 17.2257H33.828C34.2481 17.2261 34.6508 17.3932 34.9479 17.6902C35.2449 17.9873 35.412 18.39 35.4124 18.8101ZM9.44894 8.53006V3.99985C9.45118 3.30423 9.72873 2.63779 10.2209 2.14623C10.7131 1.65467 11.3799 1.37797 12.0755 1.37664H29.9228C30.6196 1.37753 31.2876 1.65473 31.7803 2.14743C32.273 2.64014 32.5502 3.30812 32.5511 4.00491V8.53514C32.5488 9.23104 32.271 9.89774 31.7785 10.3893C31.2859 10.881 30.6187 11.1574 29.9228 11.1583H12.0755C11.379 11.157 10.7115 10.8796 10.2191 10.387C9.7268 9.8943 9.44984 9.22656 9.44894 8.53006ZM16.8135 12.5248H25.1932V15.849H16.8135V12.5248Z"
    fill="#C3C6DB"
  />
<path
    d="M15.4372 7.92523C16.3561 7.92523 17.101 7.18032 17.101 6.26144C17.101 5.34255 16.3561 4.59766 15.4372 4.59766C14.5183 4.59766 13.7734 5.34255 13.7734 6.26144C13.7734 7.18032 14.5183 7.92523 15.4372 7.92523Z"
    fill="#C3C6DB"
  />
<path
    d="M26.5661 7.92523C27.485 7.92523 28.2299 7.18032 28.2299 6.26144C28.2299 5.34255 27.485 4.59766 26.5661 4.59766C25.6472 4.59766 24.9023 5.34255 24.9023 6.26144C24.9023 7.18032 25.6472 7.92523 26.5661 7.92523Z"
    fill="#C3C6DB"
  />
<path
    d="M17.5605 32.3932L16.4402 35.7859H15L18.6647 25H20.3449L24.0255 35.7859H22.5371L21.3851 32.3932H17.5605ZM21.097 31.3051L20.0408 28.2005C19.8008 27.4965 19.6409 26.8565 19.4808 26.2324H19.4487C19.2888 26.8724 19.1127 27.5286 18.9047 28.1846L17.8484 31.3051H21.097Z"
    fill="#C3C6DB"
  />
<path d="M26.9984 25V35.7859H25.6055V25H26.9984Z" fill="#C3C6DB" />
</svg>
