<svg width="75" height="75" viewBox="0 0 75 75" fill="none" xmlns="http://www.w3.org/2000/svg">
<path d="M63.2812 14.0625H11.7188C10.4243 14.0625 9.375 15.1118 9.375 16.4062V58.5938C9.375 59.8882 10.4243 60.9375 11.7188 60.9375H63.2812C64.5757 60.9375 65.625 59.8882 65.625 58.5938V16.4062C65.625 15.1118 64.5757 14.0625 63.2812 14.0625Z" stroke="#C3C6DB" stroke-width="4" stroke-linecap="round" stroke-linejoin="round"/>
<path d="M9.375 49.2207L24.1113 34.4844C24.3294 34.2629 24.5894 34.0871 24.8761 33.967C25.1627 33.847 25.4704 33.7852 25.7812 33.7852C26.0921 33.7852 26.3998 33.847 26.6864 33.967C26.9731 34.0871 27.2331 34.2629 27.4512 34.4844L40.5176 47.5508C40.7357 47.7722 40.9956 47.9481 41.2823 48.0681C41.569 48.1882 41.8767 48.25 42.1875 48.25C42.4983 48.25 42.806 48.1882 43.0927 48.0681C43.3794 47.9481 43.6393 47.7722 43.8574 47.5508L49.8926 41.5156C50.1107 41.2942 50.3706 41.1183 50.6573 40.9983C50.944 40.8782 51.2517 40.8164 51.5625 40.8164C51.8733 40.8164 52.181 40.8782 52.4677 40.9983C52.7544 41.1183 53.0143 41.2942 53.2324 41.5156L65.625 53.9082" stroke="#C3C6DB" stroke-width="4" stroke-linecap="round" stroke-linejoin="round"/>
<path d="M45.7031 33.9844C48.292 33.9844 50.3906 31.8857 50.3906 29.2969C50.3906 26.708 48.292 24.6094 45.7031 24.6094C43.1143 24.6094 41.0156 26.708 41.0156 29.2969C41.0156 31.8857 43.1143 33.9844 45.7031 33.9844Z" fill="#C3C6DB"/>
</svg>
