<svg width="75" height="75" viewBox="0 0 75 75" fill="none" xmlns="http://www.w3.org/2000/svg">
<path d="M37.5004 0L5.02539 18.75V56.25L37.5004 75L69.9754 56.25V18.75L37.5004 0ZM34.1473 4.51562H34.1504C35.1178 5.22973 36.2886 5.61505 37.491 5.61505C38.6934 5.61505 39.8642 5.22973 40.8316 4.51562L64.3754 18.1094C64.3281 18.5278 64.3281 18.9503 64.3754 19.3687L40.8285 32.9625C39.8614 32.2491 38.6912 31.8642 37.4895 31.8642C36.2877 31.8642 35.1175 32.2491 34.1504 32.9625L10.6004 19.3687C10.6474 18.9513 10.6474 18.5299 10.6004 18.1125L34.1473 4.51562ZM66.6379 23.125C66.9785 23.375 67.3441 23.5844 67.7285 23.7531V50.9406C66.6261 51.4214 65.7069 52.2429 65.1056 53.2845C64.5044 54.3262 64.2528 55.5331 64.3879 56.7281L40.841 70.3219C40.502 70.0734 40.1361 69.8638 39.7504 69.6969L39.7223 42.6562C40.8247 42.1761 41.7442 41.3553 42.346 40.3143C42.9478 39.2733 43.2001 38.0668 43.066 36.8719L66.6379 23.125ZM8.36289 23.275L31.9098 36.8688C31.7747 38.0638 32.0263 39.2707 32.6275 40.3123C33.2287 41.3539 34.148 42.1754 35.2504 42.6562V69.8438C34.8629 70.0125 34.5004 70.225 34.1598 70.475L10.6129 56.8812C10.7479 55.6862 10.4964 54.4793 9.89514 53.4377C9.29391 52.3961 8.37465 51.5746 7.27226 51.0938V23.9062C7.6588 23.7364 8.02558 23.5247 8.36602 23.275H8.36289Z" fill="white"/>
</svg>
