<svg width="27" height="27" viewBox="0 0 27 27" fill="none" xmlns="http://www.w3.org/2000/svg">
<path d="M8.28843 9.19558H9.3654V7.1599C9.3654 6.01725 9.81927 4.92141 10.6272 4.11344C11.435 3.30547 12.5308 2.85156 13.6733 2.85156C14.8158 2.85156 15.9115 3.30547 16.7194 4.11344C17.5273 4.92141 17.9812 6.01725 17.9812 7.1599V9.19558H19.0581C19.915 9.19558 20.7368 9.53602 21.3427 10.142C21.9487 10.748 22.2891 11.5699 22.2891 12.4268V21.0435C22.2891 21.9005 21.9487 22.7224 21.3427 23.3283C20.7368 23.9343 19.915 24.2747 19.0581 24.2747H8.28843C7.43154 24.2747 6.60975 23.9343 6.00383 23.3283C5.39792 22.7224 5.05752 21.9005 5.05752 21.0435V12.4268C5.05752 11.5699 5.39792 10.748 6.00383 10.142C6.60975 9.53602 7.43154 9.19558 8.28843 9.19558ZM15.8272 7.1599C15.8417 6.5732 15.6232 6.00467 15.2195 5.57873C14.8158 5.1528 14.2599 4.90416 13.6733 4.88725C13.0867 4.90416 12.5308 5.1528 12.1271 5.57873C11.7234 6.00467 11.5049 6.5732 11.5193 7.1599V9.19558H15.8272V7.1599ZM7.21146 21.0435C7.21146 21.3292 7.32493 21.6031 7.5269 21.8051C7.72887 22.0071 8.0028 22.1206 8.28843 22.1206H19.0581C19.3438 22.1206 19.6177 22.0071 19.8197 21.8051C20.0217 21.6031 20.1351 21.3292 20.1351 21.0435V12.4268C20.1351 12.1412 20.0217 11.8672 19.8197 11.6652C19.6177 11.4632 19.3438 11.3498 19.0581 11.3498H8.28843C8.0028 11.3498 7.72887 11.4632 7.5269 11.6652C7.32493 11.8672 7.21146 12.1412 7.21146 12.4268V21.0435Z" fill="#6C757D"/>
<path d="M13.6753 13.5039C14.3143 13.5039 14.939 13.6934 15.4703 14.0485C16.0017 14.4035 16.4158 14.9082 16.6603 15.4986C16.9049 16.089 16.9688 16.7387 16.8442 17.3655C16.7195 17.9923 16.4118 18.5681 15.9599 19.02C15.5081 19.4719 14.9324 19.7796 14.3057 19.9043C13.6789 20.029 13.0293 19.965 12.4389 19.7204C11.8485 19.4759 11.3439 19.0617 10.9889 18.5303C10.6339 17.999 10.4444 17.3742 10.4444 16.7352C10.4444 15.8782 10.7848 15.0563 11.3907 14.4503C11.9966 13.8443 12.8184 13.5039 13.6753 13.5039ZM13.6753 17.8122C13.8883 17.8122 14.0966 17.7491 14.2737 17.6307C14.4508 17.5124 14.5888 17.3442 14.6703 17.1473C14.7518 16.9505 14.7732 16.734 14.7316 16.525C14.6901 16.3161 14.5875 16.1242 14.4369 15.9735C14.2862 15.8229 14.0944 15.7203 13.8854 15.6788C13.6765 15.6372 13.46 15.6585 13.2632 15.7401C13.0664 15.8216 12.8982 15.9596 12.7799 16.1368C12.6615 16.3139 12.5984 16.5221 12.5984 16.7352C12.5984 17.0208 12.7118 17.2948 12.9138 17.4968C13.1158 17.6988 13.3897 17.8122 13.6753 17.8122Z" fill="#6C757D"/>
</svg>
