<svg width="61" height="53" viewBox="0 0 61 53" fill="none" xmlns="http://www.w3.org/2000/svg">
<path d="M19.8762 0.25C20.8888 0.25 21.8825 0.52375 22.745 1.0375L23.2513 1.375L29.2512 5.875H51.125C53.3999 5.87468 55.5973 6.70154 57.3076 8.20147C59.018 9.70139 60.1246 11.772 60.4212 14.0275L60.4813 14.635L60.5 15.25V43.375C60.5004 45.7552 59.5954 48.0464 57.9686 49.7839C56.3418 51.5214 54.1151 52.5751 51.74 52.7313L51.125 52.75H9.875C7.49481 52.7504 5.20358 51.8454 3.46608 50.2186C1.72858 48.5918 0.674891 46.3651 0.518751 43.99L0.5 43.375V9.625C0.499634 7.24481 1.40462 4.95358 3.0314 3.21608C4.65818 1.47858 6.88493 0.424891 9.26 0.26875L9.875 0.25H19.8762ZM45.5187 9.625H41.7687V19H45.5187V9.625ZM38.0187 9.625H29.0637L23.5887 15.3775C22.6644 16.3487 21.4237 16.9578 20.09 17.095L19.5163 17.125L4.25 17.1213V43.375C4.25007 44.7733 4.77095 46.1215 5.71107 47.1566C6.65119 48.1917 7.94315 48.8395 9.335 48.9738L9.875 49H41.765V45.4825C41.7462 45.3281 41.7462 45.1719 41.765 45.0175V41.5H39.89C39.3927 41.5 38.9158 41.3025 38.5642 40.9508C38.2125 40.5992 38.015 40.1223 38.015 39.625C38.015 39.1277 38.2125 38.6508 38.5642 38.2992C38.9158 37.9475 39.3927 37.75 39.89 37.75H41.7612L41.75 30.25H39.875C39.3777 30.25 38.9008 30.0525 38.5492 29.7008C38.1975 29.3492 38 28.8723 38 28.375C38 27.8777 38.1975 27.4008 38.5492 27.0492C38.9008 26.6975 39.3777 26.5 39.875 26.5H41.75V22.75H39.8937C39.3965 22.75 38.9196 22.5525 38.5679 22.2008C38.2163 21.8492 38.0187 21.3723 38.0187 20.875V9.625ZM45.5112 43.375H47.375C47.8723 43.375 48.3492 43.5725 48.7008 43.9242C49.0525 44.2758 49.25 44.7527 49.25 45.25C49.25 45.7473 49.0525 46.2242 48.7008 46.5758C48.3492 46.9275 47.8723 47.125 47.375 47.125H45.515V49H51.125C52.5227 49 53.8704 48.4797 54.9054 47.5403C55.9404 46.601 56.5886 45.3099 56.7238 43.9188L56.75 43.375V15.25C56.75 13.8523 56.2297 12.5046 55.2903 11.4696C54.351 10.4346 53.0599 9.78636 51.6688 9.65125L51.125 9.625H49.2687V20.875C49.2687 21.3723 49.0712 21.8492 48.7196 22.2008C48.3679 22.5525 47.891 22.75 47.3937 22.75H45.5L45.5075 32.125H47.3937C47.891 32.125 48.3679 32.3225 48.7196 32.6742C49.0712 33.0258 49.2687 33.5027 49.2687 34C49.2687 34.4973 49.0712 34.9742 48.7196 35.3258C48.3679 35.6775 47.891 35.875 47.3937 35.875H45.5075V39.4675C45.5177 39.571 45.5189 39.6751 45.5112 39.7788V43.375ZM19.88 4H9.875C8.47669 4.00007 7.12853 4.52095 6.09343 5.46107C5.05832 6.40119 4.41049 7.69315 4.27625 9.085L4.25 9.625V13.3713L19.5163 13.375C19.9249 13.3755 20.3226 13.2426 20.6488 12.9963L20.8738 12.7937L25.6025 7.825L21.0012 4.375C20.7585 4.19381 20.4754 4.07414 20.1763 4.02625L19.8762 4H19.88Z" fill="#C3C6DB"/>
</svg>
