<svg width="32" height="32" viewBox="0 0 32 32" fill="none" xmlns="http://www.w3.org/2000/svg">
<path d="M12.99 8.08007L24.01 6.08007C24.56 6.00007 25 6.53007 25 7.08007V19.5001C25 21.4401 23.43 23.0001 21.5 23.0001C19.57 23.0001 18 21.4401 18 19.5001C18 17.5701 19.57 16.0001 21.5 16.0001C22.04 16.0001 22.54 16.1401 23 16.3501V10.0801L14 12.0801V21.0001C13.76 22.7001 12.26 24.0001 10.5 24.0001C8.57 24.0001 7 22.4401 7 20.5001C7 18.5701 8.57 17.0001 10.5 17.0001C11.04 17.0001 11.54 17.1401 12 17.3501V9.08007C12 8.53007 12.44 8.17007 12.99 8.08007Z" fill="white"/>
</svg>
