<svg width="75" height="75" viewBox="0 0 75 75" fill="none" xmlns="http://www.w3.org/2000/svg">
<path d="M30.875 10.9375C29.6908 10.9375 28.5281 11.2543 27.5075 11.8548C26.4869 12.4554 25.6454 13.3179 25.0703 14.3531L23.0609 17.9688H17.1797C14.7969 17.9688 12.5117 18.9153 10.8268 20.6002C9.14188 22.2851 8.19531 24.5703 8.19531 26.9531V53.5156C8.19531 55.8984 9.14188 58.1836 10.8268 59.8685C12.5117 61.5534 14.7969 62.5 17.1797 62.5H34.7516C34.2267 61.2412 33.8309 59.9324 33.5703 58.5938H17.1797C15.8329 58.5937 14.5412 58.0587 13.5889 57.1064C12.6366 56.1541 12.1016 54.8624 12.1016 53.5156V26.9531C12.1016 25.6063 12.6366 24.3147 13.5889 23.3623C14.5412 22.41 15.8329 21.875 17.1797 21.875H25.3594L28.4844 16.25C28.7212 15.8237 29.0678 15.4685 29.4882 15.2213C29.9085 14.974 30.3873 14.8437 30.875 14.8438H41.7656C42.2533 14.8437 42.7321 14.974 43.1525 15.2213C43.5728 15.4685 43.9194 15.8237 44.1562 16.25L47.2812 21.875H55.4609C56.8077 21.875 58.0994 22.41 59.0517 23.3623C60.004 24.3147 60.5391 25.6063 60.5391 26.9531V35.625C61.9172 36.1328 63.2266 36.7875 64.4453 37.5688V26.9531C64.4453 24.5703 63.4987 22.2851 61.8139 20.6002C60.129 18.9153 57.8437 17.9688 55.4609 17.9688H49.5797L47.5703 14.3531C46.9952 13.3179 46.1537 12.4554 45.1331 11.8548C44.1125 11.2543 42.9498 10.9375 41.7656 10.9375H30.875ZM36.3203 26.5625C38.9394 26.5625 41.4925 27.3848 43.6192 28.9135C45.7459 30.4423 47.3389 32.6002 48.1734 35.0828C46.9 35.4281 45.6766 35.8953 44.5172 36.4688C44.0608 35.0292 43.2331 33.7353 42.1175 32.7174C41.0019 31.6995 39.6377 30.9936 38.1624 30.6707C36.6871 30.3479 35.1528 30.4195 33.714 30.8784C32.2752 31.3372 30.9827 32.1672 29.9668 33.2846C28.9508 34.4019 28.2473 35.7673 27.927 37.2432C27.6067 38.719 27.681 40.2532 28.1424 41.6912C28.6037 43.1292 29.4359 44.4202 30.555 45.4342C31.6742 46.4483 33.0408 47.1495 34.5172 47.4672C34.0578 48.6734 33.7094 49.9359 33.4859 51.2406C30.494 50.5482 27.8617 48.7786 26.0911 46.2695C24.3205 43.7603 23.5355 40.6871 23.8859 37.6362C24.2363 34.5853 25.6976 31.7701 27.991 29.7277C30.2843 27.6853 33.2493 26.5586 36.3203 26.5625ZM70.6953 54.6875C70.6953 64.1797 63 71.875 53.5078 71.875C44.0156 71.875 36.3203 64.1797 36.3203 54.6875C36.3203 45.1953 44.0156 37.5 53.5078 37.5C63 37.5 70.6953 45.1953 70.6953 54.6875ZM55.0703 45.3125C55.0703 44.8981 54.9057 44.5007 54.6127 44.2076C54.3196 43.9146 53.9222 43.75 53.5078 43.75C53.0934 43.75 52.696 43.9146 52.403 44.2076C52.1099 44.5007 51.9453 44.8981 51.9453 45.3125V53.125H44.1328C43.7184 53.125 43.321 53.2896 43.028 53.5826C42.7349 53.8757 42.5703 54.2731 42.5703 54.6875C42.5703 55.1019 42.7349 55.4993 43.028 55.7924C43.321 56.0854 43.7184 56.25 44.1328 56.25H51.9453V64.0625C51.9453 64.4769 52.1099 64.8743 52.403 65.1674C52.696 65.4604 53.0934 65.625 53.5078 65.625C53.9222 65.625 54.3196 65.4604 54.6127 65.1674C54.9057 64.8743 55.0703 64.4769 55.0703 64.0625V56.25H62.8828C63.2972 56.25 63.6946 56.0854 63.9877 55.7924C64.2807 55.4993 64.4453 55.1019 64.4453 54.6875C64.4453 54.2731 64.2807 53.8757 63.9877 53.5826C63.6946 53.2896 63.2972 53.125 62.8828 53.125H55.0703V45.3125Z" fill="#C3C6DB"/>
</svg>
