<svg width="71" height="48" viewBox="0 0 71 48" fill="none" xmlns="http://www.w3.org/2000/svg">
<path d="M9.40625 29.2812C4.35802 29.2812 0.265625 33.3736 0.265625 38.4219C0.265625 43.4701 4.35802 47.5625 9.40625 47.5625H43.5312C48.5795 47.5625 52.6719 43.4701 52.6719 38.4219C52.6719 33.3736 48.5795 29.2812 43.5312 29.2812H9.40625ZM47.7969 38.4219C47.7969 40.7777 45.8871 42.6875 43.5312 42.6875H9.40625C7.05041 42.6875 5.14062 40.7777 5.14062 38.4219C5.14062 36.066 7.05041 34.1562 9.40625 34.1562H43.5312C45.8871 34.1562 47.7969 36.066 47.7969 38.4219ZM56.3281 31.7188C56.3281 30.3726 57.4194 29.2812 58.7656 29.2812C60.1118 29.2812 61.2031 30.3726 61.2031 31.7188V45.125C61.2031 46.4712 60.1118 47.5625 58.7656 47.5625C57.4194 47.5625 56.3281 46.4712 56.3281 45.125V31.7188ZM64.8594 31.7188C64.8594 30.3726 65.9507 29.2812 67.2969 29.2812C68.6431 29.2812 69.7344 30.3726 69.7344 31.7188V45.125C69.7344 46.4712 68.6431 47.5625 67.2969 47.5625C65.9507 47.5625 64.8594 46.4712 64.8594 45.125V31.7188ZM56.5457 19.1199C55.9613 18.2382 55.6797 17.1903 55.7434 16.1344C55.8072 15.0786 56.2129 14.0721 56.8991 13.2672C58.3177 11.6173 59.1411 9.53869 59.2372 7.36487C59.3333 5.19105 58.6966 3.04793 57.4291 1.27925C56.8698 0.496074 55.9667 0.03125 55.0044 0.03125H51.0483C50.9945 0.03125 50.9421 0.0480546 50.8983 0.0793149C50.7824 0.162148 50.7555 0.323305 50.8383 0.43927L53.4621 4.11254C54.0946 4.99508 54.4123 6.06446 54.3643 7.14917C54.3164 8.23387 53.9055 9.27104 53.1976 10.0943C51.8224 11.7076 51.0096 13.7246 50.8818 15.8406C50.754 17.9566 51.3183 20.0567 52.4894 21.8237L52.675 22.1021C53.127 22.7802 53.8881 23.1875 54.703 23.1875C56.6499 23.1875 57.811 21.0177 56.731 19.3979L56.5457 19.1199ZM67.5144 19.1199C66.93 18.2382 66.6484 17.1903 66.7122 16.1344C66.776 15.0786 67.1816 14.0721 67.8679 13.2672C69.2865 11.6173 70.1099 9.53869 70.206 7.36487C70.3021 5.19105 69.6653 3.04793 68.3979 1.27925C67.8386 0.496074 66.9355 0.03125 65.9731 0.03125H62.0171C61.9633 0.03125 61.9108 0.0480546 61.8671 0.0793149C61.7511 0.162148 61.7243 0.323305 61.8071 0.43927L64.4308 4.11254C65.0633 4.99508 65.381 6.06446 65.3331 7.14917C65.2851 8.23387 64.8742 9.27104 64.1664 10.0943C62.7912 11.7076 61.9783 13.7246 61.8506 15.8406C61.7228 17.9566 62.2871 20.0567 63.4581 21.8237L63.6437 22.1021C64.0958 22.7802 64.8568 23.1875 65.6718 23.1875C67.6186 23.1875 68.7798 21.0177 67.6998 19.3979L67.5144 19.1199Z" fill="#C3C6DB"/>
</svg>
