<svg width="61" height="61" viewBox="0 0 61 61" fill="none" xmlns="http://www.w3.org/2000/svg">
<path d="M0.25 7.75C0.25 5.76088 1.04018 3.85322 2.4467 2.4467C3.85322 1.04018 5.76088 0.25 7.75 0.25H39.1712C41.1602 0.250425 43.0676 1.04088 44.4738 2.4475L50.5525 8.52625C51.9591 9.93244 52.7496 11.8398 52.75 13.8287V25C51.5514 24.3868 50.2954 23.8931 49 23.5262V13.8287C48.9998 12.8343 48.6046 11.8806 47.9012 11.1775L41.8225 5.09875C41.1194 4.39544 40.1657 4.00021 39.1712 4H37.75V13.375C37.75 14.8668 37.1574 16.2976 36.1025 17.3525C35.0476 18.4074 33.6168 19 32.125 19H17.125C15.6332 19 14.2024 18.4074 13.1475 17.3525C12.0926 16.2976 11.5 14.8668 11.5 13.375V4H7.75C6.75544 4 5.80161 4.39509 5.09835 5.09835C4.39509 5.80161 4 6.75544 4 7.75V45.25C4 46.2446 4.39509 47.1984 5.09835 47.9016C5.80161 48.6049 6.75544 49 7.75 49V32.125C7.75 30.6332 8.34263 29.2024 9.39752 28.1475C10.4524 27.0926 11.8832 26.5 13.375 26.5H31.5138C30.0025 27.565 28.6375 28.825 27.4637 30.25H13.375C12.8777 30.25 12.4008 30.4475 12.0492 30.7992C11.6975 31.1508 11.5 31.6277 11.5 32.125V49H23.5262C23.8975 50.3088 24.3888 51.5612 25 52.75H7.75C5.76088 52.75 3.85322 51.9598 2.4467 50.5533C1.04018 49.1468 0.25 47.2391 0.25 45.25V7.75ZM15.25 4V13.375C15.25 13.8723 15.4475 14.3492 15.7992 14.7008C16.1508 15.0525 16.6277 15.25 17.125 15.25H32.125C32.6223 15.25 33.0992 15.0525 33.4508 14.7008C33.8025 14.3492 34 13.8723 34 13.375V4H15.25ZM60.25 43.375C60.25 47.8505 58.4721 52.1427 55.3074 55.3074C52.1427 58.4721 47.8505 60.25 43.375 60.25C38.8995 60.25 34.6073 58.4721 31.4426 55.3074C28.2779 52.1427 26.5 47.8505 26.5 43.375C26.5 38.8995 28.2779 34.6073 31.4426 31.4426C34.6073 28.2779 38.8995 26.5 43.375 26.5C47.8505 26.5 52.1427 28.2779 55.3074 31.4426C58.4721 34.6073 60.25 38.8995 60.25 43.375ZM52.1988 44.7025L52.21 44.6912C52.5536 44.3435 52.7474 43.8751 52.75 43.3862V43.3638C52.7469 42.8713 52.5503 42.3999 52.2025 42.0513L44.7025 34.5513C44.3509 34.1992 43.8739 34.0012 43.3763 34.0008C42.8788 34.0005 42.4014 34.1978 42.0494 34.5494C41.6973 34.901 41.4993 35.378 41.499 35.8755C41.4986 36.3731 41.6959 36.8504 42.0475 37.2025L46.3488 41.5H35.875C35.3777 41.5 34.9008 41.6975 34.5492 42.0492C34.1975 42.4008 34 42.8777 34 43.375C34 43.8723 34.1975 44.3492 34.5492 44.7008C34.9008 45.0525 35.3777 45.25 35.875 45.25H46.3488L42.0475 49.5475C41.6954 49.8996 41.4976 50.3771 41.4976 50.875C41.4976 51.3729 41.6954 51.8504 42.0475 52.2025C42.3996 52.5546 42.8771 52.7524 43.375 52.7524C43.8729 52.7524 44.3504 52.5546 44.7025 52.2025L52.2025 44.7025H52.1988Z" fill="#C3C6DB"/>
</svg>
