<svg width="75" height="75" viewBox="0 0 75 75" fill="none" xmlns="http://www.w3.org/2000/svg">
<path d="M11.7188 32.8125H63.2812V58.5938C63.2812 59.2154 63.0343 59.8115 62.5948 60.251C62.1552 60.6906 61.5591 60.9375 60.9375 60.9375H14.0625C13.4409 60.9375 12.8448 60.6906 12.4052 60.251C11.9657 59.8115 11.7188 59.2154 11.7188 58.5938V32.8125Z" stroke="#C3C6DB" stroke-width="4" stroke-linecap="round" stroke-linejoin="round"/>
<path d="M11.7178 32.8126L61.5225 19.4532L59.0909 10.4005C59.0129 10.1025 58.8763 9.82315 58.689 9.57869C58.5017 9.33423 58.2675 9.12961 58.0001 8.97682C57.7327 8.82403 57.4375 8.72613 57.1318 8.68888C56.8261 8.65162 56.5161 8.67574 56.2198 8.75984L10.9561 20.8887C10.6576 20.967 10.3775 21.1035 10.1319 21.2903C9.88627 21.4772 9.67996 21.7107 9.5248 21.9774C9.36964 22.2442 9.2687 22.539 9.22775 22.8448C9.18681 23.1507 9.20667 23.4617 9.28621 23.7598L11.7178 32.8126Z" stroke="#C3C6DB" stroke-width="4" stroke-linecap="round" stroke-linejoin="round"/>
<path d="M38.1172 13.5938L52.4727 21.8848" stroke="#C3C6DB" stroke-width="4" stroke-linecap="round" stroke-linejoin="round"/>
<path d="M17.7539 19.0742L32.0801 27.3652" stroke="#C3C6DB" stroke-width="4" stroke-linecap="round" stroke-linejoin="round"/>
</svg>
