<svg width="64" height="56" viewBox="0 0 64 56" fill="none" xmlns="http://www.w3.org/2000/svg">
<path
    d="M28.5336 13.7198C28.5336 7.2745 33.9535 1.91317 40.3988 2.00107C42.656 2.02712 44.8576 2.70454 46.739 3.95187C48.6204 5.19921 50.1015 6.96338 51.0043 9.03232H61.3461L51.8832 18.4952C51.2725 28.0008 47.0647 36.917 40.1152 43.4311C33.1657 49.9453 23.9962 53.5683 14.4711 53.5636C5.09606 53.5636 2.75231 50.0479 2.75231 50.0479C2.75231 50.0479 12.1273 46.5323 16.8148 39.5011C16.8148 39.5011 -1.93519 30.1261 2.75231 4.34482C2.75231 4.34482 14.4711 16.0636 28.5336 18.4073V13.7198Z"
    stroke="#C3C6DB"
    stroke-width="4"
    stroke-linecap="round"
    stroke-linejoin="round"
  />
</svg>
