<svg width="51" height="43" viewBox="0 0 51 43" fill="none" xmlns="http://www.w3.org/2000/svg">
<path d="M45.7576 11.112C45.7899 11.565 45.7899 12.0181 45.7899 12.4712C45.7899 26.289 35.2729 42.2103 16.0508 42.2103C10.1288 42.2103 4.62755 40.4952 0 37.5181C0.8414 37.6151 1.65033 37.6475 2.5241 37.6475C7.41044 37.6475 11.9086 35.9972 15.5006 33.1818C10.9054 33.0847 7.05453 30.0752 5.72774 25.9331C6.375 26.0301 7.02216 26.0948 7.7018 26.0948C8.64022 26.0948 9.57873 25.9653 10.4524 25.7389C5.66309 24.768 2.07098 20.5612 2.07098 15.4806V15.3513C3.46242 16.1279 5.08058 16.6133 6.79555 16.678C3.98019 14.801 2.13572 11.5974 2.13572 7.97299C2.13572 6.0314 2.65339 4.25158 3.55954 2.69828C8.70486 9.0409 16.439 13.183 25.1115 13.6361C24.9498 12.8594 24.8526 12.0505 24.8526 11.2415C24.8526 5.48126 29.5126 0.789062 35.305 0.789062C38.3145 0.789062 41.0328 2.05111 42.9421 4.08982C45.3043 3.6368 47.5695 2.76302 49.576 1.56572C48.7992 3.9928 47.1489 6.0315 44.9808 7.32583C47.0842 7.09942 49.123 6.5168 50.9998 5.70787C49.5762 7.77885 47.7963 9.62332 45.7576 11.112V11.112Z" fill="#4D9EEA"/>
</svg>
