<svg width="312" height="185" viewBox="0 0 312 185" fill="none" xmlns="http://www.w3.org/2000/svg">
<g filter="url(#filter0_d_10641_89710)">
<rect x="0.390625" width="213.609" height="104.58" rx="6.6753" fill="#15202B"/>
<rect x="0.9469" y="0.556275" width="212.497" height="103.467" rx="6.11902" stroke="#E5E8EB" stroke-width="1.11255"/>
</g>
<circle cx="28.2053" cy="25.5881" r="14.4631" fill="white"/>
<rect x="47.1172" y="14.4609" width="57.8526" height="8.90039" fill="white"/>
<rect x="47.1172" y="27.8125" width="51.1773" height="8.90039" fill="#D9D9D9"/>
<rect x="13.7422" y="51.1758" width="184.683" height="8.90039" fill="white"/>
<rect x="13.7422" y="64.5234" width="122.38" height="8.90039" fill="white"/>
<rect x="13.7422" y="82.3281" width="60.0777" height="8.90039" fill="white"/>
<g clip-path="url(#clip0_10641_89710)">
<path d="M198.161 17.0107C197.542 17.2851 196.877 17.4705 196.177 17.5543C196.899 17.1225 197.439 16.4429 197.696 15.6422C197.018 16.045 196.276 16.3285 195.502 16.4804C194.982 15.9247 194.293 15.5565 193.542 15.4327C192.79 15.3089 192.019 15.4366 191.348 15.796C190.677 16.1553 190.143 16.7261 189.83 17.4199C189.516 18.1136 189.441 18.8914 189.615 19.6326C188.241 19.5636 186.897 19.2065 185.67 18.5845C184.443 17.9625 183.361 17.0894 182.493 16.022C182.196 16.5338 182.026 17.1271 182.026 17.7591C182.025 18.3279 182.165 18.8881 182.434 19.3899C182.702 19.8916 183.089 20.3194 183.562 20.6354C183.014 20.6179 182.477 20.4697 181.997 20.203V20.2475C181.997 21.0453 182.273 21.8187 182.779 22.4362C183.284 23.0538 183.987 23.4775 184.769 23.6355C184.26 23.7733 183.727 23.7936 183.209 23.6949C183.429 24.3814 183.859 24.9817 184.438 25.4119C185.017 25.842 185.716 26.0803 186.437 26.0935C185.213 27.0543 183.701 27.5755 182.145 27.5732C181.869 27.5733 181.594 27.5572 181.32 27.525C182.9 28.5405 184.738 29.0795 186.616 29.0774C192.972 29.0774 196.447 23.8128 196.447 19.2469C196.447 19.0986 196.444 18.9487 196.437 18.8004C197.113 18.3116 197.696 17.7063 198.16 17.0129L198.161 17.0107Z" fill="white"/>
</g>
<defs>
<filter id="filter0_d_10641_89710" x="0.390625" y="0" width="311.514" height="184.682" filterUnits="userSpaceOnUse" color-interpolation-filters="sRGB">
<feFlood flood-opacity="0" result="BackgroundImageFix"/>
<feColorMatrix in="SourceAlpha" type="matrix" values="0 0 0 0 0 0 0 0 0 0 0 0 0 0 0 0 0 0 127 0" result="hardAlpha"/>
<feOffset dx="57.8526" dy="40.0518"/>
<feGaussianBlur stdDeviation="20.0259"/>
<feColorMatrix type="matrix" values="0 0 0 0 0.366423 0 0 0 0 0.524854 0 0 0 0 0.7625 0 0 0 0.05 0"/>
<feBlend mode="normal" in2="BackgroundImageFix" result="effect1_dropShadow_10641_89710"/>
<feBlend mode="normal" in="SourceGraphic" in2="effect1_dropShadow_10641_89710" result="shape"/>
</filter>
<clipPath id="clip0_10641_89710">
<rect width="17.8008" height="17.8008" fill="white" transform="translate(180.625 13.3477)"/>
</clipPath>
</defs>
</svg>
