<svg width="55" height="55" viewBox="0 0 55 55" fill="none" xmlns="http://www.w3.org/2000/svg">
<rect x="0.984375" y="0.5" width="54" height="54" rx="12" fill="#2C374B"/>
<path d="M31.9271 26.4169L34.6381 21.8164L41.9453 33.1985L41.9487 35.3829L41.9248 20.3516C41.9076 19.984 41.7125 19.6478 41.4013 19.4495L28.2455 11.8817C27.938 11.7304 27.5475 11.7323 27.2404 11.8865C27.1988 11.9074 27.16 11.9299 27.1227 11.9547L27.0769 11.9835L14.307 19.3841L14.2575 19.4068C14.1937 19.4359 14.1294 19.4734 14.0688 19.5165C13.8266 19.6901 13.6658 19.947 13.6138 20.2348C13.6061 20.2784 13.6002 20.323 13.5977 20.368L13.6176 32.6169L20.424 22.0667C21.2808 20.6678 23.1479 20.2169 24.8813 20.2416L26.9154 20.2953L14.9296 39.5187L16.3425 40.3321L28.4718 20.3148L33.833 20.2953L21.7351 40.8178L26.7766 43.718L27.379 44.0643C27.6338 44.1678 27.9341 44.1731 28.191 44.0802L41.5317 36.3483L38.9811 37.8265L31.9271 26.4169ZM32.9613 41.3155L27.8694 33.3227L30.9778 28.0475L37.6652 38.5891L32.9613 41.3155Z" fill="#2D374B"/>
<path d="M27.8711 33.3221L32.9637 41.3147L37.6678 38.5885L30.9799 28.0469L27.8711 33.3221Z" fill="#28A0F0"/>
<path d="M41.9522 35.379L41.9488 33.1946L34.6409 21.8125L31.9297 26.4131L38.9845 37.8227L41.5354 36.3445C41.7855 36.1414 41.937 35.8431 41.9529 35.5215L41.9522 35.379Z" fill="#28A0F0"/>
<path d="M11.3281 37.4367L14.93 39.5123L26.9157 20.2889L24.8816 20.2353C23.1485 20.2108 21.2814 20.6615 20.4244 22.0604L13.618 32.6106L11.3281 36.1292V37.4367Z" fill="white"/>
<path d="M33.8304 20.293L28.4691 20.3125L16.3398 40.3299L20.5795 42.771L21.7323 40.8155L33.8304 20.293Z" fill="white"/>
<path d="M44.2082 20.2663C44.1635 19.145 43.5563 18.1187 42.6055 17.521L29.2773 9.85551C28.3367 9.38187 27.1617 9.38119 26.2193 9.85529C26.108 9.9114 13.2579 17.3647 13.2579 17.3647C13.0801 17.4499 12.9088 17.5514 12.7478 17.6668C11.8989 18.2754 11.3815 19.2209 11.3281 20.2595V36.1345L13.618 32.6159L13.598 20.3667C13.6007 20.3219 13.6064 20.2776 13.6141 20.2342C13.6659 19.946 13.8269 19.689 14.0691 19.5153C14.1297 19.4721 27.1989 11.9061 27.2405 11.8852C27.5478 11.731 27.9381 11.7292 28.2456 11.8805L41.4014 19.4483C41.7126 19.6466 41.9077 19.9828 41.9249 20.3503V35.5238C41.909 35.8455 41.7818 36.1438 41.5318 36.3469L38.9812 37.825L37.6651 38.5878L32.9614 41.3141L28.1911 44.0787C27.9342 44.1716 27.6337 44.1663 27.3791 44.0628L21.7352 40.8163L20.5822 42.7718L25.6544 45.6922C25.822 45.7876 25.9715 45.8721 26.0941 45.9412C26.284 46.0477 26.4135 46.1188 26.4591 46.1411C26.8196 46.3162 27.3382 46.418 27.8056 46.418C28.234 46.418 28.652 46.3394 29.0474 46.1845L42.903 38.1599C43.6983 37.5436 44.1662 36.6142 44.2082 35.6077V20.2663Z" fill="#96BEDC"/>
</svg>
