<svg width="55" height="55" viewBox="0 0 55 55" fill="none" xmlns="http://www.w3.org/2000/svg">
<rect x="0.3125" y="0.5" width="54" height="54" rx="12" fill="#70D44B"/>
<path d="M27.3179 16.4927C28.4153 16.4927 29.4117 17.1136 29.9026 18.0955L38.0178 34.3401C38.7253 35.7696 38.1477 37.5024 36.7182 38.2099C36.3139 38.4121 35.8807 38.5132 35.433 38.5132H19.2028C17.6144 38.5132 16.3148 37.2136 16.3148 35.6252C16.3148 35.1776 16.4159 34.73 16.618 34.3401L24.7332 18.0955C25.2241 17.0991 26.2205 16.4782 27.3179 16.4927ZM27.3179 14.5C25.4696 14.5 23.7802 15.5397 22.9571 17.2002L14.842 33.4448C13.6435 35.8563 14.6109 38.7731 17.0224 39.986C17.701 40.3181 18.4519 40.5058 19.2028 40.5058H35.4475C38.1333 40.5058 40.3281 38.3254 40.3281 35.6397C40.3281 34.8888 40.1548 34.1379 39.8083 33.4593L31.6787 17.2002C30.8556 15.5397 29.1662 14.5 27.3179 14.5Z" fill="white"/>
</svg>
