<svg width="55" height="55" viewBox="0 0 55 55" fill="none" xmlns="http://www.w3.org/2000/svg">
<rect x="0.65625" y="0.5" width="54" height="54" rx="12" fill="#E84142"/>
<path d="M35.1404 30.0674C35.8739 28.7865 37.0575 28.7865 37.791 30.0674L42.3588 38.1742C43.0923 39.4551 42.4922 40.5 41.0252 40.5H31.8229C30.3725 40.5 29.7724 39.4551 30.4892 38.1742L35.1404 30.0674ZM26.3049 14.4607C27.0384 13.1798 28.2053 13.1798 28.9389 14.4607L29.9558 16.3146L32.3564 20.5787C32.9398 21.7921 32.9398 23.2247 32.3564 24.4382L24.3044 38.5449C23.5709 39.691 22.3539 40.4157 21.0036 40.5H14.3186C12.8516 40.5 12.2514 39.4719 12.9849 38.1742L26.3049 14.4607Z" fill="white"/>
</svg>
