<svg width="55" height="55" viewBox="0 0 55 55" fill="none" xmlns="http://www.w3.org/2000/svg">
<rect x="0.3125" y="0.5" width="54" height="54" rx="12" fill="#222222"/>
<path d="M35.636 14.88L30.0022 23.25C29.6127 23.82 30.3618 24.51 30.9012 24.03L36.4451 19.2C36.5949 19.08 36.8047 19.17 36.8047 19.38V34.47C36.8047 34.68 36.535 34.77 36.4151 34.62L19.6337 14.52C19.0943 13.86 18.3152 13.5 17.4462 13.5H16.8468C15.2886 13.5 14 14.79 14 16.38V37.62C14 39.21 15.2886 40.5 16.8768 40.5C17.8657 40.5 18.7947 39.99 19.3341 39.12L24.9678 30.75C25.3574 30.18 24.6082 29.49 24.0688 29.97L18.525 34.77C18.3751 34.89 18.1654 34.8 18.1654 34.59V19.53C18.1654 19.32 18.4351 19.23 18.5549 19.38L35.3363 39.48C35.8757 40.14 36.6848 40.5 37.5239 40.5H38.1232C39.7114 40.5 41 39.21 41 37.62V16.38C41 14.79 39.7114 13.5 38.1232 13.5C37.1043 13.5 36.1754 14.01 35.636 14.88Z" fill="white"/>
</svg>
