<svg width="55" height="55" viewBox="0 0 55 55" fill="none" xmlns="http://www.w3.org/2000/svg">
<rect x="0.984375" y="0.5" width="54" height="54" rx="12" fill="#FF0420"/>
<path d="M40.7569 25.5C40.7569 32.5455 35.0455 38.2569 28 38.2569C20.9545 38.2569 15.2431 32.5455 15.2431 25.5C15.2431 18.4545 20.9545 12.7431 28 12.7431C35.0455 12.7431 40.7569 18.4545 40.7569 25.5Z" stroke="white" stroke-width="0.486163"/>
<path d="M22.4175 29.8273C21.4131 29.8273 20.5908 29.5914 19.9504 29.1195C19.3168 28.6409 19 27.9534 19 27.0704C19 26.8816 19.0202 26.6592 19.0607 26.3896C19.1685 25.7829 19.3235 25.0549 19.5258 24.1989C20.0987 21.8801 21.5817 20.7207 23.9678 20.7207C24.6149 20.7207 25.2014 20.8286 25.7137 21.051C26.226 21.26 26.6304 21.5835 26.927 22.0149C27.2236 22.4396 27.3719 22.9451 27.3719 23.5315C27.3719 23.7068 27.3516 23.9292 27.3112 24.1989C27.1831 24.9471 27.0348 25.6818 26.8528 26.3896C26.5562 27.5422 26.0507 28.4118 25.3227 28.9847C24.6015 29.5509 23.6308 29.8273 22.4175 29.8273ZM22.5995 28.0073C23.0713 28.0073 23.469 27.8658 23.7993 27.5894C24.1364 27.313 24.379 26.8884 24.5206 26.3087C24.7161 25.5133 24.8643 24.8257 24.9655 24.2326C24.9992 24.0573 25.0194 23.8753 25.0194 23.6866C25.0194 22.9181 24.6217 22.5339 23.8195 22.5339C23.3477 22.5339 22.9433 22.6755 22.6062 22.9518C22.2759 23.2282 22.04 23.6529 21.8985 24.2326C21.7434 24.7988 21.5951 25.4863 21.4401 26.3087C21.4064 26.4772 21.3862 26.6525 21.3862 26.8412C21.3794 27.6231 21.7906 28.0073 22.5995 28.0073Z" fill="white"/>
<path d="M27.9585 29.3572C27.8641 29.3572 27.7967 29.3302 27.7428 29.2696C27.7023 29.2021 27.6888 29.128 27.7023 29.0404L29.4481 20.8168C29.4616 20.7224 29.5088 20.6483 29.5897 20.5876C29.6638 20.527 29.7447 20.5 29.8324 20.5H33.1959C34.1329 20.5 34.8811 20.6955 35.4473 21.0797C36.0203 21.4707 36.3101 22.0301 36.3101 22.7649C36.3101 22.9738 36.2831 23.1963 36.236 23.4254C36.027 24.3961 35.6023 25.1106 34.9552 25.5757C34.3216 26.0408 33.4521 26.27 32.3466 26.27H30.6412L30.0615 29.0404C30.0413 29.1347 30.0009 29.2089 29.92 29.2696C29.8458 29.3302 29.765 29.3572 29.6773 29.3572H27.9585ZM32.4342 24.5242C32.7915 24.5242 33.0948 24.4298 33.3577 24.2343C33.6273 24.0388 33.8026 23.7625 33.8902 23.3985C33.9172 23.2569 33.9307 23.1288 33.9307 23.021C33.9307 22.7783 33.8565 22.5896 33.715 22.4615C33.5734 22.3267 33.324 22.2593 32.9802 22.2593H31.4636L30.985 24.5242H32.4342Z" fill="white"/>
</svg>
