<svg width="56" height="56" viewBox="0 0 56 56" fill="none" xmlns="http://www.w3.org/2000/svg">
<rect x="1.65625" y="1.5" width="54" height="54" rx="12" fill="#8247E5"/>
<g clip-path="url(#clip0_12450_121072)">
<path d="M43.736 28.5465V35.5849C43.7335 36.0239 43.6176 36.4546 43.3994 36.8351C43.1814 37.2156 42.8686 37.5327 42.4918 37.7555L36.4161 41.2675C36.0399 41.4925 35.61 41.6114 35.1719 41.6114C34.7338 41.6114 34.3039 41.4925 33.9276 41.2675L27.852 37.7555C27.4751 37.5327 27.1624 37.2156 26.9443 36.8351C26.7262 36.4546 26.6102 36.0239 26.6077 35.5849V33.6095L29.7184 31.7975V35.2313L35.1621 38.4018L40.6059 35.2313V28.905L35.1621 25.7345L22.4082 33.1486C22.0284 33.3633 21.5998 33.4762 21.1639 33.4762C20.728 33.4762 20.2995 33.3633 19.9196 33.1486L13.844 29.6221C13.473 29.3958 13.1663 29.0775 12.9534 28.6977C12.7406 28.3179 12.6288 27.8896 12.6289 27.4539V20.4154C12.6314 19.9765 12.7474 19.5458 12.9655 19.1653C13.1836 18.7849 13.4964 18.4677 13.8732 18.2449L19.9488 14.733C20.3259 14.5101 20.7555 14.3926 21.1931 14.3926C21.6307 14.3926 22.0603 14.5101 22.4374 14.733L28.513 18.2449C28.8898 18.4677 29.2026 18.7849 29.4206 19.1653C29.6388 19.5458 29.7547 19.9765 29.7573 20.4154V22.3909L26.6271 24.1907V20.7764L21.1834 17.6059L15.7396 20.7764V27.0954L21.1834 30.2659L33.9373 22.8518C34.3171 22.6371 34.7457 22.5243 35.1816 22.5243C35.6175 22.5243 36.0461 22.6371 36.4259 22.8518L42.5015 26.3784C42.8761 26.6022 43.1867 26.9195 43.4031 27.2994C43.6194 27.6793 43.7341 28.109 43.736 28.5465Z" fill="white"/>
</g>
<defs>
<clipPath id="clip0_12450_121072">
<rect width="46.6607" height="46.6607" fill="white" transform="translate(4.84082 4.66992)"/>
</clipPath>
</defs>
</svg>
