<svg width="15" height="14" viewBox="0 0 15 14" fill="none" xmlns="http://www.w3.org/2000/svg">
<path
    d="M12.893 11.9517C11.5432 13.2633 9.71367 14 7.80621 14C5.89876 14 4.06926 13.2633 2.71944 11.9517C2.60736 11.8423 2.54441 11.6942 2.54441 11.5397C2.54441 11.3853 2.60736 11.2371 2.71944 11.1278C2.77456 11.0729 2.8404 11.0293 2.91309 10.9995C2.98578 10.9697 3.06385 10.9544 3.14271 10.9544C3.22158 10.9544 3.29965 10.9697 3.37234 10.9995C3.44503 11.0293 3.51086 11.0729 3.56599 11.1278C4.40442 11.9429 5.47233 12.4977 6.63473 12.7223C7.79712 12.9468 9.00182 12.8309 10.0966 12.3893C11.1913 11.9476 12.1269 11.2 12.7852 10.241C13.4434 9.28191 13.7948 8.15446 13.7948 7.00113C13.7948 5.8478 13.4434 4.72035 12.7852 3.7613C12.1269 2.80225 11.1913 2.05465 10.0966 1.61299C9.00182 1.17133 7.79712 1.05545 6.63473 1.27998C5.47233 1.50451 4.40442 2.05938 3.56599 2.87446L3.24385 3.18797L4.6223 4.5295C4.70486 4.61147 4.76073 4.71533 4.78292 4.82806C4.80511 4.94079 4.79262 5.05739 4.74704 5.16325C4.70145 5.26911 4.62478 5.35953 4.52663 5.42318C4.42848 5.48683 4.31322 5.52088 4.19528 5.52107H0.599325C0.440374 5.52107 0.287934 5.45962 0.175538 5.35023C0.0631432 5.24085 0 5.09249 0 4.93779V1.43814C0.00217818 1.3226 0.0387175 1.21015 0.105196 1.1144C0.171675 1.01864 0.265243 0.943693 0.374578 0.898615C0.484383 0.855353 0.604897 0.844731 0.720901 0.868089C0.836905 0.891447 0.943194 0.947738 1.02634 1.02985L2.3973 2.36409L2.71944 2.05058C4.06854 0.737617 5.8983 0 7.80621 0C9.71412 0 11.5439 0.737617 12.893 2.05058C14.2421 3.36355 15 5.14431 15 7.00113C15 8.85794 14.2421 10.6387 12.893 11.9517Z"
    fill="#0F1D40"
  />
</svg>
