<svg width="16" height="16" viewBox="0 0 16 16" fill="none" xmlns="http://www.w3.org/2000/svg">
<path d="M13.9389 7.99962C13.9389 9.57474 13.3132 11.0853 12.1994 12.1991C11.085 13.3118 9.57458 13.9367 7.9998 13.9367C6.42507 13.9367 4.9147 13.3118 3.8003 12.1992C3.71848 12.1172 3.67254 12.0061 3.67254 11.8902C3.67254 11.7744 3.71848 11.6633 3.8003 11.5813L3.80075 11.5808C3.84092 11.5397 3.88889 11.507 3.94186 11.4847C3.99483 11.4624 4.05171 11.451 4.10918 11.451C4.16665 11.451 4.22353 11.4624 4.2765 11.4847C4.32946 11.507 4.37744 11.5397 4.4176 11.5808L4.41814 11.5813C5.12636 12.2888 6.02842 12.7704 7.0103 12.9653C7.99217 13.1601 9.00978 13.0596 9.93451 12.6762C10.8592 12.2929 11.6496 11.644 12.2056 10.8116C12.7616 9.9792 13.0584 9.00064 13.0584 7.99962C13.0584 6.99859 12.7616 6.02003 12.2056 5.18763C11.6496 4.35522 10.8592 3.70635 9.93451 3.32301C9.00978 2.93968 7.99217 2.8391 7.0103 3.03398C6.02842 3.22886 5.12636 3.71046 4.41814 4.4179L4.41811 4.41792L4.14936 4.68667L4.10517 4.73087L4.14936 4.77506L5.29892 5.92462C5.29899 5.92469 5.29907 5.92476 5.29914 5.92484C5.35929 5.98629 5.39999 6.0641 5.41617 6.14856C5.43237 6.23312 5.42326 6.32057 5.38998 6.39998C5.3567 6.47938 5.30073 6.5472 5.22908 6.59494C5.15744 6.64268 5.0733 6.66822 4.9872 6.66837H1.9873C1.87127 6.66837 1.75999 6.62227 1.67795 6.54023C1.5959 6.45818 1.5498 6.3469 1.5498 6.23087V3.23146C1.5515 3.14469 1.57826 3.06025 1.62685 2.98833C1.67546 2.9164 1.74383 2.86006 1.82372 2.82611C1.90375 2.79382 1.99155 2.78591 2.07607 2.8034C2.16075 2.82092 2.23834 2.86314 2.29904 2.92474L2.29904 2.92474L2.29936 2.92506L3.44311 4.06881L3.4873 4.113L3.5315 4.06881L3.80025 3.80006C4.91404 2.68627 6.42467 2.06055 7.9998 2.06055C9.57494 2.06055 11.0856 2.68627 12.1994 3.80006C13.3132 4.91385 13.9389 6.42448 13.9389 7.99962Z" fill="white" stroke="white" stroke-width="0.125"/>
</svg>
