<svg width="680" height="361" viewBox="0 0 680 361" fill="none" xmlns="http://www.w3.org/2000/svg">
<path d="M525.521 345.887C520.653 352.216 514.908 356.909 516.174 359.052C516.174 359.052 518.764 360.999 525.911 360.999C538.18 360.999 550.254 360.064 548.268 358.818C545.522 357.085 537.576 356.461 529.981 353.832C528.034 353.19 534.09 349.548 532.454 348.964C530.043 348.182 527.719 347.15 525.521 345.887Z" fill="#002E4F"/>
<path d="M651.989 358.683C651.989 358.683 653.606 360.942 659.779 360.942C670.393 360.942 681.454 359.501 679.741 358.411C677.365 356.931 658.766 353.055 658.766 353.055L654.599 347.875L647.53 351.77L651.989 358.683Z" fill="#002E4F"/>
<path d="M618.454 202.242C613.782 202.261 609.125 201.705 604.588 200.587C602.737 200.02 601.179 198.756 600.243 197.062C599.308 195.367 599.067 193.375 599.573 191.507C600.078 189.638 601.291 188.04 602.953 187.049C604.616 186.057 606.599 185.751 608.483 186.195C608.736 186.195 625.504 190.558 635.28 182.164C641.824 176.556 644.316 165.961 642.68 150.713L642.155 145.844L657.228 137.295C658.082 136.762 659.034 136.408 660.029 136.253C661.023 136.098 662.039 136.146 663.014 136.394C663.989 136.642 664.904 137.085 665.704 137.696C666.504 138.306 667.171 139.073 667.667 139.949C668.163 140.824 668.476 141.791 668.589 142.791C668.701 143.791 668.609 144.804 668.32 145.768C668.031 146.731 667.549 147.627 666.905 148.4C666.26 149.173 665.466 149.807 664.57 150.265L657.91 154.043C658.961 172.018 654.599 185.3 644.901 193.557C636.682 200.529 626.478 202.242 618.454 202.242Z" fill="#8A8778"/>
<path d="M644.161 160.879C643.888 171.726 641.006 179.574 635.533 184.248C624.803 193.46 606.419 188.766 606.107 188.689C605.07 188.407 603.988 188.333 602.922 188.47C601.857 188.607 600.828 188.952 599.896 189.487C598.013 190.566 596.636 192.349 596.068 194.443C595.5 196.538 595.787 198.772 596.866 200.655C597.946 202.537 599.729 203.914 601.823 204.483C606.618 206.566 611.806 207.589 617.033 207.482C648.737 206.352 667.881 179.01 668.231 163.06L644.161 160.879Z" fill="#E1F3F6"/>
<path d="M600.557 122.961C597.714 121.675 594.929 120.293 592.183 118.852C565.892 133.808 532.318 152.991 531.656 153.653C531.656 153.653 548.346 180.216 549.417 181.287C550.098 181.969 591.482 152.289 621.239 130.789C614.365 128.121 607.295 125.96 600.557 122.961Z" fill="#86CCFF"/>
<path d="M600.927 122.185C607.821 125.223 615.046 127.424 622.038 130.17C638.416 118.329 651.094 109.118 651.094 109.118L623.089 101.328L593.137 118.349C595.669 119.712 598.298 120.997 600.927 122.185Z" fill="#86CCFF"/>
<path d="M552.708 87.3028L569.203 131.958L601.433 143.779L560.595 69.1914L552.708 87.3028Z" fill="#86CCFF"/>
<path d="M603.186 154.746H579.31L600.557 191.884L632.963 205.555L603.186 154.746Z" fill="#006091"/>
<path d="M632.963 205.556L613.956 173.111L532.61 220.804L516.622 193.54L526.67 31.3166L563.224 9.89453L629.009 122.127L651.152 109.156L669.555 140.569L647.432 153.539L666.44 185.984L632.963 205.556ZM559.174 79.6719L557.109 80.8794L551.52 167.522L595.552 141.718L559.174 79.6719Z" fill="#0D99FF"/>
<path d="M489.571 186.098L516.622 193.517L532.61 220.801L504.041 213.576L489.571 186.098Z" fill="#86CCFF"/>
<path d="M489.571 186.099L516.622 193.518L526.67 31.2952L501.86 25.3555L489.571 186.099Z" fill="#86CCFF"/>
<path d="M501.86 25.3555L526.67 31.2953L563.224 9.85375L538.082 2.55078L501.86 25.3555Z" fill="#86CCFF"/>
<path d="M556.252 250.734C556.252 250.734 560.147 293.578 560.147 308.632C560.147 308.632 528.988 332.956 521.198 345.634C524.47 348.127 530.935 351.476 535.22 351.321C548.708 338.643 563.329 327.229 578.901 317.221C578.901 317.221 588.775 288.632 591.832 264.406L556.252 250.734Z" fill="#86CCFF"/>
<path d="M578.512 252.761C585.528 253.003 592.493 251.476 598.765 248.321C596.818 239.752 601.063 214.494 606.555 200.998C606.555 200.998 610.84 191.611 607.84 188.709C596.74 178.037 587.295 178.972 584.354 178.797C574.149 187.405 555.142 212.78 555.941 246.354C561.101 251.807 571.715 252.722 578.512 252.761Z" fill="#E1F3F6"/>
<path d="M647.354 352.955C651.447 352.054 655.13 349.83 657.831 346.626C645.777 327.151 601.569 255.271 599.174 249.643C599.174 249.506 599.057 249.331 598.999 249.175C592.264 252.541 584.761 254.072 577.246 253.615C570.722 253.362 561.238 252.447 555.824 247.598C555.824 247.948 555.824 248.299 555.824 248.649C556.739 267.384 618.921 329.878 643.459 353.812C644.775 353.61 646.076 353.324 647.354 352.955Z" fill="#0D99FF"/>
<path d="M519.017 233.324C517.324 233.333 515.641 233.07 514.032 232.545C511.63 231.715 509.477 230.29 507.775 228.404C506.072 226.517 504.875 224.23 504.294 221.756C503.983 220.809 503.865 219.808 503.948 218.814C504.03 217.82 504.311 216.853 504.773 215.969C505.236 215.086 505.871 214.304 506.642 213.67C507.412 213.037 508.301 212.564 509.257 212.28C510.213 211.996 511.217 211.907 512.208 212.017C513.199 212.128 514.158 212.436 515.028 212.924C515.898 213.411 516.662 214.069 517.273 214.857C517.885 215.644 518.332 216.547 518.589 217.511C518.673 217.834 518.79 218.147 518.939 218.446C519.738 218.446 522.678 218.212 529.864 213.986C536.291 210.227 543.886 204.599 551.286 199.166C563.692 189.993 575.415 181.327 585.094 178.25C586.961 177.719 588.961 177.935 590.67 178.855C592.379 179.774 593.663 181.323 594.248 183.173C594.834 185.024 594.675 187.029 593.806 188.764C592.937 190.499 591.425 191.827 589.593 192.466C582.27 194.784 571.034 203.1 560.147 211.143C544.217 222.944 530.176 233.324 519.017 233.324Z" fill="#8A8778"/>
<path d="M532.961 227.756C532.046 223.374 531.013 218.525 528.307 214.922C522.289 218.252 519.738 218.467 518.998 218.447C518.849 218.148 518.731 217.835 518.647 217.512C518.391 216.549 517.943 215.646 517.332 214.858C516.72 214.07 515.957 213.413 515.087 212.925C514.217 212.438 513.258 212.129 512.267 212.019C511.275 211.908 510.272 211.997 509.316 212.281C508.36 212.565 507.47 213.038 506.7 213.672C505.93 214.306 505.295 215.087 504.832 215.971C504.369 216.854 504.088 217.822 504.006 218.816C503.924 219.81 504.042 220.81 504.353 221.758C504.933 224.232 506.131 226.519 507.833 228.405C509.536 230.292 511.688 231.716 514.09 232.547C515.699 233.072 517.383 233.335 519.076 233.326C524.073 233.055 528.939 231.628 533.292 229.158C533.136 228.691 533.058 228.223 532.961 227.756Z" fill="#8A8778"/>
<path d="M594.442 183.122C593.846 181.237 592.528 179.666 590.775 178.754C589.022 177.841 586.979 177.661 585.094 178.253C575.357 181.33 563.672 189.938 551.286 199.169C543.944 204.602 536.349 210.23 529.864 213.989L529.027 214.476C531.811 218.156 536.622 236.326 536.719 236.735C544.626 232.607 582.523 203.745 590.742 195.04C593.624 192.041 595.688 187.036 594.442 183.122Z" fill="#E1F3F6"/>
<path d="M508.462 227.307C508.008 227.303 507.566 227.16 507.196 226.898C501.354 222.711 498.296 214.668 498.179 214.337C497.975 213.794 497.995 213.193 498.234 212.666C498.474 212.138 498.913 211.727 499.455 211.523C499.997 211.319 500.598 211.338 501.126 211.578C501.654 211.817 502.065 212.256 502.269 212.798C502.269 212.798 504.995 219.945 509.747 223.334C510.218 223.674 510.535 224.186 510.63 224.759C510.725 225.331 510.59 225.918 510.254 226.392C510.052 226.678 509.783 226.911 509.471 227.07C509.159 227.23 508.812 227.311 508.462 227.307Z" fill="#8A8778"/>
<path d="M508.481 221.97C508.129 221.972 507.782 221.888 507.469 221.725C507.157 221.562 506.889 221.325 506.689 221.035C503.885 217.141 501.646 207.656 501.392 206.605C501.263 206.037 501.362 205.441 501.668 204.946C501.974 204.45 502.463 204.095 503.028 203.956C503.31 203.89 503.601 203.881 503.887 203.928C504.172 203.976 504.445 204.08 504.689 204.234C504.934 204.388 505.145 204.589 505.312 204.826C505.478 205.062 505.595 205.329 505.657 205.612C506.281 208.26 508.306 215.738 510.253 218.504C510.421 218.738 510.541 219.004 510.605 219.285C510.67 219.567 510.678 219.858 510.629 220.142C510.58 220.427 510.475 220.699 510.32 220.942C510.166 221.186 509.964 221.396 509.728 221.561C509.366 221.826 508.929 221.969 508.481 221.97Z" fill="#8A8778"/>
<path d="M511.5 220.647C511.077 220.638 510.666 220.503 510.319 220.26C509.973 220.018 509.706 219.678 509.552 219.284C507.605 214.357 506.748 204.035 506.709 203.704C506.67 203.137 506.85 202.576 507.212 202.138C507.575 201.699 508.092 201.416 508.656 201.348C509.226 201.299 509.792 201.476 510.233 201.84C510.674 202.204 510.954 202.727 511.013 203.295C511.316 208.158 512.158 212.972 513.525 217.648C513.743 218.188 513.739 218.792 513.513 219.329C513.286 219.866 512.857 220.291 512.318 220.511C512.058 220.614 511.779 220.661 511.5 220.647Z" fill="#8A8778"/>
<path d="M514.791 219.675C514.306 219.677 513.833 219.518 513.449 219.221C513.064 218.925 512.79 218.509 512.668 218.039C511.87 214.395 511.87 210.621 512.668 206.977C512.807 206.413 513.163 205.926 513.659 205.623C514.156 205.32 514.751 205.226 515.317 205.361C515.597 205.425 515.862 205.544 516.095 205.712C516.329 205.879 516.527 206.091 516.677 206.336C516.828 206.581 516.928 206.853 516.972 207.137C517.016 207.421 517.003 207.711 516.933 207.99C516.305 210.937 516.305 213.982 516.933 216.929C517.006 217.208 517.023 217.498 516.984 217.784C516.944 218.069 516.848 218.344 516.701 218.592C516.554 218.84 516.36 219.057 516.129 219.229C515.898 219.402 515.635 219.527 515.356 219.597C515.172 219.65 514.982 219.677 514.791 219.675Z" fill="#8A8778"/>
<path d="M602.874 195.039C601.837 195.031 600.814 194.798 599.875 194.357C599.043 193.964 598.296 193.411 597.678 192.73C597.06 192.048 596.583 191.251 596.273 190.384C595.964 189.518 595.829 188.598 595.875 187.679C595.922 186.76 596.15 185.859 596.545 185.029C597.986 182.248 599.73 179.636 601.745 177.239C602.946 175.816 604.663 174.928 606.518 174.771C608.373 174.614 610.215 175.2 611.638 176.401C613.061 177.602 613.949 179.319 614.106 181.174C614.263 183.03 613.676 184.871 612.475 186.294C611.228 187.767 610.138 189.366 609.223 191.066C608.645 192.257 607.743 193.262 606.62 193.965C605.497 194.668 604.199 195.04 602.874 195.039Z" fill="#8A8778"/>
<path d="M603.926 191.436C604.747 192.353 605.618 193.225 606.536 194.045C607.72 193.327 608.668 192.278 609.262 191.027C610.177 189.327 611.267 187.728 612.515 186.255C613.715 184.832 614.302 182.991 614.145 181.135C613.988 179.28 613.1 177.563 611.677 176.362C610.254 175.161 608.412 174.575 606.557 174.732C604.702 174.889 602.985 175.777 601.784 177.2C601.648 177.375 601.083 178.057 600.323 179.05C600.401 183.451 600.927 188.047 603.926 191.436Z" fill="#4F4E4C"/>
<path d="M626.965 183.646C625.62 186.893 623.042 189.475 619.797 190.826C616.552 192.177 612.904 192.186 609.652 190.851C608.04 190.19 606.575 189.216 605.341 187.988C604.106 186.759 603.126 185.298 602.457 183.69C601.787 182.082 601.442 180.357 601.44 178.615C601.438 176.873 601.78 175.148 602.446 173.538L605.952 165.028C606.613 163.417 607.587 161.952 608.815 160.717C610.044 159.482 611.505 158.502 613.113 157.833C614.721 157.164 616.446 156.818 618.188 156.816C619.93 156.815 621.655 157.156 623.264 157.823C626.515 159.163 629.101 161.74 630.452 164.987C631.803 168.234 631.81 171.884 630.47 175.135L626.965 183.646Z" fill="#8A8778"/>
<path d="M603.926 172.585C602.835 177.142 596.292 175.681 593.838 173.305C590.449 170.014 588.424 160.744 595.941 161.251C590.527 153.091 608.872 144.23 610.781 153.675C612.222 151.241 613.683 149.04 616.876 148.845C619.174 148.69 623.186 150.481 622.855 153.286C624.551 152.017 626.621 151.352 628.738 151.394C630.855 151.436 632.897 152.184 634.54 153.519C635.63 154.396 637.578 156.343 636.604 157.745C636.059 158.524 633.293 158.777 632.378 159.05C633.975 158.329 640.499 159.79 639.214 162.497C638.63 163.763 635.416 162.633 634.481 162.361V162.653C637.987 164.6 639.409 166.548 639 170.852C638.805 172.799 637.87 176.694 635.494 176.908C634.267 177.045 632.865 176.266 632.885 174.961C635.806 177.862 631.677 185.652 627.996 181.816C627.395 181.016 627.125 180.017 627.241 179.023C627.357 178.03 627.851 177.119 628.62 176.48C626.438 175.233 621.706 168.69 625.075 166.84C623.498 166.84 616.214 164.406 618.532 162.322C619.155 164.737 616.136 167.891 613.761 166.645C615.241 169.878 610.859 172.293 608.171 172.487C609.827 174.552 604.763 177.006 603.205 174.006L603.926 172.585Z" fill="#00396A"/>
<path d="M354.749 146.117C354.749 146.117 350.504 129.817 371.614 125.941L369.998 145.533L354.749 146.117Z" fill="#8A8778"/>
<path d="M270.151 187.249C265.698 187.29 261.293 186.331 257.259 184.445C238.077 175.389 235.954 148.144 235.837 146.995C235.711 145.031 236.366 143.097 237.66 141.614C238.954 140.131 240.782 139.219 242.745 139.078C244.708 138.937 246.647 139.577 248.14 140.859C249.634 142.142 250.559 143.962 250.716 145.924C251.125 151.416 254.26 166.587 263.647 170.988C271.437 174.63 283.394 170.988 298.37 160.277C299.983 159.178 301.963 158.755 303.884 159.099C305.805 159.443 307.515 160.527 308.647 162.117C309.778 163.707 310.241 165.678 309.937 167.606C309.632 169.534 308.584 171.265 307.017 172.429C293.229 182.303 280.784 187.249 270.151 187.249Z" fill="#CDE5E8"/>
<path d="M309.802 201.174C311.866 195.721 313.794 190.21 316.033 184.815C314.498 184.698 312.97 184.496 311.457 184.212C304.634 183.036 298.274 179.981 293.092 175.39C287.919 170.678 283.917 164.823 281.408 158.291C278.552 150.754 276.947 142.801 276.656 134.746C275.981 115.971 279.549 97.2861 287.094 80.081C290.351 72.7587 294.77 66.0112 300.181 60.1001C304.881 54.913 310.74 50.9094 317.28 48.4154C323.167 46.3839 329.453 45.7766 335.62 46.6432C341.788 47.5098 347.663 49.8256 352.763 53.4008C354.866 49.1943 357.144 45.0463 359.306 40.9177C361.857 36.049 364.233 31.0635 366.492 26.0586C367.466 23.9163 368.303 21.6962 369.199 19.5151C361.531 15.2062 353.199 12.2049 344.544 10.6347C332.473 8.13322 319.974 8.60776 308.127 12.0174C296.759 15.413 286.267 21.2408 277.376 29.0966C267.879 37.6456 260.048 47.8802 254.28 59.2822C241.306 84.8972 235.818 113.651 238.447 142.244C239.658 154.947 243.217 167.316 248.944 178.72C254.299 189.326 261.909 198.631 271.242 205.984C280.268 212.984 290.771 217.833 301.953 220.162C304.68 213.871 307.367 207.62 309.802 201.174Z" fill="#86CCFF"/>
<path d="M410.738 89.1932C409.549 76.4915 406.023 64.1188 400.339 52.6979C394.979 42.0948 387.369 32.7899 378.04 25.4335C375.523 23.4524 372.875 21.6436 370.114 20.0195C369.238 22.2202 368.401 24.4208 367.427 26.563C365.109 31.568 362.792 36.5534 360.221 41.4416C358.04 45.5897 355.742 49.7572 353.619 54.0027C354.379 54.5869 355.119 55.1712 355.839 55.8138C360.98 60.569 364.976 66.4286 367.524 72.9514C370.468 80.4089 372.134 88.3095 372.451 96.3209C373.136 115.096 369.568 133.784 362.013 150.986C358.769 158.392 354.284 165.189 348.751 171.084C343.96 176.205 338.066 180.168 331.516 182.671C326.86 184.383 321.901 185.118 316.949 184.833C314.475 190.675 312.392 196.771 310.133 202.73C307.873 208.689 305.381 214.415 302.791 220.14L304.543 220.51C316.617 222.998 329.114 222.516 340.961 219.108C352.327 215.718 362.819 209.897 371.711 202.048C381.229 193.547 389.092 183.36 394.905 171.999C407.899 146.398 413.394 117.646 410.758 89.0569L410.738 89.1932Z" fill="#86CCFF"/>
<path d="M327.29 228.436C315.146 226.307 303.703 221.254 293.949 213.713C284.62 206.356 277.01 197.051 271.651 186.448C265.933 175.034 262.374 162.661 261.154 149.953C258.517 121.364 264.012 92.6123 277.006 67.0108C282.819 55.6502 290.683 45.4625 300.2 36.9615C309.095 29.1056 319.595 23.2838 330.97 19.9018C342.842 16.67 355.295 16.19 367.38 18.4984C379.465 20.8067 390.864 25.8426 400.709 33.2224C410.036 40.5807 417.646 49.8851 423.007 60.4868C428.732 71.893 432.297 84.2597 433.523 96.9627C436.16 125.552 430.665 154.303 417.671 179.905C411.853 191.245 403.997 201.418 394.496 209.915C385.609 217.771 375.115 223.593 363.746 226.975C351.893 230.417 339.38 230.918 327.29 228.436ZM334.242 192.096C340.925 193.463 347.857 192.944 354.262 190.596C360.835 188.08 366.739 184.081 371.516 178.912C377.026 173.017 381.503 166.236 384.759 158.853C388.566 150.326 391.344 141.376 393.036 132.192C394.888 122.979 395.614 113.576 395.197 104.188C394.86 96.177 393.188 88.2786 390.251 80.8183C387.709 74.2976 383.713 68.443 378.566 63.7001C373.467 59.1615 367.213 56.1217 360.494 54.9171C353.714 53.5054 346.675 54.0043 340.162 56.3582C333.625 58.8588 327.768 62.8614 323.064 68.043C317.644 73.9475 313.224 80.6964 309.977 88.0239C306.131 96.5936 303.339 105.598 301.661 114.84C299.85 123.999 299.137 133.342 299.538 142.67C299.818 150.69 301.41 158.611 304.251 166.117C306.747 172.662 310.75 178.526 315.936 183.235C321.11 187.8 327.446 190.846 334.242 192.038V192.096Z" fill="#0D99FF"/>
<path d="M458.763 118.931L459.328 146.332C459.328 146.332 451.538 153.343 444.507 146.332L447.078 115.484L458.763 118.931Z" fill="#00396A"/>
<path d="M426.493 337.494C426.045 337.143 422.988 335.722 422.598 335.371C421.223 337.484 419.623 339.443 417.827 341.213C419.199 342.311 420.255 343.752 420.888 345.391C421.521 347.03 421.708 348.807 421.43 350.542C419.933 351.854 418.345 353.057 416.678 354.145C412.413 356.248 404.545 359.169 404.545 359.169L424.351 360.727L439.035 345.673C434.639 343.292 430.445 340.556 426.493 337.494Z" fill="#002E4F"/>
<path d="M348.926 338.564C345.771 338.019 341.779 340.512 339.189 338.564C338.838 341.394 338.675 344.243 338.702 347.094L309.49 359.168H346.9C347.232 355.176 346.511 351.379 347.056 347.659C347.29 345.77 348.575 340.395 348.926 338.564Z" fill="#002E4F"/>
<path d="M383.026 205.613L349.919 268.516C349.919 268.516 363.337 279.87 376.541 283.648L401.351 209.528L383.026 205.613Z" fill="#CDE5E8"/>
<path d="M419.268 342.791C421.236 340.658 422.996 338.343 424.526 335.877C415.957 328.535 411.77 320.979 400.144 307.97C395.334 302.576 408.07 271.747 411.166 266.567C416.736 257.278 417.593 250.54 421.936 234.629L389.627 246.703C381.838 274.26 372.957 301.836 381.954 314.981C391.439 328.886 408.304 340.084 416.425 345.673C416.736 345.887 418.995 342.596 419.268 342.791Z" fill="#86CCFF"/>
<path d="M364.836 142.864C364.375 142.873 363.923 142.729 363.551 142.455C363.318 142.287 363.12 142.074 362.969 141.829C362.817 141.584 362.716 141.312 362.671 141.028C362.626 140.743 362.637 140.453 362.705 140.173C362.772 139.894 362.894 139.63 363.064 139.398C364.555 137.418 365.634 135.16 366.239 132.757C366.374 132.218 366.709 131.75 367.176 131.448C367.642 131.145 368.206 131.031 368.753 131.127C369.301 131.223 369.792 131.523 370.127 131.966C370.463 132.409 370.618 132.963 370.562 133.516C369.853 136.569 368.527 139.445 366.667 141.968C366.458 142.255 366.182 142.487 365.863 142.643C365.544 142.799 365.191 142.875 364.836 142.864Z" fill="#8A8778"/>
<path d="M419.658 241.29C429.278 214.863 437.496 173.401 440.573 156.868C439.021 156.234 437.435 155.688 435.822 155.232C432.959 154.453 429.551 153.518 426.61 154.433C425.163 154.933 423.789 155.621 422.521 156.478C421.792 158.64 421.226 160.853 420.826 163.099C420.826 163.099 400.144 202.613 386.707 229.547C398.153 232.015 409.23 235.963 419.658 241.29Z" fill="#F6EE9E"/>
<path d="M386.298 230.383L382.928 237.199C380.28 241.892 377.417 246.235 374.652 250.403C348.069 290.52 338.02 322.459 336.248 337.61C338.78 339.557 348.381 340.706 351.594 341.252C356.501 316.188 369.257 300.18 392.14 281.27C399.793 274.941 405.519 266.898 410.563 260.218C414.295 254.613 417.261 248.535 419.385 242.145C408.921 236.786 397.796 232.831 386.298 230.383Z" fill="#0D99FF"/>
<path d="M360.494 241.387C358.738 241.378 357.042 240.75 355.704 239.614C354.365 238.477 353.471 236.905 353.177 235.174C352.884 233.443 353.211 231.664 354.101 230.15C354.99 228.636 356.385 227.485 358.04 226.898C367.076 223.763 380.962 211.318 390.31 198.134C400.496 183.413 411.463 169.248 423.163 155.699C423.805 154.93 424.595 154.298 425.487 153.841C426.378 153.384 427.352 153.111 428.351 153.039C429.351 152.967 430.354 153.096 431.302 153.42C432.25 153.744 433.123 154.256 433.869 154.925C434.614 155.593 435.218 156.405 435.643 157.312C436.068 158.219 436.307 159.203 436.343 160.204C436.38 161.205 436.215 162.203 435.858 163.139C435.501 164.075 434.958 164.929 434.264 165.651C422.958 178.775 412.349 192.485 402.481 206.722C393.25 219.809 376.931 236.129 362.928 240.978C362.144 241.243 361.322 241.381 360.494 241.387Z" fill="#8A8778"/>
<path d="M435.393 159.341H434.867C433.013 159.196 431.292 158.325 430.077 156.917C428.863 155.509 428.253 153.679 428.382 151.824C428.727 148.701 429.413 145.625 430.427 142.651C431.031 140.892 432.31 139.446 433.98 138.63C435.651 137.813 437.578 137.694 439.337 138.299C441.095 138.903 442.542 140.181 443.358 141.852C444.174 143.523 444.294 145.449 443.689 147.208C443.058 149.04 442.62 150.933 442.384 152.856C442.243 154.616 441.446 156.259 440.152 157.46C438.857 158.661 437.159 159.332 435.393 159.341Z" fill="#8A8778"/>
<path d="M437.341 151.942C438.575 153.348 439.924 154.651 441.372 155.837C441.893 154.93 442.206 153.919 442.287 152.877C442.523 150.953 442.96 149.061 443.592 147.229C444.136 145.63 444.084 143.889 443.446 142.325C442.809 140.761 441.628 139.48 440.121 138.717C438.614 137.954 436.883 137.761 435.245 138.173C433.607 138.584 432.173 139.573 431.206 140.958C431.888 144.873 435.12 149.332 437.341 151.942Z" fill="#6B695F"/>
<path d="M455.452 136.751C455.414 138.498 455.031 140.221 454.324 141.82C453.617 143.419 452.601 144.861 451.333 146.065C450.066 147.269 448.573 148.21 446.94 148.835C445.307 149.459 443.567 149.753 441.82 149.701C440.072 149.664 438.349 149.28 436.751 148.573C435.152 147.866 433.709 146.85 432.505 145.583C431.301 144.315 430.36 142.822 429.736 141.189C429.112 139.557 428.817 137.816 428.869 136.069L429.064 126.877C429.104 125.129 429.489 123.407 430.197 121.808C430.904 120.21 431.92 118.767 433.187 117.562C434.453 116.357 435.945 115.414 437.577 114.786C439.209 114.159 440.949 113.86 442.696 113.907C444.444 113.947 446.166 114.332 447.765 115.04C449.363 115.748 450.807 116.764 452.012 118.03C453.216 119.297 454.16 120.789 454.787 122.42C455.414 124.052 455.713 125.792 455.666 127.539L455.452 136.751Z" fill="#8A8778"/>
<path d="M349.958 239.344C346.338 239.211 342.778 238.371 339.481 236.87C338.982 236.62 338.598 236.191 338.404 235.668C338.211 235.145 338.222 234.569 338.438 234.055C338.653 233.54 339.055 233.127 339.563 232.898C340.071 232.669 340.647 232.641 341.175 232.82C347.017 235.254 351.555 235.605 354.476 233.832C354.972 233.533 355.566 233.443 356.129 233.581C356.691 233.72 357.176 234.077 357.475 234.573C357.775 235.068 357.865 235.663 357.726 236.225C357.587 236.788 357.231 237.272 356.735 237.572C354.684 238.779 352.338 239.393 349.958 239.344Z" fill="#8A8778"/>
<path d="M352.588 242.517C349.385 242.433 346.205 241.949 343.123 241.076L342.13 240.842C341.609 240.668 341.172 240.305 340.905 239.825C340.638 239.344 340.56 238.782 340.687 238.247C340.814 237.712 341.136 237.245 341.591 236.936C342.045 236.627 342.599 236.499 343.142 236.577L344.155 236.811C349.545 238.53 355.33 238.578 360.747 236.947C361.026 236.871 361.317 236.852 361.604 236.891C361.89 236.93 362.166 237.025 362.415 237.173C362.663 237.32 362.88 237.515 363.052 237.747C363.224 237.979 363.347 238.244 363.415 238.525C363.558 239.088 363.472 239.684 363.176 240.184C362.881 240.683 362.4 241.046 361.838 241.193C358.823 242.022 355.714 242.467 352.588 242.517Z" fill="#8A8778"/>
<path d="M349.802 235.018C345.463 234.953 341.282 233.376 337.981 230.558C337.768 230.365 337.595 230.131 337.472 229.87C337.35 229.609 337.28 229.326 337.267 229.038C337.255 228.751 337.299 228.463 337.398 228.192C337.498 227.922 337.649 227.673 337.845 227.462C338.241 227.04 338.787 226.789 339.366 226.764C339.944 226.738 340.509 226.94 340.941 227.325C342.586 228.709 344.529 229.691 346.617 230.194C348.706 230.698 350.883 230.709 352.977 230.227C353.256 230.151 353.547 230.132 353.833 230.171C354.12 230.21 354.395 230.305 354.644 230.452C354.893 230.599 355.109 230.795 355.281 231.027C355.453 231.259 355.577 231.524 355.645 231.805C355.787 232.368 355.701 232.964 355.405 233.463C355.11 233.963 354.629 234.326 354.067 234.473C352.673 234.827 351.241 235.011 349.802 235.018Z" fill="#8A8778"/>
<path d="M354.398 232.662H354.145C351.999 232.459 349.927 231.772 348.085 230.652C346.243 229.532 344.679 228.009 343.512 226.196C343.228 225.68 343.161 225.071 343.325 224.505C343.49 223.939 343.872 223.462 344.389 223.177C344.905 222.893 345.513 222.826 346.079 222.99C346.645 223.155 347.123 223.537 347.407 224.054C348.225 225.268 349.307 226.282 350.571 227.021C351.836 227.759 353.25 228.203 354.71 228.319C355.289 228.352 355.83 228.614 356.215 229.047C356.601 229.48 356.798 230.048 356.765 230.627C356.731 231.205 356.469 231.746 356.036 232.132C355.604 232.517 355.035 232.715 354.457 232.681L354.398 232.662Z" fill="#8A8778"/>
<path d="M380.592 146.041H380.241C376.619 145.438 366.609 143.88 364.389 143.88C364.084 143.909 363.776 143.873 363.485 143.776C363.195 143.679 362.928 143.523 362.701 143.316C362.474 143.11 362.293 142.859 362.169 142.579C362.045 142.298 361.981 141.995 361.981 141.689C361.981 141.382 362.045 141.079 362.169 140.799C362.293 140.519 362.474 140.268 362.701 140.061C362.928 139.855 363.195 139.698 363.485 139.601C363.776 139.504 364.084 139.469 364.389 139.498C367.466 139.498 379.579 141.445 380.962 141.718C381.497 141.82 381.975 142.116 382.304 142.55C382.634 142.983 382.79 143.524 382.744 144.066C382.698 144.609 382.453 145.115 382.055 145.487C381.658 145.859 381.136 146.07 380.592 146.08V146.041Z" fill="#8A8778"/>
<path d="M379.19 150.635C379.002 150.662 378.812 150.662 378.625 150.635C373.576 149.232 368.435 148.184 363.24 147.5C362.661 147.459 362.121 147.194 361.736 146.761C361.35 146.328 361.149 145.761 361.176 145.182C361.191 144.894 361.263 144.611 361.387 144.351C361.512 144.091 361.688 143.858 361.903 143.666C362.119 143.474 362.37 143.326 362.643 143.232C362.916 143.138 363.205 143.099 363.493 143.118C368.993 143.817 374.434 144.917 379.774 146.409C380.303 146.532 380.767 146.848 381.076 147.295C381.384 147.742 381.515 148.289 381.442 148.827C381.369 149.365 381.097 149.857 380.681 150.206C380.264 150.555 379.733 150.735 379.19 150.713V150.635Z" fill="#8A8778"/>
<path d="M378.138 155.464C377.912 155.463 377.688 155.424 377.476 155.347C367.602 152.172 365.168 151.978 363.844 151.861C363.226 151.835 362.612 151.744 362.013 151.588C361.719 151.529 361.44 151.41 361.193 151.238C360.947 151.067 360.738 150.847 360.58 150.592C360.421 150.337 360.317 150.052 360.272 149.755C360.228 149.458 360.245 149.155 360.322 148.865C360.4 148.575 360.535 148.304 360.721 148.068C360.907 147.832 361.139 147.637 361.404 147.495C361.668 147.352 361.958 147.265 362.257 147.239C362.557 147.213 362.858 147.248 363.143 147.343C363.487 147.433 363.839 147.485 364.194 147.499C365.772 147.635 368.44 147.849 378.8 151.179C379.292 151.346 379.709 151.681 379.977 152.126C380.246 152.571 380.348 153.096 380.267 153.609C380.185 154.122 379.925 154.589 379.532 154.929C379.138 155.268 378.638 155.458 378.119 155.464H378.138Z" fill="#8A8778"/>
<path d="M373.815 158.972H373.639C363.766 158.252 363.357 152.896 363.337 152.273H367.719V152.137C367.719 152.137 368.167 154.279 373.971 154.688C374.517 154.755 375.018 155.025 375.375 155.444C375.733 155.863 375.92 156.4 375.9 156.95C375.881 157.5 375.656 158.023 375.27 158.415C374.884 158.808 374.364 159.041 373.815 159.07V158.972Z" fill="#8A8778"/>
<path d="M365.518 156.381C363.976 155.771 362.328 155.473 360.669 155.505C358.177 155.505 354.827 151.26 354.827 146.878C354.827 146.878 353.6 133.947 367.271 139.789L365.518 156.381Z" fill="#8A8778"/>
<path d="M408.557 194.804L389.394 289.119C389.394 289.119 419.073 296.266 437.263 285.789L441.859 154.745C441.859 154.745 421.508 147.636 408.557 194.804Z" fill="#CDE5E8"/>
<path d="M412.997 246.704L431.343 245.711C431.343 245.711 431.771 273.774 420.826 272.683C420.826 272.683 405.811 275.955 412.997 246.704Z" fill="#E1F3F6"/>
<path d="M436.036 152.487C433.872 150.545 431.025 149.543 428.121 149.7C425.218 149.857 422.496 151.161 420.554 153.325C408.765 167.008 397.713 181.309 387.447 196.169C386.181 197.96 384.818 199.771 383.338 201.563L381.39 203.958L383.513 206.198C385.772 208.593 388.148 210.911 390.446 213.15L394.146 216.831L396.853 219.558L399.326 216.617C401.527 213.988 403.552 211.359 405.363 208.827C415.155 194.705 425.672 181.1 436.873 168.067C437.845 166.991 438.594 165.733 439.078 164.366C439.562 163 439.771 161.551 439.693 160.103C439.616 158.655 439.252 157.237 438.625 155.93C437.997 154.623 437.117 153.453 436.036 152.487Z" fill="#E1F3F6"/>
<path d="M385.704 195.492L378.298 203.734L397.579 221.058L404.985 212.816L385.704 195.492Z" fill="#F8FDFF"/>
<path d="M415.626 142.007L432.491 148.609C432.491 148.609 439.658 113.75 434.439 108.511C434.419 108.511 415.626 106.739 415.626 142.007Z" fill="#00396A"/>
<path d="M435.393 114.588C435.997 115.484 449.025 124.208 459.327 121.793C459.327 121.793 457.574 106.37 433.621 108.59L435.393 114.588Z" fill="#00396A"/>
<path d="M445.5 131.065C445.504 132.518 445.077 133.939 444.272 135.149C443.468 136.359 442.323 137.303 440.981 137.862C439.64 138.42 438.163 138.568 436.738 138.287C435.312 138.006 434.002 137.309 432.974 136.283C431.945 135.257 431.244 133.948 430.959 132.524C430.674 131.099 430.818 129.622 431.373 128.279C431.929 126.936 432.87 125.789 434.077 124.981C435.285 124.173 436.705 123.742 438.158 123.742C439.122 123.74 440.076 123.927 440.966 124.294C441.857 124.661 442.667 125.2 443.349 125.88C444.031 126.56 444.572 127.368 444.941 128.258C445.31 129.148 445.5 130.101 445.5 131.065V131.065Z" stroke="#DDDD67" stroke-width="1.69429" stroke-miterlimit="10"/>
<path d="M462.034 132.466C462.034 133.725 461.661 134.957 460.961 136.004C460.261 137.051 459.267 137.867 458.103 138.349C456.939 138.831 455.659 138.957 454.424 138.712C453.188 138.466 452.054 137.859 451.163 136.969C450.272 136.078 449.666 134.944 449.42 133.708C449.174 132.473 449.301 131.193 449.783 130.029C450.265 128.865 451.081 127.871 452.128 127.171C453.175 126.471 454.407 126.098 455.666 126.098C456.503 126.095 457.332 126.258 458.106 126.577C458.88 126.896 459.583 127.365 460.175 127.957C460.767 128.549 461.236 129.252 461.555 130.026C461.874 130.8 462.037 131.629 462.034 132.466Z" stroke="#DDDD67" stroke-width="1.46059" stroke-miterlimit="10"/>
<path d="M445.5 131.064C446.136 130.796 446.832 130.701 447.516 130.79C448.201 130.879 448.849 131.148 449.395 131.57" stroke="#DDDD67" stroke-width="1.69429" stroke-miterlimit="10"/>
<path d="M232.273 143.858H231.748C229.893 143.723 228.169 142.858 226.953 141.452C225.736 140.046 225.129 138.214 225.263 136.36C225.588 133.227 226.274 130.143 227.307 127.168C227.608 126.297 228.077 125.494 228.688 124.805C229.299 124.115 230.039 123.553 230.868 123.149C231.696 122.746 232.595 122.51 233.515 122.454C234.434 122.399 235.356 122.525 236.227 122.825C237.097 123.126 237.901 123.595 238.59 124.206C239.28 124.816 239.842 125.557 240.245 126.385C240.649 127.214 240.885 128.113 240.94 129.033C240.996 129.952 240.87 130.874 240.57 131.744C239.938 133.571 239.494 135.456 239.245 137.373C239.122 139.136 238.333 140.787 237.039 141.991C235.744 143.195 234.041 143.862 232.273 143.858Z" fill="#8A8778"/>
<path d="M228.105 338.526C234.982 341.745 242.428 343.572 250.014 343.901C257.59 330.425 280.414 293.91 259.654 263.958L230.287 248.164C230.287 248.164 259.654 278.817 228.105 338.526Z" fill="#86CCFF"/>
<path d="M243.296 350.465C243.296 350.465 246.003 344.953 248.126 341.273C246.548 341.078 239.42 340.786 236.441 339.656C232.655 346.481 228.331 352.993 223.51 359.131H262.965L243.296 350.465Z" fill="#002E4F"/>
<path d="M292.099 265.711C287.192 256.188 251.553 227.501 248.34 211.026C248.048 209.565 247.795 208.066 247.581 206.547C241.855 209.565 234.435 210.442 228.554 210.695C221.874 211.026 217.882 211.435 211.416 208.3C211.962 218.524 210.306 228.397 216.265 238.738C228.106 259.304 267.425 276.889 271.826 283.686C280.473 297.084 283.511 326.16 286.413 343.901C291.048 343.901 301.993 343.687 306.53 342.09C305.011 332.995 307.484 295.546 292.099 265.711Z" fill="#0D99FF"/>
<path d="M304.388 348.869C304.388 348.869 303.102 343.688 302.732 341.273C298.214 342.851 295.585 341.273 291.047 341.273C291.749 345.675 291.223 353.893 291.632 358.801H329.042L304.388 348.869Z" fill="#002E4F"/>
<path d="M228.826 216.071C234.513 215.818 246.49 214.221 251.281 209.43C250.307 201.64 246.801 189.021 248.048 178.894C252.215 144.561 235.448 134.278 235.448 134.278C235.448 134.278 227.658 128.883 221.484 135.33C212.039 145.067 202.847 172.507 203.763 213.111C210.267 216.461 221.991 216.383 228.826 216.071Z" fill="#CDE5E8"/>
<path d="M314.787 226.896C314.218 226.895 313.65 226.836 313.093 226.721C286.082 220.45 263.218 204.267 246.879 179.982C239.567 169.153 233.995 157.246 230.365 144.694C229.962 142.808 230.307 140.838 231.325 139.2C232.344 137.562 233.958 136.382 235.828 135.908C237.698 135.434 239.678 135.704 241.354 136.659C243.03 137.615 244.27 139.182 244.815 141.033C248.111 152.121 253.104 162.632 259.616 172.192C273.929 193.4 293.053 206.915 316.462 212.349C318.258 212.745 319.844 213.793 320.913 215.29C321.981 216.788 322.458 218.628 322.25 220.455C322.041 222.283 321.164 223.969 319.785 225.187C318.407 226.405 316.627 227.07 314.787 227.052V226.896Z" fill="#8A8778"/>
<path d="M298.37 204.522C283.036 197.075 270.017 185.597 260.706 171.318C254.295 161.896 249.368 151.544 246.1 140.626C245.821 139.508 245.323 138.456 244.635 137.532C243.948 136.607 243.084 135.827 242.094 135.237C241.104 134.647 240.007 134.258 238.867 134.094C237.726 133.929 236.564 133.991 235.448 134.277C234.332 134.557 233.282 135.054 232.359 135.741C231.435 136.427 230.656 137.289 230.066 138.276C229.477 139.264 229.088 140.359 228.922 141.497C228.756 142.635 228.816 143.795 229.099 144.911V145.086C232.419 158.962 238.076 172.173 245.828 184.152C258.27 203.221 276.223 218.049 297.299 226.665C297.454 226.725 297.619 226.758 297.786 226.762C298.051 226.762 298.309 226.681 298.526 226.528C298.703 226.407 298.849 226.244 298.951 226.054C299.053 225.865 299.107 225.653 299.11 225.438V205.71C299.115 205.462 299.047 205.217 298.916 205.007C298.785 204.796 298.595 204.628 298.37 204.522Z" fill="#E1F3F6"/>
<path d="M320.318 227.443C317.767 227.422 315.223 227.154 312.723 226.645C312.189 226.495 311.731 226.149 311.441 225.677C311.151 225.204 311.05 224.64 311.158 224.096C311.267 223.552 311.576 223.069 312.025 222.744C312.474 222.418 313.029 222.274 313.58 222.341C320.104 223.645 325.557 223.159 329.763 220.919C330.281 220.65 330.883 220.595 331.441 220.766C331.998 220.937 332.466 221.321 332.743 221.834C332.878 222.088 332.962 222.367 332.99 222.654C333.017 222.941 332.987 223.23 332.902 223.505C332.817 223.78 332.678 224.036 332.494 224.257C332.309 224.479 332.083 224.661 331.828 224.794C328.271 226.619 324.315 227.53 320.318 227.443Z" fill="#8A8778"/>
<path d="M320.629 222.595C319.554 222.592 318.48 222.514 317.416 222.362C317.115 222.339 316.821 222.254 316.554 222.113C316.287 221.972 316.052 221.777 315.863 221.541C315.675 221.305 315.537 221.032 315.458 220.741C315.379 220.449 315.362 220.144 315.406 219.845C315.45 219.546 315.555 219.26 315.715 219.003C315.875 218.747 316.086 218.526 316.335 218.355C316.584 218.183 316.865 218.065 317.162 218.007C317.458 217.95 317.764 217.953 318.059 218.019C322.765 218.503 327.509 217.581 331.691 215.37C332.195 215.088 332.791 215.015 333.348 215.168C333.906 215.321 334.381 215.688 334.671 216.188C334.816 216.436 334.911 216.71 334.95 216.994C334.989 217.279 334.971 217.568 334.896 217.846C334.822 218.123 334.693 218.383 334.517 218.61C334.341 218.837 334.122 219.026 333.872 219.168C329.794 221.35 325.254 222.525 320.629 222.595Z" fill="#8A8778"/>
<path d="M318.682 218.212H317.65C317.087 218.148 316.57 217.869 316.207 217.434C315.845 216.999 315.664 216.44 315.702 215.875C315.717 215.587 315.789 215.306 315.914 215.046C316.039 214.787 316.215 214.555 316.431 214.365C316.647 214.174 316.899 214.029 317.171 213.937C317.444 213.845 317.733 213.809 318.02 213.83C319.47 213.966 320.933 213.78 322.303 213.285C323.673 212.79 324.917 211.998 325.946 210.967C326.327 210.564 326.847 210.319 327.4 210.282C327.954 210.245 328.502 210.419 328.933 210.769C329.364 211.119 329.647 211.619 329.725 212.168C329.803 212.718 329.671 213.277 329.354 213.733C327.998 215.198 326.344 216.356 324.503 217.128C322.662 217.901 320.677 218.27 318.682 218.212Z" fill="#8A8778"/>
<path d="M311.106 214.53C310.561 214.479 310.054 214.226 309.685 213.82C309.317 213.415 309.112 212.887 309.112 212.339C309.112 211.791 309.317 211.263 309.685 210.858C310.054 210.453 310.561 210.2 311.106 210.148C312.47 210.085 313.803 209.723 315.012 209.087C316.22 208.45 317.273 207.556 318.098 206.468C318.428 205.99 318.935 205.663 319.506 205.559C320.078 205.455 320.668 205.582 321.145 205.913C321.623 206.243 321.95 206.75 322.054 207.322C322.158 207.893 322.031 208.483 321.7 208.96C320.468 210.627 318.876 211.994 317.041 212.958C315.207 213.923 313.178 214.46 311.106 214.53Z" fill="#8A8778"/>
<path d="M303.94 165.047C303.593 165.048 303.25 164.965 302.942 164.806C302.633 164.646 302.368 164.415 302.168 164.131C300.306 161.617 298.98 158.747 298.273 155.699C298.197 155.404 298.183 155.097 298.232 154.797C298.28 154.496 298.391 154.209 298.556 153.954C298.722 153.698 298.938 153.48 299.192 153.313C299.446 153.145 299.732 153.032 300.032 152.981C300.332 152.929 300.64 152.941 300.935 153.014C301.23 153.088 301.507 153.222 301.748 153.408C301.989 153.593 302.189 153.827 302.335 154.094C302.481 154.361 302.57 154.656 302.596 154.959C303.211 157.352 304.289 159.602 305.77 161.58C305.94 161.813 306.062 162.076 306.13 162.356C306.197 162.636 306.209 162.926 306.163 163.21C306.118 163.495 306.017 163.767 305.866 164.012C305.715 164.257 305.517 164.47 305.283 164.638C304.891 164.915 304.42 165.058 303.94 165.047Z" fill="#8A8778"/>
<path d="M304.407 166.119H303.979C299.208 165.485 294.4 165.172 289.587 165.184C289.282 165.213 288.974 165.178 288.684 165.081C288.393 164.984 288.126 164.827 287.899 164.621C287.673 164.415 287.491 164.164 287.368 163.883C287.244 163.603 287.18 163.3 287.18 162.994C287.18 162.687 287.244 162.384 287.368 162.104C287.491 161.824 287.673 161.572 287.899 161.366C288.126 161.16 288.393 161.003 288.684 160.906C288.974 160.809 289.282 160.774 289.587 160.803C294.681 160.784 299.77 161.123 304.816 161.815C305.335 161.936 305.793 162.24 306.105 162.672C306.417 163.104 306.561 163.635 306.511 164.166C306.461 164.696 306.22 165.191 305.833 165.557C305.446 165.923 304.94 166.137 304.407 166.158V166.119Z" fill="#8A8778"/>
<path d="M288.379 170.576C287.801 170.612 287.232 170.417 286.797 170.034C286.362 169.65 286.098 169.11 286.062 168.531C286.026 167.953 286.221 167.384 286.604 166.949C286.988 166.515 287.528 166.25 288.107 166.214C289.509 166.039 301.739 164.539 305.79 165.24C306.329 165.376 306.796 165.711 307.099 166.177C307.401 166.644 307.516 167.207 307.419 167.755C307.323 168.302 307.023 168.793 306.58 169.129C306.137 169.464 305.583 169.62 305.03 169.564C302.518 169.116 293.657 169.934 288.652 170.557L288.379 170.576Z" fill="#8A8778"/>
<path d="M291.281 175.544C290.749 175.523 290.242 175.31 289.855 174.943C289.468 174.577 289.228 174.082 289.178 173.552C289.128 173.021 289.272 172.491 289.584 172.059C289.895 171.626 290.353 171.322 290.872 171.202C294.03 170.669 297.142 169.894 300.181 168.884C301.369 168.495 302.869 168.027 305.108 167.365C305.665 167.215 306.258 167.289 306.761 167.571C307.263 167.854 307.635 168.322 307.795 168.876C307.956 169.43 307.893 170.024 307.62 170.532C307.347 171.04 306.886 171.42 306.335 171.591C304.154 172.214 302.752 172.662 301.506 173.071C298.325 174.124 295.07 174.938 291.768 175.506L291.281 175.544Z" fill="#8A8778"/>
<path d="M295.955 179.03C295.41 179.02 294.889 178.809 294.491 178.436C294.094 178.064 293.848 177.558 293.802 177.016C293.756 176.473 293.913 175.933 294.242 175.499C294.572 175.065 295.05 174.769 295.585 174.668C302.674 173.46 304.095 170.773 304.095 170.773C304.307 170.257 304.706 169.84 305.213 169.607C305.719 169.374 306.295 169.343 306.825 169.518C307.354 169.694 307.797 170.064 308.064 170.553C308.331 171.043 308.402 171.615 308.263 172.155C307.99 173.012 306.101 177.316 296.325 178.991L295.955 179.03Z" fill="#8A8778"/>
<path d="M304.407 176.382L302.732 158.523C304.914 158.698 306.943 159.71 308.395 161.347C309.847 162.984 310.61 165.12 310.522 167.306C310.542 170.013 309.743 173.09 304.407 176.382Z" fill="#8A8778"/>
<path d="M255.078 118.191C256.022 121.783 255.502 125.603 253.633 128.812C251.763 132.021 248.697 134.358 245.107 135.309C241.512 136.259 237.687 135.742 234.473 133.872C231.26 132.002 228.92 128.932 227.969 125.338L225.496 115.951C225.023 114.172 224.905 112.318 225.149 110.493C225.393 108.669 225.994 106.911 226.919 105.319C227.843 103.727 229.072 102.333 230.535 101.217C231.999 100.101 233.668 99.2839 235.448 98.8134C237.228 98.3404 239.083 98.2232 240.909 98.4685C242.734 98.7139 244.493 99.317 246.085 100.243C247.677 101.169 249.071 102.401 250.186 103.866C251.301 105.332 252.117 107.003 252.585 108.784L255.078 118.191Z" fill="#8A8778"/>
<path d="M253.754 113.207C252.824 116.216 251.141 118.937 248.866 121.114C245.964 123.517 242.466 125.09 238.742 125.666C235.019 126.242 231.209 125.799 227.716 124.385L227.969 125.34C228.989 128.854 231.342 131.831 234.526 133.634C237.71 135.438 241.472 135.925 245.011 134.992C248.549 134.059 251.583 131.78 253.464 128.641C255.345 125.502 255.924 121.753 255.078 118.193L253.754 113.207Z" fill="#00396A"/>
<path d="M227.93 124.833C222.672 121.445 216.985 108.611 225.301 105.807C230.442 104.054 228.378 119.906 228.378 124.385L227.93 124.833Z" fill="#00396A"/>
<path d="M223.705 106.859C217.356 102.243 225.243 89.2148 240.94 89.2148C250.677 89.2148 250.677 96.6541 243.88 100.666C238.291 103.996 229.664 102.049 225.477 107.735L223.705 106.859Z" fill="#00396A"/>
<path d="M253.754 116.088C250.687 111.575 247.91 106.872 245.438 102.008C244.348 99.5737 242.867 95.4061 247.775 98.3662C251.865 100.84 254.104 109.584 253.715 113.946L253.754 116.088Z" fill="#00396A"/>
<path d="M142.71 147.247C140.168 149.393 137.743 151.675 135.446 154.082L103.8 220.179L127.344 189.76L152.369 138.055C149.117 141.151 145.962 144.228 142.71 147.247Z" fill="#86CCFF"/>
<path d="M123.936 136.4C126.234 133.264 128.435 129.584 131.045 126.332L75.6589 99.3008L23.0775 104.559L115.153 147.013C118.211 143.566 121.249 140.081 123.936 136.4Z" fill="#86CCFF"/>
<path d="M131.843 126.723C128.902 130.403 126.507 134.746 123.683 138.174C121.151 141.27 118.6 144.347 115.991 147.385L157.861 166.684L173.051 146.84L131.843 126.723Z" fill="#86CCFF"/>
<path d="M68.8037 203.432L85.0455 169.508L0 128.806L13.6322 100.276L153.693 17.7812L191.902 36.0873L135.738 153.422L158.854 164.503L143.274 197.278L120.119 186.197L103.897 220.122L68.8037 203.432ZM131.804 71.8232L129.662 70.791L54.743 114.648L100.761 136.674L131.804 71.8232Z" fill="#0D99FF"/>
<path d="M158.893 164.503L173.051 146.84L161.951 171.475L142.651 198.408L158.893 164.503Z" fill="#86CCFF"/>
<path d="M153.479 137.062L208.709 15.9883L191.961 36.086L135.796 153.42C137.315 151.921 152.583 137.958 153.479 137.062Z" fill="#86CCFF"/>
<path d="M13.6516 100.275L38.5985 78.541L175.466 0L153.713 17.7803L13.6516 100.275Z" fill="#86CCFF"/>
<path d="M153.713 17.7803L191.922 36.0864L208.709 15.9886L175.466 0L153.713 17.7803Z" fill="#86CCFF"/>
<path d="M106.799 106.216C102.105 102.866 98.8726 104.268 96.6135 104.697C95.1024 104.898 93.5689 104.553 92.2902 103.723C92.0498 103.567 91.781 103.46 91.4992 103.407C91.2174 103.355 90.9281 103.359 90.6478 103.419C90.3675 103.479 90.1017 103.593 89.8656 103.755C89.6295 103.918 89.4276 104.125 89.2716 104.365C89.1156 104.606 89.0085 104.875 88.9564 105.156C88.9042 105.438 88.9081 105.728 88.9678 106.008C89.0275 106.288 89.1418 106.554 89.3042 106.79C89.4666 107.026 89.6739 107.228 89.9143 107.384C91.5797 108.371 93.3855 109.1 95.2698 109.546C91.628 112.876 87.9084 116.888 87.6942 117.121C87.4985 117.333 87.3468 117.581 87.2476 117.852C87.1485 118.122 87.104 118.41 87.1167 118.698C87.1293 118.986 87.199 119.268 87.3215 119.529C87.444 119.79 87.617 120.024 87.8305 120.218C88.2336 120.588 88.7632 120.79 89.3106 120.783C89.6134 120.781 89.9128 120.718 90.1906 120.598C90.4684 120.477 90.7189 120.301 90.927 120.081C90.927 120.081 93.556 117.238 96.4383 114.453C93.7508 117.822 91.2386 121.308 90.7712 121.951C90.5344 122.28 90.3931 122.668 90.3629 123.073C90.3327 123.477 90.4148 123.882 90.6002 124.242C90.7855 124.603 91.0669 124.905 91.4132 125.116C91.7595 125.327 92.1574 125.438 92.5628 125.437C92.9094 125.435 93.2506 125.351 93.5586 125.192C93.8665 125.033 94.1326 124.803 94.335 124.522C95.7761 122.574 97.8015 119.809 99.7295 117.374C99.0089 118.796 98.0936 120.412 96.2825 123.353C96.129 123.597 96.0253 123.869 95.9775 124.153C95.9296 124.437 95.9386 124.728 96.0037 125.009C96.0689 125.289 96.1891 125.554 96.3573 125.788C96.5254 126.022 96.7383 126.22 96.9836 126.372C97.4775 126.677 98.0718 126.774 98.6372 126.643C99.2025 126.511 99.6931 126.162 100.002 125.671L101.95 122.594C101.76 123.064 101.739 123.585 101.892 124.068C102.045 124.552 102.361 124.967 102.787 125.242C103.142 125.469 103.554 125.591 103.975 125.593C104.339 125.595 104.698 125.505 105.018 125.331C105.338 125.157 105.609 124.906 105.806 124.6C107.441 122.242 108.623 119.6 109.292 116.81H109.389C110.518 110.734 109.038 107.812 106.799 106.216ZM102.378 121.639C103.099 120.374 103.585 119.4 104.053 118.446C103.578 119.552 103.018 120.62 102.378 121.639Z" fill="#8A8778"/>
<path d="M39.6696 131.064C32.7367 130.675 22.6488 144.249 32.9509 147.949C23.642 147.734 21.2661 160.919 29.8934 164.561C14.9369 161.639 16.6701 181.036 23.7589 188.066C22.5559 187.917 21.3346 188.04 20.1859 188.427C19.0373 188.815 17.9907 189.456 17.1242 190.304C16.2577 191.152 15.5935 192.184 15.1811 193.324C14.7687 194.464 14.6186 195.682 14.7421 196.888C15.4822 201.913 17.4686 208.885 29.9128 212.624C42.3571 216.363 49.9716 209.372 56.1646 202.77C60.0595 210.871 79.7093 199.926 77.5866 190.247C84.9675 192.857 91.5888 184.405 91.7446 177.764C91.9004 171.123 87.3044 166.235 82.9421 161.99C86.0191 159.166 86.6033 153.966 85.7854 149.974C84.4417 143.353 76.1649 142.71 76.1649 137.432C76.1649 135.602 76.5155 129.876 74.9381 127.364C72.4453 123.352 68.1025 119.399 62.6301 121.346C39.6696 110.441 39.6696 131.064 39.6696 131.064Z" fill="#00396A"/>
<path d="M53.0683 343.9C46.7585 342.789 45.7264 343.101 39.4361 341.582L24.986 359.265H81.0922L48.5112 350.501L53.0683 343.9Z" fill="#002E4F"/>
<path d="M157.569 348.964L154.239 344.602C151.285 346.575 148.1 348.177 144.755 349.373L153.616 359.266H186.489L157.569 348.964Z" fill="#002E4F"/>
<path d="M33.5352 343.961C39.8254 345.499 46.1157 347.096 52.4839 348.167L98.8139 291.165L91.0241 268.516L58.5795 231.105L67.9273 284.115L33.5352 343.961Z" fill="#86CCFF"/>
<path d="M96.5357 215.408C83.8382 212.038 66.5838 216.303 54.2174 220.977C54.2174 220.977 61.8125 251.182 66.798 260.18C81.2871 286.412 144.034 351.885 144.034 351.885C147.481 350.717 154.122 345.868 157.16 343.901L96.5357 215.408Z" fill="#0D99FF"/>
<path d="M52.5617 232.78C64.8307 228.184 89.5634 220.395 102.105 223.549C102.105 223.549 85.3569 184.25 77.7618 175.584C72.64 169.741 44.655 153.246 44.655 174.785C44.9857 194.362 47.6399 213.83 52.5617 232.78Z" fill="#CDE5E8"/>
<path d="M63.4288 172.955L62.9419 173.111C61.1446 173.594 59.2293 173.344 57.6157 172.417C56.0022 171.49 54.8221 169.96 54.3342 168.164C53.6279 165.098 53.2557 161.964 53.2241 158.817C53.3189 157.019 54.0998 155.325 55.4061 154.086C56.7123 152.847 58.4442 152.156 60.2447 152.156C62.0452 152.156 63.7771 152.847 65.0833 154.086C66.3896 155.325 67.1706 157.019 67.2653 158.817C67.2571 160.781 67.4661 162.74 67.8885 164.659C68.3034 166.349 68.0771 168.132 67.2533 169.664C66.4296 171.197 65.0669 172.369 63.4288 172.955Z" fill="#8A8778"/>
<path d="M68.1612 166.119C68.1311 165.607 68.0528 165.098 67.9275 164.6C67.5052 162.682 67.2962 160.723 67.3044 158.758C67.2096 156.96 66.4286 155.267 65.1224 154.028C63.8162 152.788 62.0843 152.098 60.2838 152.098C58.4833 152.098 56.7514 152.788 55.4451 154.028C54.1389 155.267 53.3579 156.96 53.2632 158.758C53.2632 158.855 53.2632 159.07 53.2632 159.362C56.7297 163.315 62.4357 165.165 68.1612 166.119Z" fill="#4F4E49"/>
<path d="M75.1136 144.988C76.2001 148.332 75.9139 151.971 74.318 155.105C72.7221 158.238 69.9471 160.609 66.6033 161.697C63.2562 162.779 59.617 162.491 56.4819 160.896C53.3468 159.301 50.9711 156.529 49.8746 153.187L47.0313 144.423C46.4938 142.766 46.288 141.019 46.4258 139.283C46.5636 137.546 47.0422 135.853 47.8344 134.302C48.6265 132.75 49.7166 131.369 51.0424 130.239C52.3682 129.109 53.9037 128.251 55.5612 127.714C58.9056 126.633 62.5422 126.922 65.6742 128.517C68.8061 130.112 71.1781 132.884 72.2704 136.225L75.1136 144.988Z" fill="#8A8778"/>
<path d="M153.129 137.938C152.855 137.72 152.535 137.566 152.194 137.49L153.245 136.341C153.442 136.131 153.596 135.884 153.696 135.614C153.797 135.344 153.843 135.057 153.832 134.769C153.822 134.481 153.754 134.198 153.633 133.936C153.512 133.675 153.341 133.44 153.129 133.245L152.778 132.972C153.076 132.541 153.21 132.018 153.156 131.497C153.103 130.975 152.865 130.49 152.486 130.129C152.191 129.854 151.825 129.667 151.429 129.588C151.034 129.509 150.625 129.541 150.246 129.681C151.24 128.668 151.863 127.967 151.941 127.889C152.273 127.446 152.427 126.895 152.37 126.344C152.314 125.793 152.052 125.283 151.636 124.917C151.221 124.551 150.683 124.355 150.129 124.368C149.575 124.381 149.047 124.602 148.649 124.988C145.792 128.157 142.516 130.922 138.912 133.206C137.663 131.27 135.876 129.74 133.771 128.805C133.243 128.654 132.677 128.706 132.186 128.951C131.694 129.196 131.312 129.616 131.114 130.129C130.916 130.641 130.918 131.209 131.117 131.721C131.317 132.233 131.701 132.651 132.193 132.894C133.459 133.507 134.526 134.466 135.27 135.66C135.038 136.29 134.868 136.943 134.764 137.607C102.495 181.269 59.7285 165.767 57.7811 165.027C55.9617 164.425 53.9802 164.545 52.2475 165.364C50.5147 166.184 49.1638 167.638 48.475 169.427C47.7861 171.215 47.8122 173.2 48.5478 174.97C49.2833 176.74 50.6719 178.159 52.4256 178.932C60.7632 181.798 69.5303 183.214 78.3462 183.119C81.522 183.123 84.6953 182.941 87.8498 182.574C103.955 180.626 127.773 171.434 146.819 146.896C147.277 146.631 147.719 146.338 148.143 146.02C148.554 145.756 148.951 145.47 149.331 145.163C150.808 143.891 152.176 142.497 153.421 140.996C153.776 140.547 153.943 139.978 153.889 139.408C153.834 138.839 153.562 138.312 153.129 137.938Z" fill="#8A8778"/>
<path d="M93.7309 165.223L91.9198 165.613C87.4395 166.574 82.8698 167.057 78.2876 167.054C71.489 167.138 64.7257 166.064 58.2872 163.879C56.1176 163.047 53.7066 163.109 51.5822 164.05C49.4579 164.992 47.7933 166.737 46.953 168.904C46.4868 169.964 46.2592 171.113 46.2861 172.271C46.313 173.428 46.5939 174.566 47.1088 175.603C51.3932 183.198 63.1558 186.275 78.2681 186.275C81.5221 186.276 84.7734 186.088 88.0054 185.71C90.0398 185.483 92.0613 185.151 94.062 184.717L95.3278 184.386C94.1952 180.756 93.4574 177.015 93.1272 173.227C93.1664 170.549 93.368 167.877 93.7309 165.223Z" fill="#E1F3F6"/>
<path d="M46.6418 151.474C51.2573 148.534 52.8347 143.061 52.3284 137.57C56.3791 140.296 59.5729 138.641 62.0657 133.967C69.7192 144.697 81.365 128.748 65.4737 122.964C52.7568 118.348 40.2931 130.929 43.5648 143.568L46.6418 151.474Z" fill="#00396A"/>
</svg>
