<svg width="680" height="361" viewBox="0 0 680 361" fill="none" xmlns="http://www.w3.org/2000/svg">
<path d="M525.522 345.887C520.653 352.216 514.908 356.909 516.174 359.052C516.174 359.052 518.764 360.999 525.911 360.999C538.18 360.999 550.254 360.064 548.268 358.818C545.522 357.085 537.576 356.461 529.981 353.832C528.034 353.19 534.09 349.548 532.455 348.964C530.043 348.182 527.719 347.15 525.522 345.887Z" fill="#002E4F"/>
<path d="M651.991 358.683C651.991 358.683 653.607 360.942 659.781 360.942C670.394 360.942 681.456 359.501 679.742 358.411C677.366 356.931 658.768 353.055 658.768 353.055L654.601 347.875L647.531 351.77L651.991 358.683Z" fill="#002E4F"/>
<path d="M618.453 202.242C613.781 202.261 609.124 201.705 604.587 200.587C602.736 200.02 601.178 198.756 600.242 197.062C599.306 195.367 599.066 193.375 599.572 191.507C600.077 189.638 601.289 188.04 602.952 187.049C604.615 186.057 606.598 185.751 608.482 186.195C608.735 186.195 625.503 190.558 635.279 182.164C641.822 176.556 644.315 165.961 642.679 150.713L642.153 145.844L657.227 137.295C658.081 136.762 659.033 136.408 660.028 136.253C661.022 136.098 662.037 136.146 663.013 136.394C663.988 136.642 664.903 137.085 665.703 137.696C666.502 138.306 667.17 139.073 667.666 139.949C668.162 140.824 668.475 141.791 668.587 142.791C668.699 143.791 668.608 144.804 668.319 145.768C668.029 146.731 667.548 147.627 666.903 148.4C666.259 149.173 665.465 149.807 664.569 150.265L657.908 154.043C658.96 172.018 654.598 185.3 644.899 193.557C636.681 200.529 626.476 202.242 618.453 202.242Z" fill="#8A8778"/>
<path d="M644.159 160.879C643.887 171.726 641.004 179.574 635.532 184.248C624.801 193.46 606.417 188.766 606.106 188.689C605.069 188.407 603.986 188.333 602.921 188.47C601.855 188.607 600.827 188.952 599.894 189.487C598.012 190.566 596.635 192.349 596.067 194.443C595.499 196.538 595.786 198.772 596.865 200.655C597.944 202.537 599.727 203.914 601.821 204.483C606.616 206.566 611.804 207.589 617.031 207.482C648.736 206.352 667.879 179.01 668.23 163.06L644.159 160.879Z" fill="#E1F3F6"/>
<path d="M600.557 122.961C597.714 121.675 594.929 120.293 592.183 118.852C565.893 133.808 532.318 152.991 531.656 153.653C531.656 153.653 548.346 180.216 549.417 181.287C550.099 181.969 591.482 152.289 621.239 130.789C614.365 128.121 607.296 125.96 600.557 122.961Z" fill="#00CC9B" fill-opacity="0.81"/>
<path d="M600.927 122.185C607.821 125.223 615.046 127.424 622.037 130.17C638.415 118.329 651.093 109.118 651.093 109.118L623.089 101.328L593.137 118.349C595.668 119.712 598.297 120.997 600.927 122.185Z" fill="#00CC9B"/>
<path d="M552.707 87.3028L569.202 131.958L601.432 143.779L560.594 69.1914L552.707 87.3028Z" fill="#00CC9B"/>
<path d="M603.184 154.746H579.309L600.555 191.884L632.961 205.555L603.184 154.746Z" fill="#006091"/>
<path d="M632.962 205.556L613.955 173.111L532.61 220.804L516.621 193.54L526.67 31.3166L563.224 9.89453L629.009 122.127L651.151 109.156L669.555 140.569L647.432 153.539L666.439 185.984L632.962 205.556ZM559.173 79.6719L557.109 80.8794L551.52 167.522L595.552 141.718L559.173 79.6719Z" fill="#009987"/>
<path d="M489.57 186.098L516.62 193.517L532.609 220.801L504.04 213.576L489.57 186.098Z" fill="#00CC9B"/>
<path d="M489.57 186.099L516.62 193.518L526.669 31.2952L501.859 25.3555L489.57 186.099Z" fill="#00CC9B"/>
<path d="M501.859 25.3555L526.67 31.2953L563.224 9.85375L538.082 2.55078L501.859 25.3555Z" fill="#00CC9B"/>
<path d="M556.253 250.734C556.253 250.734 560.148 293.578 560.148 308.632C560.148 308.632 528.989 332.956 521.199 345.634C524.471 348.127 530.937 351.476 535.221 351.321C548.709 338.643 563.331 327.229 578.902 317.221C578.902 317.221 588.776 288.632 591.833 264.406L556.253 250.734Z" fill="#00CC9B"/>
<path d="M578.513 252.761C585.53 253.003 592.495 251.476 598.767 248.321C596.82 239.752 601.065 214.494 606.557 200.998C606.557 200.998 610.841 191.611 607.842 188.709C596.742 178.037 587.296 178.972 584.356 178.797C574.151 187.405 555.144 212.78 555.942 246.354C561.103 251.807 571.717 252.722 578.513 252.761Z" fill="#E1F3F6"/>
<path d="M647.355 352.955C651.448 352.054 655.13 349.83 657.832 346.626C645.777 327.151 601.57 255.271 599.175 249.643C599.175 249.506 599.058 249.331 598.999 249.175C592.264 252.541 584.761 254.072 577.246 253.615C570.722 253.362 561.238 252.447 555.824 247.598C555.824 247.948 555.824 248.299 555.824 248.649C556.74 267.384 618.922 329.878 643.46 353.812C644.775 353.61 646.076 353.324 647.355 352.955Z" fill="#009987"/>
<path d="M519.017 233.324C517.324 233.333 515.641 233.07 514.031 232.545C511.63 231.715 509.477 230.29 507.774 228.404C506.072 226.517 504.874 224.23 504.294 221.756C503.983 220.809 503.865 219.808 503.947 218.814C504.03 217.82 504.311 216.853 504.773 215.969C505.236 215.086 505.871 214.304 506.641 213.67C507.412 213.037 508.301 212.564 509.257 212.28C510.213 211.996 511.217 211.907 512.208 212.017C513.199 212.128 514.158 212.436 515.028 212.924C515.898 213.411 516.661 214.069 517.273 214.857C517.884 215.644 518.332 216.547 518.588 217.511C518.672 217.834 518.79 218.147 518.939 218.446C519.737 218.446 522.678 218.212 529.864 213.986C536.291 210.227 543.886 204.599 551.286 199.166C563.691 189.993 575.415 181.327 585.094 178.25C586.96 177.719 588.961 177.935 590.67 178.855C592.379 179.774 593.663 181.323 594.248 183.173C594.833 185.024 594.675 187.029 593.806 188.764C592.936 190.499 591.425 191.827 589.593 192.466C582.27 194.784 571.033 203.1 560.147 211.143C544.217 222.944 530.176 233.324 519.017 233.324Z" fill="#8A8778"/>
<path d="M532.961 227.756C532.045 223.374 531.013 218.525 528.306 214.922C522.289 218.252 519.737 218.467 518.997 218.447C518.848 218.148 518.731 217.835 518.647 217.512C518.39 216.549 517.943 215.646 517.331 214.858C516.72 214.07 515.957 213.413 515.087 212.925C514.217 212.438 513.258 212.129 512.266 212.019C511.275 211.908 510.272 211.997 509.316 212.281C508.36 212.565 507.47 213.038 506.7 213.672C505.93 214.306 505.295 215.087 504.832 215.971C504.369 216.854 504.088 217.822 504.006 218.816C503.924 219.81 504.041 220.81 504.353 221.758C504.933 224.232 506.13 226.519 507.833 228.405C509.536 230.292 511.688 231.716 514.09 232.547C515.699 233.072 517.383 233.335 519.075 233.326C524.073 233.055 528.939 231.628 533.292 229.158C533.136 228.691 533.058 228.223 532.961 227.756Z" fill="#8A8778"/>
<path d="M594.442 183.122C593.847 181.237 592.528 179.666 590.776 178.754C589.023 177.841 586.98 177.661 585.095 178.253C575.357 181.33 563.673 189.938 551.287 199.169C543.945 204.602 536.35 210.23 529.865 213.989L529.027 214.476C531.812 218.156 536.622 236.326 536.72 236.735C544.627 232.607 582.524 203.745 590.742 195.04C593.625 192.041 595.689 187.036 594.442 183.122Z" fill="#E1F3F6"/>
<path d="M508.462 227.307C508.008 227.303 507.566 227.16 507.196 226.898C501.353 222.711 498.296 214.668 498.179 214.337C497.975 213.794 497.995 213.193 498.234 212.666C498.473 212.138 498.912 211.727 499.455 211.523C499.997 211.319 500.598 211.338 501.126 211.578C501.654 211.817 502.065 212.256 502.269 212.798C502.269 212.798 504.995 219.945 509.747 223.334C510.217 223.674 510.535 224.186 510.63 224.759C510.724 225.331 510.589 225.918 510.253 226.392C510.051 226.678 509.783 226.911 509.47 227.07C509.158 227.23 508.812 227.311 508.462 227.307Z" fill="#8A8778"/>
<path d="M508.48 221.97C508.128 221.972 507.78 221.888 507.468 221.725C507.156 221.562 506.888 221.325 506.688 221.035C503.884 217.141 501.644 207.656 501.391 206.605C501.262 206.037 501.361 205.441 501.667 204.946C501.973 204.45 502.462 204.095 503.027 203.956C503.309 203.89 503.6 203.881 503.885 203.928C504.171 203.976 504.443 204.08 504.688 204.234C504.933 204.388 505.144 204.589 505.31 204.826C505.477 205.062 505.594 205.329 505.656 205.612C506.279 208.26 508.305 215.738 510.252 218.504C510.42 218.738 510.54 219.004 510.604 219.285C510.669 219.567 510.677 219.858 510.628 220.142C510.579 220.427 510.474 220.699 510.319 220.942C510.164 221.186 509.963 221.396 509.726 221.561C509.364 221.826 508.928 221.969 508.48 221.97Z" fill="#8A8778"/>
<path d="M511.499 220.647C511.076 220.638 510.666 220.503 510.319 220.26C509.972 220.018 509.705 219.678 509.552 219.284C507.604 214.357 506.747 204.035 506.708 203.704C506.669 203.137 506.85 202.576 507.212 202.138C507.574 201.699 508.091 201.416 508.656 201.348C509.225 201.299 509.792 201.476 510.232 201.84C510.673 202.204 510.953 202.727 511.012 203.295C511.315 208.158 512.158 212.972 513.524 217.648C513.743 218.188 513.739 218.792 513.512 219.329C513.286 219.866 512.856 220.291 512.317 220.511C512.057 220.614 511.778 220.661 511.499 220.647Z" fill="#8A8778"/>
<path d="M514.792 219.675C514.306 219.677 513.834 219.518 513.45 219.221C513.065 218.925 512.79 218.509 512.669 218.039C511.871 214.395 511.871 210.621 512.669 206.977C512.808 206.413 513.164 205.926 513.66 205.623C514.156 205.32 514.752 205.226 515.318 205.361C515.598 205.425 515.862 205.544 516.096 205.712C516.329 205.879 516.527 206.091 516.678 206.336C516.828 206.581 516.928 206.853 516.972 207.137C517.016 207.421 517.003 207.711 516.934 207.99C516.305 210.937 516.305 213.982 516.934 216.929C517.007 217.208 517.024 217.498 516.984 217.784C516.944 218.069 516.848 218.344 516.702 218.592C516.555 218.84 516.361 219.057 516.13 219.229C515.899 219.402 515.636 219.527 515.357 219.597C515.173 219.65 514.983 219.677 514.792 219.675Z" fill="#8A8778"/>
<path d="M602.875 195.039C601.838 195.031 600.815 194.798 599.876 194.357C599.044 193.964 598.297 193.411 597.679 192.73C597.061 192.048 596.584 191.251 596.274 190.384C595.965 189.518 595.83 188.598 595.876 187.679C595.923 186.76 596.15 185.859 596.546 185.029C597.987 182.248 599.731 179.636 601.746 177.239C602.947 175.816 604.663 174.928 606.519 174.771C608.374 174.614 610.216 175.2 611.639 176.401C613.062 177.602 613.949 179.319 614.106 181.174C614.263 183.03 613.677 184.871 612.476 186.294C611.228 187.767 610.138 189.366 609.224 191.066C608.646 192.257 607.744 193.262 606.621 193.965C605.498 194.668 604.2 195.04 602.875 195.039Z" fill="#8A8778"/>
<path d="M603.927 191.436C604.748 192.353 605.619 193.225 606.537 194.045C607.721 193.327 608.669 192.278 609.263 191.027C610.177 189.327 611.267 187.728 612.515 186.255C613.716 184.832 614.303 182.991 614.146 181.135C613.988 179.28 613.101 177.563 611.678 176.362C610.255 175.161 608.413 174.575 606.558 174.732C604.703 174.889 602.986 175.777 601.785 177.2C601.648 177.375 601.084 178.057 600.324 179.05C600.402 183.451 600.928 188.047 603.927 191.436Z" fill="#4F4E4C"/>
<path d="M626.966 183.646C625.621 186.893 623.044 189.475 619.798 190.826C616.553 192.177 612.905 192.186 609.653 190.851C608.042 190.19 606.577 189.216 605.342 187.988C604.107 186.759 603.127 185.298 602.458 183.69C601.789 182.082 601.443 180.357 601.441 178.615C601.44 176.873 601.781 175.148 602.447 173.538L605.953 165.028C606.615 163.417 607.588 161.952 608.817 160.717C610.046 159.482 611.506 158.502 613.114 157.833C614.723 157.164 616.447 156.818 618.189 156.816C619.931 156.815 621.656 157.156 623.266 157.823C626.517 159.163 629.102 161.74 630.453 164.987C631.805 168.234 631.811 171.884 630.471 175.135L626.966 183.646Z" fill="#8A8778"/>
<path d="M603.927 172.585C602.836 177.142 596.293 175.681 593.839 173.305C590.45 170.014 588.425 160.744 595.942 161.251C590.528 153.091 608.873 144.23 610.782 153.675C612.223 151.241 613.683 149.04 616.877 148.845C619.175 148.69 623.187 150.481 622.856 153.286C624.551 152.017 626.622 151.352 628.739 151.394C630.855 151.436 632.897 152.184 634.541 153.519C635.631 154.396 637.579 156.343 636.605 157.745C636.06 158.524 633.294 158.777 632.379 159.05C633.976 158.329 640.5 159.79 639.215 162.497C638.63 163.763 635.417 162.633 634.482 162.361V162.653C637.988 164.6 639.409 166.548 639 170.852C638.806 172.799 637.871 176.694 635.495 176.908C634.268 177.045 632.866 176.266 632.885 174.961C635.807 177.862 631.678 185.652 627.997 181.816C627.396 181.016 627.126 180.017 627.242 179.023C627.358 178.03 627.851 177.119 628.62 176.48C626.439 175.233 621.707 168.69 625.076 166.84C623.499 166.84 616.215 164.406 618.533 162.322C619.156 164.737 616.137 167.891 613.761 166.645C615.241 169.878 610.86 172.293 608.172 172.487C609.828 174.552 604.764 177.006 603.206 174.006L603.927 172.585Z" fill="#00396A"/>
<path d="M354.748 146.117C354.748 146.117 350.502 129.817 371.613 125.941L369.996 145.533L354.748 146.117Z" fill="#8A8778"/>
<path d="M270.15 187.249C265.697 187.29 261.292 186.331 257.258 184.445C238.075 175.389 235.953 148.144 235.836 146.995C235.71 145.031 236.365 143.097 237.659 141.614C238.953 140.131 240.78 139.219 242.744 139.078C244.707 138.937 246.646 139.577 248.139 140.859C249.632 142.142 250.558 143.962 250.714 145.924C251.123 151.416 254.259 166.587 263.645 170.988C271.435 174.63 283.393 170.988 298.369 160.277C299.982 159.178 301.961 158.755 303.883 159.099C305.804 159.443 307.514 160.527 308.645 162.117C309.777 163.707 310.24 165.678 309.935 167.606C309.63 169.534 308.582 171.265 307.015 172.429C293.227 182.303 280.783 187.249 270.15 187.249Z" fill="#CDE5E8"/>
<path d="M309.801 201.174C311.865 195.721 313.793 190.21 316.032 184.815C314.497 184.698 312.969 184.496 311.456 184.212C304.633 183.036 298.273 179.981 293.091 175.39C287.918 170.678 283.916 164.823 281.407 158.291C278.551 150.754 276.946 142.801 276.655 134.746C275.98 115.971 279.548 97.2861 287.093 80.081C290.35 72.7587 294.769 66.0112 300.18 60.1001C304.88 54.913 310.739 50.9094 317.279 48.4154C323.167 46.3839 329.452 45.7766 335.619 46.6432C341.787 47.5098 347.662 49.8256 352.762 53.4008C354.865 49.1943 357.143 45.0463 359.305 40.9177C361.856 36.049 364.232 31.0635 366.491 26.0586C367.465 23.9163 368.302 21.6962 369.198 19.5151C361.53 15.2062 353.198 12.2049 344.543 10.6347C332.472 8.13322 319.973 8.60776 308.126 12.0174C296.758 15.413 286.266 21.2408 277.375 29.0966C267.878 37.6456 260.047 47.8802 254.279 59.2822C241.305 84.8972 235.817 113.651 238.446 142.244C239.657 154.947 243.216 167.316 248.943 178.72C254.298 189.326 261.908 198.631 271.241 205.984C280.267 212.984 290.77 217.833 301.952 220.162C304.679 213.871 307.366 207.62 309.801 201.174Z" fill="#00CC9B"/>
<path d="M410.737 89.1932C409.547 76.4915 406.021 64.1188 400.337 52.6979C394.978 42.0948 387.368 32.7899 378.039 25.4335C375.522 23.4524 372.874 21.6436 370.113 20.0195C369.236 22.2202 368.399 24.4208 367.425 26.563C365.108 31.568 362.79 36.5534 360.22 41.4416C358.038 45.5897 355.74 49.7572 353.618 54.0027C354.377 54.5869 355.117 55.1712 355.838 55.8138C360.979 60.569 364.974 66.4286 367.523 72.9514C370.467 80.4089 372.133 88.3095 372.45 96.3209C373.135 115.096 369.566 133.784 362.011 150.986C358.767 158.392 354.282 165.189 348.749 171.084C343.958 176.205 338.064 180.168 331.514 182.671C326.858 184.383 321.9 185.118 316.947 184.833C314.474 190.675 312.39 196.771 310.131 202.73C307.872 208.689 305.379 214.415 302.789 220.14L304.542 220.51C316.615 222.998 329.113 222.516 340.959 219.108C352.325 215.718 362.818 209.897 371.71 202.048C381.227 193.547 389.091 183.36 394.904 171.999C407.898 146.398 413.393 117.646 410.756 89.0569L410.737 89.1932Z" fill="#00CC9B"/>
<path d="M327.291 228.436C315.148 226.307 303.705 221.254 293.951 213.713C284.622 206.356 277.012 197.051 271.652 186.448C265.934 175.034 262.376 162.661 261.156 149.953C258.519 121.364 264.014 92.6123 277.008 67.0108C282.821 55.6502 290.684 45.4625 300.202 36.9615C309.097 29.1056 319.597 23.2838 330.972 19.9018C342.844 16.67 355.296 16.19 367.381 18.4984C379.467 20.8067 390.866 25.8426 400.71 33.2224C410.038 40.5807 417.647 49.8851 423.009 60.4868C428.733 71.893 432.299 84.2597 433.525 96.9627C436.162 125.552 430.667 154.303 417.673 179.905C411.854 191.245 403.999 201.418 394.498 209.915C385.611 217.771 375.117 223.593 363.748 226.975C351.895 230.417 339.382 230.918 327.291 228.436ZM334.244 192.096C340.927 193.463 347.859 192.944 354.264 190.596C360.837 188.08 366.741 184.081 371.518 178.912C377.028 173.017 381.505 166.236 384.761 158.853C388.567 150.326 391.346 141.376 393.037 132.192C394.889 122.979 395.615 113.576 395.199 104.188C394.862 96.177 393.19 88.2786 390.253 80.8183C387.711 74.2976 383.714 68.443 378.568 63.7001C373.469 59.1615 367.214 56.1217 360.495 54.9171C353.716 53.5054 346.677 54.0043 340.164 56.3582C333.627 58.8588 327.77 62.8614 323.065 68.043C317.646 73.9475 313.225 80.6964 309.978 88.0239C306.133 96.5936 303.34 105.598 301.663 114.84C299.851 123.999 299.139 133.342 299.54 142.67C299.82 150.69 301.412 158.611 304.253 166.117C306.749 172.662 310.752 178.526 315.938 183.235C321.112 187.8 327.447 190.846 334.244 192.038V192.096Z" fill="#009987"/>
<path d="M458.763 118.931L459.328 146.332C459.328 146.332 451.538 153.343 444.508 146.332L447.078 115.484L458.763 118.931Z" fill="#00396A"/>
<path d="M426.495 337.494C426.047 337.143 422.989 335.722 422.6 335.371C421.224 337.484 419.624 339.443 417.829 341.213C419.2 342.311 420.257 343.752 420.89 345.391C421.523 347.03 421.709 348.807 421.431 350.542C419.935 351.854 418.347 353.057 416.68 354.145C412.415 356.248 404.547 359.169 404.547 359.169L424.352 360.727L439.036 345.673C434.641 343.292 430.446 340.556 426.495 337.494Z" fill="#002E4F"/>
<path d="M348.924 338.564C345.769 338.019 341.777 340.512 339.187 338.564C338.836 341.394 338.674 344.243 338.7 347.094L309.488 359.168H346.899C347.23 355.176 346.509 351.379 347.055 347.659C347.288 345.77 348.574 340.395 348.924 338.564Z" fill="#002E4F"/>
<path d="M383.025 205.613L349.918 268.516C349.918 268.516 363.336 279.87 376.54 283.648L401.35 209.528L383.025 205.613Z" fill="#CDE5E8"/>
<path d="M419.268 342.791C421.236 340.658 422.996 338.343 424.526 335.877C415.957 328.535 411.77 320.979 400.144 307.97C395.334 302.576 408.07 271.747 411.166 266.567C416.736 257.278 417.593 250.54 421.936 234.629L389.628 246.703C381.838 274.26 372.957 301.836 381.955 314.981C391.439 328.886 408.304 340.084 416.425 345.673C416.736 345.887 418.995 342.596 419.268 342.791Z" fill="#00CC9B"/>
<path d="M364.837 142.864C364.375 142.873 363.924 142.729 363.552 142.455C363.318 142.287 363.12 142.074 362.969 141.829C362.818 141.584 362.717 141.312 362.672 141.028C362.626 140.743 362.638 140.453 362.705 140.173C362.773 139.894 362.895 139.63 363.065 139.398C364.556 137.418 365.635 135.16 366.239 132.757C366.375 132.218 366.71 131.75 367.176 131.448C367.643 131.145 368.206 131.031 368.754 131.127C369.301 131.223 369.792 131.523 370.128 131.966C370.463 132.409 370.619 132.963 370.562 133.516C369.853 136.569 368.528 139.445 366.668 141.968C366.458 142.255 366.182 142.487 365.863 142.643C365.544 142.799 365.192 142.875 364.837 142.864Z" fill="#8A8778"/>
<path d="M419.658 241.29C429.278 214.863 437.497 173.401 440.574 156.868C439.021 156.234 437.435 155.688 435.822 155.232C432.959 154.453 429.551 153.518 426.61 154.433C425.164 154.933 423.789 155.621 422.521 156.478C421.792 158.64 421.226 160.853 420.826 163.099C420.826 163.099 400.144 202.613 386.707 229.547C398.154 232.015 409.23 235.963 419.658 241.29Z" fill="#F6EE9E"/>
<path d="M386.296 230.383L382.927 237.199C380.278 241.892 377.415 246.235 374.65 250.403C348.067 290.52 338.018 322.459 336.246 337.61C338.778 339.557 348.379 340.706 351.592 341.252C356.5 316.188 369.256 300.18 392.138 281.27C399.792 274.941 405.517 266.898 410.561 260.218C414.293 254.613 417.26 248.535 419.383 242.145C408.919 236.786 397.794 232.831 386.296 230.383Z" fill="#009987"/>
<path d="M360.496 241.387C358.74 241.378 357.043 240.75 355.705 239.614C354.367 238.477 353.472 236.905 353.179 235.174C352.886 233.443 353.213 231.664 354.102 230.15C354.992 228.636 356.387 227.485 358.042 226.898C367.078 223.763 380.963 211.318 390.311 198.134C400.498 183.413 411.465 169.248 423.165 155.699C423.807 154.93 424.597 154.298 425.488 153.841C426.38 153.384 427.354 153.111 428.353 153.039C429.352 152.967 430.355 153.096 431.303 153.42C432.251 153.744 433.124 154.256 433.87 154.925C434.616 155.593 435.219 156.405 435.645 157.312C436.07 158.219 436.308 159.203 436.345 160.204C436.382 161.205 436.217 162.203 435.859 163.139C435.502 164.075 434.96 164.929 434.265 165.651C422.959 178.775 412.35 192.485 402.483 206.722C393.252 219.809 376.932 236.129 362.93 240.978C362.145 241.243 361.324 241.381 360.496 241.387Z" fill="#8A8778"/>
<path d="M435.395 159.341H434.869C433.015 159.196 431.294 158.325 430.079 156.917C428.864 155.509 428.255 153.679 428.384 151.824C428.729 148.701 429.414 145.625 430.429 142.651C431.033 140.892 432.312 139.446 433.982 138.63C435.653 137.813 437.58 137.694 439.339 138.299C441.097 138.903 442.544 140.181 443.36 141.852C444.176 143.523 444.296 145.449 443.691 147.208C443.059 149.04 442.622 150.933 442.386 152.856C442.245 154.616 441.448 156.259 440.154 157.46C438.859 158.661 437.161 159.332 435.395 159.341Z" fill="#8A8778"/>
<path d="M437.342 151.942C438.576 153.348 439.925 154.651 441.373 155.837C441.894 154.93 442.207 153.919 442.288 152.877C442.524 150.953 442.961 149.061 443.593 147.229C444.137 145.63 444.085 143.889 443.447 142.325C442.81 140.761 441.629 139.48 440.122 138.717C438.615 137.954 436.884 137.761 435.246 138.173C433.608 138.584 432.174 139.573 431.207 140.958C431.889 144.873 435.121 149.332 437.342 151.942Z" fill="#6B695F"/>
<path d="M455.452 136.751C455.414 138.498 455.031 140.221 454.324 141.82C453.617 143.419 452.601 144.861 451.333 146.065C450.066 147.269 448.573 148.21 446.94 148.835C445.307 149.459 443.567 149.753 441.82 149.701C440.072 149.664 438.349 149.28 436.751 148.573C435.152 147.866 433.709 146.85 432.505 145.583C431.301 144.315 430.36 142.822 429.736 141.189C429.112 139.557 428.817 137.816 428.869 136.069L429.064 126.877C429.104 125.129 429.489 123.407 430.197 121.808C430.904 120.21 431.92 118.767 433.187 117.562C434.453 116.357 435.945 115.414 437.577 114.786C439.209 114.159 440.949 113.86 442.696 113.907C444.444 113.947 446.166 114.332 447.765 115.04C449.363 115.748 450.807 116.764 452.012 118.03C453.216 119.297 454.16 120.789 454.787 122.42C455.414 124.052 455.713 125.792 455.666 127.539L455.452 136.751Z" fill="#8A8778"/>
<path d="M349.956 239.344C346.336 239.211 342.777 238.371 339.479 236.87C338.981 236.62 338.596 236.191 338.403 235.668C338.209 235.145 338.221 234.569 338.436 234.055C338.651 233.54 339.053 233.127 339.561 232.898C340.069 232.669 340.646 232.641 341.173 232.82C347.016 235.254 351.553 235.605 354.475 233.832C354.97 233.533 355.565 233.443 356.127 233.581C356.69 233.72 357.174 234.077 357.474 234.573C357.773 235.068 357.864 235.663 357.725 236.225C357.586 236.788 357.229 237.272 356.734 237.572C354.683 238.779 352.336 239.393 349.956 239.344Z" fill="#8A8778"/>
<path d="M352.589 242.517C349.386 242.433 346.207 241.949 343.124 241.076L342.131 240.842C341.61 240.668 341.173 240.305 340.906 239.825C340.639 239.344 340.561 238.782 340.688 238.247C340.815 237.712 341.138 237.245 341.592 236.936C342.046 236.627 342.6 236.499 343.144 236.577L344.156 236.811C349.547 238.53 355.331 238.578 360.749 236.947C361.028 236.871 361.319 236.852 361.605 236.891C361.892 236.93 362.167 237.025 362.416 237.173C362.665 237.32 362.881 237.515 363.053 237.747C363.225 237.979 363.349 238.244 363.417 238.525C363.559 239.088 363.473 239.684 363.178 240.184C362.882 240.683 362.401 241.046 361.839 241.193C358.824 242.022 355.716 242.467 352.589 242.517Z" fill="#8A8778"/>
<path d="M349.803 235.018C345.463 234.953 341.282 233.376 337.982 230.558C337.768 230.365 337.595 230.131 337.473 229.87C337.35 229.609 337.28 229.326 337.268 229.038C337.255 228.751 337.3 228.463 337.399 228.192C337.498 227.922 337.65 227.673 337.845 227.462C338.242 227.04 338.787 226.789 339.366 226.764C339.944 226.738 340.51 226.94 340.942 227.325C342.586 228.709 344.529 229.691 346.618 230.194C348.706 230.698 350.883 230.709 352.977 230.227C353.256 230.151 353.547 230.132 353.833 230.171C354.12 230.21 354.395 230.305 354.644 230.452C354.893 230.599 355.11 230.795 355.282 231.027C355.453 231.259 355.577 231.524 355.645 231.805C355.787 232.368 355.701 232.964 355.406 233.463C355.11 233.963 354.629 234.326 354.068 234.473C352.673 234.827 351.241 235.011 349.803 235.018Z" fill="#8A8778"/>
<path d="M354.4 232.662H354.147C352 232.459 349.928 231.772 348.086 230.652C346.244 229.532 344.681 228.009 343.513 226.196C343.229 225.68 343.162 225.071 343.326 224.505C343.491 223.939 343.873 223.462 344.39 223.177C344.906 222.893 345.514 222.826 346.081 222.99C346.647 223.155 347.124 223.537 347.408 224.054C348.227 225.268 349.308 226.282 350.573 227.021C351.837 227.759 353.252 228.203 354.711 228.319C355.29 228.352 355.831 228.614 356.217 229.047C356.602 229.48 356.799 230.048 356.766 230.627C356.732 231.205 356.47 231.746 356.038 232.132C355.605 232.517 355.037 232.715 354.458 232.681L354.4 232.662Z" fill="#8A8778"/>
<path d="M380.591 146.041H380.24C376.618 145.438 366.608 143.88 364.388 143.88C364.083 143.909 363.775 143.873 363.484 143.776C363.194 143.679 362.927 143.523 362.7 143.316C362.473 143.11 362.292 142.859 362.168 142.579C362.045 142.298 361.98 141.995 361.98 141.689C361.98 141.382 362.045 141.079 362.168 140.799C362.292 140.519 362.473 140.268 362.7 140.061C362.927 139.855 363.194 139.698 363.484 139.601C363.775 139.504 364.083 139.469 364.388 139.498C367.465 139.498 379.578 141.445 380.961 141.718C381.496 141.82 381.974 142.116 382.303 142.55C382.633 142.983 382.789 143.524 382.743 144.066C382.697 144.609 382.452 145.115 382.054 145.487C381.657 145.859 381.135 146.07 380.591 146.08V146.041Z" fill="#8A8778"/>
<path d="M379.188 150.635C379.001 150.662 378.811 150.662 378.623 150.635C373.575 149.232 368.434 148.184 363.239 147.5C362.66 147.459 362.12 147.194 361.734 146.761C361.348 146.328 361.147 145.761 361.174 145.182C361.189 144.894 361.261 144.611 361.386 144.351C361.511 144.091 361.686 143.858 361.902 143.666C362.117 143.474 362.369 143.326 362.642 143.232C362.915 143.138 363.204 143.099 363.492 143.118C368.991 143.817 374.433 144.917 379.772 146.409C380.302 146.532 380.766 146.848 381.074 147.295C381.383 147.742 381.513 148.289 381.44 148.827C381.367 149.365 381.096 149.857 380.679 150.206C380.263 150.555 379.731 150.735 379.188 150.713V150.635Z" fill="#8A8778"/>
<path d="M378.14 155.464C377.914 155.463 377.69 155.424 377.478 155.347C367.604 152.172 365.17 151.978 363.845 151.861C363.227 151.835 362.614 151.744 362.015 151.588C361.721 151.529 361.442 151.41 361.195 151.238C360.948 151.067 360.74 150.847 360.581 150.592C360.423 150.337 360.318 150.052 360.274 149.755C360.23 149.458 360.247 149.155 360.324 148.865C360.401 148.575 360.537 148.304 360.723 148.068C360.909 147.832 361.141 147.637 361.405 147.495C361.669 147.352 361.96 147.265 362.259 147.239C362.558 147.213 362.859 147.248 363.144 147.343C363.488 147.433 363.841 147.485 364.196 147.499C365.773 147.635 368.441 147.849 378.802 151.179C379.294 151.346 379.711 151.681 379.979 152.126C380.247 152.571 380.35 153.096 380.268 153.609C380.187 154.122 379.926 154.589 379.533 154.929C379.14 155.268 378.64 155.458 378.12 155.464H378.14Z" fill="#8A8778"/>
<path d="M373.813 158.972H373.638C363.764 158.252 363.355 152.896 363.336 152.273H367.718V152.137C367.718 152.137 368.166 154.279 373.969 154.688C374.515 154.755 375.017 155.025 375.374 155.444C375.731 155.863 375.919 156.4 375.899 156.95C375.879 157.5 375.654 158.023 375.268 158.415C374.882 158.808 374.363 159.041 373.813 159.07V158.972Z" fill="#8A8778"/>
<path d="M365.517 156.381C363.975 155.771 362.326 155.473 360.668 155.505C358.175 155.505 354.825 151.26 354.825 146.878C354.825 146.878 353.598 133.947 367.27 139.789L365.517 156.381Z" fill="#8A8778"/>
<path d="M408.558 194.804L389.395 289.119C389.395 289.119 419.074 296.266 437.263 285.789L441.859 154.745C441.859 154.745 421.508 147.636 408.558 194.804Z" fill="#CDE5E8"/>
<path d="M412.998 246.704L431.343 245.711C431.343 245.711 431.772 273.774 420.827 272.683C420.827 272.683 405.812 275.955 412.998 246.704Z" fill="#E1F3F6"/>
<path d="M436.036 152.487C433.872 150.545 431.025 149.543 428.122 149.7C425.218 149.857 422.496 151.161 420.554 153.325C408.765 167.008 397.714 181.309 387.447 196.169C386.181 197.96 384.818 199.771 383.338 201.563L381.391 203.958L383.513 206.198C385.772 208.593 388.148 210.911 390.446 213.15L394.147 216.831L396.853 219.558L399.327 216.617C401.527 213.988 403.553 211.359 405.364 208.827C415.155 194.705 425.673 181.1 436.874 168.067C437.845 166.991 438.595 165.733 439.079 164.366C439.563 163 439.772 161.551 439.694 160.103C439.616 158.655 439.253 157.237 438.625 155.93C437.997 154.623 437.118 153.453 436.036 152.487Z" fill="#E1F3F6"/>
<path d="M385.703 195.492L378.297 203.734L397.578 221.058L404.984 212.816L385.703 195.492Z" fill="#F8FDFF"/>
<path d="M415.625 142.007L432.49 148.609C432.49 148.609 439.657 113.75 434.437 108.511C434.418 108.511 415.625 106.739 415.625 142.007Z" fill="#00396A"/>
<path d="M435.393 114.588C435.997 115.484 449.026 124.208 459.328 121.793C459.328 121.793 457.575 106.37 433.621 108.59L435.393 114.588Z" fill="#00396A"/>
<path d="M445.5 131.065C445.504 132.518 445.077 133.939 444.272 135.149C443.468 136.359 442.323 137.303 440.981 137.862C439.64 138.42 438.163 138.568 436.738 138.287C435.312 138.006 434.002 137.309 432.974 136.283C431.945 135.257 431.244 133.948 430.959 132.524C430.674 131.099 430.818 129.622 431.373 128.279C431.929 126.936 432.87 125.789 434.077 124.981C435.285 124.173 436.705 123.742 438.158 123.742C439.122 123.74 440.076 123.927 440.966 124.294C441.857 124.661 442.667 125.2 443.349 125.88C444.031 126.56 444.572 127.368 444.941 128.258C445.31 129.148 445.5 130.101 445.5 131.065V131.065Z" stroke="#DDDD67" stroke-width="1.69429" stroke-miterlimit="10"/>
<path d="M462.033 132.466C462.033 133.725 461.66 134.957 460.96 136.004C460.26 137.051 459.266 137.867 458.102 138.349C456.938 138.831 455.658 138.957 454.423 138.712C453.187 138.466 452.053 137.859 451.162 136.969C450.271 136.078 449.665 134.944 449.419 133.708C449.174 132.473 449.3 131.193 449.782 130.029C450.264 128.865 451.08 127.871 452.127 127.171C453.174 126.471 454.406 126.098 455.665 126.098C456.502 126.095 457.331 126.258 458.105 126.577C458.879 126.896 459.582 127.365 460.174 127.957C460.766 128.549 461.235 129.252 461.554 130.026C461.873 130.8 462.036 131.629 462.033 132.466Z" stroke="#DDDD67" stroke-width="1.46059" stroke-miterlimit="10"/>
<path d="M445.5 131.064C446.136 130.796 446.832 130.701 447.516 130.79C448.2 130.879 448.849 131.148 449.395 131.57" stroke="#DDDD67" stroke-width="1.69429" stroke-miterlimit="10"/>
<path d="M232.275 143.858H231.749C229.895 143.723 228.17 142.858 226.954 141.452C225.738 140.046 225.13 138.214 225.264 136.36C225.59 133.227 226.276 130.143 227.309 127.168C227.61 126.297 228.079 125.494 228.69 124.805C229.3 124.115 230.041 123.553 230.869 123.149C231.698 122.746 232.597 122.51 233.517 122.454C234.436 122.399 235.358 122.525 236.229 122.825C237.099 123.126 237.902 123.595 238.592 124.206C239.281 124.816 239.844 125.557 240.247 126.385C240.65 127.214 240.887 128.113 240.942 129.033C240.998 129.952 240.872 130.874 240.571 131.744C239.94 133.571 239.496 135.456 239.247 137.373C239.124 139.136 238.335 140.787 237.041 141.991C235.746 143.195 234.043 143.862 232.275 143.858Z" fill="#8A8778"/>
<path d="M228.105 338.526C234.982 341.745 242.428 343.572 250.014 343.901C257.59 330.425 280.414 293.91 259.654 263.958L230.287 248.164C230.287 248.164 259.654 278.817 228.105 338.526Z" fill="#00CC9B"/>
<path d="M243.294 350.465C243.294 350.465 246.001 344.953 248.124 341.273C246.546 341.078 239.419 340.786 236.439 339.656C232.653 346.481 228.329 352.993 223.508 359.131H262.963L243.294 350.465Z" fill="#002E4F"/>
<path d="M292.101 265.711C287.194 256.188 251.555 227.501 248.342 211.026C248.05 209.565 247.796 208.066 247.582 206.547C241.857 209.565 234.437 210.442 228.556 210.695C221.876 211.026 217.884 211.435 211.418 208.3C211.963 218.524 210.308 228.397 216.267 238.738C228.108 259.304 267.427 276.889 271.828 283.686C280.475 297.084 283.513 326.16 286.415 343.901C291.049 343.901 301.994 343.687 306.532 342.09C305.013 332.995 307.486 295.546 292.101 265.711Z" fill="#009987"/>
<path d="M304.387 348.869C304.387 348.869 303.102 343.688 302.732 341.273C298.214 342.851 295.584 341.273 291.047 341.273C291.748 345.675 291.222 353.893 291.631 358.801H329.042L304.387 348.869Z" fill="#002E4F"/>
<path d="M228.826 216.071C234.513 215.818 246.49 214.221 251.28 209.43C250.307 201.64 246.801 189.021 248.048 178.894C252.215 144.561 235.447 134.278 235.447 134.278C235.447 134.278 227.658 128.883 221.484 135.33C212.039 145.067 202.847 172.507 203.762 213.111C210.267 216.461 221.991 216.383 228.826 216.071Z" fill="#CDE5E8"/>
<path d="M314.786 226.896C314.216 226.895 313.649 226.836 313.091 226.721C286.08 220.45 263.217 204.267 246.878 179.982C239.566 169.153 233.993 157.246 230.363 144.694C229.961 142.808 230.305 140.838 231.324 139.2C232.342 137.562 233.956 136.382 235.826 135.908C237.696 135.434 239.677 135.704 241.353 136.659C243.029 137.615 244.269 139.182 244.813 141.033C248.109 152.121 253.102 162.632 259.614 172.192C273.928 193.4 293.052 206.915 316.46 212.349C318.257 212.745 319.842 213.793 320.911 215.29C321.98 216.788 322.456 218.628 322.248 220.455C322.04 222.283 321.162 223.969 319.784 225.187C318.406 226.405 316.625 227.07 314.786 227.052V226.896Z" fill="#8A8778"/>
<path d="M298.372 204.522C283.038 197.075 270.019 185.597 260.708 171.318C254.296 161.896 249.37 151.544 246.102 140.626C245.823 139.508 245.325 138.456 244.637 137.532C243.95 136.607 243.086 135.827 242.096 135.237C241.106 134.647 240.009 134.258 238.869 134.094C237.728 133.929 236.566 133.991 235.45 134.277C234.334 134.557 233.284 135.054 232.361 135.741C231.437 136.427 230.658 137.289 230.068 138.276C229.479 139.264 229.09 140.359 228.924 141.497C228.758 142.635 228.818 143.795 229.101 144.911V145.086C232.421 158.962 238.078 172.173 245.83 184.152C258.272 203.221 276.225 218.049 297.301 226.665C297.456 226.725 297.621 226.758 297.788 226.762C298.053 226.762 298.311 226.681 298.528 226.528C298.705 226.407 298.851 226.244 298.953 226.054C299.054 225.865 299.109 225.653 299.112 225.438V205.71C299.117 205.462 299.049 205.217 298.918 205.007C298.786 204.796 298.597 204.628 298.372 204.522Z" fill="#E1F3F6"/>
<path d="M320.319 227.443C317.768 227.422 315.224 227.154 312.724 226.645C312.19 226.495 311.732 226.149 311.442 225.677C311.152 225.204 311.051 224.64 311.16 224.096C311.268 223.552 311.577 223.069 312.026 222.744C312.475 222.418 313.031 222.274 313.581 222.341C320.105 223.645 325.558 223.159 329.764 220.919C330.282 220.65 330.884 220.595 331.442 220.766C332 220.937 332.467 221.321 332.744 221.834C332.88 222.088 332.964 222.367 332.991 222.654C333.018 222.941 332.989 223.23 332.903 223.505C332.818 223.78 332.68 224.036 332.495 224.257C332.311 224.479 332.084 224.661 331.829 224.794C328.272 226.619 324.316 227.53 320.319 227.443Z" fill="#8A8778"/>
<path d="M320.63 222.595C319.555 222.592 318.481 222.514 317.417 222.362C317.116 222.339 316.822 222.254 316.555 222.113C316.288 221.972 316.053 221.777 315.864 221.541C315.675 221.305 315.538 221.032 315.459 220.741C315.38 220.449 315.362 220.144 315.407 219.845C315.451 219.546 315.556 219.26 315.716 219.003C315.876 218.747 316.087 218.526 316.336 218.355C316.584 218.183 316.866 218.065 317.163 218.007C317.459 217.95 317.764 217.953 318.059 218.019C322.765 218.503 327.509 217.581 331.692 215.37C332.196 215.088 332.792 215.015 333.349 215.168C333.907 215.321 334.382 215.688 334.671 216.188C334.817 216.436 334.912 216.71 334.951 216.994C334.99 217.279 334.971 217.568 334.897 217.846C334.823 218.123 334.694 218.383 334.518 218.61C334.342 218.837 334.123 219.026 333.873 219.168C329.795 221.35 325.255 222.525 320.63 222.595Z" fill="#8A8778"/>
<path d="M318.68 218.212H317.648C317.085 218.148 316.568 217.869 316.205 217.434C315.843 216.999 315.662 216.44 315.7 215.875C315.715 215.587 315.787 215.306 315.912 215.046C316.038 214.787 316.213 214.555 316.429 214.365C316.645 214.174 316.897 214.029 317.17 213.937C317.442 213.845 317.731 213.809 318.018 213.83C319.468 213.966 320.931 213.78 322.301 213.285C323.671 212.79 324.915 211.998 325.944 210.967C326.325 210.564 326.845 210.319 327.399 210.282C327.952 210.245 328.5 210.419 328.931 210.769C329.362 211.119 329.645 211.619 329.723 212.168C329.801 212.718 329.669 213.277 329.352 213.733C327.996 215.198 326.342 216.356 324.501 217.128C322.661 217.901 320.676 218.27 318.68 218.212Z" fill="#8A8778"/>
<path d="M311.107 214.53C310.562 214.479 310.055 214.226 309.686 213.82C309.318 213.415 309.113 212.887 309.113 212.339C309.113 211.791 309.318 211.263 309.686 210.858C310.055 210.453 310.562 210.2 311.107 210.148C312.471 210.085 313.804 209.723 315.013 209.087C316.221 208.45 317.274 207.556 318.098 206.468C318.429 205.99 318.936 205.663 319.507 205.559C320.079 205.455 320.669 205.582 321.146 205.913C321.624 206.243 321.951 206.75 322.055 207.322C322.159 207.893 322.032 208.483 321.701 208.96C320.469 210.627 318.877 211.994 317.042 212.958C315.207 213.923 313.179 214.46 311.107 214.53Z" fill="#8A8778"/>
<path d="M303.94 165.047C303.593 165.048 303.25 164.965 302.942 164.806C302.633 164.646 302.368 164.415 302.168 164.131C300.306 161.617 298.98 158.747 298.273 155.699C298.197 155.404 298.183 155.097 298.232 154.797C298.28 154.496 298.391 154.209 298.556 153.954C298.722 153.698 298.938 153.48 299.192 153.313C299.447 153.145 299.733 153.032 300.032 152.981C300.332 152.929 300.64 152.941 300.935 153.014C301.23 153.088 301.507 153.222 301.748 153.408C301.989 153.593 302.189 153.827 302.335 154.094C302.481 154.361 302.57 154.656 302.596 154.959C303.211 157.352 304.289 159.602 305.77 161.58C305.94 161.813 306.062 162.076 306.13 162.356C306.197 162.636 306.209 162.926 306.164 163.21C306.118 163.495 306.017 163.767 305.866 164.012C305.715 164.257 305.517 164.47 305.284 164.638C304.891 164.915 304.42 165.058 303.94 165.047Z" fill="#8A8778"/>
<path d="M304.407 166.119H303.979C299.208 165.485 294.4 165.172 289.587 165.184C289.282 165.213 288.974 165.178 288.684 165.081C288.393 164.984 288.126 164.827 287.899 164.621C287.673 164.415 287.491 164.164 287.368 163.883C287.244 163.603 287.18 163.3 287.18 162.994C287.18 162.687 287.244 162.384 287.368 162.104C287.491 161.824 287.673 161.572 287.899 161.366C288.126 161.16 288.393 161.003 288.684 160.906C288.974 160.809 289.282 160.774 289.587 160.803C294.681 160.784 299.77 161.123 304.816 161.815C305.335 161.936 305.793 162.24 306.105 162.672C306.417 163.104 306.561 163.635 306.511 164.166C306.461 164.696 306.22 165.191 305.833 165.557C305.446 165.923 304.94 166.137 304.407 166.158V166.119Z" fill="#8A8778"/>
<path d="M288.38 170.576C287.802 170.612 287.233 170.417 286.798 170.034C286.363 169.65 286.099 169.11 286.063 168.531C286.027 167.953 286.222 167.384 286.605 166.949C286.989 166.515 287.529 166.25 288.108 166.214C289.51 166.039 301.74 164.539 305.791 165.24C306.33 165.376 306.797 165.711 307.1 166.177C307.402 166.644 307.517 167.207 307.42 167.755C307.324 168.302 307.024 168.793 306.581 169.129C306.138 169.464 305.584 169.62 305.031 169.564C302.519 169.116 293.658 169.934 288.653 170.557L288.38 170.576Z" fill="#8A8778"/>
<path d="M291.281 175.544C290.749 175.523 290.242 175.31 289.855 174.943C289.468 174.577 289.228 174.082 289.178 173.552C289.128 173.021 289.272 172.491 289.584 172.059C289.895 171.626 290.353 171.322 290.872 171.202C294.03 170.669 297.142 169.894 300.181 168.884C301.369 168.495 302.869 168.027 305.108 167.365C305.665 167.215 306.258 167.289 306.761 167.571C307.263 167.854 307.635 168.322 307.795 168.876C307.956 169.43 307.893 170.024 307.62 170.532C307.347 171.04 306.886 171.42 306.335 171.591C304.154 172.214 302.752 172.662 301.505 173.071C298.325 174.124 295.07 174.938 291.768 175.506L291.281 175.544Z" fill="#8A8778"/>
<path d="M295.953 179.03C295.409 179.02 294.888 178.809 294.49 178.436C294.092 178.064 293.847 177.558 293.801 177.016C293.755 176.473 293.912 175.933 294.241 175.499C294.57 175.065 295.048 174.769 295.583 174.668C302.672 173.46 304.094 170.773 304.094 170.773C304.305 170.257 304.704 169.84 305.211 169.607C305.718 169.374 306.294 169.343 306.823 169.518C307.352 169.694 307.795 170.064 308.062 170.553C308.329 171.043 308.4 171.615 308.261 172.155C307.989 173.012 306.1 177.316 296.323 178.991L295.953 179.03Z" fill="#8A8778"/>
<path d="M304.405 176.382L302.73 158.523C304.912 158.698 306.941 159.71 308.393 161.347C309.846 162.984 310.608 165.12 310.52 167.306C310.54 170.013 309.741 173.09 304.405 176.382Z" fill="#8A8778"/>
<path d="M255.076 118.191C256.02 121.783 255.501 125.603 253.631 128.812C251.762 132.021 248.695 134.358 245.105 135.309C241.51 136.259 237.686 135.742 234.472 133.872C231.258 132.002 228.918 128.932 227.968 125.338L225.494 115.951C225.021 114.172 224.903 112.318 225.147 110.493C225.391 108.669 225.993 106.911 226.917 105.319C227.841 103.727 229.07 102.333 230.534 101.217C231.997 100.101 233.666 99.2839 235.446 98.8134C237.226 98.3404 239.082 98.2232 240.907 98.4685C242.732 98.7139 244.491 99.317 246.083 100.243C247.675 101.169 249.069 102.401 250.184 103.866C251.3 105.332 252.115 107.003 252.583 108.784L255.076 118.191Z" fill="#8A8778"/>
<path d="M253.752 113.207C252.822 116.216 251.14 118.937 248.864 121.114C245.962 123.517 242.464 125.09 238.741 125.666C235.017 126.242 231.207 125.799 227.715 124.385L227.968 125.34C228.987 128.854 231.34 131.831 234.524 133.634C237.708 135.438 241.471 135.925 245.009 134.992C248.548 134.059 251.581 131.78 253.462 128.641C255.343 125.502 255.922 121.753 255.077 118.193L253.752 113.207Z" fill="#00396A"/>
<path d="M227.93 124.833C222.672 121.445 216.985 108.611 225.301 105.807C230.442 104.054 228.378 119.906 228.378 124.385L227.93 124.833Z" fill="#00396A"/>
<path d="M223.705 106.859C217.356 102.243 225.243 89.2148 240.94 89.2148C250.677 89.2148 250.677 96.6541 243.88 100.666C238.291 103.996 229.664 102.049 225.477 107.735L223.705 106.859Z" fill="#00396A"/>
<path d="M253.752 116.088C250.686 111.575 247.908 106.872 245.436 102.008C244.346 99.5737 242.866 95.4061 247.773 98.3662C251.863 100.84 254.103 109.584 253.713 113.946L253.752 116.088Z" fill="#00396A"/>
<path d="M142.711 147.247C140.169 149.393 137.744 151.675 135.447 154.082L103.801 220.179L127.346 189.76L152.37 138.055C149.118 141.151 145.963 144.228 142.711 147.247Z" fill="#00CC9B"/>
<path d="M123.937 136.4C126.235 133.264 128.436 129.584 131.045 126.332L75.6595 99.3008L23.0781 104.559L115.154 147.013C118.211 143.566 121.249 140.081 123.937 136.4Z" fill="#00CC9B"/>
<path d="M131.844 126.723C128.904 130.403 126.508 134.746 123.685 138.174C121.153 141.27 118.602 144.347 115.992 147.385L157.863 166.684L173.053 146.84L131.844 126.723Z" fill="#00CC9B"/>
<path d="M68.8037 203.432L85.0455 169.508L0 128.806L13.6322 100.276L153.693 17.7812L191.902 36.0873L135.738 153.422L158.854 164.503L143.274 197.278L120.119 186.197L103.897 220.122L68.8037 203.432ZM131.804 71.8232L129.662 70.791L54.743 114.648L100.761 136.674L131.804 71.8232Z" fill="#009987"/>
<path d="M158.894 164.503L173.052 146.84L161.952 171.475L142.652 198.408L158.894 164.503Z" fill="#00CC9B"/>
<path d="M153.48 137.062L208.71 15.9883L191.962 36.086L135.797 153.42C137.316 151.921 152.584 137.958 153.48 137.062Z" fill="#00CC9B"/>
<path d="M13.6523 100.275L38.5993 78.541L175.467 0L153.713 17.7803L13.6523 100.275Z" fill="#00CC9B"/>
<path d="M153.711 17.7803L191.92 36.0864L208.707 15.9886L175.464 0L153.711 17.7803Z" fill="#00CC9B"/>
<path d="M106.797 106.216C102.104 102.866 98.8713 104.268 96.6123 104.697C95.1011 104.898 93.5676 104.553 92.2889 103.723C92.0485 103.567 91.7797 103.46 91.4979 103.407C91.2161 103.355 90.9268 103.359 90.6465 103.419C90.3662 103.479 90.1004 103.593 89.8643 103.755C89.6282 103.918 89.4263 104.125 89.2703 104.365C89.1143 104.606 89.0072 104.875 88.9551 105.156C88.903 105.438 88.9068 105.728 88.9665 106.008C89.0262 106.288 89.1405 106.554 89.3029 106.79C89.4653 107.026 89.6726 107.228 89.913 107.384C91.5785 108.371 93.3842 109.1 95.2685 109.546C91.6268 112.876 87.9071 116.888 87.6929 117.121C87.4973 117.333 87.3455 117.581 87.2463 117.852C87.1472 118.122 87.1027 118.41 87.1154 118.698C87.1281 118.986 87.1977 119.268 87.3202 119.529C87.4427 119.79 87.6157 120.024 87.8292 120.218C88.2323 120.588 88.7619 120.79 89.3093 120.783C89.6121 120.781 89.9115 120.718 90.1893 120.598C90.4672 120.477 90.7177 120.301 90.9257 120.081C90.9257 120.081 93.5547 117.238 96.437 114.453C93.7495 117.822 91.2373 121.308 90.7699 121.951C90.5331 122.28 90.3918 122.668 90.3616 123.073C90.3314 123.477 90.4136 123.882 90.5989 124.242C90.7842 124.603 91.0656 124.905 91.4119 125.116C91.7583 125.327 92.1561 125.438 92.5615 125.437C92.9082 125.435 93.2493 125.351 93.5573 125.192C93.8653 125.033 94.1313 124.803 94.3337 124.522C95.7749 122.574 97.8002 119.809 99.7282 117.374C99.0076 118.796 98.0923 120.412 96.2812 123.353C96.1277 123.597 96.024 123.869 95.9762 124.153C95.9283 124.437 95.9373 124.728 96.0025 125.009C96.0677 125.289 96.1878 125.554 96.356 125.788C96.5242 126.022 96.737 126.22 96.9823 126.372C97.4762 126.677 98.0705 126.774 98.6359 126.643C99.2012 126.511 99.6918 126.162 100.001 125.671L101.948 122.594C101.758 123.064 101.738 123.585 101.891 124.068C102.044 124.552 102.36 124.967 102.786 125.242C103.14 125.469 103.552 125.591 103.974 125.593C104.338 125.595 104.696 125.505 105.016 125.331C105.336 125.157 105.607 124.906 105.804 124.6C107.439 122.242 108.621 119.6 109.29 116.81H109.388C110.517 110.734 109.037 107.812 106.797 106.216ZM102.377 121.639C103.097 120.374 103.584 119.4 104.052 118.446C103.576 119.552 103.016 120.62 102.377 121.639Z" fill="#8A8778"/>
<path d="M39.6686 131.064C32.7357 130.675 22.6478 144.249 32.9499 147.949C23.641 147.734 21.2651 160.919 29.8924 164.561C14.9359 161.639 16.6691 181.036 23.7579 188.066C22.5549 187.917 21.3337 188.04 20.185 188.427C19.0363 188.815 17.9897 189.456 17.1232 190.304C16.2567 191.152 15.5926 192.184 15.1801 193.324C14.7677 194.464 14.6177 195.682 14.7412 196.888C15.4812 201.913 17.4676 208.885 29.9119 212.624C42.3561 216.363 49.9707 209.372 56.1636 202.77C60.0585 210.871 79.7083 199.926 77.5856 190.247C84.9665 192.857 91.5878 184.405 91.7436 177.764C91.8994 171.123 87.3034 166.235 82.9411 161.99C86.0181 159.166 86.6024 153.966 85.7844 149.974C84.4407 143.353 76.164 142.71 76.164 137.432C76.164 135.602 76.5145 129.876 74.9371 127.364C72.4443 123.352 68.1015 119.399 62.6291 121.346C39.6686 110.441 39.6686 131.064 39.6686 131.064Z" fill="#00396A"/>
<path d="M53.0667 343.9C46.7569 342.789 45.7248 343.101 39.4345 341.582L24.9844 359.265H81.0906L48.5097 350.501L53.0667 343.9Z" fill="#002E4F"/>
<path d="M157.568 348.964L154.238 344.602C151.284 346.575 148.099 348.177 144.754 349.373L153.615 359.266H186.488L157.568 348.964Z" fill="#002E4F"/>
<path d="M33.5352 343.961C39.8254 345.499 46.1157 347.096 52.4839 348.167L98.8139 291.165L91.0241 268.516L58.5795 231.105L67.9273 284.115L33.5352 343.961Z" fill="#00CC9B"/>
<path d="M96.537 215.408C83.8396 212.038 66.5851 216.303 54.2188 220.977C54.2188 220.977 61.8138 251.182 66.7993 260.18C81.2884 286.412 144.035 351.885 144.035 351.885C147.482 350.717 154.123 345.868 157.161 343.901L96.537 215.408Z" fill="#009987"/>
<path d="M52.5629 232.78C64.8319 228.184 89.5646 220.395 102.106 223.549C102.106 223.549 85.3581 184.25 77.763 175.584C72.6412 169.741 44.6562 153.246 44.6562 174.785C44.987 194.362 47.6411 213.83 52.5629 232.78Z" fill="#CDE5E8"/>
<path d="M63.4273 172.955L62.9405 173.111C61.1431 173.594 59.2278 173.344 57.6142 172.417C56.0007 171.49 54.8206 169.96 54.3327 168.164C53.6264 165.098 53.2543 161.964 53.2227 158.817C53.3174 157.019 54.0984 155.325 55.4046 154.086C56.7108 152.847 58.4427 152.156 60.2432 152.156C62.0438 152.156 63.7757 152.847 65.0819 154.086C66.3881 155.325 67.1691 157.019 67.2638 158.817C67.2557 160.781 67.4647 162.74 67.887 164.659C68.3019 166.349 68.0756 168.132 67.2518 169.664C66.4281 171.197 65.0654 172.369 63.4273 172.955Z" fill="#8A8778"/>
<path d="M68.1598 166.119C68.1296 165.607 68.0514 165.098 67.9261 164.6C67.5037 162.682 67.2947 160.723 67.3029 158.758C67.2082 156.96 66.4272 155.267 65.121 154.028C63.8147 152.788 62.0828 152.098 60.2823 152.098C58.4818 152.098 56.7499 152.788 55.4437 154.028C54.1374 155.267 53.3565 156.96 53.2617 158.758C53.2617 158.855 53.2617 159.07 53.2617 159.362C56.7282 163.315 62.4342 165.165 68.1598 166.119Z" fill="#4F4E49"/>
<path d="M75.1122 144.988C76.1986 148.332 75.9124 151.971 74.3165 155.105C72.7206 158.238 69.9457 160.609 66.6018 161.697C63.2547 162.779 59.6155 162.491 56.4804 160.896C53.3453 159.301 50.9696 156.529 49.8731 153.187L47.0298 144.423C46.4923 142.766 46.2866 141.019 46.4244 139.283C46.5622 137.546 47.0408 135.853 47.8329 134.302C48.625 132.75 49.7151 131.369 51.0409 130.239C52.3667 129.109 53.9022 128.251 55.5597 127.714C58.9041 126.633 62.5407 126.922 65.6727 128.517C68.8047 130.112 71.1766 132.884 72.2689 136.225L75.1122 144.988Z" fill="#8A8778"/>
<path d="M153.129 137.938C152.855 137.72 152.535 137.566 152.194 137.49L153.245 136.341C153.442 136.131 153.596 135.884 153.696 135.614C153.797 135.344 153.843 135.057 153.832 134.769C153.822 134.481 153.754 134.198 153.633 133.936C153.512 133.675 153.341 133.44 153.129 133.245L152.778 132.972C153.076 132.541 153.21 132.018 153.156 131.497C153.103 130.975 152.865 130.49 152.486 130.129C152.191 129.854 151.825 129.667 151.429 129.588C151.034 129.509 150.625 129.541 150.246 129.681C151.24 128.668 151.863 127.967 151.941 127.889C152.273 127.446 152.427 126.895 152.37 126.344C152.314 125.793 152.052 125.283 151.636 124.917C151.221 124.551 150.683 124.355 150.129 124.368C149.575 124.381 149.047 124.602 148.649 124.988C145.792 128.157 142.516 130.922 138.912 133.206C137.663 131.27 135.876 129.74 133.771 128.805C133.243 128.654 132.677 128.706 132.186 128.951C131.694 129.196 131.312 129.616 131.114 130.129C130.916 130.641 130.918 131.209 131.117 131.721C131.317 132.233 131.701 132.651 132.193 132.894C133.459 133.507 134.526 134.466 135.27 135.66C135.038 136.29 134.868 136.943 134.764 137.607C102.495 181.269 59.7285 165.767 57.7811 165.027C55.9617 164.425 53.9802 164.545 52.2475 165.364C50.5147 166.184 49.1638 167.638 48.475 169.427C47.7861 171.215 47.8122 173.2 48.5478 174.97C49.2833 176.74 50.6719 178.159 52.4256 178.932C60.7632 181.798 69.5303 183.214 78.3462 183.119C81.522 183.123 84.6953 182.941 87.8498 182.574C103.955 180.626 127.773 171.434 146.819 146.896C147.277 146.631 147.719 146.338 148.143 146.02C148.554 145.756 148.951 145.47 149.331 145.163C150.808 143.891 152.176 142.497 153.421 140.996C153.776 140.547 153.943 139.978 153.889 139.408C153.834 138.839 153.562 138.312 153.129 137.938Z" fill="#8A8778"/>
<path d="M93.7321 165.223L91.921 165.613C87.4407 166.574 82.871 167.057 78.2888 167.054C71.4902 167.138 64.7269 166.064 58.2884 163.879C56.1188 163.047 53.7078 163.109 51.5834 164.05C49.4591 164.992 47.7945 166.737 46.9542 168.904C46.488 169.964 46.2604 171.113 46.2873 172.271C46.3142 173.428 46.5951 174.566 47.11 175.603C51.3944 183.198 63.1571 186.275 78.2693 186.275C81.5233 186.276 84.7746 186.088 88.0066 185.71C90.0411 185.483 92.0625 185.151 94.0632 184.717L95.329 184.386C94.1964 180.756 93.4586 177.015 93.1284 173.227C93.1676 170.549 93.3692 167.877 93.7321 165.223Z" fill="#E1F3F6"/>
<path d="M46.6412 151.474C51.2567 148.534 52.8341 143.061 52.3278 137.57C56.3785 140.296 59.5723 138.641 62.0651 133.967C69.7186 144.697 81.3644 128.748 65.4731 122.964C52.7562 118.348 40.2925 130.929 43.5642 143.568L46.6412 151.474Z" fill="#00396A"/>
</svg>
