<svg width="101" height="100" viewBox="0 0 101 100" fill="none" xmlns="http://www.w3.org/2000/svg">
<path d="M31.1755 14.9521C27.21 14.9521 23.407 16.5274 20.6029 19.3315C17.7989 22.1355 16.2236 25.9385 16.2236 29.904V75.1384C16.2239 75.6395 16.3722 76.1293 16.6499 76.5463C16.9277 76.9633 17.3225 77.289 17.7848 77.4823C18.247 77.6756 18.7561 77.728 19.2481 77.6329C19.74 77.5377 20.1928 77.2993 20.5497 76.9476L27.2382 70.3439L45.8682 52.0029C47.2666 50.6271 49.1497 49.856 51.1113 49.856C53.073 49.856 54.9561 50.6271 56.3545 52.0029L65.0365 60.5504L76.5395 49.0474C79.0587 46.5202 82.4342 45.0299 85.999 44.8708V29.904C85.999 25.9385 84.4238 22.1355 81.6197 19.3315C78.8157 16.5274 75.0126 14.9521 71.0472 14.9521H31.1755ZM71.0472 37.38C71.0472 38.3617 70.8538 39.3339 70.4781 40.2409C70.1024 41.1479 69.5517 41.972 68.8575 42.6662C68.1633 43.3604 67.3392 43.9111 66.4321 44.2868C65.5251 44.6625 64.553 44.8559 63.5712 44.8559C62.5895 44.8559 61.6173 44.6625 60.7103 44.2868C59.8033 43.9111 58.9791 43.3604 58.2849 42.6662C57.5907 41.972 57.0401 41.1479 56.6644 40.2409C56.2887 39.3339 56.0953 38.3617 56.0953 37.38C56.0953 35.3972 56.8829 33.4957 58.2849 32.0937C59.687 30.6917 61.5885 29.904 63.5712 29.904C65.554 29.904 67.4555 30.6917 68.8575 32.0937C70.2595 33.4957 71.0472 35.3972 71.0472 37.38ZM66.0632 37.38C66.0632 38.0409 65.8007 38.6747 65.3333 39.1421C64.866 39.6094 64.2321 39.8719 63.5712 39.8719C62.9103 39.8719 62.2765 39.6094 61.8091 39.1421C61.3418 38.6747 61.0792 38.0409 61.0792 37.38C61.0792 36.719 61.3418 36.0852 61.8091 35.6179C62.2765 35.1505 62.9103 34.888 63.5712 34.888C64.2321 34.888 64.866 35.1505 65.3333 35.6179C65.8007 36.0852 66.0632 36.719 66.0632 37.38ZM52.472 73.1149L61.5079 64.074L52.8607 55.5564C52.3944 55.0968 51.766 54.8392 51.1113 54.8392C50.4566 54.8392 49.8282 55.0968 49.362 55.5564L28.3097 76.2847C27.2133 77.4609 28.2699 79.2103 29.785 78.6671L31.4147 78.0839C34.9284 76.823 40.2064 75.3428 45.1057 77.3164C46.5311 77.8896 47.6575 78.7119 48.5147 79.6688C49.2822 77.2018 50.6379 74.949 52.472 73.1149ZM55.9956 76.6386L80.0681 52.5661C81.8169 50.8186 84.1882 49.8374 86.6604 49.8384C89.1327 49.8393 91.5032 50.8223 93.2507 52.5711C94.9981 54.3198 95.9793 56.6912 95.9784 59.1634C95.9775 61.6356 94.9945 64.0062 93.2457 65.7536L69.1732 89.8212C67.7709 91.2241 66.0138 92.2198 64.0896 92.7019L58.0042 94.222C52.4121 95.8567 44.074 95.3284 41.4873 93.3099C39.2495 91.5655 39.1598 88.8892 39.9124 87.1099C40.0818 86.7112 39.7828 86.1978 39.3592 86.2626C36.8921 86.6115 34.8736 87.5086 32.88 88.3908C29.9694 89.6866 27.1186 90.9475 23.0317 90.4392C19.4881 90.0006 17.5145 88.1515 16.428 86.3274C15.8199 85.3107 17.1606 84.3737 18.2222 84.902C20.0563 85.819 22.3539 86.5716 24.2827 86.148C25.5337 85.8689 27.1584 85.1861 28.9826 84.4185C33.3934 82.5595 38.9654 80.2171 43.2516 81.9415C46.4214 83.2174 46.1573 86.8308 45.2652 88.5702C45.0907 88.8991 45.2253 89.3676 45.5891 89.4523C47.4119 89.8228 49.2729 89.9701 51.1313 89.8909C51.1514 89.6557 51.1897 89.4225 51.2459 89.1932L53.1149 81.7272C53.5929 79.8014 54.5892 78.0433 55.9956 76.6436V76.6386Z" fill="#8C93A3"/>
<g clip-path="url(#clip0_12729_113127)">
<path d="M7.92476 4.98438L10.0583 10.7502L15.8241 12.8837L10.0583 15.0173L7.92476 20.7831L5.79121 15.0173L0.0253906 12.8837L5.79121 10.7502L7.92476 4.98438Z" fill="#8C93A3"/>
</g>
<g clip-path="url(#clip1_12729_113127)">
<path d="M89.1254 0L92.3257 8.64873L100.974 11.849L92.3257 15.0494L89.1254 23.6981L85.9251 15.0494L77.2764 11.849L85.9251 8.64873L89.1254 0Z" fill="#8C93A3"/>
</g>
<defs>
<clipPath id="clip0_12729_113127">
<rect width="15.7987" height="15.7987" fill="white" transform="translate(0.0253906 4.98438)"/>
</clipPath>
<clipPath id="clip1_12729_113127">
<rect width="23.6981" height="23.6981" fill="white" transform="translate(77.2764)"/>
</clipPath>
</defs>
</svg>
