<svg width="25" height="25" viewBox="0 0 25 25" fill="none" xmlns="http://www.w3.org/2000/svg">
<path d="M9.375 3.125H4.16667C3.59137 3.125 3.125 3.59137 3.125 4.16667V9.375C3.125 9.95031 3.59137 10.4167 4.16667 10.4167H9.375C9.95031 10.4167 10.4167 9.95031 10.4167 9.375V4.16667C10.4167 3.59137 9.95031 3.125 9.375 3.125Z" fill="#E27625" stroke="white" stroke-width="1.79008" stroke-linejoin="round"/>
<path d="M9.375 14.582H4.16667C3.59137 14.582 3.125 15.0484 3.125 15.6237V20.832C3.125 21.4073 3.59137 21.8737 4.16667 21.8737H9.375C9.95031 21.8737 10.4167 21.4073 10.4167 20.832V15.6237C10.4167 15.0484 9.95031 14.582 9.375 14.582Z" fill="#ADFF2F" stroke="white" stroke-width="1.79008" stroke-linejoin="round"/>
<path d="M20.832 3.125H15.6237C15.0484 3.125 14.582 3.59137 14.582 4.16667V9.375C14.582 9.95031 15.0484 10.4167 15.6237 10.4167H20.832C21.4073 10.4167 21.8737 9.95031 21.8737 9.375V4.16667C21.8737 3.59137 21.4073 3.125 20.832 3.125Z" fill="#FFD12F" stroke="white" stroke-width="1.79008" stroke-linejoin="round"/>
<path d="M20.832 14.582H15.6237C15.0484 14.582 14.582 15.0484 14.582 15.6237V20.832C14.582 21.4073 15.0484 21.8737 15.6237 21.8737H20.832C21.4073 21.8737 21.8737 21.4073 21.8737 20.832V15.6237C21.8737 15.0484 21.4073 14.582 20.832 14.582Z" fill="#2F88FF" stroke="white" stroke-width="1.79008" stroke-linejoin="round"/>
</svg>
