<svg width="257" height="257" viewBox="0 0 257 257" fill="none" xmlns="http://www.w3.org/2000/svg">
<path d="M127.563 237.019C187.53 237.019 235.122 188.474 235.122 129.459C235.122 69.4927 186.578 21.9001 127.563 21.9001C67.5963 21.9001 20.0038 70.4446 20.0038 129.459C20.0038 188.474 68.5482 237.019 127.563 237.019Z" fill="#2C374B"/>
<path fill-rule="evenodd" clip-rule="evenodd" d="M186.548 90.4223C185.596 89.4705 138.955 61.8668 133.244 59.9631C131.341 59.0112 126.581 58.0594 123.726 59.0112C120.87 59.9631 71.374 88.5186 69.4703 90.4223C68.5185 91.3742 67.5666 93.2779 66.6148 94.2297C65.6629 96.1334 65.6629 97.0853 65.6629 130.4V164.667L72.3259 168.474C76.1333 170.378 78.9888 172.282 78.9888 172.282C79.9407 172.282 124.678 100.893 124.678 99.9408C124.678 98.989 114.207 98.989 111.352 99.9408C107.544 100.893 104.689 102.796 102.785 104.7C101.833 105.652 96.1222 115.17 88.5073 125.641C81.8444 136.111 76.1333 145.63 76.1333 145.63C76.1333 145.63 76.1333 136.111 76.1333 122.785V98.989L77.0851 98.0371C78.9888 96.1334 127.533 68.5297 129.437 68.5297C130.389 68.5297 131.341 68.5297 142.763 75.1927C146.57 77.0964 157.041 82.8075 165.607 88.5186C174.174 93.2779 181.789 98.0371 182.741 98.989L183.693 99.9408V149.437L159.896 112.315C158.944 110.411 157.993 108.508 157.041 107.556C157.041 107.556 156.089 109.459 150.378 118.978C149.426 119.93 148.474 121.833 148.474 122.785L147.522 124.689L148.474 125.641L149.426 126.593C149.426 126.593 149.426 127.545 150.378 127.545L152.281 130.4C152.281 130.4 152.281 131.352 153.233 131.352C154.185 132.304 155.137 134.208 155.137 135.159C155.137 135.159 155.137 135.159 155.137 136.111L175.126 168.474L173.222 169.426C172.27 170.378 171.318 170.378 170.367 170.378L145.618 132.304L144.667 131.352L142.763 135.159L133.244 150.389L152.281 180.848C149.426 182.752 133.244 194.174 132.293 194.174C131.341 194.174 109.448 179.896 110.4 178.945C110.4 178.945 117.063 167.522 124.678 154.196C131.341 142.774 139.907 128.496 145.618 118.978C152.281 107.556 155.137 101.845 155.137 101.845C155.137 101.845 150.378 101.845 144.667 101.845H135.148L113.255 138.015C105.641 151.341 98.0259 163.715 94.2185 170.378C87.5555 171.33 85.6518 173.233 85.6518 173.233L84.6999 175.137L101.833 184.656C111.352 190.367 119.918 195.126 121.822 196.078C124.678 197.982 129.437 197.982 131.341 197.982C133.244 197.03 182.741 168.474 185.596 166.57C186.548 165.619 187.5 164.667 188.452 162.763L189.404 159.908V128.496V97.0853L188.452 95.1816C188.452 93.2779 186.548 91.3742 186.548 90.4223Z" fill="white"/>
<path d="M181.804 148.489L153.248 104.704L142.778 121.837L170.381 166.574L182.756 160.863L181.804 148.489Z" fill="#24A2EE"/>
<path d="M168.463 172.285L139.907 128.5L127.533 147.537L150.378 183.707L164.655 177.996L168.463 172.285Z" fill="#24A2EE"/>
<path fill-rule="evenodd" clip-rule="evenodd" d="M75.2037 98.9927L127.556 68.5334L179.907 98.9927V159.911L127.556 190.37L88.5297 168.478L83.7704 177.045L126.604 201.793C127.556 202.745 128.507 202.745 129.459 201.793L189.426 167.526C190.378 166.574 191.33 165.622 191.33 164.67V96.1371C191.33 95.1853 190.378 94.2334 189.426 93.2816L129.459 59.0149C128.507 58.0631 127.556 58.0631 126.604 59.0149L66.6371 92.3297C65.6852 93.2816 64.7334 94.2334 64.7334 95.1853V163.719C64.7334 164.67 65.6852 165.622 66.6371 166.574L79.0111 173.237L84.7223 164.67L76.1556 159.911V98.9927H75.2037Z" fill="#98BCDC"/>
<path d="M150.4 98.9963H130.411L83.7704 175.144L99.9519 184.663L150.4 98.9963Z" fill="white"/>
<path d="M99.9519 106.612C104.711 98.9973 118.037 98.9973 123.748 99.9492L78.0593 173.242C76.1556 172.29 72.3482 170.386 69.4926 168.482C65.6852 166.579 64.7334 166.579 64.7334 163.723V159.916C75.2037 144.686 95.1926 114.227 99.9519 106.612Z" fill="white"/>
</svg>
