<svg version="1.1" id="Layer_1" xmlns="http://www.w3.org/2000/svg" xmlns:xlink="http://www.w3.org/1999/xlink" x="0px" y="0px"
	 width="100%" viewBox="0 0 144 144" enable-background="new 0 0 144 144" xml:space="preserve">
<path fill="#000000" opacity="1.000000" stroke="none" 
	d="
M1.000000,55.000000 
	C1.000000,36.666668 1.000000,18.833334 1.000000,1.000000 
	C49.000000,1.000000 97.000000,1.000000 145.000000,1.000000 
	C145.000000,49.000000 145.000000,97.000000 145.000000,145.000000 
	C97.000000,145.000000 49.000000,145.000000 1.000000,145.000000 
	C1.000000,115.166664 1.000000,85.333336 1.000000,55.000000 
M22.416521,26.055298 
	C22.247986,26.339211 22.079453,26.623123 21.301960,27.142599 
	C20.838987,28.066597 20.376013,28.990595 19.236898,30.200253 
	C17.486528,36.287617 14.487756,42.321949 14.226494,48.472565 
	C13.522485,65.046333 13.663855,81.679024 14.145583,98.268707 
	C14.335918,104.823433 14.864537,111.783157 19.983484,117.738892 
	C20.626518,118.524216 21.269552,119.309540 22.055506,120.583916 
	C22.339499,120.752167 22.623493,120.920418 23.054029,121.581856 
	C23.340046,121.749344 23.626062,121.916832 24.053236,122.580032 
	C24.339512,122.748116 24.625788,122.916206 25.052633,123.578979 
	C25.337482,123.749016 25.622332,123.919052 26.053648,124.580818 
	C26.338140,124.750267 26.622631,124.919716 27.142530,125.698196 
	C28.066549,126.161118 28.990568,126.624039 30.200037,127.762909 
	C37.988361,131.717056 46.061211,134.088623 54.988403,133.633759 
	C61.782730,133.287567 68.642387,134.215958 75.435905,133.863281 
	C85.547523,133.338394 95.769554,135.418961 105.752136,132.920410 
	C110.452019,131.744080 115.727715,131.455444 119.710564,126.989525 
	C120.793541,126.273460 121.876518,125.557396 123.589333,124.769753 
	C124.107452,123.912491 124.625580,123.055222 125.800743,121.918900 
	C131.632294,116.116905 132.177292,108.537254 133.150497,100.311905 
	C133.779755,97.190643 131.365173,93.489067 134.949127,90.892426 
	C135.145554,90.750114 134.910507,89.954430 134.814163,89.475372 
	C134.224167,86.541336 133.156616,83.620209 133.097046,80.677589 
	C132.885086,70.207008 133.388596,59.711308 132.880325,49.261150 
	C132.551147,42.493145 132.189056,35.402824 127.016525,29.261122 
	C126.373489,28.475788 125.730453,27.690456 124.944496,26.416067 
	C124.660500,26.247835 124.376495,26.079603 123.945259,25.417007 
	C123.657799,25.248060 123.370346,25.079113 122.945358,24.417536 
	C122.659668,24.250196 122.373978,24.082857 121.947350,23.420855 
	C121.662384,23.250996 121.377419,23.081137 120.946449,22.419235 
	C120.661842,22.249857 120.377235,22.080477 119.857658,21.301943 
	C118.933746,20.838795 118.009842,20.375647 116.799629,19.236660 
	C110.712234,17.486382 104.677856,14.487767 98.527214,14.226516 
	C81.953476,13.522540 65.320808,13.663752 48.731171,14.145688 
	C42.176617,14.336102 35.216541,14.863779 29.261047,19.983398 
	C28.475849,20.626488 27.690653,21.269577 26.413858,22.056721 
	C26.244446,22.342060 26.075033,22.627399 25.413122,23.056892 
	C25.245489,23.343582 25.077856,23.630272 24.415249,24.055923 
	C24.246920,24.342939 24.078590,24.629955 23.416052,25.055511 
	C23.245840,25.341253 23.075628,25.626995 22.416521,26.055298 
z"/>
<path fill="#F5F6FC" opacity="1.000000" stroke="none" 
	d="
M119.062836,127.028564 
	C115.727715,131.455444 110.452019,131.744080 105.752136,132.920410 
	C95.769554,135.418961 85.547523,133.338394 75.435905,133.863281 
	C68.642387,134.215958 61.782730,133.287567 54.988403,133.633759 
	C46.061211,134.088623 37.988361,131.717056 30.087940,127.393097 
	C29.975845,127.023293 30.036129,126.958710 30.419783,126.960449 
	C35.209724,128.262970 39.616009,129.563751 44.468281,130.907089 
	C50.375854,131.291779 55.834133,131.844299 61.299751,131.930206 
	C71.289795,132.087250 81.300163,132.309875 91.271095,131.843399 
	C97.830521,131.536514 104.353142,130.172821 110.856056,129.069199 
	C113.243988,128.663940 115.527870,127.645607 118.159653,126.941948 
	C118.661011,126.994164 118.861923,127.011360 119.062836,127.028564 
z"/>
<path fill="#F5F6FC" opacity="1.000000" stroke="none" 
	d="
M29.912653,19.910635 
	C35.216541,14.863779 42.176617,14.336102 48.731171,14.145688 
	C65.320808,13.663752 81.953476,13.522540 98.527214,14.226516 
	C104.677856,14.487767 110.712234,17.486382 116.912003,19.606573 
	C117.024384,19.976486 116.963806,20.041399 116.579361,20.040386 
	C107.817848,18.369293 99.457710,15.396694 91.060364,15.287600 
	C70.634468,15.022237 49.923531,12.826310 30.005833,20.008818 
	C29.975086,19.975796 29.912653,19.910635 29.912653,19.910635 
z"/>
<path fill="#F5F6FC" opacity="1.000000" stroke="none" 
	d="
M19.910717,117.087273 
	C14.864537,111.783157 14.335918,104.823433 14.145583,98.268707 
	C13.663855,81.679024 13.522485,65.046333 14.226494,48.472565 
	C14.487756,42.321949 17.486528,36.287617 19.606806,30.088043 
	C19.976713,29.975834 20.041300,30.036112 20.039730,30.420540 
	C18.368265,39.182228 15.386939,47.544144 15.288702,55.939796 
	C15.049719,76.363922 12.727330,97.084808 20.008827,116.994148 
	C19.975826,117.024872 19.910717,117.087273 19.910717,117.087273 
z"/>
<path fill="#F5F6FC" opacity="1.000000" stroke="none" 
	d="
M127.089287,29.912731 
	C132.189056,35.402824 132.551147,42.493145 132.880325,49.261150 
	C133.388596,59.711308 132.885086,70.207008 133.097046,80.677589 
	C133.156616,83.620209 134.224167,86.541336 134.814163,89.475372 
	C134.910507,89.954430 135.145554,90.750114 134.949127,90.892426 
	C131.365173,93.489067 133.779755,97.190643 132.729126,100.647507 
	C132.131622,100.977043 131.955475,100.970970 131.820709,100.505768 
	C131.861435,96.038559 131.860825,92.030479 131.898773,87.553864 
	C131.653320,67.949013 133.844208,48.596676 126.991165,30.005848 
	C127.024170,29.975122 127.089287,29.912731 127.089287,29.912731 
z"/>
<path fill="#ECF2FB" opacity="1.000000" stroke="none" 
	d="
M131.779343,100.964905 
	C131.955475,100.970970 132.131622,100.977043 132.572021,100.989532 
	C132.177292,108.537254 131.632294,116.116905 125.135445,122.105057 
	C124.020950,122.236023 123.571747,122.180832 123.093201,122.095573 
	C123.063843,122.065506 123.005257,122.005257 123.019592,121.649994 
	C125.949074,114.518120 128.864197,107.741508 131.779343,100.964905 
z"/>
<path fill="#ECF2FB" opacity="1.000000" stroke="none" 
	d="
M119.386703,127.009048 
	C118.861923,127.011360 118.661011,126.994164 118.224075,126.607437 
	C119.660461,124.827034 121.332863,123.416145 123.005257,122.005257 
	C123.005257,122.005257 123.063843,122.065506 123.050262,122.433716 
	C123.010956,123.481728 122.985222,124.161530 122.959488,124.841331 
	C121.876518,125.557396 120.793541,126.273460 119.386703,127.009048 
z"/>
<path fill="#F5F6FC" opacity="1.000000" stroke="none" 
	d="
M19.944878,29.945213 
	C20.376013,28.990595 20.838987,28.066597 21.637241,27.057356 
	C21.972525,26.972113 22.041721,27.029057 22.049026,27.379307 
	C21.384655,28.498411 20.712978,29.267262 20.041300,30.036112 
	C20.041300,30.036112 19.976713,29.975834 19.944878,29.945213 
z"/>
<path fill="#F5F6FC" opacity="1.000000" stroke="none" 
	d="
M125.087425,26.905121 
	C125.730453,27.690456 126.373489,28.475788 127.052902,29.586926 
	C127.089287,29.912731 127.024170,29.975122 126.650208,29.953550 
	C125.836937,28.964298 125.397621,27.996620 124.992691,27.000183 
	C125.027077,26.971424 125.087425,26.905121 125.087425,26.905121 
z"/>
<path fill="#F5F6FC" opacity="1.000000" stroke="none" 
	d="
M29.945217,127.055130 
	C28.990568,126.624039 28.066549,126.161118 27.057337,125.362839 
	C26.972143,125.027473 27.029043,124.958237 27.379436,124.950806 
	C28.498596,125.615158 29.267363,126.286934 30.036129,126.958710 
	C30.036129,126.958710 29.975845,127.023293 29.945217,127.055130 
z"/>
<path fill="#4F79AB" opacity="1.000000" stroke="none" 
	d="
M123.274414,124.805542 
	C122.985222,124.161530 123.010956,123.481728 123.079620,122.463783 
	C123.571747,122.180832 124.020950,122.236023 124.806923,122.244591 
	C124.625580,123.055222 124.107452,123.912491 123.274414,124.805542 
z"/>
<path fill="#F5F6FC" opacity="1.000000" stroke="none" 
	d="
M117.055161,19.944492 
	C118.009842,20.375647 118.933746,20.838795 119.942703,21.637283 
	C120.027748,21.972622 119.971024,22.041744 119.620636,22.049332 
	C118.501434,21.385080 117.732620,20.713242 116.963806,20.041401 
	C116.963806,20.041399 117.024384,19.976486 117.055161,19.944492 
z"/>
<path fill="#F5F6FC" opacity="1.000000" stroke="none" 
	d="
M26.905457,21.912666 
	C27.690653,21.269577 28.475849,20.626488 29.586849,19.947018 
	C29.912653,19.910635 29.975086,19.975796 29.953545,20.349766 
	C28.964283,21.163017 27.996565,21.602297 27.000088,22.007349 
	C26.971331,21.973124 26.905457,21.912668 26.905457,21.912666 
z"/>
<path fill="#F5F6FC" opacity="1.000000" stroke="none" 
	d="
M21.912584,120.094872 
	C21.269552,119.309540 20.626518,118.524216 19.947102,117.413086 
	C19.910717,117.087273 19.975826,117.024872 20.349777,117.046432 
	C21.163048,118.035690 21.602367,119.003372 22.007303,119.999817 
	C21.972921,120.028572 21.912582,120.094872 21.912584,120.094872 
z"/>
<path fill="#F5F6FC" opacity="1.000000" stroke="none" 
	d="
M26.939632,125.058319 
	C26.622631,124.919716 26.338140,124.750267 26.010696,124.306015 
	C25.967747,124.031204 26.027426,123.972420 26.262587,124.056580 
	C26.794914,124.335197 26.972013,124.607697 27.029043,124.958237 
	C27.029043,124.958237 26.972143,125.027473 26.939632,125.058319 
z"/>
<path fill="#F5F6FC" opacity="1.000000" stroke="none" 
	d="
M25.905621,22.912739 
	C26.075033,22.627399 26.244446,22.342060 26.659657,21.984695 
	C26.905457,21.912668 26.971331,21.973124 26.912075,22.240868 
	C26.653397,22.802132 26.378197,22.975115 25.997173,22.998486 
	C25.967127,22.969406 25.905621,22.912739 25.905621,22.912739 
z"/>
<path fill="#F5F6FC" opacity="1.000000" stroke="none" 
	d="
M25.937462,124.060143 
	C25.622332,123.919052 25.337482,123.749016 25.011261,123.304031 
	C24.969891,123.029091 25.026905,122.973061 25.260490,123.063583 
	C25.671858,123.426872 25.849642,123.699646 26.027424,123.972420 
	C26.027426,123.972420 25.967747,124.031204 25.937462,124.060143 
z"/>
<path fill="#F5F6FC" opacity="1.000000" stroke="none" 
	d="
M24.940977,123.056686 
	C24.625788,122.916206 24.339512,122.748116 24.011553,122.304558 
	C23.969870,122.029083 24.027035,121.973206 24.259087,122.064804 
	C24.782635,122.354538 24.961224,122.626755 25.026905,122.973061 
	C25.026905,122.973061 24.969891,123.029091 24.940977,123.056686 
z"/>
<path fill="#F5F6FC" opacity="1.000000" stroke="none" 
	d="
M23.940975,122.056702 
	C23.626062,121.916832 23.340046,121.749344 23.010925,121.306458 
	C22.967819,121.031052 23.027557,120.972801 23.262344,121.060005 
	C23.673767,121.422539 23.850403,121.697868 24.027037,121.973206 
	C24.027035,121.973206 23.969870,122.029083 23.940975,122.056702 
z"/>
<path fill="#F5F6FC" opacity="1.000000" stroke="none" 
	d="
M22.937653,121.059860 
	C22.623493,120.920418 22.339499,120.752167 21.984043,120.339394 
	C21.912582,120.094872 21.972921,120.028572 22.241001,120.087524 
	C22.802284,120.346375 22.975109,120.621819 23.027557,120.972801 
	C23.027557,120.972801 22.967819,121.031052 22.937653,121.059860 
z"/>
<path fill="#F5F6FC" opacity="1.000000" stroke="none" 
	d="
M123.082886,24.910164 
	C123.370346,25.079113 123.657799,25.248060 123.988708,25.692987 
	C124.032166,25.968967 123.972450,26.027201 123.737595,25.940029 
	C123.326157,25.577501 123.149559,25.302147 123.000824,24.997990 
	C123.028671,24.969185 123.082886,24.910164 123.082886,24.910164 
z"/>
<path fill="#F5F6FC" opacity="1.000000" stroke="none" 
	d="
M120.060188,21.941860 
	C120.377235,22.080477 120.661842,22.249857 120.989288,22.694077 
	C121.032120,22.968920 120.972664,23.027475 120.737747,22.942978 
	C120.205894,22.664164 120.028625,22.391918 119.971024,22.041744 
	C119.971024,22.041744 120.027748,21.972622 120.060188,21.941860 
z"/>
<path fill="#F5F6FC" opacity="1.000000" stroke="none" 
	d="
M24.910223,23.916962 
	C25.077856,23.630272 25.245489,23.343582 25.659370,22.984816 
	C25.905621,22.912739 25.967127,22.969406 25.909996,23.233301 
	C25.577513,23.673815 25.302160,23.850435 24.997990,23.999182 
	C24.969173,23.971310 24.910223,23.916962 24.910223,23.916962 
z"/>
<path fill="#F5F6FC" opacity="1.000000" stroke="none" 
	d="
M121.062286,22.940098 
	C121.377419,23.081137 121.662384,23.250996 121.988815,23.695824 
	C122.030273,23.970793 121.973091,24.026922 121.739433,23.936623 
	C121.328072,23.573376 121.150368,23.300426 120.972664,23.027475 
	C120.972664,23.027475 121.032120,22.968920 121.062286,22.940098 
z"/>
<path fill="#F5F6FC" opacity="1.000000" stroke="none" 
	d="
M23.910263,24.916969 
	C24.078590,24.629955 24.246920,24.342939 24.662735,23.986443 
	C24.910223,23.916962 24.969173,23.971310 24.906467,24.231291 
	C24.645632,24.782864 24.373363,24.961416 23.998070,24.999130 
	C23.969185,24.971336 23.910261,24.916969 23.910263,24.916969 
z"/>
<path fill="#F5F6FC" opacity="1.000000" stroke="none" 
	d="
M122.059280,23.943155 
	C122.373978,24.082857 122.659668,24.250196 123.014122,24.663849 
	C123.082886,24.910164 123.028671,24.969185 122.768494,24.906742 
	C122.216400,24.646175 122.037987,24.373714 121.973091,24.026922 
	C121.973091,24.026922 122.030273,23.970793 122.059280,23.943155 
z"/>
<path fill="#F5F6FC" opacity="1.000000" stroke="none" 
	d="
M22.905418,25.912735 
	C23.075628,25.626995 23.245840,25.341253 23.663157,24.986240 
	C23.910261,24.916969 23.969185,24.971336 23.907606,25.232754 
	C23.573210,25.671923 23.300390,25.849674 22.997335,25.998432 
	C22.967100,25.969437 22.905418,25.912737 22.905418,25.912735 
z"/>
<path fill="#F5F6FC" opacity="1.000000" stroke="none" 
	d="
M124.062332,25.940170 
	C124.376495,26.079603 124.660500,26.247835 125.015961,26.660595 
	C125.087425,26.905121 125.027077,26.971424 124.759003,26.912464 
	C124.197830,26.653551 124.025002,26.378117 123.972450,26.027201 
	C123.972450,26.027201 124.032166,25.968967 124.062332,25.940170 
z"/>
<path fill="#F5F6FC" opacity="1.000000" stroke="none" 
	d="
M21.941721,26.939575 
	C22.079453,26.623123 22.247986,26.339211 22.660969,25.984016 
	C22.905418,25.912737 22.967100,25.969437 22.913157,26.233601 
	C22.664850,26.795076 22.392353,26.972172 22.041721,27.029057 
	C22.041721,27.029057 21.972525,26.972113 21.941721,26.939575 
z"/>
<path fill="#C1DDFF" opacity="1.000000" stroke="none" 
	d="
M22.049026,27.379307 
	C22.392353,26.972172 22.664850,26.795076 22.943392,26.262596 
	C23.300390,25.849674 23.573210,25.671923 23.936491,25.260548 
	C24.373363,24.961416 24.645632,24.782864 24.935284,24.259163 
	C25.302160,23.850435 25.577513,23.673815 25.940044,23.262383 
	C26.378197,22.975115 26.653397,22.802132 26.940834,22.275093 
	C27.996565,21.602297 28.964283,21.163017 29.984291,20.382790 
	C49.923531,12.826310 70.634468,15.022237 91.060364,15.287600 
	C99.457710,15.396694 107.817848,18.369293 116.579361,20.040386 
	C117.732620,20.713242 118.501434,21.385080 119.620636,22.049332 
	C120.028625,22.391918 120.205894,22.664164 120.737747,22.942978 
	C121.150368,23.300426 121.328072,23.573376 121.739433,23.936623 
	C122.037987,24.373714 122.216400,24.646175 122.740646,24.935547 
	C123.149559,25.302147 123.326157,25.577501 123.737595,25.940029 
	C124.025002,26.378117 124.197830,26.653551 124.724625,26.941223 
	C125.397621,27.996620 125.836937,28.964298 126.617203,29.984276 
	C133.844208,48.596676 131.653320,67.949013 131.569000,87.500687 
	C130.115128,86.770004 129.183105,85.400742 127.911034,84.526001 
	C125.515846,82.878952 124.011871,79.007202 119.678894,80.872391 
	C110.950806,75.056351 102.150436,71.569756 91.606934,75.965515 
	C87.145393,78.650467 83.058365,81.318855 78.676254,84.142197 
	C76.917778,86.518280 75.454399,88.739410 73.550095,90.989410 
	C70.845024,90.764351 68.576233,90.545807 66.317581,90.249969 
	C59.078438,89.301781 51.762455,87.269623 44.588966,91.919479 
	C41.417130,93.840790 38.274117,95.380356 35.860359,97.684021 
	C27.658030,105.512245 27.052530,108.316505 31.036388,116.239792 
	C31.351229,122.101547 35.754803,124.132011 39.483662,126.797035 
	C41.126431,127.971123 42.517143,129.497894 44.022297,130.864532 
	C39.616009,129.563751 35.209724,128.262970 30.419781,126.960449 
	C29.267363,126.286934 28.498596,125.615158 27.379436,124.950806 
	C26.972013,124.607697 26.794914,124.335197 26.262585,124.056580 
	C25.849642,123.699646 25.671858,123.426872 25.260490,123.063583 
	C24.961224,122.626755 24.782635,122.354538 24.259087,122.064804 
	C23.850403,121.697868 23.673767,121.422539 23.262344,121.060005 
	C22.975109,120.621819 22.802284,120.346375 22.275383,120.058777 
	C21.602367,119.003372 21.163048,118.035690 20.382778,117.015717 
	C12.727330,97.084808 15.049719,76.363922 15.288702,55.939796 
	C15.386939,47.544144 18.368265,39.182228 20.039730,30.420540 
	C20.712978,29.267262 21.384655,28.498411 22.049026,27.379307 
M58.010666,64.686661 
	C58.559288,66.173164 58.763599,67.942703 59.714016,69.098930 
	C64.790642,75.274887 72.257141,76.933029 78.840866,73.581009 
	C85.507080,70.186996 88.745804,62.650749 86.824455,55.003895 
	C85.664497,50.387333 79.551399,45.867832 75.376251,46.675991 
	C68.630592,41.087070 61.708370,41.746277 56.988560,48.612709 
	C53.356567,53.896580 55.109043,58.979099 58.010666,64.686661 
z"/>
<path fill="#B9D6F9" opacity="1.000000" stroke="none" 
	d="
M119.984558,81.029747 
	C124.011871,79.007202 125.515846,82.878952 127.911034,84.526001 
	C129.183105,85.400742 130.115128,86.770004 131.530426,87.969223 
	C131.860825,92.030479 131.861435,96.038559 131.820709,100.505768 
	C128.864197,107.741508 125.949074,114.518120 123.019592,121.649994 
	C121.332863,123.416145 119.660461,124.827034 117.923637,126.572433 
	C115.527870,127.645607 113.243988,128.663940 110.856056,129.069199 
	C104.353142,130.172821 97.830521,131.536514 91.271095,131.843399 
	C81.300163,132.309875 71.289795,132.087250 61.299751,131.930206 
	C55.834133,131.844299 50.375854,131.291779 44.468281,130.907089 
	C42.517143,129.497894 41.126431,127.971123 39.483662,126.797035 
	C35.754803,124.132011 31.351229,122.101547 31.325802,116.430885 
	C34.095131,117.537804 36.561665,118.844742 39.029499,120.506531 
	C41.652596,122.573357 44.099934,125.319275 46.930035,125.796822 
	C54.395428,127.056503 62.022625,127.818207 69.593307,127.885239 
	C81.025276,127.986465 92.467545,127.420212 103.898705,126.967644 
	C113.804535,126.575462 122.874176,119.965523 125.139618,110.368538 
	C126.637497,104.023125 126.625938,97.274704 126.822624,90.692741 
	C126.897057,88.201767 125.569542,85.762375 122.145500,85.686966 
	C121.393784,83.899567 120.689171,82.464653 119.984558,81.029747 
z"/>
<path fill="#FDFEFF" opacity="1.000000" stroke="none" 
	d="
M39.028202,120.151680 
	C36.561665,118.844742 34.095131,117.537804 31.339176,116.039780 
	C27.052530,108.316505 27.658030,105.512245 35.860359,97.684021 
	C38.274117,95.380356 41.417130,93.840790 44.780785,92.206039 
	C53.673153,99.256439 62.108444,105.936890 70.299065,112.904938 
	C73.484993,115.615303 76.119080,118.974342 78.535614,122.054222 
	C70.927094,122.069382 63.776424,122.313042 56.651321,121.990990 
	C50.761272,121.724754 44.901428,120.790146 39.028202,120.151680 
z"/>
<path fill="#F7FBFF" opacity="1.000000" stroke="none" 
	d="
M79.004532,122.037903 
	C76.119080,118.974342 73.484993,115.615303 70.299065,112.904938 
	C62.108444,105.936890 53.673153,99.256439 45.143826,92.174477 
	C51.762455,87.269623 59.078438,89.301781 66.317581,90.249969 
	C68.576233,90.545807 70.845024,90.764351 73.588585,91.339478 
	C80.494804,97.500656 87.041916,103.215340 93.303535,109.227371 
	C97.094383,112.867119 100.442924,116.967545 103.572021,120.924561 
	C95.104088,121.338051 87.054306,121.687973 79.004532,122.037903 
z"/>
<path fill="#F2F8FF" opacity="1.000000" stroke="none" 
	d="
M103.990189,120.861008 
	C100.442924,116.967545 97.094383,112.867119 93.303535,109.227371 
	C87.041916,103.215340 80.494804,97.500656 74.029510,91.310608 
	C75.454399,88.739410 76.917778,86.518280 79.078957,84.146713 
	C81.707695,84.672058 83.967850,84.919846 85.507614,86.104202 
	C90.057396,89.603821 94.273354,93.533279 98.710716,97.184212 
	C104.783585,102.180771 110.940025,107.075745 116.910385,112.318893 
	C112.503471,115.369362 108.246826,118.115189 103.990189,120.861008 
z"/>
<path fill="#EFF6FF" opacity="1.000000" stroke="none" 
	d="
M117.060646,112.014259 
	C110.940025,107.075745 104.783585,102.180771 98.710716,97.184212 
	C94.273354,93.533279 90.057396,89.603821 85.507614,86.104202 
	C83.967850,84.919846 81.707695,84.672058 79.374039,83.991760 
	C83.058365,81.318855 87.145393,78.650467 91.755684,76.273529 
	C98.565193,82.066956 104.762154,87.676018 111.176254,93.024681 
	C114.274483,95.608261 117.780983,97.702255 121.084763,100.427803 
	C119.731483,104.563210 118.396065,108.288734 117.060646,112.014259 
z"/>
<path fill="#EDF5FF" opacity="1.000000" stroke="none" 
	d="
M58.030621,63.902645 
	C55.109043,58.979099 53.356567,53.896580 56.988560,48.612709 
	C61.708370,41.746277 68.630592,41.087070 75.834183,47.143044 
	C77.199547,49.408283 78.106972,51.206474 79.006226,53.413914 
	C78.447403,63.161247 74.048927,67.020508 63.786564,66.724747 
	C61.723099,65.614357 59.876858,64.758499 58.030621,63.902645 
z"/>
<path fill="#ECF4FF" opacity="1.000000" stroke="none" 
	d="
M121.102623,100.017921 
	C117.780983,97.702255 114.274483,95.608261 111.176254,93.024681 
	C104.762154,87.676018 98.565193,82.066956 92.130203,76.256958 
	C102.150436,71.569756 110.950806,75.056351 119.678902,80.872391 
	C120.689171,82.464653 121.393784,83.899567 122.092438,86.143929 
	C121.758530,91.308228 121.430580,95.663071 121.102623,100.017921 
z"/>
<path fill="#B9D6FA" opacity="1.000000" stroke="none" 
	d="
M58.020645,64.294655 
	C59.876858,64.758499 61.723099,65.614357 63.827892,67.086082 
	C66.408394,71.366898 69.946373,72.266975 73.853333,71.492989 
	C78.759682,70.521019 82.618484,67.726646 83.115639,62.525578 
	C83.453445,58.991524 84.595825,54.326271 79.014397,53.004665 
	C78.106972,51.206474 77.199547,49.408283 76.145752,47.305428 
	C79.551399,45.867832 85.664497,50.387333 86.824455,55.003895 
	C88.745804,62.650749 85.507080,70.186996 78.840866,73.581009 
	C72.257141,76.933029 64.790642,75.274887 59.714016,69.098930 
	C58.763599,67.942703 58.559288,66.173164 58.020645,64.294655 
z"/>
<path fill="#AFCDF3" opacity="1.000000" stroke="none" 
	d="
M121.084763,100.427803 
	C121.430580,95.663071 121.758530,91.308228 122.139549,86.496414 
	C125.569542,85.762375 126.897057,88.201767 126.822624,90.692741 
	C126.625938,97.274704 126.637497,104.023125 125.139618,110.368538 
	C122.874176,119.965523 113.804535,126.575462 103.898705,126.967644 
	C92.467545,127.420212 81.025276,127.986465 69.593307,127.885239 
	C62.022625,127.818207 54.395428,127.056503 46.930035,125.796822 
	C44.099934,125.319275 41.652596,122.573357 39.029499,120.506531 
	C44.901428,120.790146 50.761272,121.724754 56.651321,121.990990 
	C63.776424,122.313042 70.927094,122.069382 78.535614,122.054214 
	C87.054306,121.687973 95.104088,121.338051 103.572021,120.924568 
	C108.246826,118.115189 112.503471,115.369362 116.910385,112.318893 
	C118.396065,108.288734 119.731483,104.563210 121.084763,100.427803 
z"/>
<path fill="#AECDF3" opacity="1.000000" stroke="none" 
	d="
M79.006226,53.413914 
	C84.595825,54.326271 83.453445,58.991524 83.115639,62.525578 
	C82.618484,67.726646 78.759682,70.521019 73.853333,71.492989 
	C69.946373,72.266975 66.408394,71.366898 64.045120,67.340607 
	C74.048927,67.020508 78.447403,63.161247 79.006226,53.413914 
z"/>
</svg>