<svg version="1.1" id="Layer_1" xmlns="http://www.w3.org/2000/svg" xmlns:xlink="http://www.w3.org/1999/xlink" x="0px" y="0px"
	 width="100%" viewBox="0 0 256 256" enable-background="new 0 0 256 256" xml:space="preserve">
<path fill="#A8DBF4" opacity="1.000000" stroke="none" 
	d="
M1.000000,161.000000 
	C1.000000,107.666649 1.000000,54.333294 1.000000,1.000000 
	C6.082822,1.000000 11.070212,1.000000 16.528801,1.468657 
	C17.000000,12.194818 17.000000,22.452324 17.000000,33.167587 
	C22.639006,33.167587 27.706694,33.167587 33.022533,33.167587 
	C33.022533,49.427868 33.022533,65.221336 32.552940,81.008453 
	C27.164165,81.002113 22.244982,81.002113 17.023340,81.002113 
	C17.023340,108.029716 17.023340,134.526886 16.555122,161.013458 
	C11.057935,161.001923 6.028967,161.000961 1.000000,161.000000 
z"/>
<path fill="#A8DBF4" opacity="1.000000" stroke="none" 
	d="
M241.000000,1.000000 
	C246.320053,1.000000 251.640091,1.000000 257.000000,1.000000 
	C257.000000,54.020889 257.000000,107.041786 256.533051,160.531342 
	C251.036285,161.008011 246.006470,161.016037 240.986938,160.553925 
	C240.997208,133.794052 240.997208,107.504326 240.997208,81.014809 
	C235.224396,81.014809 230.100937,81.014809 224.987366,80.545311 
	C224.997238,64.489830 224.997238,48.903847 224.997238,32.856461 
	C230.613617,32.856461 235.684280,32.856461 241.000000,32.856461 
	C241.000000,21.926966 241.000000,11.463483 241.000000,1.000000 
z"/>
<path fill="#A8DBF4" opacity="1.000000" stroke="none" 
	d="
M49.000000,1.000000 
	C102.020897,1.000000 155.041794,1.000000 208.531342,1.467532 
	C209.000000,6.856863 209.000000,11.778663 209.000000,17.133783 
	C203.389954,17.133783 198.329834,17.133783 192.908112,17.133783 
	C192.908112,22.701275 192.908112,27.819981 192.449646,32.965557 
	C186.986084,33.002728 181.981003,33.013023 176.986526,32.554432 
	C176.997131,27.149851 176.997131,22.214159 176.997131,17.302494 
	C144.701416,17.302494 112.984253,17.302494 81.024124,17.302494 
	C81.024124,22.742943 81.024124,27.883125 80.555931,33.013054 
	C75.089096,32.981403 70.090446,32.960007 65.051537,32.476479 
	C65.011269,27.097960 65.011269,22.181574 65.011269,16.828045 
	C59.349895,16.828045 54.291336,16.828045 49.000000,16.828045 
	C49.000000,11.251372 49.000000,6.125686 49.000000,1.000000 
z"/>
<path fill="#550E11" opacity="1.000000" stroke="none" 
	d="
M192.908112,32.938686 
	C192.908112,27.819981 192.908112,22.701275 192.908112,17.133783 
	C198.329834,17.133783 203.389954,17.133783 209.000000,17.133783 
	C209.000000,11.778663 209.000000,6.856863 209.000000,1.467532 
	C219.354233,1.000000 229.708450,1.000000 240.531342,1.000000 
	C241.000000,11.463483 241.000000,21.926966 241.000000,32.856461 
	C235.684280,32.856461 230.613617,32.856461 224.997238,32.856461 
	C224.997238,48.903847 224.997238,64.489830 224.990173,80.524910 
	C224.983093,80.974007 225.025208,80.973656 224.555023,80.983841 
	C213.855316,80.994026 203.625809,80.994026 192.921829,80.994026 
	C192.921829,69.913902 192.921829,59.487190 192.944031,48.589996 
	C192.946854,43.059242 192.927475,37.998962 192.908112,32.938686 
z"/>
<path fill="#550E11" opacity="1.000000" stroke="none" 
	d="
M48.531342,1.000000 
	C49.000000,6.125686 49.000000,11.251372 49.000000,16.828045 
	C54.291336,16.828045 59.349895,16.828045 65.011269,16.828045 
	C65.011269,22.181574 65.011269,27.097960 65.022491,32.944683 
	C65.048538,38.936832 65.063362,43.998650 65.047203,49.525536 
	C65.016228,60.214149 65.016228,70.437691 65.016228,80.973656 
	C53.847454,80.973656 43.411129,80.973656 32.995857,80.973831 
	C33.016914,80.973999 33.022533,81.014801 33.022533,81.014801 
	C33.022533,65.221336 33.022533,49.427868 33.022533,33.167587 
	C27.706694,33.167587 22.639006,33.167587 17.000000,33.167587 
	C17.000000,22.452324 17.000000,12.194818 17.000000,1.468657 
	C27.354227,1.000000 37.708454,1.000000 48.531342,1.000000 
z"/>
<path fill="#A8DBF4" opacity="1.000000" stroke="none" 
	d="
M257.000000,209.000000 
	C257.000000,224.937241 257.000000,240.874496 257.000000,257.000000 
	C235.979477,257.000000 214.958405,257.000000 193.468658,256.533051 
	C192.991989,251.036285 192.983963,246.006470 193.446075,240.986938 
	C204.232193,240.997208 214.548172,240.997208 224.953827,240.997208 
	C224.953827,235.172302 224.953827,230.064651 225.424042,224.975922 
	C230.906509,224.994843 235.918747,224.994843 240.956970,224.994843 
	C240.956970,219.137863 240.956970,214.045868 241.426147,208.974152 
	C246.930222,208.996292 251.965103,208.998154 257.000000,209.000000 
z"/>
<path fill="#A8DBF4" opacity="1.000000" stroke="none" 
	d="
M65.000000,257.000000 
	C43.750336,257.000000 22.500671,257.000000 1.000000,257.000000 
	C1.000000,241.313324 1.000000,225.625320 1.467020,209.468658 
	C6.970365,208.984604 12.006690,208.969223 17.024094,209.424057 
	C17.005171,214.906509 17.005171,219.918747 17.005171,224.956985 
	C22.862240,224.956985 27.954205,224.956985 33.025852,225.426849 
	C33.005535,230.800262 33.005535,235.703842 33.005535,240.976669 
	C43.984009,240.976669 54.504063,240.976669 65.013504,241.444885 
	C65.001930,246.942062 65.000961,251.971039 65.000000,257.000000 
z"/>
<path fill="#181B1D" opacity="1.000000" stroke="none" 
	d="
M17.043015,208.953827 
	C12.006690,208.969223 6.970365,208.984604 1.467020,209.000000 
	C1.000000,193.312439 1.000000,177.624878 1.000000,161.468658 
	C6.028967,161.000961 11.057935,161.001923 16.542334,161.000397 
	C16.997765,160.997910 16.971991,160.971970 16.983189,161.442322 
	C17.050539,172.281647 17.106693,182.650650 17.093071,193.481750 
	C17.000235,198.977890 16.977179,204.011887 16.976429,209.022980 
	C16.998737,209.000046 17.043015,208.953842 17.043015,208.953827 
z"/>
<path fill="#181B1D" opacity="1.000000" stroke="none" 
	d="
M192.975937,240.976654 
	C192.983963,246.006470 192.991989,251.036285 193.000000,256.533051 
	C177.312439,257.000000 161.624878,257.000000 145.468658,256.533173 
	C144.962143,251.049835 144.924286,246.033325 145.361572,241.011902 
	C150.917923,240.957977 155.999130,240.908951 161.540924,240.915985 
	C172.343674,240.990723 182.685837,241.009384 193.015045,241.015137 
	C193.002090,241.002243 192.975937,240.976654 192.975937,240.976654 
z"/>
<path fill="#181B1D" opacity="1.000000" stroke="none" 
	d="
M257.000000,208.531342 
	C251.965103,208.998154 246.930222,208.996292 241.448288,208.997253 
	C241.001251,209.000061 241.045883,209.045898 241.026215,208.576553 
	C240.950089,203.078064 240.893646,198.048904 240.902283,192.553894 
	C240.987579,181.716003 241.007797,171.343994 241.015137,160.984955 
	C241.002243,160.997910 240.976654,161.024063 240.976654,161.024063 
	C246.006470,161.016037 251.036285,161.008011 256.533051,161.000000 
	C257.000000,176.687561 257.000000,192.375122 257.000000,208.531342 
z"/>
<path fill="#181B1D" opacity="1.000000" stroke="none" 
	d="
M65.468658,257.000000 
	C65.000961,251.971039 65.001930,246.942062 65.000427,241.457672 
	C64.997955,241.002258 64.971985,241.028030 65.442322,241.016815 
	C76.248405,240.957031 86.584152,240.908447 97.390106,240.907196 
	C102.946182,240.975159 108.032043,240.995773 113.066032,241.479675 
	C113.009438,246.961960 113.004723,251.980988 113.000000,257.000000 
	C97.312439,257.000000 81.624878,257.000000 65.468658,257.000000 
z"/>
<path fill="#A8DBF4" opacity="1.000000" stroke="none" 
	d="
M113.468658,257.000000 
	C113.004723,251.980988 113.009438,246.961960 113.024353,241.474426 
	C113.034546,241.005890 113.015869,241.088043 113.482155,241.049286 
	C124.293663,241.036362 134.638885,241.062195 144.976822,241.046753 
	C144.969528,241.005447 144.886429,241.016815 144.886429,241.016815 
	C144.924286,246.033325 144.962143,251.049835 145.000000,256.533173 
	C134.645767,257.000000 124.291542,257.000000 113.468658,257.000000 
z"/>
<path fill="#181B1D" opacity="1.000000" stroke="none" 
	d="
M17.010551,161.010986 
	C17.023340,134.526886 17.023340,108.029716 17.023340,81.002113 
	C22.244982,81.002113 27.164165,81.002113 32.552940,81.008453 
	C33.022533,81.014801 33.016914,80.973999 33.005928,81.444107 
	C33.011177,108.289703 33.027412,134.665192 32.574051,161.024445 
	C27.060305,160.996140 22.016148,160.984055 16.971991,160.971970 
	C16.971991,160.971970 16.997765,160.997910 17.010551,161.010986 
z"/>
<path fill="#181B1D" opacity="1.000000" stroke="none" 
	d="
M224.980286,80.994408 
	C230.100937,81.014809 235.224396,81.014809 240.997208,81.014809 
	C240.997208,107.504326 240.997208,133.794052 240.986938,160.553925 
	C240.976654,161.024063 241.002243,160.997910 240.546448,160.996124 
	C235.045883,161.009796 230.001114,161.025238 224.973816,160.569763 
	C225.002563,133.723785 225.013885,107.348717 225.025208,80.973656 
	C225.025208,80.973656 224.983093,80.974007 224.980286,80.994408 
z"/>
<path fill="#181B1D" opacity="1.000000" stroke="none" 
	d="
M81.024124,33.023308 
	C81.024124,27.883125 81.024124,22.742943 81.024124,17.302494 
	C112.984253,17.302494 144.701416,17.302494 176.997131,17.302494 
	C176.997131,22.214159 176.997131,27.149851 176.999603,32.541641 
	C177.002075,32.997746 177.028030,32.971989 176.557678,32.983185 
	C144.382202,32.986916 112.677086,32.979450 80.984970,32.984859 
	C80.997955,32.997734 81.024124,33.023308 81.024124,33.023308 
z"/>
<path fill="#181B1D" opacity="1.000000" stroke="none" 
	d="
M192.449646,32.965557 
	C192.927475,37.998962 192.946854,43.059242 192.484390,48.566235 
	C187.104996,49.012951 182.207428,49.012951 177.028030,49.012951 
	C177.028030,43.193825 177.028030,38.082909 177.028030,32.971989 
	C177.028030,32.971989 177.002075,32.997746 176.988998,33.010536 
	C181.981003,33.013023 186.986084,33.002728 192.449646,32.965557 
z"/>
<path fill="#181B1D" opacity="1.000000" stroke="none" 
	d="
M65.078186,49.060463 
	C65.063362,43.998650 65.048538,38.936832 65.062759,33.406815 
	C70.090446,32.960007 75.089096,32.981403 80.555931,33.013054 
	C81.024124,33.023308 80.997955,32.997734 80.996162,33.454037 
	C80.994370,38.814617 80.994370,43.718891 80.994370,49.060463 
	C75.276855,49.060463 70.177521,49.060463 65.078186,49.060463 
z"/>
<path fill="#A81DC8" opacity="1.000000" stroke="none" 
	d="
M65.047211,49.525536 
	C70.177521,49.060463 75.276855,49.060463 80.994370,49.060463 
	C80.994370,43.718891 80.994370,38.814617 80.983170,33.441162 
	C112.677086,32.979450 144.382202,32.986916 176.557678,32.983185 
	C177.028030,38.082909 177.028030,43.193825 177.028030,49.012951 
	C182.207428,49.012951 187.104996,49.012951 192.462189,49.036713 
	C192.921829,59.487190 192.921829,69.913902 192.921829,80.994026 
	C203.625809,80.994026 213.855316,80.994026 224.555023,80.983841 
	C225.013885,107.348717 225.002563,133.723785 224.995148,160.549347 
	C224.999023,160.999863 225.041321,160.958679 224.571472,160.975189 
	C219.181381,160.991684 214.261124,160.991684 209.045670,160.991684 
	C209.045670,166.789185 209.045670,171.915863 208.575439,177.025574 
	C203.196640,177.008591 198.288055,177.008591 193.094131,177.008591 
	C193.094131,182.722748 193.094131,187.825058 192.619904,192.948059 
	C188.646820,192.979462 185.138382,193.155075 181.651810,192.953293 
	C178.333633,192.761261 176.669006,193.687820 176.948029,197.372559 
	C177.236679,201.184555 177.094208,205.029190 177.072021,208.927902 
	C177.003754,208.996246 176.867126,209.132874 176.412415,209.088104 
	C170.962204,209.038834 165.966736,209.034348 160.981049,208.559799 
	C160.992523,204.307983 160.888809,200.522263 161.031219,196.745789 
	C161.133881,194.023529 160.146439,192.861481 157.339035,192.968658 
	C153.234100,193.125381 149.119614,193.031998 144.540161,193.031311 
	C133.711014,193.026672 123.350906,193.035934 112.524155,193.029022 
	C108.110527,193.013245 104.140099,192.775436 100.230988,193.160324 
	C99.070175,193.274612 97.259445,195.068924 97.161148,196.214783 
	C96.797050,200.458969 97.023811,204.753860 96.560181,209.020309 
	C91.105507,209.051544 86.119209,209.092178 81.064583,209.064529 
	C80.996246,208.996246 80.859619,208.859619 80.906403,208.405518 
	C80.967773,204.341125 80.823059,200.721069 81.043709,197.123398 
	C81.246696,193.813736 79.836304,192.814499 76.713287,192.954056 
	C72.783867,193.129623 68.838692,192.952667 64.940186,192.466400 
	C64.980064,187.104904 64.980064,182.204803 64.980064,177.042603 
	C59.184235,177.042603 54.069294,177.042603 48.972591,176.572769 
	C48.990826,171.182693 48.990826,166.262451 48.990826,160.958679 
	C43.211433,160.958679 38.085064,160.958679 32.979843,160.979279 
	C33.000992,160.999863 33.043648,161.040680 33.043648,161.040680 
	C33.027412,134.665192 33.011177,108.289703 32.984871,81.443939 
	C43.411129,80.973656 53.847454,80.973656 65.016228,80.973656 
	C65.016228,70.437691 65.016228,60.214149 65.047211,49.525536 
M113.002373,161.927643 
	C113.002373,166.840836 113.002373,171.754013 113.002373,176.667313 
	C124.044823,176.667313 134.270065,176.667313 144.997406,176.667313 
	C144.997406,171.227875 144.997406,166.112640 145.932724,160.999329 
	C150.841888,160.999329 155.751068,160.999329 160.662201,160.999329 
	C160.662201,155.287674 160.662201,150.390686 160.662201,145.002594 
	C155.220718,145.002594 150.109070,145.002594 144.999298,144.067383 
	C144.999298,139.154358 144.999298,134.241333 144.999298,129.334625 
	C133.951355,129.334625 123.725960,129.334625 113.008392,129.334625 
	C113.008392,134.776810 113.008392,139.892532 112.072273,145.002258 
	C107.161873,145.002258 102.251472,145.002258 97.338562,145.002258 
	C97.338562,150.713043 97.338562,155.610550 97.338562,160.991760 
	C102.782364,160.991760 107.895378,160.991760 113.002373,161.927643 
M170.445740,129.000000 
	C172.527115,129.000000 174.608490,129.000000 176.602844,129.000000 
	C176.602844,123.263557 176.602844,118.235687 176.602844,113.267807 
	C171.293671,113.267807 166.385529,113.267807 161.314133,113.267807 
	C161.314133,118.562874 161.314133,123.585487 161.314133,129.000000 
	C164.236984,129.000000 166.857910,129.000000 170.445740,129.000000 
M81.177322,128.144104 
	C86.304688,128.527542 91.432053,128.910980 96.642815,129.300659 
	C96.642815,123.350960 96.642815,118.325157 96.642815,113.405083 
	C91.248795,113.405083 86.219337,113.405083 81.032982,113.405083 
	C81.032982,118.274704 81.032982,122.740303 81.177322,128.144104 
z"/>
<path fill="#181B1D" opacity="1.000000" stroke="none" 
	d="
M224.953827,224.957001 
	C224.953827,230.064651 224.953827,235.172302 224.953827,240.997208 
	C214.548172,240.997208 204.232193,240.997208 193.446075,240.986938 
	C192.975937,240.976654 193.002090,241.002243 193.003860,240.545959 
	C193.005630,235.173721 193.005630,230.257767 193.005630,224.837158 
	C198.781631,224.837158 203.900620,224.837158 209.481735,224.906921 
	C214.977859,224.999771 220.011871,225.022827 225.022949,225.023575 
	C225.000031,225.001266 224.953827,224.957001 224.953827,224.957001 
z"/>
<path fill="#181B1D" opacity="1.000000" stroke="none" 
	d="
M240.979111,208.976959 
	C240.956970,214.045868 240.956970,219.137863 240.956970,224.994843 
	C235.918747,224.994843 230.906509,224.994843 225.424042,224.975922 
	C224.953827,224.957001 225.000031,225.001266 225.003281,224.554199 
	C225.012680,219.079605 225.018829,214.052078 225.490326,209.014008 
	C230.985733,209.017593 236.015808,209.031738 241.045883,209.045898 
	C241.045883,209.045898 241.001251,209.000061 240.979111,208.976959 
z"/>
<path fill="#181B1D" opacity="1.000000" stroke="none" 
	d="
M65.011032,240.989471 
	C54.504063,240.976669 43.984009,240.976669 33.005535,240.976669 
	C33.005535,235.703842 33.005535,230.800262 33.002754,225.448975 
	C32.999973,225.001251 32.954121,225.045898 33.423470,225.026215 
	C38.921955,224.950104 43.951092,224.893646 49.444916,224.902222 
	C54.825863,224.967255 59.742130,224.967255 64.971985,224.967255 
	C64.971985,230.783264 64.971985,235.905655 64.971985,241.028030 
	C64.971985,241.028030 64.997955,241.002258 65.011032,240.989471 
z"/>
<path fill="#181B1D" opacity="1.000000" stroke="none" 
	d="
M33.023071,224.979126 
	C27.954205,224.956985 22.862240,224.956985 17.005171,224.956985 
	C17.005171,219.918747 17.005171,214.906509 17.024094,209.424072 
	C17.043015,208.953842 16.998737,209.000046 17.445778,209.003296 
	C22.920221,209.012558 27.947622,209.018570 32.985748,209.489807 
	C32.982353,214.985336 32.968239,220.015610 32.954121,225.045898 
	C32.954121,225.045898 32.999973,225.001251 33.023071,224.979126 
z"/>
<path fill="#A81DC8" opacity="1.000000" stroke="none" 
	d="
M16.983189,161.442322 
	C22.016148,160.984055 27.060305,160.996140 32.574055,161.024445 
	C33.043648,161.040680 33.000992,160.999863 32.996334,161.448456 
	C33.029240,166.922638 33.066807,171.948196 33.067711,177.439682 
	C33.030212,182.946960 33.029381,187.988327 32.560436,193.020325 
	C27.115831,193.013840 22.139341,193.016739 17.162849,193.019638 
	C17.106693,182.650650 17.050539,172.281647 16.983189,161.442322 
z"/>
<path fill="#F469C6" opacity="1.000000" stroke="none" 
	d="
M17.093071,193.481750 
	C22.139341,193.016739 27.115831,193.013840 32.545078,193.004547 
	C32.997833,192.998138 32.967232,192.967224 32.977997,193.436432 
	C32.998692,198.930923 33.008625,203.956207 33.007706,208.992279 
	C32.996857,209.003067 32.975025,209.024582 32.975025,209.024582 
	C27.947622,209.018570 22.920221,209.012558 17.423470,209.026215 
	C16.977179,204.011887 17.000235,198.977890 17.093071,193.481750 
z"/>
<path fill="#A81DC8" opacity="1.000000" stroke="none" 
	d="
M209.019623,224.837158 
	C203.900620,224.837158 198.781631,224.837158 193.005630,224.837158 
	C193.005630,230.257767 193.005630,235.173721 193.016815,240.558838 
	C182.685837,241.009384 172.343674,240.990723 161.516052,240.459412 
	C161.017853,234.958557 161.005112,229.970383 161.460785,224.988388 
	C165.589951,224.995438 169.256439,224.870209 172.909607,225.037064 
	C175.829361,225.170425 177.219803,224.263596 177.040527,221.105988 
	C176.814468,217.124512 176.910202,213.124741 176.867126,209.132874 
	C176.867126,209.132874 177.003754,208.996246 177.525146,208.975052 
	C183.034088,208.954163 188.021652,208.954483 193.475327,208.970978 
	C198.970856,208.981918 204.000259,208.976669 209.020294,209.439545 
	C209.013840,214.884155 209.016739,219.860657 209.019623,224.837158 
z"/>
<path fill="#5E118E" opacity="1.000000" stroke="none" 
	d="
M160.992371,224.982193 
	C161.005112,229.970383 161.017853,234.958557 161.055481,240.403336 
	C155.999130,240.908951 150.917923,240.957977 145.361572,241.011902 
	C144.886429,241.016815 144.969528,241.005447 144.982086,240.574554 
	C144.962555,235.133865 144.930481,230.124069 145.370682,225.078888 
	C150.901749,225.031723 155.960541,225.019943 161.007721,225.007599 
	C160.996124,225.007034 160.992371,224.982193 160.992371,224.982193 
z"/>
<path fill="#A81DC8" opacity="1.000000" stroke="none" 
	d="
M224.977692,161.020264 
	C230.001114,161.025238 235.045883,161.009796 240.559326,160.983170 
	C241.007797,171.343994 240.987579,181.716003 240.446167,192.548737 
	C234.940414,193.016266 229.955841,193.023056 224.981049,192.560196 
	C224.959106,187.051620 224.927353,182.012711 224.937317,176.510117 
	C224.999786,171.017197 225.020554,165.987930 225.041321,160.958679 
	C225.041321,160.958679 224.999023,160.999863 224.977692,161.020264 
z"/>
<path fill="#F469C6" opacity="1.000000" stroke="none" 
	d="
M224.971252,193.029846 
	C229.955841,193.023056 234.940414,193.016266 240.381104,193.014618 
	C240.893646,198.048904 240.950089,203.078064 241.026215,208.576538 
	C236.015808,209.031738 230.985733,209.017593 225.479401,209.003250 
	C225.003159,209.003052 224.981461,208.981476 224.987320,208.515808 
	C225.006378,203.022507 225.019577,197.994858 225.017349,192.982788 
	C225.001923,192.998367 224.971252,193.029846 224.971252,193.029846 
z"/>
<path fill="#A81DC8" opacity="1.000000" stroke="none" 
	d="
M65.442322,241.016815 
	C64.971985,235.905655 64.971985,230.783264 64.971985,224.967255 
	C59.742130,224.967255 54.825863,224.967255 49.450058,224.446136 
	C49.003563,218.940475 49.016617,213.955963 49.013901,208.986801 
	C48.998131,209.002167 48.967232,209.032776 49.436466,209.022003 
	C54.934067,208.992416 59.962433,208.973602 65.457870,208.968674 
	C70.903168,208.941589 75.881393,208.900604 80.859619,208.859619 
	C80.859619,208.859619 80.996246,208.996246 81.019485,209.519318 
	C81.031563,213.872253 81.110641,217.705261 80.977859,221.530914 
	C80.887512,224.134232 81.971977,225.094635 84.519218,225.022644 
	C88.679085,224.905121 92.844528,224.985382 97.005287,225.449860 
	C96.975273,230.898285 96.947594,235.879074 96.919907,240.859848 
	C86.584152,240.908447 76.248405,240.957031 65.442322,241.016815 
z"/>
<path fill="#5E118E" opacity="1.000000" stroke="none" 
	d="
M97.390106,240.907196 
	C96.947594,235.879074 96.975273,230.898285 97.003410,225.462265 
	C97.003868,225.007019 96.980698,225.008148 97.449692,225.005066 
	C102.979591,225.039444 108.040504,225.076889 113.066986,225.573105 
	C113.026993,231.050583 113.021431,236.069321 113.015869,241.088043 
	C113.015869,241.088043 113.034546,241.005890 113.076233,241.011139 
	C108.032043,240.995773 102.946182,240.975159 97.390106,240.907196 
z"/>
<path fill="#181B1D" opacity="1.000000" stroke="none" 
	d="
M113.482147,241.049286 
	C113.021431,236.069321 113.026993,231.050583 113.527176,225.527161 
	C124.314003,225.053040 134.606201,225.083649 144.898407,225.114258 
	C144.930481,230.124069 144.962555,235.133865 144.989380,240.615860 
	C134.638885,241.062195 124.293663,241.036362 113.482147,241.049286 
z"/>
<path fill="#F7A8DD" opacity="1.000000" stroke="none" 
	d="
M113.008392,145.008240 
	C113.008392,139.892532 113.008392,134.776810 113.008392,129.334625 
	C123.725960,129.334625 133.951355,129.334625 144.999298,129.334625 
	C144.999298,134.241333 144.999298,139.154358 144.999649,144.533691 
	C145.000000,145.000000 145.002136,144.997864 144.535034,144.998718 
	C139.042633,145.054382 134.017349,145.109177 128.529449,145.092224 
	C123.042984,145.012100 118.019127,145.003693 112.998131,144.998077 
	C113.000999,145.000870 113.008392,145.008240 113.008392,145.008240 
z"/>
<path fill="#5E118E" opacity="1.000000" stroke="none" 
	d="
M112.990799,193.045212 
	C123.350906,193.035934 133.711014,193.026672 144.536743,193.493042 
	C145.004608,198.964188 145.006851,203.959671 144.540100,208.970947 
	C133.711014,208.976212 123.350952,208.965683 112.994301,208.491165 
	C112.995407,203.033188 112.993103,198.039200 112.990799,193.045212 
z"/>
<path fill="#F7A8DD" opacity="1.000000" stroke="none" 
	d="
M144.997406,160.997406 
	C144.997406,166.112640 144.997406,171.227875 144.997406,176.667313 
	C134.270065,176.667313 124.044823,176.667313 113.002373,176.667313 
	C113.002373,171.754013 113.002373,166.840836 113.001686,161.463379 
	C113.000999,160.999130 112.995262,161.004700 113.462318,161.002106 
	C118.950264,160.945007 123.971146,160.890518 129.455429,160.900421 
	C134.946594,160.977264 139.974365,160.989700 145.001068,161.001068 
	C145.000000,161.000000 144.997406,160.997406 144.997406,160.997406 
z"/>
<path fill="#F7A8DD" opacity="1.000000" stroke="none" 
	d="
M113.004700,160.995453 
	C107.895378,160.991760 102.782364,160.991760 97.338562,160.991760 
	C97.338562,155.610550 97.338562,150.713043 97.338562,145.002258 
	C102.251472,145.002258 107.161873,145.002258 112.540329,145.005249 
	C113.008392,145.008240 113.000999,145.000870 113.000748,145.465271 
	C112.998756,150.954697 112.997009,155.979691 112.995262,161.004700 
	C112.995262,161.004700 113.000999,160.999130 113.004700,160.995453 
z"/>
<path fill="#F469C6" opacity="1.000000" stroke="none" 
	d="
M97.005745,224.994614 
	C92.844528,224.985382 88.679085,224.905121 84.519218,225.022644 
	C81.971977,225.094635 80.887512,224.134232 80.977859,221.530914 
	C81.110641,217.705261 81.031563,213.872253 81.087830,209.587601 
	C86.119209,209.092178 91.105507,209.051544 96.544815,209.004532 
	C96.997833,208.998138 96.967232,208.967224 96.978050,209.436584 
	C96.986145,214.940002 96.983421,219.974075 96.980698,225.008148 
	C96.980698,225.008148 97.003868,225.007019 97.005745,224.994614 
z"/>
<path fill="#F469C6" opacity="1.000000" stroke="none" 
	d="
M176.412399,209.088104 
	C176.910202,213.124741 176.814468,217.124512 177.040527,221.105988 
	C177.219803,224.263596 175.829361,225.170425 172.909607,225.037064 
	C169.256439,224.870209 165.589951,224.995438 161.460785,224.988388 
	C160.992371,224.982193 160.996124,225.007034 161.000977,224.539673 
	C161.014816,219.037277 161.023788,214.002258 161.017349,208.982788 
	C161.001923,208.998367 160.971252,209.029846 160.971252,209.029846 
	C165.966736,209.034348 170.962204,209.038834 176.412399,209.088104 
z"/>
<path fill="#F7A8DD" opacity="1.000000" stroke="none" 
	d="
M144.998703,145.001297 
	C150.109070,145.002594 155.220718,145.002594 160.662201,145.002594 
	C160.662201,150.390686 160.662201,155.287674 160.662201,160.999329 
	C155.751068,160.999329 150.841888,160.999329 145.465057,160.998367 
	C144.997406,160.997406 145.000000,161.000000 145.000214,160.534042 
	C145.000977,155.044678 145.001556,150.021271 145.002136,144.997864 
	C145.002136,144.997864 145.000000,145.000000 144.998703,145.001297 
z"/>
<path fill="#181B1D" opacity="1.000000" stroke="none" 
	d="
M169.962280,129.000000 
	C166.857910,129.000000 164.236984,129.000000 161.314133,129.000000 
	C161.314133,123.585487 161.314133,118.562874 161.314133,113.267807 
	C166.385529,113.267807 171.293671,113.267807 176.602844,113.267807 
	C176.602844,118.235687 176.602844,123.263557 176.602844,129.000000 
	C174.608490,129.000000 172.527115,129.000000 169.962280,129.000000 
z"/>
<path fill="#181B1D" opacity="1.000000" stroke="none" 
	d="
M81.105148,127.675003 
	C81.032982,122.740303 81.032982,118.274704 81.032982,113.405083 
	C86.219337,113.405083 91.248795,113.405083 96.642815,113.405083 
	C96.642815,118.325157 96.642815,123.350960 96.642815,129.300659 
	C91.432053,128.910980 86.304688,128.527542 81.105148,127.675003 
z"/>
<path fill="#181B1D" opacity="1.000000" stroke="none" 
	d="
M33.104374,176.973785 
	C33.066807,171.948196 33.029240,166.922638 32.975182,161.427872 
	C38.085064,160.958679 43.211433,160.958679 48.990826,160.958679 
	C48.990826,166.262451 48.990826,171.182693 48.994026,176.552277 
	C48.997227,177.001617 49.039730,176.960251 48.570732,176.977295 
	C43.102615,176.987488 38.103497,176.980637 33.104374,176.973785 
z"/>
<path fill="#181B1D" opacity="1.000000" stroke="none" 
	d="
M224.571472,160.975189 
	C225.020554,165.987930 224.999786,171.017197 224.480682,176.521179 
	C218.974976,176.984009 213.967621,176.972137 208.981537,176.980927 
	C209.002792,177.001572 209.045670,177.042557 209.045670,177.042557 
	C209.045670,171.915863 209.045670,166.789185 209.045670,160.991684 
	C214.261124,160.991684 219.181381,160.991684 224.571472,160.975189 
z"/>
<path fill="#181B1D" opacity="1.000000" stroke="none" 
	d="
M48.975792,177.022110 
	C54.069294,177.042603 59.184235,177.042603 64.980064,177.042603 
	C64.980064,182.204803 64.980064,187.104904 64.966980,192.476990 
	C64.953896,192.948990 64.956497,192.891571 64.496185,192.938538 
	C59.030579,192.959351 54.025288,192.933212 49.029526,192.947388 
	C49.039055,192.987717 49.120697,192.973587 49.068924,192.510818 
	C49.024673,187.018784 49.032200,181.989517 49.039730,176.960251 
	C49.039730,176.960251 48.997227,177.001617 48.975792,177.022110 
z"/>
<path fill="#181B1D" opacity="1.000000" stroke="none" 
	d="
M193.094131,192.927368 
	C193.094131,187.825058 193.094131,182.722748 193.094131,177.008591 
	C198.288055,177.008591 203.196640,177.008591 208.575439,177.025574 
	C209.045670,177.042557 209.002792,177.001572 208.998566,177.450012 
	C208.987915,182.924103 208.981476,187.949753 208.509888,192.985962 
	C203.044327,192.961548 198.043900,192.926559 193.041977,192.920349 
	C193.040466,192.949097 193.094131,192.927368 193.094131,192.927368 
z"/>
<path fill="#5E118E" opacity="1.000000" stroke="none" 
	d="
M80.906403,208.405518 
	C75.881393,208.900604 70.903168,208.941589 65.461296,208.506577 
	C64.983932,202.984253 64.970215,197.937912 64.956497,192.891571 
	C64.956497,192.891571 64.953896,192.948990 64.927109,192.938400 
	C68.838692,192.952667 72.783867,193.129623 76.713287,192.954056 
	C79.836304,192.814499 81.246696,193.813736 81.043709,197.123398 
	C80.823059,200.721069 80.967773,204.341125 80.906403,208.405518 
z"/>
<path fill="#F469C6" opacity="1.000000" stroke="none" 
	d="
M112.524155,193.029022 
	C112.993103,198.039200 112.995407,203.033188 112.528122,208.507385 
	C107.028099,208.980804 101.997665,208.974014 96.967232,208.967224 
	C96.967232,208.967224 96.997833,208.998138 97.013199,209.013916 
	C97.023811,204.753860 96.797050,200.458969 97.161148,196.214783 
	C97.259445,195.068924 99.070175,193.274612 100.230988,193.160324 
	C104.140099,192.775436 108.110527,193.013245 112.524155,193.029022 
z"/>
<path fill="#F469C6" opacity="1.000000" stroke="none" 
	d="
M145.009109,208.955170 
	C145.006851,203.959671 145.004608,198.964188 145.005768,193.506958 
	C149.119614,193.031998 153.234100,193.125381 157.339035,192.968658 
	C160.146439,192.861481 161.133881,194.023529 161.031219,196.745789 
	C160.888809,200.522263 160.992523,204.307983 160.981049,208.559799 
	C160.971252,209.029846 161.001923,208.998367 160.548035,208.993622 
	C155.065796,208.977646 150.037445,208.966400 145.009109,208.955170 
z"/>
<path fill="#5E118E" opacity="1.000000" stroke="none" 
	d="
M193.009201,208.954788 
	C188.021652,208.954483 183.034088,208.954163 177.593414,208.906708 
	C177.094208,205.029190 177.236679,201.184555 176.948029,197.372559 
	C176.669006,193.687820 178.333633,192.761261 181.651810,192.953293 
	C185.138382,193.155075 188.646820,192.979462 192.619904,192.948059 
	C193.094131,192.927368 193.040466,192.949097 193.024887,193.396210 
	C193.009277,198.880478 193.009247,203.917633 193.009201,208.954788 
z"/>
<path fill="#F469C6" opacity="1.000000" stroke="none" 
	d="
M209.481750,224.906921 
	C209.016739,219.860657 209.013840,214.884155 209.004517,209.454895 
	C208.998108,209.002151 208.967224,209.032776 209.436523,209.021942 
	C214.931030,209.001236 219.956238,208.991348 224.981461,208.981476 
	C224.981461,208.981476 225.003159,209.003052 225.014069,209.013809 
	C225.018829,214.052078 225.012680,219.079605 225.026215,224.576508 
	C220.011871,225.022827 214.977859,224.999771 209.481750,224.906921 
z"/>
<path fill="#F469C6" opacity="1.000000" stroke="none" 
	d="
M49.029671,208.971436 
	C49.016617,213.955963 49.003563,218.940475 48.985374,224.381104 
	C43.951092,224.893646 38.921955,224.950104 33.423470,225.026215 
	C32.968239,220.015610 32.982353,214.985336 32.985748,209.489807 
	C32.975025,209.024582 32.996857,209.003067 33.473351,208.998123 
	C38.976452,208.985931 44.003059,208.978683 49.029671,208.971436 
z"/>
<path fill="#F469C6" opacity="1.000000" stroke="none" 
	d="
M48.570732,176.977295 
	C49.032200,181.989517 49.024673,187.018784 48.592747,192.517731 
	C43.101307,192.980682 38.034271,192.973953 32.967232,192.967224 
	C32.967232,192.967224 32.997833,192.998138 33.013191,193.013916 
	C33.029381,187.988327 33.030212,182.946960 33.067711,177.439697 
	C38.103497,176.980637 43.102615,176.987488 48.570732,176.977295 
z"/>
<path fill="#A81DC8" opacity="1.000000" stroke="none" 
	d="
M32.977997,193.436432 
	C38.034271,192.973953 43.101307,192.980682 48.644524,192.980499 
	C49.120697,192.973587 49.039055,192.987717 49.023415,193.420502 
	C48.994259,198.913101 48.980743,203.972946 48.967232,209.032776 
	C48.967232,209.032776 48.998131,209.002167 49.013901,208.986801 
	C44.003059,208.978683 38.976452,208.985931 33.484200,208.987335 
	C33.008625,203.956207 32.998692,198.930923 32.977997,193.436432 
z"/>
<path fill="#F469C6" opacity="1.000000" stroke="none" 
	d="
M193.475327,208.970978 
	C193.009247,203.917633 193.009277,198.880478 193.026398,193.367462 
	C198.043900,192.926559 203.044327,192.961548 208.520798,192.996735 
	C208.996857,192.996948 209.018539,193.018539 209.012695,193.484222 
	C208.993637,198.977524 208.980438,204.005142 208.967224,209.032776 
	C208.967224,209.032776 208.998108,209.002151 209.013885,208.986786 
	C204.000259,208.976669 198.970856,208.981918 193.475327,208.970978 
z"/>
<path fill="#A81DC8" opacity="1.000000" stroke="none" 
	d="
M144.540100,208.970947 
	C150.037445,208.966400 155.065796,208.977646 160.563446,208.978058 
	C161.023788,214.002258 161.014816,219.037277 161.012573,224.540237 
	C155.960541,225.019943 150.901749,225.031723 145.370682,225.078888 
	C134.606201,225.083649 124.314003,225.053040 113.561607,225.068390 
	C108.040504,225.076889 102.979591,225.039444 97.449692,225.005066 
	C96.983421,219.974075 96.986145,214.940002 96.978050,209.436584 
	C101.997665,208.974014 107.028099,208.980804 112.524712,208.971375 
	C123.350952,208.965683 133.711014,208.976212 144.540100,208.970947 
z"/>
<path fill="#F469C6" opacity="1.000000" stroke="none" 
	d="
M208.985947,192.986176 
	C208.981476,187.949753 208.987915,182.924103 208.977295,177.429352 
	C213.967621,176.972137 218.974976,176.984009 224.438965,176.984833 
	C224.927353,182.012711 224.959106,187.051620 224.981049,192.560196 
	C224.971252,193.029846 225.001923,192.998367 224.548065,192.993622 
	C219.068970,192.998764 214.043762,193.008652 209.018539,193.018539 
	C209.018539,193.018539 208.996857,192.996948 208.985947,192.986176 
z"/>
<path fill="#A81DC8" opacity="1.000000" stroke="none" 
	d="
M209.012695,193.484222 
	C214.043762,193.008652 219.068970,192.998764 224.563477,192.978058 
	C225.019577,197.994858 225.006378,203.022507 224.987320,208.515808 
	C219.956238,208.991348 214.931030,209.001236 209.436523,209.021942 
	C208.980438,204.005142 208.993637,198.977524 209.012695,193.484222 
z"/>
<path fill="#F469C6" opacity="1.000000" stroke="none" 
	d="
M49.436466,209.022003 
	C48.980743,203.972946 48.994259,198.913101 49.013882,193.380173 
	C54.025288,192.933212 59.030579,192.959351 64.496185,192.938538 
	C64.970215,197.937912 64.983932,202.984253 64.994225,208.492691 
	C59.962433,208.973602 54.934067,208.992416 49.436466,209.022003 
z"/>
<path fill="#F42834" opacity="1.000000" stroke="none" 
	d="
M144.535034,144.998718 
	C145.001556,150.021271 145.000977,155.044678 145.001282,160.535110 
	C139.974365,160.989700 134.946594,160.977264 129.456635,160.445160 
	C128.993637,155.005005 128.992844,150.084488 128.992050,145.163971 
	C134.017349,145.109177 139.042633,145.054382 144.535034,144.998718 
z"/>
<path fill="#181B1D" opacity="1.000000" stroke="none" 
	d="
M128.529449,145.092224 
	C128.992844,150.084488 128.993637,155.005005 128.993225,160.380783 
	C123.971146,160.890518 118.950264,160.945007 113.462318,161.002106 
	C112.997009,155.979691 112.998756,150.954697 112.997879,145.462494 
	C118.019127,145.003693 123.042984,145.012100 128.529449,145.092224 
z"/>
</svg>