<svg width="20" height="21" viewBox="0 0 20 21" fill="none" xmlns="http://www.w3.org/2000/svg">
<path d="M11.8812 19.2641C11.7103 19.5594 11.4647 19.8045 11.1691 19.975C10.8735 20.1454 10.5383 20.2351 10.1972 20.2351C9.85596 20.2351 9.52076 20.1454 9.22518 19.975C8.9296 19.8045 8.68402 19.5594 8.51307 19.2641M16.0379 6.99856C16.0379 5.3466 15.4227 3.76181 14.3275 2.59367C13.2314 1.42552 11.7449 0.768433 10.1972 0.768433C8.64838 0.768433 7.16289 1.42454 6.06677 2.59367C4.97163 3.76181 4.35641 5.3466 4.35641 6.99856C4.35641 14.2674 1.43604 16.3438 1.43604 16.3438H18.9583C18.9583 16.3438 16.0379 14.2674 16.0379 6.99856Z" stroke="#B2B7C2" stroke-width="1.5" stroke-linecap="round" stroke-linejoin="round"/>
</svg>
