<svg width="33" height="33" viewBox="0 0 33 33" fill="none" xmlns="http://www.w3.org/2000/svg">
<path d="M31.2344 0.484375H1.76562C1.05693 0.484375 0.484375 1.05693 0.484375 1.76562V31.2344C0.484375 31.9431 1.05693 32.5156 1.76562 32.5156H31.2344C31.9431 32.5156 32.5156 31.9431 32.5156 31.2344V1.76562C32.5156 1.05693 31.9431 0.484375 31.2344 0.484375ZM25.1204 12.0837C25.1324 12.2719 25.1324 12.4681 25.1324 12.6603C25.1324 18.538 20.6561 25.3086 12.4761 25.3086C9.95361 25.3086 7.61533 24.5759 5.64541 23.3146C6.00576 23.3547 6.3501 23.3707 6.71846 23.3707C8.80049 23.3707 10.7144 22.666 12.2398 21.4729C10.2859 21.4328 8.64434 20.1516 8.08379 18.3898C8.76846 18.4899 9.38506 18.4899 10.0897 18.3098C9.08367 18.1054 8.17938 17.559 7.53051 16.7634C6.88165 15.9678 6.52822 14.9721 6.53027 13.9455V13.8895C7.11885 14.2218 7.81152 14.426 8.53623 14.454C7.92701 14.048 7.42738 13.4979 7.08166 12.8526C6.73593 12.2072 6.55479 11.4865 6.5543 10.7544C6.5543 9.92559 6.77051 9.16885 7.15889 8.51221C8.27559 9.88689 9.66906 11.0112 11.2487 11.8121C12.8284 12.613 14.5589 13.0725 16.3278 13.1607C15.6992 10.1378 17.9574 7.69141 20.6721 7.69141C21.9533 7.69141 23.1064 8.22793 23.9192 9.09277C24.9242 8.90459 25.8852 8.52822 26.742 8.02373C26.4097 9.05273 25.713 9.92158 24.7881 10.4701C25.685 10.374 26.5498 10.1258 27.3506 9.77744C26.746 10.6663 25.9893 11.4551 25.1204 12.0837V12.0837Z" fill="#0D99FF"/>
</svg>
