<svg width="33" height="33" viewBox="0 0 33 33" fill="none" xmlns="http://www.w3.org/2000/svg">
<path d="M31.2344 0.484375H1.76562C1.05693 0.484375 0.484375 1.05693 0.484375 1.76562V31.2344C0.484375 31.9431 1.05693 32.5156 1.76562 32.5156H31.2344C31.9431 32.5156 32.5156 31.9431 32.5156 31.2344V1.76562C32.5156 1.05693 31.9431 0.484375 31.2344 0.484375ZM27.5348 9.8335H24.9763C22.9703 9.8335 22.5819 10.7864 22.5819 12.1878V15.2748H27.3706L26.746 20.1075H22.5819V32.5156H17.5891V20.1115H13.413V15.2748H17.5891V11.7113C17.5891 7.57529 20.1155 5.32109 23.8071 5.32109C25.5769 5.32109 27.0943 5.45322 27.5388 5.51328V9.8335H27.5348Z" fill="#0D99FF"/>
</svg>
