<svg width="30" height="30" viewBox="0 0 30 30" fill="none" xmlns="http://www.w3.org/2000/svg">
<path d="M12.5 13.7497H8.87625L8.8775 13.7384C9.04072 12.9392 9.36016 12.1801 9.8175 11.5047C10.4981 10.5019 11.4527 9.71613 12.5675 9.24093C12.945 9.08093 13.3387 8.95843 13.74 8.87718C14.5724 8.70842 15.4301 8.70842 16.2625 8.87718C17.4587 9.12229 18.5564 9.71394 19.4188 10.5784L21.1888 8.81343C20.391 8.01548 19.4472 7.37848 18.4088 6.93718C17.8791 6.71296 17.3285 6.54212 16.765 6.42718C15.6023 6.19094 14.404 6.19094 13.2413 6.42718C12.6773 6.5426 12.1263 6.71386 11.5963 6.93843C10.0344 7.60106 8.69741 8.70104 7.74625 10.1059C7.10611 11.0532 6.65845 12.1172 6.42875 13.2372C6.39375 13.4059 6.375 13.5784 6.35 13.7497H2.5L7.5 18.7497L12.5 13.7497ZM17.5 16.2497H21.1238L21.1225 16.2597C20.7959 17.8619 19.8515 19.271 18.4937 20.1822C17.8185 20.6399 17.0593 20.9594 16.26 21.1222C15.4281 21.2909 14.5707 21.2909 13.7388 21.1222C12.9395 20.959 12.1804 20.6395 11.505 20.1822C11.1733 19.9578 10.8636 19.7025 10.58 19.4197L8.8125 21.1872C9.61063 21.9849 10.5549 22.6215 11.5938 23.0622C12.1237 23.2872 12.6775 23.4584 13.2375 23.5722C14.3998 23.8085 15.5977 23.8085 16.76 23.5722C19.0007 23.1071 20.9716 21.7864 22.2537 19.8909C22.8933 18.9443 23.3405 17.8813 23.57 16.7622C23.6038 16.5934 23.6238 16.4209 23.6488 16.2497H27.5L22.5 11.2497L17.5 16.2497Z" fill="white"/>
</svg>
