<svg width="30" height="30" viewBox="0 0 30 30" fill="none" xmlns="http://www.w3.org/2000/svg">
<g clip-path="url(#clip0_1_382)">
<path d="M14.5 15.0359H10.1515L10.153 15.0228C10.3489 14.0865 10.7322 13.1973 11.281 12.406C12.0977 11.2313 13.2432 10.3108 14.581 9.7541C15.034 9.56667 15.5065 9.42316 15.988 9.32798C16.9868 9.13029 18.0162 9.13029 19.015 9.32798C20.4505 9.61513 21.7677 10.3082 22.8025 11.3209L24.9265 9.2533C23.9692 8.31853 22.8366 7.57231 21.5905 7.05534C20.955 6.79268 20.2942 6.59254 19.618 6.45789C18.2228 6.18115 16.7847 6.18115 15.3895 6.45789C14.7128 6.5931 14.0515 6.79373 13.4155 7.0568C11.5413 7.83305 9.9369 9.12164 8.7955 10.7674C8.02733 11.8772 7.49015 13.1235 7.2145 14.4356C7.1725 14.6333 7.15 14.8353 7.12 15.0359H2.5L8.5 20.8933L14.5 15.0359ZM20.5 17.9646H24.8485L24.847 17.9763C24.4551 19.8532 23.3218 21.504 21.6925 22.5714C20.8822 23.1076 19.9712 23.4818 19.012 23.6726C18.0137 23.8703 16.9848 23.8703 15.9865 23.6726C15.0275 23.4814 14.1165 23.1071 13.306 22.5714C12.9079 22.3085 12.5363 22.0095 12.196 21.6782L10.075 23.7487C11.0328 24.6832 12.1659 25.429 13.4125 25.9452C14.0485 26.2088 14.713 26.4094 15.385 26.5427C16.7797 26.8196 18.2173 26.8196 19.612 26.5427C22.3008 25.9979 24.6659 24.4507 26.2045 22.2302C26.9719 21.1213 27.5086 19.876 27.784 18.565C27.8245 18.3673 27.8485 18.1652 27.8785 17.9646H32.5L26.5 12.1073L20.5 17.9646Z" fill="#009987"/>
</g>
<defs>
<clipPath id="clip0_1_382">
<rect width="30" height="30" fill="white"/>
</clipPath>
</defs>
</svg>
