<svg width="35" height="27" viewBox="0 0 35 27" fill="none" xmlns="http://www.w3.org/2000/svg">
<path fill-rule="evenodd" clip-rule="evenodd" d="M27.4167 4.45833H26.0056L24.5117 1.845C23.9916 0.937042 23.0258 0.376312 21.9794 0.375H13.0206C11.9742 0.376312 11.0084 0.937042 10.4883 1.845L8.99442 4.45833H8.75V2.70833C8.75 2.38619 8.48881 2.125 8.16667 2.125H3.5C3.17785 2.125 2.91667 2.38619 2.91667 2.70833V4.45833C1.30667 4.46023 0.00189583 5.765 0 7.375V23.7083C0.00189583 25.3183 1.30667 26.6231 2.91667 26.625H32.0833C33.6933 26.6231 34.9981 25.3183 35 23.7083V7.375C34.9981 5.765 33.6933 4.46023 32.0833 4.45833H30.9167H28.5833H27.4167ZM7.58333 3.29167H4.08333V4.45833H7.58333V3.29167ZM32.0833 25.4583C33.0498 25.4583 33.8333 24.6748 33.8333 23.7083V7.375C33.8333 6.40849 33.0498 5.625 32.0833 5.625H25.6667C25.4578 5.62544 25.2647 5.51417 25.1603 5.33333L23.4961 2.42367C23.1843 1.88 22.6062 1.54378 21.9794 1.54167H13.0206C12.3923 1.5432 11.8127 1.88051 11.501 2.426L9.83967 5.33333C9.73525 5.51417 9.54217 5.62544 9.33333 5.625H2.91667C1.95016 5.625 1.16667 6.40849 1.16667 7.375V23.7083C1.16667 24.6748 1.95016 25.4583 2.91667 25.4583H32.0833Z" fill="white"/>
<path d="M25.3409 16.7451C25.3404 16.7449 25.3399 16.7448 25.3394 16.7445C25.0385 16.6295 24.7014 16.7803 24.5863 17.0811C23.0865 20.9915 18.7006 22.9457 14.7903 21.4458C12.1599 20.437 10.3056 18.053 9.975 15.2553L11.3989 16.6792C11.6228 16.9109 11.992 16.9173 12.2237 16.6935C12.4555 16.4696 12.4619 16.1004 12.238 15.8687C12.2334 15.8638 12.2286 15.859 12.2237 15.8544L9.74866 13.3793C9.52087 13.1516 9.15162 13.1516 8.92383 13.3793L6.44583 15.8544C6.22198 16.0861 6.22839 16.4553 6.46012 16.6792C6.68616 16.8976 7.04462 16.8976 7.27066 16.6792L8.78733 15.1625C9.22359 19.9753 13.4787 23.5232 18.2915 23.0869C21.6167 22.7855 24.4804 20.6182 25.6737 17.4999C25.7902 17.1996 25.6412 16.8616 25.3409 16.7451Z" fill="white"/>
<path d="M27.7436 12.0566C27.7387 12.0613 27.734 12.0661 27.7293 12.0709L26.2127 13.5876C25.7773 8.7747 21.5229 5.22606 16.71 5.66137C13.3709 5.9634 10.4979 8.14696 9.31291 11.2834C9.19901 11.5848 9.35104 11.9214 9.65241 12.0353C9.95377 12.1492 10.2904 11.9972 10.4043 11.6958C11.8875 7.77909 16.265 5.80626 20.1817 7.28938C22.8293 8.29199 24.698 10.6859 25.0279 13.4977L23.604 12.0709C23.3802 11.8392 23.0109 11.8327 22.7792 12.0566C22.5474 12.2804 22.541 12.6497 22.7649 12.8814C22.7695 12.8863 22.7743 12.8911 22.7792 12.8957L25.2542 15.3708C25.482 15.5985 25.8513 15.5985 26.0791 15.3708L28.5541 12.8957C28.7859 12.6719 28.7923 12.3026 28.5684 12.0709C28.3447 11.8392 27.9753 11.8327 27.7436 12.0566Z" fill="white"/>
</svg>
