<svg width="10" height="13" viewBox="0 0 10 13" fill="none" xmlns="http://www.w3.org/2000/svg">
<path d="M8.78296 2H6.90796C6.90796 1.17969 6.22827 0.5 5.40796 0.5C4.56421 0.5 3.90796 1.17969 3.90796 2H2.03296C1.40015 2 0.907959 2.51562 0.907959 3.125V11.375C0.907959 12.0078 1.40015 12.5 2.03296 12.5H8.78296C9.39233 12.5 9.90796 12.0078 9.90796 11.375V3.125C9.90796 2.51562 9.39233 2 8.78296 2ZM5.40796 1.4375C5.71265 1.4375 5.97046 1.69531 5.97046 2C5.97046 2.32812 5.71265 2.5625 5.40796 2.5625C5.07983 2.5625 4.84546 2.32812 4.84546 2C4.84546 1.69531 5.07983 1.4375 5.40796 1.4375ZM8.2439 6.875L4.89233 10.2031C4.77515 10.3203 4.58765 10.3203 4.4939 10.2031L2.54858 8.25781C2.4314 8.14062 2.45483 7.95312 2.54858 7.85938L3.22827 7.17969C3.32202 7.08594 3.50952 7.08594 3.62671 7.20312L4.70483 8.28125L7.18921 5.82031C7.28296 5.70312 7.47046 5.70312 7.58765 5.82031L8.2439 6.47656C8.36108 6.59375 8.33765 6.78125 8.2439 6.875Z" fill="#09CA3F"/>
</svg>
