<svg width="401" height="317" viewBox="0 0 401 317" fill="none" xmlns="http://www.w3.org/2000/svg">
<path d="M76.2645 181.489L250.373 160.554C255.203 159.973 260.188 160.822 263.91 162.86L347.17 208.449C356.998 213.83 353.279 223.996 340.72 226.083L145.867 258.457C139.324 259.544 132.407 257.925 128.546 254.402L66.0306 197.375C59.3618 191.291 64.7878 182.868 76.2645 181.489Z" fill="#B5BCFF" fill-opacity="0.59" stroke="#F3F4F7"/>
<path d="M78.8983 154.924L250.749 132.091C255.65 131.44 260.75 132.27 264.551 134.339L343.992 177.565C353.764 182.882 350.253 192.962 337.859 195.172L145.575 229.461C138.92 230.648 131.813 229.011 127.908 225.393L68.8998 170.71C62.4055 164.692 67.6453 156.419 78.8983 154.924Z" fill="#B5BCFF" fill-opacity="0.36" stroke="#F3F4F7"/>
<path d="M76.2645 119.489L250.373 98.5541C255.203 97.9733 260.188 98.8225 263.91 100.86L347.17 146.449C356.998 151.83 353.279 161.996 340.72 164.083L145.867 196.457C139.324 197.544 132.407 195.925 128.546 192.402L66.0306 135.375C59.3618 129.291 64.7878 120.868 76.2645 119.489Z" fill="#B5BCFF" fill-opacity="0.3" stroke="#F3F4F7"/>
<path d="M72.87 80.4846L246.978 59.5502C251.809 58.9694 256.793 59.8186 260.515 61.8565L343.775 107.445C353.603 112.826 349.885 122.993 337.326 125.079L142.473 157.453C135.93 158.54 129.013 156.921 125.151 153.398L62.6361 96.3707C55.9673 90.2873 61.3932 81.8645 72.87 80.4846Z" fill="#B5BCFF" fill-opacity="0.28" stroke="#F3F4F7"/>
</svg>
