<svg width="477" height="235" viewBox="0 0 477 235" fill="none" xmlns="http://www.w3.org/2000/svg">
<path d="M71.7279 184.612C52.8518 179.428 51.7514 153.047 70.2025 148.041L231.471 104.283C234.679 103.413 238.102 103.417 241.389 104.295L403.403 147.575C422.387 152.646 423.58 179.173 405.049 184.186L241.32 228.484C238.071 229.363 234.604 229.346 231.281 228.433L71.7279 184.612Z" fill="#C1DDFF"/>
<path opacity="0.7" d="M71.7279 135.726C52.8518 130.541 51.7514 104.161 70.2025 99.1541L231.471 55.3966C234.679 54.526 238.102 54.5301 241.389 55.4084L403.403 98.6883C422.387 103.76 423.58 130.286 405.049 135.299L241.32 179.598C238.071 180.477 234.604 180.459 231.281 179.546L71.7279 135.726Z" fill="#C1DDFF"/>
<path opacity="0.4" d="M71.7279 86.8351C52.8518 81.6508 51.7514 55.2699 70.2025 50.2635L231.471 6.50599C234.679 5.63542 238.102 5.63948 241.389 6.51775L403.403 49.7976C422.387 54.869 423.58 81.3952 405.049 86.4088L241.32 130.707C238.071 131.586 234.604 131.568 231.281 130.656L71.7279 86.8351Z" fill="#C1DDFF"/>
</svg>
