<svg width="166" height="109" viewBox="0 0 166 109" fill="none" xmlns="http://www.w3.org/2000/svg">
<path d="M15.6382 78.4132C15.3086 76.9779 15.1067 75.4691 14.9757 73.8655C14.8414 72.2222 14.7759 70.381 14.7441 68.3156L25.3569 61.7534L25.7131 61.5325C27.2064 60.6053 28.7082 59.6727 30.4002 59.2375C31.8772 58.8576 33.4156 58.7799 34.9233 59.0092C36.6506 59.2719 38.2387 60.0484 39.8178 60.8205L40.1944 61.0045L42.5875 62.1691C44.9852 63.3359 45.2712 63.4136 45.4623 63.4387C45.7847 63.4813 46.1125 63.4537 46.4234 63.3582C46.6076 63.3016 46.8766 63.1775 49.0469 61.628L60.3956 53.5251L60.8174 53.223C62.5578 51.9744 64.3043 50.7215 66.3196 50.1837C68.075 49.7152 69.9173 49.676 71.691 50.0694C73.7274 50.5211 75.5256 51.6987 77.3175 52.8722L77.7517 53.156L96.237 65.2023C96.2255 68.5786 96.1772 71.4379 95.979 73.8655C95.9272 74.4984 95.8644 75.1167 95.7871 75.7215L72.806 60.7454C70.2578 59.0847 69.9375 58.9592 69.7295 58.913C69.3748 58.8344 69.0063 58.8423 68.6552 58.9359C68.4494 58.9909 68.1348 59.1299 65.6594 60.8973L54.3107 69.0002L53.9427 69.2636C52.4085 70.3638 50.8666 71.4694 49.0845 72.017C47.5301 72.4948 45.891 72.6321 44.2788 72.4196C42.4304 72.176 40.726 71.3424 39.0301 70.5128L38.6235 70.3143L36.2304 69.1497C34.0038 68.0661 33.741 67.9922 33.5615 67.9649C33.26 67.9189 32.9524 67.9344 32.657 68.0105C32.481 68.0558 32.2271 68.1558 30.1209 69.458L15.6382 78.4132Z" fill="#8C93A3"/>
<path d="M50.9483 40.7656C50.9483 45.7685 46.8926 49.8242 41.8897 49.8242C36.8868 49.8242 32.8311 45.7685 32.8311 40.7656C32.8311 35.7627 36.8868 31.707 41.8897 31.707C46.8926 31.707 50.9483 35.7627 50.9483 40.7656Z" fill="#8C93A3"/>
<path fill-rule="evenodd" clip-rule="evenodd" d="M48.0386 13.5879H62.92C67.8288 13.5879 71.7881 13.5878 74.9943 13.8497C78.2955 14.1194 81.195 14.6893 83.8776 16.0563C88.1389 18.2273 91.6034 21.6918 93.7744 25.9531C95.1414 28.6357 95.7113 31.5352 95.981 34.8364C96.2429 38.0426 96.2428 42.0018 96.2428 46.9105V61.7922C96.2428 66.701 96.2429 70.6602 95.981 73.8664C95.7113 77.1675 95.1414 80.067 93.7744 82.7497C91.6034 87.011 88.1389 90.4755 83.8776 92.6465C81.195 94.0135 78.2955 94.5833 74.9943 94.853C71.7881 95.115 67.8289 95.1149 62.9201 95.1149H48.0385C43.1297 95.1149 39.1705 95.115 35.9643 94.853C32.6632 94.5833 29.7637 94.0135 27.081 92.6465C22.8197 90.4755 19.3552 87.011 17.1842 82.7497C15.8172 80.067 15.2474 77.1675 14.9777 73.8664C14.7157 70.6602 14.7158 66.7008 14.7158 61.7921V46.9107C14.7158 42.0019 14.7157 38.0426 14.9777 34.8364C15.2474 31.5352 15.8172 28.6357 17.1842 25.9531C19.3552 21.6918 22.8197 18.2273 27.081 16.0563C29.7637 14.6893 32.6632 14.1194 35.9643 13.8497C39.1705 13.5878 43.1299 13.5879 48.0386 13.5879ZM36.702 22.8783C33.9611 23.1022 32.3863 23.5196 31.1935 24.1274C28.6367 25.4301 26.558 27.5088 25.2554 30.0656C24.6476 31.2583 24.2302 32.8332 24.0062 35.5741C23.778 38.3679 23.7744 41.9566 23.7744 47.1046V61.5982C23.7744 66.7462 23.778 70.3349 24.0062 73.1287C24.2302 75.8696 24.6476 77.4444 25.2554 78.6372C26.558 81.194 28.6367 83.2727 31.1935 84.5753C32.3863 85.1831 33.9611 85.6005 36.702 85.8245C39.4958 86.0527 43.0845 86.0563 48.2325 86.0563H62.7261C67.8741 86.0563 71.4628 86.0527 74.2566 85.8245C76.9975 85.6005 78.5724 85.1831 79.7651 84.5753C82.3219 83.2727 84.4006 81.194 85.7033 78.6372C86.3111 77.4444 86.7285 75.8696 86.9524 73.1287C87.1807 70.3349 87.1842 66.7462 87.1842 61.5982V47.1046C87.1842 41.9566 87.1807 38.3679 86.9524 35.5741C86.7285 32.8332 86.3111 31.2583 85.7033 30.0656C84.4006 27.5088 82.3219 25.4301 79.7651 24.1274C78.5724 23.5196 76.9975 23.1022 74.2566 22.8783C71.4628 22.65 67.8741 22.6465 62.7261 22.6465H48.2325C43.0845 22.6465 39.4958 22.65 36.702 22.8783Z" fill="#8C93A3"/>
<g clip-path="url(#clip0_11874_125572)">
<path d="M127.032 0L131.492 12.0521L143.544 16.5118L131.492 20.9715L127.032 33.0236L122.573 20.9715L110.521 16.5118L122.573 12.0521L127.032 0Z" fill="#8C93A3"/>
</g>
<g clip-path="url(#clip1_11874_125572)">
<path d="M154.552 0L157.525 8.03474L165.56 11.0079L157.525 13.981L154.552 22.0157L151.579 13.981L143.544 11.0079L151.579 8.03474L154.552 0Z" fill="#8C93A3"/>
</g>
<defs>
<clipPath id="clip0_11874_125572">
<rect width="33.0236" height="33.0236" fill="white" transform="translate(110.521)"/>
</clipPath>
<clipPath id="clip1_11874_125572">
<rect width="22.0157" height="22.0157" fill="white" transform="translate(143.544)"/>
</clipPath>
</defs>
</svg>
