<svg width="396" height="230" viewBox="0 0 396 230" fill="none" xmlns="http://www.w3.org/2000/svg">
<path d="M197.898 229.34C307.194 229.34 395.795 223.047 395.795 215.285C395.795 207.523 307.194 201.23 197.898 201.23C88.6018 201.23 0 207.523 0 215.285C0 223.047 88.6018 229.34 197.898 229.34Z" fill="#F5F5F5"/>
<path d="M341.866 0H312.189C309.487 0 306.895 1.11236 304.984 3.09239C303.073 5.07242 302 7.7579 302 10.5581V23.2916C302 26.0918 303.073 28.7772 304.984 30.7573C306.895 32.7373 309.487 33.8496 312.189 33.8496H324.873L328.28 45L331.721 33.8496H341.811C344.513 33.8496 347.105 32.7373 349.016 30.7573C350.927 28.7772 352 26.0918 352 23.2916V10.5581C352 7.76774 350.934 5.09084 349.035 3.11245C347.136 1.13405 344.559 0.0150504 341.866 0Z" fill="#009987"/>
<g clip-path="url(#clip0_1814_3870)">
<path d="M337.803 7.00165C335.806 6.05428 333.693 5.38113 331.52 5C331.249 5.49604 330.933 6.16322 330.715 6.69399C328.372 6.33688 326.051 6.33688 323.751 6.69399C323.533 6.16334 323.21 5.49604 322.937 5C320.762 5.3813 318.647 6.05617 316.649 7.00659C312.672 13.0981 311.594 19.0382 312.133 24.8942C314.771 26.8908 317.327 28.1037 319.839 28.8974C320.464 28.0268 321.016 27.105 321.49 26.1417C320.588 25.7935 319.718 25.3644 318.891 24.8595C319.109 24.6959 319.321 24.5255 319.528 24.3485C324.539 26.7246 329.984 26.7246 334.936 24.3485C335.144 24.5243 335.356 24.6947 335.573 24.8595C334.744 25.3657 333.873 25.7957 332.969 26.1442C333.446 27.1115 333.997 28.0341 334.619 28.8998C337.135 28.1062 339.693 26.8933 342.33 24.8942C342.963 18.1057 341.25 12.22 337.803 7.00153V7.00165ZM322.173 21.2929C320.668 21.2929 319.435 19.8691 319.435 18.1355C319.435 16.4018 320.642 14.9757 322.173 14.9757C323.703 14.9757 324.937 16.3993 324.911 18.1355C324.913 19.8691 323.703 21.2929 322.173 21.2929ZM332.291 21.2929C330.787 21.2929 329.553 19.8691 329.553 18.1355C329.553 16.4018 330.76 14.9757 332.291 14.9757C333.822 14.9757 335.055 16.3993 335.029 18.1355C335.029 19.8691 333.822 21.2929 332.291 21.2929Z" fill="white"/>
</g>
<path d="M56.5312 36.6836H29.0241C27.7816 36.6836 26.5512 36.9283 25.4033 37.4038C24.2554 37.8793 23.2123 38.5762 22.3337 39.4548C21.4551 40.3334 20.7582 41.3765 20.2827 42.5244C19.8072 43.6723 19.5625 44.9027 19.5625 46.1452V57.5563C19.5625 60.0657 20.5593 62.4723 22.3337 64.2467C24.1081 66.0211 26.5147 67.0179 29.0241 67.0179H40.8026L43.9667 77.0001L47.1614 67.0179H56.5312C59.0405 67.0179 61.4471 66.0211 63.2215 64.2467C64.9959 62.4723 65.9928 60.0657 65.9928 57.5563V46.1452C65.9928 44.9027 65.748 43.6723 65.2726 42.5244C64.7971 41.3765 64.1001 40.3334 63.2215 39.4548C62.3429 38.5762 61.2999 37.8793 60.152 37.4038C59.004 36.9283 57.7737 36.6836 56.5312 36.6836Z" fill="#009987"/>
<path d="M32.0595 51.1588C32.0595 51.5363 31.9476 51.9053 31.7378 52.2191C31.5281 52.533 31.23 52.7777 30.8812 52.9221C30.5325 53.0666 30.1487 53.1044 29.7785 53.0307C29.4082 52.9571 29.0682 52.7753 28.8012 52.5084C28.5343 52.2415 28.3525 51.9014 28.2789 51.5311C28.2052 51.1609 28.243 50.7771 28.3875 50.4283C28.5319 50.0796 28.7766 49.7815 29.0904 49.5718C29.4043 49.362 29.7733 49.2501 30.1508 49.2501C30.657 49.2501 31.1425 49.4512 31.5005 49.8091C31.8584 50.1671 32.0595 50.6526 32.0595 51.1588ZM38.5714 49.2501C38.1939 49.2501 37.8249 49.362 37.511 49.5718C37.1971 49.7815 36.9525 50.0796 36.808 50.4283C36.6635 50.7771 36.6257 51.1609 36.6994 51.5311C36.773 51.9014 36.9548 52.2415 37.2217 52.5084C37.4887 52.7753 37.8288 52.9571 38.199 53.0307C38.5692 53.1044 38.953 53.0666 39.3018 52.9221C39.6505 52.7777 39.9486 52.533 40.1584 52.2191C40.3681 51.9053 40.48 51.5363 40.48 51.1588C40.472 50.6588 40.267 50.1822 39.9096 49.8325C39.5523 49.4828 39.0714 49.2882 38.5714 49.2909V49.2501ZM46.9919 49.2501C46.6136 49.2461 46.2425 49.3545 45.926 49.5618C45.6094 49.769 45.3616 50.0657 45.214 50.4141C45.0664 50.7625 45.0257 51.1469 45.097 51.5184C45.1684 51.89 45.3485 52.232 45.6146 52.501C45.8807 52.77 46.2208 52.9538 46.5915 53.0291C46.9623 53.1044 47.3471 53.0678 47.6971 52.924C48.047 52.7802 48.3464 52.5355 48.557 52.2212C48.7676 51.9069 48.8801 51.5371 48.8801 51.1588C48.8721 50.6623 48.67 50.1888 48.317 49.8397C47.9641 49.4905 47.4884 49.2935 46.9919 49.2909V49.2501ZM55.4124 49.2501C55.0349 49.2501 54.6659 49.362 54.352 49.5718C54.0382 49.7815 53.7935 50.0796 53.6491 50.4283C53.5046 50.7771 53.4668 51.1609 53.5404 51.5311C53.6141 51.9014 53.7959 52.2415 54.0628 52.5084C54.3297 52.7753 54.6698 52.9571 55.0401 53.0307C55.4103 53.1044 55.7941 53.0666 56.1428 52.9221C56.4916 52.7777 56.7897 52.533 56.9994 52.2191C57.2091 51.9053 57.3211 51.5363 57.3211 51.1588C57.313 50.6588 57.1081 50.1822 56.7507 49.8325C56.3933 49.4828 55.9124 49.2882 55.4124 49.2909V49.2501Z" fill="white"/>
<path d="M364.273 216.706H234.729C210.529 216.706 208.978 188.209 228.871 174.797C232.508 172.379 236.533 170.604 240.772 169.551C280.159 159.191 335.5 89.551 374.48 118.691L374.592 118.773C413.418 148.117 386.279 216.706 364.273 216.706Z" fill="#263238"/>
<path opacity="0.5" d="M364.273 216.706H234.729C210.529 216.706 208.978 188.209 228.871 174.797C232.508 172.379 236.533 170.604 240.772 169.551C280.159 159.191 335.5 89.551 374.48 118.691L374.592 118.773C413.418 148.117 386.279 216.706 364.273 216.706Z" fill="white"/>
<path opacity="0.2" d="M374.379 118.64C371.112 118.426 367.152 119.344 362.886 122.917C351.812 132.205 368.653 176.92 342.166 195.517C327.387 205.897 263.626 210.47 242.345 197.742C226.637 188.342 226.432 182.432 228.872 174.797C232.509 172.379 236.534 170.604 240.773 169.551C280.11 159.14 335.45 89.4999 374.379 118.64Z" fill="black"/>
<path d="M273.66 110.209L265.934 104.769L271.711 98.8594C271.711 98.8594 277.641 101.921 277.079 107.382L273.66 110.209Z" fill="#E4897B"/>
<path d="M262.898 98.7666L268.257 95.3984L271.707 98.8585L265.93 104.768L262.898 98.7666Z" fill="#E4897B"/>
<path d="M311.666 96.1562C304.348 98.3099 300.745 111.181 294.703 123.337L277.117 105.863L271.523 110.823C271.523 110.823 287.63 136.411 295.234 136.411C304.726 136.411 314.575 110.048 314.575 110.048L311.666 96.1562Z" fill="#263238"/>
<path opacity="0.1" d="M314.576 110.048C314.576 110.048 313.014 114.223 310.493 119.234C308.094 124.113 304.828 129.798 301.307 133.238C299.317 135.167 297.224 136.392 295.183 136.392C287.579 136.392 271.473 110.804 271.473 110.804L277.066 105.843L294.652 123.317C300.694 111.161 304.287 98.2903 311.626 96.1367L314.576 110.048Z" fill="white"/>
<path opacity="0.2" d="M310.534 119.254C308.135 124.133 304.869 129.818 301.348 133.258C301.725 121.591 307.472 110.211 307.472 110.211C309.056 113.004 310.095 116.073 310.534 119.254Z" fill="black"/>
<path d="M304.667 167.26C304.667 167.26 242.559 158.339 239.273 171.965C235.812 186.377 285.682 196.094 315.486 197.114C345.29 198.135 353.843 190.99 349.056 154.246H308.229L304.667 167.26Z" fill="#009987"/>
<path opacity="0.6" d="M304.667 167.26C304.667 167.26 242.559 158.339 239.273 171.965C235.812 186.377 285.682 196.094 315.486 197.114C345.29 198.135 353.843 190.99 349.056 154.246H308.229L304.667 167.26Z" fill="white"/>
<path d="M270.075 195.674L257.062 195.684L250.815 195.694L250.07 189.111L255.847 188.335L269.963 186.457L270.075 195.674Z" fill="#E4897B"/>
<path d="M251.479 188.286L253.061 195.798C253.083 195.897 253.085 195.999 253.066 196.099C253.048 196.198 253.009 196.293 252.953 196.377C252.896 196.461 252.823 196.533 252.739 196.588C252.654 196.642 252.558 196.68 252.459 196.696L248.713 197.37C248.713 197.37 243.742 198.636 242.344 197.748C238.261 195.135 234.342 178.62 236.005 177.396C236.608 176.947 237.659 177.63 238.19 178.171C239.863 179.876 243.426 184.642 244.844 186.051C246.488 187.704 249.417 187.755 250.703 187.684C250.883 187.675 251.06 187.731 251.202 187.842C251.344 187.952 251.442 188.11 251.479 188.286Z" fill="#263238"/>
<path opacity="0.2" d="M270.076 195.674L257.062 195.684L255.848 188.335L269.964 186.457L270.076 195.674Z" fill="black"/>
<path d="M289.1 184.059L301.45 188.172L307.38 190.142L306.002 196.613L300.276 195.521L286.293 192.847L289.1 184.059Z" fill="#E4897B"/>
<path d="M304.41 196.946L305.278 189.322C305.29 189.222 305.322 189.126 305.372 189.038C305.422 188.951 305.489 188.874 305.569 188.812C305.648 188.751 305.739 188.705 305.836 188.679C305.934 188.653 306.035 188.646 306.135 188.659L309.901 189.21C309.901 189.21 315.005 189.577 316.025 190.863C319.087 194.63 317.577 211.542 315.617 212.175C314.892 212.41 314.117 211.43 313.78 210.756C312.759 208.603 310.861 202.948 309.963 201.172C308.942 199.08 306.155 198.11 304.92 197.763C304.752 197.709 304.609 197.598 304.516 197.448C304.422 197.299 304.385 197.121 304.41 196.946Z" fill="#263238"/>
<path opacity="0.2" d="M289.1 184.059L301.45 188.172L300.276 195.521L286.293 192.847L289.1 184.059Z" fill="black"/>
<path d="M298.131 196.662L294.609 196.999L296.712 184.812L300.754 186.946L298.131 196.662Z" fill="#009987"/>
<path opacity="0.6" d="M298.131 196.662L294.609 196.999L296.712 184.812L300.754 186.946L298.131 196.662Z" fill="white"/>
<path d="M309.921 201.079C310.013 201.631 309.931 202.198 309.687 202.702C309.588 202.853 309.451 202.975 309.289 203.056C309.128 203.136 308.948 203.173 308.768 203.161C308.659 203.166 308.551 203.142 308.454 203.092C308.358 203.042 308.276 202.967 308.217 202.876C307.686 201.977 308.931 199.211 309.084 198.905C309.094 198.871 309.116 198.841 309.146 198.822C309.176 198.804 309.213 198.797 309.248 198.803C309.287 198.807 309.323 198.822 309.353 198.848C309.382 198.874 309.402 198.908 309.411 198.946C309.653 199.638 309.824 200.353 309.921 201.079ZM308.452 202.406C308.459 202.496 308.487 202.584 308.533 202.661C308.552 202.7 308.583 202.732 308.622 202.753C308.661 202.773 308.705 202.78 308.748 202.774C308.871 202.788 308.997 202.767 309.109 202.713C309.221 202.659 309.315 202.573 309.38 202.467C309.678 201.497 309.624 200.452 309.227 199.518C308.797 200.426 308.535 201.404 308.452 202.406Z" fill="#009987"/>
<path d="M309.439 198.969V199.051C309.102 199.939 307.571 201.695 306.704 201.572C306.562 201.547 306.432 201.475 306.336 201.368C306.24 201.261 306.182 201.124 306.173 200.98C306.134 200.837 306.126 200.687 306.151 200.541C306.176 200.394 306.232 200.255 306.316 200.133C306.949 199.112 309.143 198.786 309.266 198.796C309.299 198.789 309.334 198.794 309.366 198.809C309.397 198.823 309.423 198.847 309.439 198.878C309.447 198.908 309.447 198.939 309.439 198.969ZM306.5 200.837V200.919C306.561 201.174 306.663 201.184 306.714 201.205C307.224 201.276 308.398 200.133 308.908 199.255C308.038 199.361 307.227 199.752 306.602 200.368C306.515 200.508 306.475 200.673 306.489 200.837H306.5Z" fill="#009987"/>
<path d="M258.242 187.384C258.242 187.384 316.022 164.929 333.721 168.685C351.419 172.441 351.501 181.699 342.529 190.334C333.557 198.969 320.156 195.641 320.156 195.641C320.156 195.641 330.689 189.334 329.954 185.435C329.22 181.536 322.524 190.446 322.524 190.446C322.524 190.446 287.607 198.989 258.773 196.733L258.242 187.384Z" fill="#009987"/>
<path d="M245.246 186.169C244.91 185.725 244.724 185.185 244.715 184.628C244.731 184.449 244.794 184.277 244.898 184.13C245.002 183.983 245.143 183.866 245.307 183.791C245.402 183.739 245.509 183.711 245.618 183.711C245.727 183.711 245.834 183.739 245.929 183.791C246.807 184.353 246.95 187.384 246.95 187.731C246.954 187.766 246.947 187.801 246.928 187.831C246.909 187.861 246.881 187.883 246.848 187.894C246.816 187.915 246.779 187.927 246.741 187.927C246.703 187.927 246.665 187.915 246.634 187.894C246.112 187.369 245.647 186.791 245.246 186.169ZM245.94 184.312C245.888 184.238 245.822 184.176 245.746 184.128C245.711 184.104 245.67 184.091 245.628 184.091C245.586 184.091 245.545 184.104 245.511 184.128C245.393 184.171 245.29 184.246 245.214 184.346C245.138 184.445 245.092 184.565 245.082 184.689C245.265 185.688 245.797 186.589 246.583 187.231C246.543 186.228 246.325 185.239 245.94 184.312Z" fill="#009987"/>
<path d="M246.63 187.821V187.729C246.527 186.79 247.068 184.525 247.905 184.229C248.044 184.185 248.192 184.19 248.328 184.242C248.463 184.294 248.577 184.39 248.65 184.514C248.843 184.741 248.938 185.034 248.916 185.331C248.814 186.525 247.017 187.821 246.874 187.883C246.846 187.902 246.812 187.912 246.778 187.912C246.743 187.912 246.709 187.902 246.681 187.883C246.659 187.867 246.641 187.846 246.63 187.821ZM248.385 184.81V184.739C248.222 184.545 248.12 184.586 248.069 184.596C247.579 184.759 247.048 186.311 247.048 187.331C247.548 186.913 248.518 186.035 248.579 185.29C248.589 185.124 248.547 184.96 248.457 184.821L248.385 184.81Z" fill="#009987"/>
<path opacity="0.7" d="M258.242 187.384C258.242 187.384 316.022 164.929 333.721 168.685C351.419 172.441 351.501 181.699 342.529 190.334C333.557 198.969 320.156 195.641 320.156 195.641C320.156 195.641 330.689 189.334 329.954 185.435C329.22 181.536 322.524 190.446 322.524 190.446C322.524 190.446 287.607 198.989 258.773 196.733L258.242 187.384Z" fill="white"/>
<path d="M257.543 187.209L260.789 185.719L262.657 197.875L258.145 197.14L257.543 187.209Z" fill="#009987"/>
<path opacity="0.6" d="M257.543 187.209L260.789 185.719L262.657 197.875L258.145 197.14L257.543 187.209Z" fill="white"/>
<path d="M353.156 98.1065C346.92 132.809 349.186 155.264 349.186 155.264C349.186 155.264 320.168 154.866 308.247 154.192C301.888 112.131 311.666 96.1468 311.666 96.1468C314.783 95.5221 317.936 95.0892 321.107 94.8506C321.771 94.7995 322.454 94.7689 323.148 94.7383C328.772 94.7346 334.392 95.0515 339.979 95.6875C341 95.7998 342.112 95.9427 343.154 96.0958C348.471 96.9021 353.156 98.1065 353.156 98.1065Z" fill="#263238"/>
<path opacity="0.1" d="M353.159 98.1067C352.383 102.414 351.74 106.537 351.209 110.436C350.372 116.56 349.811 122.235 349.444 127.277C349.331 128.798 349.229 130.278 349.158 131.687C348.862 136.851 348.78 141.271 348.79 144.843C348.79 151.559 349.188 155.264 349.188 155.264C349.188 155.264 320.171 154.866 308.249 154.192C301.88 112.131 311.679 96.147 311.679 96.147C314.793 95.5217 317.943 95.0888 321.11 94.8507C321.773 94.7997 322.457 94.7691 323.151 94.7385C328.775 94.7296 334.395 95.0465 339.982 95.6877C341.003 95.8 342.115 95.9428 343.156 96.0959C348.474 96.8921 353.159 98.1067 353.159 98.1067Z" fill="white"/>
<path opacity="0.2" d="M327.246 136.411C334.682 135.527 342.019 133.949 349.16 131.695C348.864 136.86 348.782 141.279 348.792 144.852C334.942 146.128 329.287 143.464 329.287 143.464L327.246 136.411Z" fill="black"/>
<path opacity="0.2" d="M351.211 110.447C350.374 116.571 349.813 122.246 349.446 127.288C345.475 119.204 348.425 109.508 348.425 109.508L351.211 110.447Z" fill="black"/>
<path d="M328.812 150.659H307.704C307.294 150.652 306.901 150.493 306.603 150.211C306.305 149.93 306.122 149.547 306.092 149.138L303.152 121.121C303.132 120.933 303.152 120.742 303.211 120.563C303.269 120.383 303.366 120.217 303.493 120.078C303.62 119.938 303.776 119.826 303.949 119.751C304.123 119.676 304.31 119.638 304.499 119.641H325.607C326.009 119.649 326.394 119.804 326.689 120.077C326.984 120.349 327.17 120.721 327.209 121.121L330.159 149.138C330.186 149.329 330.171 149.524 330.115 149.709C330.059 149.894 329.964 150.064 329.836 150.209C329.708 150.353 329.55 150.468 329.373 150.546C329.196 150.624 329.005 150.662 328.812 150.659Z" fill="#263238"/>
<path opacity="0.6" d="M328.812 150.659H307.704C307.294 150.652 306.901 150.493 306.603 150.211C306.305 149.93 306.122 149.547 306.092 149.138L303.152 121.121C303.132 120.933 303.152 120.742 303.211 120.563C303.269 120.383 303.366 120.217 303.493 120.078C303.62 119.938 303.776 119.826 303.949 119.751C304.123 119.676 304.31 119.638 304.499 119.641H325.607C326.009 119.649 326.394 119.804 326.689 120.077C326.984 120.349 327.17 120.721 327.209 121.121L330.159 149.138C330.186 149.329 330.171 149.524 330.115 149.709C330.059 149.894 329.964 150.064 329.836 150.209C329.708 150.353 329.55 150.468 329.373 150.546C329.196 150.624 329.005 150.662 328.812 150.659Z" fill="white"/>
<path opacity="0.2" d="M327.934 150.659H307.704C307.294 150.652 306.901 150.493 306.603 150.211C306.305 149.93 306.122 149.547 306.092 149.138L303.152 121.121C303.132 120.933 303.152 120.742 303.211 120.563C303.269 120.383 303.366 120.217 303.493 120.078C303.62 119.938 303.776 119.826 303.949 119.751C304.123 119.676 304.31 119.638 304.499 119.641H324.729C325.131 119.649 325.516 119.804 325.811 120.077C326.107 120.349 326.292 120.721 326.332 121.121L329.281 149.138C329.308 149.329 329.293 149.524 329.237 149.709C329.181 149.894 329.086 150.064 328.958 150.209C328.83 150.353 328.672 150.468 328.495 150.546C328.319 150.624 328.127 150.662 327.934 150.659Z" fill="white"/>
<path d="M315.628 132.879C315.337 132.877 315.049 132.937 314.783 133.055C314.517 133.173 314.279 133.347 314.086 133.564C313.893 133.782 313.748 134.038 313.662 134.316C313.576 134.594 313.55 134.887 313.586 135.175C313.646 135.795 313.933 136.37 314.39 136.792C314.848 137.214 315.444 137.452 316.067 137.462C316.357 137.464 316.644 137.404 316.909 137.287C317.174 137.169 317.411 136.996 317.604 136.78C317.797 136.564 317.942 136.309 318.029 136.032C318.116 135.755 318.143 135.463 318.108 135.175C317.485 135.163 316.888 134.923 316.431 134.499C315.973 134.076 315.688 133.499 315.628 132.879Z" fill="#263238"/>
<path opacity="0.3" d="M320.196 121.909H309.04C308.766 121.905 308.498 121.824 308.268 121.677C308.037 121.529 307.852 121.319 307.734 121.072L307.07 119.684H321.788L321.401 121.072C321.325 121.327 321.164 121.549 320.945 121.701C320.726 121.854 320.462 121.927 320.196 121.909Z" fill="black"/>
<path d="M326.754 135.511L321.875 135.113L322.079 141.605L326.162 143.748L335.572 142.891L336.338 138.512C333.245 133.98 326.754 135.511 326.754 135.511Z" fill="#E4897B"/>
<path d="M353.156 98.1094C358.168 99.62 365.272 128.729 364.139 135.16C363.006 141.59 350.646 144.346 334.938 143.989V136.395L353.156 131.077L350.094 119.85C350.094 119.85 347.563 111.592 348.696 105.815C349.318 102.835 350.882 100.133 353.156 98.1094Z" fill="#263238"/>
<path opacity="0.1" d="M353.156 98.1094C358.168 99.62 365.272 128.729 364.139 135.16C363.006 141.59 350.646 144.346 334.938 143.989V136.395L353.156 131.077L350.094 119.85C350.094 119.85 347.563 111.592 348.696 105.815C349.318 102.835 350.882 100.133 353.156 98.1094Z" fill="white"/>
<path d="M337.552 95.3631C335.011 98.0168 331.02 100.242 324.621 100.007C319.711 99.8132 319.027 96.7308 319.885 95.0365C322.865 94.4241 324.212 93.1278 324.631 91.4744C325.049 89.8209 324.467 87.5958 323.61 85.534L331.888 78.5629L333.286 77.3789C333.286 77.777 333.235 78.1955 333.215 78.6343C333.118 80.2524 333.118 81.8747 333.215 83.4927C333.49 88.0551 334.572 93.0054 337.552 95.3631Z" fill="#E4897B"/>
<path opacity="0.2" d="M333.224 83.4923C331.683 86.6462 328.978 90.4533 324.63 91.474C325.079 89.7184 324.467 87.5954 323.609 85.5337L331.887 78.5625C332.326 78.5625 332.775 78.5625 333.214 78.634C333.121 80.2522 333.124 81.8745 333.224 83.4923Z" fill="black"/>
<path d="M314.26 64.7007C313.045 67.4769 312.892 73.4377 317.118 71.9577C321.343 70.4777 316.301 59.9342 314.26 64.7007Z" fill="#263238"/>
<path d="M334.502 70.8559C334.134 78.2864 334.308 82.6651 330.593 86.4926C324.999 92.2491 315.773 88.8605 313.895 81.4505C312.221 74.7651 313.098 63.7316 320.345 60.7513C321.953 60.0929 323.701 59.8526 325.426 60.053C327.152 60.2533 328.798 60.8877 330.212 61.8968C331.626 62.906 332.761 64.257 333.511 65.8237C334.261 67.3904 334.602 69.1217 334.502 70.8559Z" fill="#E4897B"/>
<path d="M323.232 72.9554C323.232 73.5576 322.926 74.0577 322.528 74.0577C322.13 74.0577 321.803 73.5678 321.793 72.9554C321.783 72.343 322.11 71.8633 322.497 71.8633C322.885 71.8633 323.222 72.3532 323.232 72.9554Z" fill="#263238"/>
<path d="M316.37 72.9788C316.37 73.581 316.064 74.071 315.666 74.071C315.268 74.071 314.941 73.581 314.941 72.9788C314.941 72.3766 315.248 71.8867 315.646 71.8867C316.044 71.8867 316.37 72.3664 316.37 72.9788Z" fill="#263238"/>
<path d="M318.558 73.2734C317.836 75.0664 316.867 76.7497 315.68 78.2747C316.101 78.5518 316.576 78.7377 317.073 78.8203C317.571 78.9029 318.08 78.8805 318.568 78.7544L318.558 73.2734Z" fill="#DE5753"/>
<path d="M325.313 70.7382C325.252 70.7473 325.189 70.7398 325.132 70.7165C325.074 70.6931 325.024 70.6548 324.987 70.6055C324.723 70.2429 324.377 69.947 323.979 69.7414C323.58 69.5358 323.139 69.4263 322.69 69.4216C322.596 69.4274 322.503 69.3967 322.431 69.3359C322.359 69.2751 322.313 69.1888 322.302 69.0949C322.298 69.048 322.303 69.0007 322.317 68.9557C322.331 68.9108 322.354 68.8691 322.385 68.833C322.415 68.797 322.452 68.7673 322.494 68.7457C322.536 68.7241 322.582 68.711 322.629 68.7071C323.196 68.7035 323.756 68.8338 324.263 69.0874C324.77 69.341 325.211 69.7108 325.548 70.1667C325.606 70.2412 325.632 70.3356 325.621 70.4294C325.609 70.5231 325.561 70.6084 325.487 70.6668C325.436 70.7052 325.376 70.7298 325.313 70.7382Z" fill="#263238"/>
<path d="M313.393 70.633C313.326 70.6523 313.255 70.6523 313.189 70.633C313.146 70.6124 313.109 70.5835 313.077 70.5482C313.046 70.5129 313.023 70.4717 313.007 70.4271C312.992 70.3825 312.986 70.3354 312.989 70.2884C312.992 70.2414 313.005 70.1955 313.025 70.1533C313.252 69.6342 313.6 69.1774 314.041 68.822C314.481 68.4665 315.001 68.2229 315.557 68.112C315.604 68.1063 315.651 68.11 315.697 68.1229C315.742 68.1357 315.785 68.1575 315.822 68.187C315.859 68.2164 315.89 68.2529 315.913 68.2943C315.935 68.3358 315.95 68.3814 315.955 68.4284C315.962 68.474 315.96 68.5206 315.949 68.5655C315.938 68.6104 315.918 68.6526 315.891 68.6897C315.863 68.7267 315.828 68.7579 315.788 68.7814C315.749 68.8049 315.705 68.8202 315.659 68.8264C315.221 68.9088 314.81 69.0983 314.462 69.3778C314.115 69.6574 313.843 70.0185 313.669 70.4289C313.642 70.4823 313.603 70.5286 313.555 70.5641C313.507 70.5995 313.452 70.6232 313.393 70.633Z" fill="#263238"/>
<path d="M322.823 64.8937C322.823 64.8937 324.864 63.424 325.803 65.006C326.742 66.5881 326.681 70.8034 326.681 70.8034L327.089 70.0583C327.089 70.0583 329.732 79.4485 333.56 77.0805C337.387 74.7126 343.011 65.1795 334.07 60.3211C334.07 60.3211 333.121 58.0552 327.211 56.9325C321.302 55.8098 314.157 59.4638 312.922 63.3729C311.687 67.2821 313.412 69.497 313.412 69.497C313.601 68.646 313.99 67.8521 314.545 67.18C314.624 67.5784 314.801 67.9509 315.059 68.2644C315.317 68.5778 315.649 68.8224 316.025 68.9764C315.965 68.1777 316.131 67.3782 316.505 66.6697C316.7 67.3643 317.049 68.0061 317.525 68.5477C317.954 64.5263 320.689 63.7097 321.547 63.7404C321.854 63.7743 322.142 63.9039 322.371 64.111C322.6 64.318 322.758 64.5918 322.823 64.8937Z" fill="#263238"/>
<path d="M337.449 77.0082C337.176 77.8924 336.731 78.7138 336.139 79.425C335.546 80.1362 334.819 80.7232 333.999 81.1521C331.795 82.2851 330.182 80.4173 330.366 78.0901C330.529 75.9773 331.866 72.8439 334.285 72.6908C334.814 72.6669 335.341 72.7741 335.819 73.0028C336.297 73.2316 336.71 73.5749 337.024 74.0021C337.337 74.4293 337.539 74.9273 337.614 75.4517C337.688 75.9762 337.631 76.5108 337.449 77.0082Z" fill="#E4897B"/>
<path d="M318.801 81.2443C319.438 81.9111 320.025 82.6241 320.556 83.3775L320.995 83.1632C322.965 82.1425 323.557 81.0504 323.608 80.1012C323.621 79.6434 323.527 79.189 323.333 78.7743C323.229 78.538 323.091 78.318 322.924 78.1211C321.984 79.2792 320.803 80.2195 319.464 80.8769C319.066 81.1218 318.801 81.2443 318.801 81.2443Z" fill="#263238"/>
<path d="M319.469 80.9004L320.01 81.5127C321.857 80.5737 323.072 79.6551 323.337 78.7977C323.233 78.5614 323.096 78.3414 322.929 78.1445C321.988 79.3027 320.808 80.2429 319.469 80.9004Z" fill="white"/>
<path d="M320.996 83.1636C322.966 82.1429 323.558 81.0508 323.609 80.1016C322.867 80.4955 322.2 81.0172 321.639 81.6428C321.269 82.0688 321.044 82.6013 320.996 83.1636Z" fill="#A24E3F"/>
<path d="M141.16 105.434L141.691 111.099C141.691 111.099 174.842 116.141 180.149 121.305C185.457 126.47 204.288 208.154 204.288 208.154L196.694 209.175C196.694 209.175 170.341 148.955 168.932 140.239C168.932 140.239 145.722 141.106 129.881 141.106C114.041 141.106 112.152 105.383 112.152 105.383L141.16 105.434Z" fill="#009987"/>
<path opacity="0.3" d="M204.286 208.163L196.692 209.183C196.692 209.183 185.914 184.555 177.779 164.519C173.176 153.22 169.43 143.381 168.93 140.237C168.93 140.237 152.865 140.829 138.31 141.033C135.37 141.033 132.502 141.095 129.838 141.095C113.998 141.095 112.109 105.371 112.109 105.371H141.117L141.648 111.036C141.648 111.036 174.809 116.068 180.106 121.243C185.404 126.417 204.286 208.163 204.286 208.163Z" fill="white"/>
<path d="M210.146 215.48C205.042 215.48 204.358 215.398 201.48 215.296C199.02 215.215 198.418 215.521 196.458 215.48C194.805 215.48 194.866 213.857 195.377 212.04C195.632 211.122 196.02 209.193 196.397 207.723L203.889 207.172C204.91 209.213 207.318 212.061 210.197 212.449C213.075 212.837 212.187 215.48 210.146 215.48Z" fill="#263238"/>
<path opacity="0.2" d="M177.783 164.562C173.18 153.263 169.434 143.424 168.934 140.28C168.934 140.28 152.869 140.872 138.314 141.076L136.742 113.324C136.742 113.324 157.237 116.264 171.016 128.134C172.762 129.604 176.16 152.334 177.783 164.562Z" fill="black"/>
<path d="M170.637 146.414H111.326V142.77C111.326 141.555 111.808 140.389 112.668 139.53C113.527 138.67 114.693 138.187 115.908 138.187H166.054C167.269 138.187 168.435 138.67 169.294 139.53C170.154 140.389 170.637 141.555 170.637 142.77V146.414Z" fill="#263238"/>
<path opacity="0.2" d="M170.637 146.414H111.326V142.77C111.326 141.555 111.808 140.389 112.668 139.53C113.527 138.67 114.693 138.187 115.908 138.187H166.054C167.269 138.187 168.435 138.67 169.294 139.53C170.154 140.389 170.637 141.555 170.637 142.77V146.414Z" fill="white"/>
<path d="M168.578 199.745L145.715 197.755V167.727H137.683V197.744L114.738 199.786C113.762 199.882 112.858 200.338 112.199 201.064C111.541 201.79 111.176 202.735 111.176 203.715V206.777H172.151V203.715C172.16 202.727 171.799 201.77 171.137 201.035C170.476 200.3 169.563 199.839 168.578 199.745Z" fill="#263238"/>
<path d="M118.56 210.503C118.56 211.542 118.251 212.558 117.674 213.423C117.096 214.287 116.275 214.961 115.315 215.359C114.354 215.757 113.297 215.861 112.278 215.658C111.258 215.455 110.322 214.955 109.586 214.219C108.851 213.484 108.351 212.548 108.148 211.528C107.945 210.508 108.049 209.451 108.447 208.491C108.845 207.53 109.519 206.71 110.383 206.132C111.247 205.554 112.264 205.246 113.303 205.246C114.697 205.246 116.034 205.8 117.02 206.786C118.006 207.771 118.56 209.108 118.56 210.503Z" fill="#263238"/>
<path d="M169.995 215.759C172.898 215.759 175.251 213.406 175.251 210.503C175.251 207.599 172.898 205.246 169.995 205.246C167.092 205.246 164.738 207.599 164.738 210.503C164.738 213.406 167.092 215.759 169.995 215.759Z" fill="#263238"/>
<path d="M136.289 144.457H147.098V170.066C147.098 171.07 146.699 172.033 145.989 172.743C145.279 173.453 144.316 173.852 143.311 173.852H140.086C139.082 173.852 138.119 173.453 137.408 172.743C136.698 172.033 136.299 171.07 136.299 170.066V144.457H136.289Z" fill="#263238"/>
<path opacity="0.2" d="M136.289 144.457H147.098V170.066C147.098 171.07 146.699 172.033 145.989 172.743C145.279 173.453 144.316 173.852 143.311 173.852H140.086C139.082 173.852 138.119 173.453 137.408 172.743C136.698 172.033 136.299 171.07 136.299 170.066V144.457H136.289Z" fill="white"/>
<path d="M110.909 147.367H171.047C172.067 147.367 172.895 146.54 172.895 145.52V145.101C172.895 144.081 172.067 143.254 171.047 143.254H110.909C109.889 143.254 109.062 144.081 109.062 145.101V145.52C109.062 146.54 109.889 147.367 110.909 147.367Z" fill="#263238"/>
<path opacity="0.2" d="M118.56 210.503C118.56 211.542 118.251 212.558 117.674 213.423C117.096 214.287 116.275 214.961 115.315 215.359C114.354 215.757 113.297 215.861 112.278 215.658C111.258 215.455 110.322 214.955 109.586 214.219C108.851 213.484 108.351 212.548 108.148 211.528C107.945 210.508 108.049 209.451 108.447 208.491C108.845 207.53 109.519 206.71 110.383 206.132C111.247 205.554 112.264 205.246 113.303 205.246C114.697 205.246 116.034 205.8 117.02 206.786C118.006 207.771 118.56 209.108 118.56 210.503Z" fill="white"/>
<path opacity="0.2" d="M169.995 215.759C172.898 215.759 175.251 213.406 175.251 210.503C175.251 207.599 172.898 205.246 169.995 205.246C167.092 205.246 164.738 207.599 164.738 210.503C164.738 213.406 167.092 215.759 169.995 215.759Z" fill="white"/>
<path d="M175.677 95.9207H157.356C151.987 95.9207 148.108 91.093 148.7 85.1527L149.476 77.2119C150.068 71.2614 154.886 66.4336 160.254 66.4336H178.575C183.944 66.4336 187.823 71.2614 187.241 77.2119L186.455 85.1527C185.873 91.093 181.045 95.9207 175.677 95.9207Z" fill="#263238"/>
<path opacity="0.2" d="M175.677 95.9207H157.356C151.987 95.9207 148.108 91.093 148.7 85.1527L149.476 77.2119C150.068 71.2614 154.886 66.4336 160.254 66.4336H178.575C183.944 66.4336 187.823 71.2614 187.241 77.2119L186.455 85.1527C185.873 91.093 181.045 95.9207 175.677 95.9207Z" fill="white"/>
<path d="M173.995 92.0557H163.197C160.022 92.0557 157.726 89.208 158.093 85.6867L158.563 81.0018C158.9 77.4805 161.758 74.6328 164.932 74.6328H175.751C178.925 74.6328 181.222 77.4805 180.854 81.0018L180.385 85.6867C180.017 89.208 177.17 92.0557 173.995 92.0557Z" fill="#263238"/>
<path d="M165.401 85.0508C165.401 85.0508 162.931 134.706 152.234 143.229H163.676C163.676 143.229 173.883 126.316 174.628 85.0508H165.401Z" fill="#263238"/>
<path d="M174.606 64.3669L176.576 63.3462C176.945 63.1572 177.355 63.0586 177.77 63.0586C178.185 63.0586 178.594 63.1572 178.964 63.3462L182.496 65.0813C183.191 65.4232 183.794 65.927 184.254 66.5504C184.714 67.1739 185.018 67.8987 185.139 68.6639L185.302 69.6335C182.149 71.6136 177.29 71.4299 177.29 71.4299L175.892 71.5422C175.607 71.5717 175.318 71.5443 175.044 71.4615C174.769 71.3786 174.514 71.2421 174.293 71.0598C174.072 70.8774 173.889 70.6529 173.755 70.3993C173.621 70.1457 173.539 69.868 173.514 69.5825L173.269 66.8267C173.222 66.3302 173.325 65.8312 173.563 65.3931C173.801 64.955 174.164 64.5978 174.606 64.3669Z" fill="#B97964"/>
<path opacity="0.2" d="M174.606 64.3669L176.576 63.3462C176.945 63.1572 177.355 63.0586 177.77 63.0586C178.185 63.0586 178.594 63.1572 178.964 63.3462L182.496 65.0813C183.191 65.4232 183.794 65.927 184.254 66.5504C184.714 67.1739 185.018 67.8987 185.139 68.6639L185.302 69.6335C182.149 71.6136 177.29 71.4299 177.29 71.4299L175.892 71.5422C175.607 71.5717 175.318 71.5443 175.044 71.4615C174.769 71.3786 174.514 71.2421 174.293 71.0598C174.072 70.8774 173.889 70.6529 173.755 70.3993C173.621 70.1457 173.539 69.868 173.514 69.5825L173.269 66.8267C173.222 66.3302 173.325 65.8312 173.563 65.3931C173.801 64.955 174.164 64.5978 174.606 64.3669Z" fill="black"/>
<path d="M160.134 66.795L152.989 75.8279H146.191L147.079 63.2227C152.224 64.2127 160.134 66.795 160.134 66.795Z" fill="#009987"/>
<path opacity="0.2" d="M152.387 75.8298H146.508L150.162 66.7969C150.162 66.7969 152.254 69.9712 152.387 75.8298Z" fill="black"/>
<path d="M141.599 108.845L111.684 106.069C112.623 102.885 113.449 99.7613 114.143 96.7504C115.021 93.0657 115.715 89.5342 116.266 86.2374C116.818 82.9407 117.287 79.8787 117.614 77.1025L117.706 76.3165C117.706 75.8776 117.808 75.449 117.848 75.0407C118.144 72.3563 118.328 70.019 118.451 68.0899C118.706 64.3237 118.706 62.1496 118.706 62.1496C128.956 60.1868 139.533 60.8148 149.479 63.9766C153.929 76.5105 141.599 108.845 141.599 108.845Z" fill="#009987"/>
<path d="M141.495 65.9797C141.04 66.9211 140.346 67.7261 139.481 68.3131C138.616 68.9002 137.611 69.2486 136.568 69.3231C135.526 69.3977 134.482 69.1957 133.542 68.7377C132.602 68.2797 131.8 67.5818 131.217 66.7145L129.92 64.7855L128.328 62.3869C131.002 60.8049 132.054 55.7423 132.411 51.3943C132.523 50.0266 132.564 48.7406 132.564 47.6484L139.28 56.8345C138.81 57.8073 138.467 58.8363 138.259 59.8965C138.174 60.3334 138.14 60.7786 138.157 61.2233C138.167 63.0095 139.055 64.663 141.495 65.9797Z" fill="#B97964"/>
<path opacity="0.2" d="M139.26 56.8855C138.79 57.8583 138.447 58.8874 138.239 59.9475C136.473 62.2134 133.727 64.612 129.941 64.7651L128.328 62.3869C131.002 60.8049 132.054 55.7423 132.411 51.3943C132.523 50.0266 132.564 48.7406 132.564 47.6484L139.26 56.8855Z" fill="black"/>
<path d="M123.124 41.5419C123.124 41.5419 119.807 40.2967 120.786 38.0002C121.766 35.7037 122.95 35.7241 122.95 35.7241C122.449 34.7851 122.177 33.741 122.155 32.6768C122.134 31.6126 122.364 30.5584 122.828 29.6001C124.471 26.5381 128.105 27.7833 128.105 27.7833C128.119 26.8215 128.46 25.8932 129.073 25.1511C129.685 24.4091 130.531 23.8975 131.473 23.7006C132.434 23.5416 133.421 23.7008 134.283 24.154C135.145 24.6072 135.836 25.3297 136.25 26.2115C136.25 26.2115 138.536 23.2413 141.884 24.0578C145.232 24.8744 145.905 29.5389 145.905 29.5389C146.82 29.2407 147.814 29.3066 148.681 29.723C149.548 30.1394 150.221 30.874 150.559 31.7741C151.015 32.7136 151.205 33.7595 151.11 34.7991C151.014 35.8387 150.637 36.8325 150.018 37.6736C150.018 37.6736 152.152 36.6529 152.856 40.0926C153.56 43.5322 149.967 46.5534 149.967 46.5534C149.967 46.5534 151.907 46.7882 150.906 49.3296C149.906 51.8711 146.752 51.9119 146.752 51.9119C146.752 51.9119 147.977 52.5345 145.66 54.6269C143.343 56.7193 135.882 53.7287 135.882 53.7287L123.124 41.5419Z" fill="#263238"/>
<path d="M132.251 36.091C125.106 36.4584 123.065 40.3982 122.892 47.7776C122.718 56.9637 125.096 63.4041 133.905 60.9749C145.846 57.6781 144.091 35.4684 132.251 36.091Z" fill="#B97964"/>
<path d="M127.474 47.1367C126.959 48.2307 126.315 49.2587 125.555 50.1987C125.78 50.4831 126.079 50.7001 126.419 50.8261C126.759 50.9521 127.128 50.9822 127.484 50.9132L127.474 47.1367Z" fill="#A24E3F"/>
<path d="M131.81 46.3163C131.81 46.9083 132.157 47.337 132.544 47.337C132.932 47.337 133.239 46.847 133.228 46.255C133.218 45.6631 132.881 45.2344 132.483 45.2344C132.085 45.2344 131.789 45.7345 131.81 46.3163Z" fill="#263238"/>
<path d="M132.645 45.2703L131.359 44.8008C131.359 44.8008 132.023 45.8623 132.645 45.2703Z" fill="#263238"/>
<path d="M124.512 46.41C124.512 47.002 124.859 47.4307 125.257 47.4307C125.655 47.4307 125.951 46.9408 125.931 46.3488C125.91 45.7568 125.584 45.3281 125.196 45.3281C124.808 45.3281 124.502 45.8283 124.512 46.41Z" fill="#263238"/>
<path d="M125.363 45.346L124.066 44.8867C124.066 44.8867 124.74 45.938 125.363 45.346Z" fill="#263238"/>
<path d="M134.77 42.614C134.727 42.6149 134.685 42.6061 134.646 42.5885C134.607 42.5708 134.573 42.5447 134.545 42.512C134.16 42.1681 133.702 41.916 133.205 41.7746C132.708 41.6331 132.186 41.6061 131.677 41.6954C131.638 41.7028 131.597 41.7023 131.558 41.694C131.518 41.6857 131.481 41.6697 131.448 41.647C131.415 41.6242 131.386 41.5951 131.364 41.5614C131.342 41.5277 131.327 41.49 131.32 41.4505C131.308 41.3722 131.327 41.2923 131.372 41.2276C131.418 41.1629 131.487 41.1184 131.565 41.1034C132.177 40.9916 132.806 41.0258 133.402 41.2032C133.998 41.3805 134.543 41.6961 134.994 42.1241C135.05 42.1813 135.082 42.2583 135.082 42.3384C135.082 42.4186 135.05 42.4956 134.994 42.5528C134.93 42.601 134.85 42.6229 134.77 42.614Z" fill="#263238"/>
<path d="M123.615 42.3969C123.568 42.3967 123.522 42.3866 123.48 42.3672C123.438 42.3478 123.4 42.3197 123.37 42.2846C123.321 42.2197 123.3 42.138 123.312 42.0576C123.323 41.9772 123.366 41.9047 123.431 41.856C123.85 41.5041 124.343 41.2507 124.873 41.1147C125.403 40.9787 125.956 40.9634 126.493 41.07C126.532 41.0817 126.569 41.101 126.6 41.1269C126.632 41.1528 126.658 41.1848 126.677 41.221C126.696 41.2571 126.707 41.2967 126.711 41.3374C126.714 41.3781 126.71 41.419 126.697 41.4579C126.672 41.5328 126.618 41.5948 126.547 41.6309C126.477 41.6671 126.395 41.6746 126.32 41.6518C125.871 41.5711 125.41 41.5915 124.97 41.7116C124.531 41.8316 124.123 42.0483 123.778 42.3459C123.729 42.3776 123.673 42.3952 123.615 42.3969Z" fill="#263238"/>
<path d="M140.674 47.6945C140.674 47.6945 137.03 42.0094 137.306 37.4878C137.306 37.4878 122.873 32.4559 122.924 46.8269C122.924 46.8269 120.883 34.1706 133.131 33.2418C145.379 32.313 146.257 50.2462 140.204 55.9211C140.194 55.9007 142.93 51.2464 140.674 47.6945Z" fill="#263238"/>
<path d="M139.586 49.2662C139.595 48.8538 139.686 48.4473 139.853 48.07C140.019 47.6927 140.259 47.352 140.558 47.0675C140.856 46.783 141.208 46.5603 141.593 46.4122C141.978 46.264 142.389 46.1934 142.801 46.2042C145.026 46.3369 146.312 50.8176 140.872 52.1956C140.096 52.4099 139.606 51.6648 139.586 49.2662Z" fill="#B97964"/>
<path d="M129.199 55.0649C128.995 55.0795 128.79 55.0795 128.586 55.0649C128.547 55.0575 128.509 55.0424 128.475 55.0205C128.441 54.9986 128.412 54.9702 128.39 54.937C128.367 54.9038 128.351 54.8665 128.343 54.8271C128.334 54.7878 128.334 54.7472 128.341 54.7076C128.347 54.6685 128.361 54.631 128.382 54.5973C128.403 54.5637 128.43 54.5346 128.463 54.5118C128.495 54.4889 128.532 54.4728 128.571 54.4644C128.609 54.4559 128.649 54.4554 128.688 54.4627C129.457 54.5979 130.249 54.4699 130.936 54.0995C131.623 53.7291 132.165 53.1379 132.475 52.4213C132.49 52.3838 132.512 52.3495 132.54 52.3205C132.568 52.2915 132.601 52.2683 132.638 52.2521C132.675 52.236 132.715 52.2274 132.755 52.2266C132.795 52.2259 132.835 52.2331 132.873 52.2478C132.91 52.2626 132.945 52.2846 132.974 52.3125C133.003 52.3405 133.026 52.374 133.042 52.4109C133.058 52.4479 133.067 52.4877 133.068 52.528C133.068 52.5683 133.061 52.6084 133.046 52.6459C132.733 53.3972 132.195 54.033 131.506 54.4662C130.817 54.8993 130.011 55.1085 129.199 55.0649Z" fill="#263238"/>
<path d="M143.293 45.0961C141.588 36.2469 128.503 28.8164 123.594 39.1048C124.417 36.5262 126.009 34.2611 128.156 32.6133C128.156 32.6133 141.425 28.8266 143.762 43.9427L143.293 45.0961Z" fill="#009987"/>
<path d="M136.321 215.48C131.218 215.48 130.534 215.398 127.656 215.296C125.196 215.215 124.594 215.521 122.634 215.48C120.981 215.48 121.042 213.857 121.552 212.04C121.807 211.122 122.195 209.193 122.573 207.723L130.065 207.172C131.085 209.213 133.494 212.061 136.372 212.449C139.251 212.837 138.353 215.48 136.321 215.48Z" fill="#263238"/>
<path d="M112.162 105.438C112.162 105.438 101.955 120.615 107.487 133.087C113.019 145.56 140.996 139.926 140.996 139.926L122.563 207.76L131.381 209.219C131.381 209.219 162.644 141.988 163.44 130.526C164.237 119.063 130.483 111.704 130.483 111.704L112.162 105.438Z" fill="#009987"/>
<path opacity="0.3" d="M112.162 105.438C112.162 105.438 101.955 120.615 107.487 133.087C113.019 145.56 140.996 139.926 140.996 139.926L122.563 207.76L131.381 209.219C131.381 209.219 162.644 141.988 163.44 130.526C164.237 119.063 130.483 111.704 130.483 111.704L112.162 105.438Z" fill="white"/>
<path opacity="0.2" d="M143.291 70.5533C143.291 70.5533 129.002 80.6171 117.703 76.2895C117.703 75.8506 117.805 75.4219 117.846 75.0137C118.142 72.3293 118.326 69.992 118.448 68.0629C122.11 66.3899 125.911 65.0408 129.808 64.0312C133.82 67.0872 138.405 69.3052 143.291 70.5533Z" fill="black"/>
<path d="M123.392 62.1694C129.679 65.2315 136.171 69.0386 143.02 70.4369C146.959 70.1817 151.369 68.5792 155.329 67.4973L167.199 63.9046C167.708 63.7445 168.258 63.7797 168.741 64.0032C169.225 64.2267 169.609 64.6226 169.817 65.1134C170.024 65.6043 170.042 66.155 169.865 66.6581C169.689 67.1611 169.332 67.5804 168.863 67.8341C165.158 69.8755 161.422 71.7535 157.554 73.4682C152.777 75.4279 148.368 77.7142 142.979 78.2042C141.045 78.1816 139.122 77.9002 137.263 77.3672C130.988 75.5265 124.947 72.9681 119.258 69.7428C118.353 69.1506 117.703 68.2403 117.437 67.1918C117.171 66.1434 117.308 65.0333 117.822 64.0812C118.335 63.1291 119.187 62.4043 120.209 62.0503C121.231 61.6963 122.349 61.7388 123.341 62.1694H123.392Z" fill="#B97864"/>
<path d="M120.01 61.0397C114.509 62.3462 114.325 71.7874 119.378 76.2171L131.626 65.8777C131.626 65.8777 126.533 59.4883 120.01 61.0397Z" fill="#009987"/>
<path d="M167.511 63.9563L174.299 63.793L171.237 70.6621C171.237 70.6621 165.113 70.4477 165.409 67.3245L167.511 63.9563Z" fill="#B97964"/>
<path d="M180.129 67.151L175.475 72.1624L171.219 70.6621L174.301 63.793L180.129 67.151Z" fill="#B97964"/>
<path d="M271.262 146.594C276.008 156.413 280.581 166.231 283.674 176.744C285.092 183.889 285.358 191.156 285.888 198.25C286.256 204.119 286.47 209.977 286.552 215.867L281.295 216.418C279.632 208.14 278.07 198.903 276.621 190.554C275.927 186.778 275.396 183.062 274.447 179.429C270.834 170.069 265.822 160.434 261.668 151.228L271.262 146.594Z" fill="#DC897C"/>
<path d="M279.104 159.443L270.785 163.424L265.621 165.925L262.487 158.392L259.211 150.502L261.977 136.121C270.469 139.836 279.104 159.443 279.104 159.443Z" fill="#009987"/>
<path opacity="0.2" d="M270.782 163.426L265.618 165.926L262.484 158.394C263.127 154.127 263.668 150.504 263.668 150.504C263.668 150.504 269.711 155.924 270.782 163.426Z" fill="black"/>
<path d="M245.865 110.051C245.957 110.663 246.355 111.071 246.753 111.071C247.151 111.071 247.396 110.469 247.304 109.857C247.213 109.244 246.804 108.836 246.406 108.836C246.008 108.836 245.712 109.448 245.865 110.051Z" fill="#263238"/>
<path d="M246.242 111.109C247.254 112.857 248.501 114.457 249.947 115.866C249.58 116.231 249.138 116.511 248.652 116.688C248.165 116.864 247.646 116.932 247.13 116.886L246.242 111.109Z" fill="#DE5753"/>
<path d="M243.059 107.014C242.968 107.011 242.881 106.975 242.814 106.912C242.748 106.844 242.711 106.752 242.711 106.657C242.711 106.562 242.748 106.47 242.814 106.402C243.213 105.992 243.706 105.685 244.25 105.507C244.794 105.329 245.373 105.286 245.937 105.381C245.984 105.391 246.028 105.41 246.067 105.436C246.106 105.463 246.139 105.498 246.165 105.538C246.191 105.577 246.208 105.622 246.216 105.669C246.224 105.716 246.223 105.763 246.213 105.81C246.203 105.856 246.184 105.9 246.157 105.939C246.131 105.978 246.096 106.012 246.056 106.037C246.016 106.063 245.972 106.08 245.925 106.089C245.878 106.097 245.83 106.096 245.784 106.085C245.335 106.021 244.878 106.066 244.45 106.215C244.022 106.364 243.636 106.614 243.324 106.943C243.287 106.971 243.244 106.993 243.199 107.005C243.153 107.017 243.106 107.02 243.059 107.014Z" fill="#263238"/>
<path d="M247.764 119.269C247.568 121.733 246.518 124.051 244.794 125.822C243.654 126.992 242.256 127.876 240.711 128.404C239.232 128.918 237.649 129.055 236.104 128.804C234.559 128.552 233.101 127.921 231.862 126.965C227.493 123.719 226.922 119.3 225.309 111.9C224.912 110.185 224.96 108.396 225.449 106.704C225.938 105.013 226.851 103.474 228.101 102.235C229.352 100.995 230.899 100.096 232.595 99.6225C234.291 99.1491 236.08 99.1171 237.792 99.5296C245.59 101.377 248.325 112.308 247.764 119.269Z" fill="#E4897B"/>
<path d="M228.118 123.978C231.18 125.907 242.754 120.488 240.846 111.373C240.846 111.373 245.408 106.382 245.184 100.636C244.959 94.8893 241.101 92.4703 236.896 93.5522C233.16 94.4606 233.17 96.4917 233.17 96.4917C233.17 96.4917 215.656 97.7267 219.044 104.984C211.593 112.394 224.352 121.58 228.118 123.978Z" fill="#263238"/>
<path d="M237.704 112.794C238.117 114.632 239.125 116.282 240.572 117.489C242.48 119.061 244.032 117.673 244.001 115.448C244.001 113.406 242.98 110.171 240.766 109.466C238.551 108.762 237.275 110.579 237.704 112.794Z" fill="#E4897B"/>
<path opacity="0.2" d="M247.233 121.848C246.723 123.338 245.89 124.698 244.794 125.828C243.654 126.998 242.256 127.882 240.711 128.411C239.673 127.885 238.676 127.281 237.73 126.604L239.282 122.797C239.282 122.797 244.038 125.124 247.233 121.848Z" fill="black"/>
<path d="M230.603 133.316L229.297 124.365C229.297 124.365 235.125 120.282 241.229 123.028L250.415 134.102L230.603 133.316Z" fill="#E4897B"/>
<path d="M251.482 133.001L249.349 129.806C249.349 129.806 233.876 124.081 227.129 131.419C227.129 131.419 242.225 139.401 251.482 133.001Z" fill="#009987"/>
<path opacity="0.2" d="M251.482 133.001L249.349 129.806C249.349 129.806 233.876 124.081 227.129 131.419C227.129 131.419 242.225 139.401 251.482 133.001Z" fill="black"/>
<path d="M192.066 219.79L186.238 216.034L188.474 212.696L194.547 203.633L200.385 207.389L193.669 217.402L192.066 219.79Z" fill="#E4897B"/>
<path d="M186.67 215.55L194.835 215.469C194.968 215.472 195.096 215.518 195.199 215.601C195.302 215.684 195.375 215.799 195.407 215.928L196.774 221.858C196.824 222.113 196.775 222.378 196.637 222.598C196.498 222.818 196.281 222.977 196.029 223.042H195.815C193.182 223.042 191.273 222.879 187.976 222.909C185.935 222.909 179.811 223.205 177.014 223.226C174.218 223.246 173.809 220.49 174.973 220.225C180.076 219.051 183.975 217.459 185.608 215.959C185.9 215.697 186.278 215.552 186.67 215.55Z" fill="#263238"/>
<path d="M188.238 210.438L198.914 213.317L256.868 169.346L227.136 162.834C225.012 162.38 222.801 162.583 220.795 163.416C218.79 164.249 217.085 165.673 215.909 167.499L188.238 210.438Z" fill="#263238"/>
<path opacity="0.2" d="M188.238 210.438L198.914 213.317L256.868 169.346L227.136 162.834C225.012 162.38 222.801 162.583 220.795 163.416C218.79 164.249 217.085 165.673 215.909 167.499L188.238 210.438Z" fill="black"/>
<path d="M156.557 220.005L150.535 216.566L152.597 213.116L158.18 203.746L164.202 207.186L158.027 217.535L156.557 220.005Z" fill="#E4897B"/>
<path d="M150.771 215.41H158.936C159.069 215.412 159.198 215.458 159.301 215.541C159.405 215.624 159.478 215.74 159.508 215.87L160.824 221.82C160.871 222.077 160.817 222.341 160.675 222.559C160.532 222.778 160.312 222.933 160.059 222.994H159.844C157.221 222.994 155.302 222.79 152.006 222.79C149.964 222.79 143.84 223.004 141.044 223.004C138.247 223.004 137.869 220.228 139.002 219.942C144.106 218.82 148.035 217.268 149.689 215.788C149.992 215.537 150.376 215.402 150.771 215.41Z" fill="#263238"/>
<path d="M270.855 192.436L230.334 192.538C229.313 188.945 228.027 176.442 224.067 160.979C222.996 156.784 221.72 152.374 220.219 147.853C218.973 143.763 217.459 139.761 215.688 135.87C219.354 133.654 223.383 132.103 227.589 131.287C245.522 128.225 261.975 136.125 261.975 136.125C261.975 136.125 269.089 155.926 270.855 192.436Z" fill="#009987"/>
<path opacity="0.2" d="M224.063 160.976C222.991 156.781 221.715 152.372 220.215 147.85L223.042 146.707C223.042 146.707 227.492 156.74 224.063 160.976Z" fill="black"/>
<path d="M206.337 167.917L211.042 170.142L212.839 162.222C212.839 162.222 209.083 160.905 206.266 162.824L206.337 167.917Z" fill="#E4897B"/>
<path d="M217.786 172.823L218 165.607L212.835 162.219L211.039 170.139L217.786 172.823Z" fill="#E4897B"/>
<path d="M221.005 148.272C213.177 152.507 204.236 156.437 197.428 161.979C197.275 162.112 197.326 162.173 197.499 161.581C197.532 161.204 197.483 160.825 197.356 160.469C197.243 160.08 196.993 159.747 196.652 159.53C196.519 159.479 196.601 159.601 196.785 159.723C197.04 159.883 197.31 160.016 197.591 160.122C200.735 161.316 205.093 161.714 208.614 162.163L209.145 167.419C208.032 167.736 206.991 167.95 205.899 168.154C201.817 168.859 197.581 169.359 193.284 167.94C191.437 167.385 189.879 166.132 188.94 164.448C188 162.764 187.754 160.78 188.252 158.917C190.354 151.456 209.38 142.148 216.361 138.688L221.005 148.282V148.272Z" fill="#DC897C"/>
<path d="M228.422 183.91L226.605 188.564C226.605 188.564 204.896 161.741 192.923 160.21C180.951 158.679 153.117 209.651 153.117 209.651L163.671 212.846L193.372 185.9C205.62 207.273 220.267 222.95 237.68 222.95H254.684C273.699 222.95 273.913 201.741 270.157 183.756L228.422 183.91Z" fill="#263238"/>
<path d="M215.685 135.867C208.877 138.358 200.875 145.911 200.875 145.911C200.875 145.911 207.611 157.587 208.285 157.138C208.959 156.689 222.779 152.729 222.779 152.729C222.779 152.729 225.596 149.075 223.432 142.889C222.869 141.143 221.857 139.575 220.497 138.342C219.138 137.11 217.478 136.256 215.685 135.867Z" fill="#009987"/>
<path d="M284.051 212.348L291.45 212.715L287.541 219.941C287.541 219.941 280.958 219.217 281.479 215.859L284.051 212.348Z" fill="#E4897B"/>
<path d="M297.511 216.842L292.05 221.915L287.539 219.945L291.448 212.719L297.511 216.842Z" fill="#E4897B"/>
<path d="M54.7181 139.156C59.6785 144.157 64.5675 149.761 70.5078 153.547C70.5078 153.547 70.8753 153.741 70.9059 153.772C70.746 153.713 70.5762 153.685 70.4058 153.69C70.2527 153.69 70.4976 153.69 70.763 153.69C77.5402 151.771 83.8378 147.352 90.0741 143.953C90.5568 143.662 91.1296 143.559 91.6834 143.663C92.2372 143.767 92.7335 144.072 93.0776 144.518C93.4217 144.964 93.5898 145.521 93.5498 146.083C93.5097 146.645 93.2644 147.173 92.8605 147.566C88.0021 152.067 74.9069 164.101 68.0276 161.58C63.8224 160.039 60.3113 157.14 57.0044 154.354C53.7741 151.554 50.7295 148.547 47.8898 145.351C44.001 140.728 50.4925 134.838 54.7181 139.166V139.156Z" fill="#E9B376"/>
<path d="M63.2497 146.22C62.3821 152.712 57.1257 159.081 57.1257 159.081L56.0234 158.325L50.6546 154.763C50.6546 154.763 50.5526 154.457 50.3995 153.916C50.2464 153.375 50.0524 152.742 49.8177 151.875C48.5827 147.547 46.3576 139.453 46.082 136.095C52.747 135.942 55.7478 139.116 63.2497 146.22Z" fill="#009987"/>
<path opacity="0.7" d="M63.2497 146.22C62.3821 152.712 57.1257 159.081 57.1257 159.081L56.0234 158.325L50.6546 154.763C50.6546 154.763 50.5526 154.457 50.3995 153.916C50.2464 153.375 50.0524 152.742 49.8177 151.875C48.5827 147.547 46.3576 139.453 46.082 136.095C52.747 135.942 55.7478 139.116 63.2497 146.22Z" fill="white"/>
<path opacity="0.2" d="M56.0223 158.327L50.6536 154.765C50.6536 154.765 50.5515 154.459 50.3984 153.918C50.5976 152.275 50.8975 150.645 51.2966 149.039C52.7111 150.152 53.8664 151.559 54.6825 153.163C55.4985 154.767 55.9557 156.529 56.0223 158.327Z" fill="black"/>
<path d="M49.4931 178.23L54.076 186.253C66.324 183.395 105.701 177.394 110.529 190.897C116.541 207.667 73.1319 221.048 49.1155 221.864C25.0991 222.681 4.14477 216.965 19.3323 181.946L49.4931 178.23Z" fill="#263238"/>
<path opacity="0.2" d="M49.4931 178.23L54.076 186.253C66.324 183.395 105.701 177.394 110.529 190.897C116.541 207.667 73.1319 221.048 49.1155 221.864C25.0991 222.681 4.14477 216.965 19.3323 181.946L49.4931 178.23Z" fill="black"/>
<path d="M103.577 214.602C103.549 214.619 103.518 214.628 103.485 214.628C103.453 214.628 103.421 214.619 103.393 214.602C103.379 214.579 103.371 214.552 103.371 214.525C103.371 214.498 103.379 214.472 103.393 214.449C103.475 214.183 104.271 211.877 105.077 211.632C105.162 211.611 105.251 211.612 105.335 211.636C105.419 211.659 105.495 211.703 105.557 211.764C105.668 211.858 105.752 211.979 105.803 212.115C105.853 212.251 105.867 212.397 105.843 212.54C105.711 212.974 105.447 213.356 105.088 213.632C104.619 214.007 104.113 214.332 103.577 214.602ZM103.781 214.163C104.531 213.837 105.137 213.249 105.486 212.51C105.508 212.413 105.502 212.312 105.468 212.22C105.433 212.127 105.372 212.047 105.292 211.989C105.269 211.961 105.239 211.94 105.204 211.929C105.17 211.918 105.133 211.918 105.098 211.928C105.03 211.953 104.967 211.991 104.914 212.04C104.411 212.673 104.027 213.392 103.781 214.163Z" fill="#263238"/>
<path d="M103.532 214.63C103.511 214.647 103.486 214.656 103.46 214.656C103.434 214.656 103.409 214.647 103.389 214.63C103.307 214.569 102.205 213.171 102.368 212.221C102.388 212.104 102.431 211.991 102.496 211.891C102.561 211.791 102.646 211.705 102.746 211.64C102.832 211.562 102.941 211.513 103.057 211.502C103.173 211.491 103.289 211.518 103.389 211.578C103.97 211.997 103.899 213.865 103.613 214.579V214.651L103.532 214.63ZM102.909 211.895C102.807 211.977 102.738 212.093 102.715 212.221C102.746 212.929 103.007 213.606 103.46 214.15C103.634 213.354 103.583 212.038 103.236 211.803C103.236 211.803 103.134 211.721 102.96 211.803V211.854L102.909 211.895Z" fill="#263238"/>
<path d="M61.3528 218.542C61.3685 218.516 61.3914 218.496 61.4186 218.483C61.4458 218.47 61.4762 218.466 61.5059 218.47C61.5334 218.472 61.5594 218.483 61.5798 218.502C61.6001 218.52 61.6137 218.545 61.6182 218.572C61.6794 218.848 62.0979 221.257 61.5161 221.859C61.4506 221.918 61.3708 221.958 61.2848 221.976C61.1988 221.994 61.1096 221.989 61.0262 221.961C60.8825 221.937 60.7482 221.874 60.6382 221.779C60.5283 221.683 60.4471 221.559 60.4036 221.42C60.3027 220.982 60.3494 220.523 60.5363 220.114C60.7531 219.563 61.0267 219.036 61.3528 218.542ZM61.3528 219.032C60.8559 219.679 60.6062 220.483 60.6485 221.298C60.6766 221.396 60.7334 221.483 60.8116 221.549C60.8899 221.614 60.9859 221.655 61.0874 221.665C61.1161 221.684 61.1499 221.695 61.1844 221.695C61.219 221.695 61.2527 221.684 61.2814 221.665C61.3273 221.611 61.362 221.549 61.3834 221.481C61.5364 220.672 61.5364 219.841 61.3834 219.032H61.3528Z" fill="#263238"/>
<path d="M77.0676 206.383L67.1875 209.904L62.4414 211.598L63.656 216.794L68.249 215.814L79.4764 213.415L77.0676 206.383Z" fill="#EBB376"/>
<path d="M64.9548 217.039L64.1178 210.915C64.1066 210.834 64.0794 210.757 64.0377 210.686C63.9961 210.616 63.9408 210.555 63.8752 210.507C63.8096 210.458 63.735 210.423 63.6557 210.404C63.5764 210.385 63.4941 210.382 63.4136 210.395L60.3515 210.905C60.3515 210.905 56.2689 211.283 55.4217 212.344C53.0333 215.406 54.5235 229.022 56.1158 229.501C56.6975 229.675 57.31 228.879 57.5651 228.328C58.3714 226.572 59.7902 221.989 60.4842 220.54C61.2804 218.835 63.5462 218.009 64.4853 217.713C64.6331 217.679 64.7629 217.591 64.8496 217.466C64.9364 217.342 64.9738 217.19 64.9548 217.039Z" fill="#009987"/>
<path d="M61.3768 218.544C61.3992 218.528 61.4259 218.52 61.4533 218.52C61.4807 218.52 61.5075 218.528 61.5299 218.544C61.6217 218.544 63.2752 219.258 63.5712 220.167C63.6072 220.281 63.6203 220.401 63.6098 220.52C63.5993 220.639 63.5654 220.755 63.51 220.861C63.4774 220.974 63.4068 221.072 63.3101 221.139C63.2134 221.206 63.0965 221.237 62.9792 221.228C62.275 221.147 61.4278 219.473 61.3359 218.717V218.544C61.3494 218.541 61.3633 218.541 61.3768 218.544ZM63.2548 220.636C63.2954 220.51 63.2954 220.374 63.2548 220.248C63.0609 219.667 62.1423 219.156 61.6728 218.921C61.8973 219.707 62.5812 220.83 62.9996 220.871C62.9996 220.871 63.1221 220.871 63.214 220.697V220.636H63.2548Z" fill="#263238"/>
<path opacity="0.2" d="M77.0715 206.383L67.1914 209.904L68.2529 215.814L79.4803 213.415L77.0715 206.383Z" fill="black"/>
<path d="M70.009 216.707L72.8464 216.911L70.948 207.133L67.7227 208.909L70.009 216.707Z" fill="#009987"/>
<path opacity="0.6" d="M70.009 216.707L72.8464 216.911L70.948 207.133L67.7227 208.909L70.009 216.707Z" fill="white"/>
<path opacity="0.2" d="M28.7812 178.738L43.581 195.151C43.581 195.151 59.9117 194.783 79.8148 204.5C79.8148 204.5 101.137 195.692 103.096 188.373C105.668 178.789 54.1041 186.281 54.1041 186.281L28.7812 178.738Z" fill="black"/>
<path d="M49.3427 185.3L19.1615 181.799C19.7395 178.683 20.0807 175.527 20.1822 172.358C20.3031 167.844 20.1258 163.326 19.6514 158.834C19.2329 154.537 18.6307 149.597 17.6101 143.8C17.4059 142.763 17.4362 141.694 17.6989 140.67C17.9615 139.647 18.4499 138.695 19.128 137.885C19.8062 137.074 20.6571 136.426 21.6184 135.987C22.5796 135.549 23.6268 135.33 24.6833 135.349C25.8979 135.349 27.1738 135.41 28.4802 135.492C33.102 135.699 37.7033 136.234 42.249 137.094C43.7188 137.39 45.2396 137.758 46.6992 138.115C51.9352 139.472 55.1809 146.066 54.7318 151.383C54.5552 155.516 54.0983 159.632 53.3641 163.703C52.4353 169.704 51.3432 175.563 49.3427 185.3Z" fill="#009987"/>
<path opacity="0.7" d="M49.3427 185.3L19.1615 181.799C19.7395 178.683 20.0807 175.527 20.1822 172.358C20.3031 167.844 20.1258 163.326 19.6514 158.834C19.2329 154.537 18.6307 149.597 17.6101 143.8C17.4059 142.763 17.4362 141.694 17.6989 140.67C17.9615 139.647 18.4499 138.695 19.128 137.885C19.8062 137.074 20.6571 136.426 21.6184 135.987C22.5796 135.549 23.6268 135.33 24.6833 135.349C25.8979 135.349 27.1738 135.41 28.4802 135.492C33.102 135.699 37.7033 136.234 42.249 137.094C43.7188 137.39 45.2396 137.758 46.6992 138.115C51.9352 139.472 55.1809 146.066 54.7318 151.383C54.5552 155.516 54.0983 159.632 53.3641 163.703C52.4353 169.704 51.3432 175.563 49.3427 185.3Z" fill="white"/>
<path opacity="0.2" d="M20.2026 172.373C20.3235 167.858 20.1462 163.34 19.6719 158.849C23.4484 154.389 27.0207 150.684 27.0207 150.684C27.0207 150.684 32.9406 165.922 20.2026 172.373Z" fill="black"/>
<path d="M24.9643 149.029C25.3113 155.49 25.25 165.543 26.4238 171.718L26.1176 170.963C25.9135 170.667 26.036 170.963 26.2503 171.126C26.5264 171.4 26.8196 171.656 27.1281 171.892C31.2108 174.954 36.11 177.312 40.7132 179.751L46.5208 182.742C47.0243 182.994 47.4174 183.423 47.6254 183.946C47.8334 184.47 47.8418 185.051 47.649 185.58C47.4563 186.11 47.0757 186.55 46.5798 186.817C46.0838 187.083 45.5071 187.159 44.9592 187.028C42.7443 186.498 40.6213 185.865 38.4677 185.212C32.3437 183.17 26.0564 181.211 20.7897 177.22C19.7611 176.421 18.9618 175.365 18.4728 174.158C16.115 165.788 15.9313 157.705 15.7578 149.172C15.9722 143.221 24.5866 143.109 24.9438 149.059L24.9643 149.029Z" fill="#E9B376"/>
<path d="M54.6659 182.367L52.8287 181.03C52.4883 180.783 52.0937 180.622 51.678 180.56C51.2624 180.498 50.8379 180.537 50.4403 180.673L46.6638 181.938C45.9194 182.19 45.2459 182.616 44.6991 183.181C44.1524 183.745 43.7482 184.432 43.5202 185.184L43.2344 186.133C46.1331 188.542 51.0425 189.022 51.0425 189.022L52.4204 189.308C52.7026 189.376 52.9955 189.387 53.2822 189.341C53.5689 189.295 53.8436 189.193 54.0904 189.04C54.3372 188.887 54.5513 188.687 54.7201 188.451C54.889 188.215 55.0093 187.947 55.0741 187.664L55.6865 184.929C55.785 184.449 55.7408 183.951 55.5594 183.495C55.378 183.04 55.0674 182.648 54.6659 182.367Z" fill="#EBB376"/>
<path d="M22.2085 135.77C16.309 137.882 14.6147 143.026 14.4922 153.754C17.5542 156.54 26.8525 156.693 26.8525 156.693C26.8525 156.693 28.4652 140.424 22.2085 135.77Z" fill="#009987"/>
<path d="M93.6769 188.281V190.71C93.6769 191.333 92.942 191.588 92.3194 191.588H43.7763C43.1435 191.588 42.3984 191.333 42.3984 190.71V188.281H93.6769Z" fill="#263238"/>
<path opacity="0.4" d="M93.6769 188.281V190.71C93.6769 191.333 92.942 191.588 92.3194 191.588H43.7763C43.1435 191.588 42.3984 191.333 42.3984 190.71V188.281H93.6769Z" fill="white"/>
<path opacity="0.2" d="M93.6766 188.281V190.71C93.6766 191.333 92.9417 191.588 92.3191 191.588H60.27C59.6474 191.588 58.9023 191.333 58.9023 190.71V188.281H93.6766Z" fill="black"/>
<path d="M101.817 163.028L96.0296 189.27C95.9226 189.689 95.681 190.062 95.3418 190.332C95.0026 190.601 94.5845 190.751 94.1516 190.76H62.5108C62.3139 190.755 62.1209 190.704 61.9469 190.611C61.7729 190.519 61.6227 190.388 61.508 190.227C61.3934 190.067 61.3173 189.883 61.2859 189.688C61.2544 189.494 61.2685 189.295 61.3268 189.107L67.1038 163.069C67.2219 162.672 67.4729 162.327 67.8149 162.093C68.1568 161.859 68.5688 161.75 68.9819 161.783H100.623C101.47 161.783 101.96 162.171 101.817 163.028Z" fill="#263238"/>
<path opacity="0.4" d="M101.811 163.028L96.0238 189.27C95.9168 189.689 95.6751 190.062 95.336 190.332C94.9968 190.601 94.5787 190.751 94.1458 190.76H63.6073C63.4103 190.754 63.2172 190.703 63.0431 190.611C62.8689 190.519 62.7183 190.387 62.6028 190.228C62.4874 190.068 62.4103 189.884 62.3774 189.689C62.3445 189.495 62.3567 189.295 62.4132 189.107L68.2004 163.069C68.3184 162.672 68.5694 162.327 68.9114 162.093C69.2533 161.859 69.6653 161.75 70.0784 161.783H100.617C101.464 161.783 101.954 162.171 101.811 163.028Z" fill="white"/>
<path opacity="0.2" d="M86.2275 176.36C86.1265 177.424 85.6518 178.418 84.8876 179.166C84.1234 179.913 83.1191 180.365 82.0529 180.443C80.2872 180.443 79.2359 178.616 79.7462 176.36C80.2566 174.104 82.0019 172.359 83.7268 172.277C83.2267 174.523 84.3086 176.36 86.0642 176.36H86.2275Z" fill="black"/>
<path d="M91.2357 148.401L98.0334 148.575L94.9714 141.695C94.9714 141.695 88.9086 141.91 89.1434 145.033L91.2357 148.401Z" fill="#EBB376"/>
<path d="M103.864 145.229L99.2093 140.207L94.9531 141.697L98.0356 148.577L103.864 145.229Z" fill="#EBB376"/>
<path d="M26.9907 135.418C26.2967 135.367 28.4197 143.89 38.7285 145.992C49.0372 148.095 48.2411 138.613 47.4348 136.235C47.4348 136.235 33.8803 135.867 26.9907 135.418Z" fill="#EBB376"/>
<path d="M29.8126 102.095C29.8126 102.095 35.7223 95.5424 46.5312 98.9208C57.3401 102.299 56.8808 121.59 51.3896 128.592C42.7897 128.29 34.1867 129.093 25.7912 130.98C25.7912 130.98 20.5857 116.987 23.168 108.76C25.7503 100.533 29.8126 102.095 29.8126 102.095Z" fill="#263238"/>
<path d="M31.9906 121.336C32.6744 125.888 33.2052 134.135 29.9492 136.748C29.9492 136.748 34.1952 136.605 42.432 143.117C45.4226 139.728 43.6568 138.33 43.6568 138.33C38.7882 136.585 39.0638 132.91 40.0539 129.552L31.9906 121.336Z" fill="#EBB376"/>
<path opacity="0.2" d="M35.2968 124.691L40.1042 129.55C39.8616 130.336 39.6875 131.142 39.5836 131.959C37.7158 131.469 35.2152 129.091 35.1029 127.08C35.0236 126.278 35.0893 125.469 35.2968 124.691Z" fill="black"/>
<path d="M29.2396 112.046C29.7499 119.324 29.8214 122.406 33.4856 126.336C39.0074 132.174 47.775 130.418 49.357 123.274C50.837 116.823 49.7449 106.004 42.6818 102.809C41.192 102.072 39.5323 101.745 37.8741 101.864C36.2159 101.982 34.6193 102.54 33.2492 103.482C31.8791 104.423 30.7851 105.714 30.0803 107.219C29.3754 108.725 29.0852 110.391 29.2396 112.046Z" fill="#EBB376"/>
<path d="M38.2041 114.287C38.2041 114.909 38.5409 115.409 38.939 115.43C39.337 115.45 39.6228 114.96 39.6126 114.348C39.6024 113.736 39.2656 113.225 38.8777 113.215C38.4899 113.205 38.1837 113.674 38.2041 114.287Z" fill="#263238"/>
<path d="M45.8164 114.365C45.8164 114.977 46.1634 115.488 46.5513 115.508C46.9391 115.528 47.2351 115.038 47.2249 114.426C47.2147 113.814 46.8779 113.303 46.4901 113.293C46.1022 113.283 45.8164 113.752 45.8164 114.365Z" fill="#263238"/>
<path d="M46.2852 113.313L47.7039 112.945C47.7039 112.945 46.9996 114.068 46.2852 113.313Z" fill="#263238"/>
<path d="M43.5117 115.617C44.0825 117.039 44.8301 118.383 45.7368 119.618C45.4311 119.826 45.0823 119.963 44.7165 120.018C44.3507 120.073 43.9773 120.044 43.624 119.935L43.5117 115.617Z" fill="#D58745"/>
<path d="M36.9814 110.402C37.0274 110.409 37.0744 110.406 37.1188 110.392C37.1631 110.377 37.2035 110.353 37.2366 110.32C37.5552 110.025 37.9424 109.815 38.3631 109.708C38.7839 109.601 39.2246 109.601 39.6454 109.708C39.6882 109.722 39.7335 109.727 39.7784 109.722C39.8232 109.718 39.8666 109.704 39.906 109.682C39.9453 109.66 39.9796 109.63 40.0067 109.594C40.0339 109.558 40.0534 109.517 40.0638 109.473C40.0892 109.378 40.0768 109.278 40.0292 109.192C39.9816 109.106 39.9025 109.042 39.8087 109.014C39.276 108.871 38.7159 108.865 38.1804 108.997C37.645 109.129 37.1518 109.395 36.7467 109.769C36.6812 109.836 36.6445 109.926 36.6445 110.019C36.6445 110.113 36.6812 110.202 36.7467 110.269C36.8053 110.342 36.8892 110.389 36.9814 110.402Z" fill="#263238"/>
<path d="M48.7761 110.461C48.8583 110.492 48.9492 110.492 49.0313 110.461C49.0709 110.436 49.1051 110.403 49.1318 110.365C49.1585 110.327 49.1772 110.283 49.1867 110.238C49.1962 110.192 49.1964 110.145 49.1872 110.099C49.1781 110.053 49.1598 110.01 49.1334 109.971C48.8529 109.467 48.4603 109.035 47.9859 108.708C47.5116 108.38 46.9682 108.166 46.398 108.083C46.3525 108.08 46.307 108.086 46.2643 108.102C46.2215 108.118 46.1826 108.143 46.1499 108.174C46.1172 108.206 46.0916 108.244 46.0745 108.286C46.0575 108.329 46.0494 108.374 46.051 108.419C46.0526 108.515 46.0886 108.607 46.1523 108.678C46.216 108.749 46.3032 108.795 46.398 108.807C46.8491 108.876 47.2782 109.048 47.6518 109.31C48.0254 109.572 48.3334 109.917 48.5516 110.318C48.5778 110.355 48.6111 110.387 48.6496 110.412C48.6882 110.436 48.7312 110.453 48.7761 110.461Z" fill="#263238"/>
<path d="M38.6758 113.232L40.0945 112.875C40.0945 112.875 39.4209 113.988 38.6758 113.232Z" fill="#263238"/>
<path d="M30.758 116.413C30.758 116.413 36.3716 112.004 35.0958 105.104C35.0958 105.104 45.1392 101.134 49.0994 111.228C49.0994 111.228 49.9363 102.573 40.4951 100.879C31.0539 99.1845 19.8776 111.984 30.5742 121.69L30.758 116.413Z" fill="#263238"/>
<path d="M26.9256 117.921C27.2898 118.596 27.7838 119.193 28.3794 119.676C28.975 120.159 29.6603 120.52 30.3959 120.738C32.3045 121.258 33.1619 119.38 32.5495 117.441C31.9881 115.696 30.3244 113.358 28.4668 113.654C26.6092 113.95 25.9764 116.196 26.9256 117.921Z" fill="#EBB376"/>
<path d="M50.1956 115.517C50.1496 115.516 50.105 115.501 50.0682 115.474C50.0315 115.446 50.0046 115.408 49.9914 115.364C46.3885 102.677 34.4977 105.29 34.3752 105.31C34.3491 105.316 34.322 105.317 34.2955 105.312C34.2691 105.308 34.2437 105.298 34.221 105.284C34.1983 105.27 34.1785 105.251 34.163 105.23C34.1474 105.208 34.1363 105.183 34.1302 105.157C34.1242 105.131 34.1234 105.104 34.1278 105.077C34.1322 105.051 34.1418 105.025 34.156 105.003C34.1703 104.98 34.1888 104.96 34.2107 104.945C34.2325 104.929 34.2572 104.918 34.2833 104.912C34.4058 104.912 46.6845 102.187 50.3895 115.251C50.3973 115.277 50.3997 115.305 50.3967 115.332C50.3936 115.359 50.3852 115.385 50.3719 115.409C50.3586 115.433 50.3406 115.454 50.3191 115.47C50.2976 115.487 50.2729 115.499 50.2466 115.506L50.1956 115.517Z" fill="#263238"/>
<path d="M43.9825 122.051C43.6262 122.886 43.3328 123.745 43.1047 124.623H42.625C40.4714 124.389 39.563 123.603 39.1751 122.735C39.0013 122.323 38.9278 121.875 38.9608 121.429C38.9765 121.175 39.0245 120.925 39.1037 120.684C40.3736 121.419 41.787 121.871 43.2476 122.01C43.6967 122.031 43.9825 122.051 43.9825 122.051Z" fill="#263238"/>
<path d="M43.2439 121.968L42.9683 122.713C40.9269 122.498 39.5286 122.07 38.957 121.386C38.9727 121.132 39.0207 120.882 39.0999 120.641C40.3698 121.376 41.7832 121.828 43.2439 121.968Z" fill="white"/>
<path d="M42.6257 124.58C40.472 124.345 39.5636 123.559 39.1758 122.691C39.9939 122.797 40.7878 123.042 41.5233 123.416C42.0023 123.681 42.3875 124.087 42.6257 124.58Z" fill="#DE5753"/>
<path d="M42.2768 156.058C42.2444 156.061 42.2119 156.055 42.1818 156.043C42.1518 156.03 42.1249 156.011 42.1033 155.987C36.6799 150.172 32.5906 143.244 30.1206 135.686C30.105 135.624 30.1145 135.558 30.1469 135.502C30.1794 135.447 30.2322 135.407 30.2941 135.39C30.3243 135.382 30.3557 135.381 30.3864 135.385C30.4172 135.39 30.4467 135.401 30.4733 135.417C30.4999 135.433 30.523 135.454 30.5413 135.479C30.5596 135.505 30.5728 135.533 30.5799 135.563C32.984 142.914 36.938 149.663 42.1747 155.354C42.7871 153.313 45.3286 143.617 41.5011 136.186C41.4824 136.131 41.4841 136.071 41.5058 136.016C41.5275 135.962 41.5678 135.918 41.6195 135.891C41.6712 135.864 41.7308 135.856 41.7877 135.869C41.8446 135.882 41.895 135.915 41.9298 135.961C46.3085 144.464 42.5422 155.783 42.5014 155.895C42.4879 155.934 42.4651 155.97 42.4348 155.998C42.4046 156.027 42.3679 156.047 42.3278 156.058H42.2768Z" fill="#263238"/>
<path d="M42.5945 155.632L43.3702 156.653C43.4398 156.74 43.4777 156.848 43.4777 156.959C43.4777 157.07 43.4398 157.178 43.3702 157.265L42.5843 158.286C42.5373 158.342 42.4788 158.386 42.4126 158.417C42.3465 158.448 42.2745 158.464 42.2015 158.464C42.1286 158.464 42.0565 158.448 41.9904 158.417C41.9243 158.386 41.8657 158.342 41.8188 158.286L41.0839 157.449C41.0193 157.364 40.9844 157.26 40.9844 157.153C40.9844 157.046 41.0193 156.942 41.0839 156.857L41.7371 155.673C41.7799 155.599 41.8405 155.537 41.9135 155.492C41.9864 155.448 42.0694 155.423 42.1547 155.419C42.24 155.414 42.325 155.432 42.4018 155.469C42.4787 155.506 42.5449 155.562 42.5945 155.632Z" fill="white"/>
<path opacity="0.7" d="M22.2085 135.77C16.309 137.882 14.6147 143.026 14.4922 153.754C17.5542 156.54 26.8525 156.693 26.8525 156.693C26.8525 156.693 28.4652 140.424 22.2085 135.77Z" fill="white"/>
<path d="M83.9297 217.631L94.2793 219.335L99.25 220.152L100.699 215.018L96.2083 213.65L85.2259 210.312L83.9297 217.631Z" fill="#EBB376"/>
<path d="M99.6902 214.187L97.4549 219.943C97.4255 220.02 97.4118 220.103 97.4144 220.185C97.417 220.267 97.4359 220.348 97.4701 220.423C97.5043 220.498 97.553 220.566 97.6135 220.622C97.674 220.678 97.7449 220.721 97.8223 220.75L100.711 221.77C100.711 221.77 104.498 223.424 105.722 222.893C109.305 221.352 114.582 208.726 113.418 207.583C112.989 207.144 112.071 207.583 111.581 207.91C110.03 209.053 106.569 212.37 105.263 213.309C103.732 214.411 101.395 214.064 100.384 213.85C100.247 213.814 100.102 213.828 99.9748 213.89C99.8475 213.952 99.7465 214.057 99.6902 214.187Z" fill="#009987"/>
<path opacity="0.2" d="M83.9297 217.631L94.2793 219.335L96.2083 213.65L85.2259 210.312L83.9297 217.631Z" fill="black"/>
<path d="M94.4219 212.584C94.4219 212.584 52.2274 188.864 37.6522 189.538C23.077 190.211 20.9949 203.051 26.9964 211.084C32.9979 219.117 44.1028 221.076 44.1028 221.076C44.1028 221.076 36.5601 210.38 37.6522 207.399C38.7443 204.419 43.0107 208.583 43.0107 208.583C43.0107 208.583 69.5481 217.157 92.7888 219.127L94.4219 212.584Z" fill="#263238"/>
<path d="M95.1051 211.931L92.7167 210.328L89.6445 219.749H93.3292L95.1051 211.931Z" fill="#009987"/>
<path opacity="0.6" d="M95.1051 211.931L92.7167 210.328L89.6445 219.749H93.3292L95.1051 211.931Z" fill="white"/>
<defs>
<clipPath id="clip0_1814_3870">
<rect width="30.4615" height="24" fill="white" transform="translate(312 5)"/>
</clipPath>
</defs>
</svg>
