<svg width="565" height="352" viewBox="0 0 565 352" fill="none" xmlns="http://www.w3.org/2000/svg">
<path d="M282.024 351.717C437.782 351.717 564.049 342.067 564.049 330.163C564.049 318.259 437.782 308.609 282.024 308.609C126.267 308.609 0 318.259 0 330.163C0 342.067 126.267 351.717 282.024 351.717Z" fill="#F5F5F5"/>
<path d="M487.192 0H444.899C441.048 0 437.355 1.70591 434.632 4.74245C431.909 7.77898 430.379 11.8974 430.379 16.1917V35.7196C430.379 40.0139 431.909 44.1323 434.632 47.1689C437.355 50.2054 441.048 51.9113 444.899 51.9113H462.976L467.831 69.0113L472.734 51.9113H487.114C490.965 51.9113 494.658 50.2054 497.381 47.1689C500.104 44.1323 501.634 40.0139 501.634 35.7196V16.1917C501.634 11.9125 500.115 7.80724 497.409 4.7732C494.703 1.73916 491.029 0.023081 487.192 0V0Z" fill="#B5BCFF"/>
<g clip-path="url(#clip0_4212_40839)">
<path d="M481.399 10.7377C478.553 9.28479 475.541 8.25246 472.445 7.66797C472.059 8.42869 471.609 9.45186 471.298 10.2658C467.959 9.71819 464.651 9.71819 461.374 10.2658C461.063 9.45204 460.603 8.42869 460.213 7.66797C457.114 8.25273 454.1 9.28769 451.252 10.7453C445.585 20.0871 444.049 29.1967 444.817 38.1774C448.576 41.2393 452.218 43.0994 455.799 44.3166C456.689 42.9815 457.476 41.5679 458.151 40.0906C456.866 39.5566 455.626 38.8985 454.447 38.1241C454.758 37.8734 455.06 37.612 455.356 37.3405C462.497 40.9845 470.257 40.9845 477.313 37.3405C477.609 37.6102 477.912 37.8715 478.221 38.1241C477.04 38.9005 475.799 39.5599 474.51 40.0945C475.189 41.5778 475.975 42.9927 476.862 44.3203C480.447 43.1033 484.093 41.2432 487.851 38.1774C488.753 27.7667 486.312 18.7405 481.399 10.7375V10.7377ZM459.124 32.6545C456.98 32.6545 455.222 30.4711 455.222 27.8123C455.222 25.1536 456.943 22.9665 459.124 22.9665C461.306 22.9665 463.064 25.1497 463.026 27.8123C463.03 30.4711 461.306 32.6545 459.124 32.6545ZM473.544 32.6545C471.4 32.6545 469.642 30.4711 469.642 27.8123C469.642 25.1536 471.363 22.9665 473.544 22.9665C475.726 22.9665 477.484 25.1497 477.446 27.8123C477.446 30.4711 475.726 32.6545 473.544 32.6545V32.6545Z" fill="white"/>
</g>
<path d="M80.5669 56.2617H41.3666C39.5959 56.2617 37.8425 56.637 36.2066 57.3662C34.5706 58.0954 33.0842 59.1643 31.8321 60.5117C30.58 61.859 29.5868 63.4586 28.9092 65.2191C28.2316 66.9795 27.8828 68.8664 27.8828 70.7719V88.2718C27.8828 92.1201 29.3034 95.8109 31.8321 98.5321C34.3608 101.253 37.7905 102.782 41.3666 102.782H58.1522L62.6613 118.09L67.2141 102.782H80.5669C84.143 102.782 87.5727 101.253 90.1014 98.5321C92.6301 95.8109 94.0507 92.1201 94.0507 88.2718V70.7719C94.0507 68.8664 93.7019 66.9795 93.0243 65.2191C92.3466 63.4586 91.3534 61.859 90.1014 60.5117C88.8493 59.1643 87.3628 58.0954 85.7269 57.3662C84.091 56.637 82.3376 56.2617 80.5669 56.2617V56.2617Z" fill="#B5BCFF"/>
<path d="M45.6939 78.4624C45.6939 79.0413 45.5344 79.6072 45.2355 80.0886C44.9367 80.5699 44.5119 80.9451 44.0148 81.1667C43.5178 81.3882 42.9709 81.4462 42.4433 81.3333C41.9156 81.2203 41.431 80.9415 41.0506 80.5322C40.6702 80.1228 40.4111 79.6012 40.3062 79.0335C40.2012 78.4657 40.2551 77.8771 40.461 77.3422C40.6668 76.8074 41.0155 76.3502 41.4628 76.0286C41.9101 75.707 42.436 75.5353 42.9739 75.5353C43.6953 75.5353 44.3872 75.8437 44.8973 76.3926C45.4074 76.9416 45.6939 77.6861 45.6939 78.4624V78.4624ZM54.974 75.5353C54.4361 75.5353 53.9102 75.707 53.4629 76.0286C53.0156 76.3502 52.6669 76.8074 52.4611 77.3422C52.2552 77.8771 52.2013 78.4657 52.3063 79.0335C52.4112 79.6012 52.6703 80.1228 53.0507 80.5322C53.4311 80.9415 53.9158 81.2203 54.4434 81.3333C54.971 81.4462 55.5179 81.3882 56.0149 81.1667C56.512 80.9451 56.9368 80.5699 57.2357 80.0886C57.5345 79.6072 57.6941 79.0413 57.6941 78.4624C57.6826 77.6957 57.3905 76.9648 56.8812 76.4285C56.3719 75.8922 55.6866 75.5937 54.974 75.5979V75.5353ZM66.9741 75.5353C66.435 75.5291 65.9063 75.6955 65.4551 76.0133C65.004 76.3312 64.6509 76.7861 64.4405 77.3204C64.2302 77.8547 64.1722 78.4442 64.2738 79.014C64.3754 79.5839 64.6322 80.1083 65.0114 80.5208C65.3906 80.9333 65.8752 81.2152 66.4036 81.3307C66.932 81.4462 67.4804 81.3901 67.9791 81.1695C68.4778 80.949 68.9044 80.5738 69.2046 80.0918C69.5048 79.6098 69.665 79.0426 69.6651 78.4624C69.6537 77.7011 69.3656 76.9749 68.8626 76.4395C68.3596 75.904 67.6817 75.6019 66.9741 75.5979V75.5353ZM78.9743 75.5353C78.4363 75.5353 77.9104 75.707 77.4631 76.0286C77.0158 76.3502 76.6672 76.8074 76.4613 77.3422C76.2554 77.8771 76.2015 78.4657 76.3065 79.0335C76.4115 79.6012 76.6705 80.1228 77.0509 80.5322C77.4313 80.9415 77.916 81.2203 78.4436 81.3333C78.9712 81.4462 79.5181 81.3882 80.0152 81.1667C80.5122 80.9451 80.937 80.5699 81.2359 80.0886C81.5348 79.6072 81.6943 79.0413 81.6943 78.4624C81.6828 77.6957 81.3907 76.9648 80.8814 76.4285C80.3721 75.8922 79.6868 75.5937 78.9743 75.5979V75.5353Z" fill="white"/>
<path d="M519.119 332.342H334.507C300.019 332.342 297.808 288.64 326.157 268.072C331.34 264.363 337.077 261.642 343.118 260.026C399.249 244.139 478.115 137.339 533.665 182.028L533.825 182.153C589.156 227.155 550.48 332.342 519.119 332.342Z" fill="#263238"/>
<path opacity="0.5" d="M519.119 332.342H334.507C300.019 332.342 297.808 288.64 326.157 268.072C331.34 264.363 337.077 261.642 343.118 260.026C399.249 244.139 478.115 137.339 533.665 182.028L533.825 182.153C589.156 227.155 550.48 332.342 519.119 332.342Z" fill="white"/>
<path opacity="0.2" d="M533.521 181.95C528.867 181.621 523.223 183.03 517.143 188.508C501.361 202.752 525.361 271.327 487.616 299.847C466.554 315.766 375.687 322.778 345.36 303.259C322.974 288.843 322.683 279.78 326.16 268.072C331.342 264.363 337.079 261.641 343.12 260.026C399.178 244.06 478.045 137.261 533.521 181.95Z" fill="black"/>
<path d="M389.988 169.023L378.977 160.68L387.209 151.617C387.209 151.617 395.66 156.313 394.86 164.687L389.988 169.023Z" fill="#E4897B"/>
<path d="M374.656 151.474L382.293 146.309L387.209 151.615L378.976 160.678L374.656 151.474Z" fill="#E4897B"/>
<path d="M444.153 147.473C433.724 150.775 428.589 170.514 419.978 189.156L394.916 162.359L386.945 169.966C386.945 169.966 409.898 209.207 420.735 209.207C434.262 209.207 448.299 168.776 448.299 168.776L444.153 147.473Z" fill="#263238"/>
<path opacity="0.1" d="M448.301 168.776C448.301 168.776 446.076 175.178 442.483 182.864C439.065 190.346 434.41 199.065 429.392 204.34C426.556 207.298 423.574 209.176 420.665 209.176C409.828 209.176 386.875 169.935 386.875 169.935L394.846 162.327L419.908 189.125C428.519 170.482 433.639 150.744 444.098 147.441L448.301 168.776Z" fill="white"/>
<path opacity="0.2" d="M442.54 182.892C439.122 190.374 434.467 199.093 429.449 204.368C429.987 186.476 438.176 169.023 438.176 169.023C440.434 173.307 441.915 178.013 442.54 182.892V182.892Z" fill="black"/>
<path d="M434.179 256.516C434.179 256.516 345.67 242.835 340.986 263.732C336.055 285.834 407.125 300.735 449.598 302.301C492.071 303.866 504.26 292.909 497.438 236.559H439.256L434.179 256.516Z" fill="#B5BCFF"/>
<path opacity="0.6" d="M434.179 256.516C434.179 256.516 345.67 242.835 340.986 263.732C336.055 285.834 407.125 300.735 449.598 302.301C492.071 303.866 504.26 292.909 497.438 236.559H439.256L434.179 256.516Z" fill="white"/>
<path d="M384.88 300.092L366.335 300.107L357.433 300.123L356.371 290.027L364.604 288.837L384.721 285.957L384.88 300.092Z" fill="#E4897B"/>
<path d="M358.379 288.761L360.634 300.281C360.666 300.433 360.668 300.589 360.642 300.742C360.615 300.895 360.56 301.04 360.48 301.169C360.4 301.297 360.296 301.407 360.175 301.492C360.054 301.576 359.918 301.633 359.776 301.659L354.438 302.692C354.438 302.692 347.354 304.633 345.361 303.271C339.543 299.264 333.957 273.938 336.328 272.059C337.186 271.371 338.685 272.419 339.441 273.249C341.826 275.863 346.903 283.173 348.925 285.333C351.267 287.869 355.441 287.947 357.274 287.837C357.53 287.824 357.782 287.91 357.985 288.079C358.188 288.249 358.328 288.49 358.379 288.761V288.761Z" fill="#263238"/>
<path opacity="0.2" d="M384.882 300.092L366.336 300.107L364.605 288.837L384.722 285.957L384.882 300.092Z" fill="black"/>
<path d="M411.992 282.277L429.592 288.585L438.043 291.606L436.08 301.53L427.92 299.856L407.992 295.754L411.992 282.277Z" fill="#E4897B"/>
<path d="M433.812 302.044L435.048 290.351C435.066 290.198 435.112 290.05 435.183 289.916C435.254 289.782 435.349 289.664 435.463 289.57C435.576 289.475 435.706 289.406 435.845 289.365C435.983 289.325 436.128 289.314 436.27 289.334L441.637 290.179C441.637 290.179 448.91 290.743 450.365 292.715C454.728 298.491 452.576 324.428 449.783 325.398C448.75 325.758 447.645 324.255 447.165 323.222C445.71 319.92 443.005 311.248 441.725 308.524C440.27 305.315 436.299 303.828 434.539 303.296C434.3 303.214 434.095 303.043 433.962 302.813C433.829 302.584 433.776 302.312 433.812 302.044Z" fill="#263238"/>
<path opacity="0.2" d="M411.992 282.277L429.592 288.585L427.92 299.856L407.992 295.754L411.992 282.277Z" fill="black"/>
<path d="M424.866 301.603L419.848 302.119L422.844 283.43L428.604 286.701L424.866 301.603Z" fill="#B5BCFF"/>
<path opacity="0.6" d="M424.866 301.603L419.848 302.119L422.844 283.43L428.604 286.701L424.866 301.603Z" fill="white"/>
<path d="M441.67 308.385C441.801 309.232 441.684 310.101 441.336 310.874C441.195 311.105 440.999 311.292 440.77 311.416C440.54 311.54 440.283 311.596 440.027 311.578C439.872 311.585 439.717 311.549 439.58 311.472C439.442 311.395 439.325 311.28 439.241 311.14C438.485 309.762 440.259 305.52 440.478 305.051C440.491 304.998 440.523 304.953 440.566 304.924C440.609 304.895 440.66 304.884 440.71 304.894C440.766 304.899 440.818 304.923 440.86 304.963C440.902 305.002 440.931 305.055 440.943 305.113C441.288 306.175 441.531 307.271 441.67 308.385V308.385ZM439.576 310.42C439.586 310.558 439.626 310.692 439.692 310.811C439.719 310.871 439.764 310.92 439.819 310.951C439.874 310.982 439.936 310.993 439.998 310.983C440.174 311.006 440.352 310.973 440.512 310.89C440.672 310.807 440.806 310.676 440.899 310.514C441.323 309.025 441.246 307.423 440.681 305.99C440.069 307.383 439.694 308.884 439.576 310.42Z" fill="#B5BCFF"/>
<path d="M440.98 305.149V305.275C440.5 306.636 438.318 309.329 437.081 309.141C436.879 309.103 436.694 308.993 436.557 308.828C436.42 308.663 436.338 308.454 436.325 308.233C436.269 308.014 436.259 307.784 436.294 307.559C436.329 307.335 436.409 307.121 436.529 306.934C437.431 305.369 440.558 304.868 440.732 304.883C440.781 304.873 440.831 304.88 440.875 304.903C440.919 304.925 440.956 304.962 440.98 305.009C440.991 305.055 440.991 305.103 440.98 305.149V305.149ZM436.791 308.014V308.139C436.878 308.53 437.023 308.546 437.096 308.577C437.823 308.687 439.496 306.934 440.223 305.588C438.983 305.75 437.827 306.35 436.936 307.294C436.812 307.509 436.756 307.762 436.776 308.014H436.791Z" fill="#B5BCFF"/>
<path d="M368.02 287.38C368.02 287.38 450.362 252.944 475.584 258.704C500.806 264.465 500.922 278.662 488.137 291.904C475.351 305.146 456.253 300.044 456.253 300.044C456.253 300.044 471.264 290.37 470.217 284.391C469.169 278.411 459.628 292.076 459.628 292.076C459.628 292.076 409.867 305.178 368.776 301.718L368.02 287.38Z" fill="#B5BCFF"/>
<path d="M349.499 285.516C349.021 284.835 348.756 284.007 348.742 283.153C348.765 282.878 348.855 282.614 349.003 282.389C349.152 282.163 349.353 281.984 349.586 281.869C349.722 281.789 349.874 281.746 350.029 281.746C350.185 281.746 350.337 281.789 350.473 281.869C351.724 282.73 351.928 287.379 351.928 287.911C351.934 287.965 351.923 288.019 351.896 288.064C351.87 288.11 351.83 288.144 351.782 288.162C351.737 288.194 351.684 288.211 351.63 288.211C351.575 288.211 351.522 288.194 351.477 288.162C350.733 287.357 350.07 286.47 349.499 285.516V285.516ZM350.488 282.668C350.414 282.555 350.32 282.459 350.211 282.386C350.162 282.349 350.104 282.329 350.044 282.329C349.984 282.329 349.926 282.349 349.877 282.386C349.709 282.451 349.562 282.567 349.454 282.72C349.346 282.872 349.28 283.055 349.266 283.247C349.526 284.778 350.284 286.159 351.404 287.144C351.348 285.605 351.037 284.09 350.488 282.668V282.668Z" fill="#B5BCFF"/>
<path d="M351.467 288.043V287.902C351.321 286.462 352.092 282.987 353.285 282.533C353.482 282.467 353.694 282.474 353.887 282.554C354.079 282.633 354.242 282.78 354.347 282.972C354.621 283.319 354.757 283.769 354.725 284.224C354.58 286.055 352.02 288.043 351.816 288.137C351.775 288.167 351.727 288.182 351.678 288.182C351.628 288.182 351.58 288.167 351.54 288.137C351.508 288.113 351.483 288.08 351.467 288.043V288.043ZM353.969 283.425V283.316C353.736 283.018 353.59 283.081 353.518 283.097C352.82 283.347 352.063 285.726 352.063 287.292C352.776 286.65 354.158 285.304 354.245 284.161C354.26 283.907 354.199 283.655 354.07 283.441L353.969 283.425Z" fill="#B5BCFF"/>
<path opacity="0.7" d="M368.02 287.38C368.02 287.38 450.362 252.944 475.584 258.704C500.806 264.465 500.922 278.662 488.137 291.904C475.351 305.146 456.253 300.044 456.253 300.044C456.253 300.044 471.264 290.37 470.217 284.391C469.169 278.411 459.628 292.076 459.628 292.076C459.628 292.076 409.867 305.178 368.776 301.718L368.02 287.38Z" fill="white"/>
<path d="M367.016 287.11L371.641 284.824L374.303 303.467L367.874 302.34L367.016 287.11Z" fill="#B5BCFF"/>
<path opacity="0.6" d="M367.016 287.11L371.641 284.824L374.303 303.467L367.874 302.34L367.016 287.11Z" fill="white"/>
<path d="M503.278 150.47C494.391 203.69 497.62 238.126 497.62 238.126C497.62 238.126 456.267 237.516 439.277 236.483C430.215 171.977 444.15 147.465 444.15 147.465C448.593 146.507 453.086 145.843 457.605 145.477C458.55 145.399 459.525 145.352 460.514 145.305C468.528 145.299 476.537 145.785 484.5 146.76C485.954 146.933 487.54 147.152 489.023 147.387C496.602 148.623 503.278 150.47 503.278 150.47Z" fill="#263238"/>
<path opacity="0.1" d="M503.282 150.47C502.177 157.076 501.26 163.4 500.504 169.379C499.311 178.771 498.511 187.474 497.987 195.206C497.827 197.538 497.682 199.808 497.58 201.968C497.158 209.889 497.042 216.666 497.056 222.145C497.056 232.444 497.624 238.126 497.624 238.126C497.624 238.126 456.271 237.516 439.281 236.483C430.205 171.977 444.169 147.465 444.169 147.465C448.606 146.506 453.095 145.842 457.609 145.477C458.554 145.399 459.529 145.352 460.518 145.305C468.533 145.291 476.541 145.777 484.504 146.761C485.958 146.933 487.544 147.152 489.027 147.387C496.606 148.608 503.282 150.47 503.282 150.47Z" fill="white"/>
<path opacity="0.2" d="M466.355 209.204C476.952 207.85 487.408 205.428 497.585 201.973C497.163 209.893 497.047 216.671 497.061 222.149C477.323 224.106 469.265 220.02 469.265 220.02L466.355 209.204Z" fill="black"/>
<path opacity="0.2" d="M500.512 169.393C499.319 178.785 498.519 187.488 497.995 195.22C492.337 182.823 496.541 167.953 496.541 167.953L500.512 169.393Z" fill="black"/>
<path d="M468.59 231.057H438.51C437.926 231.047 437.366 230.803 436.94 230.371C436.515 229.94 436.255 229.352 436.212 228.725L432.023 185.758C431.994 185.47 432.022 185.178 432.106 184.902C432.19 184.626 432.327 184.373 432.508 184.158C432.69 183.944 432.911 183.773 433.159 183.658C433.406 183.542 433.673 183.485 433.943 183.488H464.023C464.596 183.501 465.145 183.739 465.565 184.157C465.986 184.575 466.25 185.145 466.307 185.758L470.51 228.725C470.548 229.018 470.527 229.317 470.447 229.6C470.368 229.884 470.232 230.145 470.049 230.367C469.867 230.589 469.642 230.765 469.39 230.884C469.138 231.003 468.866 231.063 468.59 231.057V231.057Z" fill="#263238"/>
<path opacity="0.6" d="M468.59 231.057H438.51C437.926 231.047 437.366 230.803 436.94 230.371C436.515 229.94 436.255 229.352 436.212 228.725L432.023 185.758C431.994 185.47 432.022 185.178 432.106 184.902C432.19 184.626 432.327 184.373 432.508 184.158C432.69 183.944 432.911 183.773 433.159 183.658C433.406 183.542 433.673 183.485 433.943 183.488H464.023C464.596 183.501 465.145 183.739 465.565 184.157C465.986 184.575 466.25 185.145 466.307 185.758L470.51 228.725C470.548 229.018 470.527 229.317 470.447 229.6C470.368 229.884 470.232 230.145 470.049 230.367C469.867 230.589 469.642 230.765 469.39 230.884C469.138 231.003 468.866 231.063 468.59 231.057V231.057Z" fill="white"/>
<path opacity="0.2" d="M467.339 231.057H438.51C437.926 231.047 437.366 230.803 436.94 230.371C436.515 229.94 436.255 229.352 436.212 228.725L432.023 185.758C431.994 185.47 432.022 185.178 432.106 184.902C432.19 184.626 432.327 184.373 432.508 184.158C432.69 183.944 432.911 183.773 433.159 183.658C433.406 183.542 433.673 183.485 433.943 183.488H462.772C463.345 183.501 463.893 183.739 464.314 184.157C464.735 184.575 464.999 185.145 465.056 185.758L469.259 228.725C469.297 229.018 469.276 229.317 469.196 229.6C469.116 229.884 468.981 230.145 468.798 230.367C468.616 230.589 468.391 230.765 468.139 230.884C467.887 231.003 467.614 231.063 467.339 231.057Z" fill="white"/>
<path d="M449.799 203.793C449.384 203.79 448.974 203.881 448.595 204.063C448.216 204.244 447.878 204.51 447.602 204.844C447.327 205.177 447.12 205.57 446.998 205.996C446.875 206.423 446.838 206.872 446.89 207.315C446.976 208.265 447.384 209.147 448.035 209.794C448.687 210.441 449.538 210.806 450.425 210.821C450.838 210.824 451.247 210.733 451.625 210.553C452.003 210.372 452.34 210.107 452.616 209.776C452.891 209.444 453.097 209.053 453.221 208.629C453.345 208.204 453.383 207.756 453.334 207.315C452.446 207.296 451.595 206.927 450.943 206.278C450.292 205.629 449.885 204.744 449.799 203.793Z" fill="#263238"/>
<path opacity="0.3" d="M456.311 186.967H440.413C440.022 186.961 439.641 186.838 439.312 186.611C438.983 186.384 438.719 186.063 438.551 185.683L437.605 183.555H458.58L458.027 185.683C457.919 186.075 457.69 186.416 457.378 186.649C457.066 186.882 456.69 186.995 456.311 186.967V186.967Z" fill="black"/>
<path d="M465.656 207.825L458.703 207.215L458.994 217.17L464.812 220.457L478.223 219.142L479.314 212.427C474.907 205.477 465.656 207.825 465.656 207.825Z" fill="#E4897B"/>
<path d="M503.276 150.461C510.418 152.778 520.542 197.419 518.928 207.281C517.313 217.142 499.698 221.368 477.312 220.821V209.175L503.276 201.02L498.913 183.801C498.913 183.801 495.305 171.138 496.92 162.279C497.806 157.708 500.035 153.565 503.276 150.461Z" fill="#263238"/>
<path opacity="0.1" d="M503.276 150.461C510.418 152.778 520.542 197.419 518.928 207.281C517.313 217.142 499.698 221.368 477.312 220.821V209.175L503.276 201.02L498.913 183.801C498.913 183.801 495.305 171.138 496.92 162.279C497.806 157.708 500.035 153.565 503.276 150.461Z" fill="white"/>
<path d="M481.044 146.256C477.422 150.326 471.735 153.738 462.615 153.378C455.619 153.081 454.644 148.354 455.866 145.755C460.113 144.816 462.033 142.828 462.63 140.292C463.226 137.757 462.397 134.344 461.175 131.182L472.971 120.492L474.964 118.676C474.964 119.286 474.891 119.928 474.862 120.601C474.725 123.082 474.725 125.57 474.862 128.052C475.255 135.049 476.797 142.64 481.044 146.256Z" fill="#E4897B"/>
<path opacity="0.2" d="M474.874 128.052C472.678 132.889 468.823 138.728 462.626 140.293C463.266 137.601 462.394 134.345 461.172 131.183L472.969 120.492C473.594 120.492 474.234 120.492 474.86 120.602C474.727 123.083 474.732 125.571 474.874 128.052V128.052Z" fill="black"/>
<path d="M447.85 99.231C446.119 103.489 445.901 112.63 451.923 110.36C457.945 108.091 450.759 91.9211 447.85 99.231Z" fill="#263238"/>
<path d="M476.695 108.672C476.171 120.068 476.418 126.783 471.124 132.653C463.153 141.481 450.003 136.284 447.327 124.92C444.941 114.667 446.192 97.7467 456.52 93.1761C458.81 92.1664 461.302 91.798 463.761 92.1052C466.22 92.4124 468.566 93.3853 470.581 94.9329C472.596 96.4805 474.214 98.5524 475.283 100.955C476.352 103.358 476.837 106.013 476.695 108.672V108.672Z" fill="#E4897B"/>
<path d="M460.641 111.894C460.641 112.817 460.205 113.584 459.637 113.584C459.07 113.584 458.605 112.833 458.59 111.894C458.576 110.954 459.041 110.219 459.594 110.219C460.147 110.219 460.627 110.97 460.641 111.894Z" fill="#263238"/>
<path d="M450.857 111.925C450.857 112.848 450.42 113.6 449.853 113.6C449.286 113.6 448.82 112.848 448.82 111.925C448.82 111.001 449.257 110.25 449.824 110.25C450.391 110.25 450.857 110.986 450.857 111.925Z" fill="#263238"/>
<path d="M453.973 112.375C452.944 115.125 451.563 117.706 449.871 120.045C450.472 120.47 451.148 120.755 451.857 120.882C452.566 121.008 453.292 120.974 453.987 120.781L453.973 112.375Z" fill="#DE5753"/>
<path d="M463.602 108.486C463.514 108.5 463.425 108.489 463.343 108.453C463.261 108.417 463.19 108.358 463.136 108.283C462.76 107.726 462.268 107.273 461.7 106.957C461.131 106.642 460.503 106.474 459.863 106.467C459.729 106.476 459.597 106.429 459.494 106.335C459.391 106.242 459.325 106.11 459.311 105.966C459.305 105.894 459.312 105.821 459.332 105.752C459.352 105.684 459.385 105.62 459.428 105.564C459.472 105.509 459.525 105.463 459.584 105.43C459.644 105.397 459.709 105.377 459.776 105.371C460.584 105.366 461.382 105.565 462.105 105.954C462.828 106.343 463.455 106.91 463.936 107.61C464.019 107.724 464.056 107.869 464.04 108.012C464.023 108.156 463.955 108.287 463.849 108.377C463.777 108.435 463.692 108.473 463.602 108.486V108.486Z" fill="#263238"/>
<path d="M446.612 108.335C446.517 108.365 446.416 108.365 446.321 108.335C446.261 108.303 446.207 108.259 446.162 108.205C446.118 108.151 446.084 108.088 446.062 108.019C446.041 107.951 446.032 107.879 446.036 107.807C446.041 107.735 446.058 107.664 446.088 107.599C446.41 106.803 446.907 106.103 447.535 105.558C448.163 105.013 448.904 104.639 449.695 104.469C449.762 104.46 449.83 104.466 449.895 104.486C449.96 104.505 450.02 104.539 450.073 104.584C450.126 104.629 450.17 104.685 450.202 104.748C450.235 104.812 450.255 104.882 450.263 104.954C450.273 105.024 450.27 105.096 450.254 105.164C450.239 105.233 450.21 105.298 450.171 105.355C450.132 105.412 450.082 105.459 450.026 105.495C449.969 105.532 449.906 105.555 449.841 105.565C449.216 105.691 448.631 105.981 448.136 106.41C447.641 106.839 447.252 107.393 447.005 108.022C446.967 108.104 446.911 108.175 446.843 108.229C446.775 108.284 446.696 108.32 446.612 108.335V108.335Z" fill="#263238"/>
<path d="M460.053 99.5289C460.053 99.5289 462.962 97.275 464.3 99.7012C465.638 102.127 465.551 108.592 465.551 108.592L466.133 107.449C466.133 107.449 469.9 121.85 475.354 118.218C480.809 114.587 488.824 99.9673 476.082 92.5165C476.082 92.5165 474.729 89.0416 466.307 87.3197C457.885 85.5979 447.703 91.2016 445.943 97.1967C444.183 103.192 446.642 106.588 446.642 106.588C446.912 105.283 447.465 104.066 448.256 103.035C448.369 103.646 448.621 104.217 448.989 104.698C449.357 105.179 449.83 105.554 450.365 105.79C450.279 104.565 450.516 103.339 451.049 102.253C451.327 103.318 451.824 104.302 452.503 105.133C453.114 98.9655 457.013 97.7132 458.234 97.7602C458.672 97.8122 459.083 98.011 459.409 98.3285C459.735 98.646 459.961 99.066 460.053 99.5289V99.5289Z" fill="#263238"/>
<path d="M480.896 118.111C480.507 119.467 479.872 120.726 479.028 121.817C478.185 122.908 477.148 123.808 475.98 124.466C472.838 126.203 470.54 123.339 470.802 119.77C471.034 116.53 472.94 111.724 476.387 111.489C477.141 111.453 477.892 111.617 478.573 111.968C479.254 112.319 479.843 112.845 480.289 113.5C480.736 114.156 481.025 114.919 481.13 115.724C481.236 116.528 481.156 117.348 480.896 118.111V118.111Z" fill="#E4897B"/>
<path d="M454.32 124.602C455.228 125.625 456.064 126.718 456.822 127.874L457.448 127.545C460.255 125.98 461.098 124.305 461.171 122.849C461.19 122.147 461.055 121.45 460.778 120.814C460.63 120.452 460.434 120.114 460.197 119.812C458.856 121.589 457.174 123.031 455.266 124.039C454.698 124.414 454.32 124.602 454.32 124.602Z" fill="#263238"/>
<path d="M455.27 124.082L456.04 125.021C458.673 123.581 460.404 122.172 460.782 120.857C460.634 120.495 460.438 120.157 460.2 119.855C458.86 121.632 457.178 123.074 455.27 124.082V124.082Z" fill="white"/>
<path d="M457.445 127.547C460.253 125.982 461.096 124.307 461.169 122.852C460.111 123.456 459.161 124.256 458.362 125.215C457.834 125.869 457.514 126.685 457.445 127.547Z" fill="#A24E3F"/>
<path d="M201.171 161.684L201.927 170.371C201.927 170.371 249.171 178.104 256.735 186.024C264.299 193.944 291.135 319.214 291.135 319.214L280.313 320.779C280.313 320.779 242.756 228.427 240.749 215.06C240.749 215.06 207.673 216.39 185.098 216.39C162.523 216.39 159.832 161.605 159.832 161.605L201.171 161.684Z" fill="#B5BCFF"/>
<path opacity="0.3" d="M291.135 319.234L280.313 320.799C280.313 320.799 264.953 283.029 253.36 252.302C246.8 234.974 241.461 219.885 240.749 215.064C240.749 215.064 217.854 215.972 197.112 216.285C192.923 216.285 188.836 216.379 185.039 216.379C162.464 216.379 159.773 161.594 159.773 161.594H201.112L201.868 170.281C201.868 170.281 249.127 177.998 256.676 185.934C264.225 193.87 291.135 319.234 291.135 319.234Z" fill="white"/>
<path d="M299.485 330.452C292.212 330.452 291.238 330.327 287.136 330.171C283.63 330.045 282.772 330.515 279.979 330.452C277.623 330.452 277.71 327.964 278.437 325.177C278.801 323.769 279.354 320.81 279.892 318.556L290.569 317.711C292.023 320.842 295.456 325.209 299.558 325.803C303.66 326.398 302.394 330.452 299.485 330.452Z" fill="#263238"/>
<path opacity="0.2" d="M253.371 252.366C246.811 235.039 241.472 219.949 240.76 215.128C240.76 215.128 217.865 216.036 197.123 216.349L194.883 173.789C194.883 173.789 224.09 178.297 243.727 196.501C246.214 198.755 251.058 233.614 253.371 252.366Z" fill="black"/>
<path d="M243.176 224.527H158.651V218.939C158.651 217.075 159.339 215.288 160.564 213.97C161.789 212.652 163.45 211.911 165.182 211.911H236.645C238.377 211.911 240.038 212.652 241.263 213.97C242.488 215.288 243.176 217.075 243.176 218.939V224.527V224.527Z" fill="#263238"/>
<path opacity="0.2" d="M243.176 224.527H158.651V218.939C158.651 217.075 159.339 215.288 160.564 213.97C161.789 212.652 163.45 211.911 165.182 211.911H236.645C238.377 211.911 240.038 212.652 241.263 213.97C242.488 215.288 243.176 217.075 243.176 218.939V224.527V224.527Z" fill="white"/>
<path d="M240.25 306.322L207.668 303.269V257.219H196.22V303.254L163.522 306.384C162.132 306.532 160.842 307.231 159.904 308.344C158.966 309.458 158.446 310.907 158.445 312.411V317.107H245.341V312.411C245.354 310.894 244.839 309.427 243.896 308.3C242.954 307.173 241.653 306.467 240.25 306.322V306.322Z" fill="#263238"/>
<path d="M168.962 322.823C168.962 324.417 168.523 325.976 167.7 327.302C166.877 328.627 165.707 329.66 164.338 330.271C162.969 330.881 161.463 331.04 160.01 330.729C158.557 330.418 157.222 329.65 156.175 328.523C155.127 327.396 154.413 325.959 154.124 324.396C153.835 322.832 153.984 321.211 154.551 319.738C155.118 318.265 156.078 317.006 157.31 316.12C158.542 315.234 159.99 314.762 161.471 314.762C163.458 314.762 165.364 315.611 166.768 317.123C168.173 318.635 168.962 320.685 168.962 322.823V322.823Z" fill="#263238"/>
<path d="M242.268 330.884C246.405 330.884 249.759 327.275 249.759 322.823C249.759 318.371 246.405 314.762 242.268 314.762C238.131 314.762 234.777 318.371 234.777 322.823C234.777 327.275 238.131 330.884 242.268 330.884Z" fill="#263238"/>
<path d="M194.234 221.531H209.638V260.804C209.638 262.344 209.07 263.821 208.058 264.911C207.046 266 205.673 266.611 204.242 266.611H199.645C198.214 266.611 196.842 266 195.829 264.911C194.817 263.821 194.249 262.344 194.249 260.804V221.531H194.234Z" fill="#263238"/>
<path opacity="0.2" d="M194.234 221.531H209.638V260.804C209.638 262.344 209.07 263.821 208.058 264.911C207.046 266 205.673 266.611 204.242 266.611H199.645C198.214 266.611 196.842 266 195.829 264.911C194.817 263.821 194.249 262.344 194.249 260.804V221.531H194.234Z" fill="white"/>
<path d="M158.059 225.992H243.762C245.216 225.992 246.395 224.724 246.395 223.159V222.517C246.395 220.953 245.216 219.684 243.762 219.684H158.059C156.605 219.684 155.426 220.953 155.426 222.517V223.159C155.426 224.724 156.605 225.992 158.059 225.992Z" fill="#263238"/>
<path opacity="0.2" d="M168.962 322.823C168.962 324.417 168.523 325.976 167.7 327.302C166.877 328.627 165.707 329.66 164.338 330.271C162.969 330.881 161.463 331.04 160.01 330.729C158.557 330.418 157.222 329.65 156.175 328.523C155.127 327.396 154.413 325.959 154.124 324.396C153.835 322.832 153.984 321.211 154.551 319.738C155.118 318.265 156.078 317.006 157.31 316.12C158.542 315.234 159.99 314.762 161.471 314.762C163.458 314.762 165.364 315.611 166.768 317.123C168.173 318.635 168.962 320.685 168.962 322.823V322.823Z" fill="white"/>
<path opacity="0.2" d="M242.268 330.884C246.405 330.884 249.759 327.275 249.759 322.823C249.759 318.371 246.405 314.762 242.268 314.762C238.131 314.762 234.777 318.371 234.777 322.823C234.777 327.275 238.131 330.884 242.268 330.884Z" fill="white"/>
<path d="M250.357 147.1H224.248C216.597 147.1 211.07 139.696 211.913 130.586L213.019 118.408C213.862 109.283 220.728 101.879 228.379 101.879H254.488C262.139 101.879 267.666 109.283 266.837 118.408L265.717 130.586C264.888 139.696 258.008 147.1 250.357 147.1Z" fill="#263238"/>
<path opacity="0.2" d="M250.357 147.1H224.248C216.597 147.1 211.07 139.696 211.913 130.586L213.019 118.408C213.862 109.283 220.728 101.879 228.379 101.879H254.488C262.139 101.879 267.666 109.283 266.837 118.408L265.717 130.586C264.888 139.696 258.008 147.1 250.357 147.1Z" fill="white"/>
<path d="M247.971 141.169H232.582C228.058 141.169 224.785 136.801 225.309 131.401L225.978 124.217C226.458 118.816 230.531 114.449 235.054 114.449H250.473C254.996 114.449 258.269 118.816 257.746 124.217L257.076 131.401C256.553 136.801 252.495 141.169 247.971 141.169Z" fill="#263238"/>
<path d="M235.721 130.43C235.721 130.43 232.201 206.581 216.957 219.651H233.263C233.263 219.651 247.808 193.714 248.87 130.43H235.721Z" fill="#263238"/>
<path d="M248.843 98.7095L251.65 97.1442C252.177 96.8543 252.76 96.7031 253.352 96.7031C253.944 96.7031 254.527 96.8543 255.054 97.1442L260.087 99.8052C261.078 100.329 261.937 101.102 262.593 102.058C263.248 103.014 263.681 104.126 263.854 105.299L264.087 106.786C259.592 109.823 252.668 109.541 252.668 109.541L250.676 109.713C250.269 109.759 249.859 109.717 249.467 109.59C249.076 109.463 248.712 109.253 248.397 108.974C248.082 108.694 247.821 108.35 247.63 107.961C247.44 107.572 247.323 107.146 247.287 106.708L246.938 102.482C246.871 101.72 247.017 100.955 247.356 100.283C247.696 99.6115 248.213 99.0636 248.843 98.7095Z" fill="#B97964"/>
<path opacity="0.2" d="M248.843 98.7095L251.65 97.1442C252.177 96.8543 252.76 96.7031 253.352 96.7031C253.944 96.7031 254.527 96.8543 255.054 97.1442L260.087 99.8052C261.078 100.329 261.937 101.102 262.593 102.058C263.248 103.014 263.681 104.126 263.854 105.299L264.087 106.786C259.592 109.823 252.668 109.541 252.668 109.541L250.676 109.713C250.269 109.759 249.859 109.717 249.467 109.59C249.076 109.463 248.712 109.253 248.397 108.974C248.082 108.694 247.821 108.35 247.63 107.961C247.44 107.572 247.323 107.146 247.287 106.708L246.938 102.482C246.871 101.72 247.017 100.955 247.356 100.283C247.696 99.6115 248.213 99.0636 248.843 98.7095Z" fill="black"/>
<path d="M228.217 102.432L218.035 116.284H208.348L209.613 96.9531C216.944 98.4715 228.217 102.432 228.217 102.432Z" fill="#B5BCFF"/>
<path opacity="0.2" d="M217.175 116.286H208.797L214.004 102.434C214.004 102.434 216.986 107.302 217.175 116.286Z" fill="black"/>
<path d="M201.797 166.921L159.164 162.663C160.502 157.779 161.68 152.99 162.67 148.372C163.92 142.721 164.91 137.305 165.695 132.25C166.48 127.194 167.15 122.498 167.615 118.24L167.746 117.035C167.746 116.362 167.891 115.705 167.95 115.078C168.371 110.962 168.633 107.377 168.808 104.419C169.171 98.6429 169.171 95.3089 169.171 95.3089C183.778 92.2988 198.853 93.2619 213.026 98.1107C219.368 117.332 201.797 166.921 201.797 166.921Z" fill="#B5BCFF"/>
<path d="M201.655 101.183C201.007 102.627 200.017 103.861 198.784 104.761C197.552 105.662 196.12 106.196 194.634 106.31C193.148 106.425 191.66 106.115 190.321 105.413C188.982 104.71 187.839 103.64 187.007 102.31L185.16 99.3515L182.891 95.673C186.702 93.2468 188.2 85.483 188.709 78.8149C188.869 76.7174 188.927 74.7452 188.927 73.0703L198.498 87.1579C197.829 88.6498 197.34 90.2279 197.044 91.8537C196.922 92.5237 196.874 93.2065 196.898 93.8886C196.913 96.6278 198.178 99.1636 201.655 101.183Z" fill="#B97964"/>
<path opacity="0.2" d="M198.469 87.2361C197.8 88.728 197.311 90.3062 197.014 91.932C194.498 95.4069 190.585 99.0853 185.189 99.3201L182.891 95.673C186.702 93.2468 188.2 85.483 188.709 78.8149C188.869 76.7174 188.927 74.7452 188.927 73.0703L198.469 87.2361Z" fill="black"/>
<path d="M175.472 63.7032C175.472 63.7032 170.744 61.7935 172.141 58.2716C173.537 54.7497 175.224 54.7811 175.224 54.7811C174.51 53.3411 174.122 51.7398 174.091 50.1077C174.061 48.4756 174.39 46.8589 175.05 45.3894C177.392 40.6935 182.57 42.6031 182.57 42.6031C182.591 41.1281 183.077 39.7044 183.949 38.5665C184.822 37.4285 186.028 36.644 187.37 36.342C188.74 36.0981 190.146 36.3422 191.375 37.0373C192.603 37.7324 193.587 38.8403 194.177 40.1926C194.177 40.1926 197.436 35.6376 202.207 36.8898C206.978 38.1421 207.938 45.2954 207.938 45.2954C209.241 44.8382 210.657 44.9393 211.893 45.5778C213.128 46.2164 214.087 47.3431 214.57 48.7234C215.219 50.1642 215.49 51.7681 215.354 53.3624C215.218 54.9568 214.681 56.4809 213.799 57.7707C213.799 57.7707 216.839 56.2055 217.843 61.4805C218.847 66.7555 213.727 71.3887 213.727 71.3887C213.727 71.3887 216.49 71.7487 215.065 75.6463C213.639 79.5439 209.145 79.6065 209.145 79.6065C209.145 79.6065 210.89 80.5613 207.588 83.7701C204.287 86.9789 193.654 82.3927 193.654 82.3927L175.472 63.7032Z" fill="#263238"/>
<path d="M188.476 55.3439C178.294 55.9074 175.385 61.9494 175.137 73.2664C174.89 87.354 178.279 97.2309 190.832 93.5055C207.85 88.4497 205.349 54.3891 188.476 55.3439Z" fill="#B97964"/>
<path d="M181.672 72.2852C180.939 73.9628 180.021 75.5395 178.938 76.981C179.258 77.4171 179.685 77.75 180.169 77.9432C180.654 78.1364 181.179 78.1826 181.687 78.0767L181.672 72.2852Z" fill="#A24E3F"/>
<path d="M187.845 71.0225C187.845 71.9303 188.34 72.5878 188.892 72.5878C189.445 72.5878 189.882 71.8364 189.867 70.9286C189.852 70.0207 189.372 69.3633 188.805 69.3633C188.238 69.3633 187.816 70.1303 187.845 71.0225Z" fill="#263238"/>
<path d="M189.04 69.4192L187.207 68.6992C187.207 68.6992 188.152 70.3271 189.04 69.4192Z" fill="#263238"/>
<path d="M177.446 71.1709C177.446 72.0788 177.94 72.7362 178.508 72.7362C179.075 72.7362 179.497 71.9849 179.468 71.077C179.438 70.1691 178.973 69.5117 178.42 69.5117C177.868 69.5117 177.431 70.2787 177.446 71.1709Z" fill="#263238"/>
<path d="M178.664 69.5325L176.816 68.8281C176.816 68.8281 177.776 70.4404 178.664 69.5325Z" fill="#263238"/>
<path d="M192.066 65.345C192.005 65.3463 191.945 65.3329 191.889 65.3058C191.834 65.2787 191.785 65.2386 191.746 65.1885C191.197 64.6611 190.544 64.2745 189.836 64.0576C189.128 63.8407 188.384 63.7992 187.659 63.9363C187.602 63.9476 187.544 63.9469 187.488 63.9341C187.432 63.9214 187.379 63.8968 187.332 63.8619C187.284 63.8271 187.244 63.7825 187.213 63.7308C187.182 63.6791 187.16 63.6213 187.15 63.5606C187.132 63.4405 187.159 63.318 187.224 63.2188C187.289 63.1195 187.388 63.0513 187.499 63.0284C188.37 62.857 189.267 62.9094 190.116 63.1814C190.966 63.4534 191.743 63.9373 192.386 64.5937C192.466 64.6815 192.511 64.7995 192.511 64.9224C192.511 65.0453 192.466 65.1633 192.386 65.2511C192.294 65.325 192.18 65.3586 192.066 65.345V65.345Z" fill="#263238"/>
<path d="M176.171 65.0134C176.105 65.0131 176.039 64.9975 175.979 64.9678C175.919 64.9381 175.865 64.895 175.822 64.8412C175.752 64.7416 175.722 64.6163 175.739 64.493C175.755 64.3697 175.816 64.2585 175.909 64.1838C176.506 63.6441 177.208 63.2556 177.963 63.047C178.719 62.8384 179.508 62.815 180.273 62.9785C180.328 62.9963 180.38 63.026 180.425 63.0658C180.47 63.1055 180.507 63.1545 180.535 63.21C180.562 63.2654 180.578 63.3261 180.583 63.3885C180.588 63.4509 180.581 63.5137 180.564 63.5733C180.527 63.6881 180.45 63.7832 180.35 63.8387C180.25 63.8941 180.133 63.9056 180.025 63.8707V63.8707C179.386 63.7469 178.729 63.7782 178.103 63.9623C177.476 64.1465 176.896 64.4788 176.403 64.9351C176.334 64.9837 176.254 65.0108 176.171 65.0134V65.0134Z" fill="#263238"/>
<path d="M200.48 73.1357C200.48 73.1357 195.288 64.4171 195.68 57.4829C195.68 57.4829 175.113 49.766 175.186 71.8052C175.186 71.8052 172.277 52.3957 189.731 50.9713C207.186 49.5469 208.437 77.049 199.811 85.752C199.797 85.7206 203.695 78.5829 200.48 73.1357Z" fill="#263238"/>
<path d="M198.934 75.553C198.947 74.9205 199.076 74.2971 199.314 73.7185C199.551 73.1398 199.893 72.6174 200.318 72.1811C200.744 71.7448 201.246 71.4033 201.794 71.1761C202.343 70.9489 202.928 70.8405 203.516 70.8571C206.687 71.0606 208.519 77.9322 200.766 80.0454C199.661 80.3741 198.963 79.2314 198.934 75.553Z" fill="#B97964"/>
<path d="M184.128 84.4426C183.837 84.465 183.545 84.465 183.255 84.4426C183.199 84.4313 183.145 84.4082 183.097 84.3746C183.049 84.3409 183.007 84.2974 182.975 84.2465C182.943 84.1956 182.92 84.1384 182.908 84.078C182.896 84.0177 182.895 83.9554 182.906 83.8948C182.915 83.8348 182.934 83.7772 182.964 83.7256C182.994 83.674 183.033 83.6294 183.079 83.5944C183.125 83.5593 183.178 83.5347 183.233 83.5217C183.288 83.5088 183.345 83.5079 183.4 83.5191C184.496 83.7264 185.625 83.5303 186.604 82.9622C187.583 82.3942 188.356 81.4874 188.797 80.3885C188.818 80.331 188.849 80.2784 188.889 80.2339C188.929 80.1894 188.977 80.1538 189.029 80.1291C189.082 80.1044 189.139 80.0911 189.196 80.0899C189.253 80.0888 189.311 80.0998 189.364 80.1225C189.418 80.1451 189.466 80.1788 189.508 80.2217C189.549 80.2646 189.582 80.3159 189.605 80.3726C189.628 80.4293 189.64 80.4903 189.642 80.5521C189.643 80.6139 189.632 80.6754 189.611 80.7329C189.165 81.885 188.399 82.8602 187.417 83.5245C186.435 84.1888 185.286 84.5095 184.128 84.4426V84.4426Z" fill="#263238"/>
<path d="M204.214 69.1498C201.784 55.5788 183.137 44.1835 176.141 59.9616C177.314 56.0072 179.582 52.5335 182.642 50.0064C182.642 50.0064 201.552 44.1991 204.883 67.381L204.214 69.1498Z" fill="#B5BCFF"/>
<path d="M194.274 330.452C187.001 330.452 186.027 330.327 181.925 330.171C178.419 330.045 177.561 330.515 174.768 330.452C172.412 330.452 172.499 327.964 173.227 325.177C173.59 323.769 174.143 320.81 174.681 318.556L185.358 317.711C186.812 320.842 190.245 325.209 194.347 325.803C198.449 326.398 197.169 330.452 194.274 330.452Z" fill="#263238"/>
<path d="M159.848 161.691C159.848 161.691 145.302 184.967 153.186 204.095C161.07 223.223 200.939 214.582 200.939 214.582L174.67 318.611L187.237 320.85C187.237 320.85 231.79 217.744 232.925 200.166C234.059 182.588 185.957 171.302 185.957 171.302L159.848 161.691Z" fill="#B5BCFF"/>
<path opacity="0.3" d="M159.848 161.691C159.848 161.691 145.302 184.967 153.186 204.095C161.07 223.223 200.939 214.582 200.939 214.582L174.67 318.611L187.237 320.85C187.237 320.85 231.79 217.744 232.925 200.166C234.059 182.588 185.957 171.302 185.957 171.302L159.848 161.691Z" fill="white"/>
<path opacity="0.2" d="M204.216 108.198C204.216 108.198 183.852 123.631 167.75 116.994C167.75 116.321 167.895 115.664 167.954 115.038C168.375 110.921 168.637 107.337 168.812 104.378C174.03 101.813 179.447 99.7436 185.001 98.1953C190.718 102.882 197.253 106.283 204.216 108.198Z" fill="black"/>
<path d="M175.855 95.3326C184.815 100.028 194.066 105.867 203.826 108.011C209.441 107.62 215.724 105.163 221.368 103.503L238.285 97.9935C239.009 97.7481 239.793 97.802 240.483 98.1448C241.172 98.4876 241.718 99.0946 242.015 99.8474C242.311 100.6 242.336 101.445 242.084 102.216C241.833 102.988 241.324 103.631 240.656 104.02C235.376 107.15 230.052 110.031 224.539 112.66C217.732 115.666 211.448 119.172 203.768 119.923C201.012 119.889 198.272 119.457 195.622 118.64C186.68 115.817 178.07 111.893 169.964 106.947C168.674 106.039 167.748 104.643 167.369 103.035C166.99 101.427 167.185 99.7245 167.917 98.2644C168.648 96.8043 169.862 95.6928 171.319 95.1498C172.775 94.6069 174.368 94.6721 175.782 95.3326H175.855Z" fill="#B97864"/>
<path d="M171.033 93.6029C163.193 95.6065 162.931 110.085 170.131 116.879L187.586 101.022C187.586 101.022 180.328 91.2237 171.033 93.6029Z" fill="#B5BCFF"/>
<path d="M238.726 98.0747L248.399 97.8242L244.035 108.359C244.035 108.359 235.308 108.03 235.73 103.24L238.726 98.0747Z" fill="#B97964"/>
<path d="M256.714 102.974L250.081 110.66L244.016 108.359L248.408 97.8242L256.714 102.974Z" fill="#B97964"/>
<path d="M386.583 224.812C393.347 239.871 399.863 254.929 404.27 271.051C406.292 282.008 406.67 293.153 407.427 304.032C407.95 313.032 408.256 322.017 408.372 331.048L400.881 331.894C398.51 319.199 396.285 305.033 394.219 292.229C393.23 286.438 392.474 280.74 391.121 275.168C385.972 260.814 378.83 246.038 372.91 231.919L386.583 224.812V224.812Z" fill="#DC897C"/>
<path d="M397.752 244.517L385.897 250.621L378.537 254.456L374.071 242.905L369.402 230.805L373.344 208.75C385.446 214.448 397.752 244.517 397.752 244.517Z" fill="#B5BCFF"/>
<path opacity="0.2" d="M385.892 250.621L378.532 254.456L374.066 242.904C374.983 236.361 375.754 230.805 375.754 230.805C375.754 230.805 384.365 239.116 385.892 250.621Z" fill="black"/>
<path d="M350.387 168.761C350.518 169.7 351.085 170.326 351.652 170.326C352.22 170.326 352.569 169.403 352.438 168.464C352.307 167.525 351.725 166.898 351.158 166.898C350.59 166.898 350.168 167.838 350.387 168.761Z" fill="#263238"/>
<path d="M350.922 170.387C352.364 173.066 354.14 175.521 356.202 177.681C355.679 178.241 355.049 178.671 354.355 178.941C353.662 179.212 352.922 179.316 352.187 179.246L350.922 170.387Z" fill="#DE5753"/>
<path d="M346.387 164.107C346.256 164.102 346.132 164.046 346.038 163.95C345.943 163.845 345.891 163.705 345.891 163.559C345.891 163.413 345.943 163.273 346.038 163.168C346.607 162.539 347.309 162.069 348.084 161.796C348.859 161.523 349.684 161.457 350.488 161.602C350.555 161.617 350.617 161.646 350.673 161.687C350.729 161.729 350.776 161.781 350.813 161.843C350.849 161.904 350.874 161.972 350.886 162.044C350.898 162.115 350.896 162.189 350.881 162.26C350.867 162.331 350.84 162.399 350.802 162.459C350.764 162.519 350.715 162.57 350.658 162.609C350.601 162.648 350.538 162.675 350.471 162.688C350.404 162.7 350.336 162.699 350.27 162.683V162.683C349.631 162.584 348.979 162.653 348.369 162.881C347.759 163.11 347.209 163.493 346.765 163.997C346.712 164.042 346.651 164.074 346.586 164.093C346.521 164.112 346.453 164.116 346.387 164.107Z" fill="#263238"/>
<path d="M353.086 182.901C352.808 186.679 351.311 190.234 348.854 192.95C347.23 194.744 345.237 196.1 343.035 196.91C340.928 197.697 338.672 197.908 336.471 197.522C334.269 197.137 332.191 196.168 330.424 194.703C324.199 189.725 323.384 182.948 321.086 171.599C320.52 168.969 320.589 166.226 321.285 163.631C321.982 161.037 323.283 158.677 325.066 156.777C326.848 154.876 329.052 153.497 331.469 152.771C333.886 152.045 336.436 151.996 338.875 152.628C349.988 155.461 353.886 172.226 353.086 182.901Z" fill="#E4897B"/>
<path d="M325.095 190.125C329.459 193.083 345.953 184.772 343.233 170.794C343.233 170.794 349.735 163.139 349.415 154.327C349.095 145.514 343.597 141.804 337.604 143.464C332.281 144.857 332.295 147.972 332.295 147.972C332.295 147.972 307.335 149.866 312.164 160.995C301.546 172.359 319.728 186.446 325.095 190.125Z" fill="#263238"/>
<path d="M338.758 172.972C339.348 175.79 340.784 178.321 342.845 180.172C345.565 182.583 347.776 180.454 347.733 177.041C347.733 173.911 346.278 168.949 343.122 167.869C339.965 166.789 338.147 169.575 338.758 172.972Z" fill="#E4897B"/>
<path opacity="0.2" d="M352.331 186.855C351.605 189.141 350.418 191.226 348.855 192.96C347.231 194.754 345.238 196.11 343.036 196.92C341.557 196.114 340.137 195.188 338.789 194.15L341 188.311C341 188.311 347.778 191.88 352.331 186.855Z" fill="black"/>
<path d="M328.631 204.449L326.77 190.721C326.77 190.721 335.075 184.46 343.773 188.671L356.865 205.654L328.631 204.449Z" fill="#E4897B"/>
<path d="M358.393 203.958L355.353 199.058C355.353 199.058 333.302 190.277 323.688 201.532C323.688 201.532 345.201 213.772 358.393 203.958Z" fill="#B5BCFF"/>
<path opacity="0.2" d="M358.393 203.958L355.353 199.058C355.353 199.058 333.302 190.277 323.688 201.532C323.688 201.532 345.201 213.772 358.393 203.958Z" fill="black"/>
<path d="M273.712 337.06L265.406 331.299L268.592 326.181L277.246 312.281L285.567 318.041L275.995 333.397L273.712 337.06Z" fill="#E4897B"/>
<path d="M266.022 330.563L277.659 330.438C277.848 330.442 278.03 330.514 278.177 330.641C278.324 330.768 278.428 330.944 278.473 331.142L280.422 340.236C280.494 340.627 280.423 341.033 280.226 341.371C280.029 341.708 279.719 341.952 279.361 342.052H279.055C275.302 342.052 272.582 341.801 267.884 341.848C264.975 341.848 256.248 342.302 252.262 342.334C248.277 342.365 247.695 338.139 249.353 337.732C256.626 335.932 262.182 333.49 264.51 331.189C264.926 330.788 265.464 330.565 266.022 330.563V330.563Z" fill="#263238"/>
<path d="M268.262 322.715L283.476 327.129L366.066 259.697L323.695 249.71C320.668 249.014 317.517 249.325 314.659 250.603C311.801 251.881 309.372 254.064 307.695 256.864L268.262 322.715Z" fill="#263238"/>
<path opacity="0.2" d="M268.262 322.715L283.476 327.129L366.066 259.697L323.695 249.71C320.668 249.014 317.517 249.325 314.659 250.603C311.801 251.881 309.372 254.064 307.695 256.864L268.262 322.715Z" fill="black"/>
<path d="M223.109 337.396L214.527 332.121L217.466 326.83L225.422 312.461L234.004 317.736L225.204 333.608L223.109 337.396Z" fill="#E4897B"/>
<path d="M214.867 330.348H226.503C226.693 330.35 226.876 330.421 227.024 330.548C227.172 330.676 227.275 330.854 227.318 331.053L229.194 340.178C229.26 340.571 229.184 340.977 228.981 341.312C228.778 341.646 228.464 341.885 228.103 341.978H227.798C224.059 341.978 221.325 341.665 216.627 341.665C213.717 341.665 204.99 341.994 201.005 341.994C197.019 341.994 196.481 337.736 198.095 337.298C205.368 335.576 210.968 333.197 213.325 330.927C213.757 330.541 214.305 330.336 214.867 330.348V330.348Z" fill="#263238"/>
<path d="M386.002 295.116L328.256 295.272C326.801 289.762 324.968 270.588 319.325 246.874C317.797 240.44 315.979 233.678 313.841 226.744C312.065 220.473 309.908 214.334 307.383 208.368C312.608 204.969 318.349 202.59 324.343 201.339C349.9 196.644 373.347 208.759 373.347 208.759C373.347 208.759 383.485 239.125 386.002 295.116Z" fill="#B5BCFF"/>
<path opacity="0.2" d="M319.316 246.863C317.788 240.43 315.97 233.668 313.832 226.734L317.861 224.98C317.861 224.98 324.203 240.367 319.316 246.863Z" fill="black"/>
<path d="M294.055 257.512L300.76 260.924L303.321 248.777C303.321 248.777 297.968 246.758 293.953 249.701L294.055 257.512Z" fill="#E4897B"/>
<path d="M310.369 265.033L310.674 253.966L303.314 248.77L300.754 260.916L310.369 265.033Z" fill="#E4897B"/>
<path d="M314.961 227.378C303.805 233.874 291.063 239.9 281.361 248.399C281.143 248.603 281.216 248.697 281.463 247.789C281.509 247.211 281.44 246.629 281.259 246.083C281.098 245.488 280.742 244.976 280.256 244.643C280.067 244.565 280.183 244.752 280.445 244.94C280.808 245.184 281.193 245.389 281.594 245.551C286.074 247.382 292.285 247.993 297.303 248.681L298.059 256.742C296.474 257.228 294.99 257.556 293.434 257.869C287.616 258.949 281.579 259.716 275.456 257.541C272.824 256.689 270.603 254.769 269.265 252.186C267.926 249.603 267.575 246.561 268.285 243.704C271.281 232.261 298.394 217.986 308.343 212.68L314.961 227.393V227.378Z" fill="#DC897C"/>
<path d="M325.532 282.034L322.943 289.172C322.943 289.172 292.005 248.036 274.943 245.689C257.881 243.341 218.215 321.511 218.215 321.511L233.255 326.41L275.583 285.087C293.037 317.864 313.91 341.907 338.725 341.907H362.958C390.056 341.907 390.362 309.38 385.009 281.8L325.532 282.034Z" fill="#263238"/>
<path d="M307.379 208.355C297.677 212.175 286.273 223.758 286.273 223.758C286.273 223.758 295.874 241.665 296.834 240.976C297.794 240.287 317.488 234.214 317.488 234.214C317.488 234.214 321.503 228.61 318.419 219.125C317.617 216.446 316.175 214.041 314.238 212.151C312.3 210.261 309.935 208.952 307.379 208.355V208.355Z" fill="#B5BCFF"/>
<path d="M404.805 325.645L415.35 326.208L409.779 337.29C409.779 337.29 400.398 336.179 401.139 331.029L404.805 325.645Z" fill="#E4897B"/>
<path d="M423.984 332.542L416.203 340.322L409.773 337.301L415.344 326.219L423.984 332.542Z" fill="#E4897B"/>
<path d="M77.9801 213.409C85.0493 221.079 92.0166 229.673 100.482 235.48C100.482 235.48 101.006 235.777 101.049 235.824C100.822 235.733 100.58 235.691 100.337 235.699C100.118 235.699 100.468 235.699 100.846 235.699C110.504 232.756 119.479 225.978 128.366 220.766C129.054 220.32 129.87 220.162 130.66 220.322C131.449 220.481 132.156 220.948 132.646 221.632C133.137 222.317 133.376 223.171 133.319 224.033C133.262 224.895 132.913 225.705 132.337 226.307C125.413 233.21 106.751 251.665 96.9476 247.799C90.9548 245.435 85.9511 240.99 81.2383 236.716C76.6349 232.422 72.296 227.811 68.2491 222.911C62.7072 215.82 71.9582 206.788 77.9801 213.425V213.409Z" fill="#E9B376"/>
<path d="M90.1376 224.239C88.9012 234.194 81.4102 243.961 81.4102 243.961L79.8393 242.803L72.1883 237.34C72.1883 237.34 72.0428 236.871 71.8247 236.041C71.6065 235.211 71.3301 234.241 70.9956 232.911C69.2355 226.274 66.0646 213.861 65.6719 208.711C75.1702 208.476 79.4466 213.344 90.1376 224.239Z" fill="#B5BCFF"/>
<path opacity="0.7" d="M90.1376 224.239C88.9012 234.194 81.4102 243.961 81.4102 243.961L79.8393 242.803L72.1883 237.34C72.1883 237.34 72.0428 236.871 71.8247 236.041C71.6065 235.211 71.3301 234.241 70.9956 232.911C69.2355 226.274 66.0646 213.861 65.6719 208.711C75.1702 208.476 79.4466 213.344 90.1376 224.239Z" fill="white"/>
<path opacity="0.2" d="M79.8428 242.81L72.1918 237.348C72.1918 237.348 72.0463 236.878 71.8281 236.048C72.1119 233.529 72.5394 231.03 73.1081 228.566C75.1239 230.273 76.7704 232.431 77.9333 234.89C79.0963 237.35 79.7478 240.053 79.8428 242.81V242.81Z" fill="black"/>
<path d="M70.5345 273.332L77.0655 285.635C94.5202 281.252 150.637 272.049 157.517 292.757C166.085 318.475 104.222 338.996 69.9964 340.248C35.7706 341.5 5.9085 332.735 27.5523 279.03L70.5345 273.332Z" fill="#263238"/>
<path opacity="0.2" d="M70.5345 273.332L77.0655 285.635C94.5202 281.252 150.637 272.049 157.517 292.757C166.085 318.475 104.222 338.996 69.9964 340.248C35.7706 341.5 5.9085 332.735 27.5523 279.03L70.5345 273.332Z" fill="black"/>
<path d="M147.606 329.112C147.567 329.139 147.521 329.153 147.475 329.153C147.429 329.153 147.383 329.139 147.344 329.112C147.323 329.077 147.312 329.037 147.312 328.995C147.312 328.953 147.323 328.913 147.344 328.878C147.461 328.471 148.595 324.933 149.744 324.558C149.865 324.526 149.991 324.528 150.111 324.563C150.23 324.599 150.34 324.667 150.428 324.761C150.586 324.904 150.706 325.089 150.778 325.298C150.849 325.506 150.869 325.731 150.835 325.951C150.647 326.616 150.271 327.202 149.759 327.625C149.091 328.2 148.369 328.698 147.606 329.112V329.112ZM147.897 328.439C148.966 327.94 149.829 327.038 150.326 325.904C150.358 325.756 150.35 325.601 150.3 325.459C150.251 325.317 150.164 325.194 150.05 325.105C150.017 325.062 149.974 325.03 149.925 325.013C149.876 324.997 149.823 324.996 149.773 325.011C149.676 325.05 149.587 325.108 149.511 325.184C148.794 326.154 148.247 327.258 147.897 328.439Z" fill="#263238"/>
<path d="M147.545 329.16C147.516 329.185 147.48 329.199 147.443 329.199C147.406 329.199 147.37 329.185 147.341 329.16C147.225 329.066 145.654 326.921 145.887 325.466C145.915 325.285 145.977 325.113 146.069 324.959C146.162 324.806 146.283 324.674 146.425 324.573C146.548 324.454 146.704 324.38 146.869 324.363C147.034 324.346 147.2 324.387 147.341 324.479C148.17 325.121 148.069 327.986 147.661 329.081V329.191L147.545 329.16ZM146.658 324.965C146.512 325.09 146.414 325.268 146.381 325.466C146.425 326.55 146.798 327.589 147.443 328.424C147.69 327.203 147.618 325.184 147.123 324.824C147.123 324.824 146.978 324.699 146.73 324.824V324.902L146.658 324.965Z" fill="#263238"/>
<path d="M87.4347 335.155C87.4571 335.116 87.4897 335.084 87.5285 335.065C87.5673 335.046 87.6105 335.039 87.6529 335.046C87.692 335.048 87.7291 335.066 87.7581 335.094C87.7871 335.122 87.8064 335.16 87.8129 335.202C87.9002 335.625 88.4965 339.319 87.6674 340.242C87.5741 340.332 87.4604 340.394 87.3378 340.421C87.2153 340.449 87.0881 340.441 86.9692 340.399C86.7644 340.363 86.573 340.266 86.4163 340.119C86.2597 339.973 86.1439 339.782 86.082 339.569C85.9382 338.897 86.0047 338.193 86.271 337.566C86.58 336.721 86.97 335.913 87.4347 335.155V335.155ZM87.4347 335.906C86.7266 336.899 86.3707 338.131 86.431 339.381C86.471 339.532 86.552 339.666 86.6634 339.766C86.7749 339.867 86.9119 339.929 87.0565 339.945C87.0973 339.974 87.1455 339.99 87.1947 339.99C87.2439 339.99 87.292 339.974 87.3329 339.945C87.3983 339.862 87.4478 339.767 87.4783 339.663C87.6964 338.422 87.6964 337.148 87.4783 335.906H87.4347Z" fill="#263238"/>
<path d="M109.828 316.508L95.7481 321.908L88.9844 324.506L90.7153 332.474L97.2608 330.971L113.261 327.293L109.828 316.508Z" fill="#EBB376"/>
<path d="M92.5699 332.85L91.3771 323.459C91.3612 323.335 91.3224 323.216 91.263 323.108C91.2036 323 91.1249 322.907 91.0314 322.832C90.9379 322.758 90.8315 322.704 90.7185 322.675C90.6056 322.645 90.4882 322.64 90.3735 322.66L86.0098 323.443C86.0098 323.443 80.1916 324.022 78.9843 325.65C75.5806 330.346 77.7043 351.227 79.9734 351.963C80.8025 352.229 81.6752 351.008 82.0388 350.163C83.1879 347.47 85.2098 340.442 86.1989 338.219C87.3334 335.605 90.5626 334.337 91.9008 333.884C92.1114 333.831 92.2964 333.696 92.42 333.506C92.5437 333.315 92.597 333.081 92.5699 332.85V332.85Z" fill="#B5BCFF"/>
<path d="M87.4762 335.162C87.5081 335.138 87.5462 335.125 87.5853 335.125C87.6243 335.125 87.6624 335.138 87.6943 335.162C87.8253 335.162 90.1817 336.258 90.6035 337.651C90.6547 337.826 90.6734 338.01 90.6584 338.193C90.6435 338.375 90.5951 338.553 90.5162 338.715C90.4698 338.889 90.3692 339.04 90.2313 339.142C90.0935 339.245 89.9269 339.293 89.7598 339.279C88.7562 339.154 87.5489 336.587 87.418 335.428V335.162C87.4372 335.158 87.457 335.158 87.4762 335.162ZM90.1526 338.371C90.2104 338.178 90.2104 337.97 90.1526 337.776C89.8762 336.884 88.5671 336.101 87.898 335.741C88.218 336.947 89.1925 338.668 89.7889 338.731C89.7889 338.731 89.9635 338.731 90.0944 338.465V338.371H90.1526Z" fill="#263238"/>
<path opacity="0.2" d="M109.838 316.508L95.7578 321.908L97.2706 330.971L113.271 327.293L109.838 316.508Z" fill="black"/>
<path d="M99.7738 332.343L103.818 332.656L101.112 317.66L96.5156 320.384L99.7738 332.343Z" fill="#B5BCFF"/>
<path opacity="0.6" d="M99.7738 332.343L103.818 332.656L101.112 317.66L96.5156 320.384L99.7738 332.343Z" fill="white"/>
<path opacity="0.2" d="M41.0195 274.113L62.1106 299.283C62.1106 299.283 85.3836 298.72 113.747 313.621C113.747 313.621 144.133 300.113 146.926 288.89C150.591 274.192 77.1071 285.681 77.1071 285.681L41.0195 274.113Z" fill="black"/>
<path d="M70.3227 284.181L27.3113 278.812C28.1351 274.032 28.6214 269.192 28.7659 264.333C28.9382 257.409 28.6855 250.481 28.0095 243.593C27.4132 237.003 26.555 229.427 25.1004 220.536C24.8094 218.946 24.8527 217.307 25.227 215.737C25.6013 214.167 26.2972 212.708 27.2637 211.465C28.2302 210.222 29.4428 209.228 30.8126 208.555C32.1825 207.882 33.6749 207.548 35.1805 207.576C36.9114 207.576 38.7296 207.67 40.5915 207.795C47.178 208.112 53.7353 208.934 60.2135 210.253C62.308 210.706 64.4753 211.27 66.5554 211.818C74.0173 213.9 78.6428 224.011 78.0027 232.167C77.751 238.504 77.0998 244.817 76.0536 251.059C74.73 260.263 73.1736 269.248 70.3227 284.181Z" fill="#B5BCFF"/>
<path opacity="0.7" d="M70.3227 284.181L27.3113 278.812C28.1351 274.032 28.6214 269.192 28.7659 264.333C28.9382 257.409 28.6855 250.481 28.0095 243.593C27.4132 237.003 26.555 229.427 25.1004 220.536C24.8094 218.946 24.8527 217.307 25.227 215.737C25.6013 214.167 26.2972 212.708 27.2637 211.465C28.2302 210.222 29.4428 209.228 30.8126 208.555C32.1825 207.882 33.6749 207.548 35.1805 207.576C36.9114 207.576 38.7296 207.67 40.5915 207.795C47.178 208.112 53.7353 208.934 60.2135 210.253C62.308 210.706 64.4753 211.27 66.5554 211.818C74.0173 213.9 78.6428 224.011 78.0027 232.167C77.751 238.504 77.0998 244.817 76.0536 251.059C74.73 260.263 73.1736 269.248 70.3227 284.181Z" fill="white"/>
<path opacity="0.2" d="M28.7915 264.356C28.9638 257.432 28.7112 250.504 28.0352 243.616C33.417 236.776 38.508 231.094 38.508 231.094C38.508 231.094 46.9444 254.463 28.7915 264.356Z" fill="black"/>
<path d="M35.581 228.548C36.0756 238.456 35.9883 253.874 37.6611 263.344L37.2247 262.186C36.9338 261.732 37.1083 262.186 37.4138 262.436C37.8073 262.856 38.2251 263.248 38.6647 263.61C44.4829 268.306 51.4648 271.922 58.0249 275.663L66.3013 280.249C67.0188 280.636 67.579 281.294 67.8754 282.096C68.1719 282.899 68.1839 283.791 67.9091 284.603C67.6344 285.414 67.0921 286.089 66.3853 286.498C65.6786 286.908 64.8566 287.023 64.0758 286.823C60.9194 286.009 57.8939 285.039 54.8248 284.037C46.0975 280.906 37.1374 277.901 29.6319 271.781C28.166 270.556 27.0269 268.936 26.3301 267.085C22.97 254.25 22.7082 241.853 22.4609 228.767C22.7664 219.641 35.0429 219.469 35.5519 228.595L35.581 228.548Z" fill="#E9B376"/>
<path d="M77.9083 279.675L75.2901 277.624C74.805 277.246 74.2427 276.999 73.6503 276.904C73.058 276.808 72.453 276.867 71.8864 277.076L66.5045 279.017C65.4437 279.404 64.4838 280.057 63.7046 280.923C62.9255 281.788 62.3495 282.842 62.0245 283.995L61.6172 285.451C65.7482 289.145 72.7446 289.88 72.7446 289.88L74.7083 290.319C75.1105 290.423 75.5279 290.441 75.9364 290.37C76.345 290.3 76.7364 290.143 77.0882 289.908C77.4399 289.674 77.745 289.367 77.9856 289.005C78.2263 288.642 78.3978 288.232 78.4901 287.798L79.3629 283.604C79.5031 282.867 79.4402 282.103 79.1817 281.405C78.9232 280.707 78.4806 280.105 77.9083 279.675V279.675Z" fill="#EBB376"/>
<path d="M31.6527 208.223C23.2454 211.463 20.8308 219.352 20.6562 235.803C25.0199 240.076 38.271 240.311 38.271 240.311C38.271 240.311 40.5692 215.36 31.6527 208.223Z" fill="#B5BCFF"/>
<path d="M133.503 288.746V292.471C133.503 293.426 132.456 293.818 131.568 293.818H62.3894C61.4876 293.818 60.4258 293.426 60.4258 292.471V288.746H133.503Z" fill="#263238"/>
<path opacity="0.4" d="M133.503 288.746V292.471C133.503 293.426 132.456 293.818 131.568 293.818H62.3894C61.4876 293.818 60.4258 293.426 60.4258 292.471V288.746H133.503Z" fill="white"/>
<path opacity="0.2" d="M133.502 288.746V292.471C133.502 293.426 132.455 293.818 131.568 293.818H85.8944C85.0071 293.818 83.9453 293.426 83.9453 292.471V288.746H133.502Z" fill="black"/>
<path d="M145.104 250.028L136.857 290.272C136.704 290.915 136.36 291.487 135.877 291.9C135.393 292.312 134.798 292.543 134.181 292.557H89.0893C88.8086 292.549 88.5336 292.471 88.2857 292.329C88.0377 292.187 87.8236 291.986 87.6602 291.74C87.4968 291.494 87.3884 291.211 87.3436 290.913C87.2988 290.615 87.3188 290.31 87.402 290.021L95.6348 250.091C95.803 249.481 96.1608 248.953 96.6481 248.594C97.1353 248.235 97.7225 248.067 98.3112 248.118H143.403C144.61 248.118 145.308 248.713 145.104 250.028Z" fill="#263238"/>
<path opacity="0.4" d="M145.09 250.028L136.842 290.272C136.69 290.915 136.346 291.487 135.862 291.9C135.379 292.312 134.783 292.543 134.166 292.557H90.6457C90.3648 292.548 90.0897 292.47 89.8415 292.328C89.5933 292.186 89.3786 291.985 89.2142 291.74C89.0497 291.495 88.9398 291.213 88.8929 290.915C88.846 290.616 88.8634 290.311 88.9438 290.021L97.1912 250.091C97.3594 249.481 97.7171 248.953 98.2044 248.594C98.6917 248.235 99.2789 248.067 99.8675 248.118H143.388C144.595 248.118 145.293 248.713 145.09 250.028Z" fill="white"/>
<path opacity="0.2" d="M122.885 270.464C122.741 272.096 122.065 273.621 120.976 274.767C119.887 275.913 118.455 276.607 116.936 276.725C114.42 276.725 112.921 273.924 113.649 270.464C114.376 267.005 116.863 264.328 119.322 264.203C118.609 267.647 120.151 270.464 122.652 270.464H122.885Z" fill="black"/>
<path d="M130.026 227.581L139.714 227.847L135.35 217.297C135.35 217.297 126.71 217.626 127.045 222.415L130.026 227.581Z" fill="#EBB376"/>
<path d="M148.019 222.721L141.386 215.02L135.32 217.305L139.713 227.855L148.019 222.721Z" fill="#EBB376"/>
<path d="M38.4674 207.676C37.4783 207.598 40.5038 220.668 55.1948 223.893C69.8858 227.117 68.7512 212.575 67.6021 208.928C67.6021 208.928 48.2856 208.365 38.4674 207.676Z" fill="#EBB376"/>
<path d="M42.4858 156.575C42.4858 156.575 50.9077 146.526 66.3114 151.707C81.7152 156.888 81.0607 186.472 73.2352 197.21C60.9795 196.747 48.7193 197.978 36.7548 200.872C36.7548 200.872 29.3365 179.412 33.0166 166.796C36.6966 154.18 42.4858 156.575 42.4858 156.575Z" fill="#263238"/>
<path d="M45.5927 186.086C46.5673 193.067 47.3237 205.715 42.6836 209.722C42.6836 209.722 48.7346 209.503 60.4729 219.489C64.7348 214.292 62.2184 212.148 62.2184 212.148C55.2801 209.471 55.6729 203.836 57.0838 198.686L45.5927 186.086Z" fill="#EBB376"/>
<path opacity="0.2" d="M50.2994 191.227L57.1504 198.677C56.8047 199.883 56.5565 201.119 56.4086 202.371C53.7467 201.62 50.183 197.973 50.023 194.889C49.91 193.66 50.0036 192.42 50.2994 191.227V191.227Z" fill="black"/>
<path d="M41.6669 171.836C42.3942 182.997 42.496 187.724 47.7179 193.75C55.587 202.704 68.0817 200.011 70.3362 189.054C72.4453 179.162 70.889 162.57 60.8234 157.67C58.7003 156.539 56.335 156.039 53.9719 156.22C51.6088 156.401 49.3335 157.258 47.381 158.702C45.4285 160.146 43.8695 162.124 42.865 164.433C41.8604 166.742 41.4469 169.298 41.6669 171.836V171.836Z" fill="#EBB376"/>
<path d="M54.4506 175.269C54.4506 176.224 54.9306 176.991 55.4979 177.022C56.0652 177.053 56.4724 176.302 56.4579 175.363C56.4433 174.424 55.9633 173.641 55.4106 173.625C54.8579 173.61 54.4215 174.33 54.4506 175.269Z" fill="#263238"/>
<path d="M65.2969 175.39C65.2969 176.329 65.7914 177.112 66.3441 177.143C66.8969 177.174 67.3187 176.423 67.3041 175.484C67.2896 174.545 66.8096 173.762 66.2569 173.746C65.7042 173.731 65.2969 174.451 65.2969 175.39Z" fill="#263238"/>
<path d="M65.9648 173.778L67.9866 173.215C67.9866 173.215 66.983 174.937 65.9648 173.778Z" fill="#263238"/>
<path d="M62.0117 177.309C62.8252 179.489 63.8905 181.551 65.1827 183.444C64.747 183.764 64.25 183.973 63.7287 184.057C63.2074 184.141 62.6752 184.098 62.1717 183.93L62.0117 177.309Z" fill="#D58745"/>
<path d="M52.7027 169.319C52.7682 169.331 52.8353 169.325 52.8985 169.303C52.9617 169.282 53.0192 169.244 53.0664 169.194C53.5204 168.742 54.0723 168.419 54.6718 168.255C55.2714 168.091 55.8995 168.091 56.4991 168.255C56.5602 168.276 56.6247 168.284 56.6887 168.277C56.7526 168.27 56.8145 168.249 56.8705 168.215C56.9265 168.181 56.9754 168.136 57.0141 168.08C57.0529 168.025 57.0806 167.962 57.0955 167.895C57.1317 167.75 57.114 167.595 57.0462 167.463C56.9783 167.332 56.8656 167.234 56.7319 167.19C55.9728 166.971 55.1745 166.963 54.4115 167.165C53.6485 167.368 52.9455 167.775 52.3682 168.349C52.2749 168.451 52.2227 168.589 52.2227 168.732C52.2227 168.876 52.2749 169.013 52.3682 169.116C52.4517 169.227 52.5713 169.299 52.7027 169.319Z" fill="#263238"/>
<path d="M69.5128 169.398C69.6299 169.446 69.7594 169.446 69.8765 169.398C69.9329 169.36 69.9816 169.31 70.0196 169.251C70.0577 169.192 70.0843 169.126 70.0979 169.056C70.1115 168.986 70.1117 168.913 70.0987 168.843C70.0856 168.773 70.0595 168.706 70.0219 168.647C69.6222 167.875 69.0626 167.212 68.3867 166.71C67.7107 166.207 66.9364 165.879 66.1237 165.751C66.0589 165.747 65.994 165.757 65.9331 165.781C65.8723 165.805 65.8167 165.843 65.7702 165.891C65.7236 165.94 65.687 165.999 65.6627 166.063C65.6384 166.128 65.627 166.198 65.6292 166.268C65.6315 166.414 65.6828 166.555 65.7736 166.664C65.8644 166.773 65.9887 166.844 66.1237 166.862C66.7666 166.968 67.3781 167.232 67.9106 167.634C68.443 168.035 68.8818 168.564 69.1928 169.179C69.2301 169.236 69.2776 169.285 69.3325 169.323C69.3874 169.36 69.4487 169.386 69.5128 169.398Z" fill="#263238"/>
<path d="M55.1211 173.661L57.1429 173.113C57.1429 173.113 56.1829 174.819 55.1211 173.661Z" fill="#263238"/>
<path d="M43.8354 178.534C43.8354 178.534 51.8355 171.772 50.0173 161.19C50.0173 161.19 64.3302 155.101 69.9739 170.582C69.9739 170.582 71.1666 157.308 57.7119 154.71C44.2573 152.112 28.3298 171.74 43.5736 186.626L43.8354 178.534Z" fill="#263238"/>
<path d="M38.3732 180.84C38.8922 181.875 39.5963 182.79 40.4451 183.532C41.2938 184.273 42.2704 184.826 43.3187 185.16C46.0388 185.958 47.2606 183.078 46.3879 180.104C45.5879 177.428 43.2169 173.843 40.5696 174.297C37.9223 174.751 37.0205 178.195 38.3732 180.84Z" fill="#EBB376"/>
<path d="M71.5389 177.161C71.4734 177.16 71.4098 177.137 71.3575 177.095C71.3051 177.053 71.2667 176.993 71.248 176.926C66.1134 157.469 49.1678 161.476 48.9933 161.508C48.956 161.517 48.9174 161.518 48.8797 161.511C48.842 161.505 48.8059 161.49 48.7735 161.468C48.7411 161.446 48.713 161.418 48.6908 161.384C48.6686 161.351 48.6528 161.313 48.6442 161.273C48.6356 161.233 48.6344 161.191 48.6407 161.151C48.647 161.11 48.6607 161.071 48.681 161.037C48.7012 161.002 48.7277 160.971 48.7588 160.947C48.7899 160.924 48.8251 160.907 48.8624 160.897C49.0369 160.897 66.5352 156.718 71.8153 176.754C71.8263 176.794 71.8298 176.836 71.8255 176.877C71.8212 176.919 71.8092 176.959 71.7902 176.996C71.7712 177.032 71.7456 177.064 71.715 177.09C71.6843 177.115 71.6492 177.134 71.6116 177.145L71.5389 177.161Z" fill="#263238"/>
<path d="M62.6829 187.18C62.1752 188.459 61.7571 189.778 61.432 191.124H60.7484C57.6793 190.764 56.3847 189.559 55.832 188.228C55.5843 187.596 55.4796 186.909 55.5266 186.225C55.5489 185.836 55.6174 185.452 55.7302 185.082C57.5399 186.209 59.5541 186.903 61.6357 187.117C62.2757 187.148 62.6829 187.18 62.6829 187.18Z" fill="#263238"/>
<path d="M61.6287 187.054L61.2359 188.197C58.3268 187.868 56.3341 187.211 55.5195 186.162C55.5419 185.774 55.6103 185.39 55.7232 185.02C57.5329 186.147 59.5471 186.841 61.6287 187.054V187.054Z" fill="white"/>
<path d="M60.7445 191.056C57.6754 190.696 56.3809 189.491 55.8281 188.16C56.994 188.323 58.1255 188.699 59.1736 189.271C59.8562 189.677 60.4051 190.301 60.7445 191.056V191.056Z" fill="#DE5753"/>
<path d="M60.2484 239.333C60.2022 239.336 60.1559 239.328 60.113 239.309C60.0702 239.29 60.0319 239.261 60.0011 239.223C52.2722 230.306 46.4445 219.681 42.9245 208.09C42.9023 207.994 42.9158 207.893 42.962 207.808C43.0082 207.724 43.0836 207.662 43.1718 207.636C43.2148 207.624 43.2595 207.622 43.3034 207.629C43.3472 207.636 43.3893 207.653 43.4272 207.677C43.4651 207.702 43.498 207.735 43.5241 207.773C43.5502 207.812 43.5689 207.856 43.5791 207.902C47.0052 219.175 52.6401 229.525 60.1029 238.253C60.9757 235.122 64.5975 220.252 59.1429 208.857C59.1163 208.772 59.1187 208.68 59.1496 208.597C59.1805 208.514 59.238 208.445 59.3117 208.404C59.3853 208.362 59.4703 208.35 59.5514 208.37C59.6325 208.39 59.7043 208.441 59.7538 208.512C65.9939 221.551 60.6266 238.91 60.5684 239.082C60.5492 239.143 60.5167 239.197 60.4736 239.241C60.4305 239.284 60.3782 239.316 60.3211 239.333H60.2484Z" fill="#263238"/>
<path d="M60.7008 238.676L61.8062 240.241C61.9054 240.374 61.9594 240.54 61.9594 240.711C61.9594 240.882 61.9054 241.047 61.8062 241.18L60.6863 242.746C60.6194 242.831 60.5359 242.9 60.4416 242.947C60.3474 242.995 60.2447 243.019 60.1408 243.019C60.0369 243.019 59.9342 242.995 59.84 242.947C59.7457 242.9 59.6623 242.831 59.5954 242.746L58.5481 241.462C58.4561 241.332 58.4062 241.172 58.4062 241.008C58.4062 240.844 58.4561 240.685 58.5481 240.554L59.479 238.739C59.5399 238.625 59.6263 238.53 59.7303 238.462C59.8342 238.394 59.9524 238.355 60.074 238.349C60.1956 238.342 60.3167 238.369 60.4262 238.426C60.5357 238.483 60.6301 238.569 60.7008 238.676V238.676Z" fill="white"/>
<path opacity="0.7" d="M31.6527 208.223C23.2454 211.463 20.8308 219.352 20.6562 235.803C25.0199 240.076 38.271 240.311 38.271 240.311C38.271 240.311 40.5692 215.36 31.6527 208.223Z" fill="white"/>
<path d="M119.605 333.758L134.355 336.372L141.439 337.624L143.504 329.751L137.104 327.654L121.453 322.535L119.605 333.758Z" fill="#EBB376"/>
<path d="M142.072 328.477L138.886 337.305C138.844 337.423 138.825 337.549 138.829 337.676C138.832 337.802 138.859 337.926 138.908 338.041C138.957 338.156 139.026 338.26 139.112 338.346C139.199 338.432 139.3 338.498 139.41 338.542L143.526 340.107C143.526 340.107 148.923 342.643 150.668 341.829C155.774 339.465 163.294 320.103 161.636 318.35C161.025 317.677 159.716 318.35 159.017 318.851C156.807 320.604 151.876 325.691 150.014 327.131C147.832 328.821 144.501 328.289 143.061 327.961C142.866 327.905 142.659 327.927 142.477 328.022C142.296 328.116 142.152 328.278 142.072 328.477V328.477Z" fill="#B5BCFF"/>
<path opacity="0.2" d="M119.605 333.758L134.355 336.372L137.104 327.654L121.453 322.535L119.605 333.758Z" fill="black"/>
<path d="M134.562 326.014C134.562 326.014 74.4306 289.637 53.6595 290.67C32.8884 291.703 29.9211 311.394 38.4739 323.713C47.0267 336.032 62.8523 339.037 62.8523 339.037C62.8523 339.037 52.1031 322.633 53.6595 318.063C55.2159 313.492 61.2959 319.878 61.2959 319.878C61.2959 319.878 99.1145 333.027 132.235 336.048L134.562 326.014Z" fill="#263238"/>
<path d="M135.536 325.024L132.132 322.566L127.754 337.014H133.005L135.536 325.024Z" fill="#B5BCFF"/>
<path opacity="0.6" d="M135.536 325.024L132.132 322.566L127.754 337.014H133.005L135.536 325.024Z" fill="white"/>
<defs>
<clipPath id="clip0_4212_40839">
<rect width="43.4108" height="36.806" fill="white" transform="translate(444.629 7.66797)"/>
</clipPath>
</defs>
</svg>
