<svg width="25" height="25" viewBox="0 0 25 25" fill="none" xmlns="http://www.w3.org/2000/svg">
<path d="M7.24953 9.27449C7.40936 9.09873 7.6261 9 7.85209 9C8.07808 9 8.29482 9.09873 8.45465 9.27449L12.6734 13.9151L16.8921 9.27449C17.0529 9.10371 17.2682 9.00922 17.4916 9.01136C17.7151 9.01349 17.9289 9.11209 18.0869 9.28591C18.2449 9.45973 18.3345 9.69486 18.3365 9.94067C18.3384 10.1865 18.2525 10.4233 18.0973 10.6001L13.276 15.9035C13.1161 16.0793 12.8994 16.178 12.6734 16.178C12.4474 16.178 12.2307 16.0793 12.0708 15.9035L7.24953 10.6001C7.08976 10.4243 7 10.1859 7 9.9373C7 9.68871 7.08976 9.45029 7.24953 9.27449Z" fill="#009987"/>
</svg>
