<svg width="27" height="26" viewBox="0 0 27 26" fill="none" xmlns="http://www.w3.org/2000/svg">
<path d="M18.202 20.8769L18.2025 20.8764C19.4159 19.7052 20.198 17.9058 20.198 15.3813C20.198 12.917 18.6892 10.0638 16.9812 7.65019L18.202 20.8769ZM18.202 20.8769C16.9836 22.0543 15.2741 22.6487 13.3355 22.6487C11.398 22.6487 9.68824 22.0544 8.46879 20.8766L8.46852 20.8764M18.202 20.8769L8.46852 20.8764M8.46852 20.8764C7.25515 19.7052 6.47301 17.905 6.47301 15.3813M8.46852 20.8764L6.47301 15.3813M13.3355 3.2792C12.6195 4.0101 11.1126 5.6402 9.68991 7.65008L13.3355 3.2792ZM13.3355 3.2792C14.0516 4.0101 15.5585 5.6402 16.9811 7.65008L13.3355 3.2792ZM6.47301 15.3813C6.47301 12.917 7.98181 10.0638 9.68983 7.65019L6.47301 15.3813Z" fill="url(#paint0_linear_4212_40791)" stroke="#262626" stroke-width="2.35226"/>
<ellipse rx="2.12907" ry="1.95498" transform="matrix(0.801368 -0.598171 0.625281 0.7804 5.32702 15.5802)" fill="url(#paint1_linear_4212_40791)"/>
<path d="M5.11228 15.9322C5.08679 15.93 5.05683 15.919 5.03007 15.8948C5.00292 15.8702 4.98382 15.8359 4.97787 15.7983C4.97197 15.7611 4.98001 15.728 4.99413 15.7039C5.00797 15.6802 5.02732 15.6651 5.04729 15.6571" stroke="#262626" stroke-width="1.97633" stroke-linecap="round" stroke-linejoin="round"/>
<path d="M6.44792 14.107C6.14218 13.8653 5.76904 13.7165 5.3757 13.6795C4.98236 13.6425 4.58648 13.7188 4.23812 13.899C3.88976 14.0791 3.60457 14.3549 3.41861 14.6915C3.23265 15.0281 3.15428 15.4104 3.1934 15.79C3.23252 16.1695 3.38738 16.5294 3.63839 16.824C3.88941 17.1187 4.22531 17.3348 4.60361 17.4452C4.98191 17.5556 5.38562 17.5552 5.7637 17.4441C6.14178 17.333 6.47724 17.1162 6.72766 16.8211" stroke="#262626" stroke-linecap="round" stroke-linejoin="round"/>
<path d="M15.2467 18.6681C15.2508 19.1965 15.0407 19.6092 14.5381 19.7904C14.019 19.9774 13.475 20.0076 13.063 19.5572C12.6917 19.1512 12.607 18.6455 12.798 18.1162C12.9284 17.7547 13.2059 17.6104 13.5647 17.7153C13.7507 17.7698 13.9202 17.8352 14.112 17.7723C14.9402 17.5014 15.2475 17.7438 15.2467 18.6681Z" fill="#0B0F0F"/>
<path d="M13.6671 18.7223C14.0824 18.6912 14.3972 18.8657 14.6265 19.2054C14.6879 19.2968 14.663 19.3975 14.57 19.4503C14.2145 19.6542 13.8499 19.6223 13.4886 19.4671C13.2668 19.3715 13.0674 19.1836 13.1065 18.9571C13.1538 18.6787 13.4504 18.7374 13.6671 18.7223Z" fill="#F2BED5"/>
<path d="M14.8901 19.0079C14.4208 18.4803 13.9125 18.362 13.3385 18.44C13.2338 18.4543 13.0686 18.6036 13.0478 18.3519C13.0353 18.1984 13.1516 18.05 13.2687 18.0642C13.7272 18.1196 14.1583 18.0433 14.6077 17.9871C15.0014 17.9393 14.9416 18.5381 14.8901 19.0079Z" fill="#A09DCA"/>
<path d="M12.3172 15.4832C12.313 16.0611 11.8662 16.5283 11.4833 17.0215C11.4318 17.0878 11.2723 17.0987 11.1668 17.0886C10.5671 17.0307 10.0131 16.8361 9.56872 16.4159C9.20326 16.0703 9.07368 15.6182 9.29878 15.1578C9.51557 14.7132 9.89847 14.5195 10.3902 14.7375C10.5538 14.8097 10.6327 14.7375 10.7274 14.631C11.0314 14.2896 11.3969 14.2141 11.8047 14.4138C12.1968 14.605 12.3039 14.9623 12.3172 15.4832Z" fill="#0B0D0C"/>
<path d="M12.001 15.2654C11.947 15.861 11.7128 16.2292 11.462 16.5899C11.3482 16.7543 11.187 16.7752 11.0085 16.745C10.4843 16.6578 10.0491 16.3995 9.69527 16.0094C9.48181 15.7746 9.43446 15.4852 9.63796 15.2269C9.83897 14.971 10.123 14.9098 10.3905 15.1186C10.628 15.304 10.7584 15.2336 10.8689 14.9962C11.0292 14.6531 11.3133 14.5844 11.6289 14.7009C11.9379 14.815 12.0359 15.0817 12.001 15.2654Z" fill="#F4A4C7"/>
<path d="M15.4915 14.8087C15.4658 14.4808 15.5929 14.2031 15.906 14.0236C16.2457 13.829 16.5655 13.881 16.8388 14.1452C16.9899 14.2912 17.0987 14.3516 17.323 14.2509C17.627 14.1142 17.9277 14.2417 18.1386 14.4875C18.3696 14.7567 18.3787 15.0746 18.2267 15.3959C17.9808 15.9176 17.014 16.4686 16.4774 16.3906C16.0912 16.3353 15.5015 15.4051 15.4915 14.8087Z" fill="#0F1311"/>
<path d="M15.8086 14.877C15.8127 14.6404 15.8343 14.414 16.1018 14.3192C16.3585 14.2278 16.6085 14.2504 16.7546 14.4903C16.8992 14.7285 17.0263 14.8208 17.2837 14.6513C17.523 14.4937 17.7672 14.5373 17.9358 14.7679C18.1143 15.012 17.9906 15.2595 17.8319 15.4473C17.5113 15.8256 17.0736 16.0118 16.5919 16.0471C16.2355 16.0731 15.8078 15.4054 15.8086 14.877Z" fill="#F3A4C6"/>
<ellipse cx="7.61225" cy="12.4601" rx="0.331003" ry="0.319484" fill="#262626"/>
<rect width="0.900155" height="4.50988" rx="0.450078" transform="matrix(0.886125 0.463447 -0.48953 0.871986 9.98047 7.57812)" fill="#262626"/>
<path d="M12.9046 2.11818C13.0376 1.98998 13.2179 1.91797 13.4058 1.91797C13.5938 1.91797 13.7741 1.98998 13.9071 2.11818C14.4017 2.59558 16.2657 4.50427 18.0115 6.97069C19.7355 9.40698 21.4445 12.5224 21.4445 15.3813C21.4445 18.1572 20.5772 20.2868 19.0896 21.7226C17.6067 23.1557 15.58 23.8248 13.4058 23.8248C11.2326 23.8248 9.20587 23.1557 7.72204 21.7226C6.23441 20.2868 5.36719 18.1563 5.36719 15.3813C5.36719 12.5224 7.07611 9.40698 8.80016 6.97069C10.546 4.50427 12.41 2.59558 12.9046 2.11818V2.11818Z" fill="url(#paint2_linear_4212_40791)" stroke="url(#paint3_linear_4212_40791)" stroke-width="0.75"/>
<ellipse rx="2.12907" ry="1.95498" transform="matrix(0.801368 -0.598171 0.625281 0.7804 5.39733 15.5802)" fill="url(#paint4_linear_4212_40791)"/>
<path d="M5.50608 16.5657C5.68577 16.4942 5.83538 16.3665 5.93094 16.2031C6.02649 16.0397 6.06247 15.85 6.03311 15.6646C6.00374 15.4791 5.91073 15.3085 5.76898 15.1801C5.62723 15.0517 5.44493 14.973 5.25129 14.9565" stroke="#262626" stroke-linecap="round" stroke-linejoin="round"/>
<path d="M15.3131 18.6681C15.3172 19.1965 15.1071 19.6092 14.6046 19.7904C14.0854 19.9774 13.5414 20.0076 13.1294 19.5572C12.7581 19.1512 12.6734 18.6455 12.8644 18.1162C12.9948 17.7547 13.2723 17.6104 13.6311 17.7153C13.8171 17.7698 13.9866 17.8352 14.1785 17.7723C15.0066 17.5014 15.3139 17.7438 15.3131 18.6681Z" fill="#0B0F0F"/>
<path d="M13.7335 18.7223C14.1488 18.6912 14.4636 18.8657 14.6929 19.2054C14.7544 19.2968 14.7294 19.3975 14.6364 19.4503C14.2809 19.6542 13.9163 19.6223 13.555 19.4671C13.3332 19.3715 13.1339 19.1836 13.1729 18.9571C13.2202 18.6787 13.5168 18.7374 13.7335 18.7223Z" fill="#F2BED5"/>
<path d="M14.9565 19.0079C14.4872 18.4803 13.9789 18.362 13.4049 18.44C13.3003 18.4543 13.135 18.6036 13.1142 18.3519C13.1017 18.1984 13.218 18.05 13.3351 18.0642C13.7936 18.1196 14.2247 18.0433 14.6741 17.9871C15.0678 17.9393 15.008 18.5381 14.9565 19.0079Z" fill="#A09DCA"/>
<path d="M12.3875 15.4832C12.3833 16.0611 11.9365 16.5283 11.5536 17.0215C11.5021 17.0878 11.3426 17.0987 11.2371 17.0886C10.6374 17.0307 10.0834 16.8361 9.63904 16.4159C9.27357 16.0703 9.144 15.6182 9.36909 15.1578C9.58588 14.7132 9.96878 14.5195 10.4605 14.7375C10.6241 14.8097 10.703 14.7375 10.7977 14.631C11.1017 14.2896 11.4672 14.2141 11.875 14.4138C12.2671 14.605 12.3742 14.9623 12.3875 15.4832Z" fill="#0B0D0C"/>
<path d="M12.0713 15.2654C12.0173 15.861 11.7831 16.2292 11.5323 16.5899C11.4185 16.7543 11.2573 16.7752 11.0788 16.745C10.5547 16.6578 10.1194 16.3995 9.76558 16.0094C9.55212 15.7746 9.50477 15.4852 9.70827 15.2269C9.90928 14.971 10.1933 14.9098 10.4608 15.1186C10.6984 15.304 10.8288 15.2336 10.9392 14.9962C11.0995 14.6531 11.3836 14.5844 11.6992 14.7009C12.0082 14.815 12.1062 15.0817 12.0713 15.2654Z" fill="#F4A4C7"/>
<path d="M15.5618 14.8087C15.5361 14.4808 15.6632 14.2031 15.9763 14.0236C16.316 13.829 16.6358 13.881 16.9091 14.1452C17.0602 14.2912 17.169 14.3516 17.3933 14.2509C17.6973 14.1142 17.998 14.2417 18.209 14.4875C18.4399 14.7567 18.449 15.0746 18.297 15.3959C18.0511 15.9176 17.0843 16.4686 16.5478 16.3906C16.1615 16.3353 15.5718 15.4051 15.5618 14.8087Z" fill="#0F1311"/>
<path d="M15.8789 14.877C15.8831 14.6404 15.9047 14.414 16.1721 14.3192C16.4288 14.2278 16.6788 14.2504 16.825 14.4903C16.9695 14.7285 17.0966 14.8208 17.3541 14.6513C17.5933 14.4937 17.8375 14.5373 18.0061 14.7679C18.1847 15.012 18.0609 15.2595 17.9023 15.4473C17.5816 15.8256 17.1439 16.0118 16.6622 16.0471C16.3058 16.0731 15.8781 15.4054 15.8789 14.877Z" fill="#F3A4C6"/>
<ellipse cx="7.68257" cy="12.4601" rx="0.331003" ry="0.319484" fill="#263238"/>
<rect width="0.900155" height="4.50988" rx="0.450078" transform="matrix(0.886125 0.463447 -0.48953 0.871986 10.0508 7.57812)" fill="#263238"/>
<defs>
<linearGradient id="paint0_linear_4212_40791" x1="13.3355" y1="1.91797" x2="13.3355" y2="23.8248" gradientUnits="userSpaceOnUse">
<stop stop-color="#0D99FF"/>
<stop offset="1" stop-color="#ADE2FF"/>
</linearGradient>
<linearGradient id="paint1_linear_4212_40791" x1="2.12907" y1="0" x2="2.12907" y2="3.90996" gradientUnits="userSpaceOnUse">
<stop stop-color="#0D99FF"/>
<stop offset="1" stop-color="#ADE2FF"/>
</linearGradient>
<linearGradient id="paint2_linear_4212_40791" x1="13.4058" y1="1.91797" x2="13.4058" y2="23.8248" gradientUnits="userSpaceOnUse">
<stop stop-color="#0D99FF"/>
<stop offset="1" stop-color="#ADE2FF"/>
</linearGradient>
<linearGradient id="paint3_linear_4212_40791" x1="13.4058" y1="1.91797" x2="13.4058" y2="23.8248" gradientUnits="userSpaceOnUse">
<stop stop-color="#00A3FF"/>
<stop offset="1" stop-color="#00A3FF" stop-opacity="0"/>
</linearGradient>
<linearGradient id="paint4_linear_4212_40791" x1="2.12907" y1="0" x2="2.12907" y2="3.90996" gradientUnits="userSpaceOnUse">
<stop stop-color="#0D99FF"/>
<stop offset="1" stop-color="#ADE2FF"/>
</linearGradient>
</defs>
</svg>
