<svg width="128" height="93" viewBox="0 0 128 93" fill="none" xmlns="http://www.w3.org/2000/svg">
<g clip-path="url(#clip0_253_119)">
<path d="M98.9463 12.4756L96.8836 1.38657C96.7351 0.583715 96.0201 0 95.185 0H53.734C52.8988 0 52.1839 0.583714 52.0354 1.38706L49.9914 12.377C49.8196 13.2933 50.4417 14.1731 51.3814 14.3398C52.324 14.5045 53.2194 13.8978 53.3884 12.9802L55.1763 3.37688H93.7429L95.549 13.0794C95.6993 13.8946 96.4264 14.466 97.2459 14.466C97.3491 14.466 97.4518 14.4566 97.5563 14.4385C98.4959 14.2721 99.1183 13.3925 98.9463 12.4756Z" fill="black"/>
<path d="M119.352 11.8193H29.5656C24.7977 11.8193 20.9185 15.6028 20.9185 20.2528V69.2365C20.9185 73.8867 24.7977 77.6702 29.5656 77.6702H119.353C124.121 77.6702 128 73.8867 128 69.237V20.2528C128 15.6028 124.121 11.8193 119.352 11.8193ZM124.545 69.2365C124.545 72.025 122.216 74.2931 119.352 74.2931H29.5656C26.702 74.2931 24.3726 72.025 24.3726 69.237V20.2528C24.3726 17.4643 26.702 15.1962 29.5656 15.1962H119.353C122.217 15.1962 124.546 17.4643 124.545 20.2528V69.2365V69.2365Z" fill="black"/>
<path d="M74.4598 18.5732C59.2225 18.5732 46.8257 30.6927 46.8257 45.5891C46.8257 60.4854 59.2225 72.6049 74.4598 72.6049C89.697 72.6049 102.094 60.4854 102.094 45.5891C102.094 30.6927 89.6967 18.5732 74.4598 18.5732ZM74.4598 69.2277C61.1268 69.2277 50.2801 58.6237 50.2801 45.5891C50.2801 32.5544 61.1268 21.9504 74.4598 21.9504C87.7927 21.9504 98.6394 32.5544 98.6394 45.5891C98.6394 58.6234 87.7927 69.2277 74.4598 69.2277Z" fill="black"/>
<path d="M74.4599 25.3271C63.031 25.3271 53.7344 34.4168 53.7344 45.5889C53.7344 56.7611 63.031 65.8507 74.4599 65.8507C85.8887 65.8507 95.1854 56.7611 95.1854 45.5889C95.1854 34.4168 85.8885 25.3271 74.4599 25.3271ZM74.4599 62.4739C64.9368 62.4739 57.1885 54.8997 57.1885 45.5889C57.1885 36.2782 64.9368 28.704 74.4599 28.704C83.9829 28.704 91.7312 36.2782 91.7312 45.5889C91.731 54.8997 83.9827 62.4739 74.4599 62.4739Z" fill="black"/>
<path d="M45.0982 5.06543H33.0085C32.0539 5.06543 31.2812 5.82154 31.2812 6.75399V13.508C31.2812 14.4405 32.0536 15.1966 33.0085 15.1966H45.0984C46.053 15.1966 46.8256 14.4405 46.8256 13.508V6.75399C46.8254 5.82154 46.053 5.06543 45.0982 5.06543ZM43.3712 11.8194H34.7354V8.44256H43.371V11.8194H43.3712Z" fill="black"/>
<path d="M114.183 16.8848C110.373 16.8848 107.274 19.9146 107.274 23.6388C107.274 27.3629 110.373 30.3928 114.183 30.3928C117.993 30.3928 121.092 27.3629 121.092 23.6388C121.092 19.9146 117.993 16.8848 114.183 16.8848ZM114.183 27.0157C112.279 27.0157 110.729 25.5012 110.729 23.6388C110.729 21.7763 112.279 20.2619 114.183 20.2619C116.087 20.2619 117.637 21.7766 117.637 23.6388C117.637 25.501 116.087 27.0157 114.183 27.0157Z" fill="black"/>
<path d="M98.434 23.0181H8.64718C3.8792 23.0181 0 26.8016 0 31.4515V80.4352C0 85.0854 3.8792 88.8689 8.64718 88.8689H98.4345C103.203 88.8689 107.082 85.0854 107.082 80.4357V31.4515C107.082 26.8016 103.203 23.0181 98.434 23.0181ZM103.627 80.4352C103.627 83.2237 101.298 85.4918 98.434 85.4918H8.64718C5.78351 85.4918 3.45416 83.2237 3.45416 80.4357V31.4515C3.45416 28.663 5.78351 26.395 8.64718 26.395H98.4345C101.298 26.395 103.627 28.663 103.627 31.4515V80.4352V80.4352Z" fill="black"/>
<path d="M24.1797 16.2642H12.09C11.1354 16.2642 10.3628 17.0203 10.3628 17.9527V24.7067C10.3628 25.6392 11.1352 26.3953 12.09 26.3953H24.18C25.1345 26.3953 25.9072 25.6392 25.9072 24.7067V17.9527C25.9069 17.0203 25.1345 16.2642 24.1797 16.2642ZM22.4528 23.0182H13.817V19.6413H22.4525V23.0182H22.4528Z" fill="black"/>
</g>
<defs>
<clipPath id="clip0_253_119">
<rect width="128" height="93" fill="white"/>
</clipPath>
</defs>
</svg>
