<svg width="95" height="32" viewBox="0 0 95 32" fill="none" xmlns="http://www.w3.org/2000/svg">
<path d="M0 5C0 2.23858 2.23858 0 5 0H31V32H5C2.23858 32 0 29.7614 0 27V5Z" fill="#4E77B5"/>
<path d="M95 27C95 29.7614 92.7614 32 90 32L31 32V0L90 0C92.7614 0 95 2.23858 95 5V27Z" fill="#0D99FF"/>
<path d="M39.9574 19V10.2727H46.0426V11.9858H42.0668V13.7756H45.7315V15.4929H42.0668V17.2869H46.0426V19H39.9574ZM51.0582 12.4545V13.9886H46.929V12.4545H51.0582ZM47.794 10.8864H49.8778V16.9418C49.8778 17.0696 49.8977 17.1733 49.9375 17.2528C49.9801 17.3295 50.0412 17.3849 50.1207 17.419C50.2003 17.4503 50.2955 17.4659 50.4062 17.4659C50.4858 17.4659 50.5696 17.4588 50.6577 17.4446C50.7486 17.4276 50.8168 17.4134 50.8622 17.402L51.1776 18.9062C51.0781 18.9347 50.9375 18.9702 50.7557 19.0128C50.5767 19.0554 50.3622 19.0824 50.1122 19.0938C49.6236 19.1165 49.2045 19.0597 48.8551 18.9233C48.5085 18.7841 48.2429 18.5682 48.0582 18.2756C47.8764 17.983 47.7884 17.6151 47.794 17.1719V10.8864ZM54.3459 15.267V19H52.2621V10.2727H54.2777V13.6562H54.3501C54.4979 13.2528 54.7393 12.9375 55.0746 12.7102C55.4126 12.483 55.826 12.3693 56.3146 12.3693C56.7749 12.3693 57.1754 12.4716 57.5163 12.6761C57.8572 12.8778 58.1214 13.1634 58.3089 13.5327C58.4993 13.902 58.593 14.3338 58.5902 14.8281V19H56.5064V15.2372C56.5092 14.8736 56.4183 14.5895 56.2337 14.3849C56.049 14.1804 55.7891 14.0781 55.4538 14.0781C55.2351 14.0781 55.0419 14.1264 54.8743 14.223C54.7095 14.3168 54.5803 14.4517 54.4865 14.6278C54.3956 14.804 54.3487 15.017 54.3459 15.267ZM62.9506 19.1236C62.266 19.1236 61.6751 18.9886 61.1779 18.7188C60.6836 18.446 60.3029 18.0582 60.0359 17.5554C59.7717 17.0497 59.6396 16.4489 59.6396 15.7528C59.6396 15.0767 59.7731 14.4858 60.0401 13.9801C60.3072 13.4716 60.6836 13.0767 61.1694 12.7955C61.6552 12.5114 62.2276 12.3693 62.8867 12.3693C63.3526 12.3693 63.7788 12.4418 64.1651 12.5866C64.5515 12.7315 64.8853 12.946 65.1665 13.2301C65.4478 13.5142 65.6665 13.8651 65.8228 14.2827C65.979 14.6974 66.0572 15.1733 66.0572 15.7102V16.2301H60.3683V15.0199H64.1183C64.1154 14.7983 64.0629 14.6009 63.9606 14.4276C63.8583 14.2543 63.7177 14.1193 63.5387 14.0227C63.3626 13.9233 63.1594 13.8736 62.9293 13.8736C62.6964 13.8736 62.4876 13.9261 62.3029 14.0312C62.1183 14.1335 61.9719 14.2741 61.864 14.4531C61.756 14.6293 61.6992 14.8295 61.6935 15.054V16.2855C61.6935 16.5526 61.7461 16.7869 61.8512 16.9886C61.9563 17.1875 62.1055 17.3423 62.2987 17.4531C62.4918 17.5639 62.7219 17.6193 62.989 17.6193C63.1737 17.6193 63.3413 17.5937 63.4918 17.5426C63.6424 17.4915 63.7717 17.4162 63.8796 17.3168C63.9876 17.2173 64.0685 17.0952 64.1225 16.9503L66.0359 17.0057C65.9563 17.4347 65.7816 17.8082 65.5117 18.1264C65.2447 18.4418 64.8938 18.6875 64.4592 18.8636C64.0245 19.0369 63.5217 19.1236 62.9506 19.1236ZM67.1214 19V12.4545H69.1456V13.6477H69.2138C69.3331 13.2159 69.5277 12.8949 69.7976 12.6847C70.0675 12.4716 70.3814 12.3651 70.7393 12.3651C70.8359 12.3651 70.9354 12.3722 71.0376 12.3864C71.1399 12.3977 71.2351 12.4162 71.3232 12.4418V14.2528C71.2237 14.2187 71.093 14.1918 70.9311 14.1719C70.772 14.152 70.63 14.142 70.505 14.142C70.2578 14.142 70.0348 14.1974 69.8359 14.3082C69.6399 14.4162 69.4851 14.5682 69.3714 14.7642C69.2607 14.9574 69.2053 15.1847 69.2053 15.446V19H67.1214ZM75.038 10.2727H77.1175V16.3068C77.1147 16.8722 76.9798 17.3665 76.7127 17.7898C76.4457 18.2102 76.0763 18.5369 75.6048 18.7699C75.136 19.0028 74.5934 19.1193 73.9769 19.1193C73.4315 19.1193 72.9357 19.0241 72.4897 18.8338C72.0465 18.6435 71.6928 18.348 71.4286 17.9474C71.1673 17.5469 71.038 17.0341 71.0408 16.4091H73.1417C73.1502 16.6335 73.1928 16.8253 73.2695 16.9844C73.3491 17.1406 73.4585 17.2585 73.5977 17.3381C73.7369 17.4176 73.9031 17.4574 74.0962 17.4574C74.2979 17.4574 74.4684 17.4148 74.6076 17.3295C74.7468 17.2415 74.8519 17.1122 74.9229 16.9418C74.9968 16.7713 75.0352 16.5597 75.038 16.3068V10.2727ZM83.1591 12.8892C83.1307 12.5767 83.0043 12.3338 82.7798 12.1605C82.5582 11.9844 82.2415 11.8963 81.8295 11.8963C81.5568 11.8963 81.3295 11.9318 81.1477 12.0028C80.9659 12.0739 80.8295 12.1719 80.7386 12.2969C80.6477 12.419 80.6009 12.5597 80.598 12.7188C80.5923 12.8494 80.6179 12.9645 80.6747 13.0639C80.7344 13.1634 80.8196 13.2514 80.9304 13.3281C81.044 13.402 81.1804 13.4673 81.3395 13.5241C81.4986 13.581 81.6776 13.6307 81.8764 13.6733L82.6264 13.8438C83.0582 13.9375 83.4389 14.0625 83.7685 14.2188C84.1009 14.375 84.3793 14.5611 84.6037 14.777C84.831 14.9929 85.0028 15.2415 85.1193 15.5227C85.2358 15.804 85.2955 16.1193 85.2983 16.4688C85.2955 17.0199 85.1563 17.4929 84.8807 17.8878C84.6051 18.2827 84.2088 18.5852 83.6918 18.7955C83.1776 19.0057 82.5568 19.1108 81.8295 19.1108C81.0994 19.1108 80.4631 19.0014 79.9205 18.7827C79.3778 18.5639 78.956 18.2315 78.6548 17.7855C78.3537 17.3395 78.1989 16.7756 78.1903 16.0938H80.2102C80.2273 16.375 80.3026 16.6094 80.4361 16.7969C80.5696 16.9844 80.7528 17.1264 80.9858 17.223C81.2216 17.3196 81.4943 17.3679 81.804 17.3679C82.0881 17.3679 82.3295 17.3295 82.5284 17.2528C82.7301 17.1761 82.8849 17.0696 82.9929 16.9332C83.1009 16.7969 83.1563 16.6406 83.1591 16.4645C83.1563 16.2997 83.1051 16.1591 83.0057 16.0426C82.9063 15.9233 82.7528 15.821 82.5455 15.7358C82.3409 15.6477 82.0795 15.5668 81.7614 15.4929L80.8494 15.2798C80.0938 15.1065 79.4986 14.8267 79.0639 14.4403C78.6293 14.0511 78.4134 13.5256 78.4162 12.8636C78.4134 12.3239 78.5582 11.8509 78.8509 11.4446C79.1435 11.0384 79.5483 10.7216 80.0653 10.4943C80.5824 10.267 81.1719 10.1534 81.8338 10.1534C82.5099 10.1534 83.0966 10.2685 83.5938 10.4986C84.0938 10.7259 84.4815 11.0455 84.7571 11.4574C85.0327 11.8693 85.1733 12.3466 85.179 12.8892H83.1591Z" fill="white"/>
<g opacity="0.6">
<path d="M15.345 11.0117L7 14.7922L15.345 19.7033L23.6868 14.7922L15.345 11.0117Z" fill="#010101"/>
</g>
<g opacity="0.45">
<path d="M7 14.7922L15.345 19.7033V1L7 14.7922Z" fill="#010101"/>
</g>
<g opacity="0.8">
<path d="M15.345 1V19.7033L23.6868 14.7922L15.345 1Z" fill="#010101"/>
</g>
<g opacity="0.45">
<path d="M7 16.3672L15.345 28.078V21.2783L7 16.3672Z" fill="#010101"/>
</g>
<g opacity="0.8">
<path d="M15.345 21.2783V28.078L23.6933 16.3672L15.345 21.2783Z" fill="#010101"/>
</g>
</svg>
