<svg width="95" height="32" viewBox="0 0 95 32" fill="none" xmlns="http://www.w3.org/2000/svg">
<path d="M0 5C0 2.23858 2.23858 0 5 0H31V32H5C2.23858 32 0 29.7614 0 27V5Z" fill="#FDE068"/>
<path d="M95 27C95 29.7614 92.7614 32 90 32L31 32V0L90 0C92.7614 0 95 2.23858 95 5V27Z" fill="#F6820C"/>
<path d="M9 22.7433L9.1256 22.5674L15.0659 11.2959L15.0784 11.1766L12.4599 6.25785C12.2404 5.84583 11.6227 5.94996 11.5508 6.4112L9 22.7433Z" fill="#FFC24A"/>
<path d="M9.07416 22.6092L9.16912 22.4241L15.0466 11.2707L12.4352 6.33198C12.2181 5.92423 11.6668 6.02818 11.5951 6.48463L9.07416 22.6092Z" fill="#FFA712"/>
<path d="M9.07416 22.6092L9.16912 22.4241L15.0466 11.2707L12.4352 6.33198C12.2181 5.92423 11.6668 6.02818 11.5951 6.48463L9.07416 22.6092Z" fill="#F7AC52"/>
<path d="M16.9874 14.8973L18.9372 12.9005L16.9869 9.1773C16.8017 8.82487 16.2848 8.82386 16.1016 9.1773L15.0596 11.1652V11.3344L16.9874 14.8973Z" fill="#F4BD62"/>
<path d="M16.9526 14.8142L18.8481 12.873L16.9526 9.26355C16.7726 8.9204 16.3354 8.88502 16.1573 9.22805L15.1098 11.2455L15.0784 11.3487L16.9526 14.8142Z" fill="#FFA50E"/>
<path d="M16.9526 14.8142L18.8481 12.873L16.9526 9.26355C16.7726 8.9204 16.3354 8.88502 16.1573 9.22805L15.1098 11.2455L15.0784 11.3487L16.9526 14.8142Z" fill="#F7AC52"/>
<path d="M15.0651 11.1538L9 22.7436L9.05692 22.6863L9.26375 22.6023L16.865 15.0293L16.9612 14.7672L15.0651 11.1538Z" fill="#F6820C"/>
<path d="M17.2309 26.563L24.1101 22.7263L22.1462 10.6272C22.0847 10.2487 21.6203 10.099 21.3494 10.3704L9 22.7438L15.8398 26.5627C16.0524 26.6814 16.2918 26.7437 16.5353 26.7438C16.7788 26.7438 17.0183 26.6816 17.2309 26.563" fill="#FDE068"/>
<path d="M24.0485 22.6941L22.099 10.6873C22.038 10.3116 21.6517 10.1562 21.3829 10.4256L9.0769 22.7201L15.8416 26.5007C16.2705 26.7402 16.7929 26.7403 17.2221 26.5011L24.0485 22.6941Z" fill="#FCCA3F"/>
<path d="M17.2309 26.4498C16.799 26.691 16.272 26.6908 15.8397 26.4495L9.05502 22.6855L9 22.7437L15.8398 26.5626C16.2721 26.804 16.7985 26.804 17.2309 26.5629L24.1102 22.7262L24.0933 22.6226L17.2309 26.4498Z" fill="#EEAB37"/>
<path d="M38.055 21V12.2727H44.0124V13.9858H40.1644V15.7756H43.6332V17.4929H40.1644V21H38.055ZM45.0746 21V14.4545H47.1584V21H45.0746ZM46.1186 13.6918C45.826 13.6918 45.5746 13.5952 45.3643 13.402C45.1541 13.206 45.049 12.9702 45.049 12.6946C45.049 12.4219 45.1541 12.1889 45.3643 11.9957C45.5746 11.7997 45.826 11.7017 46.1186 11.7017C46.4141 11.7017 46.6655 11.7997 46.8729 11.9957C47.0831 12.1889 47.1882 12.4219 47.1882 12.6946C47.1882 12.9702 47.0831 13.206 46.8729 13.402C46.6655 13.5952 46.4141 13.6918 46.1186 13.6918ZM48.4847 21V14.4545H50.5089V15.6477H50.5771C50.6964 15.2159 50.891 14.8949 51.1609 14.6847C51.4308 14.4716 51.7447 14.3651 52.1026 14.3651C52.1992 14.3651 52.2987 14.3722 52.4009 14.3864C52.5032 14.3977 52.5984 14.4162 52.6864 14.4418V16.2528C52.587 16.2187 52.4563 16.1918 52.2944 16.1719C52.1353 16.152 51.9933 16.142 51.8683 16.142C51.6211 16.142 51.3981 16.1974 51.1992 16.3082C51.0032 16.4162 50.8484 16.5682 50.7347 16.7642C50.6239 16.9574 50.5685 17.1847 50.5685 17.446V21H48.4847ZM56.2553 21.1236C55.5707 21.1236 54.9798 20.9886 54.4826 20.7188C53.9883 20.446 53.6076 20.0582 53.3406 19.5554C53.0763 19.0497 52.9442 18.4489 52.9442 17.7528C52.9442 17.0767 53.0778 16.4858 53.3448 15.9801C53.6119 15.4716 53.9883 15.0767 54.4741 14.7955C54.9599 14.5114 55.5323 14.3693 56.1914 14.3693C56.6573 14.3693 57.0835 14.4418 57.4698 14.5866C57.8562 14.7315 58.19 14.946 58.4712 15.2301C58.7525 15.5142 58.9712 15.8651 59.1275 16.2827C59.2837 16.6974 59.3619 17.1733 59.3619 17.7102V18.2301H53.6729V17.0199H57.4229C57.4201 16.7983 57.3675 16.6009 57.2653 16.4276C57.163 16.2543 57.0224 16.1193 56.8434 16.0227C56.6673 15.9233 56.4641 15.8736 56.234 15.8736C56.0011 15.8736 55.7923 15.9261 55.6076 16.0312C55.4229 16.1335 55.2766 16.2741 55.1687 16.4531C55.0607 16.6293 55.0039 16.8295 54.9982 17.054V18.2855C54.9982 18.5526 55.0508 18.7869 55.1559 18.9886C55.261 19.1875 55.4102 19.3423 55.6033 19.4531C55.7965 19.5639 56.0266 19.6193 56.2937 19.6193C56.4783 19.6193 56.646 19.5937 56.7965 19.5426C56.9471 19.4915 57.0763 19.4162 57.1843 19.3168C57.2923 19.2173 57.3732 19.0952 57.4272 18.9503L59.3406 19.0057C59.261 19.4347 59.0863 19.8082 58.8164 20.1264C58.5494 20.4418 58.1985 20.6875 57.7638 20.8636C57.3292 21.0369 56.8263 21.1236 56.2553 21.1236ZM60.4261 21V12.2727H62.5099V15.5753H62.5526C62.6378 15.3764 62.7585 15.1847 62.9148 15C63.0739 14.8153 63.2756 14.6648 63.5199 14.5483C63.767 14.429 64.0625 14.3693 64.4062 14.3693C64.8608 14.3693 65.2855 14.4886 65.6804 14.7273C66.0781 14.9659 66.3991 15.3338 66.6435 15.831C66.8878 16.3281 67.0099 16.9616 67.0099 17.7315C67.0099 18.473 66.892 19.0938 66.6562 19.5938C66.4233 20.0938 66.108 20.4688 65.7102 20.7188C65.3153 20.9688 64.8764 21.0938 64.3935 21.0938C64.0639 21.0938 63.7784 21.0398 63.5369 20.9318C63.2955 20.8239 63.0923 20.6818 62.9276 20.5057C62.7656 20.3295 62.6406 20.1406 62.5526 19.9389H62.4886V21H60.4261ZM62.4673 17.7273C62.4673 18.0795 62.5142 18.3864 62.608 18.6477C62.7045 18.9091 62.8423 19.1122 63.0213 19.2571C63.2031 19.3991 63.4205 19.4702 63.6733 19.4702C63.929 19.4702 64.1463 19.3991 64.3253 19.2571C64.5043 19.1122 64.6392 18.9091 64.7301 18.6477C64.8239 18.3864 64.8707 18.0795 64.8707 17.7273C64.8707 17.375 64.8239 17.0696 64.7301 16.8111C64.6392 16.5526 64.5043 16.3523 64.3253 16.2102C64.1491 16.0682 63.9318 15.9972 63.6733 15.9972C63.4176 15.9972 63.2003 16.0668 63.0213 16.206C62.8423 16.3452 62.7045 16.544 62.608 16.8026C62.5142 17.0611 62.4673 17.3693 62.4673 17.7273ZM69.9471 21.1108C69.5295 21.1108 69.1587 21.0412 68.8349 20.902C68.5138 20.7599 68.2596 20.5469 68.0721 20.2628C67.8874 19.9759 67.7951 19.6165 67.7951 19.1847C67.7951 18.821 67.859 18.5142 67.9869 18.2642C68.1147 18.0142 68.2908 17.8111 68.5153 17.6548C68.7397 17.4986 68.9982 17.3807 69.2908 17.3011C69.5835 17.2187 69.896 17.1634 70.2283 17.1349C70.6005 17.1009 70.9002 17.0653 71.1275 17.0284C71.3548 16.9886 71.5195 16.9332 71.6218 16.8622C71.7269 16.7884 71.7795 16.6847 71.7795 16.5511V16.5298C71.7795 16.3111 71.7042 16.142 71.5536 16.0227C71.4031 15.9034 71.1999 15.8438 70.9442 15.8438C70.6687 15.8438 70.4471 15.9034 70.2795 16.0227C70.1119 16.142 70.0053 16.3068 69.9599 16.517L68.038 16.4489C68.0948 16.0511 68.2411 15.696 68.4769 15.3835C68.7156 15.0682 69.0423 14.821 69.457 14.642C69.8746 14.4602 70.3761 14.3693 70.9613 14.3693C71.3789 14.3693 71.7638 14.419 72.1161 14.5185C72.4684 14.6151 72.7752 14.7571 73.0366 14.9446C73.2979 15.1293 73.4996 15.3565 73.6417 15.6264C73.7866 15.8963 73.859 16.2045 73.859 16.5511V21H71.8988V20.0881H71.8477C71.7312 20.3097 71.582 20.4972 71.4002 20.6506C71.2212 20.804 71.0096 20.919 70.7653 20.9957C70.5238 21.0724 70.2511 21.1108 69.9471 21.1108ZM70.5906 19.7472C70.815 19.7472 71.0167 19.7017 71.1957 19.6108C71.3775 19.5199 71.5224 19.3949 71.6303 19.2358C71.7383 19.0739 71.7923 18.8864 71.7923 18.6733V18.0511C71.7326 18.0824 71.6602 18.1108 71.5749 18.1364C71.4925 18.1619 71.4016 18.1861 71.3022 18.2088C71.2028 18.2315 71.1005 18.2514 70.9954 18.2685C70.8903 18.2855 70.7894 18.3011 70.6928 18.3153C70.4968 18.3466 70.3292 18.3949 70.19 18.4602C70.0536 18.5256 69.9485 18.6108 69.8746 18.7159C69.8036 18.8182 69.7681 18.9403 69.7681 19.0824C69.7681 19.2983 69.8448 19.4631 69.9982 19.5767C70.1545 19.6903 70.3519 19.7472 70.5906 19.7472ZM80.8477 16.4531L78.9343 16.5043C78.9144 16.3679 78.8604 16.2472 78.7724 16.142C78.6843 16.0341 78.5692 15.9503 78.4272 15.8906C78.288 15.8281 78.1261 15.7969 77.9414 15.7969C77.6999 15.7969 77.494 15.8452 77.3235 15.9418C77.1559 16.0384 77.0735 16.169 77.0763 16.3338C77.0735 16.4616 77.1246 16.5724 77.2298 16.6662C77.3377 16.7599 77.5295 16.8352 77.805 16.892L79.0664 17.1307C79.7198 17.2557 80.2056 17.4631 80.5238 17.7528C80.8448 18.0426 81.0067 18.4261 81.0096 18.9034C81.0067 19.3523 80.8732 19.7429 80.609 20.0753C80.3477 20.4077 79.9897 20.6662 79.5352 20.8509C79.0806 21.0327 78.5607 21.1236 77.9755 21.1236C77.0408 21.1236 76.3036 20.9318 75.7638 20.5483C75.2269 20.1619 74.9201 19.6449 74.8434 18.9972L76.9016 18.946C76.9471 19.1847 77.065 19.3665 77.2553 19.4915C77.4457 19.6165 77.6886 19.679 77.984 19.679C78.2511 19.679 78.4684 19.6293 78.636 19.5298C78.8036 19.4304 78.8888 19.2983 78.8917 19.1335C78.8888 18.9858 78.8235 18.8679 78.6957 18.7798C78.5678 18.6889 78.3675 18.6179 78.0948 18.5668L76.9528 18.3494C76.2965 18.2301 75.8079 18.0099 75.4869 17.6889C75.1658 17.3651 75.0067 16.9531 75.0096 16.4531C75.0067 16.0156 75.1232 15.642 75.359 15.3324C75.5948 15.0199 75.93 14.7812 76.3647 14.6165C76.7994 14.4517 77.3121 14.3693 77.9031 14.3693C78.7894 14.3693 79.4883 14.5554 79.9996 14.9276C80.511 15.2969 80.7937 15.8054 80.8477 16.4531ZM85.0952 21.1236C84.4105 21.1236 83.8196 20.9886 83.3224 20.7188C82.8281 20.446 82.4474 20.0582 82.1804 19.5554C81.9162 19.0497 81.7841 18.4489 81.7841 17.7528C81.7841 17.0767 81.9176 16.4858 82.1847 15.9801C82.4517 15.4716 82.8281 15.0767 83.3139 14.7955C83.7997 14.5114 84.3722 14.3693 85.0312 14.3693C85.4972 14.3693 85.9233 14.4418 86.3097 14.5866C86.696 14.7315 87.0298 14.946 87.3111 15.2301C87.5923 15.5142 87.8111 15.8651 87.9673 16.2827C88.1236 16.6974 88.2017 17.1733 88.2017 17.7102V18.2301H82.5128V17.0199H86.2628C86.2599 16.7983 86.2074 16.6009 86.1051 16.4276C86.0028 16.2543 85.8622 16.1193 85.6832 16.0227C85.5071 15.9233 85.304 15.8736 85.0739 15.8736C84.8409 15.8736 84.6321 15.9261 84.4474 16.0312C84.2628 16.1335 84.1165 16.2741 84.0085 16.4531C83.9006 16.6293 83.8438 16.8295 83.8381 17.054V18.2855C83.8381 18.5526 83.8906 18.7869 83.9957 18.9886C84.1009 19.1875 84.25 19.3423 84.4432 19.4531C84.6364 19.5639 84.8665 19.6193 85.1335 19.6193C85.3182 19.6193 85.4858 19.5937 85.6364 19.5426C85.7869 19.4915 85.9162 19.4162 86.0241 19.3168C86.1321 19.2173 86.2131 19.0952 86.267 18.9503L88.1804 19.0057C88.1009 19.4347 87.9261 19.8082 87.6562 20.1264C87.3892 20.4418 87.0384 20.6875 86.6037 20.8636C86.169 21.0369 85.6662 21.1236 85.0952 21.1236Z" fill="white"/>
</svg>
