<svg width="22" height="22" viewBox="0 0 22 22" fill="none" xmlns="http://www.w3.org/2000/svg">
<path d="M19.7 11.35C19.7 15.9616 15.9616 19.7 11.35 19.7C6.73842 19.7 3 15.9616 3 11.35C3 6.73842 6.73842 3 11.35 3C15.9616 3 19.7 6.73842 19.7 11.35Z" fill="white"/>
<path fill-rule="evenodd" clip-rule="evenodd" d="M3.00019 11.35C3.00019 15.9616 6.73857 19.7 11.3502 19.7C15.9618 19.7 19.7002 15.9616 19.7002 11.35C19.7002 6.73842 15.9618 3 11.3502 3C6.73857 3 3.00019 6.73842 3.00019 11.35ZM13.7163 14.6729H15.3368C15.6774 14.6729 15.8456 14.6729 15.9481 14.6073C16.0589 14.5355 16.1266 14.4165 16.1348 14.2852C16.1409 14.1642 16.0568 14.0165 15.8886 13.7211L11.8874 6.66839C11.7172 6.3689 11.631 6.21915 11.5223 6.16377C11.4054 6.10429 11.2659 6.10429 11.149 6.16377C11.0402 6.21915 10.9541 6.3689 10.7838 6.66839L9.96127 8.10427L9.95708 8.1116C9.77319 8.43289 9.67994 8.59582 9.63922 8.76683C9.5941 8.95349 9.5941 9.15042 9.63922 9.33708C9.68025 9.50939 9.77256 9.6735 9.95922 9.99965L12.061 13.7149L12.0664 13.7244C12.2515 14.0484 12.3453 14.2126 12.4753 14.3364C12.6169 14.4719 12.7871 14.5703 12.9738 14.6257C13.144 14.6729 13.3348 14.6729 13.7163 14.6729ZM9.62405 14.6729H7.30206C6.9595 14.6729 6.78716 14.6729 6.68454 14.6053C6.57379 14.5335 6.50408 14.4124 6.49786 14.2812C6.49196 14.1641 6.57424 14.0221 6.73546 13.7439C6.74102 13.7344 6.74658 13.7248 6.75225 13.715L7.91535 11.7253L7.92859 11.7028C8.09203 11.4265 8.17453 11.2869 8.28049 11.2329C8.39734 11.1734 8.53488 11.1734 8.65174 11.2329C8.75842 11.2883 8.84456 11.434 9.01482 11.7273L10.1738 13.717L10.1778 13.7239C10.3474 14.0167 10.4322 14.1631 10.4261 14.2832C10.4179 14.4145 10.3502 14.5355 10.2394 14.6073C10.1389 14.6729 9.96661 14.6729 9.62405 14.6729Z" fill="white"/>
<path fill-rule="evenodd" clip-rule="evenodd" d="M3.00019 11.35C3.00019 15.9616 6.73857 19.7 11.3502 19.7C15.9618 19.7 19.7002 15.9616 19.7002 11.35C19.7002 6.73842 15.9618 3 11.3502 3C6.73857 3 3.00019 6.73842 3.00019 11.35ZM13.7163 14.6729H15.3368C15.6774 14.6729 15.8456 14.6729 15.9481 14.6073C16.0589 14.5355 16.1266 14.4165 16.1348 14.2852C16.1409 14.1642 16.0568 14.0165 15.8886 13.7211L11.8874 6.66839C11.7172 6.3689 11.631 6.21915 11.5223 6.16377C11.4054 6.10429 11.2659 6.10429 11.149 6.16377C11.0402 6.21915 10.9541 6.3689 10.7838 6.66839L9.96127 8.10427L9.95708 8.1116C9.77319 8.43289 9.67994 8.59582 9.63922 8.76683C9.5941 8.95349 9.5941 9.15042 9.63922 9.33708C9.68025 9.50939 9.77256 9.6735 9.95922 9.99965L12.061 13.7149L12.0664 13.7244C12.2515 14.0484 12.3453 14.2126 12.4753 14.3364C12.6169 14.4719 12.7871 14.5703 12.9738 14.6257C13.144 14.6729 13.3348 14.6729 13.7163 14.6729ZM9.62405 14.6729H7.30206C6.9595 14.6729 6.78716 14.6729 6.68454 14.6053C6.57379 14.5335 6.50408 14.4124 6.49786 14.2812C6.49196 14.1641 6.57424 14.0221 6.73546 13.7439C6.74102 13.7344 6.74658 13.7248 6.75225 13.715L7.91535 11.7253L7.92859 11.7028C8.09203 11.4265 8.17453 11.2869 8.28049 11.2329C8.39734 11.1734 8.53488 11.1734 8.65174 11.2329C8.75842 11.2883 8.84456 11.434 9.01482 11.7273L10.1738 13.717L10.1778 13.7239C10.3474 14.0167 10.4322 14.1631 10.4261 14.2832C10.4179 14.4145 10.3502 14.5355 10.2394 14.6073C10.1389 14.6729 9.96661 14.6729 9.62405 14.6729Z" fill="#E84142"/>
</svg>
