<svg width="22" height="22" viewBox="0 0 22 22" fill="none" xmlns="http://www.w3.org/2000/svg">
<path d="M14.168 5.65905L11.8416 9.11381C11.8039 9.16367 11.7865 9.22599 11.7928 9.28817C11.7992 9.35038 11.8288 9.40787 11.8758 9.44909C11.9228 9.4903 11.9836 9.51219 12.0461 9.51035C12.1086 9.5085 12.168 9.48306 12.2124 9.43914L14.5017 7.46002C14.515 7.44791 14.5314 7.43995 14.5491 7.4371C14.5668 7.43428 14.5849 7.4367 14.6012 7.44407C14.6175 7.45143 14.6313 7.46346 14.6409 7.47861C14.6505 7.49376 14.6554 7.51137 14.655 7.52931V13.7499C14.6548 13.7688 14.6489 13.7871 14.638 13.8026C14.6271 13.818 14.6117 13.8297 14.594 13.8361C14.5763 13.8426 14.557 13.8435 14.5387 13.8387C14.5205 13.8339 14.5041 13.8236 14.4919 13.8092L7.5696 5.52174C7.45907 5.3887 7.32082 5.28143 7.16453 5.20752C7.00822 5.13358 6.83763 5.09475 6.66475 5.09377H6.42371C6.10932 5.09377 5.80779 5.21874 5.58549 5.44121C5.36316 5.66366 5.23828 5.96539 5.23828 6.27999V15.04C5.23828 15.3546 5.36316 15.6563 5.58549 15.8788C5.80779 16.1013 6.10932 16.2262 6.42371 16.2262C6.6263 16.2262 6.82547 16.1742 7.00229 16.0753C7.17907 15.9763 7.32759 15.8337 7.43362 15.6609L9.75998 12.2062C9.7977 12.1563 9.81511 12.094 9.80878 12.0318C9.80244 11.9696 9.77279 11.9121 9.72581 11.8709C9.67881 11.8297 9.61799 11.8078 9.55553 11.8096C9.49306 11.8115 9.43363 11.8369 9.38917 11.8809L7.09987 13.86C7.08666 13.8721 7.07019 13.88 7.05251 13.8829C7.03483 13.8857 7.01672 13.8833 7.00039 13.8759C6.98406 13.8685 6.97028 13.8565 6.96072 13.8414C6.95114 13.8262 6.94624 13.8086 6.94659 13.7907V7.57629C6.94678 7.5574 6.95271 7.53903 6.96362 7.52362C6.97453 7.5082 6.98988 7.49649 7.00762 7.49002C7.02536 7.48357 7.04463 7.4827 7.06288 7.4875C7.08113 7.49229 7.09749 7.50256 7.10975 7.51692L14.032 15.8044C14.1434 15.9363 14.2821 16.0422 14.4386 16.1149C14.5951 16.1875 14.7656 16.2251 14.9381 16.225H15.1853C15.341 16.225 15.4951 16.1943 15.639 16.1347C15.7828 16.0751 15.9135 15.9877 16.0235 15.8775C16.1336 15.7674 16.2209 15.6366 16.2805 15.4927C16.3401 15.3488 16.3708 15.1945 16.3708 15.0388V6.27999C16.3708 6.1236 16.3399 5.96872 16.2798 5.82431C16.2198 5.67992 16.1318 5.54881 16.0209 5.43856C15.9101 5.32831 15.7785 5.24109 15.6338 5.18191C15.4892 5.12274 15.3342 5.09277 15.1779 5.09377C14.9753 5.09377 14.7761 5.14577 14.5993 5.24472C14.4225 5.34367 14.274 5.48632 14.168 5.65905Z" fill="white"/>
</svg>
