<svg width="22" height="22" viewBox="0 0 22 22" fill="none" xmlns="http://www.w3.org/2000/svg">
<path d="M8.27576 16.1914C8.27952 16.1914 8.28325 16.1922 8.28672 16.1936C8.29019 16.1951 8.29333 16.1973 8.29595 16.2C8.29858 16.2027 8.30064 16.206 8.30201 16.2095C8.30338 16.2131 8.30403 16.2168 8.30393 16.2206V17.4478C8.30393 18.0302 7.9438 18.3165 7.46642 18.3165C6.98904 18.3165 6.62891 18.0302 6.62891 17.4478V16.2206C6.62891 16.2129 6.63195 16.2055 6.63738 16.2C6.64281 16.1945 6.65017 16.1914 6.65784 16.1914H6.94564C6.95318 16.1916 6.96034 16.1948 6.96561 16.2002C6.97087 16.2057 6.97381 16.213 6.97381 16.2206V17.4286C6.97381 17.8348 7.18395 17.9956 7.47023 17.9956C7.7565 17.9956 7.96588 17.8348 7.96588 17.4286V16.2206C7.96588 16.2129 7.96893 16.2055 7.97435 16.2C7.97978 16.1945 7.98714 16.1914 7.99481 16.1914H8.27576Z" fill="white"/>
<path d="M13.226 17.2375C13.2273 17.452 13.1654 17.662 13.0483 17.841C12.9313 18.0199 12.7643 18.1598 12.5685 18.2427C12.3727 18.3256 12.157 18.348 11.9486 18.3069C11.7403 18.2658 11.5487 18.1631 11.3982 18.0118C11.2476 17.8606 11.1449 17.6676 11.1031 17.4572C11.0612 17.2469 11.0821 17.0288 11.163 16.8305C11.244 16.6322 11.3814 16.4626 11.5578 16.3433C11.7342 16.224 11.9417 16.1603 12.154 16.1603C12.295 16.1577 12.435 16.1838 12.5659 16.2369C12.6967 16.2901 12.8156 16.3692 12.9156 16.4697C13.0156 16.5701 13.0946 16.6899 13.1479 16.8217C13.2012 16.9536 13.2278 17.095 13.226 17.2375ZM11.4185 17.2375C11.4217 17.3834 11.4674 17.5251 11.5498 17.6449C11.6323 17.7647 11.7479 17.8572 11.8822 17.9109C12.0165 17.9647 12.1634 17.9771 12.3047 17.9469C12.446 17.9166 12.5752 17.8448 12.6764 17.7406C12.7775 17.6365 12.8459 17.5044 12.8731 17.3611C12.9004 17.2178 12.8851 17.0696 12.8294 16.9349C12.7736 16.8003 12.6798 16.6853 12.5597 16.6043C12.4395 16.5233 12.2984 16.48 12.154 16.4796C12.0558 16.478 11.9582 16.4966 11.8673 16.5343C11.7764 16.572 11.694 16.628 11.6252 16.6989C11.5564 16.7698 11.5026 16.8541 11.467 16.9467C11.4315 17.0393 11.415 17.1382 11.4185 17.2375Z" fill="white"/>
<path d="M16.157 18.2819H15.8646C15.8599 18.2819 15.8553 18.2807 15.8512 18.2784C15.847 18.2762 15.8435 18.2729 15.8409 18.269C15.8382 18.2651 15.8366 18.2605 15.8361 18.2558C15.8356 18.2511 15.8362 18.2463 15.838 18.2419L16.6138 16.223C16.6168 16.2147 16.6223 16.2076 16.6296 16.2026C16.6368 16.1977 16.6454 16.1951 16.6542 16.1953H17.0196C17.0283 16.1953 17.0368 16.198 17.044 16.2029C17.0512 16.2078 17.0568 16.2149 17.06 16.223L17.832 18.2419C17.8337 18.2463 17.8344 18.2511 17.8339 18.2558C17.8334 18.2605 17.8317 18.2651 17.8291 18.269C17.8265 18.2729 17.823 18.2762 17.8188 18.2784C17.8147 18.2807 17.8101 18.2819 17.8054 18.2819H17.513C17.5072 18.2817 17.5016 18.2798 17.4968 18.2763C17.4921 18.2729 17.4884 18.2682 17.4863 18.2627L16.8628 16.6008C16.8609 16.5952 16.8573 16.5903 16.8525 16.5869C16.8477 16.5834 16.842 16.5816 16.8361 16.5816C16.8303 16.5816 16.8245 16.5834 16.8198 16.5869C16.815 16.5903 16.8114 16.5952 16.8095 16.6008L16.1852 18.2627C16.1832 18.2685 16.1794 18.2736 16.1743 18.2771C16.1692 18.2805 16.1631 18.2822 16.157 18.2819Z" fill="white"/>
<path d="M4.45386 18.2819H4.1615C4.1568 18.2819 4.15218 18.2807 4.14804 18.2784C4.1439 18.2762 4.14037 18.2729 4.13774 18.269C4.13512 18.2651 4.13348 18.2605 4.13298 18.2558C4.13248 18.2511 4.13312 18.2463 4.13485 18.2419L4.90764 16.223C4.91085 16.2149 4.91641 16.2078 4.9236 16.2029C4.9308 16.198 4.9393 16.1953 4.948 16.1953H5.31346C5.3222 16.1951 5.3308 16.1977 5.33804 16.2026C5.34527 16.2076 5.35079 16.2147 5.35381 16.223L6.12737 18.2419C6.1291 18.2463 6.12974 18.2511 6.12923 18.2558C6.12873 18.2605 6.12709 18.2651 6.12447 18.269C6.12185 18.2729 6.11831 18.2762 6.11417 18.2784C6.11004 18.2807 6.10542 18.2819 6.10072 18.2819H5.80759C5.80172 18.2819 5.79599 18.2801 5.79121 18.2766C5.78644 18.2732 5.78284 18.2683 5.78094 18.2627L5.15737 16.6008C5.15528 16.5953 5.15158 16.5905 5.14675 16.5871C5.14193 16.5838 5.13621 16.582 5.13035 16.582C5.12449 16.582 5.11876 16.5838 5.11394 16.5871C5.10911 16.5905 5.10541 16.5953 5.10332 16.6008L4.47975 18.2627C4.47772 18.2681 4.47419 18.2727 4.4696 18.2761C4.46501 18.2795 4.45955 18.2815 4.45386 18.2819Z" fill="white"/>
<path d="M15.2992 18.235L14.7191 17.4856C15.0465 17.4233 15.2383 17.1994 15.2383 16.857C15.2383 16.4638 14.9848 16.1953 14.5363 16.1953H13.727C13.7155 16.1953 13.7044 16.1999 13.6963 16.2082C13.6882 16.2164 13.6836 16.2275 13.6836 16.2392C13.6838 16.3129 13.7129 16.3835 13.7646 16.4356C13.8163 16.4877 13.8862 16.5169 13.9592 16.5169H14.5005C14.7724 16.5169 14.9018 16.6577 14.9018 16.8601C14.9018 17.0624 14.7754 17.2055 14.5005 17.2055H13.727C13.7155 17.2057 13.7046 17.2104 13.6965 17.2186C13.6884 17.2268 13.6838 17.2378 13.6836 17.2494V18.2496C13.6836 18.2573 13.6866 18.2648 13.6921 18.2703C13.6975 18.2757 13.7049 18.2788 13.7125 18.2788H13.9889C13.9964 18.2786 14.0036 18.2754 14.0089 18.27C14.0141 18.2645 14.0171 18.2572 14.0171 18.2496V17.5064H14.3323L14.8363 18.1703C14.8631 18.2058 14.8977 18.2345 14.9373 18.2543C14.977 18.274 15.0206 18.2843 15.0647 18.2842H15.2741C15.2801 18.2851 15.2862 18.2841 15.2916 18.2813C15.297 18.2786 15.3014 18.2741 15.3042 18.2687C15.3069 18.2633 15.3079 18.2571 15.3071 18.251C15.3062 18.245 15.3034 18.2394 15.2992 18.235Z" fill="white"/>
<path d="M10.6156 18.235L10.0355 17.4856C10.3629 17.4233 10.5547 17.1994 10.5547 16.857C10.5547 16.4638 10.3012 16.1953 9.85274 16.1953H9.0434C9.03189 16.1953 9.02085 16.1999 9.01271 16.2082C9.00457 16.2164 9 16.2275 9 16.2392C9.0002 16.3129 9.02933 16.3835 9.08099 16.4356C9.13266 16.4877 9.20265 16.5169 9.27562 16.5169H9.81695C10.0888 16.5169 10.2182 16.6577 10.2182 16.8601C10.2182 17.0624 10.0918 17.2055 9.81695 17.2055H9.0434C9.03195 17.2057 9.02102 17.2104 9.01293 17.2186C9.00483 17.2268 9.0002 17.2378 9 17.2494V18.2496C9 18.2573 9.00305 18.2648 9.00847 18.2703C9.0139 18.2757 9.02126 18.2788 9.02893 18.2788H9.30683C9.31437 18.2786 9.32154 18.2754 9.3268 18.27C9.33206 18.2645 9.33501 18.2572 9.335 18.2496V17.5064H9.65402L10.1573 18.1703C10.1841 18.2058 10.2187 18.2345 10.2583 18.2543C10.2979 18.274 10.3415 18.2843 10.3857 18.2842H10.5951C10.6007 18.2841 10.6061 18.2824 10.6108 18.2792C10.6154 18.276 10.619 18.2715 10.6212 18.2663C10.6234 18.2611 10.624 18.2554 10.623 18.2498C10.622 18.2442 10.6195 18.2391 10.6156 18.235Z" fill="white"/>
<path d="M10.9782 3.8893C11.2046 3.88857 11.4266 3.95189 11.6191 4.07209C11.8117 4.1923 11.9671 4.36458 12.0678 4.56944L15.4939 11.4939C15.5869 11.6816 15.6308 11.8902 15.6215 12.0999C15.6122 12.3096 15.55 12.5133 15.4409 12.6919C15.3317 12.8704 15.1792 13.0178 14.9978 13.12C14.8164 13.2222 14.6121 13.2759 14.4044 13.2758H7.55204C7.34435 13.2759 7.1401 13.2222 6.9587 13.12C6.7773 13.0178 6.62476 12.8704 6.51559 12.6919C6.40642 12.5133 6.34424 12.3096 6.33495 12.0999C6.32566 11.8902 6.36957 11.6816 6.46251 11.4939L9.8887 4.56944C9.98936 4.36458 10.1448 4.1923 10.3373 4.07209C10.5299 3.95189 10.7519 3.88857 10.9782 3.8893ZM10.9782 3.04297C10.5965 3.04292 10.2223 3.15029 9.89753 3.35304C9.57277 3.55579 9.3103 3.84591 9.13951 4.1909L5.71332 11.1154C5.55652 11.4321 5.48245 11.7841 5.49816 12.1379C5.51387 12.4917 5.61882 12.8356 5.80306 13.1369C5.98729 13.4381 6.24469 13.6868 6.5508 13.8593C6.85691 14.0317 7.20157 14.1222 7.55204 14.1222H14.4044C14.7549 14.1222 15.0995 14.0317 15.4056 13.8593C15.7118 13.6868 15.9692 13.4381 16.1534 13.1369C16.3376 12.8356 16.4426 12.4917 16.4583 12.1379C16.474 11.7841 16.3999 11.4321 16.2431 11.1154L12.8169 4.1909C12.6462 3.84591 12.3837 3.55579 12.0589 3.35304C11.7342 3.15029 11.36 3.04292 10.9782 3.04297Z" fill="white"/>
</svg>
