<svg width="22" height="22" viewBox="0 0 22 22" fill="none" xmlns="http://www.w3.org/2000/svg">
<g clip-path="url(#clip0_4301_24517)">
<path d="M17.0836 10.8742V13.603C17.0826 13.7731 17.0377 13.9401 16.9531 14.0876C16.8686 14.2351 16.7473 14.3581 16.6012 14.4445L14.2457 15.8061C14.0998 15.8933 13.9331 15.9394 13.7633 15.9394C13.5934 15.9394 13.4268 15.8933 13.2809 15.8061L10.9254 14.4445C10.7793 14.3581 10.658 14.2351 10.5735 14.0876C10.4889 13.9401 10.444 13.7731 10.443 13.603V12.8371L11.649 12.1346V13.4659L13.7595 14.695L15.8701 13.4659V11.0132L13.7595 9.78396L8.81486 12.6584C8.66761 12.7416 8.50145 12.7854 8.33244 12.7854C8.16343 12.7854 7.9973 12.7416 7.85004 12.6584L5.49453 11.2912C5.35069 11.2034 5.23177 11.08 5.14926 10.9328C5.06674 10.7856 5.02341 10.6195 5.02344 10.4506V7.72176C5.02441 7.5516 5.06939 7.38461 5.15394 7.2371C5.23851 7.0896 5.35976 6.96663 5.50584 6.88025L7.86135 5.51869C8.00754 5.43228 8.1741 5.38672 8.34375 5.38672C8.51341 5.38672 8.67998 5.43228 8.82617 5.51869L11.1817 6.88025C11.3278 6.96663 11.449 7.0896 11.5336 7.2371C11.6181 7.38461 11.6631 7.5516 11.6641 7.72176V8.48764L10.4505 9.18545V7.86172L8.33999 6.63253L6.22945 7.86172V10.3116L8.33999 11.5408L13.2846 8.66635C13.4319 8.58309 13.5981 8.53935 13.7671 8.53935C13.9361 8.53935 14.1022 8.58309 14.2495 8.66635L16.605 10.0336C16.7502 10.1204 16.8706 10.2434 16.9545 10.3907C17.0384 10.538 17.0829 10.7045 17.0836 10.8742Z" fill="white"/>
</g>
<defs>
<clipPath id="clip0_4301_24517">
<rect width="18.0903" height="18.0903" fill="white" transform="translate(2.00391 1.61719)"/>
</clipPath>
</defs>
</svg>
