<svg width="62" height="21" viewBox="0 0 62 21" fill="none" xmlns="http://www.w3.org/2000/svg">
<g clip-path="url(#clip0_4301_24465)">
<path d="M3.45686 10.9354C3.36438 10.5317 3.24958 10.1399 2.98489 9.82693C2.62454 9.4017 1.99312 9.11264 0.743034 9.10547L0.7239 9.6382C1.16717 9.62865 1.59449 9.65971 1.95485 9.83171C2.26418 9.97744 2.52249 10.2187 2.72021 10.6201C1.63276 10.3429 1.01729 10.4266 0.580396 10.6368C0.353978 10.7467 0.175394 10.8924 0 11.0405L0.494293 11.3797C0.522994 11.3487 0.554884 11.32 0.580396 11.2937C1.10977 10.8231 1.72524 10.8375 2.3758 11.0979C0.969453 11.6067 0.743034 12.4978 0.816381 13.1404C0.880161 13.1476 1.50839 13.1404 1.50839 13.1404C1.4478 12.5145 2.04414 11.676 3.28147 11.4228L3.46643 11.1385L3.45686 10.9354Z" fill="#8000DB"/>
<path d="M12.716 5.42089C14.8016 3.25411 15.8285 2.17908 15.0057 1.65829C14.4604 1.31667 13.7237 1.55795 12.5342 2.22447C12.4928 2.93638 12.2632 3.94929 11.957 5.29427L12.716 5.42089Z" fill="#008298"/>
<path d="M14.0401 18.4102H13.2748C13.2557 19.2296 13.2844 20.0729 12.1172 20.3428C12.1555 20.3452 12.1969 20.35 12.2416 20.3524C12.3659 20.3619 12.4871 20.3548 12.6051 20.3357C14.0561 20.0585 14.0178 19.2224 14.0401 18.4102Z" fill="#580098"/>
<path d="M14.8632 18.412L14.0563 16.9811H14.809L14.1775 15.6289H13.1315L13.6195 16.9811H13.0391L13.6609 18.412H14.034H14.8632Z" fill="#98005E"/>
<path d="M12.1139 20.3428C13.2811 20.0729 13.2524 19.2343 13.2715 18.4102H10.5003C10.4844 19.6309 11.0711 20.2258 12.1139 20.3428Z" fill="#8000DB"/>
<path d="M13.0405 16.9819H13.6177L13.133 15.6346L10.3139 15.625L9.66016 17.0249L10.3745 17.0655L9.66016 18.4129H13.6687L13.0405 16.9819Z" fill="#FF009E"/>
<path d="M7.19368 17.0347L6.44746 15.6157L5.40147 15.6133L5.91809 17.006H5.32812L5.96592 18.4514L7.28935 18.4609L6.36774 17.0299L7.19368 17.0347Z" fill="#98005E"/>
<path d="M5.31975 17H5.90971L5.39628 15.6072L2.53576 15.5977L1.84375 17.043L2.57403 17.0836L1.84375 18.4429L5.95436 18.4501L5.31975 17Z" fill="#FF009E"/>
<path d="M11.8472 0.941959C10.7247 0.738898 10.071 2.08149 8.44141 4.70456L11.9589 5.28985C12.2618 3.94487 12.4946 2.93195 12.5361 2.22005C12.5807 1.46036 12.4021 1.04707 11.8472 0.941959Z" fill="#00BEDD"/>
<path d="M13.9973 14.251L14.9253 14.2964L13.9367 12.8176H14.7499L14.0164 11.4727H13.3882H12.8429L13.503 12.8176H12.7695L13.6593 14.2964L12.8237 14.251L13.7135 15.6366L14.9827 15.639L13.9973 14.251Z" fill="#FF9900"/>
<path d="M14.9265 10.0833L14.244 8.65234H12.9238L13.4851 10.0833H12.6719L13.3862 11.4737H14.8021L13.9315 10.0833H14.9265Z" fill="#008298"/>
<path d="M8.44965 4.70703C8.44328 4.7142 8.44328 4.70703 8.44965 4.70703L6.88705 7.03626L7.75127 7.05059L6.71484 8.65358H14.2345L13.2618 8.3454C13.1151 8.30001 13.0259 8.21162 13.0641 8.1519C13.0673 8.14473 13.0737 8.14234 13.0769 8.13756C13.1215 8.08979 13.2555 8.08262 13.3894 8.12323L13.4309 8.13756L14.1133 8.35496L14.7033 8.5413V5.751L8.44965 4.70703Z" fill="#FFE001"/>
<path d="M12.2289 7.36512C12.7009 7.36512 13.0868 7.07845 13.0868 6.71772C13.0868 6.36176 12.7041 6.07031 12.2289 6.07031C11.757 6.07031 11.3711 6.35699 11.3711 6.71772C11.3711 7.07845 11.7602 7.36512 12.2289 7.36512ZM12.2289 6.3976C12.4649 6.3976 12.6594 6.54332 12.6594 6.72011C12.6594 6.89689 12.4649 7.04262 12.2289 7.04262C11.9929 7.04262 11.7984 6.89689 11.7984 6.72011C11.8016 6.54332 11.9929 6.3976 12.2289 6.3976Z" fill="white"/>
<path d="M12.2574 7.03818C12.4934 7.02862 12.672 6.87573 12.6593 6.69656C12.6465 6.51978 12.4424 6.38122 12.2032 6.39555C11.9673 6.40511 11.7887 6.558 11.8014 6.73717C11.8142 6.91395 12.0215 7.05012 12.2574 7.03818Z" fill="white"/>
<path d="M14.6965 8.65383V8.53916L13.4241 8.13065L13.3827 8.11631C13.2487 8.0757 13.1212 8.08287 13.0702 8.13065C13.067 8.13304 13.0606 8.1402 13.0574 8.14498C13.0255 8.2047 13.1116 8.29309 13.2551 8.33848L14.2278 8.64666H14.2469L14.6965 8.65383Z" fill="white"/>
<path d="M12.6746 10.0833H13.4814L12.9233 8.65234H7.62003L6.81641 10.0833H7.62322L6.86105 11.4689H6.87062V11.4713C6.88975 11.4713 6.90889 11.4713 6.92483 11.4713H12.834H13.3825L12.6746 10.0833Z" fill="#00BEDD"/>
<path d="M6.85848 11.4705L3.4622 11.1289L2.42578 12.7128H3.1146C3.05082 12.7773 2.97748 12.8513 2.91051 12.9278L3.86402 13.5991L5.10134 12.7223L6.30678 13.6206L7.54411 12.7438L8.78144 13.6206L9.98687 12.7223L10.0251 12.751L11.221 13.5967L12.4583 12.7199L12.9303 13.0687L12.7836 12.8203H13.5171L12.857 11.4729H10.0156H6.87761H6.86804" fill="#FFE001"/>
<path d="M12.8268 14.2466L13.6623 14.2873L13.4901 14.0077L12.4473 13.2266L11.2163 14.1535L9.97901 13.2266L8.74806 14.1559L7.53944 13.2505L6.30211 14.1272L5.10624 13.2361L3.87529 14.163L2.64434 13.2409C2.56462 13.3412 2.08308 13.9695 1.91406 14.2084L2.85481 14.249L2.0193 15.5964L13.7293 15.6346L12.8268 14.2466Z" fill="#FFE001"/>
<path d="M12.9283 13.0645L12.4563 12.7109L11.219 13.5877L9.98168 12.7109L8.77943 13.6092L7.5421 12.7324L6.30796 13.6092L5.10252 12.7109L3.8652 13.5877L2.91169 12.9164C2.82559 13.0167 2.72673 13.1194 2.64062 13.2341L3.87157 14.1563L5.10252 13.2293L6.29839 14.1204L7.53572 13.2437L8.74435 14.1491L9.98168 13.2222L11.219 14.1491L12.45 13.2222L13.4928 14.0034L12.9283 13.0645Z" fill="white"/>
<path d="M5.57557 18.4453C5.55644 19.2719 5.58833 20.1176 4.41797 20.3899C4.48813 20.3971 4.56147 20.4043 4.63482 20.4066C4.69541 20.409 4.76557 20.4066 4.82297 20.3971C4.87718 20.3875 4.93458 20.3756 4.98561 20.366C5.05896 20.3493 5.13868 20.3326 5.20246 20.3135C5.24711 20.2991 5.28856 20.2848 5.3364 20.2729C5.3651 20.2633 5.39061 20.2514 5.41612 20.2418C5.44163 20.2322 5.46715 20.2203 5.48947 20.2107C5.52774 20.194 5.56282 20.1773 5.60108 20.1582C5.62341 20.1486 5.64254 20.1343 5.66486 20.1247C5.70951 20.0961 5.75734 20.0698 5.7988 20.0387C5.84026 20.0077 5.88171 19.9742 5.92317 19.9384C5.93593 19.9241 5.95187 19.9145 5.96463 19.9002C5.98376 19.8835 5.99652 19.8667 6.00927 19.8476C6.03797 19.8142 6.06349 19.776 6.089 19.7401C6.10175 19.7234 6.11132 19.7019 6.12727 19.6852C6.13046 19.6756 6.14002 19.6637 6.1464 19.6541C6.15597 19.6398 6.15916 19.6231 6.16872 19.6087C6.17191 19.6016 6.17829 19.5944 6.17829 19.5848C6.19105 19.5538 6.20699 19.5227 6.21656 19.4869C6.21656 19.4797 6.21975 19.4726 6.21975 19.4702C6.22931 19.4487 6.2325 19.4296 6.23888 19.4081C6.23888 19.4057 6.24207 19.3985 6.24207 19.3937C6.24526 19.3698 6.25483 19.3459 6.2612 19.3173C6.26439 19.3029 6.26439 19.2886 6.27077 19.2767C6.27396 19.2623 6.27396 19.2456 6.28034 19.2313C6.29309 19.1596 6.30266 19.0927 6.30904 19.0163C6.31861 18.9255 6.32179 18.8395 6.32179 18.7511C6.32498 18.6532 6.32498 18.56 6.33136 18.4644L5.57557 18.4453Z" fill="#580098"/>
<path d="M2.80118 18.4414C2.79799 18.6803 2.81393 18.8953 2.85539 19.0888C2.86814 19.1653 2.88728 19.2345 2.9096 19.3038C2.92236 19.3492 2.94149 19.3946 2.95425 19.4352C3.19342 20.0086 3.6909 20.3096 4.40843 20.3932C5.57878 20.1208 5.5469 19.2728 5.56603 18.4486H2.80118V18.4414Z" fill="#8000DB"/>
<path d="M17.4899 7.23438C17.2093 7.76711 16.2781 8.19951 14.6836 8.30463V8.53635V8.65102C14.7952 8.64863 14.8909 8.64147 14.9961 8.63669C15.1205 8.62952 15.2353 8.61997 15.3501 8.60563C15.4553 8.59608 15.5542 8.58174 15.6499 8.56741C16.0804 8.50291 16.4343 8.40257 16.7214 8.27596C16.7819 8.24729 16.8457 8.22101 16.8968 8.18996C16.9255 8.17562 16.9478 8.16129 16.9765 8.14457C17.0498 8.09918 17.1232 8.04662 17.1838 7.99884C17.2252 7.96778 17.2571 7.93434 17.2954 7.89611C17.3751 7.80533 17.4389 7.71694 17.474 7.62377C17.5218 7.49955 17.5282 7.36816 17.4899 7.23438Z" fill="#98005E"/>
<path d="M15.0326 5.81211C14.921 5.79061 14.8126 5.76672 14.6914 5.75V6.47624V7.20248V8.31095C16.2795 8.20345 17.2107 7.76866 17.4977 7.2407C17.351 6.69364 16.5315 6.12506 15.0326 5.81211Z" fill="#FF009E"/>
<path d="M30.1676 9.76699C30.713 10.1969 30.9904 10.7902 30.9904 11.5554C30.9904 12.3178 30.7193 12.911 30.1676 13.3438C29.6223 13.7737 28.8665 13.9915 27.9035 13.9915H26.1368V16.6598H24.3828V9.125H27.9035C28.8665 9.125 29.6191 9.33995 30.1676 9.76699ZM29.2078 11.5554C29.2078 10.7644 28.6816 10.3689 27.6356 10.3689H26.1368V12.7448H27.6356C28.6816 12.7448 29.2078 12.3464 29.2078 11.5554Z" fill="white"/>
<path d="M31.8242 9.2947C31.8242 8.73009 32.1846 8.44922 32.9053 8.44922C33.626 8.44922 33.9864 8.73009 33.9864 9.2947C33.9864 9.85071 33.626 10.1287 32.9053 10.1287C32.1846 10.1287 31.8242 9.84784 31.8242 9.2947ZM33.7663 16.6575H32.0283V10.9484H33.7663V16.6575Z" fill="white"/>
<path d="M40.6702 11.3708C41.0911 11.7262 41.2984 12.2421 41.2984 12.9128V16.6587H39.5604V13.357C39.5604 12.5001 39.1777 12.0673 38.4156 12.0673C38.0105 12.0673 37.6693 12.1963 37.3855 12.4485C37.1049 12.7064 36.9646 13.0991 36.9646 13.6293V16.6587H35.2266V10.9495H36.7892L36.8529 12.01C37.057 11.6202 37.3409 11.3307 37.7172 11.1301C38.0903 10.9323 38.5208 10.832 39.0151 10.832C39.6943 10.8378 40.2492 11.0155 40.6702 11.3708Z" fill="white"/>
<path d="M48.9167 15.6386L48.8146 16.6102C48.5946 16.7105 48.3203 16.7592 47.9887 16.7592C47.6155 16.7506 47.2966 16.6818 47.0288 16.5443C46.7609 16.4067 46.5823 16.209 46.4898 15.951C46.2953 16.209 46.0115 16.4124 45.6416 16.5557C45.2685 16.7019 44.8794 16.7707 44.4744 16.7707C43.8143 16.7707 43.2977 16.6389 42.9277 16.3723C42.5578 16.1058 42.3728 15.7246 42.3728 15.2316C42.3728 14.8132 42.5259 14.4693 42.8257 14.1999C43.1254 13.9305 43.5623 13.7384 44.1395 13.6353L46.3272 13.2369V13.0219C46.3272 12.7038 46.2251 12.4487 46.0179 12.2624C45.8106 12.0761 45.5395 11.9844 45.1951 11.9844C44.4999 11.9844 44.0503 12.294 43.8493 12.9216L42.3633 12.5118C42.5164 11.993 42.8384 11.5861 43.3264 11.288C43.8143 10.9899 44.4648 10.8438 45.2684 10.8438C46.1231 10.8438 46.7992 11.0272 47.303 11.3883C47.8005 11.7494 48.0493 12.271 48.0493 12.9589V15.2603C48.0493 15.5498 48.2023 15.6959 48.5053 15.6959C48.6552 15.6988 48.7923 15.6759 48.9167 15.6386ZM45.9286 15.4007C46.1964 15.2259 46.3304 14.945 46.3304 14.5553V14.2027L44.9974 14.4435C44.6849 14.4979 44.4584 14.5667 44.3245 14.6584C44.1906 14.7501 44.1204 14.8906 44.1204 15.0826C44.1204 15.266 44.2001 15.4065 44.35 15.5096C44.5031 15.6128 44.6912 15.6644 44.9208 15.6644C45.3227 15.6644 45.6607 15.5727 45.9286 15.4007Z" fill="white"/>
<path d="M54.0109 16.3059C53.7972 16.4521 53.5453 16.5639 53.2391 16.6498C52.9394 16.733 52.6205 16.7731 52.2792 16.7731C50.841 16.7731 50.1203 16.197 50.1203 15.0477V12.1129H48.9531V10.9465H50.1203V9.63095L51.8583 9.19531V10.9407H53.8929V12.1101H51.8583V14.7955C51.8583 15.3229 52.1485 15.5837 52.7353 15.5837C53.1179 15.5837 53.4464 15.4748 53.727 15.2656L54.0109 16.3059Z" fill="white"/>
<path d="M61.2292 15.6386L61.1271 16.6102C60.9071 16.7105 60.6328 16.7592 60.3012 16.7592C59.928 16.7506 59.6091 16.6818 59.3413 16.5443C59.0734 16.4067 58.8948 16.209 58.8023 15.951C58.6078 16.209 58.324 16.4124 57.9541 16.5557C57.581 16.7019 57.1919 16.7707 56.7869 16.7707C56.1268 16.7707 55.6102 16.6389 55.2402 16.3723C54.8703 16.1058 54.6853 15.7246 54.6853 15.2316C54.6853 14.8132 54.8384 14.4693 55.1382 14.1999C55.4379 13.9305 55.8748 13.7384 56.452 13.6353L58.6397 13.2369V13.0219C58.6397 12.7038 58.5376 12.4487 58.3304 12.2624C58.1231 12.0761 57.852 11.9844 57.5076 11.9844C56.8124 11.9844 56.3628 12.294 56.1618 12.9216L54.6758 12.5118C54.8289 11.993 55.1509 11.5861 55.6389 11.288C56.1268 10.9899 56.7773 10.8438 57.5809 10.8438C58.4356 10.8438 59.1117 11.0272 59.6155 11.3883C60.113 11.7494 60.3618 12.271 60.3618 12.9589V15.2603C60.3618 15.5498 60.5148 15.6959 60.8178 15.6959C60.9677 15.6988 61.1048 15.6759 61.2292 15.6386ZM58.2411 15.4007C58.5089 15.2259 58.6429 14.945 58.6429 14.5553V14.2027L57.3099 14.4435C56.9974 14.4979 56.7709 14.5667 56.637 14.6584C56.5031 14.7501 56.4329 14.8906 56.4329 15.0826C56.4329 15.266 56.5126 15.4065 56.6625 15.5096C56.8156 15.6128 57.0037 15.6644 57.2333 15.6644C57.6352 15.6644 57.9732 15.5727 58.2411 15.4007Z" fill="white"/>
</g>
<defs>
<clipPath id="clip0_4301_24465">
<rect width="61.2286" height="19.4818" fill="white" transform="translate(0 0.921875)"/>
</clipPath>
</defs>
</svg>
