<svg width="23" height="22" viewBox="0 0 23 22" fill="none" xmlns="http://www.w3.org/2000/svg">
<g clip-path="url(#clip0_3487_12230)">
<path d="M19.2088 14.2727L16.6819 16.7519C16.627 16.8058 16.5605 16.8487 16.4866 16.878C16.4128 16.9074 16.3331 16.9225 16.2526 16.9225H4.27382C4.21667 16.9225 4.16076 16.9072 4.11296 16.8785C4.06516 16.8498 4.02756 16.809 4.00478 16.7611C3.982 16.7131 3.97503 16.6601 3.98472 16.6086C3.99441 16.557 4.02035 16.5092 4.05934 16.471L6.58815 13.9918C6.64294 13.9381 6.70919 13.8953 6.7828 13.8659C6.85642 13.8366 6.93584 13.8214 7.01615 13.8213H18.9943C19.0514 13.8213 19.1073 13.8366 19.1552 13.8652C19.2029 13.8939 19.2405 13.9347 19.2634 13.9827C19.2861 14.0306 19.2931 14.0836 19.2834 14.1352C19.2737 14.1867 19.2478 14.2345 19.2088 14.2727ZM16.6819 9.28042C16.627 9.22656 16.5605 9.18363 16.4866 9.15428C16.4128 9.12495 16.3331 9.10982 16.2526 9.10986H4.27382C4.21667 9.10986 4.16076 9.12513 4.11296 9.15381C4.06516 9.18249 4.02756 9.22331 4.00478 9.27125C3.982 9.31921 3.97503 9.37221 3.98472 9.42375C3.99441 9.47527 4.02035 9.52308 4.05934 9.56133L6.58815 12.0405C6.64294 12.0942 6.70919 12.137 6.7828 12.1664C6.85642 12.1957 6.93584 12.2109 7.01615 12.211H18.9943C19.0514 12.211 19.1073 12.1958 19.1552 12.1671C19.2029 12.1384 19.2405 12.0976 19.2634 12.0497C19.2861 12.0017 19.2931 11.9487 19.2834 11.8972C19.2737 11.8456 19.2478 11.7978 19.2088 11.7596L16.6819 9.28042ZM4.27382 7.49963H16.2526C16.3331 7.49966 16.4128 7.48454 16.4866 7.4552C16.5605 7.42585 16.627 7.38291 16.6819 7.32906L19.2088 4.8499C19.2478 4.81167 19.2737 4.76385 19.2834 4.71232C19.2931 4.66079 19.2861 4.60779 19.2634 4.55984C19.2405 4.51188 19.2029 4.47106 19.1552 4.44239C19.1073 4.41372 19.0514 4.39844 18.9943 4.39844H7.01615C6.93584 4.39856 6.85642 4.41377 6.7828 4.4431C6.70919 4.47244 6.64294 4.51529 6.58815 4.569L4.05999 7.04817C4.02104 7.08635 3.99511 7.13413 3.9854 7.18559C3.97568 7.23707 3.9826 7.29002 4.0053 7.33795C4.028 7.38589 4.0655 7.4267 4.1132 7.45542C4.1609 7.48414 4.21672 7.4995 4.27382 7.49963Z" fill="url(#paint0_linear_3487_12230)"/>
</g>
<defs>
<linearGradient id="paint0_linear_3487_12230" x1="5.27257" y1="17.2209" x2="16.5989" y2="3.26395" gradientUnits="userSpaceOnUse">
<stop offset="0.08" stop-color="#9945FF"/>
<stop offset="0.3" stop-color="#8752F3"/>
<stop offset="0.5" stop-color="#5497D5"/>
<stop offset="0.6" stop-color="#43B4CA"/>
<stop offset="0.72" stop-color="#28E0B9"/>
<stop offset="0.97" stop-color="#19FB9B"/>
</linearGradient>
<clipPath id="clip0_3487_12230">
<rect width="15.3071" height="12.524" fill="white" transform="translate(3.98047 4.39844)"/>
</clipPath>
</defs>
</svg>
