<svg width="94" height="47" viewBox="0 0 94 47" fill="none" xmlns="http://www.w3.org/2000/svg">
<path d="M7.07503 0C8.20626 0 9.1937 0.230082 10.0373 0.690246C10.9001 1.15041 11.5616 1.75438 12.0218 2.50214V0.230083H16.9398V16.2496C16.9398 17.7259 16.6426 19.0585 16.0482 20.2472C15.473 21.4552 14.5815 22.4138 13.3735 23.1233C12.1848 23.8327 10.6988 24.1874 8.91568 24.1874C6.53817 24.1874 4.61123 23.6218 3.13487 22.4905C1.65851 21.3785 0.814874 19.8638 0.603966 17.9464H5.46445C5.61784 18.56 5.98214 19.0393 6.55734 19.3844C7.13255 19.7487 7.84197 19.9309 8.6856 19.9309C9.7018 19.9309 10.5071 19.6337 11.1015 19.0393C11.715 18.4641 12.0218 17.5342 12.0218 16.2496V13.9775C11.5425 14.7253 10.881 15.3388 10.0373 15.8181C9.1937 16.2783 8.20626 16.5084 7.07503 16.5084C5.75205 16.5084 4.55371 16.1729 3.47999 15.5018C2.40628 14.8115 1.55305 13.8433 0.920329 12.597C0.306776 11.3315 0 9.87436 0 8.22544C0 6.57651 0.306776 5.12891 0.920329 3.88264C1.55305 2.63636 2.40628 1.67768 3.47999 1.00661C4.55371 0.335537 5.75205 0 7.07503 0ZM12.0218 8.2542C12.0218 7.02709 11.6767 6.05883 10.9864 5.34941C10.3153 4.63999 9.49089 4.28528 8.51304 4.28528C7.53519 4.28528 6.70114 4.63999 6.0109 5.34941C5.33982 6.03966 5.00429 6.99833 5.00429 8.22544C5.00429 9.45254 5.33982 10.4304 6.0109 11.159C6.70114 11.8684 7.53519 12.2231 8.51304 12.2231C9.49089 12.2231 10.3153 11.8684 10.9864 11.159C11.6767 10.4496 12.0218 9.4813 12.0218 8.2542Z" fill="white"/>
<path d="M35.6257 7.99535C35.6257 8.45552 35.5969 8.93486 35.5394 9.43337H24.4092C24.4858 10.4304 24.8022 11.1973 25.3582 11.7342C25.9334 12.2519 26.6333 12.5107 27.4577 12.5107C28.6848 12.5107 29.5381 11.993 30.0174 10.9577H35.2518C34.9833 12.0122 34.4944 12.9613 33.785 13.8049C33.0948 14.6486 32.2224 15.31 31.1678 15.7894C30.1133 16.2687 28.9341 16.5084 27.6303 16.5084C26.0581 16.5084 24.6584 16.1729 23.4313 15.5018C22.2042 14.8307 21.2455 13.872 20.5553 12.6258C19.865 11.3795 19.5199 9.92229 19.5199 8.2542C19.5199 6.5861 19.8554 5.12891 20.5265 3.88264C21.2168 2.63636 22.1754 1.67768 23.4025 1.00661C24.6296 0.335537 26.0389 0 27.6303 0C29.1834 0 30.5639 0.32595 31.7718 0.97785C32.9797 1.62975 33.9192 2.55966 34.5903 3.7676C35.2805 4.97553 35.6257 6.38478 35.6257 7.99535ZM30.5926 6.70114C30.5926 5.85751 30.305 5.18644 29.7298 4.68792C29.1546 4.18941 28.4356 3.94016 27.5728 3.94016C26.7483 3.94016 26.0485 4.17983 25.4733 4.65916C24.9173 5.1385 24.5721 5.81916 24.4379 6.70114H30.5926Z" fill="white"/>
<path d="M47.9986 0.0575215C49.8776 0.0575215 51.3732 0.671074 52.4852 1.89818C53.6165 3.10611 54.1821 4.77421 54.1821 6.90246V16.2783H49.2928V7.56395C49.2928 6.49023 49.0148 5.65619 48.4588 5.06181C47.9028 4.46743 47.155 4.17024 46.2155 4.17024C45.276 4.17024 44.5282 4.46743 43.9722 5.06181C43.4162 5.65619 43.1382 6.49023 43.1382 7.56395V16.2783H38.2201V0.230083H43.1382V2.35834C43.6367 1.64892 44.3077 1.09289 45.1514 0.690246C45.995 0.26843 46.9441 0.0575215 47.9986 0.0575215Z" fill="white"/>
<path d="M56.6218 8.22544C56.6218 6.57651 56.9285 5.12891 57.5421 3.88264C58.1748 2.63636 59.0281 1.67768 60.1018 1.00661C61.1755 0.335537 62.3738 0 63.6968 0C64.828 0 65.8155 0.230082 66.6591 0.690246C67.5219 1.15041 68.1834 1.75438 68.6436 2.50214V0.230083H73.5616V16.2783H68.6436V14.0063C68.1642 14.754 67.4932 15.358 66.6303 15.8181C65.7867 16.2783 64.7993 16.5084 63.668 16.5084C62.3642 16.5084 61.1755 16.1729 60.1018 15.5018C59.0281 14.8115 58.1748 13.8433 57.5421 12.597C56.9285 11.3315 56.6218 9.87436 56.6218 8.22544ZM68.6436 8.2542C68.6436 7.02709 68.2984 6.05883 67.6082 5.34941C66.9371 4.63999 66.1127 4.28528 65.1348 4.28528C64.157 4.28528 63.3229 4.63999 62.6327 5.34941C61.9616 6.03966 61.6261 6.99833 61.6261 8.22544C61.6261 9.45254 61.9616 10.4304 62.6327 11.159C63.3229 11.8684 64.157 12.2231 65.1348 12.2231C66.1127 12.2231 66.9371 11.8684 67.6082 11.159C68.2984 10.4496 68.6436 9.4813 68.6436 8.2542Z" fill="white"/>
<path d="M29.7331 20.1302C31.8613 20.1302 33.7212 20.552 35.3126 21.3957C36.904 22.2393 38.1311 23.4281 38.9939 24.9619C39.8759 26.4766 40.3169 28.231 40.3169 30.2251C40.3169 32.1999 39.8759 33.9543 38.9939 35.4882C38.1311 37.0221 36.8944 38.2108 35.2838 39.0545C33.6924 39.8981 31.8422 40.3199 29.7331 40.3199H22.1691V20.1302H29.7331ZM29.4167 36.0634C31.2766 36.0634 32.7242 35.5553 33.7595 34.5391C34.7949 33.5229 35.3126 32.0849 35.3126 30.2251C35.3126 28.3652 34.7949 26.9176 33.7595 25.8823C32.7242 24.8469 31.2766 24.3292 29.4167 24.3292H27.0871V36.0634H29.4167Z" fill="white"/>
<path d="M47.9833 26.9464C48.5585 26.0644 49.2775 25.3742 50.1403 24.8757C51.0031 24.358 51.9618 24.0991 53.0163 24.0991V29.3047H51.6646C50.4375 29.3047 49.5172 29.5732 48.9036 30.11C48.2901 30.6277 47.9833 31.548 47.9833 32.871V40.3199H43.0653V24.2717H47.9833V26.9464Z" fill="white"/>
<path d="M81.0407 23.6708C81.5201 22.923 82.1815 22.319 83.0252 21.8589C83.8688 21.3987 84.8562 21.1686 85.9875 21.1686C87.3105 21.1686 88.5088 21.5042 89.5825 22.1752C90.6562 22.8463 91.4999 23.805 92.1134 25.0513C92.7461 26.2975 93.0625 27.7451 93.0625 29.3941C93.0625 31.043 92.7461 32.5002 92.1134 33.7656C91.4999 35.0119 90.6562 35.9802 89.5825 36.6704C88.5088 37.3415 87.3105 37.677 85.9875 37.677C84.8754 37.677 83.888 37.4469 83.0252 36.9868C82.1815 36.5266 81.5201 35.9322 81.0407 35.2036V45.0972H76.1227V21.3987H81.0407V23.6708ZM88.0582 29.3941C88.0582 28.167 87.7131 27.2083 87.0229 26.518C86.3518 25.8086 85.5177 25.4539 84.5207 25.4539C83.5429 25.4539 82.7088 25.8086 82.0186 26.518C81.3475 27.2275 81.012 28.1957 81.012 29.4228C81.012 30.6499 81.3475 31.6182 82.0186 32.3276C82.7088 33.037 83.5429 33.3917 84.5207 33.3917C85.4986 33.3917 86.3326 33.037 87.0229 32.3276C87.7131 31.599 88.0582 30.6212 88.0582 29.3941Z" fill="white"/>
<path d="M71.2315 41.9223L71.2313 41.9225C69.5235 43.5569 67.1696 44.3394 64.5992 44.3394C62.0301 44.3394 59.6761 43.557 57.967 41.9224L57.9669 41.9223C56.258 40.2889 55.2305 37.8398 55.2305 34.5746C55.2305 31.2682 57.2418 27.593 59.3518 24.6404C61.4719 21.6744 63.7376 19.3775 64.3293 18.8119C64.3973 18.7471 64.494 18.707 64.5992 18.707C64.7045 18.707 64.8011 18.7471 64.8691 18.8119C65.4609 19.3775 67.7265 21.6743 69.8466 24.6404C71.9566 27.593 73.968 31.2682 73.968 34.5746C73.968 37.8409 72.9405 40.2889 71.2315 41.9223Z" fill="white" stroke="#262626"/>
<ellipse rx="2.60471" ry="2.38585" transform="matrix(0.804162 -0.594411 0.629004 0.777402 54.7633 34.8143)" fill="white"/>
<path d="M54.5565 34.5497C54.6836 34.5604 54.7993 34.6112 54.8871 34.6899C54.9746 34.7684 55.0311 34.8716 55.049 34.9836C55.067 35.0958 55.0455 35.2138 54.9838 35.3183C54.9219 35.4231 54.8236 35.5071 54.7033 35.5546" stroke="#262626" stroke-linecap="round" stroke-linejoin="round"/>
<path d="M56.139 33.0278C55.7636 32.734 55.3056 32.5531 54.8227 32.5081C54.3398 32.4631 53.8538 32.556 53.4261 32.775C52.9984 32.994 52.6483 33.3293 52.42 33.7385C52.1917 34.1477 52.0955 34.6124 52.1435 35.0739C52.1916 35.5353 52.3817 35.9728 52.6898 36.331C52.998 36.6892 53.4104 36.952 53.8748 37.0862C54.3392 37.2204 54.8349 37.2199 55.299 37.0848C55.7632 36.9498 56.175 36.6862 56.4824 36.3275" stroke="#262626" stroke-linecap="round" stroke-linejoin="round"/>
<path d="M66.9199 38.6285C66.9241 39.1505 66.7144 39.5581 66.2132 39.7371C65.6954 39.9218 65.1527 39.9516 64.7418 39.5067C64.3714 39.1057 64.2869 38.6062 64.4775 38.0834C64.6075 37.7263 64.8843 37.5838 65.2422 37.6873C65.4278 37.7412 65.5968 37.8058 65.7882 37.7437C66.6142 37.4761 66.9207 37.7155 66.9199 38.6285Z" fill="#0B0F0F"/>
<path d="M65.3415 38.6832C65.7557 38.6525 66.0698 38.8249 66.2984 39.1604C66.3597 39.2507 66.3349 39.3501 66.2421 39.4023C65.8875 39.6036 65.5238 39.5722 65.1634 39.4189C64.9422 39.3244 64.7433 39.1389 64.7823 38.9152C64.8295 38.6401 65.1253 38.6981 65.3415 38.6832Z" fill="#F2BED5"/>
<path d="M66.5651 38.9641C66.097 38.4429 65.59 38.3261 65.0175 38.4032C64.9131 38.4173 64.7482 38.5647 64.7275 38.3162C64.7151 38.1646 64.831 38.0179 64.9479 38.032C65.4052 38.0867 65.8352 38.0113 66.2834 37.9558C66.6761 37.9086 66.6165 38.5001 66.5651 38.9641Z" fill="#A09DCA"/>
<path d="M64.0007 35.4844C63.9966 36.0552 63.5508 36.5167 63.1689 37.0039C63.1175 37.0693 62.9584 37.0801 62.8532 37.0702C62.255 37.013 61.7024 36.8208 61.2592 36.4057C60.8946 36.0644 60.7654 35.6178 60.9899 35.1629C61.2061 34.7238 61.5881 34.5325 62.0786 34.7479C62.2418 34.8191 62.3205 34.7479 62.4149 34.6426C62.7182 34.3054 63.0827 34.2309 63.4895 34.4281C63.8806 34.617 63.9874 34.9699 64.0007 35.4844Z" fill="#0B0D0C"/>
<path d="M63.6822 35.2696C63.6284 35.8578 63.3947 36.2216 63.1445 36.5778C63.031 36.7402 62.8703 36.7609 62.6922 36.7311C62.1694 36.6449 61.7352 36.3897 61.3823 36.0045C61.1694 35.7725 61.1221 35.4867 61.3251 35.2315C61.5256 34.9788 61.809 34.9183 62.0758 35.1246C62.3127 35.3077 62.4428 35.2381 62.553 35.0037C62.7129 34.6648 62.9962 34.5969 63.3111 34.712C63.6193 34.8247 63.717 35.0882 63.6822 35.2696Z" fill="#F4A4C7"/>
<path d="M67.1673 34.8172C67.1416 34.4933 67.2684 34.219 67.5807 34.0417C67.9196 33.8495 68.2385 33.9009 68.5111 34.1619C68.6619 34.306 68.7705 34.3657 68.9941 34.2662C69.2974 34.1312 69.5973 34.2571 69.8077 34.4999C70.0381 34.7658 70.0472 35.0798 69.8956 35.3972C69.6503 35.9125 68.6859 36.4568 68.1507 36.3798C67.7655 36.3251 67.1772 35.4063 67.1673 34.8172Z" fill="#0F1311"/>
<path d="M67.4844 34.8852C67.4885 34.6515 67.5101 34.4278 67.7768 34.3342C68.0328 34.2439 68.2822 34.2663 68.428 34.5032C68.5722 34.7385 68.699 34.8297 68.9558 34.6623C69.1944 34.5065 69.438 34.5496 69.6062 34.7775C69.7843 35.0186 69.6609 35.263 69.5026 35.4485C69.1828 35.8222 68.7462 36.0061 68.2657 36.0409C67.9102 36.0666 67.4835 35.4071 67.4844 34.8852Z" fill="#F3A4C6"/>
<ellipse cx="57.5743" cy="31.0212" rx="0.40636" ry="0.3884" fill="#262626"/>
<rect width="1.10279" height="5.49568" rx="0.551393" transform="matrix(0.887975 0.459892 -0.493178 0.869929 60.4766 25.0859)" fill="#262626"/>
</svg>
