<svg width="230" height="241" viewBox="0 0 230 241" fill="none" xmlns="http://www.w3.org/2000/svg">
<path d="M122.677 2.20703C153.275 35.6456 181.004 68.3923 200.849 109.453C215.421 139.601 214.918 168.907 200.982 198.657C196.337 208.577 188.889 216.076 179.807 221.92C141.828 246.375 101.872 246.404 65.8499 219.689C53.3009 210.383 45.7392 197.853 41.7589 182.997C40.8184 179.498 39.4695 177.408 35.4797 176.027C23.3486 171.829 18.1049 160.774 19.9003 145.246C20.9737 135.988 28.6874 128.839 40.0205 127.165C42.9178 126.74 44.0008 125.529 44.8368 122.976C59.2002 78.6338 85.0676 41.422 116.882 7.92671C119.124 5.57202 119.969 4.77949 122.677 2.20703Z" fill="#020302"/>
<path d="M206.944 152.778C205.937 168.324 204.123 183.663 196.048 197.583C192.068 204.43 187.403 210.567 180.678 214.907C161.403 227.324 140.979 236.837 117.334 233.792C92.9773 230.662 71.3942 221.622 56.4228 200.741C52.034 194.614 50.21 187.512 47.5976 180.693C46.6287 178.169 48.2911 177.346 50.362 176.589C57.2397 174.083 60.5931 168.267 63.6235 162.187C64.241 160.957 64.7634 159.53 63.443 158.716C61.7236 157.657 60.6786 159.047 59.8711 160.418C59.5387 160.976 59.3202 161.591 59.0067 162.158C54.4279 170.509 47.2557 174.386 39.409 172.759C31.6288 171.142 25.7105 163.842 25.0931 154.848C24.6371 148.078 24.5516 141.288 30.0138 136.077C36.3881 130.006 43.5223 129.458 52.8129 134.101C54.2284 134.81 55.8053 136.834 57.2872 134.829C58.9782 132.55 56.7458 130.677 55.1308 130.403C46.2962 128.9 49.8775 123.509 51.5685 119.15C66.2644 81.2477 87.553 47.3836 114.997 17.3588C123.842 7.68471 123.918 7.85493 132.42 18.0586C156.596 47.0526 179.272 77.03 195.478 111.395C201.719 124.55 207.381 137.76 206.944 152.778Z" fill="url(#paint0_linear_518_42)"/>
<g filter="url(#filter0_d_518_42)">
<path d="M29.1103 6.02342C28.8267 6.63037 28.6672 7.31534 28.6672 8.04003C28.6672 10.5356 30.559 12.5586 32.8927 12.5586C35.2264 12.5586 37.1182 10.5356 37.1182 8.04003C37.1182 7.31534 37.0179 6.59347 36.6751 6.02322C35.299 3.73388 34.0137 1.94364 33.185 1.31277C33.075 1.22902 32.9309 1.22329 32.824 1.311C32.0632 1.9353 29.7354 4.68552 29.1103 6.02342Z" fill="url(#paint1_linear_518_42)" fill-opacity="0.89" shape-rendering="crispEdges"/>
</g>
<path d="M73.2954 94.9228C77.1143 82.9413 80.9331 69.6358 91.1357 59.4983C93.6626 56.9829 97.1774 55.4887 100.635 57.4841C103.941 59.3848 104.787 62.9973 104.34 66.5246C102.839 78.5345 97.7664 89.1826 91.2592 99.2255C90.3377 100.653 88.9888 101.826 87.7443 103.027C84.8279 105.845 81.5886 106.725 77.7032 104.89C73.9129 103.093 73.4854 99.7929 73.2954 94.9228Z" fill="#DAEEE2"/>
<path d="M73.2954 94.6093C77.1143 82.6278 80.9331 69.3223 91.1357 59.1849C93.6626 56.6694 97.1774 55.1752 100.635 57.1706C103.941 59.0714 104.787 62.6838 104.34 66.2111C102.839 78.221 97.7664 88.8692 91.2592 98.9121C90.3377 100.34 88.9888 101.513 87.7443 102.714C84.8279 105.532 81.5886 106.411 77.7032 104.577C73.9129 102.78 73.4854 99.4795 73.2954 94.6093Z" fill="#DAEEE2"/>
<path d="M71.966 115.308C75.2339 114.977 77.2098 116.755 77.0768 119.686C76.9059 123.223 75.4239 126.769 71.1396 126.807C68.0142 126.836 65.8008 124.349 65.9338 121.285C66.0858 117.89 67.6817 114.986 71.966 115.308Z" fill="#D8EDE0"/>
<path d="M71.966 114.995C75.2339 114.664 77.2098 116.441 77.0768 119.373C76.9059 122.91 75.4239 126.456 71.1396 126.494C68.0142 126.522 65.8008 124.035 65.9338 120.971C66.0858 117.576 67.6817 114.673 71.966 114.995Z" fill="#D8EDE0"/>
<path d="M51.3438 153.286C51.1538 155.111 51.9233 157.73 49.3869 158.09C46.575 158.487 46.8885 155.65 46.632 153.938C46.157 150.732 45.3116 148.217 41.4357 147.791C39.4693 147.574 37.3984 146.42 38.2914 143.98C39.1843 141.541 41.6542 142.496 43.3357 142.902C48.1425 144.103 51.3058 148.416 51.3438 153.286Z" fill="#091D14"/>
<path d="M156.732 181.311C156.779 187.268 154.376 191.921 148.628 193.964C142.691 196.072 136.469 196.413 131.757 191.335C127.511 186.758 126.542 181.055 128.727 175.088C130.218 171.012 133.391 169.386 137.495 170.568C139.623 171.183 141.561 171.92 143.755 171.211C153.226 168.156 156.741 170.889 156.732 181.311Z" fill="#0B0F0F"/>
<path d="M138.661 181.916C143.411 181.566 147.011 183.533 149.633 187.363C150.336 188.394 150.051 189.528 148.987 190.124C144.921 192.422 140.751 192.063 136.619 190.313C134.082 189.235 131.802 187.117 132.249 184.564C132.79 181.424 136.182 182.086 138.661 181.916Z" fill="#F4A4C7"/>
<path d="M152.656 185.153C147.289 179.205 141.475 177.871 134.911 178.751C133.714 178.911 131.823 180.595 131.586 177.758C131.443 176.027 132.773 174.353 134.113 174.514C139.356 175.138 144.287 174.278 149.426 173.644C153.929 173.105 153.245 179.857 152.656 185.153Z" fill="#A09DCA"/>
<path d="M123.229 145.37C123.181 151.885 118.071 157.152 113.691 162.713C113.102 163.46 111.278 163.583 110.072 163.47C103.213 162.817 96.8769 160.623 91.7946 155.885C87.6148 151.989 86.1329 146.892 88.7073 141.7C91.1867 136.688 95.566 134.504 101.19 136.963C103.061 137.776 103.964 136.963 105.047 135.762C108.523 131.913 112.703 131.062 117.368 133.312C121.851 135.468 123.077 139.497 123.229 145.37Z" fill="#0B0D0C"/>
<path d="M119.606 142.918C118.988 149.632 116.309 153.783 113.44 157.85C112.139 159.703 110.296 159.94 108.254 159.599C102.259 158.616 97.2816 155.703 93.2348 151.306C90.7934 148.658 90.2519 145.395 92.5793 142.483C94.8782 139.598 98.1271 138.908 101.186 141.263C103.903 143.353 105.394 142.558 106.658 139.882C108.491 136.014 111.74 135.239 115.35 136.553C118.884 137.839 120.005 140.847 119.606 142.918Z" fill="#F4A4C7"/>
<path d="M159.546 137.781C159.252 134.083 160.705 130.953 164.286 128.929C168.172 126.735 171.829 127.322 174.955 130.3C176.683 131.946 177.928 132.627 180.493 131.492C183.97 129.951 187.409 131.388 189.821 134.159C192.462 137.194 192.567 140.778 190.828 144.4C188.017 150.282 176.959 156.495 170.822 155.616C166.405 154.992 159.66 144.504 159.546 137.781Z" fill="#0F1311"/>
<path d="M163.186 138.545C163.233 135.878 163.48 133.325 166.539 132.256C169.475 131.225 172.334 131.481 174.006 134.185C175.659 136.871 177.112 137.911 180.057 136.001C182.793 134.223 185.586 134.715 187.514 137.315C189.557 140.067 188.141 142.857 186.327 144.975C182.66 149.24 177.654 151.34 172.144 151.737C168.069 152.03 163.176 144.502 163.186 138.545Z" fill="#F4A4C7"/>
<defs>
<filter id="filter0_d_518_42" x="20.8078" y="1.24756" width="24.1697" height="27.0299" filterUnits="userSpaceOnUse" color-interpolation-filters="sRGB">
<feFlood flood-opacity="0" result="BackgroundImageFix"/>
<feColorMatrix in="SourceAlpha" type="matrix" values="0 0 0 0 0 0 0 0 0 0 0 0 0 0 0 0 0 0 127 0" result="hardAlpha"/>
<feOffset dy="7.85941"/>
<feGaussianBlur stdDeviation="3.9297"/>
<feComposite in2="hardAlpha" operator="out"/>
<feColorMatrix type="matrix" values="0 0 0 0 0.0947917 0 0 0 0 0.511494 0 0 0 0 0.875 0 0 0 1 0"/>
<feBlend mode="normal" in2="BackgroundImageFix" result="effect1_dropShadow_518_42"/>
<feBlend mode="normal" in="SourceGraphic" in2="effect1_dropShadow_518_42" result="shape"/>
</filter>
<linearGradient id="paint0_linear_518_42" x1="115.934" y1="10.251" x2="115.934" y2="234.365" gradientUnits="userSpaceOnUse">
<stop stop-color="#1875F1"/>
<stop offset="0.792172" stop-color="#52BBF8"/>
<stop offset="1" stop-color="#72F9FD"/>
</linearGradient>
<linearGradient id="paint1_linear_518_42" x1="32.8927" y1="1.46748" x2="32.8927" y2="5.11991" gradientUnits="userSpaceOnUse">
<stop stop-color="white" stop-opacity="0.73"/>
<stop offset="1" stop-color="white" stop-opacity="0"/>
</linearGradient>
</defs>
</svg>
