<svg width="85" height="52" viewBox="0 0 85 52" fill="none" xmlns="http://www.w3.org/2000/svg">
<path d="M7.05489 9.42675C8.06764 9.42675 8.95165 9.63273 9.70692 10.0447C10.4794 10.4567 11.0715 10.9974 11.4835 11.6668V9.63273H15.8864V23.9743C15.8864 25.296 15.6203 26.489 15.0882 27.5532C14.5732 28.6346 13.7751 29.4929 12.6937 30.128C11.6294 30.7631 10.2991 31.0806 8.70275 31.0806C6.57427 31.0806 4.84917 30.5743 3.52745 29.5615C2.20573 28.5659 1.45046 27.2099 1.26164 25.4934H5.61302C5.75034 26.0427 6.07648 26.4718 6.59143 26.7808C7.10639 27.1069 7.7415 27.27 8.49677 27.27C9.40653 27.27 10.1275 27.0039 10.6596 26.4718C11.2089 25.9568 11.4835 25.1243 11.4835 23.9743V21.9402C11.0544 22.6096 10.4622 23.1589 9.70692 23.588C8.95165 24 8.06764 24.206 7.05489 24.206C5.8705 24.206 4.79767 23.9056 3.83642 23.3048C2.87517 22.6869 2.11132 21.82 1.54487 20.7043C0.995581 19.5714 0.720938 18.2668 0.720938 16.7906C0.720938 15.3144 0.995581 14.0184 1.54487 12.9027C2.11132 11.787 2.87517 10.9287 3.83642 10.3279C4.79767 9.72714 5.8705 9.42675 7.05489 9.42675ZM11.4835 16.8164C11.4835 15.7178 11.1745 14.851 10.5566 14.2158C9.95581 13.5807 9.21771 13.2632 8.34228 13.2632C7.46686 13.2632 6.72017 13.5807 6.10223 14.2158C5.50144 14.8338 5.20105 15.692 5.20105 16.7906C5.20105 17.8892 5.50144 18.7646 6.10223 19.4169C6.72017 20.052 7.46686 20.3696 8.34228 20.3696C9.21771 20.3696 9.95581 20.052 10.5566 19.4169C11.1745 18.7818 11.4835 17.9149 11.4835 16.8164ZM32.615 16.5846C32.615 16.9966 32.5893 17.4257 32.5378 17.872H22.5734C22.642 18.7646 22.9253 19.4512 23.423 19.9318C23.938 20.3953 24.5645 20.627 25.3026 20.627C26.4012 20.627 27.1651 20.1636 27.5942 19.2367H32.2803C32.04 20.1807 31.6023 21.0304 30.9671 21.7857C30.3492 22.541 29.5682 23.1332 28.6241 23.5623C27.68 23.9914 26.6244 24.206 25.4571 24.206C24.0496 24.206 22.7965 23.9056 21.6979 23.3048C20.5994 22.704 19.7411 21.8458 19.1232 20.73C18.5052 19.6143 18.1962 18.3097 18.1962 16.8164C18.1962 15.323 18.4966 14.0184 19.0974 12.9027C19.7154 11.787 20.5736 10.9287 21.6722 10.3279C22.7708 9.72714 24.0324 9.42675 25.4571 9.42675C26.8475 9.42675 28.0834 9.71856 29.1648 10.3022C30.2462 10.8858 31.0873 11.7183 31.6881 12.7997C32.306 13.8811 32.615 15.1428 32.615 16.5846ZM28.1091 15.426C28.1091 14.6707 27.8517 14.0699 27.3367 13.6236C26.8218 13.1773 26.1781 12.9542 25.4056 12.9542C24.6675 12.9542 24.041 13.1688 23.526 13.5979C23.0282 14.027 22.7193 14.6364 22.5991 15.426H28.1091ZM43.692 9.47825C45.3742 9.47825 46.7131 10.0275 47.7086 11.1261C48.7214 12.2075 49.2278 13.7009 49.2278 15.6062V24H44.8506V16.1984C44.8506 15.2372 44.6017 14.4905 44.104 13.9584C43.6062 13.4262 42.9367 13.1602 42.0956 13.1602C41.2545 13.1602 40.5851 13.4262 40.0873 13.9584C39.5895 14.4905 39.3406 15.2372 39.3406 16.1984V24H34.9377V9.63273H39.3406V11.5381C39.7869 10.903 40.3877 10.4052 41.143 10.0447C41.8982 9.66706 42.7479 9.47825 43.692 9.47825ZM51.4119 16.7906C51.4119 15.3144 51.6865 14.0184 52.2358 12.9027C52.8023 11.787 53.5661 10.9287 54.5274 10.3279C55.4886 9.72714 56.5615 9.42675 57.7459 9.42675C58.7586 9.42675 59.6426 9.63273 60.3979 10.0447C61.1703 10.4567 61.7625 10.9974 62.1745 11.6668V9.63273H66.5773V24H62.1745V21.9659C61.7453 22.6354 61.1446 23.1761 60.3721 23.588C59.6169 24 58.7329 24.206 57.7201 24.206C56.5529 24.206 55.4886 23.9056 54.5274 23.3048C53.5661 22.6869 52.8023 21.82 52.2358 20.7043C51.6865 19.5714 51.4119 18.2668 51.4119 16.7906ZM62.1745 16.8164C62.1745 15.7178 61.8655 14.851 61.2476 14.2158C60.6468 13.5807 59.9087 13.2632 59.0332 13.2632C58.1578 13.2632 57.4111 13.5807 56.7932 14.2158C56.1924 14.8338 55.892 15.692 55.892 16.7906C55.892 17.8892 56.1924 18.7646 56.7932 19.4169C57.4111 20.052 58.1578 20.3696 59.0332 20.3696C59.9087 20.3696 60.6468 20.052 61.2476 19.4169C61.8655 18.7818 62.1745 17.9149 62.1745 16.8164Z" fill="#0D99FF"/>
<path d="M27.3396 26.9407C29.245 26.9407 30.91 27.3183 32.3347 28.0736C33.7594 28.8288 34.858 29.8931 35.6304 31.2663C36.42 32.6224 36.8148 34.193 36.8148 35.9782C36.8148 37.7462 36.42 39.3168 35.6304 40.69C34.858 42.0632 33.7508 43.1275 32.309 43.8827C30.8842 44.638 29.2278 45.0156 27.3396 45.0156H20.568V26.9407H27.3396ZM27.0564 41.205C28.7214 41.205 30.0174 40.7501 30.9443 39.8403C31.8712 38.9306 32.3347 37.6432 32.3347 35.9782C32.3347 34.3131 31.8712 33.0172 30.9443 32.0902C30.0174 31.1633 28.7214 30.6999 27.0564 30.6999H24.9708V41.205H27.0564ZM43.6782 33.0429C44.1932 32.2533 44.8369 31.6354 45.6093 31.1891C46.3817 30.7256 47.24 30.4939 48.1841 30.4939V35.1542H46.9739C45.8754 35.1542 45.0514 35.3945 44.5021 35.8752C43.9529 36.3386 43.6782 37.1625 43.6782 38.3469V45.0156H39.2753V30.6484H43.6782V33.0429Z" fill="#0D99FF"/>
<path d="M73.2731 30.7527C73.7022 30.0833 74.2944 29.5426 75.0497 29.1306C75.8049 28.7187 76.689 28.5127 77.7017 28.5127C78.8861 28.5127 79.9589 28.8131 80.9202 29.4139C81.8814 30.0146 82.6367 30.8729 83.186 31.9886C83.7524 33.1044 84.0357 34.4003 84.0357 35.8766C84.0357 37.3528 83.7524 38.6573 83.186 39.7902C82.6367 40.906 81.8814 41.7728 80.9202 42.3907C79.9589 42.9915 78.8861 43.2919 77.7017 43.2919C76.7061 43.2919 75.8221 43.0859 75.0497 42.674C74.2944 42.262 73.7022 41.7299 73.2731 41.0776V49.9348H68.8702V28.7187H73.2731V30.7527ZM79.5555 35.8766C79.5555 34.778 79.2466 33.9197 78.6286 33.3018C78.0278 32.6667 77.2812 32.3491 76.3886 32.3491C75.5131 32.3491 74.7665 32.6667 74.1485 33.3018C73.5477 33.9369 73.2473 34.8037 73.2473 35.9023C73.2473 37.0009 73.5477 37.8677 74.1485 38.5028C74.7665 39.1379 75.5131 39.4555 76.3886 39.4555C77.264 39.4555 78.0107 39.1379 78.6286 38.5028C79.2466 37.8506 79.5555 36.9751 79.5555 35.8766Z" fill="#0D99FF"/>
<path d="M63.202 46.8769L63.2025 46.8764C64.4159 45.7052 65.198 43.9058 65.198 41.3813C65.198 38.917 63.6892 36.0638 61.9812 33.6502L63.202 46.8769ZM63.202 46.8769C61.9836 48.0543 60.2741 48.6487 58.3355 48.6487C56.398 48.6487 54.6882 48.0544 53.4688 46.8766L53.4685 46.8764M63.202 46.8769L53.4685 46.8764M53.4685 46.8764C52.2551 45.7052 51.473 43.905 51.473 41.3813C51.473 38.917 52.9818 36.0638 54.6898 33.6502C56.1125 31.6403 57.6195 30.0101 58.3355 29.2792M53.4685 46.8764L58.3355 29.2792M58.3355 29.2792C59.0516 30.0101 60.5585 31.6402 61.9811 33.6501L58.3355 29.2792Z" fill="url(#paint0_linear_4212_40786)" stroke="#262626" stroke-width="2.35226"/>
<ellipse rx="2.12907" ry="1.95498" transform="matrix(0.801368 -0.598171 0.625281 0.7804 50.327 41.5802)" fill="url(#paint1_linear_4212_40786)"/>
<path d="M50.1123 41.9322C50.0868 41.93 50.0568 41.919 50.0301 41.8948C50.0029 41.8702 49.9838 41.8359 49.9779 41.7983C49.972 41.7611 49.98 41.728 49.9941 41.7039C50.008 41.6802 50.0273 41.6651 50.0473 41.6571" stroke="#262626" stroke-width="1.97633" stroke-linecap="round" stroke-linejoin="round"/>
<path d="M51.4479 40.107C51.1422 39.8653 50.769 39.7165 50.3757 39.6795C49.9824 39.6425 49.5865 39.7188 49.2381 39.899C48.8898 40.0791 48.6046 40.3549 48.4186 40.6915C48.2327 41.0281 48.1543 41.4104 48.1934 41.79C48.2325 42.1695 48.3874 42.5294 48.6384 42.824C48.8894 43.1187 49.2253 43.3348 49.6036 43.4452C49.9819 43.5556 50.3856 43.5552 50.7637 43.4441C51.1418 43.333 51.4772 43.1162 51.7277 42.8211" stroke="#262626" stroke-linecap="round" stroke-linejoin="round"/>
<path d="M60.2467 44.6681C60.2508 45.1965 60.0407 45.6092 59.5381 45.7904C59.019 45.9774 58.475 46.0076 58.063 45.5572C57.6917 45.1512 57.607 44.6455 57.798 44.1162C57.9284 43.7547 58.2059 43.6104 58.5647 43.7153C58.7507 43.7698 58.9202 43.8352 59.112 43.7723C59.9402 43.5014 60.2475 43.7438 60.2467 44.6681Z" fill="#0B0F0F"/>
<path d="M58.6671 44.7223C59.0824 44.6912 59.3972 44.8657 59.6265 45.2054C59.6879 45.2968 59.663 45.3975 59.57 45.4503C59.2145 45.6542 58.8499 45.6223 58.4886 45.4671C58.2668 45.3715 58.0674 45.1836 58.1065 44.9571C58.1538 44.6787 58.4504 44.7374 58.6671 44.7223Z" fill="#F2BED5"/>
<path d="M59.8901 45.0079C59.4208 44.4803 58.9125 44.362 58.3385 44.44C58.2338 44.4543 58.0686 44.6036 58.0478 44.3519C58.0353 44.1984 58.1516 44.05 58.2687 44.0642C58.7272 44.1196 59.1583 44.0433 59.6077 43.9871C60.0014 43.9393 59.9416 44.5381 59.8901 45.0079Z" fill="#A09DCA"/>
<path d="M57.3172 41.4832C57.313 42.0611 56.8662 42.5283 56.4833 43.0215C56.4318 43.0878 56.2723 43.0987 56.1668 43.0886C55.5671 43.0307 55.0131 42.8361 54.5687 42.4159C54.2033 42.0703 54.0737 41.6182 54.2988 41.1578C54.5156 40.7132 54.8985 40.5195 55.3902 40.7375C55.5538 40.8097 55.6327 40.7375 55.7274 40.631C56.0314 40.2896 56.3969 40.2141 56.8047 40.4138C57.1968 40.605 57.3039 40.9623 57.3172 41.4832Z" fill="#0B0D0C"/>
<path d="M57.001 41.2654C56.947 41.861 56.7128 42.2292 56.462 42.5899C56.3482 42.7543 56.187 42.7752 56.0085 42.745C55.4843 42.6578 55.0491 42.3995 54.6953 42.0094C54.4818 41.7746 54.4345 41.4852 54.638 41.2269C54.839 40.971 55.123 40.9098 55.3905 41.1186C55.628 41.304 55.7584 41.2336 55.8689 40.9962C56.0292 40.6531 56.3133 40.5844 56.6289 40.7009C56.9379 40.815 57.0359 41.0817 57.001 41.2654Z" fill="#F4A4C7"/>
<path d="M60.4915 40.8087C60.4658 40.4808 60.5929 40.2031 60.906 40.0236C61.2457 39.829 61.5655 39.881 61.8388 40.1452C61.9899 40.2912 62.0987 40.3516 62.323 40.2509C62.627 40.1142 62.9277 40.2417 63.1386 40.4875C63.3696 40.7567 63.3787 41.0746 63.2267 41.3959C62.9808 41.9176 62.014 42.4686 61.4774 42.3906C61.0912 42.3353 60.5015 41.4051 60.4915 40.8087Z" fill="#0F1311"/>
<path d="M60.8086 40.877C60.8127 40.6404 60.8343 40.414 61.1018 40.3192C61.3585 40.2278 61.6085 40.2504 61.7546 40.4903C61.8992 40.7285 62.0263 40.8208 62.2837 40.6513C62.523 40.4937 62.7672 40.5373 62.9358 40.7679C63.1143 41.012 62.9906 41.2595 62.8319 41.4473C62.5113 41.8256 62.0736 42.0118 61.5919 42.0471C61.2355 42.0731 60.8078 41.4054 60.8086 40.877Z" fill="#F3A4C6"/>
<ellipse cx="52.6123" cy="38.4601" rx="0.331003" ry="0.319484" fill="#262626"/>
<rect width="0.900155" height="4.50988" rx="0.450078" transform="matrix(0.886125 0.463447 -0.48953 0.871986 54.9805 33.5781)" fill="#262626"/>
<path d="M57.9046 28.1182C58.0376 27.99 58.2179 27.918 58.4058 27.918C58.5938 27.918 58.7741 27.99 58.9071 28.1182C59.4017 28.5956 61.2657 30.5043 63.0115 32.9707C64.7355 35.407 66.4445 38.5224 66.4445 41.3813C66.4445 44.1572 65.5772 46.2868 64.0896 47.7226C62.6067 49.1557 60.58 49.8248 58.4058 49.8248C56.2326 49.8248 54.2059 49.1557 52.722 47.7226C51.2344 46.2868 50.3672 44.1563 50.3672 41.3813C50.3672 38.5224 52.0761 35.407 53.8002 32.9707C55.546 30.5043 57.41 28.5956 57.9046 28.1182Z" fill="url(#paint2_linear_4212_40786)" stroke="url(#paint3_linear_4212_40786)" stroke-width="0.75"/>
<ellipse rx="2.12907" ry="1.95498" transform="matrix(0.801368 -0.598171 0.625281 0.7804 50.3973 41.5802)" fill="url(#paint4_linear_4212_40786)"/>
<path d="M50.5061 42.5657C50.6858 42.4942 50.8354 42.3665 50.9309 42.2031C51.0265 42.0397 51.0625 41.85 51.0331 41.6646C51.0037 41.4791 50.9107 41.3085 50.769 41.1801C50.6272 41.0517 50.4449 40.973 50.2513 40.9565" stroke="#262626" stroke-linecap="round" stroke-linejoin="round"/>
<path d="M60.3131 44.6681C60.3172 45.1965 60.1071 45.6092 59.6046 45.7904C59.0854 45.9774 58.5414 46.0076 58.1294 45.5572C57.7581 45.1512 57.6734 44.6455 57.8644 44.1162C57.9948 43.7547 58.2723 43.6104 58.6311 43.7153C58.8171 43.7698 58.9866 43.8352 59.1785 43.7723C60.0066 43.5014 60.3139 43.7438 60.3131 44.6681Z" fill="#0B0F0F"/>
<path d="M58.7335 44.7223C59.1488 44.6912 59.4636 44.8657 59.6929 45.2054C59.7544 45.2968 59.7294 45.3975 59.6364 45.4503C59.2809 45.6542 58.9163 45.6223 58.555 45.4671C58.3332 45.3715 58.1339 45.1836 58.1729 44.9571C58.2202 44.6787 58.5168 44.7374 58.7335 44.7223Z" fill="#F2BED5"/>
<path d="M59.9565 45.0079C59.4872 44.4803 58.9789 44.362 58.4049 44.44C58.3003 44.4543 58.135 44.6036 58.1142 44.3519C58.1017 44.1984 58.218 44.05 58.3351 44.0642C58.7936 44.1196 59.2247 44.0433 59.6741 43.9871C60.0678 43.9393 60.008 44.5381 59.9565 45.0079Z" fill="#A09DCA"/>
<path d="M57.3875 41.4832C57.3833 42.0611 56.9365 42.5283 56.5536 43.0215C56.5021 43.0878 56.3426 43.0987 56.2371 43.0886C55.6374 43.0307 55.0834 42.8361 54.639 42.4159C54.2736 42.0703 54.144 41.6182 54.3691 41.1578C54.5859 40.7132 54.9688 40.5195 55.4605 40.7375C55.6241 40.8097 55.703 40.7375 55.7977 40.631C56.1017 40.2896 56.4672 40.2141 56.875 40.4138C57.2671 40.605 57.3742 40.9623 57.3875 41.4832Z" fill="#0B0D0C"/>
<path d="M57.0713 41.2654C57.0173 41.861 56.7831 42.2292 56.5323 42.5899C56.4185 42.7543 56.2573 42.7752 56.0788 42.745C55.5547 42.6578 55.1194 42.3995 54.7656 42.0094C54.5521 41.7746 54.5048 41.4852 54.7083 41.2269C54.9093 40.971 55.1933 40.9098 55.4608 41.1186C55.6984 41.304 55.8288 41.2336 55.9392 40.9962C56.0995 40.6531 56.3836 40.5844 56.6992 40.7009C57.0082 40.815 57.1062 41.0817 57.0713 41.2654Z" fill="#F4A4C7"/>
<path d="M60.5618 40.8087C60.5361 40.4808 60.6632 40.2031 60.9763 40.0236C61.316 39.829 61.6358 39.881 61.9091 40.1452C62.0602 40.2912 62.169 40.3516 62.3933 40.2509C62.6973 40.1142 62.998 40.2417 63.209 40.4875C63.4399 40.7567 63.449 41.0746 63.297 41.3959C63.0511 41.9176 62.0843 42.4686 61.5478 42.3906C61.1615 42.3353 60.5718 41.4051 60.5618 40.8087Z" fill="#0F1311"/>
<path d="M60.8789 40.877C60.8831 40.6404 60.9047 40.414 61.1721 40.3192C61.4288 40.2278 61.6788 40.2504 61.825 40.4903C61.9695 40.7285 62.0966 40.8208 62.3541 40.6513C62.5933 40.4937 62.8375 40.5373 63.0061 40.7679C63.1847 41.012 63.0609 41.2595 62.9023 41.4473C62.5816 41.8256 62.1439 42.0118 61.6622 42.0471C61.3058 42.0731 60.8781 41.4054 60.8789 40.877Z" fill="#F3A4C6"/>
<ellipse cx="52.6826" cy="38.4601" rx="0.331003" ry="0.319484" fill="#263238"/>
<rect width="0.900155" height="4.50988" rx="0.450078" transform="matrix(0.886125 0.463447 -0.48953 0.871986 55.0508 33.5781)" fill="#263238"/>
<defs>
<linearGradient id="paint0_linear_4212_40786" x1="58.3355" y1="27.918" x2="58.3355" y2="49.8248" gradientUnits="userSpaceOnUse">
<stop stop-color="#0D99FF"/>
<stop offset="1" stop-color="#ADE2FF"/>
</linearGradient>
<linearGradient id="paint1_linear_4212_40786" x1="2.12907" y1="0" x2="2.12907" y2="3.90996" gradientUnits="userSpaceOnUse">
<stop stop-color="#0D99FF"/>
<stop offset="1" stop-color="#ADE2FF"/>
</linearGradient>
<linearGradient id="paint2_linear_4212_40786" x1="58.4058" y1="27.918" x2="58.4058" y2="49.8248" gradientUnits="userSpaceOnUse">
<stop stop-color="#0D99FF"/>
<stop offset="1" stop-color="#ADE2FF"/>
</linearGradient>
<linearGradient id="paint3_linear_4212_40786" x1="58.4058" y1="27.918" x2="58.4058" y2="49.8248" gradientUnits="userSpaceOnUse">
<stop stop-color="#00A3FF"/>
<stop offset="1" stop-color="#00A3FF" stop-opacity="0"/>
</linearGradient>
<linearGradient id="paint4_linear_4212_40786" x1="2.12907" y1="0" x2="2.12907" y2="3.90996" gradientUnits="userSpaceOnUse">
<stop stop-color="#0D99FF"/>
<stop offset="1" stop-color="#ADE2FF"/>
</linearGradient>
</defs>
</svg>
