<svg width="169" height="169" viewBox="0 0 169 169" fill="none" xmlns="http://www.w3.org/2000/svg">
<g opacity="0.8">
<path d="M88.8473 7.09955C109.082 29.3377 127.42 51.1158 140.543 78.423C150.18 98.4726 149.847 117.962 140.631 137.748C137.559 144.345 132.634 149.332 126.628 153.219C101.512 169.483 75.0894 169.502 51.2675 151.735C42.9688 145.546 37.9682 137.213 35.336 127.333C34.7141 125.006 33.822 123.616 31.1835 122.698C23.1613 119.906 19.6935 112.554 20.8808 102.227C21.5907 96.0702 26.6918 91.3156 34.1864 90.2025C36.1025 89.9194 36.8186 89.1144 37.3714 87.4164C46.87 57.9269 63.9763 33.1793 85.0152 10.9034C86.4977 9.33742 87.057 8.81035 88.8473 7.09955Z" fill="#020302"/>
<path d="M144.574 107.236C143.908 117.575 142.708 127.776 137.368 137.034C134.736 141.587 131.651 145.668 127.204 148.555C114.457 156.813 100.95 163.14 85.3143 161.114C69.2069 159.033 54.9338 153.02 45.0332 139.134C42.1308 135.059 40.9247 130.336 39.1971 125.801C38.5563 124.122 39.6557 123.575 41.0252 123.072C45.5735 121.405 47.791 117.537 49.795 113.493C50.2034 112.676 50.5489 111.726 49.6757 111.185C48.5386 110.481 47.8476 111.406 47.3136 112.317C47.0937 112.688 46.9492 113.097 46.7419 113.475C43.7139 119.028 38.9709 121.606 33.7819 120.525C28.6368 119.449 24.723 114.594 24.3147 108.613C24.0132 104.11 23.9566 99.5946 27.5688 96.1293C31.7842 92.0917 36.502 91.727 42.646 94.8149C43.582 95.2866 44.6248 96.6324 45.6049 95.2992C46.7231 93.7835 45.2468 92.5383 44.1788 92.3559C38.3364 91.3559 40.7048 87.7711 41.823 84.8719C51.5415 59.6652 65.6198 37.144 83.7688 17.1761C89.6175 10.7424 89.6678 10.8556 95.2903 17.6415C111.278 36.9239 126.274 56.8603 136.991 79.7148C141.118 88.4629 144.863 97.2488 144.574 107.236Z" fill="url(#paint0_linear_36316_28216)"/>
<path d="M56.1901 68.7601C58.7155 60.7918 61.2409 51.9431 67.9879 45.2012C69.659 43.5283 71.9834 42.5346 74.2701 43.8616C76.4562 45.1257 77.0153 47.5281 76.7201 49.874C75.7275 57.8611 72.3728 64.9426 68.0696 71.6216C67.4602 72.5713 66.5681 73.3511 65.7452 74.1498C63.8166 76.024 61.6744 76.6089 59.105 75.3888C56.5984 74.1939 56.3157 71.999 56.1901 68.7601Z" fill="#DAEEE2"/>
<path d="M56.1901 68.5515C58.7155 60.5833 61.2409 51.7345 67.9879 44.9926C69.659 43.3197 71.9834 42.326 74.2701 43.653C76.4562 44.9171 77.0153 47.3196 76.7201 49.6654C75.7275 57.6525 72.3728 64.7341 68.0696 71.4131C67.4602 72.3627 66.5681 73.1426 65.7452 73.9413C63.8166 75.8154 61.6744 76.4003 59.105 75.1802C56.5984 73.9853 56.3157 71.7904 56.1901 68.5515Z" fill="#DAEEE2"/>
<path d="M55.3107 82.3171C57.4717 82.097 58.7784 83.2794 58.6905 85.229C58.5774 87.5811 57.5974 89.9395 54.7641 89.9646C52.6973 89.9835 51.2336 88.3295 51.3215 86.2918C51.422 84.034 52.4774 82.1033 55.3107 82.3171Z" fill="#D8EDE0"/>
<path d="M55.3107 82.1085C57.4717 81.8884 58.7784 83.0707 58.6905 85.0204C58.5774 87.3725 57.5974 89.7309 54.7641 89.756C52.6973 89.7749 51.2336 88.1209 51.3215 86.0832C51.422 83.8254 52.4774 81.8947 55.3107 82.1085Z" fill="#D8EDE0"/>
<path d="M41.674 107.574C41.5483 108.788 42.0572 110.53 40.3799 110.769C38.5204 111.033 38.7277 109.146 38.5581 108.008C38.2439 105.876 37.6848 104.203 35.1217 103.92C33.8213 103.775 32.4518 103.008 33.0423 101.386C33.6329 99.7631 35.2662 100.398 36.3782 100.669C39.5569 101.467 41.6489 104.335 41.674 107.574Z" fill="#091D14"/>
<path d="M111.366 126.212C111.397 130.174 109.808 133.268 106.007 134.626C102.081 136.029 97.9662 136.255 94.8503 132.878C92.0421 129.834 91.4014 126.042 92.8463 122.073C93.8325 119.363 95.9308 118.281 98.6447 119.067C100.052 119.476 101.333 119.967 102.785 119.495C109.048 117.464 111.372 119.281 111.366 126.212Z" fill="#0B0F0F"/>
<path d="M99.4151 126.614C102.556 126.382 104.937 127.69 106.671 130.237C107.136 130.922 106.947 131.677 106.244 132.073C103.555 133.601 100.797 133.363 98.0645 132.199C96.3871 131.482 94.8794 130.073 95.1747 128.375C95.5327 126.287 97.7755 126.728 99.4151 126.614Z" fill="#F4A4C7"/>
<path d="M108.671 128.767C105.121 124.811 101.277 123.924 96.9357 124.509C96.1442 124.616 94.894 125.736 94.737 123.849C94.6428 122.698 95.5223 121.585 96.408 121.692C99.8758 122.107 103.136 121.535 106.535 121.113C109.513 120.755 109.06 125.245 108.671 128.767Z" fill="#A09DCA"/>
<path d="M89.2114 102.309C89.18 106.643 85.8002 110.146 82.9041 113.844C82.5146 114.34 81.3084 114.422 80.5106 114.347C75.9749 113.913 71.7847 112.454 68.4238 109.303C65.6597 106.712 64.6796 103.322 66.3821 99.8692C68.0217 96.5359 70.9178 95.0832 74.6368 96.7183C75.8744 97.2592 76.4712 96.7183 77.1874 95.9196C79.4866 93.36 82.2508 92.7939 85.3353 94.2907C88.3005 95.7247 89.1109 98.4038 89.2114 102.309Z" fill="#0B0D0C"/>
<path d="M86.8162 100.679C86.4078 105.144 84.6363 107.905 82.7391 110.609C81.8784 111.842 80.6597 111.999 79.309 111.773C75.345 111.119 72.0532 109.182 69.377 106.257C67.7625 104.496 67.4044 102.326 68.9435 100.389C70.4638 98.4713 72.6123 98.0121 74.6351 99.5781C76.4318 100.968 77.4181 100.44 78.2536 98.6599C79.4661 96.0877 81.6146 95.572 84.0018 96.4462C86.3388 97.3015 87.08 99.3014 86.8162 100.679Z" fill="#F4A4C7"/>
<path d="M113.228 97.2622C113.033 94.8032 113.995 92.7215 116.363 91.3757C118.932 89.9166 121.351 90.3065 123.418 92.2876C124.561 93.3819 125.384 93.8347 127.08 93.08C129.379 92.0549 131.654 93.0108 133.249 94.8535C134.996 96.8723 135.065 99.2559 133.915 101.665C132.056 105.576 124.743 109.708 120.685 109.123C117.764 108.708 113.303 101.734 113.228 97.2622Z" fill="#0F1311"/>
<path d="M115.635 97.7703C115.666 95.9968 115.83 94.2988 117.853 93.5881C119.794 92.9026 121.685 93.0724 122.79 94.8711C123.884 96.6572 124.845 97.349 126.792 96.0786C128.601 94.8962 130.448 95.2233 131.724 96.9528C133.074 98.7829 132.138 100.638 130.938 102.047C128.513 104.883 125.203 106.279 121.559 106.544C118.864 106.739 115.629 101.732 115.635 97.7703Z" fill="#F4A4C7"/>
</g>
<defs>
<linearGradient id="paint0_linear_36316_28216" x1="84.3882" y1="12.4491" x2="84.3882" y2="161.495" gradientUnits="userSpaceOnUse">
<stop stop-color="#1875F1"/>
<stop offset="0.792172" stop-color="#52BBF8"/>
<stop offset="1" stop-color="#72F9FD"/>
</linearGradient>
</defs>
</svg>
