<svg width="21" height="20" viewBox="0 0 21 20" fill="none" xmlns="http://www.w3.org/2000/svg">
<path d="M19.743 10.3321L10.743 0.332125C10.364 -0.089875 9.63598 -0.089875 9.25698 0.332125L0.256984 10.3321C0.12744 10.4757 0.0424085 10.6539 0.0122281 10.8449C-0.0179524 11.0359 0.00801875 11.2316 0.0869837 11.4081C0.246984 11.7691 0.604984 12.0011 0.999984 12.0011H2.99998V19.0011C2.99998 19.2663 3.10534 19.5207 3.29288 19.7082C3.48041 19.8958 3.73477 20.0011 3.99998 20.0011H6.99998C7.2652 20.0011 7.51955 19.8958 7.70709 19.7082C7.89463 19.5207 7.99998 19.2663 7.99998 19.0011V15.0011H12V19.0011C12 19.2663 12.1053 19.5207 12.2929 19.7082C12.4804 19.8958 12.7348 20.0011 13 20.0011H16C16.2652 20.0011 16.5196 19.8958 16.7071 19.7082C16.8946 19.5207 17 19.2663 17 19.0011V12.0011H19C19.1937 12.002 19.3834 11.9464 19.546 11.8413C19.7087 11.7361 19.8372 11.5859 19.916 11.409C19.9947 11.2321 20.0203 11.0361 19.9896 10.8448C19.9589 10.6536 19.8732 10.4755 19.743 10.3321V10.3321Z" fill="#009987"/>
</svg>