<svg width="148" height="148" viewBox="0 0 148 148" fill="none" xmlns="http://www.w3.org/2000/svg">
<g filter="url(#filter0_b_4036_30219)">
<path fill-rule="evenodd" clip-rule="evenodd" d="M71.243 1.98006C78.0749 2.89535 86.4627 4.95782 97.1631 7.58897L97.6904 7.71862C108.391 10.3497 116.779 12.4121 123.256 14.7693C129.866 17.1749 134.993 20.0562 138.851 24.6247C141.187 27.3904 143.074 30.5066 144.441 33.8588C146.699 39.3961 146.874 45.2743 145.94 52.2462C145.025 59.0779 142.962 67.466 140.331 78.1662L140.258 78.4647C138.919 83.9085 137.733 88.7323 136.596 92.9774C133.25 105.464 130.079 114.125 123.296 119.854C120.53 122.191 117.414 124.077 114.061 125.444C108.524 127.702 102.646 127.877 95.6741 126.943C88.8423 126.028 80.4547 123.966 69.7545 121.335L69.2265 121.205C58.5263 118.574 50.1383 116.511 43.6611 114.154C37.051 111.749 31.9244 108.867 28.0657 104.299C25.8144 101.633 23.981 98.6425 22.6273 95.4286C22.5763 95.3075 22.526 95.1862 22.4764 95.0645C20.2183 89.5272 20.0429 83.6491 20.9769 76.6772C21.8922 69.8453 23.9547 61.4576 26.5858 50.7571L26.7155 50.2298C29.3465 39.5293 31.4089 31.1415 33.7662 24.6642C36.1717 18.0542 39.0531 12.9276 43.6215 9.06886C46.3873 6.73281 49.5035 4.84663 52.8557 3.47957C58.393 1.22145 64.2712 1.04602 71.243 1.98006Z" fill="#C3E5FF"/>
<path d="M22.0135 95.2533L22.4764 95.0645L22.0135 95.2533C22.0638 95.3767 22.1148 95.4998 22.1665 95.6226C23.5398 98.8832 25.3998 101.917 27.6837 104.621C31.6218 109.284 36.8398 112.204 43.4901 114.624C49.9928 116.99 58.4024 119.058 69.0789 121.683L69.1071 121.69L69.6351 121.82L69.6634 121.827C80.3399 124.452 88.749 126.52 95.6077 127.439C102.622 128.379 108.599 128.211 114.25 125.907C117.651 124.52 120.812 122.606 123.618 120.236C130.535 114.394 133.735 105.585 137.079 93.1068C138.218 88.8565 139.405 84.028 140.743 78.5869L140.743 78.5841L140.817 78.2855L140.824 78.2573C143.449 67.5808 145.517 59.1712 146.436 52.3126C147.375 45.2983 147.208 39.3211 144.904 33.67C143.517 30.2692 141.603 27.1078 139.233 24.302C135.295 19.6397 130.077 16.7196 123.427 14.2995C116.924 11.933 108.515 9.86533 97.8387 7.24018L97.8098 7.23308L97.2825 7.10343L97.2537 7.09633C86.5772 4.47109 78.1681 2.40337 71.3094 1.48449C64.2952 0.544765 58.318 0.71205 52.6669 3.01659C49.2661 4.40347 46.1047 6.31698 43.2989 8.68689C38.6365 12.6249 35.7165 17.843 33.2963 24.4932C30.9298 30.9959 28.8622 39.4051 26.237 50.0816L26.2299 50.1104L26.1003 50.6377L26.0932 50.6666C23.4679 61.343 21.4002 69.7522 20.4813 76.6108C19.5416 83.6251 19.7089 89.6022 22.0135 95.2533Z" stroke="url(#paint0_linear_4036_30219)" stroke-linecap="round"/>
</g>
<g filter="url(#filter1_b_4036_30219)">
<path fill-rule="evenodd" clip-rule="evenodd" d="M45.2189 18.2424C52.0717 17.4999 60.7093 17.5 71.7285 17.5H72.2715C83.2907 17.5 91.9283 17.4999 98.7811 18.2424C105.774 19 111.441 20.5739 116.279 24.0889C119.207 26.2169 121.783 28.7925 123.911 31.7214C127.426 36.5594 129 42.2256 129.758 49.2189C130.5 56.0716 130.5 64.7094 130.5 75.7284V76.0358C130.5 81.6417 130.5 86.6093 130.409 91.0031C130.142 103.928 129.13 113.095 123.911 120.279C121.783 123.207 119.207 125.783 116.279 127.911C111.441 131.426 105.774 133 98.7811 133.758C91.9284 134.5 83.291 134.5 72.2721 134.5H71.7284C60.7094 134.5 52.0715 134.5 45.2189 133.758C38.2256 133 32.5594 131.426 27.7214 127.911C24.8988 125.86 22.4043 123.394 20.3224 120.596C20.2439 120.491 20.1661 120.385 20.0889 120.279C16.5739 115.441 15 109.774 14.2424 102.781C13.4999 95.9283 13.5 87.2907 13.5 76.2715V75.7285C13.5 64.7093 13.4999 56.0716 14.2424 49.2189C15 42.2256 16.5739 36.5594 20.0889 31.7214C22.2169 28.7925 24.7925 26.2169 27.7214 24.0889C32.5594 20.5739 38.2256 19 45.2189 18.2424Z" fill="#C3E5FF"/>
<path d="M19.6844 120.572L20.0889 120.279L19.6844 120.572C19.7627 120.68 19.8417 120.788 19.9212 120.895C22.0333 123.733 24.564 126.235 27.4275 128.316C32.3649 131.903 38.1292 133.492 45.165 134.255C52.0447 135 60.7048 135 71.6993 135H71.7284H72.2721H72.3012C83.2957 135 91.9553 135 98.835 134.255C105.871 133.492 111.635 131.903 116.572 128.316C119.544 126.157 122.157 123.544 124.316 120.572C129.637 113.248 130.642 103.929 130.909 91.0135C131 86.6138 131 81.6411 131 76.0373V76.0358V75.7284V75.6993C131 64.7048 131 56.0447 130.255 49.165C129.492 42.1292 127.903 36.3649 124.316 31.4275C122.157 28.4562 119.544 25.8432 116.572 23.6844C111.635 20.0972 105.871 18.5076 98.835 17.7453C91.9553 16.9999 83.2957 17 72.3012 17L72.2715 17H71.7285L71.6988 17C60.7043 17 52.0447 16.9999 45.165 17.7453C38.1292 18.5076 32.3649 20.0972 27.4275 23.6844C24.4562 25.8432 21.8432 28.4562 19.6844 31.4275C16.0972 36.3649 14.5076 42.1292 13.7453 49.165C12.9999 56.0447 13 64.7043 13 75.6988L13 75.7285V76.2715L13 76.3012C13 87.2957 12.9999 95.9553 13.7453 102.835C14.5076 109.871 16.0972 115.635 19.6844 120.572Z" stroke="url(#paint1_linear_4036_30219)" stroke-linecap="round"/>
</g>
<g filter="url(#filter2_d_4036_30219)">
<rect x="37" y="45" width="69" height="68" rx="20" fill="url(#paint2_linear_4036_30219)" shape-rendering="crispEdges"/>
</g>
<rect x="70" y="39" width="34" height="29" rx="14.5" fill="url(#paint3_linear_4036_30219)"/>
<rect x="90" y="65" width="8" height="3" rx="1" fill="#62BDFF"/>
<rect x="82" y="68" width="8" height="3" rx="1" fill="#62BDFF"/>
<rect x="90" y="70" width="8" height="3" rx="1" fill="#62BDFF"/>
<rect x="82" y="73" width="8" height="3" rx="1" fill="#62BDFF"/>
<rect x="90" y="75" width="8" height="3" rx="1" fill="#62BDFF"/>
<rect x="82" y="78" width="8" height="3" rx="1" fill="#62BDFF"/>
<rect x="90" y="80" width="8" height="3" rx="1" fill="#62BDFF"/>
<rect x="88" y="96" width="4.5" height="3" rx="1" fill="#62BDFF"/>
<rect x="82" y="83" width="8" height="3" rx="1" fill="#62BDFF"/>
<rect x="90" y="85" width="8" height="3" rx="1" fill="#62BDFF"/>
<path d="M84.5 92C84.5 90.6193 85.6193 89.5 87 89.5H94C95.3807 89.5 96.5 90.6193 96.5 92V102.5H84.5V92Z" stroke="#62BDFF" stroke-width="3"/>
<defs>
<filter id="filter0_b_4036_30219" x="-4.55511" y="-23.5518" width="176.027" height="176.027" filterUnits="userSpaceOnUse" color-interpolation-filters="sRGB">
<feFlood flood-opacity="0" result="BackgroundImageFix"/>
<feGaussianBlur in="BackgroundImage" stdDeviation="12"/>
<feComposite in2="SourceAlpha" operator="in" result="effect1_backgroundBlur_4036_30219"/>
<feBlend mode="normal" in="SourceGraphic" in2="effect1_backgroundBlur_4036_30219" result="shape"/>
</filter>
<filter id="filter1_b_4036_30219" x="-11.5" y="-7.5" width="167" height="167" filterUnits="userSpaceOnUse" color-interpolation-filters="sRGB">
<feFlood flood-opacity="0" result="BackgroundImageFix"/>
<feGaussianBlur in="BackgroundImage" stdDeviation="12"/>
<feComposite in2="SourceAlpha" operator="in" result="effect1_backgroundBlur_4036_30219"/>
<feBlend mode="normal" in="SourceGraphic" in2="effect1_backgroundBlur_4036_30219" result="shape"/>
</filter>
<filter id="filter2_d_4036_30219" x="34" y="42" width="85" height="84" filterUnits="userSpaceOnUse" color-interpolation-filters="sRGB">
<feFlood flood-opacity="0" result="BackgroundImageFix"/>
<feColorMatrix in="SourceAlpha" type="matrix" values="0 0 0 0 0 0 0 0 0 0 0 0 0 0 0 0 0 0 127 0" result="hardAlpha"/>
<feOffset dx="5" dy="5"/>
<feGaussianBlur stdDeviation="4"/>
<feComposite in2="hardAlpha" operator="out"/>
<feColorMatrix type="matrix" values="0 0 0 0 0.176471 0 0 0 0 0.556863 0 0 0 0 0.678431 0 0 0 0.5 0"/>
<feBlend mode="normal" in2="BackgroundImageFix" result="effect1_dropShadow_4036_30219"/>
<feBlend mode="normal" in="SourceGraphic" in2="effect1_dropShadow_4036_30219" result="shape"/>
</filter>
<linearGradient id="paint0_linear_4036_30219" x1="40.6189" y1="-6.31445" x2="126.37" y2="135.194" gradientUnits="userSpaceOnUse">
<stop stop-color="white" stop-opacity="0.25"/>
<stop offset="1" stop-color="white" stop-opacity="0"/>
</linearGradient>
<linearGradient id="paint1_linear_4036_30219" x1="13.5" y1="17.5" x2="130.559" y2="134.441" gradientUnits="userSpaceOnUse">
<stop stop-color="white" stop-opacity="0.25"/>
<stop offset="1" stop-color="white" stop-opacity="0"/>
</linearGradient>
<linearGradient id="paint2_linear_4036_30219" x1="71.5" y1="45" x2="71.5" y2="113" gradientUnits="userSpaceOnUse">
<stop stop-color="white"/>
<stop offset="1" stop-color="white" stop-opacity="0.2"/>
</linearGradient>
<linearGradient id="paint3_linear_4036_30219" x1="87" y1="39" x2="87" y2="68" gradientUnits="userSpaceOnUse">
<stop stop-color="white"/>
<stop offset="1" stop-color="white" stop-opacity="0.2"/>
</linearGradient>
</defs>
</svg>
