<svg width="27" height="27" viewBox="0 0 27 27" fill="none" xmlns="http://www.w3.org/2000/svg">
<path fill-rule="evenodd" clip-rule="evenodd" d="M14.7927 23.2025H11.5054C10.5976 23.2025 9.86176 22.4666 9.86176 21.5588V15.3211L3.77199 9.23133C3.46332 8.92446 3.28894 8.50779 3.28711 8.07255V5.12218C3.28711 4.21441 4.023 3.47852 4.93077 3.47852H21.3674C22.2752 3.47852 23.0111 4.21441 23.0111 5.12218V8.07255C23.0092 8.50779 22.8349 8.92446 22.5262 9.23133L16.4364 15.3211V21.5588C16.4364 22.4666 15.7005 23.2025 14.7927 23.2025ZM4.93077 5.12218V8.07255L11.5054 14.6472V21.5588H14.7927V14.6472L21.3674 8.07255V5.12218H4.93077Z" fill="#0D99FF"/>
</svg>
