<svg width="22" height="19" viewBox="0 0 22 19" fill="none" xmlns="http://www.w3.org/2000/svg">
<path d="M11.8685 0.999956L21.3945 17.5C21.4823 17.652 21.5285 17.8244 21.5285 18C21.5285 18.1755 21.4823 18.3479 21.3945 18.4999C21.3068 18.652 21.1805 18.7782 21.0285 18.866C20.8765 18.9537 20.7041 19 20.5285 19H1.47654C1.301 19 1.12856 18.9537 0.976546 18.866C0.82453 18.7782 0.698296 18.652 0.610531 18.4999C0.522765 18.3479 0.476561 18.1755 0.476563 18C0.476564 17.8244 0.52277 17.652 0.610537 17.5L10.1365 0.999956C10.2243 0.847949 10.3505 0.721722 10.5026 0.633962C10.6546 0.546202 10.827 0.5 11.0025 0.5C11.1781 0.5 11.3505 0.546202 11.5025 0.633962C11.6545 0.721722 11.7808 0.847949 11.8685 0.999956ZM10.0025 14V16H12.0025V14H10.0025ZM10.0025 6.99996V12H12.0025V6.99996H10.0025Z" fill="#FF3236"/>
</svg>
