<svg width="32" height="32" viewBox="0 0 32 32" fill="none" xmlns="http://www.w3.org/2000/svg">
<path d="M16.4996 22.5L12.6246 26.375C12.3458 26.6547 12.0147 26.8766 11.65 27.028C11.2854 27.1794 10.8944 27.2574 10.4996 27.2574C10.1047 27.2574 9.71375 27.1794 9.3491 27.028C8.98444 26.8766 8.65326 26.6547 8.37455 26.375L5.62455 23.625C5.34487 23.3463 5.12296 23.0151 4.97155 22.6505C4.82013 22.2858 4.74219 21.8948 4.74219 21.5C4.74219 21.1052 4.82013 20.7142 4.97155 20.3495C5.12296 19.9849 5.34487 19.6537 5.62455 19.375L9.49955 15.5" stroke="#0D99FF" stroke-width="1.5" stroke-linecap="round" stroke-linejoin="round"/>
<path d="M7 25L3 29" stroke="#0D99FF" stroke-width="1.5" stroke-linecap="round" stroke-linejoin="round"/>
<path d="M29 3L25 7" stroke="#0D99FF" stroke-width="1.5" stroke-linecap="round" stroke-linejoin="round"/>
<path d="M18 18L15 21" stroke="#0D99FF" stroke-width="1.5" stroke-linecap="round" stroke-linejoin="round"/>
<path d="M14 14L11 17" stroke="#0D99FF" stroke-width="1.5" stroke-linecap="round" stroke-linejoin="round"/>
<path d="M22.5 16.4996L26.375 12.6246C26.6547 12.3458 26.8766 12.0147 27.028 11.65C27.1794 11.2854 27.2574 10.8944 27.2574 10.4996C27.2574 10.1047 27.1794 9.71375 27.028 9.3491C26.8766 8.98444 26.6547 8.65326 26.375 8.37455L23.625 5.62455C23.3463 5.34487 23.0151 5.12296 22.6505 4.97155C22.2858 4.82013 21.8948 4.74219 21.5 4.74219C21.1052 4.74219 20.7142 4.82013 20.3495 4.97155C19.9849 5.12296 19.6537 5.34487 19.375 5.62455L15.5 9.49955" stroke="#0D99FF" stroke-width="1.5" stroke-linecap="round" stroke-linejoin="round"/>
<path d="M14.5 8.5L23.5 17.5" stroke="#0D99FF" stroke-width="1.5" stroke-linecap="round" stroke-linejoin="round"/>
<path d="M8.5 14.5L17.5 23.5" stroke="#0D99FF" stroke-width="1.5" stroke-linecap="round" stroke-linejoin="round"/>
</svg>
