<svg width="14" height="12" viewBox="0 0 14 12" fill="none" xmlns="http://www.w3.org/2000/svg">
<path d="M12.7099 5.29C12.617 5.19627 12.5064 5.12188 12.3845 5.07111C12.2627 5.02034 12.132 4.9942 11.9999 4.9942C11.8679 4.9942 11.7372 5.02034 11.6154 5.07111C11.4935 5.12188 11.3829 5.19627 11.2899 5.29L7.99994 8.59V1C7.99994 0.734784 7.89458 0.48043 7.70705 0.292893C7.51951 0.105357 7.26516 0 6.99994 0C6.73472 0 6.48037 0.105357 6.29283 0.292893C6.1053 0.48043 5.99994 0.734784 5.99994 1V8.59L2.70994 5.29C2.52164 5.1017 2.26624 4.99591 1.99994 4.99591C1.73364 4.99591 1.47825 5.1017 1.28994 5.29C1.10164 5.4783 0.99585 5.7337 0.99585 6C0.99585 6.2663 1.10164 6.5217 1.28994 6.71L6.28994 11.71C6.38505 11.801 6.49719 11.8724 6.61994 11.92C6.73964 11.9729 6.86907 12.0002 6.99994 12.0002C7.13081 12.0002 7.26024 11.9729 7.37994 11.92C7.50269 11.8724 7.61484 11.801 7.70994 11.71L12.7099 6.71C12.8037 6.61704 12.8781 6.50644 12.9288 6.38458C12.9796 6.26272 13.0057 6.13201 13.0057 6C13.0057 5.86799 12.9796 5.73728 12.9288 5.61542C12.8781 5.49356 12.8037 5.38296 12.7099 5.29Z" fill="gray"/>
</svg>
