<svg width="10" height="11" viewBox="0 0 10 11" fill="none" xmlns="http://www.w3.org/2000/svg">
<path d="M7.30679 8.80212C7.50976 8.59915 7.74395 8.49767 8.00937 8.49767C8.27479 8.49767 8.50117 8.59915 8.68852 8.80212C8.89149 9.00508 8.99297 9.23928 8.99297 9.50469C8.99297 9.77011 8.89149 10.0043 8.68852 10.2073C8.50117 10.3946 8.27479 10.4883 8.00937 10.4883C7.74395 10.4883 7.50976 10.3946 7.30679 10.2073C7.10383 10.0043 7.00234 9.77011 7.00234 9.50469C7.00234 9.23928 7.10383 9.00508 7.30679 8.80212ZM0 0.511719H1.63934L2.10773 1.49533H9.5082C9.64871 1.49533 9.76581 1.54997 9.85948 1.65926C9.95316 1.75294 10 1.87003 10 2.01055C10 2.02616 9.97658 2.10422 9.92974 2.24474L8.14988 5.47659C7.96253 5.82007 7.67369 5.99181 7.28337 5.99181H3.55972L3.11475 6.81148L3.09133 6.88174C3.09133 6.95981 3.13037 6.99884 3.20843 6.99884H8.99297V8.00586H2.99766C2.73224 8.00586 2.49805 7.90438 2.29508 7.70141C2.10773 7.49845 2.01405 7.26426 2.01405 6.99884C2.01405 6.84271 2.05308 6.68658 2.13115 6.53045L2.8103 5.28924L1.00703 1.49533H0V0.511719ZM2.29508 8.80212C2.49805 8.59915 2.73224 8.49767 2.99766 8.49767C3.26308 8.49767 3.49727 8.59915 3.70023 8.80212C3.9032 9.00508 4.00468 9.23928 4.00468 9.50469C4.00468 9.77011 3.9032 10.0043 3.70023 10.2073C3.49727 10.3946 3.26308 10.4883 2.99766 10.4883C2.73224 10.4883 2.49805 10.3946 2.29508 10.2073C2.10773 10.0043 2.01405 9.77011 2.01405 9.50469C2.01405 9.23928 2.10773 9.00508 2.29508 8.80212Z" fill="#2C3857"/>
</svg>
