<svg width="20" height="14" viewBox="0 0 20 14" fill="none" xmlns="http://www.w3.org/2000/svg">
<path fill-rule="evenodd" clip-rule="evenodd" d="M0.0918163 4.02026C0.215226 2.11404 1.70009 0.574146 3.60849 0.370856C5.58797 0.172477 7.69185 0.0654297 9.87274 0.0654297C12.0536 0.0654297 14.1575 0.172477 16.137 0.371838C18.0454 0.574146 19.5302 2.11404 19.6536 4.02026C19.7139 4.95912 19.7455 5.91861 19.7455 6.89283C19.7455 7.86702 19.7139 8.82654 19.6536 9.76542C19.5302 11.6716 18.0454 13.2115 16.137 13.4148C14.1575 13.6132 12.0536 13.7202 9.87274 13.7202C7.69185 13.7202 5.58797 13.6132 3.60849 13.4138C1.70009 13.2115 0.215226 11.6716 0.0918163 9.76542C0.0315927 8.82654 0 7.86702 0 6.89283C0 5.91861 0.0315927 4.95912 0.0918163 4.02026Z" fill="#FF0000"/>
<path fill-rule="evenodd" clip-rule="evenodd" d="M12.8895 6.89151L8.04297 9.83283V3.9502L12.8895 6.89151Z" fill="white"/>
</svg>
