<svg width="40" height="40" viewBox="0 0 40 40" fill="none" xmlns="http://www.w3.org/2000/svg">
<path d="M11.6641 30V28.3333C11.6641 26.1232 12.542 24.0036 14.1048 22.4408C15.6676 20.878 17.7873 20 19.9974 20C22.2075 20 24.3272 20.878 25.89 22.4408C27.4528 24.0036 28.3307 26.1232 28.3307 28.3333V30" stroke="#0D99FF" stroke-width="1.5" stroke-linecap="round"/>
<path d="M20 20C21.3261 20 22.5979 19.4732 23.5355 18.5355C24.4732 17.5979 25 16.3261 25 15C25 13.6739 24.4732 12.4021 23.5355 11.4645C22.5979 10.5268 21.3261 10 20 10C18.6739 10 17.4021 10.5268 16.4645 11.4645C15.5268 12.4021 15 13.6739 15 15C15 16.3261 15.5268 17.5979 16.4645 18.5355C17.4021 19.4732 18.6739 20 20 20V20Z" stroke="#0D99FF" stroke-width="1.5" stroke-linecap="round" stroke-linejoin="round"/>
<path d="M19.9987 36.6654C29.2034 36.6654 36.6654 29.2034 36.6654 19.9987C36.6654 10.794 29.2034 3.33203 19.9987 3.33203C10.794 3.33203 3.33203 10.794 3.33203 19.9987C3.33203 29.2034 10.794 36.6654 19.9987 36.6654Z" stroke="#0D99FF" stroke-width="1.5"/>
</svg>
