<svg width="24" height="21" viewBox="0 0 24 21" fill="none" xmlns="http://www.w3.org/2000/svg">
<path d="M12 15.0003C11.8022 15.0003 11.6088 15.0589 11.4444 15.1688C11.2799 15.2787 11.1518 15.4349 11.0761 15.6176C11.0004 15.8003 10.9806 16.0014 11.0192 16.1954C11.0578 16.3893 11.153 16.5675 11.2929 16.7074C11.4327 16.8472 11.6109 16.9425 11.8049 16.9811C11.9989 17.0196 12.1999 16.9998 12.3827 16.9242C12.5654 16.8485 12.7216 16.7203 12.8314 16.5558C12.9413 16.3914 13 16.1981 13 16.0003C13 15.7351 12.8946 15.4807 12.7071 15.2932C12.5195 15.1056 12.2652 15.0003 12 15.0003ZM22.67 16.4703L14.62 2.47027C14.3598 2.00379 13.9798 1.61523 13.5192 1.34474C13.0586 1.07425 12.5341 0.931641 12 0.931641C11.4658 0.931641 10.9414 1.07425 10.4808 1.34474C10.0202 1.61523 9.64016 2.00379 9.37997 2.47027L1.37997 16.4703C1.11076 16.9243 0.96611 17.4413 0.960612 17.9691C0.955114 18.4969 1.08897 19.0168 1.34865 19.4763C1.60834 19.9358 1.98467 20.3187 2.43965 20.5863C2.89463 20.8539 3.41215 20.9967 3.93997 21.0003H20.06C20.592 21.0055 21.1159 20.8692 21.5779 20.6052C22.0399 20.3412 22.4233 19.9591 22.6889 19.4981C22.9546 19.0371 23.0928 18.5137 23.0895 17.9816C23.0861 17.4495 22.9414 16.9279 22.67 16.4703ZM20.94 18.4703C20.8523 18.6262 20.7244 18.7558 20.5697 18.8455C20.4149 18.9352 20.2389 18.9817 20.06 18.9803H3.93997C3.76108 18.9817 3.58507 18.9352 3.43029 18.8455C3.2755 18.7558 3.14762 18.6262 3.05997 18.4703C2.9722 18.3183 2.92599 18.1458 2.92599 17.9703C2.92599 17.7947 2.9722 17.6223 3.05997 17.4703L11.06 3.47027C11.1439 3.30647 11.2714 3.169 11.4284 3.07301C11.5854 2.97702 11.7659 2.92623 11.95 2.92623C12.134 2.92623 12.3145 2.97702 12.4715 3.07301C12.6286 3.169 12.7561 3.30647 12.84 3.47027L20.89 17.4703C20.9892 17.6201 21.0462 17.7939 21.055 17.9734C21.0638 18.1529 21.0241 18.3314 20.94 18.4903V18.4703ZM12 7.00027C11.7348 7.00027 11.4804 7.10563 11.2929 7.29316C11.1053 7.4807 11 7.73505 11 8.00027V12.0003C11 12.2655 11.1053 12.5198 11.2929 12.7074C11.4804 12.8949 11.7348 13.0003 12 13.0003C12.2652 13.0003 12.5195 12.8949 12.7071 12.7074C12.8946 12.5198 13 12.2655 13 12.0003V8.00027C13 7.73505 12.8946 7.4807 12.7071 7.29316C12.5195 7.10563 12.2652 7.00027 12 7.00027Z" fill="red"/>
</svg>
