<svg width="36" height="37" viewBox="0 0 36 37" fill="none" xmlns="http://www.w3.org/2000/svg">
<path d="M18 0.367188C8.061 0.367188 0 8.42819 0 18.3672C0 28.3062 8.061 36.3672 18 36.3672C27.939 36.3672 36 28.3062 36 18.3672C36 8.42819 27.9435 0.367188 18 0.367188ZM8.88 18.9717L8.9565 18.8502L13.641 11.5242C13.6567 11.5001 13.6786 11.4807 13.7043 11.4679C13.7301 11.4552 13.7588 11.4496 13.7875 11.4517C13.8161 11.4539 13.8437 11.4637 13.8673 11.4801C13.8908 11.4966 13.9096 11.519 13.9215 11.5452C14.7015 13.2987 15.3795 15.4797 15.0615 16.8372C14.9295 17.3952 14.559 18.1512 14.1405 18.8502C14.0868 18.9524 14.0282 19.0521 13.965 19.1487C13.9499 19.1702 13.9296 19.1877 13.906 19.1995C13.8825 19.2113 13.8563 19.217 13.83 19.2162H9.0195C8.99079 19.2166 8.96249 19.2093 8.93761 19.1949C8.91274 19.1806 8.89221 19.1598 8.87821 19.1347C8.86421 19.1096 8.85727 19.0812 8.85811 19.0525C8.85895 19.0238 8.86755 18.9959 8.883 18.9717H8.88ZM29.751 21.4917C29.7514 21.5237 29.7423 21.5551 29.725 21.5821C29.7077 21.609 29.6828 21.6303 29.6535 21.6432C29.289 21.7977 28.0485 22.3707 27.5325 23.0862C26.2155 24.9192 25.2105 27.5412 22.9605 27.5412H13.5795C12.7874 27.54 12.0034 27.3828 11.2721 27.0784C10.5409 26.7741 9.87677 26.3286 9.31775 25.7675C8.75873 25.2064 8.31576 24.5406 8.01415 23.8083C7.71255 23.0759 7.55823 22.2912 7.56 21.4992V21.3912C7.56 21.3042 7.632 21.2322 7.722 21.2322H12.9495C13.0545 21.2322 13.1295 21.3267 13.122 21.4302C13.083 21.7692 13.1475 22.1187 13.3095 22.4352C13.6185 23.0652 14.2635 23.4582 14.958 23.4582H17.547V21.4377H14.985C14.955 21.4374 14.9256 21.4289 14.9001 21.4131C14.8745 21.3973 14.8538 21.3749 14.84 21.3482C14.8263 21.3215 14.8201 21.2915 14.8221 21.2616C14.8241 21.2316 14.8343 21.2028 14.8515 21.1782L14.946 21.0432C15.186 20.6967 15.5325 20.1642 15.8775 19.5552C16.1115 19.1442 16.3395 18.7062 16.5225 18.2652C16.5585 18.1872 16.587 18.1047 16.62 18.0252C16.6695 17.8842 16.7205 17.7522 16.7565 17.6217C16.7918 17.511 16.8243 17.3995 16.854 17.2872C16.9395 16.9122 16.9755 16.5162 16.9755 16.1067C16.9755 15.9447 16.9695 15.7752 16.9545 15.6162C16.947 15.4407 16.9245 15.2637 16.9035 15.0882C16.8867 14.9312 16.8627 14.775 16.8315 14.6202C16.7911 14.3845 16.7421 14.1503 16.6845 13.9182L16.6635 13.8282C16.6185 13.6662 16.5795 13.5132 16.5285 13.3527C16.3857 12.8598 16.2215 12.3733 16.0365 11.8947C15.972 11.7146 15.901 11.537 15.8235 11.3622C15.7155 11.0952 15.6045 10.8537 15.504 10.6272C15.454 10.5302 15.407 10.4316 15.363 10.3317C15.3142 10.2239 15.2627 10.1174 15.2085 10.0122C15.1725 9.93269 15.129 9.85619 15.1005 9.78419L14.784 9.20219C14.7405 9.12269 14.8125 9.02519 14.8995 9.05069L16.8795 9.58619H16.8945L17.154 9.66119L17.442 9.74219L17.547 9.77069V8.59619C17.547 8.02769 18 7.56719 18.5655 7.56719C18.699 7.56683 18.8313 7.59349 18.9542 7.64556C19.0772 7.69763 19.1883 7.77404 19.281 7.87019C19.4725 8.06336 19.5803 8.32417 19.581 8.59619V10.3422L19.7925 10.4007C19.8075 10.4082 19.8255 10.4157 19.839 10.4262C19.89 10.4622 19.965 10.5192 20.0595 10.5912C20.1345 10.6482 20.214 10.7202 20.307 10.7967C20.6032 11.038 20.8904 11.2902 21.168 11.5527C21.489 11.8512 21.849 12.2007 22.194 12.5892C22.2915 12.7002 22.3845 12.8082 22.482 12.9282C22.575 13.0467 22.68 13.1622 22.767 13.2762C22.8855 13.4322 23.007 13.5942 23.1195 13.7622C23.169 13.8417 23.2305 13.9242 23.277 14.0037C23.421 14.2167 23.544 14.4357 23.6625 14.6562C23.7135 14.7567 23.763 14.8677 23.8065 14.9757C23.94 15.2712 24.045 15.5697 24.1095 15.8727C24.1308 15.937 24.1454 16.0034 24.153 16.0707V16.0857C24.174 16.1712 24.1815 16.2657 24.189 16.3617C24.2312 16.805 24.177 17.2523 24.03 17.6727C23.9835 17.7987 23.94 17.9277 23.883 18.0537C23.7705 18.3087 23.6415 18.5682 23.487 18.8067C23.436 18.8967 23.3745 18.9897 23.3175 19.0797C23.253 19.1742 23.184 19.2642 23.127 19.3497C23.0445 19.4633 22.958 19.5738 22.8675 19.6812C22.788 19.7892 22.7085 19.8972 22.6185 19.9947C22.497 20.1417 22.3785 20.2797 22.251 20.4117C22.179 20.4987 22.101 20.5887 22.017 20.6667C21.939 20.7567 21.855 20.8362 21.783 20.9082C21.657 21.0342 21.558 21.1287 21.471 21.2112L21.2655 21.3942C21.2369 21.4229 21.198 21.4391 21.1575 21.4392H19.581V23.4582H21.564C22.0065 23.4582 22.428 23.3022 22.77 23.0112C22.8855 22.9107 23.3925 22.4712 23.994 21.8082C24.0136 21.7856 24.0399 21.7699 24.069 21.7632L29.544 20.1777C29.568 20.1707 29.5934 20.1694 29.618 20.1739C29.6426 20.1784 29.6658 20.1885 29.6859 20.2035C29.706 20.2185 29.7223 20.2379 29.7336 20.2602C29.7449 20.2825 29.7508 20.3072 29.751 20.3322V21.4917Z" fill="#699BF7"/>
</svg>
