<svg width="24" height="19" viewBox="0 0 24 19" fill="none" xmlns="http://www.w3.org/2000/svg">
<path d="M20.1952 7.2313C20.1379 7.1263 20.0414 7.03671 19.9179 6.97383C19.7945 6.91094 19.6496 6.87758 19.5015 6.87793H4.50149C4.35342 6.87758 4.20853 6.91094 4.08507 6.97383C3.96161 7.03671 3.86512 7.1263 3.80774 7.2313C3.75371 7.33786 3.74 7.45402 3.7682 7.56632C3.79641 7.67863 3.86537 7.7825 3.96711 7.86591L11.4671 13.6351C11.6105 13.7418 11.8021 13.8014 12.0015 13.8014C12.2009 13.8014 12.3925 13.7418 12.5359 13.6351L20.0359 7.86591C20.1376 7.7825 20.2066 7.67863 20.2348 7.56632C20.263 7.45402 20.2493 7.33786 20.1952 7.2313Z" fill="#0D99FF"/>
</svg>
