<svg width="24" height="24" viewBox="0 0 24 24" fill="none" xmlns="http://www.w3.org/2000/svg">
<path fill-rule="evenodd" clip-rule="evenodd" d="M19.2002 20.7992C19.6246 20.7992 20.0315 20.6306 20.3316 20.3306C20.6317 20.0305 20.8002 19.6236 20.8002 19.1992V4.79922C20.8002 4.37487 20.6317 3.96791 20.3316 3.66785C20.0315 3.36779 19.6246 3.19922 19.2002 3.19922H4.80023C4.37588 3.19922 3.96892 3.36779 3.66886 3.66785C3.3688 3.96791 3.20023 4.37487 3.20023 4.79922V10.3992C3.20023 10.6114 3.28451 10.8149 3.43454 10.9649C3.58457 11.1149 3.78806 11.1992 4.00023 11.1992C4.2124 11.1992 4.41589 11.1149 4.56591 10.9649C4.71594 10.8149 4.80023 10.6114 4.80023 10.3992V4.79922H19.2002V19.1992H13.6002C13.3881 19.1992 13.1846 19.2835 13.0345 19.4335C12.8845 19.5836 12.8002 19.787 12.8002 19.9992C12.8002 20.2114 12.8845 20.4149 13.0345 20.5649C13.1846 20.7149 13.3881 20.7992 13.6002 20.7992H19.2002ZM14.4002 10.3992V15.1992C14.4002 15.4114 14.3159 15.6149 14.1659 15.7649C14.0159 15.9149 13.8124 15.9992 13.6002 15.9992C13.3881 15.9992 13.1846 15.9149 13.0345 15.7649C12.8845 15.6149 12.8002 15.4114 12.8002 15.1992V12.3304L4.56663 20.5656C4.49225 20.64 4.40395 20.699 4.30676 20.7393C4.20958 20.7795 4.10542 20.8002 4.00023 20.8002C3.89504 20.8002 3.79088 20.7795 3.6937 20.7393C3.59651 20.699 3.50821 20.64 3.43383 20.5656C3.35945 20.4912 3.30045 20.4029 3.26019 20.3058C3.21994 20.2086 3.19922 20.1044 3.19922 19.9992C3.19922 19.894 3.21994 19.7899 3.26019 19.6927C3.30045 19.5955 3.35945 19.5072 3.43383 19.4328L11.669 11.1992H8.80023C8.58806 11.1992 8.38457 11.1149 8.23454 10.9649C8.08452 10.8149 8.00023 10.6114 8.00023 10.3992C8.00023 10.187 8.08452 9.98356 8.23454 9.83353C8.38457 9.68351 8.58806 9.59922 8.80023 9.59922H13.6002C13.705 9.5988 13.8088 9.61904 13.9058 9.6588C14.0027 9.69855 14.0908 9.75704 14.1652 9.8309C14.2395 9.90476 14.2985 9.99255 14.3388 10.0892C14.3792 10.1859 14.4 10.2896 14.4002 10.3944" fill="white"/>
</svg>
