<svg width="33" height="25" viewBox="0 0 33 25" fill="none" xmlns="http://www.w3.org/2000/svg">
<path d="M21.7048 13.4305C21.7048 14.7548 21.1788 16.0248 20.2424 16.9612C19.306 17.8975 18.036 18.4236 16.7118 18.4236C15.3876 18.4236 14.1176 17.8975 13.1812 16.9612C12.2448 16.0248 11.7188 14.7548 11.7188 13.4305C11.7188 12.1063 12.2448 10.8363 13.1812 9.89993C14.1176 8.96355 15.3876 8.4375 16.7118 8.4375C18.036 8.4375 19.306 8.96355 20.2424 9.89993C21.1788 10.8363 21.7048 12.1063 21.7048 13.4305Z" fill="black"/>
<path d="M4.72881 4.43975C3.66942 4.43975 2.65342 4.86059 1.90432 5.60969C1.15522 6.35879 0.734375 7.37479 0.734375 8.43418L0.734375 20.4175C0.734375 21.4769 1.15522 22.4929 1.90432 23.242C2.65342 23.9911 3.66942 24.4119 4.72881 24.4119H28.6954C29.7548 24.4119 30.7708 23.9911 31.5199 23.242C32.269 22.4929 32.6899 21.4769 32.6899 20.4175V8.43418C32.6899 7.37479 32.269 6.35879 31.5199 5.60969C30.7708 4.86059 29.7548 4.43975 28.6954 4.43975H26.3547C25.2954 4.43952 24.2795 4.01853 23.5306 3.26938L21.8769 1.61568C21.128 0.866528 20.1122 0.445539 19.0529 0.445312H14.3714C13.3121 0.445539 12.2962 0.866528 11.5473 1.61568L9.89361 3.26938C9.14469 4.01853 8.12885 4.43952 7.06955 4.43975H4.72881ZM5.72742 8.43418C5.46257 8.43418 5.20857 8.32897 5.0213 8.1417C4.83402 7.95442 4.72881 7.70042 4.72881 7.43557C4.72881 7.17073 4.83402 6.91673 5.0213 6.72945C5.20857 6.54218 5.46257 6.43697 5.72742 6.43697C5.99227 6.43697 6.24627 6.54218 6.43354 6.72945C6.62082 6.91673 6.72603 7.17073 6.72603 7.43557C6.72603 7.70042 6.62082 7.95442 6.43354 8.1417C6.24627 8.32897 5.99227 8.43418 5.72742 8.43418ZM23.7024 13.4272C23.7024 15.2812 22.9659 17.0592 21.655 18.3701C20.344 19.681 18.566 20.4175 16.7121 20.4175C14.8582 20.4175 13.0802 19.681 11.7693 18.3701C10.4583 17.0592 9.72185 15.2812 9.72185 13.4272C9.72185 11.5733 10.4583 9.79529 11.7693 8.48437C13.0802 7.17344 14.8582 6.43697 16.7121 6.43697C18.566 6.43697 20.344 7.17344 21.655 8.48437C22.9659 9.79529 23.7024 11.5733 23.7024 13.4272V13.4272Z" fill="black"/>
</svg>
