<svg width="22" height="22" viewBox="0 0 22 22" fill="none" xmlns="http://www.w3.org/2000/svg">
<path d="M18.5625 7.8461V17.875C18.5625 18.0573 18.4901 18.2322 18.3611 18.3611C18.2322 18.4901 18.0573 18.5625 17.875 18.5625H4.125C3.94266 18.5625 3.7678 18.4901 3.63886 18.3611C3.50993 18.2322 3.4375 18.0573 3.4375 17.875V4.125C3.4375 3.94267 3.50993 3.7678 3.63886 3.63887C3.7678 3.50994 3.94266 3.4375 4.125 3.4375H14.1539C14.2432 3.43719 14.3316 3.45449 14.4142 3.4884C14.4968 3.52232 14.5719 3.57219 14.6352 3.63516L18.3648 7.36485C18.4278 7.42813 18.4777 7.50321 18.5116 7.58579C18.5455 7.66837 18.5628 7.75683 18.5625 7.8461V7.8461Z" stroke="white" stroke-width="1.5" stroke-linecap="round" stroke-linejoin="round"/>
<path d="M6.875 18.5625V13.0625C6.875 12.8802 6.94743 12.7053 7.07636 12.5764C7.2053 12.4474 7.38016 12.375 7.5625 12.375H14.4375C14.6198 12.375 14.7947 12.4474 14.9236 12.5764C15.0526 12.7053 15.125 12.8802 15.125 13.0625V18.5625" stroke="white" stroke-width="1.5" stroke-linecap="round" stroke-linejoin="round"/>
<path d="M13.0625 6.1875H8.25" stroke="white" stroke-width="1.5" stroke-linecap="round" stroke-linejoin="round"/>
</svg>
