<svg width="28" height="28" viewBox="0 0 28 28" fill="none" xmlns="http://www.w3.org/2000/svg">
<path d="M11.082 16.0429C11.082 17.1746 11.957 18.0846 13.0304 18.0846H15.2237C16.157 18.0846 16.9154 17.2912 16.9154 16.2996C16.9154 15.2379 16.4487 14.8529 15.7604 14.6079L12.2487 13.3829C11.5604 13.1379 11.0937 12.7646 11.0937 11.6912C11.0937 10.7112 11.852 9.90625 12.7854 9.90625H14.9787C16.052 9.90625 16.927 10.8163 16.927 11.9479" stroke="#0D99FF" stroke-width="1.5" stroke-linecap="round" stroke-linejoin="round"/>
<path d="M14 8.75V19.25" stroke="#0D99FF" stroke-width="1.5" stroke-linecap="round" stroke-linejoin="round"/>
<path d="M25.6654 14.0026C25.6654 20.4426 20.4387 25.6693 13.9987 25.6693C7.5587 25.6693 2.33203 20.4426 2.33203 14.0026C2.33203 7.5626 7.5587 2.33594 13.9987 2.33594" stroke="#0D99FF" stroke-width="1.5" stroke-linecap="round" stroke-linejoin="round"/>
<path d="M25.6667 7.0026V2.33594H21" stroke="#0D99FF" stroke-width="1.5" stroke-linecap="round" stroke-linejoin="round"/>
<path d="M19.832 8.16927L25.6654 2.33594" stroke="#0D99FF" stroke-width="1.5" stroke-linecap="round" stroke-linejoin="round"/>
</svg>
