<svg width="12" height="14" viewBox="0 0 12 14" fill="none" xmlns="http://www.w3.org/2000/svg">
<path d="M11 6.00019H3.41002L6.71002 2.71019C6.89832 2.52188 7.00411 2.26649 7.00411 2.00019C7.00411 1.73388 6.89832 1.47849 6.71002 1.29019C6.52172 1.10188 6.26632 0.996094 6.00002 0.996094C5.73372 0.996094 5.47832 1.10188 5.29002 1.29019L0.290018 6.29019C0.198978 6.38529 0.127613 6.49743 0.0800184 6.62019C-0.0199996 6.86365 -0.0199996 7.13672 0.0800184 7.38019C0.127613 7.50294 0.198978 7.61508 0.290018 7.71019L5.29002 12.7102C5.38298 12.8039 5.49358 12.8783 5.61544 12.9291C5.7373 12.9798 5.86801 13.006 6.00002 13.006C6.13203 13.006 6.26274 12.9798 6.3846 12.9291C6.50645 12.8783 6.61706 12.8039 6.71002 12.7102C6.80375 12.6172 6.87814 12.5066 6.92891 12.3848C6.97968 12.2629 7.00582 12.1322 7.00582 12.0002C7.00582 11.8682 6.97968 11.7375 6.92891 11.6156C6.87814 11.4937 6.80375 11.3831 6.71002 11.2902L3.41002 8.00019H11C11.2652 8.00019 11.5196 7.89483 11.7071 7.70729C11.8947 7.51976 12 7.2654 12 7.00019C12 6.73497 11.8947 6.48062 11.7071 6.29308C11.5196 6.10554 11.2652 6.00019 11 6.00019Z" fill="gray"/>
</svg>
