<svg width="24" height="16" viewBox="0 0 24 16" fill="none" xmlns="http://www.w3.org/2000/svg">
<path fill-rule="evenodd" clip-rule="evenodd" d="M0 3.5C0 2.70435 0.316071 1.94129 0.87868 1.37868C1.44129 0.81607 2.20435 0.5 3 0.5H14.25C14.9776 0.499914 15.6805 0.764289 16.2277 1.24389C16.7749 1.72349 17.1292 2.38563 17.2245 3.107L21.8895 1.034C22.1178 0.932257 22.368 0.889195 22.6172 0.908728C22.8664 0.928261 23.1068 1.00977 23.3165 1.14584C23.5262 1.28192 23.6986 1.46824 23.8179 1.68789C23.9373 1.90753 23.9999 2.15352 24 2.4035V13.5965C23.9998 13.8463 23.9372 14.0921 23.8179 14.3115C23.6986 14.531 23.5264 14.7172 23.3169 14.8532C23.1074 14.9893 22.8673 15.0708 22.6183 15.0905C22.3693 15.1102 22.1193 15.0674 21.891 14.966L17.2245 12.893C17.1292 13.6144 16.7749 14.2765 16.2277 14.7561C15.6805 15.2357 14.9776 15.5001 14.25 15.5H3C2.20435 15.5 1.44129 15.1839 0.87868 14.6213C0.316071 14.0587 0 13.2956 0 12.5V3.5ZM17.25 11.2625L22.5 13.5965V2.4035L17.25 4.7375V11.2625ZM3 2C2.60218 2 2.22064 2.15804 1.93934 2.43934C1.65804 2.72064 1.5 3.10218 1.5 3.5V12.5C1.5 12.8978 1.65804 13.2794 1.93934 13.5607C2.22064 13.842 2.60218 14 3 14H14.25C14.6478 14 15.0294 13.842 15.3107 13.5607C15.592 13.2794 15.75 12.8978 15.75 12.5V3.5C15.75 3.10218 15.592 2.72064 15.3107 2.43934C15.0294 2.15804 14.6478 2 14.25 2H3Z" fill="#A4A9B6"/>
</svg>
