<svg width="24" height="19" viewBox="0 0 24 19" fill="none" xmlns="http://www.w3.org/2000/svg">
<path d="M3.80476 12.2941C3.86213 12.3991 3.95863 12.4887 4.08209 12.5516C4.20554 12.6144 4.35044 12.6478 4.49851 12.6475L19.4985 12.6475C19.6466 12.6478 19.7915 12.6144 19.9149 12.5516C20.0384 12.4887 20.1349 12.3991 20.1923 12.2941C20.2463 12.1875 20.26 12.0714 20.2318 11.9591C20.2036 11.8468 20.1346 11.7429 20.0329 11.6595L12.5329 5.89025C12.3895 5.78362 12.1979 5.72401 11.9985 5.72401C11.7991 5.72401 11.6075 5.78362 11.4641 5.89025L3.96413 11.6595C3.86239 11.7429 3.79342 11.8468 3.76522 11.9591C3.73701 12.0714 3.75072 12.1875 3.80476 12.2941V12.2941Z" fill="#0D99FF"/>
</svg>
