<svg width="224" height="218" viewBox="0 0 224 218" fill="none" xmlns="http://www.w3.org/2000/svg">
<path d="M134.179 112.349C133.347 111.217 132.261 110.297 131.009 109.661C129.757 109.025 128.373 108.692 126.968 108.688H119.813V99.8128C119.813 97.459 118.878 95.2016 117.213 93.5372C115.549 91.8729 113.292 90.9378 110.938 90.9378H72.498L57.0777 79.4003C55.5492 78.2334 53.6756 77.6089 51.7527 77.6253H22.1879C19.8341 77.6253 17.5767 78.5604 15.9123 80.2247C14.2479 81.8891 13.3129 84.1465 13.3129 86.5003V166.375C13.3054 166.96 13.4151 167.54 13.6355 168.082C13.8558 168.624 14.1824 169.116 14.596 169.53C15.0095 169.943 15.5017 170.27 16.0434 170.49C16.5852 170.711 17.1656 170.82 17.7504 170.813H115.375C116.31 170.813 117.22 170.518 117.977 169.97C118.734 169.422 119.299 168.65 119.591 167.762L135.4 120.392C135.839 119.049 135.957 117.622 135.745 116.225C135.533 114.828 134.997 113.501 134.179 112.349ZM51.7527 86.5003L67.173 98.0378C68.7015 99.2047 70.5751 99.8293 72.498 99.8128H110.938V108.688H38.7175C36.8556 108.684 35.0395 109.265 33.5264 110.351C32.0133 111.436 30.8798 112.969 30.2863 114.734L22.1879 139.029V86.5003H51.7527Z" fill="#B2C5D0"/>
<g filter="url(#filter0_f_6404_55890)">
<ellipse cx="67" cy="191" rx="45" ry="8" fill="#B2C5D0"/>
</g>
<path d="M173.216 129.796L187.797 152.22L210.221 137.638L198.585 119.744L191.11 118.16L173.216 129.796ZM169.531 127.634L190.353 114.095L200.151 116.171C200.647 116.276 201.081 116.574 201.357 116.998L214.466 137.157C214.742 137.582 214.838 138.099 214.733 138.595C214.628 139.09 214.33 139.524 213.905 139.8L188.279 156.464C187.854 156.741 187.337 156.837 186.841 156.732C186.345 156.627 185.912 156.329 185.635 155.904L168.971 130.277C168.695 129.853 168.599 129.336 168.704 128.84C168.809 128.344 169.107 127.91 169.531 127.634ZM197.967 143.327C196.693 144.156 195.142 144.444 193.655 144.129C192.168 143.814 190.867 142.921 190.038 141.647C189.209 140.372 188.921 138.821 189.236 137.334C189.551 135.847 190.444 134.546 191.718 133.717C192.993 132.889 194.544 132.6 196.031 132.915C197.518 133.23 198.819 134.123 199.648 135.398C200.477 136.672 200.765 138.223 200.45 139.711C200.135 141.198 199.242 142.499 197.967 143.327ZM175.859 130.356L190.274 120.983L194.44 127.389L180.025 136.763L175.859 130.356Z" fill="#0D99FF"/>
<path d="M73.5112 13.0616L99.9113 19.4992L105.604 28.863C105.892 29.3366 105.98 29.9052 105.849 30.4438L99.616 56.0031C99.4847 56.5417 99.1448 57.0061 98.671 57.2941C98.1973 57.582 97.6286 57.67 97.09 57.5387L64.5977 49.6155C64.0591 49.4842 63.5947 49.1443 63.3067 48.6706C63.0187 48.1969 62.9307 47.6281 63.0621 47.0896L70.9853 14.5972C71.1166 14.0586 71.4565 13.5942 71.9302 13.3062C72.4039 13.0183 72.9726 12.9303 73.5112 13.0616ZM82.3294 47.4848C83.9452 47.8788 85.6513 47.6148 87.0725 46.7509C88.4936 45.8869 89.5134 44.4939 89.9074 42.8781C90.3014 41.2623 90.0374 39.5562 89.1734 38.135C88.3095 36.7139 86.9164 35.6942 85.3006 35.3002C83.6849 34.9062 81.9787 35.1702 80.5576 36.0341C79.1365 36.898 78.1167 38.2911 77.7227 39.9069C77.3287 41.5227 77.5927 43.2288 78.4566 44.6499C79.3206 46.0711 80.7137 47.0908 82.3294 47.4848ZM74.5516 17.6184L72.5708 25.7414L92.8786 30.6934L94.8594 22.5703L74.5516 17.6184Z" fill="#B2C5D0"/>
<path d="M52 105.003C118 35.0045 211.964 52.2742 195.967 111.001" stroke="#00A3FF" stroke-dasharray="5 5"/>
<defs>
<filter id="filter0_f_6404_55890" x="3" y="164" width="128" height="54" filterUnits="userSpaceOnUse" color-interpolation-filters="sRGB">
<feFlood flood-opacity="0" result="BackgroundImageFix"/>
<feBlend mode="normal" in="SourceGraphic" in2="BackgroundImageFix" result="shape"/>
<feGaussianBlur stdDeviation="9.5" result="effect1_foregroundBlur_6404_55890"/>
</filter>
</defs>
</svg>
