<svg width="40" height="40" viewBox="0 0 40 40" fill="none" xmlns="http://www.w3.org/2000/svg">
<path d="M32.718 6.0832C32.5244 5.92657 32.2981 5.81532 32.0558 5.75763C31.8135 5.69995 31.5614 5.69729 31.318 5.74986C29.537 6.1231 27.6985 6.12786 25.9157 5.76384C24.1329 5.39981 22.4434 4.67472 20.9513 3.6332C20.6723 3.43965 20.3409 3.33594 20.0013 3.33594C19.6618 3.33594 19.3303 3.43965 19.0513 3.6332C17.5592 4.67472 15.8698 5.39981 14.0869 5.76384C12.3041 6.12786 10.4656 6.1231 8.68465 5.74986C8.44121 5.69729 8.18909 5.69995 7.94681 5.75763C7.70454 5.81532 7.47827 5.92657 7.28464 6.0832C7.09128 6.24006 6.93551 6.43826 6.8288 6.66322C6.72208 6.88819 6.66713 7.1342 6.66798 7.3832V19.7999C6.6665 22.1894 7.23593 24.5448 8.32887 26.6698C9.42181 28.7948 11.0066 30.6279 12.9513 32.0165L19.0346 36.3499C19.3169 36.5508 19.6548 36.6588 20.0013 36.6588C20.3478 36.6588 20.6857 36.5508 20.968 36.3499L27.0513 32.0165C28.996 30.6279 30.5808 28.7948 31.6738 26.6698C32.7667 24.5448 33.3361 22.1894 33.3346 19.7999V7.3832C33.3355 7.1342 33.2805 6.88819 33.1738 6.66322C33.0671 6.43826 32.9113 6.24006 32.718 6.0832ZM30.0013 19.7999C30.0026 21.6578 29.5601 23.4892 28.7107 25.1416C27.8613 26.794 26.6296 28.2196 25.118 29.2999L20.0013 32.9499L14.8846 29.2999C13.373 28.2196 12.1413 26.794 11.2919 25.1416C10.4425 23.4892 10 21.6578 10.0013 19.7999V9.29986C13.4954 9.59892 16.9947 8.78823 20.0013 6.9832C23.0079 8.78823 26.5073 9.59892 30.0013 9.29986V19.7999ZM22.568 15.9832L18.0846 20.4832L16.6013 18.9832C16.2875 18.6694 15.8618 18.493 15.418 18.493C14.9741 18.493 14.5485 18.6694 14.2346 18.9832C13.9208 19.297 13.7445 19.7227 13.7445 20.1665C13.7445 20.6104 13.9208 21.036 14.2346 21.3499L16.9013 24.0165C17.0563 24.1727 17.2406 24.2967 17.4437 24.3813C17.6468 24.466 17.8646 24.5095 18.0846 24.5095C18.3047 24.5095 18.5225 24.466 18.7256 24.3813C18.9287 24.2967 19.113 24.1727 19.268 24.0165L25.0013 18.3332C25.3152 18.0194 25.4915 17.5937 25.4915 17.1499C25.4915 16.706 25.3152 16.2804 25.0013 15.9665C24.6875 15.6527 24.2618 15.4764 23.818 15.4764C23.3741 15.4764 22.9485 15.6527 22.6346 15.9665L22.568 15.9832Z" fill="#009987"/>
</svg>
