<svg width="12" height="8" viewBox="0 0 12 8" fill="none" xmlns="http://www.w3.org/2000/svg">
<path d="M10.2426 7.12109C10.1112 7.12124 9.98116 7.09543 9.85983 7.04515C9.7385 6.99486 9.6283 6.9211 9.53557 6.82809L5.99989 3.293L2.46425 6.82812C2.27674 7.01564 2.02241 7.12098 1.75722 7.12099C1.49203 7.12099 1.23771 7.01564 1.05019 6.82812C0.862672 6.64061 0.757325 6.38628 0.757324 6.12109C0.757323 5.85591 0.862668 5.60158 1.05018 5.41406L5.29289 1.17188C5.38572 1.079 5.49595 1.00532 5.61726 0.95505C5.73858 0.90478 5.86861 0.878906 5.99992 0.878906C6.13124 0.878906 6.26127 0.90478 6.38259 0.95505C6.5039 1.00532 6.61412 1.079 6.70695 1.17188L10.9496 5.41406C11.0894 5.55391 11.1847 5.73208 11.2232 5.92603C11.2618 6.11998 11.242 6.32101 11.1663 6.50371C11.0906 6.68641 10.9625 6.84258 10.7981 6.95246C10.6337 7.06235 10.4404 7.12102 10.2426 7.12106L10.2426 7.12109Z" fill="white"/>
</svg>
