<svg width="12" height="13" viewBox="0 0 12 13" fill="none" xmlns="http://www.w3.org/2000/svg">
<path d="M7.85517 3.14639L6.35517 1.64639C6.2614 1.55266 6.13425 1.5 6.00167 1.5C5.86909 1.5 5.74193 1.55266 5.64817 1.64639L4.14817 3.14639C4.05709 3.24069 4.00669 3.367 4.00783 3.49809C4.00897 3.62919 4.06155 3.7546 4.15426 3.8473C4.24696 3.94001 4.37237 3.99259 4.50347 3.99373C4.63457 3.99487 4.76087 3.94447 4.85517 3.85339L5.50167 3.20689V8.9999C5.50167 9.1325 5.55435 9.25968 5.64812 9.35345C5.74188 9.44722 5.86906 9.4999 6.00167 9.4999C6.13428 9.4999 6.26145 9.44722 6.35522 9.35345C6.44899 9.25968 6.50167 9.1325 6.50167 8.9999V3.20689L7.14817 3.85339C7.24247 3.94447 7.36877 3.99487 7.49987 3.99373C7.63097 3.99259 7.75637 3.94001 7.84908 3.8473C7.94178 3.7546 7.99437 3.62919 7.99551 3.49809C7.99665 3.367 7.94625 3.24069 7.85517 3.14639Z" fill="#2C3857"/>
<path opacity="0.5" d="M9 5H6.5V9C6.5 9.13261 6.44732 9.25978 6.35355 9.35355C6.25979 9.44732 6.13261 9.5 6 9.5C5.86739 9.5 5.74021 9.44732 5.64645 9.35355C5.55268 9.25978 5.5 9.13261 5.5 9V5H3C2.6023 5.0004 2.221 5.15856 1.93978 5.43978C1.65856 5.721 1.5004 6.1023 1.5 6.5V10C1.5004 10.3977 1.65856 10.779 1.93978 11.0602C2.221 11.3414 2.6023 11.4996 3 11.5H9C9.3977 11.4996 9.779 11.3414 10.0602 11.0602C10.3414 10.779 10.4996 10.3977 10.5 10V6.5C10.4996 6.1023 10.3414 5.721 10.0602 5.43978C9.779 5.15856 9.3977 5.0004 9 5Z" fill="#2C3857"/>
</svg>
