<svg width="82" height="78" viewBox="0 0 82 78" fill="none" xmlns="http://www.w3.org/2000/svg">
<path d="M70.311 26.9352L16.0821 9.08046C15.1708 8.77582 14.1876 8.72234 13.2458 8.92617C12.304 9.13001 11.4419 9.58287 10.7589 10.2325C10.0759 10.8822 9.59982 11.7023 9.38553 12.5981C9.17124 13.494 9.22747 14.4293 9.54773 15.2961L28.318 66.8797C28.656 67.8435 29.3059 68.6809 30.1747 69.272C31.0435 69.8631 32.0867 70.1775 33.1548 70.1703H33.2509C34.332 70.1725 35.3848 69.8411 36.2511 69.2258C37.1174 68.6105 37.7506 67.7445 38.0555 66.7578L45.6149 43.4187L70.1509 36.1977C71.1888 35.9044 72.1004 35.3022 72.7519 34.4795C73.4034 33.6569 73.7604 32.6572 73.7704 31.6273C73.7935 30.5969 73.4705 29.5863 72.8483 28.7425C72.2262 27.8986 71.3374 27.2655 70.311 26.9352Z" fill="white"/>
</svg>
