<svg width="21" height="10" viewBox="0 0 21 10" fill="none" xmlns="http://www.w3.org/2000/svg">
<path d="M20.2092 8.46594L11.1467 0.965938C10.9749 0.825102 10.7428 0.746094 10.501 0.746094C10.2592 0.746094 10.0271 0.825102 9.85529 0.965938L0.792783 8.46594C0.669842 8.57438 0.586511 8.70941 0.55243 8.85541C0.51835 9.00141 0.534914 9.15241 0.600205 9.29094C0.669535 9.42744 0.786136 9.5439 0.935313 9.62565C1.08449 9.7074 1.25957 9.75078 1.43849 9.75032H19.5635C19.7424 9.75078 19.9175 9.7074 20.0667 9.62565C20.2158 9.5439 20.3324 9.42744 20.4018 9.29094C20.4671 9.15241 20.4836 9.00141 20.4495 8.85541C20.4155 8.70941 20.3321 8.57438 20.2092 8.46594V8.46594Z" fill="#009987" fill-opacity="0.65"/>
</svg>
