<svg width="44" height="44" viewBox="0 0 44 44" fill="none" xmlns="http://www.w3.org/2000/svg">
<rect width="44" height="44" rx="22" fill="#DBF0FF"/>
<path d="M18.375 22H30.625" stroke="#0D99FF" stroke-width="2" stroke-linecap="round" stroke-linejoin="round"/>
<path d="M18.375 15H30.625" stroke="#0D99FF" stroke-width="2" stroke-linecap="round" stroke-linejoin="round"/>
<path d="M18.375 29H30.625" stroke="#0D99FF" stroke-width="2" stroke-linecap="round" stroke-linejoin="round"/>
<path d="M11.375 14.5625L13.125 13.6875V19.8125" stroke="#0D99FF" stroke-width="2" stroke-linecap="round" stroke-linejoin="round"/>
<path d="M11.4953 24.6922C11.5759 24.4926 11.6978 24.3122 11.8528 24.1628C12.0079 24.0134 12.1927 23.8984 12.3953 23.8253C12.5978 23.7522 12.8135 23.7227 13.0282 23.7386C13.2429 23.7545 13.4519 23.8155 13.6414 23.9176C13.831 24.0197 13.9969 24.1607 14.1283 24.3312C14.2597 24.5018 14.3536 24.6982 14.4039 24.9075C14.4543 25.1169 14.4599 25.3345 14.4205 25.5462C14.381 25.7578 14.2974 25.9588 14.175 26.136L11.375 29.8766H14.4375" stroke="#0D99FF" stroke-width="2" stroke-linecap="round" stroke-linejoin="round"/>
</svg>
