<svg width="20" height="16" viewBox="0 0 20 16" fill="none" xmlns="http://www.w3.org/2000/svg">
<path d="M19.3037 1.95623C18.5938 2.2741 17.8313 2.48888 17.0295 2.58595C17.8568 2.08578 18.4756 1.29855 18.7707 0.371174C17.9935 0.83766 17.1429 1.16601 16.2559 1.34196C15.6594 0.698377 14.8693 0.271797 14.0083 0.128453C13.1473 -0.0148903 12.2636 0.133022 11.4943 0.549226C10.7251 0.965431 10.1133 1.62664 9.754 2.4302C9.39467 3.23376 9.308 4.13471 9.50733 4.99317C7.93256 4.91327 6.39203 4.49965 4.98569 3.77917C3.57935 3.05869 2.33865 2.04743 1.3441 0.811037C1.00403 1.40382 0.808501 2.09111 0.808501 2.82306C0.808121 3.482 0.9687 4.13084 1.27598 4.71202C1.58327 5.29319 2.02777 5.78874 2.57002 6.15469C1.94115 6.13447 1.32614 5.96275 0.776194 5.65383V5.70537C0.776131 6.62955 1.09248 7.52529 1.67157 8.2406C2.25065 8.95591 3.05681 9.44669 3.95323 9.62976C3.36984 9.78934 2.7582 9.81283 2.1645 9.69847C2.41743 10.4937 2.91009 11.1891 3.57353 11.6873C4.23697 12.1855 5.03797 12.4615 5.86439 12.4768C4.46149 13.5898 2.72891 14.1935 0.945375 14.1908C0.629441 14.1909 0.313773 14.1722 0 14.1349C1.81039 15.3112 3.91782 15.9354 6.07013 15.933C13.356 15.933 17.339 9.83507 17.339 4.54643C17.339 4.37461 17.3348 4.20108 17.3271 4.02925C18.1018 3.46308 18.7706 2.76198 19.302 1.9588L19.3037 1.95623Z" fill="#55ACEE"/>
</svg>
