<svg width="461" height="365" viewBox="0 0 461 365" fill="none" xmlns="http://www.w3.org/2000/svg">
<g clip-path="url(#clip0_4212_40658)">
<path d="M215.582 326.759L27.1016 339.211V53.6657L215.582 43.5898V326.759Z" fill="#7598BE"/>
<path d="M253.157 64.3086H52.0312V352.23H253.157V64.3086Z" fill="#7598BE"/>
<path opacity="0.2" d="M253.157 64.3086H52.0312V352.23H253.157V64.3086Z" fill="#999EFF"/>
<path opacity="0.1" d="M58.3059 64.3086H52.0312V352.23H58.3059V64.3086Z" fill="#B2C5D0"/>
<path d="M52.0235 64.3146L29.4492 54.6723L211.198 50.4492L248.269 64.3146H52.0235Z" fill="white"/>
<path d="M31.1875 55.5485L43.7448 55.0668L56.2941 54.6493L81.4007 53.9107L106.515 53.3085L119.073 53.0597L131.638 52.875L119.081 53.3567L106.531 53.7742L81.4168 54.5128L56.3021 55.115L43.7448 55.3639L31.1875 55.5485Z" fill="#B6BABF"/>
<path d="M42.8477 56.7528L64.6927 56.1186L86.5538 55.5806L130.26 54.5128L173.966 53.6457L195.819 53.2122L217.68 52.875L195.827 53.5093L173.974 54.0472L130.268 55.115L86.5619 55.9821L64.7008 56.4156L42.8477 56.7528Z" fill="#B6BABF"/>
<path d="M42.375 60.0799C50.5328 59.7909 58.6987 59.5902 66.8566 59.3975L91.3381 58.9398L115.828 58.6348L128.072 58.5625H140.317L128.08 58.9398L115.836 59.2369L91.3541 59.7026L66.8646 59.9755C58.6987 60.0719 50.5409 60.12 42.375 60.0799Z" fill="#B6BABF"/>
<path d="M46.7695 62.4882L62.7727 62.1751L78.7839 61.9502L110.79 61.6211L142.805 61.4846L158.816 61.4766L174.819 61.5568L158.816 61.87L142.813 62.0948L110.798 62.4239L78.7839 62.5604L62.7807 62.5685L46.7695 62.4882Z" fill="#B6BABF"/>
<path d="M153.441 59.4366C160.525 59.268 167.617 59.1957 174.702 59.1315L195.962 59.0352L217.214 59.1235L227.848 59.2359L238.474 59.4366L227.848 59.6293L217.214 59.7417L195.962 59.838L174.702 59.7417C167.617 59.6373 160.525 59.565 153.441 59.4366Z" fill="#B6BABF"/>
<path d="M147.188 56.2787C153.55 56.0058 159.921 55.8291 166.284 55.6685L185.38 55.2752L204.477 55.0664H214.029L223.581 55.1146L214.045 55.4197L204.493 55.6766L185.396 56.07L166.3 56.2787C159.937 56.3189 153.598 56.3429 147.188 56.2787Z" fill="#B6BABF"/>
<path d="M211.199 50.4492C214.349 51.4528 217.466 52.5367 220.575 53.6607C223.684 54.7847 226.778 55.9167 229.879 57.0407C232.98 58.1647 236.041 59.377 239.111 60.5893L243.702 62.4279C245.225 63.0702 246.756 63.6884 248.27 64.3467C246.667 63.857 245.137 63.3191 243.566 62.7972L238.894 61.1915C235.785 60.0916 232.692 58.9355 229.598 57.8114C226.505 56.6874 223.428 55.4751 220.359 54.2548C217.29 53.0344 214.236 51.7659 211.199 50.4492Z" fill="#B6BABF"/>
<path d="M27.1016 339.213L52.0239 352.236V64.3139L27.1016 53.668V339.213Z" fill="#7598BE"/>
<path opacity="0.4" d="M27.1016 339.213L52.0239 352.236V64.3139L27.1016 53.668V339.213Z" fill="#799DDA"/>
<path d="M102.306 112.362C102.304 112.334 102.308 112.306 102.317 112.279C102.327 112.253 102.342 112.229 102.362 112.209C102.382 112.189 102.406 112.174 102.432 112.164C102.459 112.154 102.487 112.151 102.515 112.153C102.541 112.154 102.567 112.16 102.591 112.171C102.615 112.182 102.636 112.198 102.654 112.217C102.672 112.237 102.686 112.26 102.695 112.284C102.704 112.309 102.708 112.335 102.707 112.362V123.297C102.709 123.324 102.706 123.351 102.697 123.377C102.689 123.402 102.675 123.426 102.657 123.446C102.639 123.467 102.617 123.483 102.593 123.495C102.568 123.506 102.542 123.513 102.515 123.514C102.486 123.516 102.457 123.512 102.43 123.502C102.403 123.492 102.378 123.476 102.358 123.455C102.338 123.435 102.323 123.409 102.314 123.382C102.305 123.355 102.303 123.325 102.306 123.297V112.362Z" fill="white"/>
<path d="M107.541 112.997V123.298C107.543 123.325 107.54 123.352 107.532 123.378C107.523 123.403 107.509 123.427 107.491 123.447C107.473 123.468 107.452 123.484 107.427 123.496C107.403 123.507 107.376 123.514 107.349 123.515C107.294 123.511 107.242 123.486 107.203 123.446C107.165 123.406 107.142 123.353 107.141 123.298V112.427C107.143 112.36 107.172 112.297 107.221 112.251C107.26 112.215 107.312 112.195 107.365 112.195C107.418 112.195 107.47 112.215 107.509 112.251L114.994 122.688V112.427C114.998 112.373 115.021 112.322 115.059 112.284C115.097 112.245 115.148 112.222 115.202 112.218C115.229 112.219 115.254 112.226 115.278 112.237C115.302 112.248 115.324 112.263 115.342 112.283C115.36 112.302 115.373 112.325 115.382 112.35C115.392 112.374 115.396 112.401 115.395 112.427V123.282C115.397 123.309 115.394 123.336 115.385 123.362C115.376 123.387 115.363 123.411 115.345 123.431C115.327 123.452 115.305 123.468 115.28 123.48C115.256 123.491 115.229 123.498 115.202 123.499C115.161 123.499 115.121 123.486 115.087 123.464C115.053 123.441 115.026 123.408 115.01 123.37L107.541 112.997Z" fill="white"/>
<path d="M119.062 121.581C119.097 121.55 119.143 121.532 119.19 121.532C119.237 121.532 119.283 121.55 119.318 121.581C120.426 122.514 121.807 123.061 123.253 123.139C124.207 123.162 125.144 122.88 125.929 122.336C126.246 122.128 126.509 121.848 126.697 121.518C126.885 121.189 126.993 120.82 127.011 120.441C127.002 120.086 126.903 119.74 126.722 119.435C126.541 119.13 126.284 118.876 125.977 118.699C125.132 118.198 124.194 117.873 123.221 117.743C122.271 117.609 121.358 117.284 120.536 116.788C120.203 116.595 119.925 116.319 119.729 115.987C119.532 115.656 119.424 115.279 119.414 114.893C119.414 113.288 121.177 112.035 123.253 112.035C124.528 112.111 125.75 112.576 126.755 113.368C126.776 113.381 126.794 113.398 126.808 113.418C126.821 113.439 126.831 113.462 126.836 113.486C126.84 113.51 126.839 113.535 126.834 113.559C126.828 113.583 126.818 113.605 126.803 113.625C126.775 113.663 126.734 113.689 126.688 113.698C126.642 113.707 126.594 113.698 126.554 113.673C125.609 112.923 124.457 112.481 123.253 112.404C122.371 112.394 121.507 112.655 120.777 113.151C120.486 113.343 120.246 113.6 120.074 113.903C119.903 114.206 119.806 114.546 119.791 114.893C119.797 115.221 119.888 115.541 120.055 115.823C120.223 116.104 120.46 116.337 120.745 116.499C121.524 116.966 122.387 117.274 123.285 117.406C124.308 117.558 125.293 117.904 126.186 118.426C126.544 118.635 126.842 118.933 127.052 119.292C127.261 119.651 127.374 120.058 127.38 120.473C127.38 122.223 125.489 123.556 123.253 123.556C121.728 123.493 120.267 122.928 119.094 121.95C119.058 121.936 119.028 121.912 119.005 121.881C118.983 121.85 118.969 121.814 118.966 121.776C118.962 121.737 118.97 121.699 118.986 121.665C119.003 121.631 119.029 121.602 119.062 121.581Z" fill="white"/>
<path d="M133.262 112.562H129.56C129.533 112.563 129.506 112.559 129.481 112.549C129.456 112.539 129.433 112.525 129.413 112.506C129.394 112.487 129.378 112.465 129.368 112.44C129.357 112.415 129.352 112.388 129.352 112.361C129.352 112.306 129.374 112.253 129.413 112.214C129.452 112.174 129.505 112.153 129.56 112.153H137.445C137.473 112.151 137.501 112.156 137.526 112.166C137.552 112.176 137.576 112.192 137.595 112.211C137.615 112.231 137.63 112.254 137.64 112.28C137.65 112.306 137.655 112.334 137.654 112.361C137.655 112.389 137.65 112.416 137.64 112.441C137.63 112.467 137.615 112.49 137.595 112.509C137.575 112.528 137.552 112.542 137.526 112.552C137.5 112.561 137.473 112.564 137.445 112.562H133.719V123.296C133.717 123.352 133.695 123.405 133.656 123.445C133.618 123.485 133.566 123.509 133.511 123.513C133.482 123.514 133.454 123.509 133.428 123.499C133.401 123.488 133.377 123.472 133.358 123.452C133.338 123.431 133.323 123.407 133.313 123.38C133.304 123.353 133.3 123.325 133.302 123.296L133.262 112.562Z" fill="white"/>
<path d="M146.523 121.064C146.527 120.73 146.457 120.399 146.318 120.095C146.18 119.791 145.976 119.522 145.722 119.306C145.321 118.974 144.862 118.721 144.367 118.559C144.229 118.515 144.087 118.482 143.943 118.463H140.866V123.28C140.868 123.307 140.864 123.334 140.856 123.36C140.847 123.386 140.834 123.409 140.816 123.43C140.798 123.45 140.776 123.466 140.751 123.478C140.727 123.489 140.7 123.496 140.673 123.497C140.617 123.495 140.564 123.471 140.525 123.43C140.486 123.39 140.465 123.336 140.465 123.28V112.361C140.465 112.306 140.487 112.253 140.526 112.213C140.565 112.174 140.618 112.152 140.673 112.152H143.983C144.816 112.165 145.612 112.502 146.202 113.093C146.791 113.683 147.128 114.481 147.14 115.316C147.145 115.998 146.925 116.663 146.515 117.209C146.105 117.754 145.528 118.15 144.872 118.334C145.074 118.416 145.27 118.513 145.457 118.623C145.896 118.855 146.265 119.201 146.524 119.625C146.784 120.049 146.924 120.535 146.932 121.032C146.897 121.594 146.979 122.157 147.172 122.686C147.324 122.911 147.405 122.879 147.421 122.879C147.471 122.87 147.523 122.88 147.567 122.907C147.611 122.933 147.645 122.974 147.661 123.023C147.67 123.047 147.673 123.073 147.671 123.099C147.669 123.124 147.662 123.149 147.65 123.172C147.638 123.195 147.621 123.214 147.601 123.23C147.581 123.246 147.558 123.258 147.533 123.264C147.533 123.264 147.469 123.264 147.389 123.264C147.261 123.251 147.14 123.204 147.037 123.128C146.934 123.051 146.853 122.949 146.804 122.83C146.568 122.273 146.472 121.667 146.523 121.064ZM143.983 118.045C144.34 118.044 144.693 117.973 145.022 117.835C145.351 117.697 145.65 117.496 145.901 117.242C146.153 116.989 146.352 116.688 146.488 116.358C146.623 116.027 146.692 115.673 146.691 115.316C146.691 114.587 146.403 113.887 145.889 113.371C145.375 112.855 144.678 112.564 143.951 112.562H140.825V118.045H143.983Z" fill="white"/>
<path d="M149.84 112.361C149.839 112.334 149.843 112.306 149.854 112.28C149.864 112.254 149.879 112.231 149.898 112.211C149.918 112.192 149.941 112.176 149.967 112.166C149.993 112.156 150.021 112.151 150.048 112.153C150.075 112.154 150.1 112.16 150.124 112.171C150.148 112.182 150.17 112.198 150.188 112.217C150.206 112.236 150.219 112.259 150.228 112.284C150.238 112.309 150.242 112.335 150.241 112.361V118.953C150.216 119.512 150.305 120.07 150.501 120.593C150.698 121.117 150.998 121.595 151.384 121.999C151.77 122.403 152.234 122.725 152.747 122.945C153.261 123.165 153.813 123.278 154.372 123.278C154.93 123.278 155.483 123.165 155.996 122.945C156.509 122.725 156.973 122.403 157.359 121.999C157.745 121.595 158.046 121.117 158.242 120.593C158.439 120.07 158.527 119.512 158.503 118.953V112.361C158.503 112.306 158.525 112.253 158.564 112.214C158.603 112.174 158.656 112.153 158.711 112.153C158.765 112.156 158.816 112.179 158.854 112.218C158.892 112.256 158.916 112.307 158.919 112.361V118.953C158.945 119.566 158.847 120.178 158.63 120.753C158.414 121.327 158.083 121.851 157.659 122.294C157.235 122.738 156.726 123.09 156.162 123.331C155.599 123.572 154.992 123.696 154.38 123.696C153.767 123.696 153.16 123.572 152.597 123.331C152.033 123.09 151.524 122.738 151.1 122.294C150.676 121.851 150.346 121.327 150.129 120.753C149.913 120.178 149.814 119.566 149.84 118.953V112.361Z" fill="white"/>
<path d="M168.371 111.991C169.691 111.993 170.975 112.427 172.026 113.227C172.071 113.258 172.103 113.305 172.115 113.359C172.126 113.412 172.118 113.469 172.09 113.516C172.07 113.537 172.047 113.554 172.02 113.565C171.994 113.576 171.966 113.582 171.937 113.582C171.909 113.582 171.881 113.576 171.854 113.565C171.828 113.554 171.805 113.537 171.785 113.516C170.799 112.76 169.589 112.353 168.347 112.36C166.934 112.36 165.579 112.922 164.579 113.924C163.58 114.925 163.018 116.283 163.018 117.699C163.018 119.115 163.58 120.473 164.579 121.474C165.579 122.475 166.934 123.038 168.347 123.038C169.584 123.048 170.788 122.643 171.769 121.89C171.811 121.851 171.865 121.83 171.921 121.83C171.978 121.83 172.032 121.851 172.074 121.89C172.092 121.911 172.105 121.936 172.112 121.963C172.119 121.99 172.121 122.018 172.116 122.045C172.112 122.073 172.101 122.099 172.085 122.122C172.07 122.145 172.049 122.164 172.026 122.179C170.967 122.985 169.677 123.424 168.347 123.431C167.574 123.46 166.803 123.333 166.08 123.056C165.358 122.78 164.698 122.36 164.141 121.822C163.584 121.285 163.14 120.64 162.838 119.926C162.535 119.213 162.379 118.446 162.379 117.671C162.379 116.896 162.535 116.129 162.838 115.415C163.14 114.702 163.584 114.057 164.141 113.519C164.698 112.982 165.358 112.562 166.08 112.285C166.803 112.009 167.574 111.881 168.347 111.91L168.371 111.991Z" fill="white"/>
<path d="M178.56 112.562H174.818C174.791 112.563 174.764 112.559 174.739 112.549C174.713 112.539 174.69 112.525 174.671 112.506C174.651 112.487 174.636 112.465 174.625 112.44C174.615 112.415 174.609 112.388 174.609 112.361C174.609 112.306 174.631 112.253 174.67 112.214C174.709 112.174 174.762 112.152 174.818 112.152H182.703C182.731 112.151 182.759 112.156 182.785 112.166C182.812 112.176 182.835 112.191 182.856 112.211C182.876 112.23 182.892 112.254 182.903 112.279C182.914 112.305 182.919 112.333 182.919 112.361C182.92 112.389 182.914 112.416 182.903 112.442C182.892 112.467 182.876 112.49 182.855 112.509C182.835 112.528 182.811 112.542 182.785 112.552C182.759 112.561 182.731 112.564 182.703 112.562H178.985V123.296C178.981 123.352 178.957 123.405 178.917 123.445C178.877 123.485 178.825 123.509 178.768 123.513C178.74 123.514 178.712 123.509 178.685 123.499C178.659 123.488 178.635 123.472 178.615 123.452C178.596 123.431 178.581 123.407 178.571 123.38C178.562 123.353 178.558 123.325 178.56 123.296V112.562Z" fill="white"/>
<path d="M186.083 112.363C186.08 112.334 186.084 112.305 186.094 112.278C186.104 112.251 186.12 112.226 186.141 112.206C186.162 112.186 186.187 112.171 186.214 112.162C186.242 112.153 186.271 112.15 186.299 112.154C186.326 112.155 186.351 112.161 186.375 112.172C186.399 112.183 186.421 112.199 186.439 112.218C186.456 112.238 186.47 112.26 186.479 112.285C186.488 112.31 186.493 112.336 186.492 112.363V123.298C186.494 123.325 186.49 123.352 186.482 123.378C186.473 123.403 186.46 123.427 186.442 123.447C186.424 123.467 186.402 123.484 186.377 123.495C186.353 123.507 186.326 123.513 186.299 123.514C186.27 123.517 186.241 123.513 186.214 123.503C186.186 123.493 186.161 123.477 186.141 123.456C186.12 123.436 186.104 123.411 186.094 123.383C186.084 123.356 186.08 123.327 186.083 123.298V112.363Z" fill="white"/>
<path d="M195.933 111.991C197.107 111.921 198.274 112.207 199.283 112.81C200.293 113.414 201.098 114.307 201.594 115.374C202.091 116.442 202.256 117.634 202.068 118.797C201.88 119.959 201.348 121.038 200.541 121.894C199.734 122.75 198.688 123.343 197.54 123.597C196.392 123.85 195.195 123.752 194.103 123.316C193.011 122.879 192.076 122.124 191.418 121.148C190.759 120.172 190.409 119.021 190.412 117.843C190.375 116.335 190.935 114.874 191.969 113.778C193.003 112.681 194.428 112.039 195.933 111.991ZM195.933 123.279C197.02 123.348 198.103 123.088 199.041 122.533C199.978 121.979 200.728 121.154 201.193 120.167C201.657 119.18 201.814 118.076 201.645 116.998C201.475 115.92 200.986 114.918 200.241 114.122C199.496 113.327 198.529 112.773 197.466 112.535C196.403 112.296 195.293 112.383 194.281 112.784C193.268 113.185 192.398 113.882 191.786 114.784C191.173 115.686 190.845 116.752 190.845 117.843C190.816 119.236 191.333 120.584 192.284 121.6C193.234 122.616 194.544 123.218 195.933 123.279Z" fill="white"/>
<path d="M204.659 112.997V123.298C204.661 123.325 204.658 123.352 204.649 123.378C204.64 123.403 204.627 123.427 204.609 123.447C204.591 123.468 204.569 123.484 204.544 123.496C204.52 123.507 204.493 123.514 204.466 123.515C204.41 123.513 204.356 123.489 204.316 123.449C204.275 123.409 204.252 123.355 204.25 123.298V112.427C204.251 112.393 204.259 112.36 204.274 112.329C204.29 112.298 204.311 112.272 204.338 112.251C204.378 112.215 204.429 112.195 204.482 112.195C204.536 112.195 204.587 112.215 204.627 112.251L212.103 122.688V112.427C212.109 112.372 212.134 112.321 212.173 112.283C212.213 112.245 212.265 112.222 212.32 112.218C212.346 112.219 212.372 112.226 212.396 112.237C212.42 112.248 212.441 112.263 212.459 112.283C212.477 112.302 212.491 112.325 212.5 112.35C212.509 112.374 212.513 112.401 212.512 112.427V123.282C212.514 123.309 212.511 123.336 212.502 123.362C212.494 123.387 212.48 123.411 212.462 123.431C212.444 123.452 212.422 123.468 212.398 123.48C212.373 123.491 212.347 123.498 212.32 123.499C212.279 123.499 212.238 123.486 212.204 123.464C212.17 123.441 212.143 123.408 212.127 123.37L204.659 112.997Z" fill="white"/>
<path d="M118.593 129.827V146.285C118.575 146.692 118.404 147.076 118.114 147.36C117.824 147.645 117.436 147.809 117.031 147.819C116.829 147.82 116.63 147.781 116.444 147.704C116.257 147.627 116.088 147.514 115.946 147.372C115.804 147.229 115.691 147.06 115.614 146.873C115.538 146.687 115.499 146.487 115.5 146.285V134.539L111.493 140.159C111.353 140.361 111.166 140.524 110.948 140.636C110.73 140.748 110.488 140.805 110.243 140.802H110.187C109.937 140.806 109.69 140.75 109.467 140.638C109.244 140.526 109.051 140.362 108.905 140.159L104.898 134.539V146.285C104.898 146.696 104.735 147.09 104.445 147.381C104.155 147.671 103.762 147.835 103.351 147.835C102.941 147.835 102.548 147.671 102.258 147.381C101.968 147.09 101.805 146.696 101.805 146.285V129.827C101.809 129.421 101.971 129.034 102.258 128.747C102.544 128.46 102.931 128.297 103.335 128.293H103.423C103.664 128.296 103.9 128.355 104.114 128.467C104.327 128.578 104.51 128.739 104.65 128.935L110.187 136.635L115.732 128.935C115.873 128.735 116.06 128.571 116.278 128.459C116.496 128.347 116.738 128.29 116.982 128.293C117.397 128.291 117.796 128.449 118.096 128.735C118.396 129.021 118.575 129.412 118.593 129.827Z" fill="white"/>
<path d="M133.46 143.215H126.696L125.326 146.844C125.209 147.131 125.01 147.377 124.753 147.55C124.496 147.723 124.193 147.815 123.883 147.815C123.704 147.818 123.525 147.791 123.354 147.735C122.974 147.582 122.666 147.289 122.494 146.915C122.323 146.542 122.301 146.117 122.433 145.728L128.587 129.285C128.706 128.992 128.91 128.743 129.174 128.569C129.437 128.396 129.747 128.307 130.062 128.314C130.378 128.302 130.69 128.389 130.954 128.563C131.218 128.737 131.422 128.99 131.536 129.285L137.691 145.72C137.83 146.112 137.812 146.543 137.64 146.922C137.468 147.301 137.156 147.598 136.769 147.751C136.599 147.81 136.42 147.837 136.24 147.831C135.933 147.834 135.632 147.743 135.378 147.569C135.125 147.395 134.93 147.148 134.822 146.86L133.46 143.215ZM132.322 140.148L130.062 134.15L127.81 140.148H132.322Z" fill="white"/>
<path d="M144.565 146.284C144.58 146.493 144.552 146.703 144.482 146.9C144.413 147.098 144.303 147.28 144.161 147.433C144.018 147.587 143.846 147.709 143.654 147.793C143.462 147.876 143.255 147.92 143.046 147.92C142.837 147.92 142.63 147.876 142.438 147.793C142.246 147.709 142.074 147.587 141.931 147.433C141.789 147.28 141.679 147.098 141.61 146.9C141.54 146.703 141.512 146.493 141.527 146.284V130.09C141.512 129.764 141.602 129.442 141.784 129.172C141.967 128.901 142.232 128.697 142.54 128.591C142.847 128.484 143.181 128.48 143.492 128.58C143.802 128.679 144.071 128.877 144.26 129.143L153.251 141.611V130.09C153.253 129.69 153.413 129.308 153.695 129.025C153.977 128.742 154.359 128.583 154.758 128.581C155.159 128.583 155.544 128.741 155.83 129.023C156.115 129.305 156.28 129.688 156.289 130.09V146.292C156.286 146.698 156.124 147.087 155.838 147.374C155.551 147.661 155.163 147.823 154.758 147.825C154.538 147.822 154.322 147.771 154.124 147.675C153.926 147.58 153.751 147.442 153.612 147.271C153.557 147.223 153.511 147.166 153.476 147.103L144.565 134.714V146.284Z" fill="white"/>
<path d="M169.623 147.819C167.498 147.819 165.46 146.973 163.957 145.468C162.454 143.962 161.61 141.92 161.61 139.791V129.827C161.606 129.625 161.644 129.424 161.719 129.237C161.795 129.049 161.908 128.879 162.051 128.736C162.193 128.593 162.363 128.48 162.551 128.404C162.738 128.328 162.938 128.29 163.14 128.294C163.346 128.287 163.552 128.322 163.744 128.396C163.937 128.47 164.113 128.581 164.262 128.724C164.411 128.867 164.531 129.038 164.613 129.227C164.696 129.417 164.74 129.621 164.743 129.827V139.726C164.716 140.395 164.824 141.063 165.061 141.689C165.298 142.315 165.659 142.886 166.122 143.369C166.585 143.852 167.14 144.236 167.755 144.498C168.37 144.761 169.031 144.896 169.699 144.896C170.367 144.896 171.029 144.761 171.644 144.498C172.258 144.236 172.814 143.852 173.277 143.369C173.74 142.886 174.1 142.315 174.337 141.689C174.574 141.063 174.683 140.395 174.656 139.726V129.827C174.657 129.624 174.698 129.423 174.777 129.236C174.855 129.049 174.97 128.879 175.115 128.737C175.259 128.594 175.43 128.482 175.618 128.406C175.806 128.33 176.008 128.292 176.21 128.294C176.412 128.29 176.613 128.328 176.8 128.404C176.987 128.48 177.157 128.593 177.3 128.736C177.443 128.879 177.555 129.049 177.631 129.237C177.707 129.424 177.744 129.625 177.741 129.827V139.726C177.75 140.795 177.545 141.855 177.14 142.843C176.734 143.831 176.136 144.729 175.38 145.482C174.624 146.236 173.725 146.831 172.737 147.232C171.748 147.634 170.69 147.833 169.623 147.819Z" fill="white"/>
<path d="M192.78 143.215H186.016L184.654 146.844C184.532 147.129 184.33 147.372 184.072 147.544C183.815 147.717 183.513 147.811 183.204 147.815C183.024 147.818 182.845 147.791 182.675 147.735C182.294 147.582 181.986 147.289 181.815 146.915C181.643 146.542 181.621 146.117 181.753 145.728L187.908 129.285C188.026 128.992 188.231 128.743 188.494 128.569C188.757 128.396 189.067 128.307 189.382 128.314C189.698 128.302 190.01 128.389 190.274 128.563C190.538 128.737 190.742 128.99 190.857 129.285L197.011 145.72C197.149 146.115 197.127 146.548 196.95 146.928C196.774 147.307 196.456 147.603 196.065 147.751C195.895 147.808 195.716 147.836 195.537 147.831C195.228 147.835 194.926 147.744 194.671 147.57C194.416 147.396 194.22 147.148 194.11 146.86L192.78 143.215ZM191.642 140.148L189.382 134.15L187.13 140.148H191.642Z" fill="white"/>
<path d="M200.832 146.285V129.826C200.831 129.625 200.87 129.425 200.946 129.238C201.023 129.052 201.136 128.882 201.278 128.74C201.42 128.597 201.589 128.484 201.776 128.408C201.962 128.331 202.161 128.292 202.363 128.293C202.772 128.291 203.166 128.451 203.459 128.738C203.751 129.025 203.919 129.416 203.925 129.826V144.728H211.466C211.856 144.756 212.221 144.931 212.487 145.218C212.753 145.504 212.901 145.881 212.901 146.273C212.901 146.665 212.753 147.042 212.487 147.329C212.221 147.615 211.856 147.79 211.466 147.819H202.363C202.161 147.82 201.962 147.781 201.776 147.704C201.589 147.627 201.42 147.514 201.278 147.372C201.136 147.229 201.023 147.06 200.946 146.873C200.87 146.687 200.831 146.487 200.832 146.285Z" fill="white"/>
<path d="M212.993 153.863H101.828V155.469H212.993V153.863Z" fill="white"/>
<g opacity="0.1">
<path opacity="0.1" d="M177.816 227.176C177.816 229.017 178.361 230.816 179.382 232.346C180.403 233.877 181.854 235.07 183.551 235.774C185.249 236.478 187.117 236.661 188.919 236.302C190.72 235.942 192.375 235.055 193.674 233.753C194.973 232.451 195.857 230.792 196.214 228.986C196.571 227.181 196.386 225.31 195.682 223.609C194.978 221.909 193.786 220.457 192.258 219.435C190.729 218.414 188.933 217.869 187.096 217.871C184.634 217.873 182.273 218.854 180.533 220.599C178.793 222.344 177.816 224.709 177.816 227.176ZM179.795 227.176C179.789 225.726 180.212 224.307 181.012 223.098C181.811 221.89 182.951 220.946 184.286 220.388C185.622 219.829 187.093 219.68 188.513 219.959C189.933 220.239 191.238 220.934 192.263 221.958C193.288 222.981 193.987 224.287 194.27 225.708C194.554 227.13 194.41 228.604 193.856 229.944C193.303 231.284 192.365 232.429 191.162 233.234C189.958 234.039 188.543 234.467 187.096 234.466C185.164 234.466 183.31 233.699 181.942 232.332C180.574 230.966 179.802 229.112 179.795 227.176ZM177.816 227.176C177.816 229.017 178.361 230.816 179.382 232.346C180.403 233.877 181.854 235.07 183.551 235.774C185.249 236.478 187.117 236.661 188.919 236.302C190.72 235.942 192.375 235.055 193.674 233.753C194.973 232.451 195.857 230.792 196.214 228.986C196.571 227.181 196.386 225.31 195.682 223.609C194.978 221.909 193.786 220.457 192.258 219.435C190.729 218.414 188.933 217.869 187.096 217.871C184.634 217.873 182.273 218.854 180.533 220.599C178.793 222.344 177.816 224.709 177.816 227.176ZM179.795 227.176C179.789 225.726 180.212 224.307 181.012 223.098C181.811 221.89 182.951 220.946 184.286 220.388C185.622 219.829 187.093 219.68 188.513 219.959C189.933 220.239 191.238 220.934 192.263 221.958C193.288 222.981 193.987 224.287 194.27 225.708C194.554 227.13 194.41 228.604 193.856 229.944C193.303 231.284 192.365 232.429 191.162 233.234C189.958 234.039 188.543 234.467 187.096 234.466C185.164 234.466 183.31 233.699 181.942 232.332C180.574 230.966 179.802 229.112 179.795 227.176ZM171.453 227.176C171.453 230.277 172.371 233.309 174.091 235.888C175.811 238.467 178.256 240.476 181.116 241.663C183.977 242.85 187.124 243.16 190.16 242.554C193.196 241.948 195.985 240.454 198.173 238.26C200.362 236.067 201.852 233.272 202.455 230.23C203.057 227.188 202.746 224.035 201.561 221.17C200.375 218.305 198.368 215.857 195.793 214.135C193.218 212.413 190.191 211.495 187.096 211.496C182.946 211.498 178.968 213.151 176.034 216.091C173.101 219.032 171.453 223.019 171.453 227.176ZM176.926 227.176C176.926 225.159 177.524 223.187 178.642 221.51C179.761 219.833 181.351 218.527 183.211 217.755C185.071 216.984 187.118 216.782 189.092 217.176C191.067 217.57 192.88 218.542 194.303 219.969C195.726 221.396 196.695 223.213 197.086 225.192C197.478 227.17 197.276 229.22 196.504 231.083C195.732 232.946 194.427 234.538 192.752 235.658C191.077 236.777 189.109 237.374 187.096 237.372C184.399 237.366 181.815 236.289 179.909 234.378C178.003 232.467 176.931 229.878 176.926 227.176ZM177.816 227.176C177.816 229.017 178.361 230.816 179.382 232.346C180.403 233.877 181.854 235.07 183.551 235.774C185.249 236.478 187.117 236.661 188.919 236.302C190.72 235.942 192.375 235.055 193.674 233.753C194.973 232.451 195.857 230.792 196.214 228.986C196.571 227.181 196.386 225.31 195.682 223.609C194.978 221.909 193.786 220.457 192.258 219.435C190.729 218.414 188.933 217.869 187.096 217.871C184.634 217.873 182.273 218.854 180.533 220.599C178.793 222.344 177.816 224.709 177.816 227.176ZM179.795 227.176C179.789 225.726 180.212 224.307 181.012 223.098C181.811 221.89 182.951 220.946 184.286 220.388C185.622 219.829 187.093 219.68 188.513 219.959C189.933 220.239 191.238 220.934 192.263 221.958C193.288 222.981 193.987 224.287 194.27 225.708C194.554 227.13 194.41 228.604 193.856 229.944C193.303 231.284 192.365 232.429 191.162 233.234C189.958 234.039 188.543 234.467 187.096 234.466C185.164 234.466 183.31 233.699 181.942 232.332C180.574 230.966 179.802 229.112 179.795 227.176Z" fill="black"/>
<path opacity="0.1" d="M185.258 211.776H188.848L188.487 208.195H185.618L185.258 211.776Z" fill="black"/>
<path opacity="0.1" d="M193.191 212.927L196.293 214.717L197.775 211.433L195.291 209.996L193.191 212.927Z" fill="black"/>
<path opacity="0.1" d="M199.492 217.884L201.279 220.991L204.196 218.887L202.762 216.398L199.492 217.884Z" fill="black"/>
<path opacity="0.1" d="M202.469 225.336V228.925L206.043 228.563V225.689L202.469 225.336Z" fill="black"/>
<path opacity="0.1" d="M201.33 233.277L199.535 236.384L202.813 237.87L204.247 235.381L201.33 233.277Z" fill="black"/>
<path opacity="0.1" d="M196.375 239.59L193.273 241.38L195.373 244.311L197.857 242.874L196.375 239.59Z" fill="black"/>
<path opacity="0.1" d="M188.941 242.57H185.359L185.712 246.159H188.581L188.941 242.57Z" fill="black"/>
<path opacity="0.1" d="M181.013 241.423L177.904 239.633L176.43 242.908L178.914 244.346L181.013 241.423Z" fill="black"/>
<path opacity="0.1" d="M174.716 236.466L172.921 233.359L170.004 235.463L171.438 237.952L174.716 236.466Z" fill="black"/>
<path opacity="0.1" d="M171.734 229.015V225.426L168.16 225.787V228.661L171.734 229.015Z" fill="black"/>
<path opacity="0.1" d="M172.874 221.073L174.669 217.958L171.391 216.48L169.957 218.969L172.874 221.073Z" fill="black"/>
<path opacity="0.1" d="M177.822 214.76L180.931 212.961L178.832 210.039L176.348 211.476L177.822 214.76Z" fill="black"/>
</g>
<g opacity="0.1">
<path opacity="0.1" d="M124.632 187.502C125.613 187.593 126.599 187.39 127.466 186.92C128.333 186.449 129.041 185.732 129.5 184.858C129.96 183.985 130.151 182.994 130.048 182.012C129.946 181.03 129.556 180.1 128.926 179.34C128.296 178.58 127.456 178.024 126.511 177.743C125.566 177.461 124.559 177.467 123.618 177.759C122.676 178.051 121.842 178.616 121.221 179.382C120.6 180.149 120.219 181.083 120.128 182.067C120.066 182.72 120.134 183.379 120.327 184.006C120.52 184.634 120.835 185.216 121.253 185.721C121.672 186.226 122.185 186.644 122.765 186.949C123.345 187.255 123.979 187.443 124.632 187.502ZM120.737 182.123C120.817 181.259 121.151 180.439 121.697 179.765C122.242 179.092 122.975 178.596 123.802 178.34C124.629 178.084 125.514 178.079 126.344 178.327C127.173 178.575 127.911 179.064 128.463 179.732C129.016 180.4 129.358 181.217 129.446 182.08C129.535 182.943 129.366 183.812 128.961 184.579C128.555 185.346 127.932 185.975 127.17 186.386C126.408 186.798 125.542 186.974 124.68 186.892C123.527 186.782 122.464 186.218 121.727 185.324C120.989 184.429 120.636 183.278 120.745 182.123H120.737ZM124.632 187.502C125.613 187.593 126.599 187.39 127.466 186.92C128.333 186.449 129.041 185.732 129.5 184.858C129.96 183.985 130.151 182.994 130.048 182.012C129.946 181.03 129.556 180.1 128.926 179.34C128.296 178.58 127.456 178.024 126.511 177.743C125.566 177.461 124.559 177.467 123.618 177.759C122.676 178.051 121.842 178.616 121.221 179.382C120.6 180.149 120.219 181.083 120.128 182.067C120.066 182.72 120.134 183.379 120.327 184.006C120.52 184.634 120.835 185.216 121.253 185.721C121.672 186.226 122.185 186.644 122.765 186.949C123.345 187.255 123.979 187.443 124.632 187.502ZM120.737 182.123C120.817 181.259 121.151 180.439 121.697 179.765C122.242 179.092 122.975 178.596 123.802 178.34C124.629 178.084 125.514 178.079 126.344 178.327C127.173 178.575 127.911 179.064 128.463 179.732C129.016 180.4 129.358 181.217 129.446 182.08C129.535 182.943 129.366 183.812 128.961 184.579C128.555 185.346 127.932 185.975 127.17 186.386C126.408 186.798 125.542 186.974 124.68 186.892C123.527 186.782 122.464 186.218 121.727 185.324C120.989 184.429 120.636 183.278 120.745 182.123H120.737ZM124.632 187.502C125.613 187.593 126.599 187.39 127.466 186.92C128.333 186.449 129.041 185.732 129.5 184.858C129.96 183.985 130.151 182.994 130.048 182.012C129.946 181.03 129.556 180.1 128.926 179.34C128.296 178.58 127.456 178.024 126.511 177.743C125.566 177.461 124.559 177.467 123.618 177.759C122.676 178.051 121.842 178.616 121.221 179.382C120.6 180.149 120.219 181.083 120.128 182.067C120.066 182.72 120.134 183.379 120.327 184.006C120.52 184.634 120.835 185.216 121.253 185.721C121.672 186.226 122.185 186.644 122.765 186.949C123.345 187.255 123.979 187.443 124.632 187.502ZM120.737 182.123C120.817 181.259 121.151 180.439 121.697 179.765C122.242 179.092 122.975 178.596 123.802 178.34C124.629 178.084 125.514 178.079 126.344 178.327C127.173 178.575 127.911 179.064 128.463 179.732C129.016 180.4 129.358 181.217 129.446 182.08C129.535 182.943 129.366 183.812 128.961 184.579C128.555 185.346 127.932 185.975 127.17 186.386C126.408 186.798 125.542 186.974 124.68 186.892C123.527 186.782 122.464 186.218 121.727 185.324C120.989 184.429 120.636 183.278 120.745 182.123H120.737ZM124.119 193.01C126.188 193.203 128.268 192.776 130.095 191.785C131.922 190.793 133.415 189.281 134.385 187.439C135.354 185.598 135.756 183.509 135.541 181.439C135.326 179.368 134.502 177.408 133.175 175.806C131.847 174.204 130.075 173.032 128.083 172.44C126.091 171.847 123.968 171.859 121.983 172.475C119.998 173.091 118.24 174.283 116.931 175.901C115.622 177.518 114.822 179.488 114.631 181.561C114.374 184.339 115.23 187.106 117.009 189.253C118.788 191.4 121.345 192.751 124.119 193.01ZM119.359 181.994C119.465 180.859 119.905 179.781 120.623 178.897C121.34 178.012 122.304 177.361 123.391 177.025C124.479 176.689 125.641 176.683 126.732 177.009C127.822 177.335 128.791 177.977 129.518 178.855C130.244 179.733 130.693 180.807 130.81 181.941C130.927 183.075 130.706 184.218 130.175 185.226C129.643 186.234 128.825 187.062 127.824 187.604C126.823 188.146 125.684 188.379 124.551 188.273C123.033 188.126 121.635 187.384 120.662 186.207C119.689 185.031 119.22 183.516 119.359 181.994ZM120.16 182.067C120.067 183.051 120.268 184.04 120.737 184.909C121.206 185.779 121.922 186.489 122.794 186.951C123.666 187.413 124.655 187.605 125.636 187.503C126.618 187.401 127.546 187.01 128.306 186.378C129.065 185.747 129.62 184.905 129.901 183.957C130.181 183.01 130.175 182.001 129.883 181.057C129.591 180.113 129.026 179.277 128.259 178.655C127.493 178.033 126.559 177.653 125.577 177.563C124.924 177.498 124.264 177.564 123.637 177.756C123.009 177.948 122.425 178.262 121.919 178.68C121.412 179.099 120.993 179.614 120.686 180.195C120.379 180.776 120.189 181.412 120.128 182.067H120.16ZM120.769 182.123C120.849 181.259 121.183 180.439 121.729 179.765C122.274 179.092 123.007 178.596 123.834 178.34C124.662 178.084 125.546 178.079 126.376 178.327C127.205 178.575 127.943 179.064 128.495 179.732C129.048 180.4 129.39 181.217 129.478 182.08C129.567 182.943 129.398 183.812 128.993 184.579C128.588 185.346 127.965 185.975 127.202 186.386C126.44 186.798 125.574 186.974 124.712 186.892C124.138 186.841 123.58 186.678 123.07 186.411C122.559 186.143 122.107 185.777 121.738 185.334C121.369 184.891 121.092 184.379 120.921 183.828C120.751 183.277 120.691 182.697 120.745 182.123H120.769ZM124.664 187.502C125.645 187.593 126.632 187.39 127.498 186.92C128.365 186.449 129.073 185.732 129.532 184.858C129.992 183.985 130.183 182.994 130.081 182.012C129.978 181.03 129.588 180.1 128.958 179.34C128.329 178.58 127.488 178.024 126.543 177.743C125.598 177.461 124.592 177.467 123.65 177.759C122.708 178.051 121.874 178.616 121.253 179.382C120.632 180.149 120.251 181.083 120.16 182.067C120.035 183.381 120.435 184.692 121.274 185.711C122.112 186.73 123.32 187.374 124.632 187.502H124.664ZM120.769 182.123C120.849 181.259 121.183 180.439 121.729 179.765C122.274 179.092 123.007 178.596 123.834 178.34C124.662 178.084 125.546 178.079 126.376 178.327C127.205 178.575 127.943 179.064 128.495 179.732C129.048 180.4 129.39 181.217 129.478 182.08C129.567 182.943 129.398 183.812 128.993 184.579C128.588 185.346 127.965 185.975 127.202 186.386C126.44 186.798 125.574 186.974 124.712 186.892C124.138 186.841 123.58 186.678 123.07 186.411C122.559 186.143 122.107 185.777 121.738 185.334C121.369 184.891 121.092 184.379 120.921 183.828C120.751 183.277 120.691 182.697 120.745 182.123H120.769ZM124.664 187.502C125.645 187.593 126.632 187.39 127.498 186.92C128.365 186.449 129.073 185.732 129.532 184.858C129.992 183.985 130.183 182.994 130.081 182.012C129.978 181.03 129.588 180.1 128.958 179.34C128.329 178.58 127.488 178.024 126.543 177.743C125.598 177.461 124.592 177.467 123.65 177.759C122.708 178.051 121.874 178.616 121.253 179.382C120.632 180.149 120.251 181.083 120.16 182.067C120.035 183.381 120.435 184.692 121.274 185.711C122.112 186.73 123.32 187.374 124.632 187.502H124.664ZM120.769 182.123C120.849 181.259 121.183 180.439 121.729 179.765C122.274 179.092 123.007 178.596 123.834 178.34C124.662 178.084 125.546 178.079 126.376 178.327C127.205 178.575 127.943 179.064 128.495 179.732C129.048 180.4 129.39 181.217 129.478 182.08C129.567 182.943 129.398 183.812 128.993 184.579C128.588 185.346 127.965 185.975 127.202 186.386C126.44 186.798 125.574 186.974 124.712 186.892C124.138 186.841 123.58 186.678 123.07 186.411C122.559 186.143 122.107 185.777 121.738 185.334C121.369 184.891 121.092 184.379 120.921 183.828C120.751 183.277 120.691 182.697 120.745 182.123H120.769Z" fill="black"/>
<path opacity="0.1" d="M124.004 172.307L128.027 172.676L128.075 169.81L124.493 169.473L124.004 172.307Z" fill="black"/>
<path opacity="0.1" d="M131.535 174.377L134.116 177.484L136.167 175.485L133.875 172.715L131.535 174.377Z" fill="black"/>
<path opacity="0.1" d="M135.4 181.168L135.023 185.198L137.892 185.238L138.221 181.658L135.4 181.168Z" fill="black"/>
<path opacity="0.1" d="M133.332 188.707L130.223 191.292L132.218 193.356L134.983 191.059L133.332 188.707Z" fill="black"/>
<path opacity="0.1" d="M126.551 192.58L122.528 192.211L122.488 195.077L126.062 195.414L126.551 192.58Z" fill="black"/>
<path opacity="0.1" d="M119.019 190.509L116.438 187.402L114.387 189.401L116.679 192.171L119.019 190.509Z" fill="black"/>
<path opacity="0.1" d="M115.157 183.715L115.533 179.685L112.664 179.645L112.336 183.225L115.157 183.715Z" fill="black"/>
<path opacity="0.1" d="M117.221 176.176L120.33 173.591L118.335 171.527L115.57 173.824L117.221 176.176Z" fill="black"/>
</g>
<g opacity="0.1">
<path opacity="0.1" d="M137.659 193.666C137.931 194.915 138.566 196.055 139.484 196.942C140.402 197.83 141.562 198.425 142.817 198.651C144.073 198.878 145.367 198.727 146.537 198.217C147.706 197.708 148.699 196.862 149.389 195.787C150.079 194.712 150.435 193.456 150.413 192.178C150.39 190.9 149.99 189.658 149.263 188.608C148.536 187.558 147.515 186.747 146.328 186.278C145.141 185.81 143.842 185.704 142.596 185.975C141.767 186.155 140.983 186.497 140.286 186.981C139.59 187.465 138.995 188.081 138.537 188.796C138.078 189.51 137.765 190.308 137.614 191.144C137.464 191.979 137.479 192.836 137.659 193.666ZM141.025 192.928C140.899 192.344 140.949 191.736 141.168 191.181C141.386 190.626 141.765 190.148 142.255 189.808C142.744 189.468 143.324 189.281 143.92 189.271C144.516 189.261 145.101 189.428 145.602 189.752C146.103 190.075 146.497 190.54 146.734 191.088C146.971 191.635 147.041 192.241 146.935 192.829C146.828 193.416 146.55 193.959 146.136 194.388C145.722 194.817 145.19 195.114 144.607 195.24C144.22 195.325 143.821 195.332 143.431 195.262C143.041 195.192 142.669 195.045 142.336 194.83C142.004 194.615 141.716 194.336 141.491 194.01C141.266 193.683 141.108 193.316 141.025 192.928Z" fill="black"/>
<path opacity="0.1" d="M141.447 186.497L143.876 185.967L143.363 184.281L141.207 184.747L141.447 186.497Z" fill="black"/>
<path opacity="0.1" d="M146.238 186.311L148.33 187.66L149.163 186.103L147.304 184.906L146.238 186.311Z" fill="black"/>
<path opacity="0.1" d="M149.754 189.573L150.283 192.005L151.974 191.5L151.501 189.34L149.754 189.573Z" fill="black"/>
<path opacity="0.1" d="M149.952 194.383L148.605 196.47L150.16 197.305L151.354 195.451L149.952 194.383Z" fill="black"/>
<path opacity="0.1" d="M146.682 197.902L144.254 198.432L144.767 200.118L146.922 199.653L146.682 197.902Z" fill="black"/>
<path opacity="0.1" d="M141.894 198.095L139.802 196.754L138.969 198.303L140.828 199.5L141.894 198.095Z" fill="black"/>
<path opacity="0.1" d="M138.376 194.831L137.847 192.398L136.156 192.904L136.629 195.072L138.376 194.831Z" fill="black"/>
<path opacity="0.1" d="M138.184 190.028L139.53 187.933L137.975 187.098L136.781 188.96L138.184 190.028Z" fill="black"/>
<path opacity="0.1" d="M145.087 190.553L143.028 190.457L141.914 192.191L142.86 194.03L144.919 194.126L146.033 192.392L145.087 190.553ZM144.11 192.962C144.024 192.986 143.935 192.992 143.847 192.979C143.76 192.966 143.676 192.936 143.6 192.889C143.525 192.842 143.46 192.78 143.41 192.707C143.36 192.634 143.325 192.551 143.308 192.464C143.29 192.38 143.288 192.294 143.303 192.209C143.318 192.125 143.35 192.044 143.396 191.972C143.442 191.899 143.502 191.837 143.572 191.788C143.642 191.739 143.722 191.704 143.805 191.685C143.889 191.667 143.975 191.665 144.06 191.68C144.144 191.695 144.225 191.727 144.297 191.773C144.369 191.819 144.431 191.879 144.48 191.95C144.529 192.02 144.564 192.099 144.583 192.183C144.61 192.344 144.577 192.51 144.49 192.648C144.403 192.786 144.267 192.886 144.11 192.93V192.962Z" fill="black"/>
</g>
<path d="M194.512 59.4336H215.579C218.383 60.8448 221.063 62.4884 223.593 64.3471V104.257L213.977 97.6417L203.92 104.257V64.307L194.512 59.4336Z" fill="#37474F"/>
<path d="M103.584 59.1564L123.554 58.8513C123.554 58.8513 120.541 47.2821 119.027 44.464C117.512 41.646 107.92 33.6094 107.92 33.6094L106.782 40.1687L91.3477 37.9689C91.3477 37.9689 97.6303 43.5889 99.6818 45.7807C101.301 47.4828 103.584 59.1564 103.584 59.1564Z" fill="#7598BE"/>
<path d="M76.0794 56.0102L93.4128 55.5767L91.9303 41.1172L84.4936 46.8416L75.7188 42.2572L76.0794 56.0102Z" fill="#263238"/>
<path d="M301.207 109.174C300.379 108.515 258.294 98.2408 228.68 131.851C201.428 162.786 199.439 211.07 203.896 211.354C209.379 211.672 219.32 186.839 244.371 169.307C253.252 163.084 269.586 164.294 269.586 164.294L301.207 109.174Z" fill="#7598BE"/>
<path opacity="0.1" d="M269.621 164.267C264.782 163.999 259.929 164.3 255.161 165.163C258.676 151.258 265.308 125.356 269.606 108.57C286.907 105.303 300.741 108.795 301.211 109.168L269.621 164.267Z" fill="black"/>
<path d="M379.531 171.576C380.35 172.228 399.814 211.002 373.8 247.477C349.853 281.041 303.33 293.846 302.075 289.539C300.531 284.252 322.451 268.965 333.866 240.568C337.914 230.499 333.053 214.815 333.053 214.815L379.531 171.576Z" fill="#7598BE"/>
<path opacity="0.1" d="M387.232 202.525C371.745 210.588 347.999 222.933 335.446 229.452C335.228 224.505 334.424 219.601 333.051 214.843L379.526 171.588C380.01 171.943 386.569 184.784 387.232 202.525Z" fill="black"/>
<path d="M299.758 239.526L253.279 202.544C253.279 202.544 262.468 145.918 302.076 101.213C321.878 78.9191 346.555 60.2484 369.331 46.6649C400.747 27.8243 428.311 18.7116 433.696 22.9965C439.081 27.2814 436.424 56.2568 425.201 91.1345C417.071 116.371 404.494 144.7 387.269 169.044C352.806 217.844 299.758 239.526 299.758 239.526Z" fill="#B6BABF"/>
<path d="M377.301 151.242C373.087 156.547 367.397 160.48 360.95 162.544C354.504 164.609 347.59 164.711 341.084 162.839C334.578 160.967 328.771 157.204 324.398 152.027C320.024 146.85 317.282 140.49 316.516 133.752C315.75 127.014 316.995 120.201 320.095 114.174C323.194 108.147 328.008 103.177 333.928 99.8925C339.848 96.6077 346.609 95.1558 353.354 95.7204C360.099 96.285 366.527 98.8408 371.824 103.064C375.342 105.868 378.275 109.338 380.454 113.277C382.634 117.216 384.018 121.546 384.526 126.02C385.035 130.494 384.658 135.025 383.419 139.352C382.179 143.68 380.1 147.72 377.301 151.242Z" fill="#C7C7C7"/>
<path d="M378.511 147.756C374.3 153.062 368.612 156.996 362.167 159.063C355.723 161.13 348.81 161.236 342.304 159.367C335.798 157.499 329.99 153.74 325.614 148.566C321.238 143.392 318.492 137.035 317.721 130.299C316.951 123.563 318.191 116.75 321.286 110.721C324.38 104.693 329.189 99.7196 335.106 96.4302C341.022 93.1408 347.78 91.6831 354.525 92.2412C361.27 92.7993 367.699 95.3483 372.999 99.5659C376.522 102.367 379.459 105.836 381.643 109.775C383.827 113.714 385.215 118.045 385.727 122.52C386.239 126.996 385.865 131.529 384.627 135.859C383.388 140.189 381.31 144.232 378.511 147.756Z" fill="#7598BE"/>
<path d="M368.764 142.994C377.887 133.574 377.657 118.524 368.251 109.38C358.844 100.235 343.822 100.459 334.699 109.88C325.576 119.301 325.805 134.35 335.212 143.495C344.619 152.639 359.641 152.415 368.764 142.994Z" fill="white"/>
<path d="M370.327 141.199C368.503 143.512 366.261 145.46 363.718 146.944L344.715 149.141C339.828 147.612 335.563 144.545 332.553 140.396L373.585 135.689C372.754 137.665 371.658 139.519 370.327 141.199Z" fill="#B6BABF"/>
<path d="M369.089 110.19L331.156 114.492C331.748 113.469 332.413 112.491 333.146 111.565C337.071 106.648 342.784 103.492 349.03 102.79C355.277 102.087 361.547 103.896 366.467 107.818C367.397 108.544 368.274 109.337 369.089 110.19Z" fill="#B6BABF"/>
<path d="M375.146 130.346L329.829 135.537C329.562 134.867 329.333 134.183 329.142 133.487L375.375 128.183C375.35 128.915 375.264 129.629 375.146 130.346Z" fill="#B6BABF"/>
<path d="M425.225 91.1396L369.363 46.6909C400.756 27.821 428.317 18.7092 433.701 22.9936C439.086 27.2781 436.448 56.2653 425.225 91.1396Z" fill="#7598BE"/>
<path d="M383.591 48.5339C383.345 48.8438 383.013 49.0738 382.637 49.1947C382.26 49.3156 381.857 49.322 381.477 49.2131C381.097 49.1042 380.758 48.8849 380.502 48.5829C380.247 48.2809 380.086 47.9098 380.041 47.5165C379.996 47.1232 380.068 46.7254 380.249 46.3734C380.429 46.0213 380.71 45.7309 381.055 45.5388C381.401 45.3466 381.795 45.2615 382.189 45.294C382.583 45.3266 382.958 45.4754 383.268 45.7216C383.473 45.8852 383.645 46.0876 383.772 46.3174C383.9 46.5472 383.981 46.7999 384.011 47.0611C384.041 47.3222 384.019 47.5867 383.947 47.8394C383.875 48.0921 383.754 48.3281 383.591 48.5339Z" fill="white"/>
<path d="M393.524 56.4518C393.278 56.7618 392.947 56.9917 392.57 57.1126C392.194 57.2335 391.79 57.2399 391.411 57.1311C391.031 57.0222 390.691 56.8028 390.436 56.5009C390.18 56.1989 390.02 55.8278 389.975 55.4345C389.929 55.0412 390.002 54.6434 390.182 54.2913C390.363 53.9393 390.644 53.6488 390.989 53.4567C391.334 53.2646 391.729 53.1794 392.123 53.212C392.517 53.2445 392.892 53.3934 393.202 53.6396C393.407 53.8031 393.578 54.0056 393.706 54.2354C393.833 54.4652 393.914 54.7179 393.944 54.979C393.974 55.2402 393.952 55.5046 393.88 55.7573C393.808 56.01 393.687 56.246 393.524 56.4518Z" fill="white"/>
<path d="M403.446 64.3634C403.199 64.6719 402.866 64.8999 402.489 65.0186C402.112 65.1373 401.708 65.1413 401.329 65.0301C400.95 64.919 400.612 64.6977 400.358 64.3942C400.104 64.0907 399.946 63.7187 399.903 63.3251C399.86 62.9316 399.935 62.5342 400.117 62.1832C400.3 61.8323 400.582 61.5435 400.929 61.3534C401.276 61.1633 401.671 61.0805 402.064 61.1153C402.458 61.1502 402.832 61.3012 403.14 61.5493C403.345 61.714 403.515 61.9175 403.641 62.148C403.767 62.3786 403.847 62.6318 403.875 62.8931C403.904 63.1544 403.88 63.4187 403.807 63.671C403.733 63.9233 403.611 64.1586 403.446 64.3634Z" fill="white"/>
<path d="M413.384 72.2722C413.138 72.5821 412.806 72.8121 412.43 72.933C412.053 73.0539 411.65 73.0603 411.27 72.9514C410.89 72.8425 410.551 72.6232 410.295 72.3212C410.04 72.0192 409.879 71.6481 409.834 71.2548C409.789 70.8615 409.861 70.4637 410.042 70.1116C410.222 69.7596 410.503 69.4692 410.848 69.277C411.194 69.0849 411.588 68.9998 411.982 69.0323C412.376 69.0649 412.751 69.2137 413.061 69.4599C413.476 69.7902 413.743 70.272 413.804 70.7994C413.864 71.3268 413.713 71.8565 413.384 72.2722Z" fill="white"/>
<path d="M423.317 80.1862C423.071 80.4962 422.739 80.7261 422.363 80.847C421.987 80.9679 421.583 80.9743 421.204 80.8655C420.824 80.7566 420.484 80.5372 420.229 80.2352C419.973 79.9332 419.813 79.5621 419.767 79.1688C419.722 78.7755 419.795 78.3777 419.975 78.0257C420.156 77.6737 420.437 77.3832 420.782 77.1911C421.127 76.999 421.522 76.9138 421.916 76.9464C422.31 76.9789 422.685 77.1277 422.994 77.374C423.409 77.7042 423.677 78.186 423.737 78.7134C423.798 79.2408 423.647 79.7706 423.317 80.1862Z" fill="white"/>
<path d="M263.926 199.315C263.681 199.625 263.349 199.855 262.973 199.976C262.596 200.097 262.193 200.103 261.813 199.994C261.433 199.885 261.094 199.666 260.838 199.364C260.583 199.062 260.422 198.691 260.377 198.298C260.332 197.904 260.404 197.507 260.585 197.155C260.765 196.803 261.046 196.512 261.391 196.32C261.737 196.128 262.131 196.043 262.525 196.075C262.919 196.108 263.294 196.257 263.604 196.503C264.019 196.833 264.286 197.315 264.347 197.842C264.407 198.37 264.256 198.899 263.926 199.315Z" fill="#C7C7C7"/>
<path d="M273.887 207.253C273.642 207.563 273.31 207.793 272.934 207.913C272.557 208.034 272.154 208.041 271.774 207.932C271.394 207.823 271.055 207.604 270.799 207.302C270.543 207 270.383 206.629 270.338 206.235C270.293 205.842 270.365 205.444 270.546 205.092C270.726 204.74 271.007 204.45 271.352 204.258C271.698 204.065 272.092 203.98 272.486 204.013C272.88 204.045 273.255 204.194 273.565 204.44C273.98 204.771 274.247 205.252 274.307 205.78C274.368 206.307 274.217 206.837 273.887 207.253Z" fill="#C7C7C7"/>
<path d="M283.805 215.163C283.559 215.473 283.227 215.703 282.85 215.824C282.473 215.945 282.069 215.951 281.689 215.841C281.309 215.732 280.969 215.511 280.714 215.208C280.459 214.905 280.299 214.533 280.255 214.14C280.211 213.746 280.285 213.348 280.467 212.996C280.649 212.644 280.931 212.354 281.278 212.163C281.625 211.973 282.02 211.889 282.414 211.924C282.808 211.958 283.184 212.11 283.492 212.358C283.697 212.521 283.868 212.723 283.995 212.953C284.121 213.182 284.202 213.435 284.231 213.695C284.26 213.956 284.237 214.22 284.164 214.472C284.091 214.724 283.969 214.958 283.805 215.163Z" fill="#C7C7C7"/>
<path d="M293.747 223.069C293.501 223.379 293.169 223.609 292.793 223.73C292.417 223.851 292.013 223.857 291.633 223.748C291.253 223.639 290.914 223.42 290.658 223.118C290.403 222.816 290.242 222.445 290.197 222.052C290.152 221.658 290.224 221.261 290.405 220.908C290.586 220.556 290.866 220.266 291.212 220.074C291.557 219.882 291.952 219.797 292.345 219.829C292.739 219.862 293.115 220.011 293.424 220.257C293.839 220.587 294.106 221.069 294.167 221.596C294.227 222.124 294.076 222.653 293.747 223.069Z" fill="#C7C7C7"/>
<path d="M303.684 230.983C303.439 231.293 303.107 231.523 302.73 231.644C302.354 231.765 301.951 231.771 301.571 231.662C301.191 231.553 300.852 231.334 300.596 231.032C300.34 230.73 300.18 230.359 300.135 229.966C300.09 229.572 300.162 229.175 300.342 228.823C300.523 228.471 300.804 228.18 301.149 227.988C301.495 227.796 301.889 227.711 302.283 227.743C302.677 227.776 303.052 227.925 303.362 228.171C303.777 228.501 304.044 228.983 304.104 229.51C304.165 230.038 304.014 230.567 303.684 230.983Z" fill="#C7C7C7"/>
<path d="M284.359 250.12L246.598 220.014L255.914 204.625L297.236 237.549L284.359 250.12Z" fill="#7598BE"/>
<path opacity="0.1" d="M297.229 237.553L290.963 243.659L252.36 210.509L255.926 204.629L297.229 237.553Z" fill="black"/>
<path opacity="0.6" d="M125.221 234.612C124.173 235.934 122.758 236.914 121.153 237.43C119.549 237.946 117.828 237.973 116.207 237.509C114.587 237.044 113.14 236.109 112.05 234.821C110.96 233.533 110.275 231.95 110.083 230.273C109.891 228.596 110.199 226.899 110.969 225.398C111.739 223.897 112.937 222.658 114.41 221.839C115.883 221.019 117.565 220.656 119.245 220.795C120.924 220.934 122.525 221.568 123.845 222.619C125.615 224.027 126.754 226.082 127.012 228.331C127.27 230.58 126.626 232.839 125.221 234.612Z" fill="#7598BE"/>
<path opacity="0.6" d="M137.63 228.953C139.424 230.381 142.034 230.081 143.458 228.284C144.883 226.487 144.583 223.873 142.788 222.445C140.994 221.017 138.384 221.316 136.96 223.114C135.535 224.911 135.835 227.525 137.63 228.953Z" fill="#7598BE"/>
<path opacity="0.6" d="M278.615 351.368C278.103 352.009 277.413 352.485 276.632 352.734C275.851 352.983 275.013 352.994 274.225 352.766C273.437 352.539 272.734 352.082 272.205 351.455C271.675 350.827 271.343 350.056 271.251 349.24C271.158 348.424 271.31 347.598 271.685 346.868C272.061 346.138 272.644 345.536 273.361 345.138C274.078 344.74 274.897 344.563 275.714 344.631C276.531 344.699 277.31 345.008 277.952 345.519C278.38 345.859 278.736 346.28 279.001 346.759C279.266 347.237 279.434 347.763 279.495 348.306C279.557 348.849 279.511 349.4 279.36 349.925C279.209 350.45 278.956 350.941 278.615 351.368Z" fill="#7598BE"/>
<path opacity="0.6" d="M258.524 351.892C258.12 352.402 257.619 352.827 257.05 353.144C256.481 353.46 255.855 353.66 255.208 353.733C173.472 306.766 253.907 353.752 253.282 353.571C252.656 353.391 252.072 353.089 251.564 352.682L57.4366 352.386L58.1864 247.35C57.1586 246.532 57.2748 244.914 57.125 243.608C56.9752 242.301 57.3494 240.989 58.1652 239.96C58.9811 238.931 60.1718 238.269 61.4754 238.119C62.779 237.969 64.0888 238.345 65.1166 239.163C65.4273 239.409 65.7069 239.692 65.9493 240.006C67.1535 238.482 68.7843 237.352 70.6331 236.762C72.4819 236.172 74.4647 236.147 76.3278 236.692C78.1909 237.237 79.8498 238.326 81.0921 239.82C82.3345 241.314 83.1039 243.145 83.302 245.079L83.3757 245.138C83.7483 244.668 84.0327 244.157 84.4346 243.65C87.4732 239.817 91.908 237.35 96.7634 236.793C101.619 236.236 106.497 237.634 110.325 240.68C112.532 242.426 114.306 244.661 115.507 247.208C117.507 244.968 120.212 243.481 123.174 242.994C126.135 242.506 129.173 243.049 131.785 244.53C134.397 246.011 136.425 248.343 137.533 251.138C138.64 253.933 138.76 257.022 137.873 259.894C141.383 258.671 145.18 258.538 148.767 259.515C152.353 260.491 155.562 262.53 157.973 265.365C158.655 264.092 159.451 262.884 160.353 261.756C163.314 258.007 167.287 255.188 171.801 253.634C176.314 252.08 181.179 251.857 185.816 252.991C190.454 254.125 194.67 256.568 197.964 260.031C201.257 263.493 203.49 267.829 204.397 272.525C205.225 272.152 206.14 272.015 207.04 272.127C207.941 272.24 208.794 272.598 209.506 273.162C210.016 273.571 210.443 274.074 210.763 274.644L254.861 226.527L276.161 243.475L239.366 297.357C239.981 297.537 240.557 297.832 241.063 298.227C241.773 298.794 242.314 299.545 242.627 300.398C242.94 301.252 243.014 302.175 242.839 303.068C247.978 302.863 253.055 304.256 257.374 307.054C261.694 309.853 265.044 313.92 266.967 318.699C268.89 323.479 269.292 328.736 268.116 333.752C266.941 338.767 259.053 350.313 255.208 353.733C256.26 354.278 99.4473 344.018 96.8972 283.516C99.3426 285.456 218.601 266.529 219.803 269.413C221.004 272.296 221.454 275.438 221.11 278.543C223.701 277.027 226.732 276.444 229.7 276.892C232.668 277.339 235.394 278.79 237.425 281.004C239.457 283.217 240.672 286.06 240.869 289.06C241.066 292.06 240.233 295.037 238.508 297.497C241.257 298.092 243.831 299.317 246.028 301.075C247.935 302.582 249.525 304.452 250.708 306.576C251.892 308.701 252.644 311.038 252.923 313.454C253.202 315.871 253.001 318.318 252.333 320.656C251.664 322.994 250.541 325.177 249.028 327.078C248.648 327.558 248.297 328 247.822 328.449L247.896 328.507C249.822 328.272 251.774 328.618 253.503 329.501C255.232 330.384 256.66 331.763 257.603 333.462C258.545 335.161 258.961 337.104 258.797 339.04C258.632 340.977 257.895 342.821 256.679 344.335C257.039 344.501 257.377 344.709 257.687 344.957C258.709 345.77 259.371 346.954 259.527 348.252C259.684 349.551 259.324 350.858 258.524 351.892Z" fill="#F9FAFB"/>
<path d="M271.683 357.729L265.919 354.661L260.587 359.077L263.673 352.874L259.385 347.944L265.355 350.695L270.481 346.596L267.647 352.519L271.683 357.729Z" fill="#FDFDFD"/>
<path d="M256.532 276.26L250.768 273.192L245.436 277.608L248.513 271.397L244.225 266.467L250.204 269.226L255.33 265.126L252.496 271.049L256.532 276.26Z" fill="#FDFDFD"/>
<path d="M141.739 270.815L138.506 269.099L135.527 271.57L137.254 268.103L134.863 265.344L138.202 266.888L141.058 264.591L139.481 267.906L141.739 270.815Z" fill="#FDFDFD"/>
<path d="M77.8053 339.725L74.5722 338.009L71.6007 340.471L73.3203 337.013L70.9294 334.254L74.2683 335.798L77.1247 333.501L75.5478 336.816L77.8053 339.725Z" fill="#FDFDFD"/>
<path d="M87.817 259.307L84.5912 257.582L81.6125 260.053L83.3394 256.586L80.9411 253.836L84.28 255.381L87.1365 253.083L85.5503 256.391L87.817 259.307Z" fill="#FDFDFD"/>
<path d="M211.973 354.065L208.749 352.357L205.778 354.818L207.488 351.353L205.097 348.594L208.436 350.138L211.302 347.849L209.716 351.156L211.973 354.065Z" fill="#FDFDFD"/>
<path d="M252.853 260.176L249.636 258.458L246.657 260.928L248.384 257.462L245.984 254.696L249.323 256.24L252.189 253.95L250.603 257.258L252.853 260.176Z" fill="#FDFDFD"/>
<path d="M250.182 241.259C249.964 241.12 249.702 241.067 249.447 241.11C249.193 241.153 248.963 241.289 248.803 241.492C248.642 241.694 248.562 241.949 248.578 242.207C248.594 242.466 248.704 242.709 248.888 242.89C249.107 243.029 249.368 243.082 249.623 243.039C249.877 242.996 250.107 242.86 250.268 242.657C250.428 242.455 250.508 242.2 250.492 241.942C250.477 241.683 250.366 241.44 250.182 241.259Z" fill="#FDFDFD"/>
<path d="M109.092 276.239C108.874 276.101 108.612 276.048 108.358 276.091C108.103 276.134 107.873 276.27 107.713 276.472C107.552 276.675 107.472 276.93 107.488 277.188C107.504 277.446 107.614 277.689 107.799 277.871C108.017 278.009 108.278 278.062 108.533 278.019C108.787 277.976 109.017 277.84 109.178 277.638C109.338 277.435 109.418 277.18 109.402 276.922C109.387 276.664 109.276 276.421 109.092 276.239Z" fill="#FDFDFD"/>
<path d="M169.596 306.098C169.378 305.96 169.116 305.907 168.861 305.95C168.607 305.993 168.377 306.129 168.217 306.331C168.056 306.534 167.976 306.789 167.992 307.047C168.008 307.305 168.118 307.549 168.302 307.73C168.521 307.869 168.782 307.922 169.037 307.879C169.291 307.836 169.521 307.7 169.682 307.497C169.842 307.295 169.922 307.04 169.906 306.781C169.891 306.523 169.78 306.28 169.596 306.098Z" fill="#FDFDFD"/>
<path d="M70.5812 320.532C70.4271 320.439 70.2441 320.405 70.0667 320.436C69.8893 320.468 69.7296 320.564 69.6175 320.705C69.5055 320.846 69.4487 321.024 69.458 321.204C69.4673 321.385 69.5419 321.555 69.6678 321.685C69.822 321.778 70.0049 321.812 70.1823 321.781C70.3597 321.749 70.5194 321.653 70.6315 321.512C70.7436 321.37 70.8003 321.193 70.791 321.013C70.7818 320.832 70.7072 320.662 70.5812 320.532Z" fill="#FDFDFD"/>
<path d="M214.338 315.446C214.184 315.323 213.988 315.267 213.793 315.29C213.598 315.312 213.42 315.411 213.297 315.565C213.175 315.719 213.119 315.915 213.142 316.111C213.164 316.306 213.263 316.485 213.417 316.607C213.571 316.73 213.767 316.786 213.962 316.763C214.157 316.741 214.335 316.642 214.457 316.488C214.579 316.334 214.635 316.138 214.613 315.942C214.591 315.747 214.491 315.568 214.338 315.446Z" fill="#FDFDFD"/>
<path d="M171.167 262.708C171.013 262.614 170.83 262.58 170.653 262.612C170.475 262.644 170.316 262.739 170.203 262.881C170.091 263.022 170.035 263.2 170.044 263.38C170.053 263.56 170.128 263.731 170.254 263.86C170.408 263.954 170.591 263.988 170.768 263.956C170.946 263.925 171.105 263.829 171.217 263.688C171.33 263.546 171.386 263.369 171.377 263.188C171.368 263.008 171.293 262.837 171.167 262.708Z" fill="#FDFDFD"/>
<path d="M258.455 335.991C258.04 335.661 257.512 335.509 256.985 335.57C256.459 335.63 255.978 335.898 255.648 336.313C255.319 336.729 255.168 337.259 255.228 337.786C255.289 338.313 255.556 338.795 255.971 339.125C256.386 339.456 256.915 339.607 257.441 339.547C257.968 339.486 258.449 339.219 258.778 338.803C259.107 338.388 259.259 337.858 259.198 337.331C259.138 336.803 258.87 336.321 258.455 335.991Z" fill="#FDFDFD"/>
<path d="M182.748 263.265C182.333 262.934 181.804 262.783 181.278 262.843C180.752 262.904 180.271 263.171 179.941 263.587C179.612 264.002 179.461 264.532 179.521 265.059C179.582 265.587 179.849 266.069 180.264 266.399C180.679 266.729 181.208 266.881 181.734 266.82C182.261 266.76 182.742 266.492 183.071 266.077C183.4 265.661 183.552 265.131 183.491 264.604C183.431 264.077 183.163 263.595 182.748 263.265Z" fill="#FDFDFD"/>
</g>
<defs>
<clipPath id="clip0_4212_40658">
<rect width="461" height="365" fill="white"/>
</clipPath>
</defs>
</svg>
