<svg width="44" height="44" viewBox="0 0 44 44" fill="none" xmlns="http://www.w3.org/2000/svg">
<rect width="44" height="44" rx="22" fill="#009987" fill-opacity="0.12"/>
<path d="M10.5156 16.7344C10.3281 16.6407 10.1953 16.5391 10.1172 16.4297C10.0391 16.3204 10 16.1719 10 15.9844C10 15.7969 10.0391 15.6485 10.1172 15.5391C10.1953 15.4297 10.3281 15.3282 10.5156 15.2344L20.4688 10.2657C20.875 10.0678 21.3854 9.97921 22 10C22.6146 9.97921 23.125 10.0678 23.5312 10.2657L33.4844 15.2344C33.6719 15.3282 33.8047 15.4297 33.8828 15.5391C33.9609 15.6485 34 15.7969 34 15.9844C34 16.1719 33.9609 16.3204 33.8828 16.4297C33.8047 16.5391 33.6719 16.6407 33.4844 16.7344L23.5312 21.7032C23.125 21.9011 22.6146 21.9896 22 21.9688C21.3854 21.9896 20.875 21.9011 20.4688 21.7032L10.5156 16.7344ZM10.5156 28.7657C10.3281 28.6719 10.1953 28.5704 10.1172 28.461C10.0391 28.3516 10 28.2032 10 28.0157C10 27.8282 10.0391 27.6797 10.1172 27.5704C10.1953 27.461 10.3281 27.3594 10.5156 27.2657L13.0156 26.0157L20.4688 29.7344C20.8854 29.9323 21.3958 30.0157 22 29.9844C22.6042 30.0157 23.1146 29.9323 23.5312 29.7344L30.9844 26.0157L33.4844 27.2657C33.6719 27.3594 33.8047 27.461 33.8828 27.5704C33.9609 27.6797 34 27.8282 34 28.0157C34 28.2032 33.9609 28.3516 33.8828 28.461C33.8047 28.5704 33.6719 28.6719 33.4844 28.7657L23.5312 33.7344C23.1146 33.9323 22.6042 34.0157 22 33.9844C21.3958 34.0157 20.8854 33.9323 20.4688 33.7344L10.5156 28.7657ZM10.5156 22.7657C10.3281 22.6719 10.1953 22.5704 10.1172 22.461C10.0391 22.3516 10 22.2032 10 22.0157C10 21.8282 10.0391 21.6797 10.1172 21.5704C10.1953 21.461 10.3281 21.3594 10.5156 21.2657L13.0156 20.0157L20.4688 23.7344C20.8854 23.9323 21.3958 24.0157 22 23.9844C22.6042 24.0157 23.1146 23.9323 23.5312 23.7344L30.9844 20.0157L33.4844 21.2657C33.6719 21.3594 33.8047 21.461 33.8828 21.5704C33.9609 21.6797 34 21.8282 34 22.0157C34 22.2032 33.9609 22.3516 33.8828 22.461C33.8047 22.5704 33.6719 22.6719 33.4844 22.7657L23.5312 27.7344C23.1146 27.9323 22.6042 28.0157 22 27.9844C21.3958 28.0157 20.8854 27.9323 20.4688 27.7344L10.5156 22.7657Z" fill="#009987"/>
</svg>
