<svg width="21" height="21" viewBox="0 0 21 21" fill="none" xmlns="http://www.w3.org/2000/svg">
<circle cx="10.5" cy="10.5" r="10.5" fill="#009987"/>
<path d="M6.56835 9.45996C6.2719 9.14607 5.77712 9.13194 5.46323 9.42839C5.14934 9.72484 5.1352 10.2196 5.43165 10.5335L6.56835 9.45996ZM9.32247 13.5146L8.75412 14.0514C8.90153 14.2075 9.10664 14.2961 9.32133 14.2964C9.53601 14.2967 9.74138 14.2087 9.88924 14.0531L9.32247 13.5146ZM16.0782 7.53844C16.3755 7.22541 16.3628 6.7306 16.0498 6.43323C15.7368 6.13586 15.242 6.14854 14.9446 6.46156L16.0782 7.53844ZM5.43165 10.5335L8.75412 14.0514L9.89082 12.9779L6.56835 9.45996L5.43165 10.5335ZM9.88924 14.0531L16.0782 7.53844L14.9446 6.46156L8.7557 12.9762L9.88924 14.0531Z" fill="white"/>
</svg>
