<svg width="103" height="68" viewBox="0 0 103 68" fill="none" xmlns="http://www.w3.org/2000/svg">
<path d="M54.6079 67.148H13.7375C6.15624 67.148 0 60.9918 0 53.4105C0 46.2852 5.4722 40.414 12.4264 39.73C12.3694 39.217 12.3125 38.761 12.3125 38.2479C12.3125 27.1895 21.3187 18.2402 32.3201 18.2402C36.4243 18.2402 40.4144 19.4943 43.7205 21.8314C44.3476 22.2874 44.5186 23.1994 44.0626 23.8264C43.6066 24.4535 42.6945 24.6245 42.0675 24.1684C39.2174 22.1734 35.7973 21.0903 32.2632 21.0903C22.8008 21.0903 15.1055 28.7856 15.1055 38.2479C15.1055 39.16 15.2196 40.015 15.3906 40.87L15.6186 42.4091L13.6805 42.5231C7.63828 42.5231 2.79313 47.4253 2.79313 53.4105C2.79313 59.3957 7.69528 64.2979 13.6805 64.2979H54.6079C62.1322 64.2979 68.2314 58.1987 68.2314 50.6744C68.2314 49.7624 68.1174 48.8503 67.9464 47.9383C67.7754 47.1973 68.2884 46.3992 69.0865 46.2852C69.8275 46.1712 70.6255 46.6272 70.7395 47.4253C70.9675 48.5083 71.0815 49.6483 71.0815 50.7314C71.0815 59.7947 63.6713 67.148 54.6079 67.148Z" fill="#011833"/>
<path d="M85.731 48.9077H44.8606C37.2793 48.9077 31.123 42.7515 31.123 35.1702C31.123 28.045 36.5952 22.1738 43.5495 21.4898C43.4925 20.9767 43.4355 20.5207 43.4355 20.0077C43.4355 8.94932 52.3848 0 63.4432 0C73.1336 0 81.2849 6.89725 82.9949 16.3026C83.964 16.1316 84.819 16.0176 85.731 16.0176C94.7943 16.0176 102.205 23.3708 102.205 32.4911C102.205 41.6115 94.7943 48.9077 85.731 48.9077ZM63.4432 2.8501C53.9809 2.8501 46.2856 10.5454 46.2856 20.0077C46.2856 20.9197 46.3996 21.7748 46.5706 22.6298L46.7986 24.1689L44.8606 24.2829C38.8183 24.2829 33.9731 29.185 33.9731 35.1702C33.9731 41.1555 38.8753 46.0576 44.8606 46.0576H85.731C93.2553 46.0576 99.3545 39.9584 99.3545 32.4342C99.3545 24.9099 93.2553 18.8107 85.731 18.8107C84.648 18.8107 83.5079 18.9817 82.1968 19.3237L80.6008 19.7797L80.4298 18.1266C79.5178 9.40533 72.2215 2.8501 63.4432 2.8501Z" fill="#011833"/>
<path d="M65.8951 27.0003L69.5633 23.3322C70.0865 22.8089 70.0865 21.9606 69.5633 21.4374C69.04 20.9141 68.1917 20.9141 67.6684 21.4374L64.0003 25.1055L60.3322 21.4374C59.8089 20.9141 58.9606 20.9141 58.4374 21.4374C57.9141 21.9606 57.9141 22.8089 58.4374 23.3322L62.1055 27.0003L58.4374 30.6684C57.9141 31.1917 57.9141 32.04 58.4374 32.5633C58.699 32.8249 59.0419 32.9557 59.3848 32.9557C59.7277 32.9557 60.0706 32.8249 60.3322 32.5633L64.0003 28.8951L67.6684 32.5633C67.93 32.8249 68.2729 32.9557 68.6158 32.9557C68.9587 32.9557 69.3016 32.8249 69.5632 32.5633C70.0865 32.04 70.0865 31.1917 69.5632 30.6684L65.8951 27.0003Z" fill="#F1423B"/>
</svg>
