<svg width="10" height="11" viewBox="0 0 10 11" fill="none" xmlns="http://www.w3.org/2000/svg">
<path
    d="M6.85517 2.14639L5.35517 0.646393C5.2614 0.552658 5.13425 0.5 5.00167 0.5C4.86909 0.5 4.74193 0.552658 4.64817 0.646393L3.14817 2.14639C3.05709 2.2407 3.00669 2.367 3.00783 2.49809C3.00897 2.62919 3.06155 2.7546 3.15426 2.8473C3.24696 2.94001 3.37237 2.99259 3.50347 2.99373C3.63457 2.99487 3.76087 2.94447 3.85517 2.85339L4.50167 2.20689V7.9999C4.50167 8.1325 4.55435 8.25968 4.64812 8.35345C4.74188 8.44722 4.86906 8.4999 5.00167 8.4999C5.13428 8.4999 5.26145 8.44722 5.35522 8.35345C5.44899 8.25968 5.50167 8.1325 5.50167 7.9999V2.20689L6.14817 2.85339C6.24247 2.94447 6.36877 2.99487 6.49987 2.99373C6.63097 2.99259 6.75637 2.94001 6.84908 2.8473C6.94178 2.7546 6.99437 2.62919 6.99551 2.49809C6.99665 2.367 6.94625 2.2407 6.85517 2.14639Z"
    fill="#2C3857"
  />
<path
    opacity="0.5"
    d="M8 4H5.5V8C5.5 8.13261 5.44732 8.25978 5.35355 8.35355C5.25979 8.44732 5.13261 8.5 5 8.5C4.86739 8.5 4.74021 8.44732 4.64645 8.35355C4.55268 8.25978 4.5 8.13261 4.5 8V4H2C1.6023 4.0004 1.221 4.15856 0.939778 4.43978C0.65856 4.721 0.500397 5.1023 0.5 5.5V9C0.500397 9.3977 0.65856 9.779 0.939778 10.0602C1.221 10.3414 1.6023 10.4996 2 10.5H8C8.3977 10.4996 8.779 10.3414 9.06022 10.0602C9.34144 9.779 9.4996 9.3977 9.5 9V5.5C9.4996 5.1023 9.34144 4.721 9.06022 4.43978C8.779 4.15856 8.3977 4.0004 8 4Z"
    fill="#2C3857"
  />
</svg>
