<svg width="86" height="86" viewBox="0 0 86 86" fill="none" xmlns="http://www.w3.org/2000/svg">
<circle cx="43" cy="43" r="43" fill="#AADBFF"/>
<g clip-path="url(#clip0_4036_30679)">
<g filter="url(#filter0_b_4036_30679)">
<path fill-rule="evenodd" clip-rule="evenodd" d="M30.8366 19.248C33.8428 18.9223 37.632 18.9223 42.4659 18.9224H42.7041C47.538 18.9223 51.3272 18.9223 54.3334 19.248C57.4011 19.5804 59.8868 20.2708 62.0091 21.8128C63.294 22.7463 64.4239 23.8762 65.3574 25.161C66.8993 27.2833 67.5898 29.769 67.9221 32.8368C68.2478 35.843 68.2478 39.6322 68.2478 44.466V44.6009C68.2478 47.0601 68.2478 49.2393 68.2079 51.1668C68.0905 56.8365 67.647 60.858 65.3574 64.0093C64.4239 65.2942 63.294 66.4241 62.0091 67.3576C59.8868 68.8995 57.4011 69.59 54.3334 69.9223C51.3272 70.248 47.5381 70.248 42.7043 70.248H42.4658C37.632 70.248 33.8428 70.248 30.8366 69.9223C27.7688 69.59 25.2831 68.8995 23.1608 67.3576C21.9226 66.458 20.8283 65.3759 19.915 64.1486C19.8806 64.1024 19.8465 64.0559 19.8126 64.0093C18.2707 61.887 17.5802 59.4013 17.2478 56.3335C16.9221 53.3273 16.9222 49.5382 16.9222 44.7043V44.4661C16.9222 39.6322 16.9221 35.843 17.2478 32.8368C17.5802 29.769 18.2707 27.2833 19.8126 25.161C20.7461 23.8762 21.876 22.7463 23.1608 21.8128C25.2831 20.2708 27.7688 19.5804 30.8366 19.248Z" fill="white" fill-opacity="0.15"/>
<path d="M19.4081 64.3032L19.8126 64.0093L19.4081 64.3032C19.4431 64.3514 19.4784 64.3993 19.5139 64.4471C20.4574 65.715 21.5878 66.8327 22.8669 67.7621C25.0887 69.3763 27.6724 70.0824 30.7828 70.4194C33.8159 70.748 37.6273 70.748 42.4367 70.748H42.4658H42.7043H42.7334C47.5429 70.748 51.3541 70.748 54.3872 70.4194C57.4975 70.0824 60.0813 69.3763 62.303 67.7621C63.6303 66.7977 64.7976 65.6305 65.7619 64.3032C68.154 61.0107 68.5906 56.8379 68.7078 51.1771C68.7478 49.2445 68.7478 47.0611 68.7478 44.6051V44.6009V44.466V44.4369C68.7478 39.6275 68.7478 35.816 68.4192 32.783C68.0822 29.6726 67.3761 27.0889 65.7619 24.8671C64.7976 23.5398 63.6303 22.3726 62.303 21.4083C60.0813 19.7941 57.4975 19.0879 54.3872 18.7509C51.3541 18.4223 47.543 18.4223 42.7335 18.4224L42.7041 18.4224H42.4659L42.4365 18.4224C37.627 18.4223 33.8158 18.4223 30.7828 18.7509C27.6724 19.0879 25.0887 19.7941 22.8669 21.4083C21.5397 22.3726 20.3724 23.5398 19.4081 24.8671C17.7939 27.0889 17.0877 29.6726 16.7508 32.783C16.4221 35.816 16.4222 39.6272 16.4222 44.4367L16.4222 44.4661V44.7043L16.4222 44.7337C16.4222 49.5431 16.4221 53.3543 16.7508 56.3874C17.0877 59.4977 17.7939 62.0815 19.4081 64.3032Z" stroke="url(#paint0_linear_4036_30679)" stroke-linecap="round"/>
</g>
<g filter="url(#filter1_d_4036_30679)">
<g filter="url(#filter2_b_4036_30679)">
<path fill-rule="evenodd" clip-rule="evenodd" d="M64.2873 49.1958L64.1214 49.0356C63.3951 48.3378 62.8584 47.8657 62.3535 47.5072C56.6978 43.4915 48.8962 44.555 44.5215 49.9379C43.9932 50.588 43.4643 51.4542 42.6329 52.9084L41.2689 52.4815C38.1222 51.8521 36.5489 51.5375 35.1048 51.5681C31.2403 51.6502 27.6073 53.427 25.1699 56.4271C24.3574 57.4272 23.6986 58.6773 22.547 60.9734C22.689 61.2247 22.842 61.4621 23.0067 61.6887L23.0824 61.7917C23.7574 62.6988 24.5663 63.4986 25.4815 64.1635C26.8186 65.135 28.53 65.7012 31.2619 65.9972C34.0307 66.2972 37.6062 66.2999 42.585 66.2999C47.5638 66.2999 51.1393 66.2972 53.9081 65.9972C56.6399 65.7012 58.3514 65.135 59.6885 64.1635C60.6381 63.4735 61.4733 62.6384 62.1633 61.6887C63.6416 59.6539 64.1417 56.8313 64.2606 51.0851C64.2731 50.4826 64.2816 49.8537 64.2873 49.1958ZM39.9529 41.9531C37.0456 41.9531 34.6887 39.5963 34.6887 36.689C34.6887 33.7817 37.0456 31.4248 39.9529 31.4248C42.8602 31.4248 45.2171 33.7817 45.2171 36.689C45.2171 39.5963 42.8602 41.9531 39.9529 41.9531Z" fill="url(#paint1_linear_4036_30679)"/>
</g>
</g>
</g>
<defs>
<filter id="filter0_b_4036_30679" x="-8.07782" y="-6.07764" width="101.326" height="101.326" filterUnits="userSpaceOnUse" color-interpolation-filters="sRGB">
<feFlood flood-opacity="0" result="BackgroundImageFix"/>
<feGaussianBlur in="BackgroundImage" stdDeviation="12"/>
<feComposite in2="SourceAlpha" operator="in" result="effect1_backgroundBlur_4036_30679"/>
<feBlend mode="normal" in="SourceGraphic" in2="effect1_backgroundBlur_4036_30679" result="shape"/>
</filter>
<filter id="filter1_d_4036_30679" x="19.547" y="28.4248" width="57.7404" height="50.875" filterUnits="userSpaceOnUse" color-interpolation-filters="sRGB">
<feFlood flood-opacity="0" result="BackgroundImageFix"/>
<feColorMatrix in="SourceAlpha" type="matrix" values="0 0 0 0 0 0 0 0 0 0 0 0 0 0 0 0 0 0 127 0" result="hardAlpha"/>
<feOffset dx="5" dy="5"/>
<feGaussianBlur stdDeviation="4"/>
<feColorMatrix type="matrix" values="0 0 0 0 0.176471 0 0 0 0 0.556863 0 0 0 0 0.678431 0 0 0 0.5 0"/>
<feBlend mode="normal" in2="BackgroundImageFix" result="effect1_dropShadow_4036_30679"/>
<feBlend mode="normal" in="SourceGraphic" in2="effect1_dropShadow_4036_30679" result="shape"/>
</filter>
<filter id="filter2_b_4036_30679" x="-1.45303" y="7.4248" width="89.7404" height="82.875" filterUnits="userSpaceOnUse" color-interpolation-filters="sRGB">
<feFlood flood-opacity="0" result="BackgroundImageFix"/>
<feGaussianBlur in="BackgroundImage" stdDeviation="12"/>
<feComposite in2="SourceAlpha" operator="in" result="effect1_backgroundBlur_4036_30679"/>
<feBlend mode="normal" in="SourceGraphic" in2="effect1_backgroundBlur_4036_30679" result="shape"/>
</filter>
<linearGradient id="paint0_linear_4036_30679" x1="16.9222" y1="18.9224" x2="68.2738" y2="70.222" gradientUnits="userSpaceOnUse">
<stop stop-color="white" stop-opacity="0.25"/>
<stop offset="1" stop-color="white" stop-opacity="0"/>
</linearGradient>
<linearGradient id="paint1_linear_4036_30679" x1="43.7686" y1="73.7298" x2="91.3036" y2="17.9612" gradientUnits="userSpaceOnUse">
<stop stop-color="white"/>
<stop offset="1" stop-color="white" stop-opacity="0.2"/>
</linearGradient>
<clipPath id="clip0_4036_30679">
<rect width="63.17" height="63.17" fill="white" transform="translate(11 13)"/>
</clipPath>
</defs>
</svg>
