<svg width="387" height="363" viewBox="0 0 387 363" fill="none" xmlns="http://www.w3.org/2000/svg">
<circle cx="193.611" cy="195.611" r="161.611" fill="#FBFBFB"/>
<circle cx="192.288" cy="195.885" r="95.6393" fill="#F1F1F1" stroke="#009987" stroke-width="2"/>
<circle cx="192.29" cy="195.884" r="68.0281" fill="#FFFEFF" stroke="#009987" stroke-width="2"/>
<path d="M192.287 145.136C192.287 144.123 191.465 143.297 190.452 143.333C177.769 143.775 165.65 148.793 156.354 157.493C147.059 166.193 141.251 177.954 139.971 190.58C139.869 191.589 140.638 192.464 141.649 192.531V192.531C142.661 192.598 143.532 191.831 143.637 190.823C144.853 179.127 150.248 168.237 158.863 160.173C167.478 152.11 178.701 147.447 190.452 147.006C191.465 146.968 192.287 146.15 192.287 145.136V145.136Z" fill="#009987"/>
<rect x="267.637" y="298.367" width="29.0197" height="92.0656" rx="13" transform="rotate(-45 267.637 298.367)" fill="#009987" fill-opacity="0.12" stroke="#009987" stroke-width="2"/>
<rect x="299.137" y="305.953" width="4.387" height="36.7838" rx="2.1935" transform="rotate(-45 299.137 305.953)" fill="white"/>
<rect x="262.664" y="276.059" width="4.50328" height="18.0131" transform="rotate(-45 262.664 276.059)" fill="#009987"/>
<rect x="310.445" y="184.547" width="45.0328" height="4.50328" rx="2" fill="#009987"/>
<rect x="32" y="221.797" width="45.0328" height="4.50328" rx="2" fill="#009987"/>
<rect x="364.484" y="184.547" width="22.5164" height="4.50328" rx="2" fill="#009987"/>
<rect x="321.703" y="201.066" width="22.5164" height="4.50328" rx="2" fill="#009987"/>
<rect x="43.2578" y="238.32" width="22.5164" height="4.50328" rx="2" fill="#009987"/>
<rect x="0.659529" y="33.2589" width="78.8811" height="78.8811" rx="30.5" transform="rotate(-23.8621 0.659529 33.2589)" fill="white" stroke="#FF0000"/>
<rect x="25.8555" y="53.4805" width="13.8256" height="4.60852" transform="rotate(-23.8621 25.8555 53.4805)" fill="#FF0000"/>
<rect x="58.168" y="39.1875" width="13.8256" height="4.60852" transform="rotate(-23.8621 58.168 39.1875)" fill="#FF0000"/>
<rect x="43.3086" y="62.5586" width="26.115" height="4.60852" transform="rotate(-23.8621 43.3086 62.5586)" fill="#FF0000"/>
</svg>
