<svg width="144" height="144" viewBox="0 0 144 144" fill="none" xmlns="http://www.w3.org/2000/svg">
<g filter="url(#filter0_b_1238_11543)">
<path fill-rule="evenodd" clip-rule="evenodd" d="M45.2189 14.2424C52.0717 13.4999 60.7093 13.5 71.7285 13.5H72.2715C83.2907 13.5 91.9283 13.4999 98.7811 14.2424C105.774 15 111.441 16.5739 116.279 20.0889C119.207 22.2169 121.783 24.7925 123.911 27.7214C127.426 32.5594 129 38.2256 129.758 45.2189C130.5 52.0716 130.5 60.7094 130.5 71.7284V72.0358C130.5 77.6417 130.5 82.6093 130.409 87.0031C130.142 99.9276 129.13 109.095 123.911 116.279C121.783 119.207 119.207 121.783 116.279 123.911C111.441 127.426 105.774 129 98.7811 129.758C91.9284 130.5 83.291 130.5 72.2721 130.5H71.7284C60.7094 130.5 52.0715 130.5 45.2189 129.758C38.2256 129 32.5594 127.426 27.7214 123.911C24.8988 121.86 22.4043 119.394 20.3224 116.596C20.2439 116.491 20.1661 116.385 20.0889 116.279C16.5739 111.441 15 105.774 14.2424 98.7811C13.4999 91.9283 13.5 83.2907 13.5 72.2715V71.7285C13.5 60.7093 13.4999 52.0717 14.2424 45.2189C15 38.2256 16.5739 32.5594 20.0889 27.7214C22.2169 24.7925 24.7925 22.2169 27.7214 20.0889C32.5594 16.5739 38.2256 15 45.2189 14.2424Z" fill="#009987" fill-opacity="0.35"/>
<path d="M19.6844 116.572L20.0889 116.279L19.6844 116.572C19.7627 116.68 19.8417 116.788 19.9212 116.895C22.0333 119.733 24.564 122.235 27.4275 124.316C32.3649 127.903 38.1292 129.492 45.165 130.255C52.0447 131 60.7048 131 71.6993 131H71.7284H72.2721H72.3012C83.2957 131 91.9553 131 98.835 130.255C105.871 129.492 111.635 127.903 116.572 124.316C119.544 122.157 122.157 119.544 124.316 116.572C129.637 109.248 130.642 99.9291 130.909 87.0135C131 82.6142 131 77.6419 131 72.0387V72.0358V71.7284V71.6993C131 60.7048 131 52.0447 130.255 45.165C129.492 38.1292 127.903 32.3649 124.316 27.4275C122.157 24.4562 119.544 21.8432 116.572 19.6844C111.635 16.0972 105.871 14.5076 98.835 13.7453C91.9553 12.9999 83.2957 13 72.3012 13L72.2715 13H71.7285L71.6988 13C60.7043 13 52.0447 12.9999 45.165 13.7453C38.1292 14.5076 32.3649 16.0972 27.4275 19.6844C24.4562 21.8432 21.8432 24.4562 19.6844 27.4275C16.0972 32.3649 14.5076 38.1292 13.7453 45.165C12.9999 52.0447 13 60.7043 13 71.6988L13 71.7285V72.2715L13 72.3012C13 83.2957 12.9999 91.9553 13.7453 98.835C14.5076 105.871 16.0972 111.635 19.6844 116.572Z" stroke="url(#paint0_linear_1238_11543)" stroke-linecap="round"/>
</g>
<g filter="url(#filter1_d_1238_11543)">
<g filter="url(#filter2_b_1238_11543)">
<path fill-rule="evenodd" clip-rule="evenodd" d="M121.472 82.51L121.094 82.1449C119.438 80.5542 118.215 79.478 117.064 78.6609C104.171 69.5069 86.387 71.931 76.4147 84.2017C75.2104 85.6836 74.0047 87.6584 72.1094 90.9731L69.0002 90C61.827 88.5654 58.2405 87.8481 54.9487 87.918C46.1393 88.105 37.8575 92.1555 32.3014 98.9944C30.4492 101.274 28.9475 104.124 26.3223 109.358C26.6461 109.931 26.9949 110.472 27.3702 110.989L27.5428 111.223C29.0816 113.291 30.9254 115.114 33.0117 116.63C36.0597 118.844 39.961 120.135 46.1884 120.81C52.5001 121.494 60.6507 121.5 72.0002 121.5C83.3496 121.5 91.5002 121.494 97.8119 120.81C104.039 120.135 107.941 118.844 110.989 116.63C113.154 115.057 115.057 113.153 116.63 110.989C120 106.35 121.14 99.9157 121.411 86.8169C121.44 85.4434 121.459 84.0098 121.472 82.51ZM66.0002 66C59.3728 66 54.0002 60.6274 54.0002 54C54.0002 47.3726 59.3728 42 66.0002 42C72.6276 42 78.0002 47.3726 78.0002 54C78.0002 60.6274 72.6276 66 66.0002 66Z" fill="url(#paint1_linear_1238_11543)"/>
</g>
</g>
<defs>
<filter id="filter0_b_1238_11543" x="-11.5" y="-11.5" width="167" height="167" filterUnits="userSpaceOnUse" color-interpolation-filters="sRGB">
<feFlood flood-opacity="0" result="BackgroundImageFix"/>
<feGaussianBlur in="BackgroundImage" stdDeviation="12"/>
<feComposite in2="SourceAlpha" operator="in" result="effect1_backgroundBlur_1238_11543"/>
<feBlend mode="normal" in="SourceGraphic" in2="effect1_backgroundBlur_1238_11543" result="shape"/>
</filter>
<filter id="filter1_d_1238_11543" x="23.3223" y="39" width="111.15" height="95.5" filterUnits="userSpaceOnUse" color-interpolation-filters="sRGB">
<feFlood flood-opacity="0" result="BackgroundImageFix"/>
<feColorMatrix in="SourceAlpha" type="matrix" values="0 0 0 0 0 0 0 0 0 0 0 0 0 0 0 0 0 0 127 0" result="hardAlpha"/>
<feOffset dx="5" dy="5"/>
<feGaussianBlur stdDeviation="4"/>
<feColorMatrix type="matrix" values="0 0 0 0 0.176471 0 0 0 0 0.556863 0 0 0 0 0.678431 0 0 0 0.5 0"/>
<feBlend mode="normal" in2="BackgroundImageFix" result="effect1_dropShadow_1238_11543"/>
<feBlend mode="normal" in="SourceGraphic" in2="effect1_dropShadow_1238_11543" result="shape"/>
</filter>
<filter id="filter2_b_1238_11543" x="2.32227" y="18" width="143.15" height="127.5" filterUnits="userSpaceOnUse" color-interpolation-filters="sRGB">
<feFlood flood-opacity="0" result="BackgroundImageFix"/>
<feGaussianBlur in="BackgroundImage" stdDeviation="12"/>
<feComposite in2="SourceAlpha" operator="in" result="effect1_backgroundBlur_1238_11543"/>
<feBlend mode="normal" in="SourceGraphic" in2="effect1_backgroundBlur_1238_11543" result="shape"/>
</filter>
<linearGradient id="paint0_linear_1238_11543" x1="13.5" y1="13.5" x2="130.559" y2="130.441" gradientUnits="userSpaceOnUse">
<stop stop-color="white" stop-opacity="0.25"/>
<stop offset="1" stop-color="white" stop-opacity="0"/>
</linearGradient>
<linearGradient id="paint1_linear_1238_11543" x1="74.6984" y1="138.437" x2="183.057" y2="11.3089" gradientUnits="userSpaceOnUse">
<stop stop-color="white"/>
<stop offset="1" stop-color="white" stop-opacity="0.2"/>
</linearGradient>
</defs>
</svg>
