<svg width="40" height="40" viewBox="0 0 40 40" fill="none" xmlns="http://www.w3.org/2000/svg">
<path d="M32.7167 6.0832C32.5231 5.92657 32.2968 5.81532 32.0545 5.75763C31.8123 5.69995 31.5601 5.69729 31.3167 5.74986C29.5358 6.1231 27.6973 6.12786 25.9144 5.76384C24.1316 5.39981 22.4421 4.67472 20.95 3.6332C20.671 3.43965 20.3396 3.33594 20 3.33594C19.6605 3.33594 19.329 3.43965 19.05 3.6332C17.558 4.67472 15.8685 5.39981 14.0856 5.76384C12.3028 6.12786 10.4643 6.1231 8.68336 5.74986C8.43993 5.69729 8.18781 5.69995 7.94553 5.75763C7.70326 5.81532 7.47699 5.92657 7.28336 6.0832C7.09 6.24006 6.93423 6.43826 6.82752 6.66322C6.7208 6.88819 6.66585 7.1342 6.6667 7.3832V19.7999C6.66521 22.1894 7.23465 24.5448 8.32759 26.6698C9.42052 28.7948 11.0053 30.6279 12.95 32.0165L19.0334 36.3499C19.3156 36.5508 19.6535 36.6588 20 36.6588C20.3465 36.6588 20.6844 36.5508 20.9667 36.3499L27.05 32.0165C28.9947 30.6279 30.5795 28.7948 31.6725 26.6698C32.7654 24.5448 33.3348 22.1894 33.3334 19.7999V7.3832C33.3342 7.1342 33.2793 6.88819 33.1725 6.66322C33.0658 6.43826 32.9101 6.24006 32.7167 6.0832ZM30 19.7999C30.0013 21.6578 29.5588 23.4892 28.7094 25.1416C27.8601 26.794 26.6283 28.2196 25.1167 29.2999L20 32.9499L14.8834 29.2999C13.3718 28.2196 12.14 26.794 11.2906 25.1416C10.4412 23.4892 9.99875 21.6578 10 19.7999V9.29986C13.4941 9.59892 16.9934 8.78823 20 6.9832C23.0066 8.78823 26.506 9.59892 30 9.29986V19.7999ZM22.5667 15.9832L18.0834 20.4832L16.6 18.9832C16.2862 18.6694 15.8605 18.493 15.4167 18.493C14.9729 18.493 14.5472 18.6694 14.2334 18.9832C13.9195 19.297 13.7432 19.7227 13.7432 20.1665C13.7432 20.6104 13.9195 21.036 14.2334 21.3499L16.9 24.0165C17.055 24.1727 17.2393 24.2967 17.4424 24.3813C17.6455 24.466 17.8633 24.5095 18.0834 24.5095C18.3034 24.5095 18.5212 24.466 18.7243 24.3813C18.9274 24.2967 19.1118 24.1727 19.2667 24.0165L25 18.3332C25.3139 18.0194 25.4902 17.5937 25.4902 17.1499C25.4902 16.706 25.3139 16.2804 25 15.9665C24.6862 15.6527 24.2605 15.4764 23.8167 15.4764C23.3729 15.4764 22.9472 15.6527 22.6334 15.9665L22.5667 15.9832Z" fill="#0D99FF"/>
</svg>
