<svg width="271" height="201" viewBox="0 0 271 201" fill="none" xmlns="http://www.w3.org/2000/svg">
<g filter="url(#filter0_b_1238_11504)">
<g filter="url(#filter1_b_1238_11504)">
<path fill-rule="evenodd" clip-rule="evenodd" d="M213.283 10.7813H213.717C222.517 10.7812 229.415 10.7812 234.888 11.3741C240.473 11.9792 244.998 13.2361 248.861 16.0432C251.2 17.7426 253.257 19.7996 254.957 22.1386C257.764 26.0023 259.021 30.5274 259.626 36.1123C260.219 41.5849 260.219 48.4829 260.219 57.2827V57.5286C260.219 62.0056 260.219 65.9727 260.146 69.4817C259.932 79.8033 259.125 87.1243 254.957 92.8614C253.257 95.2004 251.2 97.2574 248.861 98.9568C244.998 101.764 240.473 103.021 234.888 103.626C229.415 104.219 222.517 104.219 213.717 104.219H213.283C204.483 104.219 197.585 104.219 192.112 103.626C186.527 103.021 182.002 101.764 178.139 98.9568C175.884 97.319 173.892 95.3492 172.23 93.1149C172.167 93.0308 172.105 92.9462 172.043 92.8614C169.236 88.9977 167.979 84.4726 167.374 78.8877C166.781 73.415 166.781 66.5169 166.781 57.7168V57.2832C166.781 48.4831 166.781 41.585 167.374 36.1123C167.979 30.5274 169.236 26.0023 172.043 22.1386C173.743 19.7996 175.8 17.7426 178.139 16.0432C182.002 13.2361 186.527 11.9792 192.112 11.3741C197.585 10.7812 204.483 10.7812 213.283 10.7813Z" fill="#009987" fill-opacity="0.35"/>
<path d="M213.717 10.2813H213.283L213.254 10.2813C204.478 10.2812 197.558 10.2812 192.058 10.877C186.431 11.4867 181.808 12.7594 177.845 15.6387C175.463 17.369 173.369 19.4633 171.639 21.8447C168.759 25.8078 167.487 30.431 166.877 36.0584C166.281 41.558 166.281 48.4781 166.281 57.2535L166.281 57.2832V57.7168L166.281 57.7465C166.281 66.5219 166.281 73.442 166.877 78.9416C167.487 84.569 168.759 89.1922 171.639 93.1553C171.701 93.2417 171.765 93.3277 171.829 93.4134C173.521 95.6883 175.55 97.6938 177.845 99.3613C181.808 102.241 186.431 103.513 192.058 104.123C197.558 104.719 204.478 104.719 213.254 104.719H213.283H213.717H213.747C222.522 104.719 229.442 104.719 234.942 104.123C240.569 103.513 245.192 102.241 249.155 99.3613C251.537 97.6311 253.631 95.5367 255.361 93.1553C259.632 87.2771 260.433 79.8048 260.646 69.492C260.719 65.9776 260.719 62.0057 260.719 57.5314V57.5286V57.2827V57.2534C260.719 48.4781 260.719 41.558 260.123 36.0584C259.513 30.431 258.241 25.8078 255.361 21.8447C253.631 19.4633 251.537 17.369 249.155 15.6387C245.192 12.7594 240.569 11.4867 234.942 10.877C229.442 10.2812 222.522 10.2812 213.746 10.2813L213.717 10.2813Z" stroke="url(#paint0_linear_1238_11504)" stroke-linecap="round"/>
</g>
<g filter="url(#filter2_d_1238_11504)">
<path fill-rule="evenodd" clip-rule="evenodd" d="M182.363 21.858C184.798 20.0895 187.913 19.0586 192.886 18.5198C197.927 17.9737 204.436 17.9688 213.5 17.9688C222.564 17.9688 229.073 17.9737 234.114 18.5198C239.087 19.0586 242.202 20.0895 244.637 21.858C246.366 23.1141 247.886 24.6345 249.142 26.3633C250.91 28.7975 251.941 31.9131 252.48 36.8865C253.026 41.927 253.031 48.4362 253.031 57.5C253.031 58.7218 253.031 59.8985 253.03 61.033C252.523 60.6029 252.042 60.2249 251.569 59.8892C239.728 51.4822 223.395 53.7085 214.237 64.9779C213.477 65.913 212.749 67.0083 211.924 68.3741L211.325 68.2543C206.059 67.2004 202.834 66.555 199.806 66.6193C191.716 66.7911 184.11 70.5111 179.007 76.7919C177.711 78.3869 176.617 80.2541 175.298 82.7907C174.968 81.4334 174.713 79.8923 174.52 78.1135C173.974 73.073 173.969 66.5638 173.969 57.5C173.969 48.4362 173.974 41.927 174.52 36.8865C175.059 31.9131 176.089 28.7975 177.858 26.3633C179.114 24.6345 180.634 23.1141 182.363 21.858ZM195.531 43.125C195.531 35.8475 201.431 29.9479 208.708 29.9479C215.986 29.9479 221.885 35.8475 221.885 43.125C221.885 50.4025 215.986 56.3021 208.708 56.3021C201.431 56.3021 195.531 50.4025 195.531 43.125Z" fill="url(#paint1_linear_1238_11504)"/>
</g>
</g>
<g filter="url(#filter3_b_1238_11504)">
<path fill-rule="evenodd" clip-rule="evenodd" d="M129.219 25.2424C136.072 24.4999 144.709 24.5 155.729 24.5H156.271C167.291 24.5 175.928 24.4999 182.781 25.2424C189.774 26 195.441 27.5739 200.279 31.0889C203.207 33.2169 205.783 35.7925 207.911 38.7214C211.426 43.5594 213 49.2256 213.758 56.2189C214.5 63.0716 214.5 71.7094 214.5 82.7284V83.0358C214.5 88.6417 214.5 93.6093 214.409 98.0031C214.142 110.928 213.13 120.095 207.911 127.279C205.783 130.207 203.207 132.783 200.279 134.911C195.441 138.426 189.774 140 182.781 140.758C175.928 141.5 167.291 141.5 156.272 141.5H155.728C144.709 141.5 136.072 141.5 129.219 140.758C122.226 140 116.559 138.426 111.721 134.911C108.899 132.86 106.404 130.394 104.322 127.596C104.244 127.491 104.166 127.385 104.089 127.279C100.574 122.441 99 116.774 98.2424 109.781C97.4999 102.928 97.5 94.2907 97.5 83.2715V82.7285C97.5 71.7093 97.4999 63.0717 98.2424 56.2189C99 49.2256 100.574 43.5594 104.089 38.7214C106.217 35.7925 108.793 33.2169 111.721 31.0889C116.559 27.5739 122.226 26 129.219 25.2424Z" fill="#009987" fill-opacity="0.35"/>
<path d="M103.684 127.572L104.089 127.279L103.684 127.572C103.763 127.68 103.842 127.788 103.921 127.895C106.033 130.733 108.564 133.235 111.428 135.316C116.365 138.903 122.129 140.492 129.165 141.255C136.045 142 144.705 142 155.699 142H155.728H156.272H156.301C167.296 142 175.955 142 182.835 141.255C189.871 140.492 195.635 138.903 200.572 135.316C203.544 133.157 206.157 130.544 208.316 127.572C213.637 120.248 214.642 110.929 214.909 98.0135C215 93.6142 215 88.6419 215 83.0387V83.0358V82.7284V82.6993C215 71.7048 215 63.0447 214.255 56.165C213.492 49.1292 211.903 43.3649 208.316 38.4275C206.157 35.4562 203.544 32.8432 200.572 30.6844C195.635 27.0972 189.871 25.5076 182.835 24.7453C175.955 23.9999 167.296 24 156.301 24L156.271 24H155.729L155.699 24C144.704 24 136.045 23.9999 129.165 24.7453C122.129 25.5076 116.365 27.0972 111.428 30.6844C108.456 32.8432 105.843 35.4562 103.684 38.4275C100.097 43.3649 98.5076 49.1292 97.7453 56.165C96.9999 63.0447 97 71.7043 97 82.6988L97 82.7285V83.2715L97 83.3012C97 94.2957 96.9999 102.955 97.7453 109.835C98.5076 116.871 100.097 122.635 103.684 127.572Z" stroke="url(#paint2_linear_1238_11504)" stroke-linecap="round"/>
</g>
<g filter="url(#filter4_d_1238_11504)">
<g filter="url(#filter5_b_1238_11504)">
<path fill-rule="evenodd" clip-rule="evenodd" d="M205.472 93.51L205.094 93.1449C203.438 91.5542 202.215 90.478 201.064 89.6609C188.171 80.5069 170.387 82.931 160.415 95.2017C159.21 96.6836 158.005 98.6584 156.109 101.973L153 101C145.827 99.5654 142.24 98.8481 138.949 98.918C130.139 99.105 121.858 103.155 116.301 109.994C114.449 112.274 112.948 115.124 110.322 120.358C110.646 120.931 110.995 121.472 111.37 121.989L111.543 122.223C113.082 124.291 114.925 126.114 117.012 127.63C120.06 129.844 123.961 131.135 130.188 131.81C136.5 132.494 144.651 132.5 156 132.5C167.35 132.5 175.5 132.494 181.812 131.81C188.039 131.135 191.941 129.844 194.989 127.63C197.154 126.057 199.057 124.153 200.63 121.989C204 117.35 205.14 110.916 205.411 97.8169C205.44 96.4434 205.459 95.0098 205.472 93.51ZM150 77C143.373 77 138 71.6274 138 65C138 58.3726 143.373 53 150 53C156.628 53 162 58.3726 162 65C162 71.6274 156.628 77 150 77Z" fill="url(#paint3_linear_1238_11504)"/>
</g>
</g>
<g filter="url(#filter6_b_1238_11504)">
<path fill-rule="evenodd" clip-rule="evenodd" d="M45.2189 71.2424C52.0717 70.4999 60.7093 70.5 71.7285 70.5H72.2715C83.2907 70.5 91.9283 70.4999 98.7811 71.2424C105.774 72 111.441 73.5739 116.279 77.0889C119.207 79.2169 121.783 81.7925 123.911 84.7214C127.426 89.5594 129 95.2256 129.758 102.219C130.5 109.072 130.5 117.709 130.5 128.728V129.036C130.5 134.642 130.5 139.609 130.409 144.003C130.142 156.928 129.13 166.095 123.911 173.279C121.783 176.207 119.207 178.783 116.279 180.911C111.441 184.426 105.774 186 98.7811 186.758C91.9284 187.5 83.291 187.5 72.2721 187.5H71.7284C60.7094 187.5 52.0715 187.5 45.2189 186.758C38.2256 186 32.5594 184.426 27.7214 180.911C24.8988 178.86 22.4043 176.394 20.3224 173.596C20.2439 173.491 20.1661 173.385 20.0889 173.279C16.5739 168.441 15 162.774 14.2424 155.781C13.4999 148.928 13.5 140.291 13.5 129.272V128.729C13.5 117.709 13.4999 109.072 14.2424 102.219C15 95.2256 16.5739 89.5594 20.0889 84.7214C22.2169 81.7925 24.7925 79.2169 27.7214 77.0889C32.5594 73.5739 38.2256 72 45.2189 71.2424Z" fill="#009987" fill-opacity="0.35"/>
<path d="M19.6844 173.572L20.0889 173.279L19.6844 173.572C19.7627 173.68 19.8417 173.788 19.9212 173.895C22.0333 176.733 24.564 179.235 27.4275 181.316C32.3649 184.903 38.1292 186.492 45.165 187.255C52.0447 188 60.7048 188 71.6993 188H71.7284H72.2721H72.3012C83.2957 188 91.9553 188 98.835 187.255C105.871 186.492 111.635 184.903 116.572 181.316C119.544 179.157 122.157 176.544 124.316 173.572C129.637 166.248 130.642 156.929 130.909 144.013C131 139.614 131 134.641 131 129.037V129.036V128.728V128.699C131 117.705 131 109.045 130.255 102.165C129.492 95.1292 127.903 89.3649 124.316 84.4275C122.157 81.4562 119.544 78.8432 116.572 76.6844C111.635 73.0972 105.871 71.5076 98.835 70.7453C91.9553 69.9999 83.2957 70 72.3012 70L72.2715 70H71.7285L71.6988 70C60.7043 70 52.0447 69.9999 45.165 70.7453C38.1292 71.5076 32.3649 73.0972 27.4275 76.6844C24.4562 78.8432 21.8432 81.4562 19.6844 84.4275C16.0972 89.3649 14.5076 95.1292 13.7453 102.165C12.9999 109.045 13 117.704 13 128.699L13 128.729V129.271L13 129.301C13 140.296 12.9999 148.955 13.7453 155.835C14.5076 162.871 16.0972 168.635 19.6844 173.572Z" stroke="url(#paint4_linear_1238_11504)" stroke-linecap="round"/>
</g>
<g filter="url(#filter7_d_1238_11504)">
<rect x="37" y="98" width="69" height="68" rx="20" fill="url(#paint5_linear_1238_11504)" shape-rendering="crispEdges"/>
</g>
<rect x="70" y="92" width="34" height="29" rx="14.5" fill="url(#paint6_linear_1238_11504)"/>
<rect x="90" y="118" width="8" height="3" fill="#009987" fill-opacity="0.66"/>
<rect x="82" y="121" width="8" height="3" fill="#009987" fill-opacity="0.66"/>
<rect x="90" y="123" width="8" height="3" fill="#009987" fill-opacity="0.66"/>
<rect x="82" y="126" width="8" height="3" fill="#009987" fill-opacity="0.66"/>
<rect x="90" y="128" width="8" height="3" fill="#009987" fill-opacity="0.66"/>
<rect x="82" y="131" width="8" height="3" fill="#009987" fill-opacity="0.66"/>
<rect x="90" y="133" width="8" height="3" fill="#009987" fill-opacity="0.66"/>
<rect x="88" y="149" width="4.5" height="3" rx="1.5" fill="#009987" fill-opacity="0.66"/>
<rect x="82" y="136" width="8" height="3" fill="#009987" fill-opacity="0.66"/>
<rect x="90" y="138" width="8" height="3" fill="#009987" fill-opacity="0.66"/>
<path d="M84.5 145C84.5 143.619 85.6193 142.5 87 142.5H94C95.3807 142.5 96.5 143.619 96.5 145V155.5H84.5V145Z" stroke="#009987" stroke-opacity="0.66" stroke-width="3"/>
<defs>
<filter id="filter0_b_1238_11504" x="141.781" y="-14.2188" width="143.438" height="143.438" filterUnits="userSpaceOnUse" color-interpolation-filters="sRGB">
<feFlood flood-opacity="0" result="BackgroundImageFix"/>
<feGaussianBlur in="BackgroundImage" stdDeviation="12"/>
<feComposite in2="SourceAlpha" operator="in" result="effect1_backgroundBlur_1238_11504"/>
<feBlend mode="normal" in="SourceGraphic" in2="effect1_backgroundBlur_1238_11504" result="shape"/>
</filter>
<filter id="filter1_b_1238_11504" x="141.781" y="-14.2188" width="143.438" height="143.438" filterUnits="userSpaceOnUse" color-interpolation-filters="sRGB">
<feFlood flood-opacity="0" result="BackgroundImageFix"/>
<feGaussianBlur in="BackgroundImage" stdDeviation="12"/>
<feComposite in2="SourceAlpha" operator="in" result="effect1_backgroundBlur_1238_11504"/>
<feBlend mode="normal" in="SourceGraphic" in2="effect1_backgroundBlur_1238_11504" result="shape"/>
</filter>
<filter id="filter2_d_1238_11504" x="170.969" y="14.9688" width="95.0625" height="80.8203" filterUnits="userSpaceOnUse" color-interpolation-filters="sRGB">
<feFlood flood-opacity="0" result="BackgroundImageFix"/>
<feColorMatrix in="SourceAlpha" type="matrix" values="0 0 0 0 0 0 0 0 0 0 0 0 0 0 0 0 0 0 127 0" result="hardAlpha"/>
<feOffset dx="5" dy="5"/>
<feGaussianBlur stdDeviation="4"/>
<feColorMatrix type="matrix" values="0 0 0 0 0.176471 0 0 0 0 0.556863 0 0 0 0 0.678431 0 0 0 0.5 0"/>
<feBlend mode="normal" in2="BackgroundImageFix" result="effect1_dropShadow_1238_11504"/>
<feBlend mode="normal" in="SourceGraphic" in2="effect1_dropShadow_1238_11504" result="shape"/>
</filter>
<filter id="filter3_b_1238_11504" x="72.5" y="-0.5" width="167" height="167" filterUnits="userSpaceOnUse" color-interpolation-filters="sRGB">
<feFlood flood-opacity="0" result="BackgroundImageFix"/>
<feGaussianBlur in="BackgroundImage" stdDeviation="12"/>
<feComposite in2="SourceAlpha" operator="in" result="effect1_backgroundBlur_1238_11504"/>
<feBlend mode="normal" in="SourceGraphic" in2="effect1_backgroundBlur_1238_11504" result="shape"/>
</filter>
<filter id="filter4_d_1238_11504" x="107.322" y="50" width="111.15" height="95.5" filterUnits="userSpaceOnUse" color-interpolation-filters="sRGB">
<feFlood flood-opacity="0" result="BackgroundImageFix"/>
<feColorMatrix in="SourceAlpha" type="matrix" values="0 0 0 0 0 0 0 0 0 0 0 0 0 0 0 0 0 0 127 0" result="hardAlpha"/>
<feOffset dx="5" dy="5"/>
<feGaussianBlur stdDeviation="4"/>
<feColorMatrix type="matrix" values="0 0 0 0 0.176471 0 0 0 0 0.556863 0 0 0 0 0.678431 0 0 0 0.5 0"/>
<feBlend mode="normal" in2="BackgroundImageFix" result="effect1_dropShadow_1238_11504"/>
<feBlend mode="normal" in="SourceGraphic" in2="effect1_dropShadow_1238_11504" result="shape"/>
</filter>
<filter id="filter5_b_1238_11504" x="86.3223" y="29" width="143.15" height="127.5" filterUnits="userSpaceOnUse" color-interpolation-filters="sRGB">
<feFlood flood-opacity="0" result="BackgroundImageFix"/>
<feGaussianBlur in="BackgroundImage" stdDeviation="12"/>
<feComposite in2="SourceAlpha" operator="in" result="effect1_backgroundBlur_1238_11504"/>
<feBlend mode="normal" in="SourceGraphic" in2="effect1_backgroundBlur_1238_11504" result="shape"/>
</filter>
<filter id="filter6_b_1238_11504" x="-11.5" y="45.5" width="167" height="167" filterUnits="userSpaceOnUse" color-interpolation-filters="sRGB">
<feFlood flood-opacity="0" result="BackgroundImageFix"/>
<feGaussianBlur in="BackgroundImage" stdDeviation="12"/>
<feComposite in2="SourceAlpha" operator="in" result="effect1_backgroundBlur_1238_11504"/>
<feBlend mode="normal" in="SourceGraphic" in2="effect1_backgroundBlur_1238_11504" result="shape"/>
</filter>
<filter id="filter7_d_1238_11504" x="34" y="95" width="85" height="84" filterUnits="userSpaceOnUse" color-interpolation-filters="sRGB">
<feFlood flood-opacity="0" result="BackgroundImageFix"/>
<feColorMatrix in="SourceAlpha" type="matrix" values="0 0 0 0 0 0 0 0 0 0 0 0 0 0 0 0 0 0 127 0" result="hardAlpha"/>
<feOffset dx="5" dy="5"/>
<feGaussianBlur stdDeviation="4"/>
<feComposite in2="hardAlpha" operator="out"/>
<feColorMatrix type="matrix" values="0 0 0 0 0.176471 0 0 0 0 0.556863 0 0 0 0 0.678431 0 0 0 0.5 0"/>
<feBlend mode="normal" in2="BackgroundImageFix" result="effect1_dropShadow_1238_11504"/>
<feBlend mode="normal" in="SourceGraphic" in2="effect1_dropShadow_1238_11504" result="shape"/>
</filter>
<linearGradient id="paint0_linear_1238_11504" x1="166.781" y1="10.7812" x2="260.266" y2="104.171" gradientUnits="userSpaceOnUse">
<stop stop-color="white" stop-opacity="0.25"/>
<stop offset="1" stop-color="white" stop-opacity="0"/>
</linearGradient>
<linearGradient id="paint1_linear_1238_11504" x1="214.166" y1="96.6006" x2="302.239" y2="-8.69939" gradientUnits="userSpaceOnUse">
<stop stop-color="white"/>
<stop offset="1" stop-color="white" stop-opacity="0.2"/>
</linearGradient>
<linearGradient id="paint2_linear_1238_11504" x1="97.5" y1="24.5" x2="214.559" y2="141.441" gradientUnits="userSpaceOnUse">
<stop stop-color="white" stop-opacity="0.25"/>
<stop offset="1" stop-color="white" stop-opacity="0"/>
</linearGradient>
<linearGradient id="paint3_linear_1238_11504" x1="158.698" y1="149.437" x2="267.057" y2="22.3089" gradientUnits="userSpaceOnUse">
<stop stop-color="white"/>
<stop offset="1" stop-color="white" stop-opacity="0.2"/>
</linearGradient>
<linearGradient id="paint4_linear_1238_11504" x1="13.5" y1="70.5" x2="130.559" y2="187.441" gradientUnits="userSpaceOnUse">
<stop stop-color="white" stop-opacity="0.25"/>
<stop offset="1" stop-color="white" stop-opacity="0"/>
</linearGradient>
<linearGradient id="paint5_linear_1238_11504" x1="71.5" y1="98" x2="71.5" y2="166" gradientUnits="userSpaceOnUse">
<stop stop-color="white"/>
<stop offset="1" stop-color="white" stop-opacity="0.2"/>
</linearGradient>
<linearGradient id="paint6_linear_1238_11504" x1="87" y1="92" x2="87" y2="121" gradientUnits="userSpaceOnUse">
<stop stop-color="white"/>
<stop offset="1" stop-color="white" stop-opacity="0.2"/>
</linearGradient>
</defs>
</svg>
