<svg width="44" height="44" viewBox="0 0 44 44" fill="none" xmlns="http://www.w3.org/2000/svg">
<rect width="44" height="44" rx="22" fill="#009987" fill-opacity="0.12"/>
<path d="M33.75 31.5455H12.25V10.2727C12.25 10.1227 12.1375 10 12 10H10.25C10.1125 10 10 10.1227 10 10.2727V33.7273C10 33.8773 10.1125 34 10.25 34H33.75C33.8875 34 34 33.8773 34 33.7273V31.8182C34 31.6682 33.8875 31.5455 33.75 31.5455ZM15.5562 26.2852C15.6531 26.3909 15.8094 26.3909 15.9094 26.2852L20.2312 21.5943L24.2188 25.9716C24.3156 26.0773 24.475 26.0773 24.5719 25.9716L33.1781 16.5864C33.275 16.4807 33.275 16.3068 33.1781 16.2011L31.9406 14.8511C31.8936 14.8004 31.8302 14.7719 31.7641 14.7719C31.6979 14.7719 31.6345 14.8004 31.5875 14.8511L24.4 22.6886L20.4187 18.3182C20.3718 18.2674 20.3083 18.239 20.2422 18.239C20.1761 18.239 20.1126 18.2674 20.0656 18.3182L14.3219 24.5466C14.2753 24.5978 14.2492 24.6671 14.2492 24.7392C14.2492 24.8113 14.2753 24.8806 14.3219 24.9318L15.5562 26.2852Z" fill="#009987"/>
</svg>
