<svg width="86" height="86" viewBox="0 0 86 86" fill="none" xmlns="http://www.w3.org/2000/svg">
<circle cx="43" cy="43" r="43" fill="#AADBFF"/>
<g filter="url(#filter0_b_4036_30651)">
<path fill-rule="evenodd" clip-rule="evenodd" d="M39.1356 11.7016C42.1845 12.1101 45.9277 13.0305 50.7031 14.2048L50.9384 14.2626C55.7138 15.4368 59.4571 16.3572 62.3477 17.4092C65.2976 18.4827 67.5855 19.7686 69.3076 21.8074C70.3501 23.0417 71.1919 24.4324 71.8019 25.9284C72.8097 28.3995 72.888 31.0228 72.4711 34.1342C72.0627 37.1831 71.1422 40.9264 69.968 45.7017L69.9353 45.8349C69.3379 48.2644 68.8086 50.4171 68.301 52.3116C66.8078 57.8842 65.3928 61.7492 62.3654 64.3062C61.1311 65.3487 59.7404 66.1905 58.2444 66.8006C55.7732 67.8083 53.1499 67.8866 50.0386 67.4698C46.9897 67.0613 43.2465 66.1409 38.4713 64.9667L38.2357 64.9088C33.4604 63.7346 29.717 62.8142 26.8264 61.7622C23.8765 60.6887 21.5886 59.4028 19.8666 57.364C18.8619 56.1745 18.0436 54.8398 17.4395 53.4055C17.4168 53.3515 17.3943 53.2973 17.3722 53.243C16.3645 50.7719 16.2862 48.1486 16.703 45.0372C17.1115 41.9883 18.0319 38.245 19.2061 33.4697L19.264 33.2344C20.4382 28.459 21.3586 24.7157 22.4105 21.825C23.4841 18.8751 24.77 16.5873 26.8088 14.8652C28.043 13.8227 29.4337 12.9809 30.9297 12.3708C33.4009 11.3631 36.0242 11.2848 39.1356 11.7016Z" fill="white" fill-opacity="0.15"/>
<path d="M16.9787 53.5996L17.4395 53.4055L16.9787 53.5996C17.6025 55.0805 18.4473 56.4585 19.4846 57.6867C21.286 59.8194 23.6653 61.1439 26.6554 62.2321C29.5715 63.2933 33.3363 64.219 38.0879 65.3873L38.1163 65.3943L38.3519 65.4523L38.3803 65.4592C43.1318 66.6276 46.8965 67.5533 49.9722 67.9653C53.126 68.3879 55.8482 68.3177 58.4332 67.2636C59.9778 66.6337 61.4137 65.7646 62.688 64.6882C65.8487 62.0186 67.2931 58.005 68.7839 52.441C69.2929 50.5414 69.8233 48.3843 70.42 45.9577L70.4208 45.9543L70.4536 45.8211L70.4605 45.7927C71.6289 41.0411 72.5546 37.2763 72.9667 34.2006C73.3892 31.0468 73.3191 28.3246 72.2649 25.7396C71.635 24.195 70.7659 22.7591 69.6895 21.4848C67.8882 19.3521 65.5088 18.0275 62.5187 16.9393C59.6027 15.8781 55.838 14.9524 51.0864 13.7841L51.0578 13.7771L50.8225 13.7192L50.7939 13.7122C46.0423 12.5438 42.2777 11.6181 39.202 11.2061C36.0482 10.7835 33.3259 10.8537 30.7409 11.9079C29.1963 12.5378 27.7605 13.4069 26.4861 14.4832C24.3534 16.2846 23.0289 18.6639 21.9407 21.654C20.8795 24.5701 19.9538 28.3348 18.7855 33.0864L18.7784 33.115L18.7206 33.3503L18.7136 33.3789C17.5452 38.1305 16.6195 41.8951 16.2074 44.9708C15.7849 48.1246 15.8551 50.8469 16.9092 53.4318C16.9321 53.4879 16.9552 53.5438 16.9787 53.5996Z" stroke="url(#paint0_linear_4036_30651)" stroke-linecap="round"/>
</g>
<g filter="url(#filter1_b_4036_30651)">
<path fill-rule="evenodd" clip-rule="evenodd" d="M27.5187 18.9602C30.5769 18.6289 34.4317 18.6289 39.3493 18.6289H39.5916C44.5092 18.6289 48.364 18.6289 51.4222 18.9602C54.5431 19.2983 57.0719 20.0007 59.2309 21.5694C60.538 22.519 61.6875 23.6685 62.6371 24.9756C64.2058 27.1346 64.9082 29.6634 65.2463 32.7843C65.5776 35.8425 65.5776 39.6974 65.5776 44.6148V44.7521C65.5776 47.2538 65.5776 49.4707 65.537 51.4316C65.4176 57.1995 64.9664 61.2906 62.6371 64.4966C61.6875 65.8036 60.538 66.9531 59.2309 67.9028C57.0719 69.4714 54.5431 70.1738 51.4222 70.5119C48.364 70.8433 44.5094 70.8433 39.5919 70.8432H39.3492C34.4317 70.8433 30.5768 70.8433 27.5187 70.5119C24.3977 70.1738 21.869 69.4714 19.71 67.9028C18.4503 66.9876 17.337 65.8868 16.4079 64.6382C16.3729 64.5912 16.3382 64.544 16.3038 64.4966C14.7351 62.3375 14.0327 59.8088 13.6946 56.6879C13.3632 53.6296 13.3633 49.7748 13.3633 44.8572V44.6149C13.3633 39.6973 13.3632 35.8425 13.6946 32.7843C14.0327 29.6634 14.7351 27.1346 16.3038 24.9756C17.2534 23.6685 18.4029 22.519 19.71 21.5694C21.869 20.0007 24.3977 19.2983 27.5187 18.9602Z" fill="white" fill-opacity="0.15"/>
<path d="M15.8992 64.7904L16.3038 64.4966L15.8993 64.7905C15.9348 64.8394 15.9707 64.8882 16.0068 64.9367L16.4079 64.6382L16.0068 64.9367C16.9661 66.2258 18.1155 67.3624 19.4161 68.3073C21.6746 69.9482 24.3013 70.6663 27.4648 71.009C30.5499 71.3433 34.4269 71.3433 39.32 71.3432H39.3492H39.5919H39.6211C44.5142 71.3433 48.391 71.3433 51.4761 71.009C54.6395 70.6663 57.2663 69.9482 59.5248 68.3073C60.8744 67.3268 62.0612 66.14 63.0416 64.7904C65.4734 61.4434 65.9177 57.201 66.0369 51.442C66.0776 49.4756 66.0776 47.254 66.0776 44.7549V44.7521V44.6148V44.5856C66.0776 39.6925 66.0776 35.8155 65.7434 32.7304C65.4007 29.567 64.6825 26.9402 63.0416 24.6817C62.0611 23.3322 60.8743 22.1454 59.5248 21.1649C57.2663 19.524 54.6395 18.8059 51.4761 18.4631C48.391 18.1289 44.5142 18.1289 39.6211 18.1289L39.5916 18.1289H39.3493L39.3198 18.1289C34.4267 18.1289 30.5499 18.1289 27.4648 18.4631C24.3013 18.8059 21.6746 19.524 19.4161 21.1649C18.0665 22.1454 16.8797 23.3322 15.8992 24.6817C14.2584 26.9402 13.5402 29.567 13.1975 32.7304C12.8632 35.8155 12.8633 39.6924 12.8633 44.5855L12.8633 44.6149V44.8572L12.8633 44.8867C12.8633 49.7798 12.8632 53.6566 13.1975 56.7417C13.5402 59.9052 14.2584 62.5319 15.8992 64.7904Z" stroke="url(#paint1_linear_4036_30651)" stroke-linecap="round"/>
</g>
<g filter="url(#filter2_d_4036_30651)">
<rect x="24.4922" y="31.1719" width="31" height="31" rx="9" fill="url(#paint2_linear_4036_30651)" shape-rendering="crispEdges"/>
</g>
<rect x="39.4922" y="28.1719" width="15" height="13" rx="6.5" fill="url(#paint3_linear_4036_30651)"/>
<rect x="48.4922" y="40.1719" width="3" height="1" rx="0.5" fill="#AADBFF"/>
<rect x="44.4922" y="41.1719" width="4" height="2" rx="1" fill="#AADBFF"/>
<rect x="48.4922" y="42.1719" width="3" height="2" rx="1" fill="#AADBFF"/>
<rect x="44.4922" y="44.1719" width="4" height="1" rx="0.5" fill="#AADBFF"/>
<rect x="48.4922" y="45.1719" width="3" height="1" rx="0.5" fill="#AADBFF"/>
<rect x="44.4922" y="46.1719" width="4" height="1" rx="0.5" fill="#AADBFF"/>
<rect x="48.4922" y="47.1719" width="3" height="1" rx="0.5" fill="#AADBFF"/>
<rect x="47.4922" y="54.1719" width="2" height="1" rx="0.5" fill="#AADBFF"/>
<rect x="44.4922" y="48.1719" width="4" height="2" rx="1" fill="#AADBFF"/>
<rect x="48.4922" y="49.1719" width="3" height="1" rx="0.5" fill="#AADBFF"/>
<path d="M45.9922 53.6719C45.9922 52.5673 46.8876 51.6719 47.9922 51.6719C49.0968 51.6719 49.9922 52.5673 49.9922 53.6719V56.6719H45.9922V53.6719Z" stroke="#AADBFF" stroke-width="3"/>
<defs>
<filter id="filter0_b_4036_30651" x="-8.53442" y="-13.5356" width="106.243" height="106.243" filterUnits="userSpaceOnUse" color-interpolation-filters="sRGB">
<feFlood flood-opacity="0" result="BackgroundImageFix"/>
<feGaussianBlur in="BackgroundImage" stdDeviation="12"/>
<feComposite in2="SourceAlpha" operator="in" result="effect1_backgroundBlur_4036_30651"/>
<feBlend mode="normal" in="SourceGraphic" in2="effect1_backgroundBlur_4036_30651" result="shape"/>
</filter>
<filter id="filter1_b_4036_30651" x="-11.6367" y="-6.37109" width="102.214" height="102.214" filterUnits="userSpaceOnUse" color-interpolation-filters="sRGB">
<feFlood flood-opacity="0" result="BackgroundImageFix"/>
<feGaussianBlur in="BackgroundImage" stdDeviation="12"/>
<feComposite in2="SourceAlpha" operator="in" result="effect1_backgroundBlur_4036_30651"/>
<feBlend mode="normal" in="SourceGraphic" in2="effect1_backgroundBlur_4036_30651" result="shape"/>
</filter>
<filter id="filter2_d_4036_30651" x="21.4922" y="28.1719" width="47" height="47" filterUnits="userSpaceOnUse" color-interpolation-filters="sRGB">
<feFlood flood-opacity="0" result="BackgroundImageFix"/>
<feColorMatrix in="SourceAlpha" type="matrix" values="0 0 0 0 0 0 0 0 0 0 0 0 0 0 0 0 0 0 127 0" result="hardAlpha"/>
<feOffset dx="5" dy="5"/>
<feGaussianBlur stdDeviation="4"/>
<feComposite in2="hardAlpha" operator="out"/>
<feColorMatrix type="matrix" values="0 0 0 0 0.176471 0 0 0 0 0.556863 0 0 0 0 0.678431 0 0 0 0.5 0"/>
<feBlend mode="normal" in2="BackgroundImageFix" result="effect1_dropShadow_4036_30651"/>
<feBlend mode="normal" in="SourceGraphic" in2="effect1_dropShadow_4036_30651" result="shape"/>
</filter>
<linearGradient id="paint0_linear_4036_30651" x1="25.4687" y1="8" x2="63.7374" y2="71.152" gradientUnits="userSpaceOnUse">
<stop stop-color="white" stop-opacity="0.25"/>
<stop offset="1" stop-color="white" stop-opacity="0"/>
</linearGradient>
<linearGradient id="paint1_linear_4036_30651" x1="13.3633" y1="18.6289" x2="65.6041" y2="70.8168" gradientUnits="userSpaceOnUse">
<stop stop-color="white" stop-opacity="0.25"/>
<stop offset="1" stop-color="white" stop-opacity="0"/>
</linearGradient>
<linearGradient id="paint2_linear_4036_30651" x1="39.9922" y1="31.1719" x2="39.9922" y2="62.1719" gradientUnits="userSpaceOnUse">
<stop stop-color="white"/>
<stop offset="1" stop-color="white" stop-opacity="0.2"/>
</linearGradient>
<linearGradient id="paint3_linear_4036_30651" x1="46.9922" y1="28.1719" x2="46.9922" y2="41.1719" gradientUnits="userSpaceOnUse">
<stop stop-color="white"/>
<stop offset="1" stop-color="white" stop-opacity="0.2"/>
</linearGradient>
</defs>
</svg>
