<svg width="16" height="16" viewBox="0 0 16 16" fill="none" xmlns="http://www.w3.org/2000/svg">
<path d="M2.75 8.75V2.75C2.75 2.35218 2.90804 1.97064 3.18934 1.68934C3.47064 1.40804 3.85218 1.25 4.25 1.25H13.25C13.6478 1.25 14.0294 1.40804 14.3107 1.68934C14.592 1.97064 14.75 2.35218 14.75 2.75V12.5C14.75 13.25 14.3 14.75 12.5 14.75M5.75 4.25H11.75M5.75 7.25H8.75M12.5 14.75H3.5C2.75 14.75 1.25 14.3 1.25 12.5V11H10.25V12.5C10.25 14.3 11.75 14.75 12.5 14.75Z" stroke="#747C90" stroke-linecap="round" stroke-linejoin="round"/>
</svg>
