<svg width="24" height="24" viewBox="0 0 24 24" fill="none" xmlns="http://www.w3.org/2000/svg">
<path d="M7.5 12C7.5 10.5166 7.93987 9.0666 8.76398 7.83323C9.58809 6.59986 10.7594 5.63856 12.1299 5.07091C13.5003 4.50325 15.0083 4.35472 16.4632 4.64411C17.918 4.9335 19.2544 5.64781 20.3033 6.6967C21.3522 7.7456 22.0665 9.08197 22.3559 10.5368C22.6453 11.9917 22.4968 13.4997 21.9291 14.8701C21.3614 16.2406 20.4001 17.4119 19.1668 18.236C17.9334 19.0601 16.4834 19.5 15 19.5H6.75C5.35761 19.5 4.02226 18.9469 3.03769 17.9623C2.05312 16.9777 1.5 15.6424 1.5 14.25C1.5 12.8576 2.05312 11.5223 3.03769 10.5377C4.02226 9.55313 5.35761 9 6.75 9C7.18925 8.99984 7.62687 9.05336 8.05313 9.15938" stroke="#0D99FF" stroke-width="1.5" stroke-linecap="round" stroke-linejoin="round"/>
<path d="M18 10.875L13.5 15.375L11.25 13.125" stroke="#0D99FF" stroke-width="1.5" stroke-linecap="round" stroke-linejoin="round"/>
</svg>
