<?xml version="1.0" encoding="utf-8"?>
<!-- Generator: Adobe Illustrator 25.2.1, SVG Export Plug-In . SVG Version: 6.00 Build 0)  -->
<svg version="1.1" id="Layer_1" xmlns="http://www.w3.org/2000/svg" xmlns:xlink="http://www.w3.org/1999/xlink" x="0px" y="0px"
	 viewBox="0 0 98 120" style="enable-background:new 0 0 98 120;" xml:space="preserve">
<style type="text/css">
	.st0{fill-rule:evenodd;clip-rule:evenodd;fill:#FFFFFF;}
	.st1{fill-rule:evenodd;clip-rule:evenodd;fill:#6851FF;}
</style>
<path class="st0" d="M74.5,92.5c1.7,0,3.1-1.4,3.1-3.1c0-1.7-1.4-3.1-3.1-3.1c-1.7,0-3.1,1.4-3.1,3.1C71.4,91.1,72.8,92.5,74.5,92.5
	z M0,89h6.4l6.8,16.1h0.3L20.2,89h6.4v24h-5V97.4h-0.2L15,112.9h-3.4L5.2,97.3H5V113H0V89z M36.3,113.3c-1.8,0-3.2-0.5-4.4-1.3
	c-1.2-0.9-1.7-2.2-1.7-4c0-1.3,0.3-2.4,1-3.2c0.6-0.8,1.5-1.3,2.5-1.7c1.1-0.4,2.2-0.6,3.4-0.7c1.6-0.2,2.7-0.3,3.4-0.5
	c0.7-0.2,1-0.5,1-1.1v-0.1c0-0.7-0.2-1.3-0.7-1.7c-0.5-0.4-1.1-0.6-2-0.6c-0.9,0-1.7,0.2-2.2,0.6s-0.9,0.9-1.1,1.5l-4.7-0.4
	c0.4-1.6,1.2-2.9,2.6-3.9c1.4-1,3.2-1.4,5.4-1.4c1.4,0,2.6,0.2,3.8,0.6c1.2,0.4,2.1,1.1,2.9,2c0.7,0.9,1.1,2.1,1.1,3.5V113h-4.8
	v-2.5h-0.1c-0.4,0.8-1.1,1.5-2,2.1C38.8,113.1,37.7,113.3,36.3,113.3z M37.8,109.9c1.1,0,2-0.3,2.8-0.9c0.7-0.6,1.1-1.4,1.1-2.4
	v-1.9c-0.2,0.1-0.5,0.2-0.9,0.4c-0.4,0.1-0.9,0.2-1.3,0.3c-0.5,0.1-0.9,0.1-1.3,0.2c-0.9,0.1-1.6,0.4-2.2,0.7
	c-0.5,0.4-0.8,0.9-0.8,1.6c0,0.7,0.3,1.2,0.8,1.6C36.4,109.7,37,109.9,37.8,109.9z M53.1,118.6c1.4,1,3.4,1.4,5.8,1.4
	c1.8,0,3.3-0.3,4.7-0.8s2.4-1.3,3.2-2.3c0.8-1,1.2-2.3,1.2-3.8V95h-5.1v3h-0.2c-0.2-0.5-0.6-1-1-1.5c-0.4-0.5-1-0.9-1.7-1.3
	c-0.7-0.3-1.6-0.5-2.6-0.5c-1.3,0-2.6,0.3-3.7,1c-1.1,0.7-2,1.7-2.7,3.1c-0.7,1.4-1,3.1-1,5.1c0,2,0.3,3.6,1,4.9
	c0.7,1.3,1.6,2.3,2.7,2.9c1.1,0.6,2.4,0.9,3.8,0.9c1.5,0,2.6-0.3,3.5-0.9c0.8-0.6,1.4-1.3,1.8-2h0.2v3.3c0,1.2-0.4,2-1.1,2.5
	c-0.7,0.5-1.6,0.8-2.7,0.8c-1.1,0-2-0.2-2.6-0.6c-0.6-0.4-1-0.8-1.2-1.3l-4.7,0.6C50.8,116.5,51.7,117.6,53.1,118.6z M61.9,107.6
	c-0.7,0.9-1.6,1.3-2.9,1.3c-1.3,0-2.2-0.5-2.9-1.4c-0.7-0.9-1-2.1-1-3.7c0-1.5,0.3-2.8,1-3.8c0.7-1,1.6-1.5,2.9-1.5
	c1.2,0,2.2,0.5,2.9,1.4c0.7,0.9,1,2.2,1,3.8C62.9,105.5,62.6,106.7,61.9,107.6z M72,113V95h5.1v18H72z M84.7,112.2
	c1.4,0.8,3,1.2,4.9,1.2c1.6,0,3.1-0.3,4.3-0.9c1.2-0.6,2.1-1.4,2.8-2.5c0.7-1,1.1-2.3,1.2-3.6h-4.8c-0.2,1-0.5,1.7-1.1,2.2
	c-0.6,0.5-1.3,0.8-2.2,0.8c-1.2,0-2.1-0.5-2.9-1.4c-0.7-0.9-1.1-2.3-1.1-4c0-1.7,0.4-3,1.1-4c0.7-0.9,1.7-1.4,2.9-1.4
	c0.9,0,1.7,0.3,2.3,0.8c0.6,0.5,0.9,1.3,1.1,2.2h4.8c-0.1-1.4-0.5-2.6-1.2-3.6c-0.7-1-1.6-1.8-2.9-2.4c-1.2-0.6-2.6-0.9-4.2-0.9
	c-1.9,0-3.5,0.4-4.8,1.2c-1.4,0.8-2.4,1.9-3.1,3.3c-0.7,1.4-1.1,3-1.1,4.9c0,1.8,0.4,3.4,1.1,4.8C82.3,110.3,83.3,111.4,84.7,112.2z
	"/>
<path class="st1" d="M48.9,0c3.4,4.2,7.2,8,11.2,11.6C57.4,20.3,56,29.7,56,39.3s1.5,19,4.2,27.8c-4.1,3.5-7.8,7.4-11.2,11.6
	c-3.4-4.2-7.2-8-11.2-11.6c2.7-8.8,4.2-18.1,4.2-27.8s-1.5-19-4.2-27.8C41.8,8,45.5,4.2,48.9,0z M29.9,61c-4.3-3-8.9-5.7-13.6-7.9
	c1.3-4.3,2-9,2-13.7s-0.7-9.4-2-13.7c4.8-2.3,9.3-4.9,13.6-7.9c1.6,7,2.5,14.2,2.5,21.7C32.5,46.8,31.6,54.1,29.9,61z M65.4,39.3
	c0,7.5,0.9,14.7,2.5,21.7c4.3-3,8.9-5.7,13.6-7.9c-1.3-4.3-2-9-2-13.7s0.7-9.4,2-13.7c-4.8-2.3-9.3-4.9-13.6-7.9
	C66.3,24.6,65.4,31.9,65.4,39.3z"/>
</svg>
