<svg width="11" height="11" viewBox="0 0 11 11" fill="none" xmlns="http://www.w3.org/2000/svg">
<path d="M7.80679 8.80212C8.00976 8.59915 8.24395 8.49767 8.50937 8.49767C8.77479 8.49767 9.00117 8.59915 9.18852 8.80212C9.39149 9.00508 9.49297 9.23928 9.49297 9.50469C9.49297 9.77011 9.39149 10.0043 9.18852 10.2073C9.00117 10.3946 8.77479 10.4883 8.50937 10.4883C8.24395 10.4883 8.00976 10.3946 7.80679 10.2073C7.60383 10.0043 7.50234 9.77011 7.50234 9.50469C7.50234 9.23928 7.60383 9.00508 7.80679 8.80212ZM0.5 0.511719H2.13934L2.60773 1.49533H10.0082C10.1487 1.49533 10.2658 1.54997 10.3595 1.65926C10.4532 1.75294 10.5 1.87003 10.5 2.01055C10.5 2.02616 10.4766 2.10422 10.4297 2.24474L8.64988 5.47659C8.46253 5.82007 8.17369 5.99181 7.78337 5.99181H4.05972L3.61475 6.81148L3.59133 6.88174C3.59133 6.95981 3.63037 6.99884 3.70843 6.99884H9.49297V8.00586H3.49766C3.23224 8.00586 2.99805 7.90438 2.79508 7.70141C2.60773 7.49845 2.51405 7.26426 2.51405 6.99884C2.51405 6.84271 2.55308 6.68658 2.63115 6.53045L3.3103 5.28924L1.50703 1.49533H0.5V0.511719ZM2.79508 8.80212C2.99805 8.59915 3.23224 8.49767 3.49766 8.49767C3.76308 8.49767 3.99727 8.59915 4.20023 8.80212C4.4032 9.00508 4.50468 9.23928 4.50468 9.50469C4.50468 9.77011 4.4032 10.0043 4.20023 10.2073C3.99727 10.3946 3.76308 10.4883 3.49766 10.4883C3.23224 10.4883 2.99805 10.3946 2.79508 10.2073C2.60773 10.0043 2.51405 9.77011 2.51405 9.50469C2.51405 9.23928 2.60773 9.00508 2.79508 8.80212Z" fill="#2C3857"/>
</svg>
