<svg width="606" height="472" viewBox="0 0 606 472" fill="none" xmlns="http://www.w3.org/2000/svg">
<path d="M562.8 247.7C619.3 191.2 619.3 99.7 562.8 43.2C512.8 -6.80001 434 -13.3 376.5 27.8L374.9 28.9C360.5 39.2 357.2 59.2 367.5 73.5C377.8 87.8 397.8 91.2 412.1 80.9L413.7 79.8C445.8 56.9 489.7 60.5 517.5 88.4C549 119.9 549 170.9 517.5 202.4L405.3 314.8C373.8 346.3 322.8 346.3 291.3 314.8C263.4 286.9 259.8 243 282.7 211L283.8 209.4C294.1 195 290.7 175 276.4 164.8C262.1 154.6 242 157.9 231.8 172.2L230.7 173.8C189.5 231.2 196 310 246 360C302.5 416.5 394 416.5 450.5 360L562.8 247.7ZM43.2002 224.3C-13.2998 280.8 -13.2998 372.3 43.2002 428.8C93.2002 478.8 172 485.3 229.5 444.2L231.1 443.1C245.5 432.8 248.8 412.8 238.5 398.5C228.2 384.2 208.2 380.8 193.9 391.1L192.3 392.2C160.2 415.1 116.3 411.5 88.5002 383.6C57.0002 352 57.0002 301 88.5002 269.5L200.7 157.2C232.2 125.7 283.2 125.7 314.7 157.2C342.6 185.1 346.2 229 323.3 261.1L322.2 262.7C311.9 277.1 315.3 297.1 329.6 307.3C343.9 317.5 364 314.2 374.2 299.9L375.3 298.3C416.5 240.8 410 162 360 112C303.5 55.5 212 55.5 155.5 112L43.2002 224.3Z" fill="white"/>
</svg>
