<svg width="31" height="22" viewBox="0 0 31 22" fill="none" xmlns="http://www.w3.org/2000/svg">
<path d="M30.1426 1.99609C30.7142 2.70703 31 3.52734 31 4.45703C31 5.38672 30.7142 6.20703 30.1426 6.91797C29.5709 7.57422 28.9113 7.90234 28.1638 7.90234H28.0979C27.7901 7.90234 27.5702 7.875 27.4383 7.82031L22.4255 14.0547C22.5135 14.3828 22.5574 14.6836 22.5574 14.957C22.5574 15.8867 22.2716 16.707 21.7 17.418C21.1284 18.0742 20.4688 18.4023 19.7213 18.4023C18.9738 18.4023 18.3142 18.0742 17.7426 17.418C17.1709 16.707 16.8851 15.8867 16.8851 14.957C16.8851 14.6836 16.9291 14.3828 17.017 14.0547L13.3894 9.54297C13.1255 9.65234 12.8837 9.70703 12.6638 9.70703C12.444 9.70703 12.2021 9.65234 11.9383 9.54297L5.54043 17.5C5.62837 17.8281 5.67234 18.1289 5.67234 18.4023C5.67234 19.332 5.38652 20.1523 4.81489 20.8633C4.24326 21.5742 3.58369 21.9297 2.83617 21.9297C2.08865 21.9297 1.42908 21.5742 0.857447 20.8633C0.285816 20.1523 0 19.332 0 18.4023C0 17.4727 0.285816 16.6797 0.857447 16.0234C1.42908 15.3125 2.08865 14.957 2.83617 14.957C3.18794 14.957 3.42979 14.9844 3.5617 15.0391L9.95957 7.08203C9.9156 6.91797 9.89362 6.61719 9.89362 6.17969C9.89362 5.25 10.1574 4.42969 10.6851 3.71875C11.2567 3.00781 11.9163 2.65234 12.6638 2.65234C13.4113 2.65234 14.0709 3.00781 14.6426 3.71875C15.2142 4.42969 15.5 5.25 15.5 6.17969C15.5 6.61719 15.478 6.91797 15.434 7.08203L18.9957 11.5117C19.1277 11.457 19.3695 11.4297 19.7213 11.4297C20.073 11.4297 20.3149 11.457 20.4468 11.5117L25.4596 5.35938C25.3716 5.03125 25.3277 4.73047 25.3277 4.45703C25.3277 3.52734 25.6135 2.70703 26.1851 1.99609C26.7567 1.28516 27.4163 0.929688 28.1638 0.929688C28.9113 0.929688 29.5709 1.28516 30.1426 1.99609Z" fill="#2C3857"/>
</svg>
