<svg width="204" height="217" viewBox="0 0 204 217" fill="none" xmlns="http://www.w3.org/2000/svg">
<path d="M68.5203 54.9049L51.5335 45.2014C50.8743 44.8248 50.089 45.1078 49.7796 45.8335L45.0857 56.8432C44.7763 57.5688 45.0599 58.4624 45.7191 58.839L62.7059 68.5425C63.3652 68.9191 64.1504 68.6361 64.4598 67.9104L69.1538 56.9007C69.4632 56.1751 69.1796 55.2815 68.5203 54.9049Z" stroke="#86CCFF" stroke-width="1.00285" stroke-miterlimit="10"/>
<path d="M48.9727 47.5781L68.2861 58.3156" stroke="#86CCFF" stroke-miterlimit="10"/>
<path d="M48.0273 49.7617L67.3445 60.4999" stroke="#86CCFF" stroke-miterlimit="10"/>
<path d="M60.503 63.6455C60.4257 63.8248 60.3825 64.021 60.3763 64.2224C60.37 64.4237 60.4007 64.6261 60.4665 64.8171C60.1376 64.9205 59.7806 64.8802 59.4674 64.7044C59.268 64.592 59.0946 64.4283 58.9624 64.2275C58.8302 64.0268 58.7433 63.7951 58.7092 63.5528C58.6751 63.3105 58.6949 63.0651 58.7669 62.8379C58.8388 62.6108 58.9608 62.4089 59.122 62.2499C59.2832 62.091 59.4788 61.9799 59.6915 61.9263C59.9043 61.8727 60.1278 61.8783 60.3424 61.9426C60.557 62.0069 60.7562 62.1279 60.9225 62.2951C61.0888 62.4622 61.2171 62.6704 61.2962 62.9014C61.1237 62.9585 60.9647 63.0538 60.8285 63.1816C60.6922 63.3094 60.5816 63.4671 60.503 63.6455Z" stroke="#86CCFF" stroke-miterlimit="10"/>
<path d="M62.8954 64.9942C62.7818 65.2554 62.5994 65.4703 62.3713 65.6117C62.1431 65.7531 61.8795 65.8147 61.6137 65.7887C61.3479 65.7627 61.092 65.6502 60.8782 65.4655C60.6644 65.2808 60.5023 65.0322 60.4126 64.751C60.3229 64.4699 60.3094 64.169 60.374 63.8862C60.4385 63.6035 60.5782 63.3516 60.7753 63.1626C60.9724 62.9735 61.2181 62.8557 61.4813 62.824C61.7445 62.7924 62.0134 62.8483 62.2539 62.9847C62.5764 63.1676 62.8251 63.482 62.9454 63.8589C63.0657 64.2357 63.0477 64.644 62.8954 64.9942Z" stroke="#86CCFF" stroke-miterlimit="10"/>
<path d="M184.52 106.189L170.477 98.1499C169.82 97.7737 169.037 98.0551 168.727 98.7784L164.907 107.718C164.598 108.442 164.88 109.333 165.537 109.709L179.58 117.749C180.237 118.125 181.021 117.844 181.33 117.12L185.15 108.18C185.459 107.457 185.177 106.566 184.52 106.189Z" stroke="#86CCFF" stroke-miterlimit="10"/>
<path d="M168.189 100.223L184.619 109.355" stroke="#86CCFF" stroke-miterlimit="10"/>
<path d="M167.381 102.078L183.807 111.21" stroke="#86CCFF" stroke-miterlimit="10"/>
<path d="M177.994 113.879C177.927 114.031 177.89 114.198 177.885 114.369C177.879 114.54 177.905 114.712 177.962 114.874C177.786 114.928 177.599 114.933 177.417 114.889C177.235 114.845 177.064 114.753 176.918 114.621C176.772 114.489 176.657 114.321 176.58 114.131C176.504 113.942 176.47 113.737 176.481 113.533C176.492 113.33 176.548 113.134 176.644 112.964C176.739 112.793 176.872 112.652 177.03 112.554C177.188 112.455 177.367 112.402 177.552 112.398C177.736 112.395 177.92 112.441 178.088 112.533C178.355 112.682 178.562 112.938 178.668 113.246C178.521 113.294 178.385 113.374 178.269 113.483C178.153 113.592 178.059 113.727 177.994 113.879V113.879Z" stroke="#86CCFF" stroke-miterlimit="10"/>
<path d="M180.025 115.037C179.928 115.256 179.773 115.436 179.58 115.554C179.387 115.672 179.164 115.722 178.94 115.699C178.716 115.676 178.501 115.58 178.321 115.424C178.142 115.268 178.005 115.058 177.93 114.821C177.855 114.584 177.844 114.33 177.898 114.092C177.953 113.853 178.07 113.641 178.236 113.481C178.402 113.322 178.609 113.222 178.831 113.195C179.052 113.167 179.279 113.213 179.482 113.328C179.619 113.404 179.741 113.509 179.842 113.637C179.943 113.764 180.021 113.912 180.072 114.071C180.122 114.23 180.144 114.397 180.136 114.563C180.128 114.729 180.09 114.89 180.025 115.037V115.037Z" stroke="#86CCFF" stroke-miterlimit="10"/>
<path d="M167.624 55.5066L144.875 62.2109L148.329 76.215L171.079 69.5107L167.624 55.5066Z" stroke="#86CCFF" stroke-miterlimit="10"/>
<path d="M169.643 67.2009L167.418 58.675C167.092 58.7654 166.741 58.7076 166.443 58.5142C166.145 58.3208 165.924 58.0076 165.828 57.6433L147.176 62.8342C147.271 63.1989 147.233 63.5845 147.07 63.9066C146.906 64.2287 146.632 64.461 146.306 64.5527L148.532 73.0786C148.693 73.0334 148.863 73.0244 149.03 73.0521C149.198 73.0798 149.36 73.1435 149.508 73.2398C149.655 73.336 149.786 73.4628 149.891 73.6129C149.996 73.763 150.074 73.9334 150.121 74.1144L168.769 68.9186C168.722 68.7378 168.707 68.5498 168.726 68.3655C168.744 68.1812 168.795 68.0042 168.876 67.8446C168.958 67.685 169.067 67.546 169.199 67.4356C169.33 67.3251 169.481 67.2453 169.643 67.2009Z" stroke="#86CCFF" stroke-miterlimit="10"/>
<path d="M159.556 69.1924C161.115 68.2602 161.672 66.0159 160.801 64.1796C159.93 62.3433 157.96 61.6103 156.401 62.5425C154.842 63.4748 154.284 65.7191 155.156 67.5554C156.027 69.3917 157.997 70.1246 159.556 69.1924Z" stroke="#86CCFF" stroke-miterlimit="10"/>
<path d="M158.637 67.7919L158.804 68.4306L158.555 68.4985L158.391 67.8688C157.952 67.9812 157.485 67.918 157.071 67.6904L157.119 67.3299C157.484 67.5357 157.897 67.5983 158.288 67.507L157.913 66.0505C157.324 66.0526 156.72 66.0218 156.528 65.2841C156.389 64.7533 156.611 64.1945 157.353 63.9174L157.187 63.2745L157.436 63.2067L157.612 63.8602C157.973 63.7684 158.353 63.7908 158.711 63.9249L158.663 64.2854C158.348 64.1679 158.014 64.1416 157.694 64.209L158.078 65.6844C158.679 65.6764 159.317 65.6885 159.527 66.4384C159.652 66.9537 159.409 67.521 158.637 67.7919ZM157.814 65.6598L157.451 64.2528C156.95 64.4431 156.797 64.8033 156.89 65.1544C156.994 65.593 157.373 65.6541 157.81 65.659L157.814 65.6598ZM159.157 66.5368C159.046 66.0883 158.641 66.0474 158.184 66.051L158.545 67.4407C159.097 67.2481 159.245 66.8913 159.153 66.536L159.157 66.5368Z" fill="#86CCFF"/>
<path d="M41.6732 91.2104L24.8574 89.4531L24.3696 98.9839L41.1854 100.741L41.6732 91.2104Z" stroke="#86CCFF" stroke-width="1.00404" stroke-miterlimit="10"/>
<path d="M40.1042 98.5975L40.4341 92.531C40.1979 92.5046 39.977 92.3765 39.8198 92.1748C39.6626 91.973 39.5818 91.714 39.5952 91.4544L26.0842 89.9792C26.0687 90.2382 25.9609 90.476 25.7842 90.6412C25.6075 90.8063 25.3761 90.8854 25.14 90.8614L24.8101 96.928C24.9272 96.9405 25.0419 96.9784 25.1475 97.0393C25.2531 97.1003 25.3476 97.1831 25.4255 97.2831C25.5035 97.3832 25.5633 97.4984 25.6017 97.6222C25.64 97.746 25.6561 97.8759 25.649 98.0046L39.1599 99.4798C39.1755 99.2208 39.2832 98.9829 39.46 98.8178C39.6367 98.6527 39.8681 98.5736 40.1042 98.5975V98.5975Z" stroke="#86CCFF" stroke-miterlimit="10"/>
<path d="M34.9225 94.9766C34.8957 95.4796 34.7344 95.9566 34.4589 96.3471C34.1834 96.7377 33.8061 97.0243 33.3748 97.1708C32.9435 97.3172 32.4775 97.3168 32.0358 97.1698C31.5941 97.0227 31.1965 96.7355 30.8934 96.3445C30.5902 95.9535 30.3951 95.4762 30.3327 94.9731C30.2703 94.4701 30.3434 93.9637 30.5428 93.5181C30.7421 93.0726 31.0588 92.7079 31.4528 92.4701C31.8468 92.2323 32.3003 92.1321 32.756 92.1823C33.0585 92.215 33.3546 92.3133 33.6273 92.4716C33.9001 92.6298 34.144 92.8449 34.3453 93.1044C34.5466 93.364 34.7011 93.663 34.8002 93.9842C34.8992 94.3055 34.9408 94.6427 34.9225 94.9766V94.9766Z" stroke="#86CCFF" stroke-miterlimit="10"/>
<path d="M32.6483 96.1544L32.6219 96.6142L32.444 96.5775L32.466 96.1211C32.1482 96.0794 31.8493 95.9168 31.6208 95.6614L31.7352 95.4459C31.9371 95.6726 32.2 95.8199 32.4809 95.8639L32.5395 94.8132C32.1432 94.6634 31.7432 94.483 31.7747 93.956C31.7949 93.5717 32.0617 93.2638 32.6203 93.2763L32.6467 92.8165L32.8247 92.8531L32.7994 93.3046C33.0645 93.3402 33.3184 93.456 33.5329 93.639L33.4293 93.8609C33.2426 93.7042 33.0249 93.6007 32.7964 93.5601L32.7367 94.619C33.1406 94.7704 33.5682 94.9479 33.5394 95.4841C33.5105 95.875 33.2248 96.179 32.6483 96.1544ZM32.5512 94.551L32.6032 93.5502C32.215 93.5429 32.0488 93.7392 32.0344 93.9923C32.02 94.2454 32.2555 94.4347 32.5512 94.551ZM33.2644 95.4744C33.2795 95.1575 33.0245 94.9983 32.7146 94.9004L32.6589 95.9005C33.0622 95.9109 33.2501 95.7276 33.2644 95.4744Z" fill="#86CCFF"/>
<path d="M182.054 63.9384C183.856 64.31 185.53 63.0048 185.794 61.0232C186.058 59.0416 184.812 57.1341 183.01 56.7625C181.208 56.391 179.534 57.6962 179.27 59.6778C179.006 61.6594 180.253 63.5669 182.054 63.9384Z" stroke="#86CCFF" stroke-miterlimit="10"/>
<path d="M182.415 62.3891L182.328 63.0373L182.055 62.9812L182.141 62.3372C181.691 62.2345 181.28 61.9645 180.978 61.5729L181.169 61.2792C181.432 61.6313 181.791 61.8797 182.188 61.984L182.387 60.5007C181.839 60.2301 181.296 59.9221 181.396 59.1742C181.468 58.6341 181.887 58.2378 182.676 58.3318L182.765 57.6712L183.022 57.7241L182.936 58.3681C183.307 58.4532 183.653 58.65 183.935 58.9363L183.762 59.2422C183.513 58.9914 183.212 58.8134 182.889 58.7255L182.689 60.2212C183.248 60.4942 183.838 60.799 183.736 61.5594C183.679 62.1068 183.24 62.5075 182.415 62.3891ZM182.456 60.0966L182.644 58.6881C182.107 58.6289 181.84 58.8813 181.792 59.2386C181.72 59.6635 182.047 59.893 182.441 60.0935L182.456 60.0966ZM183.374 61.5062C183.433 61.0616 183.075 60.8299 182.651 60.6191L182.461 62.0401C183.033 62.1021 183.325 61.8676 183.374 61.5062Z" fill="#86CCFF"/>
<path d="M154.345 105.323C156.105 105.226 157.408 103.46 157.257 101.378C157.105 99.2963 155.555 97.6865 153.794 97.7827C152.034 97.879 150.731 99.6449 150.882 101.727C151.034 103.809 152.584 105.419 154.345 105.323Z" stroke="#86CCFF" stroke-miterlimit="10"/>
<path d="M153.008 103.165L152.63 103.652L152.432 103.458L152.809 102.975C152.466 102.633 152.237 102.172 152.164 101.674L152.467 101.542C152.529 101.982 152.724 102.392 153.019 102.704L153.893 101.589C153.544 101.054 153.214 100.481 153.652 99.9216C153.969 99.5155 154.517 99.4289 155.164 99.9657L155.545 99.4754L155.744 99.6692L155.367 100.152C155.645 100.436 155.852 100.796 155.965 101.193L155.671 101.349C155.572 100.999 155.395 100.679 155.157 100.419L154.278 101.541C154.637 102.091 155.003 102.68 154.556 103.251C154.235 103.66 153.669 103.735 153.008 103.165ZM154.128 101.273L154.953 100.215C154.518 99.858 154.16 99.9032 153.951 100.17C153.697 100.513 153.866 100.892 154.126 101.293L154.128 101.273ZM154.258 102.964C154.519 102.631 154.32 102.238 154.048 101.817L153.22 102.877C153.679 103.286 154.039 103.276 154.252 102.984L154.258 102.964Z" fill="#86CCFF"/>
<path d="M118.333 22.3995C118.514 23.1003 118.507 23.8368 118.31 24.5159C118.114 25.1951 117.737 25.7863 117.228 26.215C116.72 26.6436 116.101 26.8904 115.452 26.9241C114.802 26.9578 114.151 26.777 113.579 26.4043C113.008 26.0317 112.542 25.4842 112.242 24.8308C111.941 24.1775 111.818 23.4477 111.89 22.7338C111.961 22.02 112.223 21.354 112.642 20.8201C113.062 20.2863 113.62 19.9085 114.246 19.7346C114.661 19.6186 115.097 19.5955 115.528 19.6666C115.958 19.7378 116.375 19.9019 116.755 20.1494C117.135 20.397 117.469 20.7231 117.74 21.1093C118.011 21.4954 118.212 21.9338 118.333 22.3995V22.3995Z" stroke="#86CCFF" stroke-miterlimit="10"/>
<path d="M115.826 25.2091L115.992 25.8479L115.742 25.9199L115.572 25.2845C115.132 25.3969 114.665 25.3338 114.251 25.1061L114.299 24.7457C114.663 24.9504 115.074 25.0141 115.464 24.9261L115.087 23.4606C114.498 23.4627 113.894 23.4277 113.701 22.6942C113.564 22.1592 113.785 21.6046 114.53 21.3283L114.364 20.6854L114.61 20.6168L114.777 21.2514C115.137 21.1596 115.518 21.182 115.876 21.3162L115.828 21.6766C115.512 21.5601 115.179 21.5338 114.858 21.6002L115.242 23.0756C115.844 23.0675 116.481 23.0839 116.691 23.8296C116.855 24.3741 116.601 24.9391 115.826 25.2091ZM115.002 23.0771L114.641 21.6875C114.14 21.8778 113.987 22.238 114.08 22.5849C114.19 23.0077 114.565 23.0722 115.002 23.0771ZM116.345 23.9541C116.231 23.5049 115.829 23.4689 115.372 23.4684L115.733 24.858C116.267 24.6615 116.437 24.3135 116.345 23.9541Z" fill="#86CCFF"/>
<path d="M85.9951 168.398C86.2685 169.451 86.2568 170.557 85.9616 171.577C85.6663 172.598 85.1008 173.486 84.3364 174.13C83.5721 174.774 82.6433 175.145 81.6674 175.195C80.6916 175.246 79.7125 174.974 78.8541 174.414C77.9956 173.855 77.2963 173.032 76.8446 172.05C76.3928 171.069 76.209 169.972 76.3162 168.9C76.4235 167.827 76.817 166.827 77.4471 166.025C78.0772 165.223 78.9155 164.656 79.856 164.394C80.4806 164.221 81.1349 164.187 81.7815 164.294C82.428 164.402 83.0542 164.648 83.6243 165.02C84.1944 165.392 84.6972 165.881 85.104 166.461C85.5108 167.041 85.8136 167.699 85.9951 168.398V168.398Z" stroke="#86CCFF" stroke-miterlimit="10"/>
<path d="M82.2206 172.624L82.4794 173.589L82.1056 173.691L81.8457 172.734C81.1865 172.905 80.4847 172.812 79.8629 172.471L79.9573 171.937C80.5045 172.242 81.1223 172.335 81.7079 172.2L81.1367 170.004C80.2572 170.006 79.3461 169.955 79.0592 168.853C78.8484 168.051 79.1846 167.214 80.3015 166.797L80.0422 165.837L80.4127 165.73L80.6726 166.686C81.215 166.55 81.7869 166.584 82.3251 166.784L82.2533 167.323C81.7807 167.148 81.2803 167.11 80.8003 167.211L81.373 169.423C82.2768 169.414 83.2343 169.436 83.5271 170.552C83.7514 171.369 83.3897 172.223 82.2206 172.624ZM80.9899 169.421L80.4431 167.333C79.698 167.605 79.4656 168.157 79.604 168.688C79.7674 169.322 80.3281 169.416 80.9899 169.421ZM83.0059 170.743C82.8345 170.082 82.2285 170.008 81.5532 170.018L82.0962 172.105C82.899 171.806 83.1438 171.278 83.0059 170.743Z" fill="#86CCFF"/>
<path d="M29.4631 69.9026C28.6413 70.4559 27.68 70.7202 26.7006 70.6621C25.7213 70.6041 24.7679 70.2262 23.961 69.5763C23.1541 68.9263 22.5299 68.0336 22.1674 67.0109C21.8049 65.9881 21.7204 64.8814 21.9244 63.8305C22.1285 62.7796 22.612 61.8318 23.3138 61.1069C24.0157 60.382 24.9043 59.9125 25.8674 59.7579C26.8305 59.6032 27.8248 59.7703 28.7247 60.2381C29.6245 60.7058 30.3894 61.4532 30.9227 62.3857C31.2769 63.0051 31.5202 63.6909 31.6386 64.404C31.7569 65.117 31.7481 65.8433 31.6125 66.5414C31.477 67.2394 31.2174 67.8956 30.8486 68.4723C30.4798 69.049 30.009 69.535 29.4631 69.9026Z" stroke="#86CCFF" stroke-miterlimit="10"/>
<path d="M24.5959 66.944L23.8517 67.4465L23.6393 67.0768L24.3786 66.5818C24.0197 65.9273 23.8725 65.164 23.9621 64.4224L24.4553 64.3887C24.3691 65.0376 24.4844 65.7084 24.7827 66.2928L26.4749 65.1437C26.1866 64.2168 25.9355 63.2425 26.804 62.6726C27.4291 62.2556 28.2562 62.4007 28.9755 63.4715L29.7416 62.9778L29.9508 63.3426L29.2109 63.8417C29.4975 64.3799 29.6479 64.9892 29.6459 65.6029L29.159 65.676C29.1546 65.134 29.0263 64.5966 28.7861 64.1138L27.066 65.2698C27.367 66.2163 27.6587 67.2328 26.7917 67.82C26.1624 68.2403 25.3085 68.0939 24.5959 66.944ZM26.9528 64.8487L28.572 63.7565C28.0829 63.0378 27.5281 62.9276 27.1369 63.2067C26.6315 63.5341 26.7334 64.156 26.9416 64.8464L26.9528 64.8487ZM26.4701 67.2882C26.9851 66.9458 26.8534 66.2881 26.6266 65.5643L25.0074 66.6565C25.507 67.4408 26.0505 67.5783 26.4722 67.3013L26.4701 67.2882Z" fill="#86CCFF"/>
<path d="M44.6297 120.955C44.8731 119.527 44.0185 118.104 42.721 117.776C41.4235 117.449 40.1743 118.341 39.9309 119.77C39.6875 121.198 40.5421 122.621 41.8396 122.948C43.1371 123.276 44.3863 122.383 44.6297 120.955Z" stroke="#86CCFF" stroke-width="1.0008" stroke-miterlimit="10"/>
<path d="M42.9065 120.999L43.129 121.414L42.973 121.513L42.7499 121.102C42.466 121.275 42.1325 121.329 41.8074 121.256L41.7889 120.989C42.0744 121.056 42.3683 121.015 42.6224 120.872L42.1091 119.918C41.7066 120.043 41.2838 120.146 41.0234 119.668C40.8377 119.325 40.8966 118.883 41.3604 118.528L41.1342 118.113L41.2939 118.014L41.517 118.425C41.7503 118.285 42.0165 118.221 42.2862 118.24L42.3208 118.502C42.084 118.489 41.8504 118.542 41.6408 118.654L42.1578 119.61C42.5614 119.476 43.0127 119.361 43.2843 119.842C43.4727 120.195 43.4047 120.648 42.9065 120.999ZM41.98 119.67L41.4906 118.767C41.1807 119.009 41.1389 119.293 41.259 119.522C41.379 119.75 41.6791 119.757 41.98 119.67ZM43.0578 120.007C42.9025 119.725 42.6184 119.772 42.3041 119.873L42.7934 120.776C43.1243 120.522 43.1816 120.237 43.0584 120.003L43.0578 120.007Z" fill="#86CCFF"/>
<path d="M108.548 186.783C108.794 187.24 108.916 187.763 108.897 188.285C108.878 188.807 108.719 189.304 108.441 189.715C108.163 190.126 107.777 190.431 107.334 190.592C106.89 190.753 106.408 190.763 105.948 190.62C105.488 190.477 105.072 190.188 104.751 189.79C104.43 189.391 104.22 188.901 104.146 188.381C104.072 187.861 104.139 187.335 104.337 186.868C104.535 186.402 104.856 186.017 105.259 185.762C105.8 185.42 106.451 185.336 107.067 185.527C107.684 185.719 108.216 186.17 108.548 186.783V186.783Z" stroke="#86CCFF" stroke-miterlimit="10"/>
<path d="M107.289 189.296L107.515 189.712L107.355 189.81L107.132 189.399C106.85 189.572 106.517 189.626 106.193 189.554L106.175 189.287C106.46 189.356 106.755 189.315 107.008 189.17L106.495 188.215C106.093 188.34 105.666 188.443 105.409 187.966C105.22 187.621 105.279 187.179 105.743 186.825L105.52 186.41L105.68 186.311L105.903 186.722C106.136 186.581 106.402 186.517 106.672 186.537L106.707 186.799C106.469 186.786 106.234 186.839 106.023 186.951L106.544 187.907C106.947 187.774 107.399 187.659 107.67 188.139C107.847 188.49 107.779 188.943 107.289 189.296ZM106.361 187.95L105.871 187.047C105.557 187.288 105.516 187.572 105.64 187.801C105.763 188.03 106.054 188.052 106.361 187.95ZM107.434 188.29C107.279 188.004 106.995 188.051 106.683 188.135L107.172 189.038C107.503 188.818 107.56 188.533 107.432 188.303L107.434 188.29Z" fill="#86CCFF"/>
<path d="M66.8902 23.7214C67.1994 22.311 66.412 20.8429 65.1315 20.4422C63.851 20.0415 62.5623 20.8601 62.2531 22.2705C61.944 23.6809 62.7314 25.149 64.0119 25.5497C65.2924 25.9503 66.5811 25.1318 66.8902 23.7214Z" stroke="#86CCFF" stroke-miterlimit="10"/>
<path d="M65.3608 24.2218L65.5834 24.6369L65.4236 24.7356L65.2005 24.3246C64.9183 24.4978 64.5857 24.5525 64.2617 24.479L64.2432 24.212C64.5288 24.2794 64.8226 24.2383 65.0767 24.0953L64.5634 23.1407C64.1609 23.2657 63.7344 23.3687 63.4777 22.8913C63.292 22.5475 63.3471 22.1047 63.8147 21.7513L63.5885 21.3355L63.7482 21.2368L63.9713 21.6478C64.2044 21.5075 64.4707 21.4434 64.7406 21.4627L64.7752 21.7245C64.5383 21.712 64.3047 21.7644 64.0951 21.877L64.6122 22.8325C65.0157 22.6993 65.467 22.5844 65.7387 23.0648C65.9196 23.4161 65.8478 23.8682 65.3608 24.2218ZM64.4273 22.8877L63.9402 21.9682C63.6302 22.2098 63.5847 22.4933 63.7085 22.7225C63.8323 22.9517 64.1221 22.9776 64.4273 22.8877ZM65.5052 23.2246C65.3499 22.9422 65.0621 22.9889 64.7542 23.0697L65.2435 23.9727C65.5712 23.7432 65.6285 23.458 65.5052 23.2246Z" fill="#86CCFF"/>
<g filter="url(#filter0_i_6101_50382)">
<circle cx="99.9103" cy="104.354" r="28.2639" fill="#2BADF7"/>
</g>
<g clip-path="url(#clip0_6101_50382)">
<path d="M94.296 116.124C94.1458 116.12 93.9933 116.108 93.8452 116.085C93.3891 116.01 92.9632 115.825 92.612 115.549C92.2608 115.273 91.9972 114.916 91.8487 114.515L87.5551 102.738C87.1043 101.501 87.8342 100.167 89.1867 99.7545C90.5392 99.3423 91.999 100.01 92.4498 101.246L95.2406 108.901L108.594 93.4736C109.476 92.4491 111.101 92.2744 112.222 93.0811C113.342 93.8878 113.533 95.3736 112.651 96.3982L96.3355 115.241C96.0875 115.516 95.7762 115.738 95.4237 115.891C95.0711 116.043 94.6861 116.123 94.296 116.124Z" fill="white"/>
<path opacity="0.35" d="M102.699 103.355C103.019 103.111 109.133 96.4419 109.133 96.4419C109.133 96.4419 109.644 95.9453 109.21 95.5096C108.802 95.1112 108.27 95.3722 108.014 95.6313C107.759 95.8904 102.242 101.838 102.014 102.132C101.905 102.295 101.845 102.481 101.842 102.672C101.839 102.863 101.891 103.052 101.995 103.217C102.197 103.516 102.478 103.531 102.699 103.355Z" fill="#51B6FF"/>
<path opacity="0.35" d="M109.845 94.9595C110.236 94.9595 110.554 94.6695 110.554 94.3118C110.554 93.9541 110.236 93.6641 109.845 93.6641C109.454 93.6641 109.137 93.9541 109.137 94.3118C109.137 94.6695 109.454 94.9595 109.845 94.9595Z" fill="#51B6FF"/>
<path opacity="0.35" d="M89.2951 104.647C89.4389 104.645 89.4089 103.909 89.7845 103.204C90.0486 102.706 90.3899 102.455 90.3878 102.176C90.3856 101.897 89.9756 100.539 89.6686 100.629C89.2414 100.753 88.6961 101.255 88.5738 102.039C88.3827 103.271 89.031 104.651 89.2951 104.647Z" fill="#51B6FF"/>
</g>
<defs>
<filter id="filter0_i_6101_50382" x="67.6465" y="74.0898" width="60.5273" height="58.5273" filterUnits="userSpaceOnUse" color-interpolation-filters="sRGB">
<feFlood flood-opacity="0" result="BackgroundImageFix"/>
<feBlend mode="normal" in="SourceGraphic" in2="BackgroundImageFix" result="shape"/>
<feColorMatrix in="SourceAlpha" type="matrix" values="0 0 0 0 0 0 0 0 0 0 0 0 0 0 0 0 0 0 127 0" result="hardAlpha"/>
<feOffset dx="-4" dy="-2"/>
<feGaussianBlur stdDeviation="2"/>
<feComposite in2="hardAlpha" operator="arithmetic" k2="-1" k3="1"/>
<feColorMatrix type="matrix" values="0 0 0 0 1 0 0 0 0 0.845833 0 0 0 0 0.845833 0 0 0 0.25 0"/>
<feBlend mode="normal" in2="shape" result="effect1_innerShadow_6101_50382"/>
</filter>
<clipPath id="clip0_6101_50382">
<rect width="27.4788" height="25.1234" fill="white" transform="translate(86.5625 91.793)"/>
</clipPath>
</defs>
</svg>
