<svg width="24" height="24" viewBox="0 0 24 24" fill="none" xmlns="http://www.w3.org/2000/svg">
<path d="M12.6596 5.46485H11.3444C11.224 5.46485 11.1256 5.56328 11.1256 5.6836V13.2113C11.1256 13.2824 11.1584 13.3481 11.2158 13.3891L15.7358 16.6895C15.8342 16.7605 15.9709 16.7414 16.042 16.643L16.824 15.5766C16.8979 15.4754 16.876 15.3387 16.7776 15.2703L12.8783 12.4512V5.6836C12.8783 5.56328 12.7799 5.46485 12.6596 5.46485ZM18.6698 7.5211L22.9573 8.56836C23.094 8.60118 23.228 8.49727 23.228 8.35782L23.2498 3.9418C23.2498 3.7586 23.0393 3.65469 22.8971 3.76953L18.5877 7.13555C18.5551 7.16075 18.5304 7.19462 18.5162 7.23328C18.502 7.27194 18.499 7.31382 18.5076 7.3541C18.5162 7.39437 18.5359 7.43141 18.5646 7.46095C18.5933 7.4905 18.6297 7.51134 18.6698 7.5211ZM23.2553 15.7543L21.7049 15.2211C21.6509 15.2026 21.5917 15.2059 21.5401 15.2305C21.4885 15.255 21.4485 15.2987 21.4287 15.3523C21.3768 15.4918 21.3221 15.6285 21.2647 15.7652C20.778 16.9164 20.0807 17.9527 19.1893 18.8414C18.3078 19.7257 17.2631 20.4305 16.1131 20.9168C14.9218 21.4205 13.6413 21.679 12.3479 21.677C11.0408 21.677 9.77483 21.4227 8.58264 20.9168C7.43267 20.4305 6.38798 19.7257 5.50647 18.8414C4.6178 17.9527 3.92053 16.9164 3.43108 15.7652C2.93018 14.5733 2.67356 13.2929 2.67639 12C2.67639 10.693 2.93069 9.42422 3.43655 8.23203C3.92326 7.08086 4.62053 6.04453 5.51194 5.15586C6.39345 4.27162 7.43814 3.5668 8.58811 3.08047C9.77483 2.57461 11.0436 2.32032 12.3506 2.32032C13.6576 2.32032 14.9237 2.57461 16.1158 3.08047C17.2658 3.5668 18.3105 4.27162 19.192 5.15586C19.4709 5.4375 19.7334 5.73008 19.974 6.03907L21.6092 4.75938C19.4573 2.0086 16.1076 0.239456 12.3451 0.242191C5.79358 0.244925 0.532639 5.56602 0.598264 12.1203C0.663889 18.5598 5.90022 23.7578 12.3506 23.7578C17.4229 23.7578 21.7432 20.5422 23.3893 16.0387C23.4303 15.9238 23.3701 15.7953 23.2553 15.7543Z" fill="#2C3857"/>
</svg>
