<svg width="23" height="23" viewBox="0 0 23 23" fill="none" xmlns="http://www.w3.org/2000/svg">
<g filter="url(#filter0_b_1401_447)">
<path fill-rule="evenodd" clip-rule="evenodd" d="M21 11C21 16.5228 16.5228 21 11 21C5.47715 21 1 16.5228 1 11C1 5.47715 5.47715 1 11 1C16.5228 1 21 5.47715 21 11Z" fill="#009987" fill-opacity="0.66"/>
<path fill-rule="evenodd" clip-rule="evenodd" d="M21 11C21 16.5228 16.5228 21 11 21C5.47715 21 1 16.5228 1 11C1 5.47715 5.47715 1 11 1C16.5228 1 21 5.47715 21 11Z" stroke="url(#paint0_linear_1401_447)" stroke-linecap="round"/>
</g>
<g filter="url(#filter1_d_1401_447)">
<path fill-rule="evenodd" clip-rule="evenodd" d="M11 9.25C11.4142 9.25 11.75 9.58579 11.75 10V16C11.75 16.4142 11.4142 16.75 11 16.75C10.5858 16.75 10.25 16.4142 10.25 16V10C10.25 9.58579 10.5858 9.25 11 9.25ZM11 8C11.5523 8 12 7.55228 12 7C12 6.44771 11.5523 6 11 6C10.4477 6 10 6.44771 10 7C10 7.55228 10.4477 8 11 8Z" fill="url(#paint1_linear_1401_447)"/>
</g>
<defs>
<filter id="filter0_b_1401_447" x="-23.5" y="-23.5" width="69" height="69" filterUnits="userSpaceOnUse" color-interpolation-filters="sRGB">
<feFlood flood-opacity="0" result="BackgroundImageFix"/>
<feGaussianBlur in="BackgroundImage" stdDeviation="12"/>
<feComposite in2="SourceAlpha" operator="in" result="effect1_backgroundBlur_1401_447"/>
<feBlend mode="normal" in="SourceGraphic" in2="effect1_backgroundBlur_1401_447" result="shape"/>
</filter>
<filter id="filter1_d_1401_447" x="7" y="3" width="18" height="26.75" filterUnits="userSpaceOnUse" color-interpolation-filters="sRGB">
<feFlood flood-opacity="0" result="BackgroundImageFix"/>
<feColorMatrix in="SourceAlpha" type="matrix" values="0 0 0 0 0 0 0 0 0 0 0 0 0 0 0 0 0 0 127 0" result="hardAlpha"/>
<feOffset dx="5" dy="5"/>
<feGaussianBlur stdDeviation="4"/>
<feColorMatrix type="matrix" values="0 0 0 0 0.176471 0 0 0 0 0.556863 0 0 0 0 0.678431 0 0 0 0.5 0"/>
<feBlend mode="normal" in2="BackgroundImageFix" result="effect1_dropShadow_1401_447"/>
<feBlend mode="normal" in="SourceGraphic" in2="effect1_dropShadow_1401_447" result="shape"/>
</filter>
<linearGradient id="paint0_linear_1401_447" x1="1" y1="1" x2="21.0101" y2="20.9899" gradientUnits="userSpaceOnUse">
<stop stop-color="white" stop-opacity="0.25"/>
<stop offset="1" stop-color="white" stop-opacity="0"/>
</linearGradient>
<linearGradient id="paint1_linear_1401_447" x1="11.0168" y1="19.0402" x2="16.2553" y2="18.0849" gradientUnits="userSpaceOnUse">
<stop stop-color="white"/>
<stop offset="1" stop-color="white" stop-opacity="0.2"/>
</linearGradient>
</defs>
</svg>
