<svg width="24" height="24" viewBox="0 0 24 24" fill="none" xmlns="http://www.w3.org/2000/svg">
<path d="M8.625 8.5H4.125C3.99366 8.50007 3.86359 8.47426 3.74223 8.42403C3.62087 8.3738 3.5106 8.30015 3.41773 8.20727C3.32485 8.1144 3.2512 8.00413 3.20097 7.88277C3.15074 7.76141 3.12493 7.63134 3.125 7.5V3C3.125 2.73478 3.23036 2.48043 3.41789 2.29289C3.60543 2.10536 3.85978 2 4.125 2C4.39022 2 4.64457 2.10536 4.83211 2.29289C5.01964 2.48043 5.125 2.73478 5.125 3V6.5H8.625C8.89022 6.5 9.14457 6.60536 9.33211 6.79289C9.51964 6.98043 9.625 7.23478 9.625 7.5C9.625 7.76522 9.51964 8.01957 9.33211 8.20711C9.14457 8.39464 8.89022 8.5 8.625 8.5Z" fill="gray"/>
<path d="M20.9999 13C20.8686 13.0001 20.7385 12.9743 20.6172 12.924C20.4958 12.8738 20.3855 12.8002 20.2927 12.7073C20.1998 12.6144 20.1261 12.5041 20.0759 12.3828C20.0257 12.2614 19.9999 12.1314 19.9999 12C20.001 10.2393 19.4209 8.5274 18.3495 7.13013C17.2781 5.73287 15.7754 4.72837 14.0747 4.27255C12.3739 3.81673 10.5703 3.9351 8.94374 4.60927C7.31717 5.28344 5.95864 6.47572 5.07904 8.00102C5.01325 8.11464 4.92572 8.21419 4.82146 8.29399C4.71719 8.37379 4.59823 8.43227 4.47136 8.46609C4.21514 8.5344 3.94228 8.49813 3.71281 8.36525C3.48333 8.23238 3.31604 8.01379 3.24773 7.75757C3.17943 7.50135 3.2157 7.22849 3.34857 6.99902C4.44861 5.09286 6.14704 3.60308 8.1803 2.76085C10.2136 1.91862 12.468 1.77104 14.5937 2.341C16.7194 2.91097 18.5975 4.16662 19.9367 5.91309C21.2758 7.65957 22.0011 9.79922 21.9999 12C22 12.1314 21.9742 12.2614 21.924 12.3828C21.8737 12.5041 21.8001 12.6144 21.7072 12.7073C21.6143 12.8002 21.5041 12.8738 21.3827 12.924C21.2614 12.9743 21.1313 13.0001 20.9999 13V13ZM19.8749 22C19.7436 22.0001 19.6135 21.9743 19.4922 21.924C19.3708 21.8738 19.2605 21.8002 19.1677 21.7073C19.0748 21.6144 19.0011 21.5041 18.9509 21.3828C18.9007 21.2614 18.8749 21.1314 18.8749 21V17.5H15.3749C15.1097 17.5 14.8554 17.3947 14.6678 17.2071C14.4803 17.0196 14.3749 16.7652 14.3749 16.5C14.3749 16.2348 14.4803 15.9804 14.6678 15.7929C14.8554 15.6054 15.1097 15.5 15.3749 15.5H19.8749C20.0063 15.4999 20.1364 15.5258 20.2577 15.576C20.3791 15.6262 20.4893 15.6999 20.5822 15.7927C20.6751 15.8856 20.7487 15.9959 20.799 16.1172C20.8492 16.2386 20.875 16.3687 20.8749 16.5V21C20.875 21.1314 20.8492 21.2614 20.799 21.3828C20.7487 21.5041 20.6751 21.6144 20.5822 21.7073C20.4893 21.8002 20.3791 21.8738 20.2577 21.924C20.1364 21.9743 20.0063 22.0001 19.8749 22V22Z" fill="gray"/>
<path d="M12 22C9.34879 21.9969 6.80706 20.9423 4.93237 19.0676C3.05768 17.1929 2.00311 14.6512 2 12C2 11.7348 2.10536 11.4804 2.29289 11.2929C2.48043 11.1054 2.73478 11 3 11C3.26522 11 3.51957 11.1054 3.70711 11.2929C3.89464 11.4804 4 11.7348 4 12C3.9989 13.7607 4.57907 15.4726 5.65047 16.8699C6.72186 18.2671 8.22455 19.2717 9.92528 19.7275C11.626 20.1833 13.4296 20.0649 15.0562 19.3907C16.6828 18.7166 18.0413 17.5243 18.9209 15.999C19.0538 15.7695 19.2724 15.6022 19.5286 15.5339C19.7848 15.4656 20.0577 15.5019 20.2871 15.6348C20.5166 15.7676 20.6839 15.9862 20.7522 16.2424C20.8205 16.4987 20.7842 16.7715 20.6514 17.001C19.7718 18.5175 18.5102 19.7771 16.9923 20.6542C15.4744 21.5313 13.7531 21.9953 12 22Z" fill="gray"/>
</svg>
