<svg width="187" height="187" viewBox="0 0 187 187" fill="none" xmlns="http://www.w3.org/2000/svg">
<path d="M90.6658 149.688C85.1084 149.688 80.3603 151.452 76.4304 154.973C72.5034 158.491 70.5282 162.751 70.5282 167.774C70.5282 173.434 72.5151 177.875 76.483 181.107C80.4626 184.338 85.0967 185.969 90.394 185.969C95.7791 185.969 100.477 184.362 104.498 181.174C108.516 177.971 110.523 173.51 110.523 167.771C110.523 162.748 108.603 158.488 104.761 154.97C100.919 151.455 96.2261 149.688 90.657 149.688H90.6658ZM147.432 25.1778C142.319 17.4173 135.011 11.2112 125.699 6.71447C116.44 2.25861 105.655 0 93.6344 0C80.6934 0 69.1754 2.70566 59.4163 8.04392C49.6456 13.391 42.0955 20.2515 36.9763 28.4328C31.8338 36.6549 29.2188 44.9238 29.2188 53.0174C29.2188 57.333 31.0186 61.3623 34.5483 64.9854C38.0954 68.6319 42.5074 70.4756 47.6616 70.4756C56.4565 70.4756 62.4492 65.3156 65.4997 55.1942C68.2784 46.823 71.7057 40.4388 75.6678 36.2079C79.3961 32.2224 85.4444 30.2005 93.6344 30.2005C100.7 30.2005 106.274 32.1815 110.698 36.2634C115.055 40.2897 117.176 45.0875 117.176 50.9312C117.176 53.8823 116.486 56.5324 115.104 59.0394C113.635 61.6691 111.803 64.0855 109.661 66.236C107.396 68.5034 103.659 71.9073 98.5519 76.3837C92.603 81.5992 87.8023 86.1661 84.3078 89.9587C80.6554 93.9003 77.6956 98.5344 75.4837 103.727C73.2748 108.954 72.1528 115.192 72.1528 122.278C72.1528 128.323 73.8387 133.004 77.1696 136.192C80.4655 139.347 84.5708 140.954 89.3772 140.954C98.5665 140.954 104.34 135.931 106.058 126.535C106.929 122.628 107.589 119.899 108.028 118.348C108.425 116.936 109.001 115.487 109.74 114.041C110.459 112.632 111.595 111.037 113.129 109.293C114.727 107.449 116.887 105.287 119.534 102.87C129.436 94.0172 136.422 87.6124 140.297 83.8198C144.294 79.9133 147.78 75.212 150.658 69.8591C153.621 64.3806 155.122 57.9262 155.122 50.6945C155.128 41.5461 152.531 32.9529 147.417 25.1661" fill="white"/>
</svg>
