<svg width="22" height="20" viewBox="0 0 22 20" fill="none" xmlns="http://www.w3.org/2000/svg">
<path d="M10.7099 3.70312C10.7099 3.70312 4.57067 3.70314 3.02982 4.11835C2.20479 4.3574 1.52545 5.06193 1.29492 5.93009C0.89454 7.52801 0.894531 10.8372 0.894531 10.8372C0.894531 10.8372 0.89454 14.159 1.29492 15.7317C1.52545 16.5998 2.19266 17.2917 3.02982 17.5308C4.58281 17.9586 10.7099 17.9586 10.7099 17.9586C10.7099 17.9586 16.8612 17.9586 18.4021 17.5434C19.2393 17.3044 19.9064 16.6251 20.1248 15.7443C20.5373 14.159 20.5373 10.8498 20.5373 10.8498C20.5373 10.8498 20.5495 7.52801 20.1248 5.93009C19.9064 5.06193 19.2393 4.37 18.4021 4.14352C16.8612 3.70315 10.7099 3.70312 10.7099 3.70312ZM8.75648 7.77979L13.8644 10.8372L8.75648 13.882V7.77979Z" fill="#009987"/>
</svg>
