<svg width="86" height="86" viewBox="0 0 86 86" fill="none" xmlns="http://www.w3.org/2000/svg">
<circle cx="43" cy="43" r="43" fill="#009987"/>
<g clip-path="url(#clip0_1301_2999)">
<g filter="url(#filter0_b_1301_2999)">
<path fill-rule="evenodd" clip-rule="evenodd" d="M30.8363 19.2475C33.8425 18.9218 37.6317 18.9219 42.4656 18.9219H42.7038C47.5377 18.9219 51.3269 18.9218 54.3331 19.2475C57.4008 19.5799 59.8865 20.2704 62.0088 21.8123C63.2937 22.7458 64.4236 23.8757 65.3571 25.1605C66.899 27.2828 67.5895 29.7685 67.9218 32.8363C68.2475 35.8425 68.2475 39.6317 68.2475 44.4655V44.6004C68.2475 47.0596 68.2475 49.2388 68.2076 51.1663C68.0902 56.836 67.6467 60.8575 65.3571 64.0088C64.4236 65.2937 63.2937 66.4236 62.0088 67.3571C59.8865 68.899 57.4008 69.5895 54.3331 69.9218C51.3269 70.2475 47.5378 70.2475 42.704 70.2475H42.4655C37.6317 70.2475 33.8425 70.2475 30.8363 69.9218C27.7685 69.5895 25.2828 68.899 23.1605 67.3571C21.9223 66.4575 20.828 65.3754 19.9147 64.1481C19.8803 64.1019 19.8462 64.0555 19.8123 64.0088C18.2704 61.8865 17.5799 59.4008 17.2475 56.3331C16.9218 53.3269 16.9219 49.5377 16.9219 44.7038V44.4656C16.9219 39.6317 16.9218 35.8425 17.2475 32.8363C17.5799 29.7685 18.2704 27.2828 19.8123 25.1605C20.7458 23.8757 21.8757 22.7458 23.1605 21.8123C25.2828 20.2704 27.7685 19.5799 30.8363 19.2475Z" fill="white" fill-opacity="0.15"/>
<path d="M19.4078 64.3027L19.8123 64.0088L19.4078 64.3027C19.4428 64.3509 19.478 64.3988 19.5136 64.4466C20.4571 65.7145 21.5875 66.8322 22.8666 67.7616C25.0884 69.3758 27.6721 70.0819 30.7825 70.4189C33.8155 70.7475 37.627 70.7475 42.4364 70.7475H42.4655H42.704H42.7331C47.5426 70.7475 51.3538 70.7475 54.3869 70.4189C57.4972 70.0819 60.081 69.3758 62.3027 67.7616C63.63 66.7973 64.7973 65.63 65.7616 64.3027C68.1537 61.0102 68.5903 56.8375 68.7075 51.1766C68.7475 49.244 68.7475 47.0606 68.7475 44.6046V44.6004V44.4655V44.4364C68.7475 39.627 68.7475 35.8155 68.4189 32.7825C68.0819 29.6721 67.3758 27.0884 65.7616 24.8666C64.7972 23.5394 63.63 22.3721 62.3027 21.4078C60.081 19.7936 57.4972 19.0874 54.3869 18.7504C51.3538 18.4218 47.5427 18.4219 42.7332 18.4219L42.7038 18.4219H42.4656L42.4362 18.4219C37.6267 18.4219 33.8155 18.4218 30.7825 18.7504C27.6721 19.0874 25.0884 19.7936 22.8666 21.4078C21.5394 22.3721 20.3721 23.5394 19.4078 24.8666C17.7936 27.0884 17.0874 29.6721 16.7504 32.7825C16.4218 35.8155 16.4219 39.6267 16.4219 44.4362L16.4219 44.4656V44.7038L16.4219 44.7332C16.4219 49.5427 16.4218 53.3538 16.7504 56.3869C17.0874 59.4972 17.7936 62.081 19.4078 64.3027Z" stroke="url(#paint0_linear_1301_2999)" stroke-linecap="round"/>
</g>
<g filter="url(#filter1_d_1301_2999)">
<g filter="url(#filter2_b_1301_2999)">
<path fill-rule="evenodd" clip-rule="evenodd" d="M64.2873 49.1967L64.1213 49.0366C63.395 48.3388 62.8583 47.8666 62.3535 47.5082C56.6977 43.4925 48.8961 44.5559 44.5215 49.9388C43.9931 50.5889 43.4642 51.4552 42.6328 52.9093L41.2688 52.4825C38.1221 51.8531 36.5488 51.5384 35.1047 51.5691C31.2402 51.6512 27.6072 53.428 25.1698 56.4281C24.3573 57.4282 23.6985 58.6783 22.5469 60.9744C22.6889 61.2257 22.8419 61.4631 23.0066 61.6897L23.0823 61.7926C23.7573 62.6998 24.5662 63.4996 25.4814 64.1645C26.8185 65.136 28.5299 65.7022 31.2618 65.9982C34.0306 66.2982 37.6061 66.3009 42.5849 66.3009C47.5637 66.3009 51.1392 66.2982 53.908 65.9982C56.6399 65.7022 58.3513 65.136 59.6884 64.1645C60.6381 63.4745 61.4732 62.6394 62.1632 61.6897C63.6415 59.6549 64.1416 56.8323 64.2605 51.0861C64.273 50.4836 64.2815 49.8547 64.2873 49.1967ZM39.9528 41.9541C37.0455 41.9541 34.6886 39.5973 34.6886 36.6899C34.6886 33.7826 37.0455 31.4258 39.9528 31.4258C42.8601 31.4258 45.217 33.7826 45.217 36.6899C45.217 39.5973 42.8601 41.9541 39.9528 41.9541Z" fill="url(#paint1_linear_1301_2999)"/>
</g>
</g>
</g>
<defs>
<filter id="filter0_b_1301_2999" x="-8.07812" y="-6.07812" width="101.324" height="101.324" filterUnits="userSpaceOnUse" color-interpolation-filters="sRGB">
<feFlood flood-opacity="0" result="BackgroundImageFix"/>
<feGaussianBlur in="BackgroundImage" stdDeviation="12"/>
<feComposite in2="SourceAlpha" operator="in" result="effect1_backgroundBlur_1301_2999"/>
<feBlend mode="normal" in="SourceGraphic" in2="effect1_backgroundBlur_1301_2999" result="shape"/>
</filter>
<filter id="filter1_d_1301_2999" x="19.5469" y="28.4258" width="57.7422" height="50.875" filterUnits="userSpaceOnUse" color-interpolation-filters="sRGB">
<feFlood flood-opacity="0" result="BackgroundImageFix"/>
<feColorMatrix in="SourceAlpha" type="matrix" values="0 0 0 0 0 0 0 0 0 0 0 0 0 0 0 0 0 0 127 0" result="hardAlpha"/>
<feOffset dx="5" dy="5"/>
<feGaussianBlur stdDeviation="4"/>
<feColorMatrix type="matrix" values="0 0 0 0 0.176471 0 0 0 0 0.556863 0 0 0 0 0.678431 0 0 0 0.5 0"/>
<feBlend mode="normal" in2="BackgroundImageFix" result="effect1_dropShadow_1301_2999"/>
<feBlend mode="normal" in="SourceGraphic" in2="effect1_dropShadow_1301_2999" result="shape"/>
</filter>
<filter id="filter2_b_1301_2999" x="-1.45312" y="7.42578" width="89.7422" height="82.875" filterUnits="userSpaceOnUse" color-interpolation-filters="sRGB">
<feFlood flood-opacity="0" result="BackgroundImageFix"/>
<feGaussianBlur in="BackgroundImage" stdDeviation="12"/>
<feComposite in2="SourceAlpha" operator="in" result="effect1_backgroundBlur_1301_2999"/>
<feBlend mode="normal" in="SourceGraphic" in2="effect1_backgroundBlur_1301_2999" result="shape"/>
</filter>
<linearGradient id="paint0_linear_1301_2999" x1="16.9219" y1="18.9219" x2="68.2735" y2="70.2215" gradientUnits="userSpaceOnUse">
<stop stop-color="white" stop-opacity="0.25"/>
<stop offset="1" stop-color="white" stop-opacity="0"/>
</linearGradient>
<linearGradient id="paint1_linear_1301_2999" x1="43.7685" y1="73.7308" x2="91.3035" y2="17.9622" gradientUnits="userSpaceOnUse">
<stop stop-color="white"/>
<stop offset="1" stop-color="white" stop-opacity="0.2"/>
</linearGradient>
<clipPath id="clip0_1301_2999">
<rect width="63.17" height="63.17" fill="white" transform="translate(11 13)"/>
</clipPath>
</defs>
</svg>
