<svg width="24" height="24" viewBox="0 0 24 24" fill="none" xmlns="http://www.w3.org/2000/svg">
<path d="M14.8204 4.25977C14.6218 4.61545 14.4448 4.98279 14.2904 5.35977C12.7732 5.11982 11.2276 5.11982 9.7104 5.35977C9.55599 4.98279 9.37901 4.61545 9.1804 4.25977C7.75119 4.50397 6.36181 4.9413 5.05041 5.55977C2.70535 8.94405 1.64184 13.0527 2.05041 17.1498C3.57864 18.2986 5.29386 19.1748 7.1204 19.7398C7.53632 19.1904 7.90751 18.6085 8.2304 17.9998C7.63448 17.78 7.0617 17.502 6.5204 17.1698C6.66887 17.071 6.8093 16.9606 6.9404 16.8398C8.51886 17.6001 10.2484 17.9949 12.0004 17.9949C13.7524 17.9949 15.4819 17.6001 17.0604 16.8398C17.2004 16.9598 17.3404 17.0698 17.4804 17.1698C16.9362 17.4994 16.364 17.7805 15.7704 18.0098C16.0799 18.6323 16.4412 19.2277 16.8504 19.7898C18.6747 19.2268 20.3869 18.3504 21.9104 17.1998C22.3288 13.102 21.2644 8.98995 18.9104 5.60977C17.6137 4.9785 16.2381 4.52444 14.8204 4.25977ZM8.6804 14.8098C8.17999 14.7738 7.71295 14.5455 7.37733 14.1725C7.0417 13.7996 6.8636 13.3112 6.8804 12.8098C6.86106 12.3077 7.03829 11.8178 7.37442 11.4444C7.71054 11.0709 8.17906 10.8432 8.6804 10.8098C9.18174 10.8432 9.65027 11.0709 9.98639 11.4444C10.3225 11.8178 10.4997 12.3077 10.4804 12.8098C10.4997 13.3118 10.3225 13.8017 9.98639 14.1752C9.65027 14.5486 9.18174 14.7763 8.6804 14.8098ZM15.3204 14.8098C14.82 14.7738 14.3529 14.5455 14.0173 14.1725C13.6817 13.7996 13.5036 13.3112 13.5204 12.8098C13.5011 12.3077 13.6783 11.8178 14.0144 11.4444C14.3505 11.0709 14.8191 10.8432 15.3204 10.8098C15.8227 10.8407 16.2927 11.0677 16.6294 11.4417C16.966 11.8158 17.1423 12.307 17.1204 12.8098C17.1423 13.3125 16.966 13.8038 16.6294 14.1778C16.2927 14.5519 15.8227 14.7788 15.3204 14.8098Z" fill="#0d99ff"/>
</svg>
