<svg width="45" height="45" viewBox="0 0 45 45" fill="none" xmlns="http://www.w3.org/2000/svg">
<path d="M22.5 0C18.0499 0 13.6998 1.3196 9.99968 3.79193C6.29957 6.26426 3.41569 9.77828 1.71272 13.8896C0.00974882 18.001 -0.435826 22.525 0.432341 26.8895C1.30051 31.2541 3.44343 35.2632 6.59011 38.4099C9.73679 41.5566 13.7459 43.6995 18.1105 44.5677C22.475 45.4358 26.999 44.9902 31.1104 43.2873C35.2217 41.5843 38.7357 38.7004 41.2081 35.0003C43.6804 31.3002 45 26.9501 45 22.5C44.9886 16.5361 42.6144 10.8198 38.3973 6.60273C34.1802 2.38564 28.4639 0.011436 22.5 0ZM31.1538 24.2308H18.0216L22.4135 28.6226C22.7371 28.9471 22.9189 29.3866 22.9189 29.8449C22.9189 30.3032 22.7371 30.7428 22.4135 31.0673C22.2523 31.2294 22.0599 31.3572 21.848 31.4427C21.636 31.5282 21.4088 31.5698 21.1803 31.5649C20.955 31.5694 20.7313 31.5275 20.5228 31.4419C20.3144 31.3563 20.1258 31.2288 19.9688 31.0673L12.6346 23.7332C12.4715 23.571 12.3396 23.3804 12.2452 23.1707C12.0719 22.7403 12.0719 22.2597 12.2452 21.8293C12.3396 21.6196 12.4715 21.429 12.6346 21.2668L19.9688 13.9327C20.298 13.6344 20.7293 13.4741 21.1735 13.485C21.6176 13.496 22.0406 13.6773 22.3547 13.9914C22.6689 14.3056 22.8502 14.7285 22.8611 15.1727C22.8721 15.6168 22.7118 16.0482 22.4135 16.3774L18.0216 20.7692H31.1538C31.6129 20.7692 32.0531 20.9516 32.3777 21.2762C32.7023 21.6007 32.8846 22.041 32.8846 22.5C32.8846 22.959 32.7023 23.3993 32.3777 23.7238C32.0531 24.0484 31.6129 24.2308 31.1538 24.2308Z" fill="#009987" fill-opacity="0.4"/>
</svg>
