<svg width="387" height="363" viewBox="0 0 387 363" fill="none" xmlns="http://www.w3.org/2000/svg">
<circle cx="193.611" cy="195.611" r="161.611" fill="#FBFBFB"/>
<circle cx="192.289" cy="195.885" r="95.6393" fill="#F1F1F1" stroke="#0D99FF" stroke-width="2"/>
<circle cx="192.289" cy="195.884" r="68.0281" fill="#FFFEFF" stroke="#0D99FF" stroke-width="2"/>
<path d="M192.289 145.136C192.289 144.123 191.467 143.297 190.454 143.333C177.771 143.775 165.652 148.793 156.356 157.493C147.061 166.193 141.253 177.954 139.973 190.58C139.871 191.589 140.64 192.464 141.651 192.531C142.663 192.598 143.533 191.831 143.638 190.823C144.855 179.127 150.249 168.237 158.865 160.173C167.48 152.11 178.703 147.447 190.454 147.006C191.467 146.968 192.289 146.15 192.289 145.136Z" fill="#0D99FF"/>
<rect x="267.634" y="298.367" width="29.0197" height="92.0656" rx="13" transform="rotate(-45 267.634 298.367)" fill="#F3FAFF" stroke="#0D99FF" stroke-width="2"/>
<rect x="299.135" y="305.953" width="4.387" height="36.7838" rx="2.1935" transform="rotate(-45 299.135 305.953)" fill="white"/>
<rect x="262.663" y="276.059" width="4.50328" height="18.0131" transform="rotate(-45 262.663 276.059)" fill="#0D99FF"/>
<rect x="310.444" y="184.547" width="45.0328" height="4.50328" rx="2" fill="#0D99FF"/>
<rect x="32" y="221.797" width="45.0328" height="4.50328" rx="2" fill="#0D99FF"/>
<rect x="364.484" y="184.547" width="22.5164" height="4.50328" rx="2" fill="#0D99FF"/>
<rect x="321.702" y="201.066" width="22.5164" height="4.50328" rx="2" fill="#0D99FF"/>
<rect x="43.2582" y="238.32" width="22.5164" height="4.50328" rx="2" fill="#0D99FF"/>
<rect x="0.659529" y="33.2589" width="78.8811" height="78.8811" rx="30.5" transform="rotate(-23.8621 0.659529 33.2589)" fill="white" stroke="#FF0000"/>
<rect x="25.8557" y="53.4805" width="13.8256" height="4.60852" transform="rotate(-23.8621 25.8557 53.4805)" fill="#FF0000"/>
<rect x="58.1674" y="39.1875" width="13.8256" height="4.60852" transform="rotate(-23.8621 58.1674 39.1875)" fill="#FF0000"/>
<rect x="43.3091" y="62.5586" width="26.115" height="4.60852" transform="rotate(-23.8621 43.3091 62.5586)" fill="#FF0000"/>
</svg>
