<svg width="18" height="20" viewBox="0 0 18 20" fill="none" xmlns="http://www.w3.org/2000/svg">
<path d="M15 14.0781C15.8125 14.0781 16.5 14.375 17.0625 14.9688C17.625 15.5312 17.9062 16.2031 17.9062 16.9844C17.9062 17.7969 17.6094 18.5 17.0156 19.0938C16.4531 19.6562 15.7812 19.9375 15 19.9375C14.2188 19.9375 13.5312 19.6562 12.9375 19.0938C12.375 18.5 12.0938 17.7969 12.0938 16.9844C12.0938 16.6719 12.1094 16.4531 12.1406 16.3281L5.0625 12.2031C4.46875 12.7344 3.78125 13 3 13C2.1875 13 1.48438 12.7031 0.890625 12.1094C0.296875 11.5156 0 10.8125 0 10C0 9.1875 0.296875 8.48438 0.890625 7.89062C1.48438 7.29688 2.1875 7 3 7C3.78125 7 4.46875 7.26562 5.0625 7.79688L12.0938 3.71875C12.0312 3.40625 12 3.17188 12 3.01562C12 2.20312 12.2969 1.5 12.8906 0.90625C13.4844 0.3125 14.1875 0.015625 15 0.015625C15.8125 0.015625 16.5156 0.3125 17.1094 0.90625C17.7031 1.5 18 2.20312 18 3.01562C18 3.82812 17.7031 4.53125 17.1094 5.125C16.5156 5.71875 15.8125 6.01562 15 6.01562C14.25 6.01562 13.5625 5.73438 12.9375 5.17188L5.90625 9.29688C5.96875 9.60938 6 9.84375 6 10C6 10.1562 5.96875 10.3906 5.90625 10.7031L13.0312 14.8281C13.5938 14.3281 14.25 14.0781 15 14.0781Z" fill="#707A83"/>
</svg>
