<svg width="21" height="10" viewBox="0 0 21 10" fill="none" xmlns="http://www.w3.org/2000/svg">
<path d="M20.4018 0.709379C20.3324 0.572878 20.2158 0.456414 20.0667 0.374666C19.9175 0.292917 19.7424 0.24954 19.5635 0.250004H1.43849C1.25957 0.24954 1.08449 0.292917 0.935313 0.374666C0.786136 0.456414 0.669535 0.572878 0.600205 0.709379C0.534914 0.847912 0.51835 0.998913 0.55243 1.14491C0.586511 1.29091 0.669842 1.42594 0.792783 1.53438L9.85529 9.03438C10.0285 9.173 10.26 9.25048 10.501 9.25048C10.7419 9.25048 10.9735 9.173 11.1467 9.03438L20.2092 1.53438C20.3321 1.42594 20.4155 1.29091 20.4495 1.14491C20.4836 0.998913 20.4671 0.847912 20.4018 0.709379V0.709379Z" fill="#009987" fill-opacity="0.65"/>
</svg>
