<svg width="6" height="9" viewBox="0 0 6 9" fill="none" xmlns="http://www.w3.org/2000/svg">
<path d="M2.26541 5.78809H3.27615V5.50977C3.27615 5.0166 3.45681 4.75293 4.0867 4.38184C4.73123 3.99609 5.11209 3.46387 5.11209 2.71191V2.70703C5.11209 1.65723 4.23806 0.895508 2.95388 0.895508C1.53787 0.895508 0.805447 1.73535 0.74197 2.78516L0.737088 2.84375H1.74783L1.75271 2.7998C1.80642 2.2041 2.22635 1.79395 2.90017 1.79395C3.56424 1.79395 4.00369 2.19434 4.00369 2.75098V2.75586C4.00369 3.25391 3.79373 3.53711 3.20291 3.89355C2.53396 4.29395 2.24588 4.7334 2.26053 5.39746L2.26541 5.78809ZM2.7781 8.05371C3.14431 8.05371 3.42263 7.77539 3.42263 7.41895C3.42263 7.0625 3.14431 6.78906 2.7781 6.78906C2.42166 6.78906 2.13845 7.0625 2.13845 7.41895C2.13845 7.77539 2.42166 8.05371 2.7781 8.05371Z" fill="#009987"/>
</svg>
