<svg width="24" height="24" viewBox="0 0 24 24" fill="none" xmlns="http://www.w3.org/2000/svg">
<path fill-rule="evenodd" clip-rule="evenodd" d="M5.25 12.75C7.06422 12.75 8.57752 11.4616 8.925 9.75H12.825C13.1725 11.4616 14.6858 12.75 16.5 12.75C18.3142 12.75 19.8275 11.4616 20.175 9.75H22.5V8.25H20.175C19.8275 6.53832 18.3142 5.25 16.5 5.25C14.6858 5.25 13.1725 6.53832 12.825 8.25H8.925C8.57752 6.53832 7.06422 5.25 5.25 5.25C3.17894 5.25 1.5 6.92894 1.5 9C1.5 11.0711 3.17894 12.75 5.25 12.75ZM14.25 9C14.25 10.2427 15.2573 11.25 16.5 11.25C17.7427 11.25 18.75 10.2427 18.75 9C18.75 7.75732 17.7427 6.75 16.5 6.75C15.2573 6.75 14.25 7.75732 14.25 9ZM5.25 11.25C4.00736 11.25 3 10.2427 3 9C3 7.75732 4.00736 6.75 5.25 6.75C6.49264 6.75 7.5 7.75732 7.5 9C7.5 10.2427 6.49264 11.25 5.25 11.25ZM3.75 19.5V15H2.25V19.5H3.75ZM8.25 19.5V17.25H6.75V19.5H8.25ZM11.25 15H12.75V19.5H11.25V15ZM17.25 19.5V17.25H15.75V19.5H17.25ZM20.25 15H21.75V19.5H20.25V15Z" fill="#212529"/>
</svg>
