<svg width="20" height="15" viewBox="0 0 20 15" fill="none" xmlns="http://www.w3.org/2000/svg">
<path fill-rule="evenodd" clip-rule="evenodd" d="M13.12 7.38383L7.88574 10.5352V4.23242L13.12 7.38383Z" fill="white"/>
<path d="M2.97406 1.2444C4.24962 0.655433 5.59907 0.236944 6.98674 0C7.15958 0.308383 7.36153 0.723159 7.5008 1.05313C8.99692 0.831126 10.4793 0.831126 11.948 1.05313C12.0872 0.723234 12.2936 0.308383 12.4681 0C13.8572 0.237054 15.2077 0.656608 16.4839 1.24748C19.0234 5.03452 19.7118 8.72739 19.3676 12.368C17.6832 13.6093 16.051 14.3633 14.4462 14.8567C14.0473 14.3155 13.6948 13.7424 13.3921 13.1436C13.9684 12.9271 14.5238 12.6603 15.052 12.3464C14.913 12.2447 14.7772 12.1388 14.645 12.0287C11.4447 13.5059 7.96738 13.5059 4.8052 12.0287C4.67238 12.1381 4.53672 12.244 4.39834 12.3464C4.92733 12.6612 5.48383 12.9285 6.06118 13.1451C5.75682 13.7465 5.40489 14.32 5.00714 14.8582C3.40083 14.3649 1.76702 13.6108 0.082675 12.368C-0.32122 8.14768 0.772549 4.48861 2.97406 1.24433V1.2444ZM12.9561 10.1291C13.9168 10.1291 14.7048 9.24403 14.7048 8.16616C14.7048 7.08838 13.9336 6.20177 12.9561 6.20177C11.9785 6.20177 11.1907 7.08681 11.2075 8.16616C11.206 9.24403 11.9785 10.1291 12.9561 10.1291ZM6.49418 10.1291C7.4549 10.1291 8.24268 9.24403 8.24268 8.16616C8.24268 7.08838 7.4717 6.20177 6.49418 6.20177C5.51658 6.20177 4.72877 7.08681 4.74555 8.16616C4.74555 9.24403 5.51658 10.1291 6.49418 10.1291Z" fill="#5865F2"/>
</svg>
