<svg width="13" height="14" viewBox="0 0 13 14" fill="none" xmlns="http://www.w3.org/2000/svg">
<path d="M11.2563 6.57445L2.2625 1.07445C2.18679 1.02775 2.09999 1.00209 2.01106 1.00012C1.92212 0.998155 1.83427 1.01995 1.75657 1.06326C1.67887 1.10657 1.61413 1.16982 1.56903 1.2465C1.52393 1.32317 1.5001 1.41049 1.5 1.49945V12.4994C1.5001 12.5884 1.52393 12.6757 1.56903 12.7524C1.61413 12.8291 1.67887 12.8923 1.75657 12.9356C1.83427 12.9789 1.92212 13.0007 2.01106 12.9988C2.09999 12.9968 2.18679 12.9711 2.2625 12.9244L11.2563 7.42445C11.3301 7.38078 11.3913 7.31861 11.4338 7.24409C11.4763 7.16956 11.4987 7.08525 11.4987 6.99945C11.4987 6.91365 11.4763 6.82933 11.4338 6.75481C11.3913 6.68028 11.3301 6.61812 11.2563 6.57445V6.57445Z" stroke="#009987" stroke-width="1.5" stroke-linecap="round" stroke-linejoin="round"/>
</svg>
