<svg width="148" height="169" viewBox="0 0 148 169" fill="none" xmlns="http://www.w3.org/2000/svg">
<path d="M105.482 119.875L105.483 119.875C113.522 112.159 118.283 100.655 118.283 85.4807C118.283 69.9885 108.934 52.9374 99.3134 39.4195C89.6103 25.7884 79.2456 15.2362 76.5173 12.6176L105.482 119.875ZM105.482 119.875C97.4592 127.585 86.4482 131.23 74.5301 131.23C62.6175 131.23 51.6063 127.586 43.5777 119.875L43.5774 119.875M105.482 119.875L43.5774 119.875M43.5774 119.875C35.5383 112.159 30.7777 100.65 30.7777 85.4807M43.5774 119.875L30.7777 85.4807M74.5301 11.8324C73.7761 11.8324 73.062 12.1201 72.5426 12.618C69.8136 15.2373 59.4495 25.7891 49.747 39.4194L74.5301 11.8324ZM74.5301 11.8324C75.284 11.8324 75.9978 12.1199 76.5172 12.6175L74.5301 11.8324ZM30.7777 85.4807C30.7777 69.9885 40.1268 52.9374 49.7469 39.4195L30.7777 85.4807Z" fill="url(#paint0_linear_5263_42085)" stroke="#262626" stroke-width="2.35226"/>
<ellipse rx="11.8756" ry="10.8891" transform="matrix(0.802982 -0.596003 0.627429 0.778674 29.7626 86.5809)" fill="#68BFFF"/>
<path d="M28.896 84.0922C29.7594 84.1654 30.5652 84.5138 31.1878 85.0746C31.81 85.6349 32.2167 86.3776 32.3452 87.1846C32.4737 87.992 32.3172 88.8234 31.8929 89.5447C31.4683 90.2667 30.8009 90.8348 29.9954 91.1538" stroke="#262626" stroke-width="1.97633" stroke-linecap="round" stroke-linejoin="round"/>
<path d="M36.029 78.4057C34.3201 77.0624 32.2347 76.2356 30.0362 76.0298C27.8378 75.8241 25.6252 76.2487 23.6782 77.2498C21.7312 78.251 20.1372 79.7838 19.0979 81.6545C18.0586 83.5251 17.6205 85.6495 17.8392 87.7591C18.0578 89.8687 18.9233 91.8686 20.3263 93.5061C21.7292 95.1436 23.6066 96.3449 25.7209 96.9584C27.8353 97.5718 30.0917 97.5697 32.2048 96.9523C34.3179 96.3349 36.1928 95.13 37.5924 93.4899" stroke="#262626" stroke-width="2.35226" stroke-linecap="round" stroke-linejoin="round"/>
<path d="M85.2144 103.762C85.2376 106.698 84.0631 108.992 81.2545 109.999C78.353 111.038 75.3123 111.206 73.0097 108.703C70.9346 106.447 70.4611 103.636 71.5288 100.694C72.2577 98.685 73.8082 97.8833 75.8137 98.4659C76.8536 98.769 77.8006 99.1326 78.873 98.7829C83.5013 97.2773 85.219 98.6244 85.2144 103.762Z" fill="#0B0F0F"/>
<path d="M76.3798 104.059C78.701 103.886 80.4604 104.856 81.7417 106.744C82.0852 107.252 81.9459 107.811 81.426 108.105C79.4391 109.238 77.4011 109.061 75.3817 108.198C74.1422 107.667 73.0281 106.623 73.2463 105.364C73.5109 103.816 75.1682 104.143 76.3798 104.059Z" fill="#F2BED5"/>
<path d="M83.2275 105.657C80.6046 102.725 77.7636 102.067 74.5557 102.501C73.9708 102.58 73.047 103.41 72.9309 102.011C72.8613 101.158 73.5112 100.333 74.1658 100.413C76.7283 100.72 79.1377 100.296 81.6492 99.9837C83.8496 99.718 83.5154 103.046 83.2275 105.657Z" fill="#A09DCA"/>
<path d="M68.8495 86.0498C68.8263 89.2616 66.3287 91.8581 64.1886 94.5991C63.9008 94.9674 63.0095 95.028 62.4199 94.972C59.0682 94.6504 55.9717 93.5689 53.4881 91.2334C51.4455 89.3129 50.7213 86.8003 51.9794 84.2411C53.191 81.7704 55.3311 80.6936 58.0793 81.9056C58.9939 82.3065 59.4349 81.9056 59.9641 81.3136C61.6632 79.4163 63.7058 78.9968 65.9852 80.1062C68.1764 81.1691 68.7752 83.1549 68.8495 86.0498Z" fill="#0B0D0C"/>
<path d="M67.0754 84.8392C66.7736 88.1489 65.4645 90.1954 64.0625 92.1998C63.4265 93.1135 62.5259 93.23 61.5278 93.0622C58.5985 92.5774 56.166 91.1417 54.1883 88.974C52.9953 87.6688 52.7307 86.0605 53.868 84.6248C54.9915 83.203 56.5791 82.8627 58.074 84.0234C59.4017 85.0536 60.1305 84.6621 60.7479 83.3428C61.6439 81.4362 63.2316 81.054 64.9956 81.702C66.7226 82.3359 67.2703 83.8183 67.0754 84.8392Z" fill="#F4A4C7"/>
<path d="M86.6021 82.3085C86.4581 80.4858 87.1684 78.9429 88.9186 77.9453C90.8173 76.8638 92.6046 77.1528 94.1319 78.6212C94.9768 79.4323 95.5849 79.768 96.8383 79.2086C98.5374 78.4487 100.218 79.1573 101.397 80.5231C102.688 82.0195 102.739 83.7862 101.889 85.5716C100.515 88.4711 95.1114 91.5338 92.1125 91.1003C89.9538 90.7926 86.6578 85.6229 86.6021 82.3085Z" fill="#0F1311"/>
<path d="M88.3809 82.6806C88.4041 81.3661 88.5248 80.1074 90.0196 79.5807C91.4541 79.0726 92.8514 79.1984 93.6684 80.5316C94.4762 81.8555 95.1865 82.3683 96.6256 81.4267C97.9626 80.5503 99.3274 80.7927 100.27 82.0746C101.268 83.4311 100.576 84.8063 99.6895 85.8505C97.8976 87.9529 95.4511 88.9877 92.7586 89.1835C90.767 89.328 88.3762 85.6174 88.3809 82.6806Z" fill="#F3A4C6"/>
<ellipse cx="42.5512" cy="69.2482" rx="1.85" ry="1.77557" fill="#262626"/>
<rect width="5.02497" height="25.0983" rx="2.51249" transform="matrix(0.887194 0.461396 -0.491632 0.870803 55.7773 42.1094)" fill="#262626"/>
<path d="M98.438 4.2512L78.1278 33.0658L87.7362 34.761L82.7115 53.8613L101.231 26.2458L91.1466 25.9066L98.438 4.2512Z" fill="url(#paint1_linear_5263_42085)"/>
<g filter="url(#filter0_f_5263_42085)">
<ellipse cx="73.5753" cy="148.852" rx="29.3448" ry="9.35632" fill="#E5E8EB"/>
</g>
<defs>
<filter id="filter0_f_5263_42085" x="34.2305" y="129.496" width="78.6895" height="38.7109" filterUnits="userSpaceOnUse" color-interpolation-filters="sRGB">
<feFlood flood-opacity="0" result="BackgroundImageFix"/>
<feBlend mode="normal" in="SourceGraphic" in2="BackgroundImageFix" result="shape"/>
<feGaussianBlur stdDeviation="5" result="effect1_foregroundBlur_5263_42085"/>
</filter>
<linearGradient id="paint0_linear_5263_42085" x1="74.8515" y1="-16.5854" x2="74.8515" y2="63.3686" gradientUnits="userSpaceOnUse">
<stop stop-color="#FF0000"/>
<stop offset="1" stop-color="#68BFFF"/>
</linearGradient>
<linearGradient id="paint1_linear_5263_42085" x1="86.6438" y1="5.74865" x2="92.4312" y2="51.3316" gradientUnits="userSpaceOnUse">
<stop stop-color="#FFB800"/>
<stop offset="1" stop-color="#FFEEB4"/>
</linearGradient>
</defs>
</svg>
