<svg width="28" height="20" viewBox="0 0 28 20" fill="none" xmlns="http://www.w3.org/2000/svg">
<path d="M8.00579 16.651C7.66312 16.6515 7.33224 16.5259 7.07619 16.2982L-0.0078125 10.001L7.46959 3.35382C7.7483 3.11539 8.10945 2.99586 8.47537 3.02094C8.8413 3.04601 9.18277 3.21368 9.42635 3.4879C9.66994 3.76212 9.79618 4.12097 9.77794 4.4873C9.75969 4.85363 9.59841 5.19817 9.32879 5.44682L4.20619 10.001L8.93539 14.2038C9.14785 14.3923 9.29795 14.641 9.36575 14.9169C9.43354 15.1927 9.41583 15.4826 9.31497 15.7482C9.2141 16.0137 9.03485 16.2423 8.80102 16.4035C8.56719 16.5648 8.28983 16.6511 8.00579 16.651ZM20.5288 16.6482L28.0062 10.001L20.9222 3.70382C20.6446 3.45728 20.2805 3.33109 19.9099 3.35301C19.5393 3.37493 19.1926 3.54317 18.9461 3.82072C18.6995 4.09827 18.5734 4.46239 18.5953 4.83298C18.6172 5.20357 18.7854 5.55028 19.063 5.79682L23.7922 10.001L18.6696 14.5538C18.3919 14.8004 18.2234 15.1471 18.2014 15.5179C18.1793 15.8886 18.3054 16.2529 18.552 16.5306C18.7985 16.8084 19.1453 16.9768 19.516 16.9988C19.8868 17.0209 20.2511 16.8948 20.5288 16.6482ZM13.9796 18.632L16.7796 1.83202C16.8154 1.64842 16.814 1.4595 16.7756 1.27642C16.7372 1.09335 16.6624 0.919836 16.5558 0.76613C16.4492 0.612423 16.3129 0.481642 16.1549 0.381512C15.9968 0.281382 15.8204 0.213932 15.6359 0.183149C15.4513 0.152365 15.2625 0.158872 15.0806 0.202284C14.8986 0.245695 14.7272 0.325133 14.5765 0.435902C14.4257 0.546672 14.2987 0.686528 14.2029 0.847209C14.1071 1.00789 14.0445 1.18614 14.0188 1.37142L11.2188 18.1714C11.183 18.355 11.1843 18.5439 11.2228 18.727C11.2612 18.9101 11.3359 19.0836 11.4426 19.2373C11.5492 19.391 11.6855 19.5218 11.8435 19.6219C12.0015 19.7221 12.178 19.7895 12.3625 19.8203C12.547 19.8511 12.7358 19.8446 12.9178 19.8012C13.0998 19.7577 13.2712 19.6783 13.4219 19.5675C13.5727 19.4568 13.6997 19.3169 13.7955 19.1562C13.8912 18.9956 13.9538 18.8173 13.9796 18.632Z" fill="#2C3857"/>
</svg>
