<svg width="52" height="52" viewBox="0 0 52 52" fill="none" xmlns="http://www.w3.org/2000/svg">
<g filter="url(#filter0_d_4036_34106)">
<rect x="4" width="44" height="44" rx="22" fill="#009987" fill-opacity="0.12"/>
<path d="M14.5156 16.7334C14.3281 16.6397 14.1953 16.5381 14.1172 16.4288C14.0391 16.3194 14 16.1709 14 15.9834C14 15.7959 14.0391 15.6475 14.1172 15.5381C14.1953 15.4288 14.3281 15.3272 14.5156 15.2334L24.4688 10.2647C24.875 10.0668 25.3854 9.97824 26 9.99907C26.6146 9.97824 27.125 10.0668 27.5312 10.2647L37.4844 15.2334C37.6719 15.3272 37.8047 15.4288 37.8828 15.5381C37.9609 15.6475 38 15.7959 38 15.9834C38 16.1709 37.9609 16.3194 37.8828 16.4288C37.8047 16.5381 37.6719 16.6397 37.4844 16.7334L27.5312 21.7022C27.125 21.9001 26.6146 21.9887 26 21.9678C25.3854 21.9887 24.875 21.9001 24.4688 21.7022L14.5156 16.7334ZM14.5156 28.7647C14.3281 28.6709 14.1953 28.5694 14.1172 28.46C14.0391 28.3506 14 28.2022 14 28.0147C14 27.8272 14.0391 27.6788 14.1172 27.5694C14.1953 27.46 14.3281 27.3584 14.5156 27.2647L17.0156 26.0147L24.4688 29.7334C24.8854 29.9314 25.3958 30.0147 26 29.9834C26.6042 30.0147 27.1146 29.9314 27.5312 29.7334L34.9844 26.0147L37.4844 27.2647C37.6719 27.3584 37.8047 27.46 37.8828 27.5694C37.9609 27.6788 38 27.8272 38 28.0147C38 28.2022 37.9609 28.3506 37.8828 28.46C37.8047 28.5694 37.6719 28.6709 37.4844 28.7647L27.5312 33.7334C27.1146 33.9314 26.6042 34.0147 26 33.9834C25.3958 34.0147 24.8854 33.9314 24.4688 33.7334L14.5156 28.7647ZM14.5156 22.7647C14.3281 22.6709 14.1953 22.5694 14.1172 22.46C14.0391 22.3506 14 22.2022 14 22.0147C14 21.8272 14.0391 21.6788 14.1172 21.5694C14.1953 21.46 14.3281 21.3584 14.5156 21.2647L17.0156 20.0147L24.4688 23.7334C24.8854 23.9314 25.3958 24.0147 26 23.9834C26.6042 24.0147 27.1146 23.9314 27.5312 23.7334L34.9844 20.0147L37.4844 21.2647C37.6719 21.3584 37.8047 21.46 37.8828 21.5694C37.9609 21.6788 38 21.8272 38 22.0147C38 22.2022 37.9609 22.3506 37.8828 22.46C37.8047 22.5694 37.6719 22.6709 37.4844 22.7647L27.5312 27.7334C27.1146 27.9314 26.6042 28.0147 26 27.9834C25.3958 28.0147 24.8854 27.9314 24.4688 27.7334L14.5156 22.7647Z" fill="#0D99FF"/>
</g>
<defs>
<filter id="filter0_d_4036_34106" x="0" y="0" width="52" height="52" filterUnits="userSpaceOnUse" color-interpolation-filters="sRGB">
<feFlood flood-opacity="0" result="BackgroundImageFix"/>
<feColorMatrix in="SourceAlpha" type="matrix" values="0 0 0 0 0 0 0 0 0 0 0 0 0 0 0 0 0 0 127 0" result="hardAlpha"/>
<feOffset dy="4"/>
<feGaussianBlur stdDeviation="2"/>
<feComposite in2="hardAlpha" operator="out"/>
<feColorMatrix type="matrix" values="0 0 0 0 0 0 0 0 0 0 0 0 0 0 0 0 0 0 0.25 0"/>
<feBlend mode="normal" in2="BackgroundImageFix" result="effect1_dropShadow_4036_34106"/>
<feBlend mode="normal" in="SourceGraphic" in2="effect1_dropShadow_4036_34106" result="shape"/>
</filter>
</defs>
</svg>
