<svg width="44" height="44" viewBox="0 0 44 44" fill="none" xmlns="http://www.w3.org/2000/svg">
<rect width="44" height="44" rx="22" fill="#DBF0FF"/>
<path d="M10.5156 16.7334C10.3281 16.6397 10.1953 16.5381 10.1172 16.4288C10.0391 16.3194 10 16.1709 10 15.9834C10 15.7959 10.0391 15.6475 10.1172 15.5381C10.1953 15.4288 10.3281 15.3272 10.5156 15.2334L20.4688 10.2647C20.875 10.0668 21.3854 9.97824 22 9.99907C22.6146 9.97824 23.125 10.0668 23.5312 10.2647L33.4844 15.2334C33.6719 15.3272 33.8047 15.4288 33.8828 15.5381C33.9609 15.6475 34 15.7959 34 15.9834C34 16.1709 33.9609 16.3194 33.8828 16.4288C33.8047 16.5381 33.6719 16.6397 33.4844 16.7334L23.5312 21.7022C23.125 21.9001 22.6146 21.9887 22 21.9678C21.3854 21.9887 20.875 21.9001 20.4688 21.7022L10.5156 16.7334ZM10.5156 28.7647C10.3281 28.6709 10.1953 28.5694 10.1172 28.46C10.0391 28.3506 10 28.2022 10 28.0147C10 27.8272 10.0391 27.6788 10.1172 27.5694C10.1953 27.46 10.3281 27.3584 10.5156 27.2647L13.0156 26.0147L20.4688 29.7334C20.8854 29.9314 21.3958 30.0147 22 29.9834C22.6042 30.0147 23.1146 29.9314 23.5312 29.7334L30.9844 26.0147L33.4844 27.2647C33.6719 27.3584 33.8047 27.46 33.8828 27.5694C33.9609 27.6788 34 27.8272 34 28.0147C34 28.2022 33.9609 28.3506 33.8828 28.46C33.8047 28.5694 33.6719 28.6709 33.4844 28.7647L23.5312 33.7334C23.1146 33.9314 22.6042 34.0147 22 33.9834C21.3958 34.0147 20.8854 33.9314 20.4688 33.7334L10.5156 28.7647ZM10.5156 22.7647C10.3281 22.6709 10.1953 22.5694 10.1172 22.46C10.0391 22.3506 10 22.2022 10 22.0147C10 21.8272 10.0391 21.6788 10.1172 21.5694C10.1953 21.46 10.3281 21.3584 10.5156 21.2647L13.0156 20.0147L20.4688 23.7334C20.8854 23.9314 21.3958 24.0147 22 23.9834C22.6042 24.0147 23.1146 23.9314 23.5312 23.7334L30.9844 20.0147L33.4844 21.2647C33.6719 21.3584 33.8047 21.46 33.8828 21.5694C33.9609 21.6788 34 21.8272 34 22.0147C34 22.2022 33.9609 22.3506 33.8828 22.46C33.8047 22.5694 33.6719 22.6709 33.4844 22.7647L23.5312 27.7334C23.1146 27.9314 22.6042 28.0147 22 27.9834C21.3958 28.0147 20.8854 27.9314 20.4688 27.7334L10.5156 22.7647Z" fill="#0D99FF"/>
</svg>
