<svg width="256" height="199" viewBox="0 0 256 199" fill="none" xmlns="http://www.w3.org/2000/svg">
<path d="M216.856 16.597C200.067 8.74172 182.306 3.1602 164.042 0C161.767 4.113 159.109 9.645 157.276 14.046C137.584 11.085 118.073 11.085 98.743 14.046C96.911 9.646 94.193 4.113 91.897 0C73.6149 3.16165 55.8386 8.75739 39.042 16.638C5.61799 67.147 -3.44301 116.4 1.08699 164.956C23.256 181.511 44.74 191.568 65.862 198.149C71.1113 190.93 75.7516 183.288 79.735 175.3C72.1513 172.413 64.8403 168.855 57.889 164.668C59.7183 163.312 61.5045 161.899 63.245 160.431C105.367 180.133 151.135 180.133 192.755 160.431C194.503 161.889 196.289 163.302 198.11 164.668C191.148 168.866 183.823 172.431 176.224 175.321C180.23 183.341 184.862 190.991 190.097 198.169C211.239 191.589 232.743 181.532 254.912 164.956C260.228 108.668 245.832 59.866 216.856 16.596V16.597ZM85.474 135.095C72.829 135.095 62.459 123.29 62.459 108.915C62.459 94.54 72.608 82.715 85.474 82.715C98.341 82.715 108.71 94.519 108.489 108.915C108.509 123.29 98.341 135.095 85.474 135.095ZM170.525 135.095C157.88 135.095 147.511 123.29 147.511 108.915C147.511 94.54 157.659 82.715 170.525 82.715C183.392 82.715 193.761 94.519 193.54 108.915C193.54 123.29 183.392 135.095 170.525 135.095V135.095Z" fill="#ffffff"/>
</svg>
