<svg width="24" height="24" viewBox="0 0 24 24" fill="none" xmlns="http://www.w3.org/2000/svg">
<path d="M2.625 5.625C2.625 5.32663 2.74353 5.04048 2.9545 4.8295C3.16548 4.61853 3.45163 4.5 3.75 4.5H20.25C20.5484 4.5 20.8345 4.61853 21.0455 4.8295C21.2565 5.04048 21.375 5.32663 21.375 5.625C21.375 5.92337 21.2565 6.20952 21.0455 6.4205C20.8345 6.63147 20.5484 6.75 20.25 6.75H3.75C3.45163 6.75 3.16548 6.63147 2.9545 6.4205C2.74353 6.20952 2.625 5.92337 2.625 5.625V5.625ZM5.625 11.625C5.625 11.3266 5.74353 11.0405 5.9545 10.8295C6.16548 10.6185 6.45163 10.5 6.75 10.5H17.25C17.5484 10.5 17.8345 10.6185 18.0455 10.8295C18.2565 11.0405 18.375 11.3266 18.375 11.625C18.375 11.9234 18.2565 12.2095 18.0455 12.4205C17.8345 12.6315 17.5484 12.75 17.25 12.75H6.75C6.45163 12.75 6.16548 12.6315 5.9545 12.4205C5.74353 12.2095 5.625 11.9234 5.625 11.625V11.625ZM8.625 17.625C8.625 17.3266 8.74353 17.0405 8.9545 16.8295C9.16548 16.6185 9.45163 16.5 9.75 16.5H14.25C14.5484 16.5 14.8345 16.6185 15.0455 16.8295C15.2565 17.0405 15.375 17.3266 15.375 17.625C15.375 17.9234 15.2565 18.2095 15.0455 18.4205C14.8345 18.6315 14.5484 18.75 14.25 18.75H9.75C9.45163 18.75 9.16548 18.6315 8.9545 18.4205C8.74353 18.2095 8.625 17.9234 8.625 17.625V17.625Z" fill="#959CAB"/>
</svg>
