<svg width="26" height="24" viewBox="0 0 26 24" fill="none" xmlns="http://www.w3.org/2000/svg">
<path d="M6.13432 9.78249H20.0199C20.2513 9.78249 20.4407 9.58927 20.4407 9.35311V6.34746C20.4407 6.1113 20.2513 5.91808 20.0199 5.91808H10.7365L13.2191 2.69237C13.277 2.61723 13.3085 2.52062 13.3085 2.42938C13.3085 2.19322 13.1192 2 12.8878 2H9.06923C8.8115 2 8.56956 2.12345 8.40651 2.3274L4.80361 7.00226C4.57219 7.30283 4.44595 7.67853 4.44595 8.06497C4.45121 9.01497 5.20335 9.78249 6.13432 9.78249ZM18.7576 13.2175H4.87199C4.64056 13.2175 4.45121 13.4107 4.45121 13.6469V16.6525C4.45121 16.8887 4.64056 17.0819 4.87199 17.0819H14.1554L11.6728 20.3076C11.6149 20.3828 11.5834 20.4794 11.5834 20.5706C11.5834 20.8068 11.7727 21 12.0041 21H15.8227C16.0804 21 16.3224 20.8766 16.4854 20.6726L20.0883 15.9977C20.3197 15.6972 20.446 15.3215 20.446 14.935C20.4407 13.985 19.6886 13.2175 18.7576 13.2175Z" fill="#AFAFB0"/>
</svg>
