<svg width="44" height="44" viewBox="0 0 44 44" fill="none" xmlns="http://www.w3.org/2000/svg">
<rect width="44" height="44" rx="22" fill="#009987" fill-opacity="0.12"/>
<path fill-rule="evenodd" clip-rule="evenodd" d="M17.5 27.25C17.5 27.0511 17.579 26.8603 17.7197 26.7197C17.8603 26.579 18.0511 26.5 18.25 26.5H31.75C31.9489 26.5 32.1397 26.579 32.2803 26.7197C32.421 26.8603 32.5 27.0511 32.5 27.25C32.5 27.4489 32.421 27.6397 32.2803 27.7803C32.1397 27.921 31.9489 28 31.75 28H18.25C18.0511 28 17.8603 27.921 17.7197 27.7803C17.579 27.6397 17.5 27.4489 17.5 27.25ZM17.5 21.25C17.5 21.0511 17.579 20.8603 17.7197 20.7197C17.8603 20.579 18.0511 20.5 18.25 20.5H31.75C31.9489 20.5 32.1397 20.579 32.2803 20.7197C32.421 20.8603 32.5 21.0511 32.5 21.25C32.5 21.4489 32.421 21.6397 32.2803 21.7803C32.1397 21.921 31.9489 22 31.75 22H18.25C18.0511 22 17.8603 21.921 17.7197 21.7803C17.579 21.6397 17.5 21.4489 17.5 21.25ZM17.5 15.25C17.5 15.0511 17.579 14.8603 17.7197 14.7197C17.8603 14.579 18.0511 14.5 18.25 14.5H31.75C31.9489 14.5 32.1397 14.579 32.2803 14.7197C32.421 14.8603 32.5 15.0511 32.5 15.25C32.5 15.4489 32.421 15.6397 32.2803 15.7803C32.1397 15.921 31.9489 16 31.75 16H18.25C18.0511 16 17.8603 15.921 17.7197 15.7803C17.579 15.6397 17.5 15.4489 17.5 15.25ZM13 16.75C13.3978 16.75 13.7794 16.592 14.0607 16.3107C14.342 16.0294 14.5 15.6478 14.5 15.25C14.5 14.8522 14.342 14.4706 14.0607 14.1893C13.7794 13.908 13.3978 13.75 13 13.75C12.6022 13.75 12.2206 13.908 11.9393 14.1893C11.658 14.4706 11.5 14.8522 11.5 15.25C11.5 15.6478 11.658 16.0294 11.9393 16.3107C12.2206 16.592 12.6022 16.75 13 16.75ZM13 22.75C13.3978 22.75 13.7794 22.592 14.0607 22.3107C14.342 22.0294 14.5 21.6478 14.5 21.25C14.5 20.8522 14.342 20.4706 14.0607 20.1893C13.7794 19.908 13.3978 19.75 13 19.75C12.6022 19.75 12.2206 19.908 11.9393 20.1893C11.658 20.4706 11.5 20.8522 11.5 21.25C11.5 21.6478 11.658 22.0294 11.9393 22.3107C12.2206 22.592 12.6022 22.75 13 22.75ZM13 28.75C13.3978 28.75 13.7794 28.592 14.0607 28.3107C14.342 28.0294 14.5 27.6478 14.5 27.25C14.5 26.8522 14.342 26.4706 14.0607 26.1893C13.7794 25.908 13.3978 25.75 13 25.75C12.6022 25.75 12.2206 25.908 11.9393 26.1893C11.658 26.4706 11.5 26.8522 11.5 27.25C11.5 27.6478 11.658 28.0294 11.9393 28.3107C12.2206 28.592 12.6022 28.75 13 28.75Z" fill="#009987"/>
</svg>
