<svg width="19" height="19" viewBox="0 0 19 19" fill="none" xmlns="http://www.w3.org/2000/svg">
<g clip-path="url(#clip0_1_770)">
<path d="M6.29363 11.8184C6.23496 11.938 6.23496 12.056 6.23496 12.1748C6.29363 12.554 6.62218 12.8327 7.00646 12.8275H7.95544V16.3301C7.95544 16.6865 7.65916 16.9828 7.30275 16.9828H5.28452C5.11189 16.9811 4.94684 16.9116 4.8249 16.7894C4.70296 16.6672 4.63389 16.502 4.63255 16.3294V12.8283H1.18866C0.654768 12.8283 0.298352 12.2936 0.535963 11.8184L5.6402 2.55818C5.70779 2.43624 5.80678 2.33461 5.92691 2.26385C6.04703 2.19308 6.18391 2.15576 6.32333 2.15576C6.46275 2.15576 6.59963 2.19308 6.71976 2.26385C6.83988 2.33461 6.93888 2.43624 7.00646 2.55818L9.14277 6.65404L6.29363 11.8184ZM17.9872 11.8184L12.8829 2.55818C12.8153 2.43642 12.7163 2.33496 12.5963 2.26431C12.4762 2.19367 12.3395 2.15642 12.2002 2.15642C12.0609 2.15642 11.9241 2.19367 11.8041 2.26431C11.684 2.33496 11.585 2.43642 11.5174 2.55818L9.32097 6.65478L12.1701 11.8177C12.2295 11.938 12.2295 12.0568 12.2295 12.1748C12.1708 12.554 11.8416 12.8327 11.458 12.8275H10.5076V16.3301C10.5112 16.6894 10.8009 16.9806 11.1603 16.9828H13.2973C13.4701 16.9813 13.6353 16.9121 13.7577 16.79C13.88 16.668 13.9495 16.5029 13.9515 16.3301V12.8283H17.3337C17.8691 12.8283 18.2241 12.2936 17.9864 11.8184H17.9872Z" fill="white"/>
</g>
<defs>
<clipPath id="clip0_1_770">
<rect width="17.6008" height="17.6008" fill="white" transform="translate(0.460938 0.769531)"/>
</clipPath>
</defs>
</svg>
