<svg width="33" height="33" viewBox="0 0 33 33" fill="none" xmlns="http://www.w3.org/2000/svg">
<rect width="32.03" height="32.03" rx="1" fill="#0D99FF"/>
<path fill-rule="evenodd" clip-rule="evenodd" d="M15.874 15H16.126C16.57 13.275 18.136 12 20 12H22C23.0609 12 24.0783 12.4214 24.8284 13.1716C25.5786 13.9217 26 14.9391 26 16C26 17.0609 25.5786 18.0783 24.8284 18.8284C24.0783 19.5786 23.0609 20 22 20H20C19.1131 19.9999 18.2514 19.7052 17.5502 19.1622C16.849 18.6192 16.3481 17.8586 16.126 17H15.874C15.6519 17.8586 15.151 18.6192 14.4498 19.1622C13.7486 19.7052 12.8869 19.9999 12 20H10C8.93913 20 7.92172 19.5786 7.17157 18.8284C6.42143 18.0783 6 17.0609 6 16C6 14.9391 6.42143 13.9217 7.17157 13.1716C7.92172 12.4214 8.93913 12 10 12H12C12.8869 12.0001 13.7486 12.2948 14.4498 12.8378C15.151 13.3808 15.6519 14.1414 15.874 15ZM13.75 15.031C13.5769 14.7185 13.3234 14.4581 13.0156 14.2768C12.7079 14.0955 12.3572 13.9999 12 14H10C9.46957 14 8.96086 14.2107 8.58579 14.5858C8.21071 14.9609 8 15.4696 8 16C8 16.5304 8.21071 17.0391 8.58579 17.4142C8.96086 17.7893 9.46957 18 10 18H12C12.3572 18.0001 12.7079 17.9045 13.0156 17.7232C13.3234 17.5419 13.5769 17.2815 13.75 16.969C13.5347 16.9141 13.3438 16.789 13.2074 16.6136C13.0711 16.4381 12.9971 16.2222 12.9971 16C12.9971 15.7778 13.0711 15.5619 13.2074 15.3864C13.3438 15.211 13.5347 15.0859 13.75 15.031ZM18 16.97C18.1732 17.2823 18.4268 17.5425 18.7346 17.7236C19.0423 17.9047 19.3929 18.0002 19.75 18H21.75C22.2804 18 22.7891 17.7893 23.1642 17.4142C23.5393 17.0391 23.75 16.5304 23.75 16C23.75 15.4696 23.5393 14.9609 23.1642 14.5858C22.7891 14.2107 22.2804 14 21.75 14H19.75C19.3928 13.9999 19.0421 14.0955 18.7344 14.2768C18.4266 14.4581 18.1731 14.7185 18 15.031C18.2153 15.0859 18.4062 15.211 18.5426 15.3864C18.6789 15.5619 18.7529 15.7778 18.7529 16C18.7529 16.2222 18.6789 16.4381 18.5426 16.6136C18.4062 16.789 18.2153 16.9141 18 16.969V16.97Z" fill="white"/>
</svg>
