<?xml version="1.0" standalone="no"?>
<!DOCTYPE svg PUBLIC "-//W3C//DTD SVG 20010904//EN"
 "http://www.w3.org/TR/2001/REC-SVG-20010904/DTD/svg10.dtd">
<svg version="1.0" xmlns="http://www.w3.org/2000/svg"
 width="42.000000pt" height="42.000000pt" viewBox="0 0 42.000000 42.000000"
 preserveAspectRatio="xMidYMid meet">

<g transform="translate(0.000000,42.000000) scale(0.100000,-0.100000)"
fill="#000000" stroke="none">
<path d="M230 309 l0 -79 75 0 c71 0 75 1 75 23 0 50 -54 108 -119 127 l-31 9
0 -80z"/>
<path d="M124 336 c-64 -28 -102 -110 -83 -180 22 -80 114 -137 188 -116 69
20 121 76 121 133 l0 27 -75 0 -75 0 0 75 c0 71 -1 75 -22 75 -13 -1 -37 -7
-54 -14z"/>
</g>
</svg>
