<svg width="18" height="17" viewBox="0 0 18 17" fill="none" xmlns="http://www.w3.org/2000/svg">
<path d="M5.0367 15.4825C4.65842 15.4825 4.3347 15.3479 4.06555 15.0787C3.79594 14.8091 3.66113 14.4852 3.66113 14.1069V7.2291C3.66113 6.85082 3.79594 6.52687 4.06555 6.25726C4.3347 5.98811 4.65842 5.85353 5.0367 5.85353H5.72448V4.47797C5.72448 3.52654 6.05989 2.71542 6.7307 2.0446C7.40106 1.37424 8.21195 1.03906 9.16338 1.03906C10.1148 1.03906 10.9259 1.37424 11.5968 2.0446C12.2671 2.71542 12.6023 3.52654 12.6023 4.47797V5.85353H13.2901C13.6684 5.85353 13.9923 5.98811 14.2619 6.25726C14.5311 6.52687 14.6656 6.85082 14.6656 7.2291V14.1069C14.6656 14.4852 14.5311 14.8091 14.2619 15.0787C13.9923 15.3479 13.6684 15.4825 13.2901 15.4825H5.0367ZM9.16338 12.0436C9.54166 12.0436 9.86561 11.909 10.1352 11.6398C10.4044 11.3702 10.5389 11.0463 10.5389 10.668C10.5389 10.2897 10.4044 9.96578 10.1352 9.69617C9.86561 9.42702 9.54166 9.29244 9.16338 9.29244C8.78511 9.29244 8.46139 9.42702 8.19224 9.69617C7.92263 9.96578 7.78782 10.2897 7.78782 10.668C7.78782 11.0463 7.92263 11.3702 8.19224 11.6398C8.46139 11.909 8.78511 12.0436 9.16338 12.0436ZM7.10004 5.85353H11.2267V4.47797C11.2267 3.90482 11.0261 3.41764 10.6249 3.01643C10.2237 2.61523 9.73654 2.41463 9.16338 2.41463C8.59023 2.41463 8.10306 2.61523 7.70185 3.01643C7.30064 3.41764 7.10004 3.90482 7.10004 4.47797V5.85353Z" fill="#4B4B5A"/>
</svg>
