<svg width="31" height="32" viewBox="0 0 31 32" fill="none" xmlns="http://www.w3.org/2000/svg">
<path d="M7.74935 28.6729C7.03893 28.6729 6.43099 28.4201 5.92552 27.9146C5.41918 27.4083 5.16602 26.7999 5.16602 26.0895V13.1729C5.16602 12.4624 5.41918 11.8541 5.92552 11.3477C6.43099 10.8423 7.03893 10.5895 7.74935 10.5895H9.04102V8.00618C9.04102 6.21938 9.67092 4.69607 10.9307 3.43627C12.1897 2.17732 13.7125 1.54785 15.4993 1.54785C17.2862 1.54785 18.8095 2.17732 20.0693 3.43627C21.3282 4.69607 21.9577 6.21938 21.9577 8.00618V10.5895H23.2493C23.9598 10.5895 24.5681 10.8423 25.0745 11.3477C25.5799 11.8541 25.8327 12.4624 25.8327 13.1729V26.0895C25.8327 26.7999 25.5799 27.4083 25.0745 27.9146C24.5681 28.4201 23.9598 28.6729 23.2493 28.6729H7.74935ZM15.4993 22.2145C16.2098 22.2145 16.8181 21.9618 17.3245 21.4563C17.8299 20.95 18.0827 20.3416 18.0827 19.6312C18.0827 18.9208 17.8299 18.3124 17.3245 17.8061C16.8181 17.3006 16.2098 17.0479 15.4993 17.0479C14.7889 17.0479 14.181 17.3006 13.6755 17.8061C13.1692 18.3124 12.916 18.9208 12.916 19.6312C12.916 20.3416 13.1692 20.95 13.6755 21.4563C14.181 21.9618 14.7889 22.2145 15.4993 22.2145ZM11.6243 10.5895H19.3743V8.00618C19.3743 6.9298 18.9976 6.01487 18.2441 5.26139C17.4907 4.50792 16.5757 4.13118 15.4993 4.13118C14.423 4.13118 13.508 4.50792 12.7546 5.26139C12.0011 6.01487 11.6243 6.9298 11.6243 8.00618V10.5895Z" fill="white"/>
</svg>
