<svg width="117" height="145" viewBox="0 0 117 145" fill="none" xmlns="http://www.w3.org/2000/svg">
<path d="M56.5549 9.33151C57.1409 8.76655 57.9353 8.44922 58.7636 8.44922C59.5919 8.44922 60.3864 8.76655 60.9724 9.33151C63.152 11.4353 71.3662 19.8463 79.0594 30.715C86.6568 41.451 94.1874 55.1797 94.1874 67.7781C94.1874 80.0104 90.3658 89.3949 83.8104 95.7222C77.2757 102.038 68.3447 104.986 58.7636 104.986C49.1867 104.986 40.2557 102.038 33.7169 95.7222C27.1614 89.3949 23.3398 80.0064 23.3398 67.7781C23.3398 55.1797 30.8705 41.451 38.4679 30.715C46.1611 19.8463 54.3753 11.4353 56.5549 9.33151V9.33151Z" fill="url(#paint0_linear_6159_50935)" stroke="url(#paint1_linear_6159_50935)" stroke-width="0.75"/>
<ellipse rx="9.38216" ry="8.615" transform="matrix(0.801368 -0.598171 0.625281 0.7804 23.4679 68.6501)" fill="url(#paint2_linear_6159_50935)"/>
<path d="M23.9597 72.9945C24.7515 72.6791 25.4108 72.1163 25.8319 71.3963C26.253 70.6763 26.4115 69.8407 26.2821 69.0234C26.1527 68.206 25.7428 67.4543 25.1182 66.8885C24.4935 66.3227 23.6902 65.9756 22.8369 65.9029" stroke="#262626" stroke-linecap="round" stroke-linejoin="round"/>
<path d="M67.175 82.2745C67.1933 84.6031 66.2672 86.4216 64.0528 87.22C61.7652 88.0442 59.3677 88.1773 57.5523 86.1924C55.9162 84.4035 55.5428 82.1747 56.3847 79.8424C56.9593 78.2493 58.1818 77.6136 59.763 78.0756C60.5829 78.3158 61.3296 78.6041 62.1751 78.3269C65.8243 77.1331 67.1786 78.2013 67.175 82.2745Z" fill="#0B0F0F"/>
<path d="M60.2111 82.5117C62.0412 82.3749 63.4284 83.1437 64.4386 84.6407C64.7095 85.0436 64.5997 85.4871 64.1897 85.72C62.6232 86.6181 61.0163 86.4777 59.4241 85.7939C58.4469 85.3725 57.5684 84.5446 57.7404 83.5466C57.9491 82.3195 59.2558 82.5782 60.2111 82.5117Z" fill="#F2BED5"/>
<path d="M65.6068 83.7797C63.5387 81.4548 61.2987 80.9336 58.7695 81.2773C58.3083 81.3402 57.5799 81.9981 57.4884 80.8892C57.4335 80.2128 57.946 79.5586 58.462 79.6214C60.4825 79.8654 62.3821 79.529 64.3623 79.2814C66.0972 79.0707 65.8337 81.7098 65.6068 83.7797Z" fill="#A09DCA"/>
<path d="M54.2838 68.2285C54.2655 70.7752 52.2963 72.834 50.6089 75.0073C50.382 75.2993 49.6792 75.3474 49.2144 75.303C46.5717 75.048 44.1303 74.1905 42.1721 72.3387C40.5616 70.8159 39.9906 68.8236 40.9826 66.7944C41.9379 64.8354 43.6252 63.9816 45.7921 64.9426C46.5131 65.2605 46.8609 64.9426 47.2781 64.4732C48.6178 62.9688 50.2282 62.6362 52.0254 63.5159C53.753 64.3586 54.2252 65.9332 54.2838 68.2285Z" fill="#0B0D0C"/>
<path d="M52.8852 67.2658C52.6473 69.8901 51.6152 71.5127 50.5098 73.1021C50.0083 73.8266 49.2982 73.919 48.5113 73.7859C46.2017 73.4015 44.2838 72.2631 42.7245 70.5443C41.7838 69.5094 41.5752 68.2342 42.472 67.0958C43.3577 65.9684 44.6095 65.6986 45.7881 66.619C46.8349 67.4358 47.4096 67.1253 47.8964 66.0793C48.6028 64.5676 49.8546 64.2645 51.2455 64.7782C52.6071 65.2809 53.039 66.4563 52.8852 67.2658Z" fill="#F4A4C7"/>
<path d="M68.2799 65.262C68.1664 63.8168 68.7264 62.5934 70.1063 61.8024C71.6034 60.9449 73.0125 61.174 74.2167 62.3383C74.8829 62.9815 75.3624 63.2476 76.3506 62.8041C77.6903 62.2016 79.0153 62.7634 79.945 63.8464C80.9625 65.0329 81.0028 66.4337 80.333 67.8494C79.2495 70.1484 74.989 72.5768 72.6246 72.2331C70.9226 71.9891 68.3238 67.89 68.2799 65.262Z" fill="#0F1311"/>
<path d="M69.6836 65.5596C69.7019 64.5173 69.7971 63.5193 70.9757 63.1016C72.1067 62.6988 73.2084 62.7986 73.8526 63.8557C74.4894 64.9054 75.0495 65.312 76.1841 64.5653C77.2383 63.8705 78.3144 64.0627 79.0574 65.0791C79.8443 66.1547 79.299 67.2451 78.5999 68.073C77.187 69.74 75.2581 70.5606 73.1352 70.7158C71.5649 70.8304 69.6799 67.8882 69.6836 65.5596Z" fill="#F3A4C6"/>
<ellipse cx="33.5485" cy="54.9079" rx="1.45863" ry="1.40787" fill="#263238"/>
<rect width="3.96671" height="19.8737" rx="1.98335" transform="matrix(0.886125 0.463447 -0.48953 0.871986 43.9766 33.3906)" fill="#263238"/>
<g filter="url(#filter0_f_6159_50935)">
<ellipse cx="57.5" cy="124.5" rx="29.5" ry="11.5" fill="#E5E8EB"/>
</g>
<defs>
<filter id="filter0_f_6159_50935" x="19" y="104" width="77" height="41" filterUnits="userSpaceOnUse" color-interpolation-filters="sRGB">
<feFlood flood-opacity="0" result="BackgroundImageFix"/>
<feBlend mode="normal" in="SourceGraphic" in2="BackgroundImageFix" result="shape"/>
<feGaussianBlur stdDeviation="4.5" result="effect1_foregroundBlur_6159_50935"/>
</filter>
<linearGradient id="paint0_linear_6159_50935" x1="58.7636" y1="8.44922" x2="58.7636" y2="104.986" gradientUnits="userSpaceOnUse">
<stop stop-color="#0D99FF"/>
<stop offset="1" stop-color="#ADE2FF"/>
</linearGradient>
<linearGradient id="paint1_linear_6159_50935" x1="58.7636" y1="8.44922" x2="58.7636" y2="104.986" gradientUnits="userSpaceOnUse">
<stop stop-color="#00A3FF"/>
<stop offset="1" stop-color="#00A3FF" stop-opacity="0"/>
</linearGradient>
<linearGradient id="paint2_linear_6159_50935" x1="9.38216" y1="0" x2="9.38216" y2="17.23" gradientUnits="userSpaceOnUse">
<stop stop-color="#0D99FF"/>
<stop offset="1" stop-color="#ADE2FF"/>
</linearGradient>
</defs>
</svg>
