<svg width="55" height="54" viewBox="0 0 55 54" fill="none" xmlns="http://www.w3.org/2000/svg">
<rect x="0.65625" width="54" height="54" rx="12" fill="#ADE2FF"/>
<path d="M43.2999 11L29.1113 21.4985L31.7498 15.3115L43.2999 11Z" fill="#E17726"/>
<path d="M11.7994 11.0117L23.3186 15.3115L25.8239 21.5797L11.7994 11.0117ZM37.59 33.3268L43.8612 33.4462L41.6695 40.8916L34.0172 38.7848L37.59 33.3268ZM17.476 33.3268L21.0355 38.7848L13.3962 40.8917L11.2178 33.4462L17.476 33.3268Z" fill="#E27625"/>
<path d="M25.4838 19.983L25.74 28.2604L18.0713 27.9115L20.2527 24.6206L20.2803 24.5889L25.4838 19.983ZM29.5038 19.8906L34.7867 24.5892L34.8141 24.6207L36.9955 27.9116L29.3284 28.2604L29.5038 19.8906ZM21.2605 33.3507L25.4479 36.6133L20.5837 38.9617L21.2605 33.3507ZM33.8073 33.3502L34.47 38.9618L29.6194 36.6131L33.8073 33.3502Z" fill="#E27625"/>
<path d="M29.7259 36.3066L34.648 38.69L30.0695 40.866L30.117 39.4278L29.7259 36.3066ZM25.3385 36.3077L24.9627 39.4043L24.9936 40.8643L20.4043 38.69L25.3385 36.3077Z" fill="#D5BFB2"/>
<path d="M23.9181 29.3418L25.2043 32.045L20.8252 30.7621L23.9181 29.3418ZM31.1495 29.3421L34.257 30.7621L29.8635 32.0446L31.1495 29.3421Z" fill="#233447"/>
<path d="M21.5946 33.3226L20.8868 39.1403L17.0928 33.4498L21.5946 33.3226ZM33.4715 33.3227L37.9735 33.4498L34.1652 39.1405L33.4715 33.3227ZM37.1057 27.582L33.8294 30.9211L31.3033 29.7668L30.0939 32.3093L29.3011 27.9371L37.1057 27.582ZM17.9584 27.582L25.7646 27.9371L24.9717 32.3093L23.762 29.7671L21.2494 30.9212L17.9584 27.582Z" fill="#CC6228"/>
<path d="M17.7383 26.8973L21.4451 30.6588L21.5735 34.3722L17.7383 26.8973ZM37.3325 26.8906L33.4903 34.3788L33.635 30.6588L37.3325 26.8906ZM25.584 27.1265L25.7332 28.0655L26.1018 30.4049L25.8648 37.5898L24.7443 31.8179L24.7439 31.7583L25.584 27.1265ZM29.4811 27.1134L30.3234 31.7583L30.323 31.8179L29.1996 37.6042L29.1552 36.1569L28.9799 30.3622L29.4811 27.1134Z" fill="#E27525"/>
<path d="M33.9645 30.5117L33.8391 33.738L29.9287 36.7847L29.1382 36.2262L30.0243 31.6621L33.9645 30.5117ZM21.1162 30.5117L25.0427 31.6621L25.9288 36.2262L25.1383 36.7847L21.2278 33.7378L21.1162 30.5117Z" fill="#F5841F"/>
<path d="M19.6562 37.9805L24.6591 40.3509L24.6379 39.3387L25.0566 38.9712H30.0081L30.4418 39.3374L30.4098 40.3489L35.381 37.9864L32.962 39.9854L30.037 41.9943H25.0164L22.0934 39.9771L19.6562 37.9805Z" fill="#C0AC9D"/>
<path d="M29.3678 35.9902L30.0752 36.49L30.4897 39.7972L29.8898 39.2907H25.1783L24.5898 39.8074L24.9908 36.4902L25.6984 35.9902H29.3678Z" fill="#161616"/>
<path d="M42.3635 11.291L44.0667 16.4005L43.003 21.5667L43.7604 22.151L42.7355 22.9329L43.5058 23.5279L42.4858 24.4567L43.112 24.9102L41.4501 26.8511L34.634 24.8664L34.575 24.8348L29.6632 20.6914L42.3635 11.291ZM12.7032 11.291L25.4036 20.6914L20.4917 24.8348L20.4327 24.8664L13.6165 26.8511L11.9547 24.9102L12.5804 24.4571L11.561 23.5279L12.3298 22.9336L11.2895 22.1494L12.0754 21.5648L11 16.4007L12.7032 11.291Z" fill="#763E1A"/>
<path d="M34.3009 24.4324L41.523 26.5351L43.8693 33.7666H37.6791L33.414 33.8204L36.5158 27.7743L34.3009 24.4324ZM20.7663 24.4324L18.551 27.7743L21.6532 33.8204L17.39 33.7666H11.2109L13.5441 26.5353L20.7663 24.4324ZM32.104 15.2773L30.084 20.7332L29.6553 28.1035L29.4913 30.4136L29.4782 36.315H25.5889L25.5762 30.4247L25.4116 28.1015L24.9828 20.7332L22.963 15.2773H32.104Z" fill="#F5841F"/>
</svg>
