<svg width="1440" height="1585" viewBox="0 0 1440 1585" fill="none" xmlns="http://www.w3.org/2000/svg">
<g clip-path="url(#clip0_1238_11325)">
<rect width="1440" height="1585" fill="white"/>
<g opacity="0.3">
<path opacity="0.1" d="M-23.39 1009.88L35.6574 469.868C79.6634 472.686 103.633 479.564 120.438 486.037C139.542 493.463 156.001 502.258 176.398 528.712C234.762 604.33 214.636 705.137 243.594 782.615C257.172 819.017 275.49 856.034 324.394 888.857C344.456 902.309 394.984 921.972 443.117 914.518C482.177 908.479 498.308 888.997 502.859 875.272C516.848 831.855 512.847 787.73 514.676 743.958C516.505 700.187 524.308 655.864 561.19 614.382C598.072 572.899 665.907 534.017 768.37 510.183C870.833 486.349 1010.26 479.889 1122.89 499.985C1328.93 536.771 1337.36 634.69 1535.76 676.679C1578.34 685.734 1661.01 697.955 1698.91 709.335C1854.42 756.084 1834.89 822.235 1795.39 850.115C1755.88 877.995 1634.11 897.927 1544.45 898.06L1539.95 894.897L1538.01 893.588L1526.27 885.613C1561.29 881.436 1610.2 867.697 1627.17 855.77C1627.72 855.385 1628.27 855.016 1628.73 854.628C1665.89 824.949 1642.2 784.637 1552.41 768.245C1507.11 759.952 1459.84 762.862 1411.76 759.686C1360.42 756.3 1314.05 749.799 1272.13 738.494C1235.41 728.581 1198.77 717.186 1162.1 707.258C1108.25 692.635 1021.89 694.256 973.731 714.208C925.572 734.16 908.918 754.619 905.194 780.225C894.367 854.306 930.76 908.155 859.375 995.139C783.577 1087.41 610.872 1121.01 429.684 1134.14C426.051 1134.4 422.466 1134.65 418.837 1134.88C187.362 1149.39 -31.7798 1086.61 -23.39 1009.88Z" fill="#00CC9B"/>
<path opacity="0.1" d="M-23.3537 1007.76L19.2023 617.501C58.5929 638.275 70.5657 665.578 79.57 690.814L138.36 855.422C147.159 879.996 156.365 905.077 187.144 927.576C217.923 950.074 274.771 969.927 344.109 973.708C411.971 977.451 479.282 965.016 522.556 946.787C565.829 928.558 588.045 905.221 604.419 881.976C656.837 807.477 655.809 728.621 710.151 654.299C730.171 626.909 758.839 599.578 811.98 578.726C865.12 557.874 946.885 544.473 1026.47 550.215C1114.5 556.573 1178.99 583.618 1230.17 610.069C1281.34 636.519 1331.12 665.599 1411.15 680.47C1479.6 693.233 1561.23 693.81 1629.68 706.557C1730.16 725.253 1799.88 775.224 1780.33 813.959C1760.79 852.694 1660.06 878.727 1556.91 892.95L1542.56 892.201L1540.62 890.884L1528.86 882.864C1563.93 878.666 1612.93 864.851 1629.93 852.859C1630.48 852.471 1631.03 852.1 1631.49 851.71C1668.71 821.867 1644.99 781.329 1555.05 764.843C1509.68 756.501 1462.34 759.426 1414.18 756.23C1362.76 752.824 1316.31 746.284 1274.32 734.914C1237.54 724.945 1200.84 713.484 1164.11 703.5C1110.18 688.793 1023.68 690.42 975.437 710.481C927.197 730.543 910.513 751.115 906.779 776.864C895.925 851.357 932.371 905.509 860.858 992.975C784.924 1085.75 611.931 1119.54 430.446 1132.74C426.807 1133 423.216 1133.24 419.581 1133.47C187.725 1148.06 -31.7672 1084.92 -23.3537 1007.76Z" fill="#00CC9B"/>
<path opacity="0.15" d="M-23.3217 1004.88L-18.8363 963.611C-6.92424 972.333 6.23028 980.853 20.5763 989.138C85.7475 1026.34 184.085 1058.67 303.213 1069.04C417.297 1078.91 542.656 1066.51 622.823 1037.4C687.446 1013.94 721.612 981.54 736.575 948.792C751.539 916.044 749.443 882.441 751.025 849.109C752.86 809.194 760.148 769.439 772.889 729.845C781.075 704.435 792.046 678.563 825.764 656.244C859.482 633.925 920.361 615.498 992.346 613.894C1080.92 611.923 1160.13 634.717 1221.88 658.18C1283.63 681.644 1343.58 708.389 1428.53 718.908C1490.11 726.472 1559.34 724.573 1617.41 735.423C1697.79 750.397 1733.7 787.319 1713.25 818.005C1692.81 848.69 1622.29 869.214 1545.57 884.572L1543.23 887.339L1531.45 879.269C1566.59 875.045 1615.66 861.146 1632.69 849.078C1633.24 848.688 1633.79 848.315 1634.25 847.923C1671.5 817.892 1647.74 777.097 1557.66 760.502C1512.22 752.106 1464.8 755.047 1416.56 751.829C1365.06 748.399 1318.53 741.816 1276.48 730.373C1239.65 720.338 1202.89 708.804 1166.1 698.755C1112.08 683.953 1025.44 685.586 977.121 705.772C928.8 725.957 912.086 746.659 908.343 772.57C897.46 847.532 933.956 902.027 862.315 990.042C786.245 1083.4 612.969 1117.39 431.189 1130.67C427.544 1130.93 423.948 1131.18 420.307 1131.41C188.075 1146.07 -31.7603 1082.52 -23.3217 1004.88Z" fill="#00CC9B"/>
<path opacity="0.15" d="M761.996 509.492C615.493 527.318 499.599 590.659 495.501 653.825C452.342 589.336 594.271 510.025 761.996 509.492Z" fill="#00CC9B"/>
<path opacity="0.15" d="M912.65 943.057C894.86 985.618 847.793 1032.94 758.406 1064.28C669.019 1095.62 561.663 1115.06 470.964 1117.31C643.176 1126.89 932.49 1076.92 912.65 943.057Z" fill="#00CC9B"/>
</g>
</g>
<defs>
<clipPath id="clip0_1238_11325">
<rect width="1440" height="1585" fill="white"/>
</clipPath>
</defs>
</svg>
