<?xml version="1.0" standalone="no"?>
<!DOCTYPE svg PUBLIC "-//W3C//DTD SVG 20010904//EN"
 "http://www.w3.org/TR/2001/REC-SVG-20010904/DTD/svg10.dtd">
<svg version="1.0" xmlns="http://www.w3.org/2000/svg"
 width="42.000000pt" height="42.000000pt" viewBox="0 0 42.000000 42.000000"
 preserveAspectRatio="xMidYMid meet">

<g transform="translate(0.000000,42.000000) scale(0.100000,-0.100000)"
fill="#000000" stroke="none">
<path d="M10 371 c-13 -26 -13 -256 0 -282 14 -25 110 -29 110 -4 0 11 -11 15
-40 15 l-40 0 0 100 0 100 170 0 170 0 0 -100 0 -100 -40 0 c-29 0 -40 -4 -40
-15 0 -25 96 -21 110 4 13 26 13 256 0 282 -10 18 -23 19 -200 19 -177 0 -190
-1 -200 -19z m56 -12 c5 -8 9 -8 14 1 9 15 30 5 30 -14 0 -9 -14 -14 -40 -14
-26 -1 -40 4 -40 12 0 25 23 35 36 15z m314 -14 c0 -13 -21 -15 -130 -15 -109
0 -130 2 -130 15 0 13 21 15 130 15 109 0 130 -2 130 -15z"/>
<path d="M160 195 c-44 -45 -44 -45 -17 -45 26 0 27 -1 27 -60 l0 -60 40 0 40
0 0 60 c0 59 1 60 27 60 27 0 27 0 -17 45 -24 25 -47 45 -50 45 -3 0 -26 -20
-50 -45z"/>
</g>
</svg>
