<svg width="21" height="20" viewBox="0 0 21 20" fill="none" xmlns="http://www.w3.org/2000/svg">
<g clip-path="url(#clip0_12450_120927)">
<path d="M5.98405 8.33398C5.06738 8.33398 4.31738 9.08398 4.31738 10.0007C4.31738 10.9173 5.06738 11.6673 5.98405 11.6673C6.90072 11.6673 7.65072 10.9173 7.65072 10.0007C7.65072 9.08398 6.90072 8.33398 5.98405 8.33398ZM15.984 8.33398C15.0674 8.33398 14.3174 9.08398 14.3174 10.0007C14.3174 10.9173 15.0674 11.6673 15.984 11.6673C16.9007 11.6673 17.6507 10.9173 17.6507 10.0007C17.6507 9.08398 16.9007 8.33398 15.984 8.33398ZM10.984 8.33398C10.0674 8.33398 9.31738 9.08398 9.31738 10.0007C9.31738 10.9173 10.0674 11.6673 10.984 11.6673C11.9007 11.6673 12.6507 10.9173 12.6507 10.0007C12.6507 9.08398 11.9007 8.33398 10.984 8.33398Z" fill="#280D5F"/>
</g>
<defs>
<clipPath id="clip0_12450_120927">
<rect width="20" height="20" fill="white" transform="translate(0.984375)"/>
</clipPath>
</defs>
</svg>
