<svg width="542" height="570" viewBox="0 0 542 570" fill="none" xmlns="http://www.w3.org/2000/svg">
<rect width="542" height="570" rx="12" fill="url(#paint0_linear_10575_89605)"/>
<path d="M258.018 161.896V80.9138C258.018 79.3826 257.282 77.945 256.04 77.0496C254.798 76.1543 253.201 75.9097 251.748 76.3946L194.584 95.4494C192.638 96.098 191.326 97.9184 191.326 99.9685V154.928C186.464 152.121 180.61 151.6 175.329 153.507C170.047 155.415 165.876 159.555 163.93 164.821C161.984 170.089 162.461 175.946 165.232 180.83C168.005 185.713 172.79 189.124 178.31 190.151C183.829 191.18 189.522 189.722 193.866 186.164C198.211 182.608 200.765 177.315 200.846 171.701H200.852V171.488V171.42V171.352V131.981L248.489 116.104V145.405C243.613 142.591 237.739 142.079 232.45 144.005C227.159 145.932 222.991 150.1 221.066 155.394C219.144 160.685 219.658 166.556 222.476 171.433C225.292 176.307 230.121 179.686 235.667 180.662C241.212 181.639 246.905 180.112 251.217 176.49C255.53 172.868 258.018 167.526 258.016 161.894L258.018 161.896ZM181.799 180.951C179.274 180.951 176.852 179.95 175.066 178.165C173.279 176.381 172.273 173.961 172.271 171.435C172.269 168.91 173.269 166.488 175.051 164.7C176.833 162.911 179.251 161.903 181.775 161.897C184.302 161.89 186.724 162.888 188.515 164.668C190.306 166.448 191.318 168.866 191.326 171.39V171.458C191.316 173.978 190.306 176.392 188.521 178.17C186.735 179.95 184.319 180.949 181.799 180.952L181.799 180.951ZM200.853 121.941V103.401L248.49 87.5236V106.062L200.853 121.941ZM229.435 161.897C229.435 159.371 230.439 156.946 232.226 155.16C234.012 153.373 236.436 152.37 238.963 152.37C241.489 152.37 243.914 153.373 245.7 155.16C247.486 156.946 248.49 159.371 248.49 161.897C248.49 164.423 247.486 166.848 245.7 168.634C243.914 170.421 241.489 171.424 238.963 171.424C236.436 171.422 234.014 170.416 232.23 168.63C230.444 166.846 229.438 164.423 229.436 161.897L229.435 161.897Z" fill="white"/>
<path d="M262.779 304.806C267.704 304.799 272.438 302.888 275.988 299.47C279.535 296.053 281.623 291.395 281.817 286.474C281.825 286.355 281.834 286.236 281.834 286.111V209.532C281.834 206.902 279.701 204.769 277.07 204.769C274.439 204.769 272.306 206.902 272.306 209.532V269.261C267.177 266.298 260.963 265.89 255.489 268.155C250.017 270.422 245.908 275.103 244.375 280.825C242.841 286.546 244.056 292.655 247.663 297.355C251.269 302.053 256.856 304.808 262.779 304.808L262.779 304.806ZM262.779 276.224C265.305 276.224 267.73 277.228 269.516 279.014C271.302 280.8 272.306 283.225 272.306 285.751C272.306 288.278 271.302 290.702 269.516 292.488C267.73 294.275 265.305 295.278 262.779 295.278C260.252 295.278 257.828 294.275 256.042 292.488C254.255 290.702 253.251 288.278 253.251 285.751C253.254 283.225 254.259 280.805 256.046 279.018C257.832 277.232 260.252 276.226 262.779 276.224Z" fill="white"/>
<path d="M293.961 109.493C295.671 109.493 297.249 108.577 298.098 107.092L310.223 85.8722C311.289 84.0071 310.974 81.6593 309.456 80.1411L297.33 68.0152C296.437 67.122 295.224 66.6201 293.961 66.6201C292.698 66.6201 291.486 67.122 290.593 68.0152L278.467 80.1411C276.948 81.6595 276.633 84.0074 277.699 85.8722L289.825 107.092C290.673 108.577 292.251 109.493 293.961 109.493ZM293.961 78.1209L300.145 84.3049L293.961 95.1275L287.777 84.3049L293.961 78.1209Z" fill="white"/>
<path d="M405.219 145.714C406.438 146.913 408.205 147.367 409.851 146.904L433.379 140.288C435.447 139.706 436.869 137.812 436.852 135.665L436.717 118.517C436.707 117.254 436.195 116.046 435.295 115.16C434.395 114.274 433.179 113.781 431.916 113.791L414.768 113.926C412.62 113.943 410.749 115.395 410.2 117.472L403.956 141.101C403.519 142.754 404.001 144.514 405.219 145.714ZM427.227 123.356L427.296 132.101L415.297 135.476L418.482 123.425L427.227 123.356Z" fill="white"/>
<path d="M137.111 149.905C138.266 148.644 138.654 146.861 138.132 145.233L130.659 121.963C130.002 119.918 128.057 118.566 125.912 118.661L108.781 119.424C107.519 119.48 106.33 120.036 105.478 120.968C104.625 121.9 104.177 123.133 104.233 124.395L104.996 141.526C105.091 143.672 106.611 145.489 108.706 145.961L132.548 151.337C134.216 151.713 135.957 151.167 137.111 149.905ZM113.963 128.73L122.7 128.341L126.512 140.209L114.352 137.467L113.963 128.73Z" fill="white"/>
<path d="M415.22 200.006H396.165C393.534 200.006 391.401 202.139 391.401 204.77C391.401 207.4 393.534 209.533 396.165 209.533H415.22C417.85 209.533 419.983 207.4 419.983 204.77C419.983 202.139 417.85 200.006 415.22 200.006Z" fill="white"/>
<path d="M138.924 209.533H157.979C160.609 209.533 162.742 207.4 162.742 204.77C162.742 202.139 160.609 200.006 157.979 200.006H138.924C136.293 200.006 134.16 202.139 134.16 204.77C134.16 207.4 136.293 209.533 138.924 209.533Z" fill="white"/>
<path d="M390.009 48.9615C389.116 48.0683 387.903 47.5664 386.64 47.5664C385.377 47.5664 384.165 48.0683 383.272 48.9615L369.797 62.4359C367.958 64.2989 367.966 67.2996 369.818 69.1519C371.671 71.0042 374.671 71.0127 376.534 69.1732L390.009 55.6987C390.902 54.8056 391.404 53.5933 391.404 52.3301C391.404 51.0669 390.902 49.8547 390.009 48.9615L390.009 48.9615Z" fill="white"/>
<path d="M174.482 56.5158L187.956 69.9902C189.821 71.8319 192.822 71.8213 194.674 69.9689C196.524 68.1167 196.535 65.1159 194.693 63.253L181.219 49.7785C180.328 48.8769 179.113 48.3686 177.846 48.3643C176.576 48.36 175.36 48.8619 174.462 49.7594C173.565 50.6547 173.063 51.8732 173.067 53.1407C173.072 54.4103 173.58 55.6246 174.482 56.5157L174.482 56.5158Z" fill="white"/>
<path d="M391.399 138.076C391.399 136.026 390.087 134.206 388.141 133.557L330.976 114.502C329.524 114.015 327.927 114.258 326.683 115.153C325.439 116.048 324.705 117.488 324.707 119.021V183.508C319.831 180.694 313.959 180.182 308.668 182.109C303.377 184.035 299.211 188.203 297.286 193.495C295.362 198.786 295.876 204.658 298.692 209.534C301.508 214.408 306.337 217.79 311.882 218.766C317.428 219.742 323.121 218.215 327.434 214.595C331.746 210.976 334.237 205.634 334.234 200.002V154.211L385.129 171.176C386.582 171.66 388.179 171.416 389.421 170.521C390.663 169.625 391.398 168.188 391.398 166.656L391.399 138.076ZM315.18 209.531C312.653 209.531 310.229 208.528 308.443 206.741C306.656 204.955 305.652 202.53 305.652 200.004C305.652 197.478 306.656 195.053 308.443 193.267C310.229 191.48 312.653 190.477 315.18 190.477C317.706 190.477 320.131 191.48 321.917 193.267C323.703 195.053 324.707 197.478 324.707 200.004C324.705 202.53 323.699 204.951 321.913 206.737C320.126 208.523 317.706 209.529 315.18 209.531L315.18 209.531ZM334.234 144.168V125.63L381.871 141.508V160.048L334.234 144.168Z" fill="white"/>
<path d="M162.395 269.243C157.753 269.243 153.988 273.008 153.988 277.65V412.771C153.988 417.413 157.753 421.178 162.395 421.178C167.037 421.178 170.802 417.413 170.802 412.771V277.65C170.802 273.008 167.037 269.243 162.395 269.243Z" fill="white"/>
<path d="M189.419 279.302C184.777 279.302 181.012 283.067 181.012 287.709V402.72C181.012 407.362 184.778 411.127 189.419 411.127C194.061 411.127 197.826 407.362 197.826 402.72V287.709C197.826 283.064 194.064 279.302 189.419 279.302Z" fill="white"/>
<path d="M216.444 303.323C211.802 303.323 208.037 307.088 208.037 311.73V378.702C208.037 383.344 211.802 387.109 216.444 387.109C221.085 387.109 224.851 383.344 224.851 378.702L224.853 311.73C224.853 307.088 221.088 303.323 216.444 303.323H216.444Z" fill="white"/>
<path d="M243.468 323.966C238.826 323.966 235.061 327.731 235.061 332.373V358.055C235.061 362.696 238.826 366.461 243.468 366.461C248.11 366.461 251.875 362.696 251.875 358.055V332.373C251.875 327.728 248.11 323.966 243.468 323.966Z" fill="white"/>
<path d="M81.3216 323.966C76.6797 323.966 72.9148 327.731 72.9148 332.373V358.055C72.9148 362.696 76.6799 366.461 81.3216 366.461C85.9634 366.461 89.7285 362.696 89.7285 358.055V332.373C89.7285 327.728 85.9634 323.966 81.3216 323.966Z" fill="white"/>
<path d="M459.663 323.966C455.021 323.966 451.256 327.731 451.256 332.373V358.055C451.256 362.696 455.021 366.461 459.663 366.461C464.305 366.461 468.07 362.696 468.07 358.055V332.373C468.07 327.728 464.305 323.966 459.663 323.966Z" fill="white"/>
<path d="M135.37 279.302C130.729 279.302 126.964 283.067 126.964 287.709V402.72C126.964 407.362 130.729 411.127 135.37 411.127C140.012 411.127 143.777 407.362 143.777 402.72V287.709C143.777 283.064 140.012 279.302 135.37 279.302Z" fill="white"/>
<path d="M108.346 303.323C103.704 303.323 99.9392 307.088 99.9392 311.73V378.702C99.9392 383.344 103.704 387.109 108.346 387.109C112.988 387.109 116.753 383.344 116.753 378.702V311.73C116.753 307.088 112.991 303.323 108.346 303.323Z" fill="white"/>
<path d="M378.59 269.243C373.948 269.243 370.183 273.008 370.183 277.65V412.771C370.183 417.413 373.948 421.178 378.59 421.178C383.232 421.178 386.997 417.413 386.997 412.771L387 277.65C387 273.008 383.235 269.243 378.59 269.243H378.59Z" fill="white"/>
<path d="M405.614 279.302C400.972 279.302 397.208 283.067 397.208 287.709V402.72C397.208 407.362 400.973 411.127 405.614 411.127C410.256 411.127 414.021 407.362 414.021 402.72V287.709C414.021 283.064 410.256 279.302 405.614 279.302Z" fill="white"/>
<path d="M432.639 303.323C427.997 303.323 424.232 307.088 424.232 311.73V378.702C424.232 383.344 427.997 387.109 432.639 387.109C437.28 387.109 441.046 383.344 441.046 378.702V311.73C441.046 307.088 437.28 303.323 432.639 303.323Z" fill="white"/>
<path d="M270.493 331.849C265.851 331.849 262.086 335.614 262.086 340.255V350.173C262.086 354.815 265.851 358.579 270.493 358.579C275.134 358.579 278.899 354.814 278.899 350.173V340.255C278.899 335.611 275.134 331.849 270.493 331.849Z" fill="white"/>
<path d="M351.566 279.302C346.924 279.302 343.159 283.067 343.159 287.709V402.72C343.159 407.362 346.924 411.127 351.566 411.127C356.207 411.127 359.972 407.362 359.972 402.72V287.709C359.972 283.064 356.207 279.302 351.566 279.302Z" fill="white"/>
<path d="M324.541 303.323C319.899 303.323 316.134 307.088 316.134 311.73V378.702C316.134 383.344 319.899 387.109 324.541 387.109C329.183 387.109 332.948 383.344 332.948 378.702L332.951 311.73C332.951 307.088 329.186 303.323 324.541 303.323H324.541Z" fill="white"/>
<path d="M297.517 323.966C292.875 323.966 289.11 327.731 289.11 332.373V358.055C289.11 362.696 292.875 366.461 297.517 366.461C302.159 366.461 305.924 362.696 305.924 358.055V332.373C305.924 327.728 302.162 323.966 297.517 323.966Z" fill="white"/>
<defs>
<linearGradient id="paint0_linear_10575_89605" x1="271" y1="0" x2="271" y2="570" gradientUnits="userSpaceOnUse">
<stop stop-color="#00A3FF"/>
<stop offset="0.9999" stop-color="#ADE2FF"/>
<stop offset="1" stop-color="#19ACFF" stop-opacity="0"/>
<stop offset="1" stop-color="#98D8FF"/>
</linearGradient>
</defs>
</svg>
