<svg version="1.0" xmlns="http://www.w3.org/2000/svg"
 width="300.000000pt" height="366.000000pt" viewBox="0 0 300.000000 366.000000"
 preserveAspectRatio="xMidYMid meet">

<g transform="translate(0.000000,366.000000) scale(0.100000,-0.100000)"
fill="#000000" stroke="none">
<path d="M135 3650 c-4 -6 6 -10 24 -10 16 0 40 -4 54 -9 16 -7 39 -4 78 10
l54 18 -102 1 c-57 0 -105 -4 -108 -10z"/>
<path d="M438 3653 c7 -3 16 -2 19 1 4 3 -2 6 -13 5 -11 0 -14 -3 -6 -6z"/>
<path d="M490 3651 c0 -4 18 -20 40 -35 22 -14 54 -45 70 -68 17 -22 30 -34
30 -26 0 24 57 97 93 118 l32 20 -132 0 c-73 0 -133 -4 -133 -9z"/>
<path d="M764 3628 c-71 -48 -101 -98 -113 -186 -5 -40 -17 -85 -26 -98 -15
-24 -15 -27 0 -44 10 -11 20 -39 22 -64 4 -32 9 -43 19 -39 8 3 14 14 14 24 0
33 38 96 77 128 39 32 88 51 134 51 20 0 29 8 42 39 20 45 79 89 130 98 28 4
50 -1 90 -21 53 -25 55 -26 93 -10 52 22 153 14 217 -16 85 -40 120 -109 105
-205 -15 -103 -114 -141 -184 -71 -38 38 -44 74 -20 131 17 40 59 57 83 32 17
-16 8 -43 -29 -84 -26 -28 -20 -55 15 -67 35 -13 74 7 96 46 12 21 13 33 2 67
-15 51 -65 109 -108 127 -49 21 -139 18 -190 -7 l-42 -20 -35 26 c-68 52 -142
40 -185 -28 -12 -19 -21 -37 -21 -40 0 -3 16 -11 35 -17 20 -6 51 -27 71 -45
30 -29 43 -34 83 -33 57 0 112 -26 158 -74 39 -40 53 -76 53 -131 0 -104 -46
-173 -138 -207 -125 -48 -251 5 -268 112 -13 76 15 118 76 118 46 0 76 -31 85
-89 12 -74 21 -96 47 -110 23 -13 30 -13 68 4 50 23 76 57 91 121 28 123 -72
234 -194 218 -38 -5 -44 -3 -65 25 -24 33 -78 64 -129 75 -66 15 -149 -27
-191 -97 -36 -59 -36 -73 1 -95 88 -55 104 -197 29 -265 -11 -10 -41 -26 -66
-36 -35 -13 -53 -28 -76 -65 l-31 -48 26 -44 c50 -85 163 -122 243 -80 19 10
46 37 60 61 32 52 52 58 52 15 0 -19 -11 -42 -31 -65 l-31 -35 41 -18 c31 -14
38 -21 29 -30 -19 -19 -47 -14 -74 13 -20 20 -29 23 -50 15 -92 -35 -228 20
-274 111 l-21 39 -30 -16 c-23 -11 -52 -15 -105 -13 -71 3 -75 2 -106 -28 -38
-37 -76 -53 -123 -53 -25 0 -35 -5 -40 -20 -3 -10 -19 -30 -35 -44 l-30 -24
34 -20 c21 -12 39 -34 47 -55 9 -26 20 -37 39 -41 15 -3 40 -18 55 -35 27 -28
30 -29 57 -15 15 8 50 16 78 17 48 3 51 5 73 47 35 70 85 103 161 108 49 3 74
-1 114 -18 56 -24 96 -68 86 -94 -9 -23 -17 -20 -35 13 -19 32 -92 71 -133 71
-81 0 -167 -57 -184 -123 -7 -29 -12 -32 -48 -35 -108 -7 -157 -39 -169 -112
-17 -100 21 -165 103 -176 48 -6 51 -8 67 -51 24 -63 63 -86 138 -80 76 7 77
-15 2 -49 -42 -19 -64 -39 -95 -81 -34 -48 -86 -161 -78 -168 2 -1 20 -5 41
-9 33 -6 38 -4 46 17 14 37 60 86 101 107 21 11 40 16 44 13 15 -15 3 -34 -33
-53 -22 -10 -53 -36 -69 -56 l-31 -37 51 -31 c60 -36 78 -60 61 -77 -9 -9 -21
-4 -51 23 -54 49 -98 61 -198 56 -46 -2 -87 -7 -90 -11 -4 -4 0 -15 9 -25 22
-24 47 -86 47 -116 0 -19 8 -27 34 -36 40 -13 106 -81 106 -110 0 -16 -6 -20
-30 -20 -25 0 -32 6 -44 35 -9 22 -26 39 -43 46 -42 16 -135 13 -194 -6 -48
-16 -54 -16 -80 -1 -15 9 -39 16 -53 16 l-26 0 0 -175 c0 -118 4 -175 11 -175
7 0 8 25 3 79 -6 77 -6 79 19 96 51 33 122 -8 133 -77 12 -69 -51 -139 -126
-140 l-39 0 2 -71 c2 -69 2 -70 35 -84 49 -20 98 -3 143 48 31 37 38 40 57 30
36 -19 105 -14 131 10 19 18 22 28 17 59 -5 31 -2 41 19 60 31 29 33 84 5 120
-25 32 -26 63 -3 58 52 -10 83 -135 46 -188 -10 -15 -16 -39 -14 -61 1 -21 -2
-46 -8 -57 -17 -32 -88 -55 -146 -47 -46 5 -53 3 -75 -21 -48 -51 -121 -69
-184 -44 l-26 10 0 -135 c0 -124 1 -134 20 -140 35 -11 89 34 107 90 9 28 13
30 59 30 55 0 100 26 124 69 13 25 17 26 82 24 37 -2 68 -4 68 -6 0 -2 -7 -16
-15 -32 -13 -26 -19 -29 -46 -23 -25 5 -36 0 -62 -24 -43 -41 -69 -53 -111
-53 -28 0 -39 -6 -57 -33 -12 -17 -29 -38 -38 -45 -14 -11 -12 -15 15 -37 17
-13 37 -38 44 -54 6 -16 25 -35 41 -41 16 -7 40 -26 52 -41 l23 -29 39 20 c22
11 51 20 66 20 37 0 59 9 59 25 0 20 42 67 51 58 5 -5 -2 -29 -14 -54 -22 -45
-23 -47 -79 -53 -125 -15 -191 -118 -142 -221 18 -39 31 -46 99 -54 47 -6 50
-7 47 -33 l-3 -28 1210 0 c768 0 1211 4 1211 10 0 5 19 14 43 21 23 6 50 18
59 26 16 15 16 17 -2 40 -48 61 -50 158 -4 212 l24 29 -31 26 c-40 34 -45 33
-53 -8 -8 -42 -40 -84 -75 -97 -22 -9 -29 -7 -44 12 -18 22 -18 23 11 35 44
18 75 63 68 99 -11 56 -116 125 -164 108 -9 -3 -25 -13 -34 -21 -16 -14 -18
-13 -20 9 -2 42 3 84 13 94 5 5 9 -3 9 -23 l0 -32 43 6 c57 9 102 37 121 79
16 34 19 35 71 35 46 0 58 4 84 31 29 29 31 35 31 105 0 68 -2 74 -21 74 -11
0 -29 5 -39 10 -15 8 -22 5 -35 -17 -39 -65 -122 -91 -185 -58 -33 17 -34 17
-51 -6 -16 -22 -18 -22 -25 -6 -4 10 -2 36 5 56 6 21 11 55 11 75 0 24 5 36
14 36 18 0 26 -22 26 -70 0 -44 10 -50 76 -50 57 0 79 12 100 53 23 43 31 47
70 31 18 -8 38 -14 44 -14 6 0 10 81 10 239 0 203 -2 240 -15 245 -18 6 -110
-10 -165 -29 -34 -12 -45 -12 -75 0 -101 43 -175 -19 -175 -145 0 -85 27 -135
87 -162 25 -11 49 -16 54 -11 4 4 1 29 -9 56 -15 43 -15 50 -2 75 33 58 109
52 135 -12 39 -92 -50 -184 -155 -161 -17 4 -50 22 -74 40 l-44 33 -5 -26 c-3
-15 -12 -36 -20 -47 -12 -16 -18 -17 -30 -7 -13 11 -12 17 5 52 25 50 19 93
-21 140 l-29 35 -24 -21 c-26 -24 -61 -44 -77 -44 -6 0 -11 11 -11 25 0 14 4
25 9 25 20 0 75 56 92 95 10 22 18 63 18 90 l0 50 -22 -27 c-33 -41 -77 -32
-77 15 0 16 3 17 14 8 11 -9 22 -6 51 14 25 17 51 25 79 25 42 0 102 -29 112
-53 3 -10 20 -12 62 -9 31 2 59 6 60 7 9 8 -38 94 -67 122 -62 62 -169 65
-208 7 -13 -21 -22 -25 -46 -20 -16 3 -38 1 -49 -5 -17 -9 -19 -8 -16 18 3 24
8 28 37 31 19 2 48 15 65 29 27 22 37 25 98 21 55 -3 75 -9 110 -34 56 -39 98
-100 105 -152 3 -23 7 -42 10 -42 2 0 22 9 45 21 22 11 65 23 95 26 55 6 55 6
49 36 -11 56 -44 96 -89 108 -23 6 -48 13 -54 15 -7 2 -13 15 -13 30 0 86 -48
147 -146 183 -124 47 -213 41 -279 -20 -24 -22 -48 -53 -55 -69 -7 -17 -18
-30 -25 -30 -14 0 -84 49 -104 73 -12 15 -11 17 5 17 11 0 35 -10 54 -21 27
-17 35 -18 38 -8 3 8 28 37 57 64 57 54 81 107 70 155 -7 31 -10 32 -86 45
-21 3 -53 17 -73 30 -20 14 -38 25 -40 25 -2 0 -13 -15 -24 -34 -22 -37 -75
-71 -98 -62 -24 9 -15 35 19 52 50 25 67 45 67 76 0 25 -4 28 -30 28 -36 0
-109 35 -117 55 -3 8 -11 15 -18 15 -17 0 -30 33 -15 38 21 7 49 45 55 74 15
68 -49 128 -104 97 -15 -9 -28 -26 -31 -43 l-5 -28 -20 22 c-18 20 -18 24 -4
48 20 36 75 54 122 41 83 -23 113 -118 62 -193 -14 -21 -23 -41 -20 -45 8 -13
71 -41 93 -41 11 0 34 11 50 25 27 23 30 31 29 84 0 67 17 103 64 129 36 21
36 42 1 112 -48 96 -130 116 -206 50 -39 -35 -52 -37 -80 -11 -64 57 -235 54
-299 -5 -28 -26 -43 -29 -67 -14 -12 7 -11 13 10 36 63 68 224 91 324 46 27
-12 51 -22 54 -22 4 0 -18 25 -47 54 -69 70 -131 97 -236 103 -117 8 -271 -37
-332 -96 -12 -11 -34 -21 -49 -21 -27 0 -27 0 -8 22 30 34 133 97 170 104 30
5 49 24 25 24 -16 0 -69 90 -76 130 -12 73 55 172 126 187 24 5 29 11 29 35 0
16 9 45 19 66 41 79 115 123 208 124 29 0 53 4 53 9 0 19 -54 69 -88 80 -20 7
-74 12 -119 12 l-83 -2 0 36 c0 46 -28 83 -104 138 l-64 45 -330 0 -330 0 -48
-32z m410 -916 c7 -11 -53 -76 -77 -85 -28 -10 -12 31 24 66 30 28 44 33 53
19z m-499 -343 c19 -20 18 -21 -5 -63 -24 -45 -22 -76 5 -76 17 0 19 -9 6 -28
-7 -11 -14 -11 -44 1 -72 31 -95 119 -43 163 33 29 57 30 81 3z m534 -392 c1
-5 -3 -5 -9 -2 -5 3 -10 16 -9 28 0 21 1 21 9 2 5 -11 9 -24 9 -28z m128 11
c-3 -8 -6 -5 -6 6 -1 11 2 17 5 13 3 -3 4 -12 1 -19z m-103 -4 c3 -8 2 -12 -4
-9 -6 3 -10 10 -10 16 0 14 7 11 14 -7z m156 -47 c0 -4 -4 -5 -10 -2 -5 3 -10
14 -10 23 0 11 -3 13 -11 5 -8 -8 -8 -17 0 -34 10 -20 9 -21 -1 -7 -12 16 -15
15 -45 -14 l-33 -32 0 25 c0 13 -5 31 -10 39 -14 23 89 44 108 21 6 -8 12 -19
12 -24z m-248 0 c3 4 3 2 2 -4 -4 -16 8 -17 24 -1 9 9 12 6 12 -17 0 -16 7
-36 15 -46 15 -15 12 -17 -32 -24 -26 -3 -59 -9 -73 -12 -23 -5 -22 -3 14 35
36 38 38 42 22 57 -20 20 -21 32 -2 16 8 -7 16 -8 18 -4z m-61 -54 c13 -16 12
-17 -3 -4 -10 7 -18 15 -18 17 0 8 8 3 21 -13z m134 7 c-3 -5 -11 -10 -16 -10
-6 0 -7 5 -4 10 3 6 11 10 16 10 6 0 7 -4 4 -10z m115 -28 c0 -15 -2 -15 -10
-2 -13 20 -13 33 0 25 6 -3 10 -14 10 -23z m-25 -19 c12 -56 13 -63 9 -63 -3
0 -8 10 -13 23 -19 51 -22 67 -12 67 6 0 13 -12 16 -27z m-45 -18 c0 -14 -2
-25 -4 -25 -2 0 -6 11 -8 25 -3 14 -1 25 3 25 5 0 9 -11 9 -25z m-28 -19 c2
-19 1 -33 -3 -30 -9 5 -17 64 -8 64 4 0 9 -15 11 -34z m-45 2 c-3 -8 -6 -5 -6
6 -1 11 2 17 5 13 3 -3 4 -12 1 -19z m-90 -10 c-3 -8 -6 -5 -6 6 -1 11 2 17 5
13 3 -3 4 -12 1 -19z m30 -15 c-3 -10 -5 -4 -5 12 0 17 2 24 5 18 2 -7 2 -21
0 -30z m-202 8 c9 -16 -9 -20 -23 -5 -10 12 -10 14 2 14 8 0 17 -4 21 -9z
m-83 -32 c-3 -20 1 -31 11 -35 9 -3 14 -14 12 -26 -6 -31 -15 -35 -15 -7 0 19
-2 21 -10 9 -8 -13 -10 -13 -10 2 0 9 -5 18 -12 20 -6 2 -13 17 -14 34 -1 23
2 29 20 30 19 1 22 -3 18 -27z m918 -113 c0 -20 -19 -31 -32 -18 -6 6 -7 15
-4 21 10 16 36 13 36 -3z m-590 -201 c0 -3 -24 -17 -52 -30 -63 -30 -180 -37
-158 -10 7 8 27 15 44 15 17 1 42 7 56 15 24 14 110 21 110 10z m1250 -335
c20 -20 27 -50 12 -50 -9 0 -44 36 -56 58 -12 20 22 14 44 -8z m-1740 -250
c-6 -11 -15 -20 -20 -20 -4 0 -16 -3 -25 -6 -13 -5 -16 -2 -13 12 2 11 15 21
33 25 17 4 31 7 33 8 1 0 -2 -8 -8 -19z m690 -102 c0 -11 -7 -18 -19 -18 -22
0 -35 15 -26 29 10 17 45 8 45 -11z m4 -73 c6 -17 -21 -48 -38 -42 -16 5 -20
48 -5 57 15 10 36 3 43 -15z m-153 -61 c-30 -50 -27 -57 15 -49 40 7 40 9 -8
-62 l-29 -43 75 0 c41 0 77 -4 80 -8 3 -5 -15 -18 -40 -30 -25 -12 -42 -26
-39 -32 3 -5 31 -24 63 -42 l57 -33 -97 -3 c-54 -1 -98 -5 -98 -8 0 -3 18 -29
40 -59 l41 -55 -41 0 c-22 0 -40 -3 -40 -8 0 -4 11 -24 25 -45 l26 -37 -61 0
c-33 0 -60 2 -60 5 0 2 12 21 26 42 l26 38 -42 5 -41 5 41 58 41 57 -93 0 -93
1 58 36 58 36 -48 31 c-36 23 -42 31 -28 33 11 1 46 5 78 8 l58 7 -42 49 -41
49 41 0 c46 0 50 9 21 50 l-21 29 43 4 c24 2 49 4 56 5 10 1 8 -8 -7 -34z
m154 -54 c0 -18 -6 -26 -23 -28 -24 -4 -38 18 -28 44 3 9 15 14 28 12 17 -2
23 -10 23 -28z m34 -64 c23 -28 -17 -68 -45 -45 -17 14 -18 31 -2 47 16 16 33
15 47 -2z m366 -6 c8 -27 -1 -40 -30 -40 -27 0 -41 26 -24 46 17 20 47 17 54
-6z m-315 -65 c19 -23 8 -50 -20 -50 -19 0 -26 6 -28 24 -5 35 26 53 48 26z
m227 -1 c7 -18 -6 -45 -24 -51 -6 -2 -18 3 -27 12 -12 12 -13 21 -6 36 13 23
48 25 57 3z m-95 -22 c5 -5 4 -21 -3 -38 -7 -16 -14 -37 -16 -47 -6 -34 -32
-87 -42 -87 -11 0 -13 5 -15 33 -1 6 -4 15 -8 18 -5 3 -11 34 -15 69 -4 47 -3
61 5 56 7 -4 12 -2 12 5 0 13 67 6 82 -9z m-972 -129 c0 -27 -10 -53 -20 -53
-14 0 -20 48 -9 76 8 23 12 25 19 14 6 -8 10 -25 10 -37z m855 -157 c-8 -38
-11 -41 -34 -27 -11 7 -10 15 9 41 27 38 34 34 25 -14z m138 -7 c3 -12 0 -22
-9 -26 -19 -7 -21 -5 -30 42 -7 40 -7 40 14 22 11 -10 22 -27 25 -38z m712 1
c17 -7 14 -9 -13 -9 -20 -1 -31 3 -27 9 7 12 13 12 40 0z"/>
<path d="M612 2338 c-14 -14 -16 -54 -4 -62 7 -4 42 54 42 69 0 10 -26 5 -38
-7z"/>
<path d="M1510 380 c0 -5 7 -7 15 -4 8 4 15 8 15 10 0 2 -7 4 -15 4 -8 0 -15
-4 -15 -10z"/>
<path d="M1566 3650 c47 -19 110 -22 145 -7 33 15 32 15 -66 16 -65 0 -93 -3
-79 -9z"/>
<path d="M1766 3652 c-11 -19 45 -91 87 -111 42 -20 147 -39 147 -27 0 4 -7
18 -17 32 -9 14 -17 45 -17 70 l-1 44 -97 0 c-53 0 -99 -4 -102 -8z"/>
<path d="M1992 3615 c6 -53 31 -95 56 -95 32 0 40 -18 26 -58 -48 -136 32
-258 167 -255 133 4 228 94 229 216 0 26 -4 47 -9 47 -5 0 -23 -11 -39 -25
-17 -14 -35 -25 -41 -25 -6 0 -24 19 -41 42 -53 73 -31 148 45 148 23 0 42 8
59 25 l25 25 -241 0 -241 0 5 -45z"/>
<path d="M2673 3628 c56 -37 87 -89 87 -149 0 -25 7 -50 16 -60 15 -17 18 -16
61 7 25 13 67 27 94 30 46 6 49 8 49 36 0 76 -49 128 -129 138 -29 3 -45 10
-43 18 1 9 -23 12 -90 12 l-93 0 48 -32z"/>
<path d="M51 3609 c-36 -36 -37 -42 -12 -78 11 -15 25 -49 32 -74 6 -26 15
-50 19 -52 5 -3 23 3 42 14 18 11 60 24 92 30 33 6 61 13 63 15 10 10 -21 90
-42 112 -19 19 -35 24 -75 24 -43 0 -53 3 -57 20 -7 28 -27 25 -62 -11z"/>
<path d="M2495 3616 c-16 -8 -36 -24 -43 -36 -10 -17 -20 -21 -40 -17 -41 8
-62 -8 -62 -49 0 -44 18 -51 61 -25 62 38 172 24 202 -26 11 -18 117 -18 117
0 -1 27 -39 94 -69 120 -30 25 -88 47 -121 47 -8 -1 -28 -7 -45 -14z"/>
<path d="M310 3609 c-33 -14 -33 -11 -10 -60 11 -24 20 -56 20 -70 0 -19 9
-29 35 -42 20 -9 45 -32 56 -51 20 -34 21 -35 97 -38 44 -2 80 1 84 7 4 6 8
30 8 56 0 127 -172 245 -290 198z"/>
<path d="M1700 3609 c-14 -6 -40 -8 -57 -5 l-33 5 25 -37 c14 -20 28 -53 31
-72 l6 -35 56 4 c121 7 191 -27 226 -111 8 -21 19 -38 25 -38 16 0 51 57 51
83 0 14 4 37 10 51 l10 26 -69 0 c-110 0 -204 44 -231 109 -14 34 -14 34 -50
20z"/>
<path d="M0 3482 c0 -33 4 -41 22 -45 12 -4 24 -4 26 -2 7 7 -19 63 -34 76
-12 9 -14 4 -14 -29z"/>
<path d="M2498 3418 c2 -48 -1 -72 -15 -99 l-19 -36 34 -39 c26 -29 33 -33 27
-16 -11 39 13 128 46 163 l30 32 -23 23 c-13 13 -37 26 -54 30 l-30 6 4 -64z"/>
<path d="M198 3411 c-15 -5 -43 -19 -62 -31 -32 -19 -37 -20 -58 -7 -13 8 -35
17 -51 21 l-27 6 0 -107 c0 -100 1 -106 16 -85 19 28 63 29 98 1 22 -17 26
-28 26 -71 0 -44 -4 -54 -34 -84 -26 -26 -42 -34 -70 -34 l-36 0 0 -81 0 -80
36 -15 c52 -22 87 -10 132 42 l38 45 47 -13 c83 -22 139 23 124 100 -4 20 0
32 18 47 37 31 37 79 -1 124 -39 46 -10 72 34 31 33 -31 46 -92 28 -135 -8
-19 -21 -38 -29 -40 -8 -4 -12 -18 -10 -38 5 -42 -14 -76 -57 -105 -28 -19
-45 -23 -91 -20 -52 3 -58 0 -100 -36 -43 -37 -46 -38 -106 -33 l-63 5 0 -128
c0 -121 1 -129 20 -135 27 -9 83 33 100 74 11 27 17 31 52 31 51 0 96 20 132
59 29 30 33 31 113 31 99 0 135 18 186 95 23 35 43 51 71 61 60 20 88 53 94
113 4 49 3 53 -36 91 -30 31 -47 40 -73 40 -51 0 -62 11 -54 53 17 88 -27 122
-139 111 l-63 -6 -21 35 c-11 20 -31 43 -44 51 -30 20 -104 28 -140 17z"/>
<path d="M2896 3409 c-21 -5 -56 -19 -77 -31 l-39 -22 -24 23 c-33 31 -87 38
-125 15 -42 -25 -54 -60 -49 -148 4 -80 18 -110 71 -150 38 -28 52 -12 39 48
-12 59 -5 94 25 113 53 35 126 -20 126 -96 0 -139 -203 -181 -278 -57 l-22 37
-7 -42 c-5 -28 -17 -52 -40 -75 -30 -30 -40 -34 -86 -34 -44 0 -56 4 -81 29
-35 35 -39 81 -9 111 23 23 39 25 74 9 32 -15 41 -38 22 -57 -12 -13 -16 -12
-32 7 -32 37 -68 16 -45 -27 33 -62 135 -42 159 33 16 47 5 96 -29 139 l-22
27 -31 -30 c-34 -33 -127 -71 -173 -71 -70 0 -172 75 -196 143 l-10 29 -22
-28 -23 -29 -48 18 c-27 9 -63 17 -80 17 -46 0 -135 -50 -162 -90 -48 -72 -7
-181 74 -196 36 -7 88 16 104 45 29 55 -5 125 -58 119 -24 -3 -27 -7 -25 -40
2 -39 -11 -50 -35 -26 -34 34 11 108 67 108 61 0 115 -79 96 -140 -11 -36 -64
-88 -100 -100 -60 -20 -117 11 -160 85 -10 17 -13 17 -42 2 -42 -22 -81 -71
-88 -111 -8 -40 18 -97 64 -140 29 -27 34 -29 113 -27 149 3 265 -46 340 -144
32 -41 34 -42 58 -29 14 8 37 18 53 24 16 5 27 17 27 27 0 10 14 36 32 57 23
29 29 41 19 44 -23 8 -89 72 -111 106 -28 46 -43 126 -30 160 14 38 31 23 24
-23 -11 -67 45 -162 122 -207 41 -24 47 -25 97 -14 51 12 116 3 177 -24 21 -9
99 58 117 101 8 21 11 47 7 68 -7 42 2 61 22 44 8 -7 14 -30 14 -59 0 -40 3
-48 25 -58 14 -7 42 -12 61 -12 36 0 52 13 118 91 15 18 19 18 46 4 16 -8 38
-15 50 -15 20 0 20 5 20 240 l0 240 -32 -1 c-18 -1 -50 -5 -72 -10z"/>
<path d="M1404 3362 c-16 -10 -36 -52 -26 -52 10 0 52 43 52 53 0 9 -12 9 -26
-1z"/>
<path d="M2725 3209 c-4 -6 -1 -38 6 -71 l14 -60 22 27 c25 28 29 64 13 96
-12 21 -45 26 -55 8z"/>
<path d="M51 3186 c-10 -11 -9 -27 0 -69 14 -60 29 -65 54 -16 20 38 19 55 -5
79 -24 24 -34 25 -49 6z"/>
<path d="M1 3118 c-1 -34 3 -58 9 -58 19 0 22 29 7 72 l-15 43 -1 -57z"/>
<path d="M992 3068 c-7 -7 -12 -28 -12 -48 0 -28 8 -43 33 -67 38 -36 80 -50
73 -25 -2 9 -8 42 -11 72 -4 30 -12 61 -17 68 -13 15 -50 16 -66 0z"/>
<path d="M2879 2888 c-36 -51 -119 -73 -183 -48 -23 8 -31 4 -79 -44 l-53 -53
27 -31 c26 -29 49 -87 49 -124 0 -14 9 -18 40 -18 61 0 110 28 130 75 16 38
18 39 63 36 53 -3 99 19 116 56 6 13 11 55 11 93 0 67 -1 70 -24 70 -14 0 -36
4 -50 10 -22 8 -28 5 -47 -22z"/>
<path d="M2289 2740 c-20 -11 -46 -35 -57 -54 l-20 -34 32 -6 c18 -3 46 -21
64 -39 32 -33 71 -109 72 -138 0 -12 14 -18 55 -22 31 -3 70 -14 88 -24 79
-46 116 -159 83 -253 -18 -52 -14 -58 53 -98 40 -23 57 -27 121 -26 52 1 93 8
133 23 61 24 66 31 40 52 -45 38 -57 150 -22 208 20 34 20 35 3 49 -48 35 -53
34 -63 -6 -24 -89 -120 -123 -213 -76 -33 17 -54 52 -40 66 7 7 25 1 54 -16
54 -31 96 -33 132 -5 50 40 25 158 -40 185 -52 22 -119 18 -144 -8 -28 -30
-44 -13 -29 31 46 133 -162 265 -302 191z"/>
<path d="M2966 2665 c-11 -8 -41 -15 -67 -15 -39 0 -49 -4 -54 -20 -3 -10 -19
-30 -35 -43 l-28 -24 28 -21 c15 -12 36 -39 46 -62 11 -25 24 -40 36 -40 9 0
33 -14 52 -31 20 -17 40 -28 46 -24 12 7 14 295 3 295 -5 0 -17 -7 -27 -15z"/>
<path d="M0 2426 c0 -118 7 -132 64 -122 55 10 86 41 86 85 0 66 -47 117 -122
135 l-28 6 0 -104z"/>
<path d="M2353 2390 c-59 -26 -82 -73 -62 -127 13 -33 19 -38 49 -41 25 -2 42
3 58 18 23 22 29 54 12 65 -5 3 -10 15 -10 26 0 30 32 20 48 -14 38 -80 -67
-168 -147 -123 -23 12 -27 12 -43 -10 -18 -23 -18 -24 4 -58 39 -60 137 -84
211 -52 44 19 94 70 108 113 25 77 -14 172 -85 204 -52 24 -90 23 -143 -1z"/>
<path d="M190 2374 c0 -30 -40 -82 -76 -99 -22 -10 -52 -15 -75 -13 l-39 4 0
-112 0 -112 51 -11 c60 -13 119 -6 174 22 22 11 41 21 43 22 2 1 -7 20 -20 41
-28 48 -30 142 -4 192 16 32 16 33 -8 57 -29 29 -46 32 -46 9z"/>
<path d="M2979 2314 c-7 -9 -15 -41 -17 -72 -3 -47 0 -62 17 -82 l20 -25 1 98
c0 53 -2 97 -4 97 -2 0 -9 -7 -17 -16z"/>
<path d="M2550 2065 c-12 -13 -38 -29 -56 -35 -31 -10 -32 -13 -23 -38 6 -15
8 -45 4 -67 l-6 -40 55 3 c32 2 79 -3 112 -13 55 -16 57 -16 78 4 48 45 173
68 254 48 l32 -9 0 81 0 81 -46 -29 c-60 -39 -164 -57 -235 -42 -60 13 -85 25
-120 57 l-25 24 -24 -25z"/>
<path d="M296 2044 c-3 -8 -27 -24 -53 -36 -40 -18 -61 -20 -145 -16 l-98 5 0
-81 c0 -77 1 -80 16 -57 9 13 40 34 68 47 60 28 160 33 205 10 24 -13 33 -13
67 -1 21 8 51 14 66 15 l27 0 -24 36 c-14 20 -25 45 -25 55 0 14 -7 19 -31 19
-17 0 -39 4 -49 10 -13 7 -19 6 -24 -6z"/>
<path d="M435 1913 c-60 -13 -93 -30 -132 -66 -51 -47 -130 -169 -139 -215 -6
-32 -6 -32 35 -32 23 0 54 6 69 14 15 8 44 17 65 21 32 6 37 11 37 34 0 39 41
118 93 182 44 54 45 57 24 63 -12 3 -24 5 -27 5 -3 -1 -14 -3 -25 -6z"/>
<path d="M120 1889 c-13 -6 -39 -21 -57 -35 l-32 -25 38 -34 c21 -19 46 -53
56 -75 l18 -40 33 57 c18 32 50 77 71 100 l39 42 -29 11 c-37 12 -104 12 -137
-1z"/>
<path d="M2785 1886 c-57 -25 -59 -38 -14 -82 22 -21 48 -52 56 -69 l16 -29
24 49 c14 28 41 69 59 92 19 23 34 44 34 47 0 12 -146 5 -175 -8z"/>
<path d="M2951 1824 c-39 -41 -91 -133 -91 -160 0 -7 20 -18 44 -26 37 -12 48
-13 70 -1 26 13 26 15 26 123 0 61 -2 110 -4 110 -2 0 -22 -20 -45 -46z"/>
<path d="M0 1674 l0 -126 50 -75 c27 -42 51 -80 52 -84 2 -4 34 1 73 12 38 10
82 19 97 19 35 0 35 12 3 76 -29 58 -58 76 -109 67 l-35 -5 -7 61 c-8 72 -47
142 -93 166 l-31 16 0 -127z"/>
<path d="M2980 1591 c0 -6 5 -13 10 -16 6 -3 10 1 10 9 0 9 -4 16 -10 16 -5 0
-10 -4 -10 -9z"/>
<path d="M0 1445 c0 -43 1 -45 30 -45 17 0 30 3 30 8 0 9 -49 82 -55 82 -3 0
-5 -20 -5 -45z"/>
<path d="M2498 1400 c2 -27 -1 -73 -7 -101 -11 -50 -10 -54 14 -78 l25 -26 0
57 c0 50 4 62 36 104 l37 48 -27 23 c-15 13 -39 23 -54 23 -26 0 -27 -2 -24
-50z"/>
<path d="M2745 1179 c-4 -6 -1 -38 6 -71 l14 -60 22 27 c30 34 30 79 1 99 -26
19 -35 20 -43 5z"/>
<path d="M54 1135 c3 -19 9 -51 12 -70 3 -19 9 -35 14 -35 13 0 38 34 45 60 8
32 -27 80 -57 80 -18 0 -19 -4 -14 -35z"/>
<path d="M2976 635 c-11 -8 -40 -15 -65 -15 -43 0 -47 -3 -69 -40 -12 -22 -27
-40 -33 -40 -6 0 4 -18 24 -39 19 -21 38 -48 42 -60 3 -12 18 -24 33 -27 15
-4 42 -18 60 -31 l32 -24 0 145 c0 81 -1 146 -2 146 -2 0 -12 -7 -22 -15z"/>
<path d="M0 391 c0 -110 0 -112 26 -121 43 -17 65 -11 100 24 28 28 34 41 34
78 0 69 -38 107 -123 123 l-37 7 0 -111z"/>
<path d="M190 331 c-6 -24 -24 -52 -47 -71 -34 -30 -40 -32 -90 -27 l-53 6 0
-53 c0 -73 33 -133 90 -163 54 -29 101 -29 157 -2 l43 21 -22 31 c-32 44 -36
139 -10 190 20 37 20 37 0 62 -11 14 -28 30 -38 35 -17 9 -21 5 -30 -29z"/>
<path d="M2978 290 c-26 -40 -32 -92 -14 -135 25 -59 37 -32 34 71 -3 87 -3
88 -20 64z"/>
<path d="M310 15 c-11 -13 -6 -15 44 -15 31 0 56 5 56 10 0 6 -13 10 -29 10
-16 0 -36 2 -44 5 -7 3 -20 -1 -27 -10z"/>
</g>
</svg>
