<?xml version="1.0" standalone="no"?>
<!DOCTYPE svg PUBLIC "-//W3C//DTD SVG 20010904//EN"
 "http://www.w3.org/TR/2001/REC-SVG-20010904/DTD/svg10.dtd">
<svg version="1.0" xmlns="http://www.w3.org/2000/svg"
 width="301.000000pt" height="366.000000pt" viewBox="0 0 301.000000 366.000000"
 preserveAspectRatio="xMidYMid meet">

<g transform="translate(0.000000,366.000000) scale(0.100000,-0.100000)"
fill="#000000" stroke="none">
<path d="M2957 2629 c-21 -15 -73 -42 -115 -59 -170 -70 -254 -152 -291 -285
-6 -22 -18 -101 -26 -176 -23 -218 -62 -310 -174 -410 -53 -48 -188 -122 -241
-134 -23 -5 -28 2 -65 77 -35 75 -39 90 -36 148 3 75 -13 218 -35 305 -41 161
-146 315 -279 411 -131 93 -217 119 -435 130 -125 7 -205 -6 -301 -47 -60 -26
-88 -58 -133 -152 -68 -141 -97 -320 -97 -581 1 -200 22 -283 132 -514 27 -57
49 -107 49 -112 0 -27 135 -345 159 -373 8 -10 5 -27 -9 -65 -11 -29 -20 -67
-20 -85 -1 -37 -32 -77 -81 -102 -19 -10 -68 -45 -109 -78 -90 -72 -138 -95
-239 -113 -89 -16 -229 -18 -265 -4 -69 26 -158 139 -203 258 -54 144 -65 281
-33 444 24 122 25 213 6 325 -8 45 -22 137 -31 205 -20 144 -39 218 -65 250
-19 23 -19 10 -19 -857 0 -931 0 -926 46 -977 43 -47 44 -47 529 -49 l459 -1
17 89 c10 48 17 99 18 113 1 54 15 56 69 9 28 -24 76 -60 108 -79 78 -48 110
-45 258 18 66 28 145 58 175 67 30 9 75 23 99 31 25 8 45 13 46 11 1 -1 14
-58 29 -127 15 -68 29 -126 31 -128 2 -3 178 -5 390 -6 l385 -1 0 25 c0 14 -6
50 -14 82 -11 46 -11 55 0 51 21 -8 37 -71 30 -116 l-7 -42 113 5 c118 5 137
11 178 54 23 25 23 29 11 73 -33 125 -102 162 -251 133 -59 -11 -63 -2 -64
125 -1 94 -3 104 -34 158 -23 40 -29 59 -20 61 12 4 44 9 180 31 44 7 150 -10
190 -31 l28 -15 0 306 c0 333 0 333 -58 388 -49 47 -92 46 -212 -2 -111 -44
-141 -49 -160 -26 -17 20 14 54 86 94 116 66 239 209 269 316 8 27 19 107 24
176 7 90 16 141 30 175 20 47 21 64 19 340 l-3 291 -38 -28z m-1502 -30 c63
-12 177 -66 214 -100 57 -53 87 -172 97 -379 11 -239 -14 -494 -59 -602 -13
-31 -14 -28 -16 72 -1 58 -6 119 -11 135 -8 24 -9 17 -6 -35 5 -69 -8 -206
-25 -255 -5 -16 -18 -41 -28 -54 -18 -23 -18 -22 -13 55 4 85 -18 277 -44 382
-32 127 -144 337 -251 469 -42 51 -177 157 -235 183 -58 26 -108 25 -143 -2
-47 -37 -107 -191 -156 -402 -31 -135 -30 -208 3 -264 15 -26 29 -39 32 -33
11 17 20 13 31 -11 6 -12 21 -25 35 -29 19 -5 14 -7 -22 -8 l-46 -1 -7 -63
c-8 -77 4 -127 56 -227 21 -41 59 -118 83 -170 54 -115 84 -142 166 -148 57
-4 158 27 226 69 l31 19 77 -36 c98 -45 159 -53 203 -25 33 20 93 95 93 114 0
6 -14 -8 -31 -31 -58 -79 -129 -92 -245 -45 l-67 26 23 19 c15 12 39 18 76 18
35 0 71 8 106 24 55 25 179 129 177 149 0 9 -2 9 -5 1 -3 -7 -28 -31 -57 -55
l-52 -43 46 50 c42 46 79 102 79 120 0 4 -13 -11 -29 -32 -16 -21 -45 -57 -65
-79 -34 -38 -34 -36 9 27 45 65 83 153 72 165 -3 3 -9 -8 -13 -23 -12 -54
-115 -204 -167 -244 -33 -26 -84 -50 -104 -50 -10 0 5 14 34 30 58 33 140 126
178 200 14 27 35 84 47 127 21 72 22 99 23 363 0 157 -3 305 -7 330 l-7 45 14
-31 c8 -18 24 -78 37 -135 30 -138 33 -424 6 -536 -20 -79 -23 -125 -7 -85 25
63 49 228 50 339 1 177 -39 391 -92 495 -27 53 -24 56 14 17 82 -83 155 -227
184 -359 16 -74 18 -134 18 -455 0 -357 -1 -372 -21 -415 -34 -70 -129 -162
-189 -182 -31 -10 -42 -16 -27 -17 66 -3 193 102 234 192 22 50 23 59 21 287
l-3 235 34 -66 c73 -139 146 -398 146 -517 0 -26 9 -76 20 -110 11 -35 20 -94
21 -130 0 -60 2 -64 11 -37 6 17 12 32 14 33 5 7 160 -98 188 -127 l30 -31
-38 0 c-23 0 -70 -15 -120 -38 -71 -34 -100 -56 -231 -183 -83 -79 -168 -156
-191 -171 -22 -15 -87 -42 -144 -59 -58 -17 -162 -55 -232 -85 -137 -58 -171
-63 -233 -35 -100 46 -192 148 -255 284 -16 35 -29 53 -29 42 -1 -11 15 -51
34 -89 19 -39 35 -71 35 -73 0 -5 -55 32 -113 76 -31 24 -57 45 -57 48 0 15
23 43 35 43 9 0 12 6 9 15 -8 20 4 65 16 65 6 0 10 -15 11 -32 1 -36 3 -33 18
27 6 22 22 56 37 75 l25 35 -6 -40 c-4 -26 -3 -35 3 -25 5 8 12 47 16 86 5 61
21 129 33 143 2 3 10 -4 18 -15 9 -12 14 -42 15 -79 0 -114 40 -218 126 -333
70 -93 128 -113 197 -67 46 32 49 44 3 16 -50 -31 -96 -27 -138 12 -48 43
-123 156 -142 214 -15 45 -37 174 -31 181 2 2 13 -12 26 -30 37 -54 111 -139
116 -134 3 2 -19 33 -48 68 -94 113 -205 300 -244 410 -21 61 -20 62 28 34 23
-14 74 -38 112 -55 39 -16 105 -45 148 -65 42 -19 77 -33 77 -30 0 5 -149 77
-259 125 -76 34 -129 74 -146 112 -7 17 -43 98 -79 178 -40 88 -78 194 -97
265 -30 117 -31 121 -25 299 8 262 50 448 130 573 21 34 41 50 89 71 61 27
147 48 217 53 49 4 204 -9 275 -23z m-215 -628 c0 -6 -4 -13 -10 -16 -5 -3
-10 1 -10 9 0 9 5 16 10 16 6 0 10 -4 10 -9z m60 -1 c0 -5 -7 -10 -16 -10 -8
0 -12 5 -9 10 3 6 10 10 16 10 5 0 9 -4 9 -10z m-110 -15 c0 -8 -4 -15 -10
-15 -5 0 -7 7 -4 15 4 8 8 15 10 15 2 0 4 -7 4 -15z m140 -30 c-19 -19 -38
-35 -44 -35 -5 0 -7 3 -3 6 3 3 2 17 -3 29 -9 25 -10 25 69 33 8 1 0 -14 -19
-33z m-180 1 c0 -3 -4 -8 -10 -11 -5 -3 -10 -1 -10 4 0 6 5 11 10 11 6 0 10
-2 10 -4z m103 -8 c6 -19 -3 -38 -18 -38 -18 0 -28 17 -21 35 7 18 33 20 39 3z
m-63 -23 c0 -13 8 -28 17 -33 18 -11 5 -15 -87 -27 l-45 -6 47 45 c53 52 68
57 68 21z m-260 -95 c0 -5 -4 -10 -9 -10 -6 0 -13 5 -16 10 -3 6 1 10 9 10 9
0 16 -4 16 -10z m-30 -30 c0 -21 -24 -28 -35 -10 -8 14 3 30 21 30 8 0 14 -9
14 -20z m270 -325 c0 -3 -24 -17 -52 -30 -37 -18 -71 -25 -112 -25 -58 0 -59
0 -41 20 11 12 31 20 49 20 17 0 38 5 46 10 16 10 110 14 110 5z m-40 -60 c0
-11 -62 -35 -72 -29 -7 5 1 12 23 20 39 14 49 16 49 9z m1392 -728 c50 -45
118 -148 118 -180 0 -14 -3 -17 -12 -9 -41 33 -206 32 -331 -2 -52 -14 -240
-85 -330 -125 l-48 -21 63 57 c35 32 106 99 158 149 112 107 142 129 212 154
85 30 116 26 170 -23z m81 -193 c18 -9 36 -22 40 -28 14 -21 -13 -156 -32
-156 -5 0 -31 81 -59 183 -6 21 10 22 51 1z m57 -235 c14 -57 9 -70 -19 -45
-23 21 -33 66 -19 84 18 21 26 13 38 -39z"/>
<path d="M2034 1223 c-129 -314 -214 -438 -376 -546 -92 -60 -182 -118 -213
-135 -11 -6 -15 -11 -10 -12 6 0 35 14 65 31 30 17 84 47 120 67 108 59 147
90 203 160 82 102 132 188 165 282 17 47 39 109 51 138 11 28 18 52 15 52 -3
0 -12 -17 -20 -37z"/>
<path d="M2178 966 c-6 -54 -50 -147 -112 -241 -25 -38 -46 -78 -46 -90 0 -12
9 0 24 30 12 28 34 64 48 80 43 51 89 154 95 211 3 30 4 54 1 54 -3 0 -8 -20
-10 -44z"/>
<path d="M1214 899 c8 -29 96 -137 139 -173 45 -36 118 -76 139 -76 7 0 -9 11
-36 25 -83 42 -143 99 -229 215 -10 14 -16 18 -13 9z"/>
<path d="M1905 681 c-69 -32 -149 -113 -179 -181 -15 -34 -26 -63 -24 -66 3
-2 20 24 39 58 31 56 129 155 195 195 29 18 14 15 -31 -6z"/>
<path d="M1081 485 c-1 -37 31 -91 59 -100 34 -11 35 2 1 19 -23 12 -34 28
-45 64 -13 41 -15 43 -15 17z"/>
<path d="M1220 1910 c0 -5 5 -10 10 -10 6 0 10 5 10 10 0 6 -4 10 -10 10 -5 0
-10 -4 -10 -10z"/>
<path d="M875 1770 c3 -5 8 -10 11 -10 2 0 4 5 4 10 0 6 -5 10 -11 10 -5 0 -7
-4 -4 -10z"/>
<path d="M1130 87 c0 -64 3 -77 16 -77 13 0 15 10 9 67 -10 97 -25 103 -25 10z"/>
<path d="M1656 97 c-11 -34 -21 -68 -24 -75 -2 -6 0 -12 5 -12 6 0 19 34 30
75 24 91 16 100 -11 12z"/>
<path d="M1490 59 c0 -8 7 -24 15 -35 19 -25 19 -14 0 22 -8 16 -15 22 -15 13z"/>
</g>
</svg>
