<?xml version="1.0" standalone="no"?>
<!DOCTYPE svg PUBLIC "-//W3C//DTD SVG 20010904//EN"
 "http://www.w3.org/TR/2001/REC-SVG-20010904/DTD/svg10.dtd">
<svg version="1.0" xmlns="http://www.w3.org/2000/svg"
 width="300.000000pt" height="368.000000pt" viewBox="0 0 300.000000 368.000000"
 preserveAspectRatio="xMidYMid meet">

<g transform="translate(0.000000,368.000000) scale(0.100000,-0.100000)"
fill="#000000" stroke="none">
<path d="M1515 2702 c-63 -29 -102 -83 -119 -165 l-7 -28 -30 22 c-17 12 -50
24 -74 27 -39 4 -48 1 -75 -26 -47 -48 -41 -111 18 -174 21 -23 23 -28 8 -28
-9 0 -28 -11 -41 -25 -52 -51 -23 -125 71 -184 l43 -26 -66 -100 c-36 -55 -80
-130 -98 -166 l-34 -66 -83 -7 c-136 -11 -186 -24 -225 -59 -25 -23 -34 -41
-35 -65 -2 -82 103 -101 130 -23 11 31 4 29 139 46 30 3 31 2 23 -23 -16 -53
-22 -60 -59 -66 -45 -7 -85 -36 -106 -76 -19 -36 -19 -120 -1 -164 14 -34 65
-79 102 -90 18 -6 33 -31 34 -56 0 -3 -42 -5 -93 -5 -124 -1 -183 -31 -230
-120 -27 -51 -29 -155 -4 -201 l16 -32 -52 -17 c-109 -35 -199 -111 -239 -202
-26 -58 -21 -156 11 -228 17 -38 19 -50 9 -56 -102 -58 -151 -138 -146 -240 3
-58 5 -64 26 -67 21 -3 22 -1 21 62 -1 54 3 73 26 111 30 52 89 94 169 122 73
25 257 25 349 -1 37 -10 70 -16 73 -13 17 17 -12 38 -78 58 -101 30 -197 35
-298 15 -45 -10 -83 -16 -85 -14 -1 2 -12 22 -24 45 -60 120 10 283 152 348
60 28 109 31 160 10 82 -34 106 -5 29 35 -59 31 -92 90 -92 165 0 62 23 109
73 149 38 30 42 31 139 31 111 0 102 5 162 -91 76 -122 292 -224 475 -224 71
0 78 -2 114 -33 67 -56 80 -164 28 -229 -19 -22 -23 -23 -192 -23 -154 0 -174
-2 -177 -17 -5 -26 31 -32 190 -30 l146 1 -9 -32 c-5 -17 -9 -49 -9 -70 0 -71
74 -113 120 -67 24 24 26 71 5 131 -9 24 -14 48 -11 55 2 6 30 14 61 17 31 3
92 18 136 32 l81 27 43 -42 c24 -24 56 -70 71 -103 23 -52 27 -74 27 -155 0
-92 1 -97 33 -139 20 -26 35 -60 40 -88 5 -39 9 -45 31 -45 22 0 23 3 17 38
-8 48 -28 96 -55 133 -16 23 -22 48 -24 112 -5 132 -65 254 -154 313 l-39 26
-89 -31 c-48 -16 -112 -33 -141 -37 l-53 -7 11 27 c24 65 5 181 -37 228 -14
16 -14 18 3 24 181 64 297 139 347 227 11 20 26 37 32 37 16 0 79 -70 93 -103
7 -15 12 -53 12 -84 0 -50 -4 -60 -35 -94 -19 -22 -35 -44 -35 -49 0 -19 31
-23 50 -5 22 20 57 15 135 -20 128 -56 209 -245 152 -353 -16 -28 -22 -32 -60
-32 -57 0 -117 -18 -117 -35 0 -22 15 -25 70 -15 100 19 168 -8 225 -88 27
-39 30 -52 32 -125 2 -71 5 -82 20 -82 36 0 36 151 -1 223 -17 33 -93 102
-112 102 -22 0 -23 15 -7 61 31 90 -6 225 -88 313 -40 44 -147 106 -183 106
-13 0 -14 5 -6 26 15 38 12 114 -6 167 -14 42 -64 99 -108 124 -15 8 -15 15 3
88 11 44 22 105 26 137 5 49 9 57 34 68 64 26 101 88 101 171 0 47 1 49 28 49
64 0 96 66 53 109 -16 16 -42 19 -183 26 l-164 7 -37 68 c-20 37 -68 108 -106
158 l-70 91 33 21 c55 33 114 104 122 145 9 51 -19 89 -69 93 l-37 3 17 32
c23 46 23 110 -2 137 -17 18 -28 21 -68 17 -26 -2 -56 -12 -67 -22 -19 -18
-20 -17 -20 7 0 35 -50 129 -81 151 -39 28 -105 32 -154 9z m138 -48 c23 -23
87 -157 87 -183 0 -17 10 -13 47 19 18 17 42 30 52 30 49 0 53 -76 7 -148 -34
-54 -33 -64 3 -51 16 6 44 9 63 7 29 -3 33 -7 36 -33 1 -17 -6 -44 -17 -62
-23 -36 -109 -99 -120 -87 -4 5 -32 38 -61 74 -29 36 -79 93 -111 128 l-59 63
-30 -33 c-16 -18 -69 -79 -117 -136 -83 -96 -90 -102 -118 -96 -48 10 -92 42
-104 75 -22 63 25 92 106 65 25 -9 51 -16 57 -16 14 0 -43 58 -80 81 -38 23
-64 73 -64 122 0 37 12 47 54 47 25 0 96 -43 109 -66 15 -26 27 -14 27 29 1
50 21 110 47 139 55 62 141 77 186 32z m1 -369 c137 -157 356 -465 356 -500 0
-4 -75 -5 -167 -3 -93 3 -277 1 -411 -4 -133 -5 -249 -8 -257 -6 -20 4 84 188
180 319 71 98 215 268 227 269 4 0 36 -34 72 -75z m676 -543 c31 -5 46 -12 48
-24 3 -13 -3 -18 -22 -18 -13 0 -36 -4 -50 -10 -23 -8 -26 -15 -26 -59 0 -75
-10 -110 -42 -141 -51 -51 -156 -51 -222 1 -39 31 -57 73 -60 140 -1 32 -7 64
-13 70 -7 7 -38 9 -97 4 -83 -7 -86 -8 -92 -34 -34 -158 -112 -233 -244 -235
-128 -2 -201 73 -204 208 l-1 61 -135 -2 c-74 -1 -164 -5 -200 -8 -59 -6 -68
-11 -101 -46 -20 -21 -39 -39 -42 -39 -16 0 -5 38 16 58 30 28 81 37 322 56
110 9 218 17 240 19 77 7 880 5 925 -1z m-1066 -134 c36 -131 100 -194 209
-205 156 -16 260 56 305 209 l17 58 60 0 60 0 2 -43 c7 -114 89 -204 193 -210
38 -2 40 -4 40 -33 0 -60 -32 -199 -58 -254 -63 -130 -228 -236 -419 -269 -89
-15 -95 -15 -190 7 -218 49 -369 172 -408 333 -6 22 -1 29 29 47 35 21 76 74
76 100 0 23 -17 12 -43 -27 -28 -43 -81 -67 -122 -57 -41 10 -82 53 -93 98
-31 123 68 217 172 163 36 -19 46 -19 46 1 0 9 -13 21 -30 27 -35 13 -35 14
-14 66 17 42 26 46 110 50 l41 1 17 -62z m500 -1240 c-7 -24 -41 -23 -49 2 -6
20 3 107 13 125 9 15 43 -105 36 -127z"/>
<path d="M1004 1459 c-8 -13 5 -26 31 -31 13 -2 22 -13 25 -32 6 -33 24 -45
33 -21 18 45 -64 123 -89 84z"/>
<path d="M1764 1436 c-10 -8 -17 -17 -14 -19 3 -3 44 -3 93 0 64 4 87 9 87 19
0 20 -139 19 -166 0z"/>
<path d="M1020 695 c0 -8 12 -21 28 -29 38 -20 81 -64 103 -108 29 -57 26
-161 -6 -224 -14 -27 -25 -53 -25 -57 0 -5 16 -28 35 -51 46 -57 65 -105 65
-166 0 -43 3 -50 20 -50 18 0 20 7 20 58 0 61 -23 123 -66 179 l-25 33 20 56
c25 65 28 168 7 219 -21 50 -61 99 -104 129 -42 29 -72 34 -72 11z"/>
</g>
</svg>
