<?xml version="1.0" standalone="no"?>
<!DOCTYPE svg PUBLIC "-//W3C//DTD SVG 20010904//EN"
 "http://www.w3.org/TR/2001/REC-SVG-20010904/DTD/svg10.dtd">
<svg version="1.0" xmlns="http://www.w3.org/2000/svg"
 width="300.000000pt" height="366.000000pt" viewBox="0 0 300.000000 366.000000"
 preserveAspectRatio="xMidYMid meet">

<g transform="translate(0.000000,366.000000) scale(0.100000,-0.100000)"
fill="#000000" stroke="none">
<path d="M751 3637 c-50 -25 -146 -108 -163 -141 -9 -18 -6 -17 18 5 42 38
126 78 203 96 36 8 143 18 236 23 111 5 184 13 210 23 38 15 26 16 -210 16
-240 1 -252 0 -294 -22z"/>
<path d="M1373 3647 c-16 -26 -67 -57 -117 -73 -30 -9 -116 -19 -211 -24 -244
-12 -369 -49 -439 -131 -45 -53 -47 -73 -3 -33 17 17 39 35 48 42 35 26 141
44 318 52 196 10 278 25 350 65 24 14 45 24 46 23 16 -18 12 -47 -8 -66 -50
-47 -144 -65 -432 -81 -170 -9 -205 -21 -267 -89 -37 -41 -68 -89 -51 -79 6 4
33 22 62 41 84 57 224 89 436 101 166 9 202 15 240 41 26 18 35 20 35 9 0 -30
-239 -131 -350 -149 -19 -3 -86 -10 -148 -16 -131 -12 -165 -24 -233 -81 -58
-48 -58 -61 -1 -25 22 14 69 35 103 46 58 20 76 21 210 15 178 -9 223 2 343
82 43 29 81 53 83 53 1 0 3 -29 3 -64 0 -62 -1 -64 -37 -89 -21 -14 -67 -36
-103 -48 -58 -20 -85 -23 -245 -23 l-180 -1 -89 -43 c-49 -23 -87 -44 -85 -47
2 -2 36 6 74 17 58 17 102 21 250 23 199 2 214 5 342 76 52 28 73 35 73 25 0
-20 -61 -69 -134 -105 -53 -27 -78 -33 -180 -41 -66 -6 -137 -15 -160 -21 -69
-17 -196 -60 -200 -67 -2 -4 89 -7 202 -7 234 0 221 -3 377 94 44 28 83 51 88
51 4 0 7 -10 7 -23 0 -18 -13 -29 -62 -52 -34 -16 -94 -53 -134 -82 -110 -81
-142 -93 -255 -93 -103 0 -189 -9 -189 -19 0 -3 55 -16 123 -29 157 -29 169
-26 307 78 77 59 210 136 210 122 0 -15 -75 -80 -125 -108 -27 -15 -84 -53
-125 -85 -41 -31 -90 -64 -109 -74 -71 -36 -201 -2 -307 79 -26 20 -49 34 -51
32 -8 -8 28 -67 65 -108 121 -134 298 -96 562 120 70 58 75 60 83 40 10 -29
-9 -49 -123 -123 -52 -34 -124 -85 -159 -114 -35 -28 -69 -51 -75 -51 -6 0
-38 -13 -72 -29 -69 -33 -106 -81 -149 -195 -41 -109 -55 -180 -68 -351 -15
-189 -14 -303 1 -365 37 -149 47 -174 124 -335 21 -44 61 -143 89 -220 28 -77
67 -171 88 -210 l37 -70 -17 -47 c-17 -47 -35 -231 -19 -193 5 11 9 43 9 71 1
28 8 74 17 104 14 49 17 52 32 36 12 -11 19 -43 23 -109 9 -112 30 -171 99
-272 86 -124 141 -151 216 -104 46 28 43 34 -3 9 -49 -26 -72 -25 -113 5 -52
38 -138 170 -160 245 -17 61 -35 170 -27 170 2 0 20 -24 40 -53 20 -29 53 -68
73 -87 34 -32 33 -30 -10 23 -68 86 -159 223 -199 303 -38 76 -81 188 -69 182
15 -8 211 -101 291 -139 46 -22 85 -38 87 -36 3 3 -33 20 -283 139 -86 40
-113 67 -137 136 -8 21 -26 66 -41 98 -80 172 -94 206 -116 289 -22 83 -24
107 -23 305 2 193 4 227 28 330 25 112 73 228 116 283 43 54 191 98 330 98
232 0 406 -59 472 -158 56 -83 70 -169 70 -443 0 -264 -10 -368 -45 -470 l-22
-65 -5 122 c-6 145 -18 173 -18 41 1 -134 -16 -225 -52 -268 l-29 -35 10 40
c21 75 -14 366 -58 490 -37 101 -97 218 -164 315 -70 103 -112 147 -204 215
-147 110 -233 110 -288 0 -47 -94 -119 -351 -132 -471 -6 -51 -3 -70 15 -113
13 -28 27 -51 32 -51 5 0 7 3 5 8 -3 4 5 8 17 8 19 1 22 -3 18 -27 -3 -20 1
-31 11 -35 16 -6 15 -31 -2 -61 -8 -14 -10 -10 -6 17 5 29 4 31 -4 13 -14 -30
-19 -29 -13 2 2 14 0 25 -6 25 -14 0 -26 -100 -18 -154 4 -24 30 -90 59 -147
29 -57 68 -137 86 -177 58 -126 133 -159 265 -115 38 13 89 34 113 49 l44 25
37 -22 c50 -29 138 -59 176 -59 17 0 45 9 63 20 33 20 93 94 93 114 0 6 -8 -3
-19 -19 -28 -46 -76 -82 -119 -90 -38 -6 -130 17 -190 49 l-24 13 34 16 c19 9
55 16 80 15 63 -1 140 37 213 107 l60 57 -60 -48 -60 -48 46 50 c49 52 79 93
79 107 0 5 -17 -13 -39 -40 -21 -26 -51 -59 -66 -73 -22 -20 -20 -14 12 30 22
30 49 70 58 89 23 46 36 93 24 86 -5 -4 -9 -14 -9 -24 0 -25 -93 -162 -145
-215 -40 -39 -109 -76 -121 -64 -2 3 18 19 45 35 54 34 128 121 167 196 52
101 65 182 71 443 5 218 -1 324 -22 424 -11 54 27 -59 45 -130 45 -185 52
-432 15 -594 -8 -38 -13 -71 -11 -73 2 -2 14 38 27 89 56 234 26 542 -76 783
-13 29 54 -41 94 -98 51 -75 98 -184 118 -277 15 -73 18 -135 18 -455 0 -358
-1 -372 -21 -415 -33 -69 -120 -157 -179 -180 -33 -13 -42 -19 -27 -20 67 -1
196 118 228 210 16 48 18 82 16 280 l-3 225 36 -70 c41 -81 99 -240 120 -332
23 -97 34 -259 24 -326 -10 -59 -53 -157 -94 -212 -21 -29 -53 -85 -42 -75 57
55 136 207 146 283 l7 52 12 -40 c7 -22 12 -69 13 -105 0 -51 2 -60 10 -42 5
13 7 28 3 33 -12 20 17 7 92 -42 81 -52 124 -87 124 -99 0 -4 -18 -10 -40 -14
-92 -15 -166 -63 -317 -205 -206 -194 -225 -208 -357 -247 -61 -18 -158 -53
-215 -78 -185 -81 -203 -81 -323 6 -72 52 -137 139 -183 242 -26 60 -39 74
-25 29 14 -50 29 -81 55 -123 l26 -41 -28 17 c-15 10 -58 40 -95 67 -66 49
-66 50 -51 74 10 15 22 22 32 18 12 -5 13 -3 5 5 -14 14 -3 72 14 78 7 2 12
-7 13 -25 l1 -28 7 30 c9 36 37 91 51 100 12 7 13 25 2 25 -4 0 -19 -18 -32
-40 -14 -22 -35 -43 -47 -46 -13 -4 -23 -14 -23 -24 0 -16 -31 -80 -87 -180
-39 -70 -122 -304 -123 -348 0 -10 36 -12 162 -10 l163 3 17 100 c9 55 17 115
18 133 l0 34 57 -49 c161 -137 205 -145 383 -66 63 27 124 53 135 57 30 12
158 45 171 46 6 0 17 -28 24 -62 6 -35 19 -93 27 -130 l15 -68 389 0 389 0 0
23 c0 12 -7 49 -14 82 -8 33 -13 61 -12 62 2 2 11 -6 22 -18 15 -16 19 -36 19
-85 0 -35 3 -64 7 -64 16 0 9 196 -8 241 -11 29 -17 79 -18 144 -1 132 -20
171 -139 288 -100 99 -127 121 -211 171 l-59 36 -22 88 c-13 48 -28 131 -35
182 -22 175 -68 332 -141 483 -37 76 -38 83 -43 210 -6 153 -34 275 -90 392
-34 73 -34 75 -13 75 24 0 79 -30 115 -63 12 -11 22 -16 22 -10 0 22 -123 122
-169 138 -28 9 -69 36 -106 70 l-60 56 105 -3 c98 -3 110 -6 188 -42 45 -22
85 -37 88 -34 8 9 -55 76 -102 109 -72 49 -118 61 -269 69 -146 8 -198 21
-242 62 -13 12 -23 30 -23 40 0 16 9 14 72 -19 l72 -38 175 -2 c97 0 198 -4
226 -8 64 -8 56 -1 -36 31 -58 21 -102 28 -209 34 -139 8 -204 25 -278 70 -55
34 -27 39 40 7 88 -43 188 -48 290 -17 73 23 218 30 271 14 15 -4 19 -3 12 4
-12 13 -151 42 -198 42 -18 0 -70 -9 -115 -21 -77 -19 -85 -19 -141 -5 -73 19
-180 71 -188 92 -10 26 4 26 43 0 63 -42 129 -52 228 -33 107 21 195 21 271 1
106 -29 114 -28 60 5 -96 58 -152 71 -319 71 -128 0 -161 3 -218 21 -48 16
-68 28 -72 42 -8 32 1 36 51 21 68 -21 121 -17 267 17 144 34 187 34 279 -1
69 -26 44 -2 -46 45 -86 44 -150 47 -264 10 -132 -42 -293 -29 -293 25 0 17 4
19 28 13 44 -11 160 -7 257 11 125 22 232 21 297 -4 85 -32 39 -3 -57 36 -132
54 -196 63 -303 39 -116 -25 -162 -29 -194 -16 -24 9 -28 16 -28 51 0 22 4 40
8 40 5 0 35 -9 67 -20 75 -26 152 -25 312 1 93 15 151 20 212 15 46 -3 81 -3
79 0 -3 2 -45 18 -93 34 -102 34 -204 39 -315 15 -87 -19 -154 -18 -215 4 -41
14 -50 21 -50 42 l0 24 125 -2 c69 -1 190 -3 270 -5 130 -3 152 -1 211 20 67
23 108 46 99 56 -3 2 -53 -2 -110 -10 -120 -18 -265 -13 -350 10 -70 20 -156
20 -210 1 -23 -8 -44 -15 -46 -15 -2 0 -4 25 -4 56 0 41 3 54 13 50 6 -2 37
-12 67 -22 56 -17 71 -17 364 2 l98 7 35 -39 34 -39 -6 33 -7 33 37 -15 c21
-9 40 -16 43 -16 15 0 -34 39 -73 59 -25 12 -59 40 -77 62 -27 34 -37 39 -72
39 l-41 -1 33 -27 33 -27 -98 -1 c-54 0 -147 -2 -208 -4 -60 -2 -125 0 -142 4
-29 7 -32 11 -27 32 5 21 3 24 -19 24 -14 0 -30 -6 -34 -13z m-6 -889 c-27
-65 -67 -118 -87 -118 -11 0 -20 2 -20 5 0 2 26 41 57 86 57 81 77 91 50 27z
m38 -136 c-3 -3 -10 -1 -15 4 -6 6 -5 24 3 49 l12 40 3 -44 c2 -23 1 -46 -3
-49z m-195 -640 c0 -7 -4 -10 -10 -7 -5 3 -10 16 -10 28 0 18 2 19 10 7 5 -8
10 -21 10 -28z m17 6 c-3 -8 -6 -5 -6 6 -1 11 2 17 5 13 3 -3 4 -12 1 -19z
m30 0 c-3 -8 -6 -5 -6 6 -1 11 2 17 5 13 3 -3 4 -12 1 -19z m33 7 c0 -8 -2
-15 -4 -15 -2 0 -6 7 -10 15 -3 8 -1 15 4 15 6 0 10 -7 10 -15z m47 -7 c-3 -8
-6 -5 -6 6 -1 11 2 17 5 13 3 -3 4 -12 1 -19z m-163 -14 c3 -8 2 -12 -4 -9 -6
3 -10 10 -10 16 0 14 7 11 14 -7z m216 -37 c0 -4 -4 -5 -10 -2 -5 3 -10 14
-10 23 0 11 -3 13 -11 5 -8 -8 -8 -17 0 -34 10 -20 9 -21 -1 -7 -12 16 -15 15
-45 -14 -32 -31 -33 -31 -33 -9 0 12 -4 31 -10 41 -9 17 -4 19 43 28 42 7 54
6 65 -7 6 -8 12 -19 12 -24z m-225 -7 c13 11 15 8 15 -15 0 -16 7 -36 15 -46
15 -15 12 -17 -32 -24 -26 -3 -59 -9 -73 -12 -23 -5 -22 -3 14 35 36 38 38 42
22 57 -23 23 -20 32 4 10 16 -15 22 -15 35 -5z m-84 -47 c13 -16 12 -17 -3 -4
-10 7 -18 15 -18 17 0 8 8 3 21 -13z m139 13 c0 -2 -7 -7 -16 -10 -8 -3 -12
-2 -9 4 6 10 25 14 25 6z m112 -37 c5 -29 4 -30 -9 -14 -14 21 -18 59 -4 51 5
-3 11 -20 13 -37z m-27 -16 c12 -56 13 -63 9 -63 -3 0 -8 10 -13 23 -19 51
-22 67 -12 67 6 0 13 -12 16 -27z m-45 -18 c0 -14 -2 -25 -4 -25 -2 0 -6 11
-8 25 -3 14 -1 25 3 25 5 0 9 -11 9 -25z m-30 -4 c0 -11 3 -27 7 -37 4 -11 3
-15 -4 -11 -13 8 -23 67 -11 67 4 0 8 -9 8 -19z m-43 -13 c-3 -8 -6 -5 -6 6
-1 11 2 17 5 13 3 -3 4 -12 1 -19z m-90 -10 c-3 -8 -6 -5 -6 6 -1 11 2 17 5
13 3 -3 4 -12 1 -19z m33 -3 c0 -14 -2 -25 -4 -25 -2 0 -6 11 -8 25 -3 14 -1
25 3 25 5 0 9 -11 9 -25z m-205 -4 c3 -5 1 -12 -4 -15 -5 -3 -11 1 -15 9 -6
16 9 21 19 6z m245 -346 c0 -3 -24 -17 -52 -30 -63 -30 -180 -37 -158 -10 7 8
27 15 44 15 17 1 42 7 56 15 24 14 110 21 110 10z m1368 -812 c47 -46 75 -83
87 -116 10 -26 15 -50 12 -53 -3 -3 -20 2 -38 12 -27 14 -50 16 -129 11 -52
-3 -120 -11 -150 -18 -57 -12 -303 -105 -373 -141 -38 -19 -37 -17 24 38 35
33 113 106 172 162 125 120 205 165 305 171 15 1 44 -20 90 -66z m73 -176 c32
-22 34 -26 32 -78 -3 -53 -19 -109 -32 -109 -4 0 -16 33 -26 73 -10 39 -24 87
-32 105 -12 29 -12 32 5 32 11 0 34 -10 53 -23z m47 -216 c7 -21 12 -48 12
-60 0 -20 -1 -21 -24 -6 -27 18 -42 71 -25 91 18 22 25 17 37 -25z"/>
<path d="M1500 3643 c38 -16 124 -13 157 6 13 8 -9 10 -87 10 -103 -1 -104 -1
-70 -16z"/>
<path d="M2311 3640 c-30 -11 -59 -24 -63 -28 -5 -5 42 -8 104 -8 90 0 126 -4
178 -21 36 -12 79 -24 95 -28 28 -5 145 7 201 21 19 5 22 3 17 -14 -2 -11 -15
-23 -26 -26 -36 -10 -191 -7 -271 5 -94 14 -190 -1 -272 -42 -44 -22 -51 -28
-29 -25 182 29 191 29 302 12 120 -19 224 -11 272 21 23 15 24 15 17 -13 -10
-39 -14 -42 -71 -53 -35 -7 -71 -5 -125 5 -59 12 -93 13 -161 4 -136 -16 -219
-53 -294 -129 -44 -47 -41 -51 13 -18 103 64 135 71 317 73 161 1 247 13 260
34 9 14 35 12 35 -2 0 -13 -98 -72 -155 -95 -16 -6 -70 -12 -120 -12 -153 -2
-251 -41 -324 -130 l-36 -45 53 42 c61 48 94 58 212 67 97 8 195 27 259 49 24
9 45 16 47 16 1 0 -3 -19 -10 -42 -10 -37 -17 -44 -51 -55 -22 -6 -67 -12
-101 -12 -79 -1 -156 -25 -221 -68 -64 -42 -160 -145 -191 -204 l-24 -44 26
32 c39 47 142 122 211 153 33 15 101 34 151 43 51 8 110 25 132 36 l41 21 -18
-41 c-10 -22 -22 -44 -27 -48 -22 -19 -97 -40 -184 -50 -52 -7 -114 -21 -137
-32 -50 -24 -113 -91 -143 -151 l-22 -43 53 56 c30 31 68 63 84 72 17 8 73 17
127 20 56 3 111 12 128 20 22 12 30 12 30 3 0 -33 -27 -48 -104 -57 -43 -4
-98 -18 -122 -29 -55 -27 -129 -109 -173 -191 l-34 -64 42 48 c55 61 106 90
211 120 47 13 93 28 103 32 12 5 17 3 17 -9 0 -16 -33 -42 -140 -109 -118 -75
-202 -162 -254 -264 -35 -71 -33 -78 8 -18 55 83 113 133 214 185 53 27 98 48
99 46 11 -11 -30 -71 -63 -93 -114 -77 -168 -138 -197 -227 -23 -69 -21 -78 7
-29 42 74 78 113 143 160 35 25 65 44 67 42 2 -2 -10 -47 -26 -99 -33 -107
-44 -218 -30 -300 l10 -55 1 57 c2 82 24 180 82 351 28 83 51 165 52 184 1 19
7 33 15 33 9 0 12 -27 12 -100 0 -113 -20 -226 -56 -314 -33 -80 -30 -93 6
-26 72 135 126 384 118 535 -5 85 -2 115 12 115 19 0 22 -144 5 -303 -17 -154
-17 -167 -1 -240 10 -42 19 -77 21 -77 1 0 1 28 -2 63 -3 44 3 98 21 186 30
144 31 181 10 333 -14 105 -14 114 2 151 15 33 19 36 25 21 4 -11 8 -34 8 -52
1 -18 17 -81 37 -140 24 -72 40 -143 48 -217 l12 -110 6 65 c8 93 -7 221 -43
365 -27 105 -30 133 -22 168 l10 42 6 -30 c16 -71 47 -186 72 -265 24 -76 26
-96 22 -195 l-4 -110 19 75 c13 49 20 113 21 185 1 106 0 114 -36 203 -54 135
-69 222 -46 279 l12 28 28 -60 c27 -59 96 -256 120 -345 7 -25 15 -101 19
-170 6 -115 7 -107 8 100 l2 226 -80 163 c-79 161 -80 163 -69 207 6 24 14 44
18 44 3 0 14 -28 24 -62 10 -35 38 -101 62 -148 l44 -85 0 56 c1 41 -7 73 -28
120 -35 78 -76 208 -67 216 3 4 14 -13 24 -38 9 -24 29 -69 44 -99 l26 -55 1
59 c1 54 -3 64 -45 127 -51 74 -69 87 -93 66 -53 -46 -166 -48 -326 -7 -136
35 -152 36 -224 10z"/>
<path d="M2655 3650 c11 -5 47 -9 80 -9 33 0 69 4 80 9 13 6 -15 9 -80 9 -65
0 -93 -3 -80 -9z"/>
<path d="M2792 2470 c0 -19 2 -27 5 -17 2 9 2 25 0 35 -3 9 -5 1 -5 -18z"/>
<path d="M2035 1229 c-4 -6 -5 -12 -2 -15 2 -3 7 2 10 11 7 17 1 20 -8 4z"/>
<path d="M1991 1117 c-46 -114 -131 -255 -198 -328 -63 -68 -133 -120 -273
-204 -52 -31 -84 -54 -70 -50 14 4 45 20 70 35 25 15 77 45 115 65 96 51 126
75 189 153 81 101 132 191 171 303 19 56 34 103 32 105 -2 2 -18 -33 -36 -79z"/>
<path d="M1226 872 c30 -54 119 -147 172 -181 59 -38 81 -42 26 -5 -60 41
-115 92 -162 153 -55 70 -60 75 -36 33z"/>
<path d="M1885 668 c-60 -33 -126 -103 -156 -164 -40 -81 -33 -94 9 -16 29 55
68 97 152 165 34 27 32 36 -5 15z"/>
<path d="M2026 655 c-3 -9 -6 -22 -5 -28 0 -7 5 -1 10 12 5 13 8 26 5 28 -2 2
-6 -3 -10 -12z"/>
<path d="M1081 477 c-1 -32 6 -46 33 -73 19 -19 39 -34 45 -34 20 0 11 15 -22
35 -23 15 -35 32 -44 65 l-11 45 -1 -38z"/>
<path d="M1131 83 c-1 -68 2 -83 14 -83 13 0 14 10 8 58 -11 102 -21 113 -22
25z"/>
<path d="M1651 79 c-12 -39 -20 -73 -17 -76 2 -3 14 27 26 67 12 40 19 74 17
76 -3 3 -15 -27 -26 -67z"/>
<path d="M1491 52 c-1 -20 18 -52 31 -52 7 0 5 7 -4 18 -9 9 -18 24 -21 32 -4
10 -6 11 -6 2z"/>
</g>
</svg>
