<svg width="27" height="27" viewBox="0 0 27 27" fill="none" xmlns="http://www.w3.org/2000/svg">
<path d="M13.3 24.6C19.5408 24.6 24.6 19.5408 24.6 13.3C24.6 7.05918 19.5408 2 13.3 2C7.05918 2 2 7.05918 2 13.3C2 19.5408 7.05918 24.6 13.3 24.6Z" fill="#FF0420"/>
<path d="M10.0026 16.3018C9.3291 16.3018 8.77766 16.1436 8.34826 15.8272C7.92338 15.5063 7.71094 15.0453 7.71094 14.4532C7.71094 14.3266 7.7245 14.1774 7.75162 13.9966C7.82394 13.5898 7.9279 13.1017 8.0635 12.5276C8.4477 10.9728 9.4421 10.1953 11.0422 10.1953C11.4761 10.1953 11.8693 10.2676 12.2129 10.4168C12.5564 10.5569 12.8276 10.7739 13.0265 11.0632C13.2253 11.3479 13.3248 11.6869 13.3248 12.0802C13.3248 12.1977 13.3112 12.3468 13.2841 12.5276C13.1982 13.0294 13.0988 13.522 12.9767 13.9966C12.7779 14.7696 12.4389 15.3526 11.9507 15.7368C11.4671 16.1165 10.8162 16.3018 10.0026 16.3018ZM10.1246 15.0814C10.441 15.0814 10.7077 14.9865 10.9292 14.8012C11.1552 14.6159 11.3179 14.3311 11.4128 13.9424C11.5439 13.409 11.6433 12.948 11.7111 12.5502C11.7337 12.4327 11.7473 12.3107 11.7473 12.1841C11.7473 11.6688 11.4806 11.4112 10.9427 11.4112C10.6263 11.4112 10.3551 11.5061 10.1291 11.6914C9.90766 11.8768 9.74946 12.1615 9.65454 12.5502C9.55058 12.9299 9.45114 13.391 9.34718 13.9424C9.32458 14.0554 9.31102 14.1729 9.31102 14.2995C9.3065 14.8238 9.58222 15.0814 10.1246 15.0814Z" fill="white"/>
<path d="M13.7181 16.2186C13.6548 16.2186 13.6096 16.2005 13.5735 16.1598C13.5464 16.1146 13.5373 16.0649 13.5464 16.0061L14.717 10.4917C14.7261 10.4285 14.7577 10.3787 14.812 10.3381C14.8617 10.2974 14.9159 10.2793 14.9747 10.2793H17.2302C17.8584 10.2793 18.3602 10.4104 18.7398 10.668C19.124 10.9302 19.3184 11.3053 19.3184 11.798C19.3184 11.9381 19.3003 12.0873 19.2687 12.241C19.1286 12.8919 18.8438 13.371 18.4099 13.6829C17.985 13.9947 17.4019 14.1484 16.6606 14.1484H15.5171L15.1284 16.0061C15.1148 16.0694 15.0877 16.1191 15.0334 16.1598C14.9837 16.2005 14.9295 16.2186 14.8707 16.2186H13.7181ZM16.7194 12.9777C16.959 12.9777 17.1624 12.9145 17.3386 12.7834C17.5194 12.6523 17.637 12.467 17.6957 12.2229C17.7138 12.128 17.7228 12.0421 17.7228 11.9698C17.7228 11.8071 17.6731 11.6805 17.5782 11.5946C17.4833 11.5042 17.316 11.459 17.0855 11.459H16.0685L15.7476 12.9777H16.7194V12.9777Z" fill="white"/>
</svg>
