<svg width="107" height="85" viewBox="0 0 107 85" fill="none" xmlns="http://www.w3.org/2000/svg">
<path d="M43.6963 38.6627C43.4481 37.2731 43.9485 35.6372 43.6261 34.0263C43.477 33.2816 42.8608 32.9724 42.1741 32.9132C41.5327 32.8579 40.8788 33.4528 40.7591 34.236C40.622 35.1344 40.5431 36.0516 40.5508 36.9596C40.564 38.4802 40.6644 39.9999 40.7316 41.5199C40.7547 42.0417 40.7432 42.5704 40.8269 43.0833C40.976 43.9985 41.4499 44.3916 42.3191 44.4144C43.2352 44.4386 43.6929 44.1304 43.8561 43.1724C44.0962 41.7637 43.4752 40.3525 43.6963 38.6627ZM61.2291 37.0099C61.2278 37.0009 61.2291 37.019 61.2291 37.0099C61.523 38.9936 61.4322 40.2038 61.7788 42.0754C61.9161 42.817 62.4409 43.2878 63.2549 43.3292C64.0166 43.3681 64.6633 42.9702 64.9454 42.1533C65.1413 41.5856 65.254 40.9725 65.2964 40.3723C65.4541 38.142 65.3235 35.9369 64.4246 33.848C64.1565 33.2252 63.7381 32.7558 62.9338 32.7956C62.1192 32.8361 61.5882 33.2641 61.3679 33.9694C61.1261 34.7441 61.22 35.7574 61.2291 37.0099ZM51.2235 76.3786C52.2306 76.2995 53.3199 76.2009 54.4112 76.1307C57.9965 75.9003 61.3799 74.9103 64.582 73.3353C68.8143 71.2537 72.3646 68.3034 75.2415 64.5831C79.1466 59.5334 81.5358 53.8452 82.1974 47.4834C82.2764 46.7241 82.1345 45.9087 81.9306 45.164C81.7691 44.574 81.3204 44.1201 80.5915 44.0848C79.8651 44.0497 79.4092 44.4146 79.1783 45.0319C78.9357 45.6805 78.7373 46.3548 78.6077 47.0346C77.8866 50.8184 76.9008 54.5111 74.9541 57.8823C72.1449 62.7471 68.4874 66.785 63.4203 69.3877C58.1994 72.0693 52.6682 72.85 46.8636 71.9888C42.238 71.3026 38.181 69.4467 34.5951 66.476C31.9697 64.3011 30.2441 61.4927 28.7306 58.5164C28.5332 58.1281 28.3775 57.6824 28.076 57.3947C27.8322 57.1621 27.3511 56.9679 27.0624 57.0524C26.7998 57.1293 26.4995 57.5988 26.4884 57.905C26.4618 58.6374 26.499 59.4002 26.6814 60.1068C27.583 63.599 29.6204 66.4409 32.1839 68.8673C37.4742 73.8751 43.9188 76.1111 51.2235 76.3786ZM47.5134 85C41.5061 84.9675 37.2969 84.1964 33.5513 81.6989C30.7044 79.8008 28.3536 77.3748 26.5341 74.5213C24.5424 71.3975 22.7778 68.129 20.9443 64.9066C20.1028 63.4277 19.4031 61.8659 18.516 60.4166C16.9558 57.8676 16.6179 55.077 16.8745 52.2178C17.2912 47.5748 18.7603 43.2043 20.5723 38.9253C21.2089 37.422 22.1741 36.2498 23.3376 35.1726C27.1295 31.6623 31.0193 28.27 35.384 25.4713C39.8927 22.5803 44.6157 20.1754 49.8747 18.8771C57.5319 16.9869 64.767 17.9595 71.4463 22.0886C78.0743 26.1861 83.1514 31.7612 86.3621 38.9091C87.876 42.2792 88.6806 45.8239 88.9392 49.521C89.4491 56.8102 87.6881 63.5161 83.9777 69.7636C81.7762 73.4706 78.4831 75.9371 74.699 77.8206C68.7952 80.7587 62.5901 82.8421 56.0862 83.9388C52.7301 84.5047 49.325 84.7818 47.5134 85Z" fill="#F08D13"/>
<path d="M51.2232 76.375C43.9185 76.1074 37.474 73.8714 32.1836 68.8637C29.6202 66.4372 27.5827 63.5953 26.6812 60.1032C26.4987 59.3965 26.4616 58.6337 26.4882 57.9014C26.4993 57.5952 26.7996 57.1256 27.0622 57.0488C27.3508 56.9643 27.8319 57.1585 28.0758 57.3911C28.3773 57.6787 28.533 58.1245 28.7304 58.5128C30.2438 61.4891 31.9695 64.2974 34.5949 66.4724C38.1808 69.4431 42.2377 71.299 46.8633 71.9852C52.668 72.8464 58.1992 72.0657 63.42 69.384C68.4872 66.7814 72.1447 62.7435 74.9539 57.8787C76.9005 54.5075 77.8863 50.8147 78.6075 47.0309C78.7371 46.3511 78.9354 45.6768 79.1781 45.0283C79.409 44.4109 79.8649 44.046 80.5913 44.0812C81.3201 44.1165 81.7689 44.5704 81.9304 45.1604C82.1342 45.9051 82.2761 46.7204 82.1971 47.4798C81.5355 53.8416 79.1464 59.5298 75.2413 64.5795C72.3644 68.2998 68.814 71.2501 64.5818 73.3317C61.3796 74.9066 57.9963 75.8966 54.4109 76.1271C53.3197 76.1972 52.2304 76.2959 51.2232 76.375Z" fill="white"/>
<path d="M61.245 37.1476C61.1363 36.1513 61.1268 34.7432 61.3694 33.9657C61.5897 33.2604 62.1207 32.8324 62.9353 32.7919C63.7397 32.7521 64.158 33.2215 64.4261 33.8443C65.325 35.9332 65.4556 38.1383 65.2979 40.3686C65.2555 40.9688 65.1428 41.5819 64.9469 42.1496C64.6648 42.9665 64.0181 43.3644 63.2564 43.3255C62.4424 43.2841 61.9176 42.8133 61.7803 42.0717C61.4329 40.1955 61.5391 39.0154 61.245 37.1476Z" fill="white"/>
<path d="M43.6967 38.6611C43.6503 39.2708 44.0967 41.762 43.8566 43.1708C43.6934 44.1287 43.2356 44.4369 42.3196 44.4128C41.4503 44.3899 40.9765 43.9968 40.8273 43.0816C40.7436 42.5688 40.7552 42.04 40.7321 41.5182C40.6649 39.9982 40.5645 38.4785 40.5513 36.958C40.5435 36.0499 40.6225 35.1327 40.7596 34.2344C40.8792 33.4511 41.5332 32.8562 42.1746 32.9115C42.8613 32.9708 43.4775 33.2799 43.6266 34.0247C43.949 35.6355 43.6967 38.6611 43.6967 38.6611Z" fill="white"/>
<path d="M98.4523 39.377C98.7024 40.0163 98.8344 40.5674 99.1156 41.0277C99.6717 41.9384 101.455 42.282 102.557 41.7563C103.315 41.395 103.381 40.8802 102.839 39.4908C102.812 39.4213 102.717 39.378 102.716 39.377C101.309 39.377 99.9668 39.377 98.4523 39.377ZM91.5414 39.5853C91.7775 40.2555 91.8944 40.8043 92.1531 41.2758C92.6947 42.2632 94.5783 42.7025 95.7962 42.1831C96.6383 41.824 96.7191 41.2893 96.1609 39.7009C96.1364 39.6311 96.0445 39.5847 96.0452 39.5853C94.5563 39.5853 93.1306 39.5853 91.5414 39.5853ZM87.7773 33.545C88.1988 33.2323 88.6153 33.2948 88.9649 33.6331C89.564 34.2131 90.2889 34.2188 91.0479 34.1945C94.0709 34.0975 97.0944 34.0115 100.118 33.9345C100.748 33.9185 101.282 33.8114 101.779 33.3316C102.334 32.7961 102.754 32.9262 103.094 33.6315C103.301 34.0602 103.434 34.5266 103.578 34.9828C104.249 37.1005 104.962 39.2068 105.555 41.3461C105.829 42.339 105.971 43.3975 105.977 44.4277C105.986 45.7379 105.38 46.8008 104.103 47.3214C102.843 47.8355 101.593 47.7438 100.507 46.8929C99.9331 46.4435 99.4803 45.8407 98.9299 45.262C98.7339 46.3375 98.3902 47.3582 97.2708 47.8157C96.087 48.2997 94.8905 48.3263 93.7179 47.7424C93.5404 47.6749 93.3629 47.6076 93.1853 47.5402C92.0153 46.6127 91.2829 45.3832 90.8294 43.9957C89.816 40.8956 88.8382 37.7837 87.8604 34.6721C87.7851 34.4331 87.8227 34.1588 87.8078 33.901C87.7976 33.7824 87.7875 33.6637 87.7773 33.545Z" fill="white"/>
<path d="M2.45137 54.6094C3.75822 54.8837 5.04485 55.1536 6.3681 55.4314C6.37659 53.2551 5.69865 52.4826 3.84394 52.3559C2.90377 52.2917 2.46389 52.6597 2.39075 53.6124C2.36796 53.9095 2.42459 54.2125 2.45137 54.6094ZM0.95077 60.5657C0.334961 60.3639 0.247309 59.8498 0.229287 59.3101C0.140325 56.6476 0.0153722 53.9851 7.39485e-05 51.322C-0.0045365 50.5155 0.206968 49.673 0.486058 48.9073C0.948202 47.6398 1.83126 46.7496 3.27271 46.6641C4.80626 46.573 5.99345 47.2078 6.77341 48.5345C7.01346 48.943 7.17922 49.3948 7.41797 49.9108C8.15324 47.7384 9.66489 48.2574 11.1341 48.4713C11.5954 48.5384 12.0378 48.2614 12.1889 47.8218L12.3713 47.2912C13.2195 47.0505 13.7788 47.542 14.2076 48.1592C15.1733 49.5491 15.2771 51.0864 14.749 52.6541C14.4233 53.621 13.6777 54.1496 12.6447 54.1143C11.9513 54.0906 11.2591 53.9523 10.5725 53.8309C8.92449 53.5398 8.61952 53.7896 8.64551 55.4625C8.6475 55.5917 8.67511 55.7205 8.70832 55.9933C9.9664 56.3009 11.2599 56.6514 12.5716 56.9101C12.8487 56.9647 13.2181 56.7232 13.4983 56.5453C13.7821 56.365 14.0081 56.0945 14.4288 55.7081C15.0047 55.9262 15.0047 55.9262 15.002 57.3628C14.9981 59.5012 15.1595 60.9913 15.2033 63.1294C15.2092 63.4184 15.113 63.7642 14.8217 64.0469C14.5224 63.9259 14.2958 63.9083 14.2214 63.7931C13.513 62.6961 12.3868 62.4396 11.2155 62.172C8.78759 61.6172 6.3791 60.9784 3.96025 60.3838C2.36975 59.9927 2.36791 60.0002 0.95077 60.5657Z" fill="white"/>
<path d="M20.5513 28.3907C21.0564 28.7791 21.788 28.7601 22.223 28.2948C22.6642 27.8227 22.6824 27.3747 22.3918 26.5947C21.299 23.6599 19.5204 21.1449 17.3957 18.8644C17.0229 18.4644 16.4666 18.1078 16.0147 18.4807C15.637 18.7924 15.3456 19.4127 15.3322 19.9048C15.3165 20.4793 15.5295 21.1354 15.8433 21.6301C17.1695 23.7206 18.544 25.7823 19.9628 27.8115C20.1171 28.0324 20.3246 28.2165 20.5513 28.3907ZM25.8523 23.724C25.758 27.0095 24.4046 29.5547 21.9162 31.4733C19.9744 32.9704 17.8707 32.9839 16.0036 31.4763C12.2792 28.4687 9.69411 22.2936 14.3319 16.9099C14.7835 16.3857 15.3075 15.9026 15.8675 15.4952C17.9119 14.0077 20.0782 14.0437 21.9873 15.7047C24.4419 17.8402 25.7512 20.5658 25.8523 23.724Z" fill="white"/>
<path d="M52.5634 4.66044C52.5003 4.64534 52.9108 2.7241 51.7508 2.43954C51.2811 2.32432 50.6089 2.53096 50.2504 2.85081C49.8263 3.2292 49.526 3.84564 49.3776 4.41236C48.8949 6.25527 48.475 8.11637 48.0953 9.98334C47.9321 10.7866 47.8848 11.6209 47.8651 12.443C47.8527 12.9598 47.9479 13.535 48.5626 13.713C49.1562 13.8849 49.7288 13.709 50.0755 13.2028C50.4384 12.673 50.8117 12.098 50.9675 11.4886C51.5469 9.22454 52.0387 6.93828 52.5634 4.66044ZM48.0593 15.8516C47.5063 15.8081 46.9743 15.8168 46.4633 15.7175C43.8082 15.202 42.328 13.3097 42.3968 10.4475C42.44 8.64914 42.8252 6.90821 43.6322 5.28276C45.5581 1.4034 50.2838 -0.812153 54.2991 0.273036C56.4306 0.848979 57.628 2.25161 57.8533 4.43616C58.4212 9.94203 55.0047 14.6765 49.7266 15.6763C49.1712 15.7815 48.5988 15.797 48.0593 15.8516Z" fill="white"/>
<path d="M6.15814 33.8024C5.32482 34.5776 5.39276 35.2931 5.82316 35.967C6.14689 36.474 6.53432 36.9888 7.01144 37.3417C8.89937 38.7377 10.8284 40.0789 12.757 41.4196C13.0353 41.6131 13.3859 41.7174 13.7166 41.8193C14.7386 42.1344 15.4377 41.627 15.194 40.6026C15.0344 39.932 14.5963 39.2422 14.0947 38.7529C12.2475 36.9508 8.05556 34.3429 7.91075 34.2433C7.34916 33.8573 6.83708 33.5309 6.15814 33.8024ZM3.02734 36.8204C3.08811 34.8058 3.59416 32.9343 4.72336 31.2655C6.03278 29.3305 7.98069 28.6785 10.2196 29.361C16.2263 31.1919 19.188 37.7451 16.517 43.2951C15.0421 46.3594 12.3896 47.358 9.35534 45.862C6.28866 44.3503 4.01592 42.1006 3.25928 38.6291C3.13034 38.0374 3.1021 37.4239 3.02734 36.8204Z" fill="white"/>
<path d="M93.1831 47.5471C93.3607 47.6144 93.5383 47.6818 93.7157 47.7493C93.6837 48.6422 94.2748 49.0653 94.9945 49.3155C98.0862 50.3902 101.175 51.4795 104.297 52.4576C104.932 52.6562 105.71 52.3969 106.585 52.3379C107.014 52.5416 107.017 53.0719 106.99 53.6016C106.818 56.9148 106.667 60.2294 106.452 63.5398C106.362 64.9181 105.619 65.3874 104.305 65.0043C103.593 64.7968 102.896 64.5381 102.196 64.2904C101.628 64.0894 101.388 63.6629 101.396 63.0757C101.404 62.4434 101.652 61.9681 102.292 61.7885C102.956 61.602 103.63 61.4491 104.359 61.2666C104.439 60.2788 104.513 59.3739 104.598 58.3313C103.337 57.8923 102.072 57.452 100.809 57.0122C100.425 57.8193 100.781 58.3839 101.258 58.9468C101.776 59.559 102.277 60.2039 101.562 61.1752C101.282 61.1533 100.888 61.1891 100.538 61.0814C99.7047 60.825 98.8971 60.4869 98.07 60.2089C97.4992 60.0169 97.0196 59.7695 96.9518 59.0874C96.8805 58.368 97.3512 58.068 97.9176 57.8806C98.6768 57.6296 98.9657 57.1594 98.7131 56.3076C97.2727 55.8253 95.7938 55.3303 94.2591 54.8166C93.8555 56.4704 93.9997 57.8524 95.4187 58.9339C95.8916 59.2944 96.3646 59.7914 96.5654 60.3274C96.7351 60.7799 96.6459 61.444 96.4262 61.8963C96.1671 62.4295 95.6105 62.1493 95.1382 62.0214C94.5582 61.8644 93.9535 61.7974 93.3596 61.6914C93.0766 61.5964 92.7936 61.5012 92.5105 61.4061C91.8496 60.4826 91.6952 59.4646 91.7719 58.3393C91.9853 55.2088 92.1322 52.0736 92.2895 48.9394C92.3222 48.2869 92.4209 47.7159 93.1831 47.5471Z" fill="white"/>
<path d="M11.0168 70.9039C10.4181 69.4559 10.1233 68.9945 9.48786 68.8142C8.14433 68.433 6.8105 68.5919 5.52974 69.0998C4.91696 69.3428 4.71698 69.8647 4.92493 70.4923C5.04155 70.8446 5.22063 71.1763 5.3801 71.5366C7.28793 71.3224 9.09335 71.1198 11.0168 70.9039ZM13.116 70.6326C14.0572 70.5254 14.9743 70.4714 15.8665 70.2933C16.2011 70.2264 16.5274 69.9131 16.7661 69.6346C16.9785 69.3865 17.1812 69.0735 17.3064 68.5058C18.1128 68.461 18.1494 69.0041 18.2862 69.3116C19.1352 71.2213 19.9501 73.1473 20.7071 75.0954C20.9642 75.757 20.8977 75.835 20.721 76.1362C20.721 76.1362 20.2481 76.3647 19.6947 75.9866C19.0041 75.515 18.3186 75.4861 17.5669 75.5724C14.4342 75.9326 11.2994 76.2768 8.17137 76.6737C7.7769 76.7237 7.37024 76.9939 7.05159 77.26C6.23042 77.9459 5.86205 77.9647 5.471 77.0543C4.31954 74.3736 3.14026 71.6979 2.15693 68.9545C1.39568 66.8306 2.08671 65.0142 3.71437 64.1736C4.7055 63.6618 5.7799 63.4699 6.8984 63.6182C8.35646 63.8117 9.59216 64.4709 10.4596 65.6326C11.158 66.568 11.7121 67.6166 12.2722 68.6464C12.6019 69.2526 12.8182 69.9199 13.116 70.6326Z" fill="white"/>
<path d="M92.5122 61.4052C92.7954 61.5004 93.0784 61.5955 93.3614 61.6906C94.1711 62.3984 94.9295 63.1783 95.8035 63.7959C96.9099 64.5776 96.8582 66.0864 95.2404 66.5273C94.5254 66.7221 93.8139 66.9305 93.1056 67.1481C92.1979 67.4271 91.5895 68.0501 91.3612 68.9435C91.2677 69.3092 91.3503 69.8262 91.5594 70.1358C91.8392 70.5497 92.3583 70.6484 92.8517 70.3873C93.2743 70.1638 93.6998 69.9402 94.0973 69.6769C94.7888 69.2187 95.4425 68.7025 96.1432 68.2596C97.6989 67.276 99.3077 67.029 100.949 68.062C102.634 69.1221 103.318 70.7001 103.18 72.629C103.043 74.5359 102.176 76.1214 100.822 77.453C100.543 77.7274 100.248 77.9851 99.9095 78.2969C100.12 79.451 100.757 80.7523 99.162 81.6328C97.8444 80.9208 96.7649 79.9019 95.6887 78.9C95.17 78.4171 95.3371 77.6711 96.025 77.2503C96.4994 76.9599 97.0834 76.8539 97.5864 76.6021C98.32 76.2348 99.0935 75.8949 99.7236 75.3876C100.404 74.8398 100.468 74.0233 100.068 73.5269C99.6946 73.064 99.0394 72.993 98.2819 73.4636C97.1333 74.177 96.0631 75.0192 94.898 75.7022C92.3407 77.2016 89.3498 76.0448 88.4598 73.2265C88.0839 72.0364 88.1601 70.8215 88.5126 69.6196C89.0869 67.6608 90.1446 66.0682 92.0203 65.0354C91.8553 64.4612 91.6712 63.9338 91.5549 63.3918C91.3466 62.4202 91.6046 61.9197 92.5122 61.4052Z" fill="white"/>
<path d="M27.2031 23.9453C27.2456 23.4875 27.1859 23.093 27.329 22.7953C27.6585 22.1103 27.5928 21.4677 27.4073 20.7666C26.6718 17.9877 25.9524 15.2042 25.273 12.4112C25.0603 11.537 24.8523 10.723 23.937 10.3065C23.8029 10.2454 23.4284 10.0015 23.2344 9.72465C23.6228 9.38395 24.265 9.02187 24.6879 8.77272C27.4347 7.15423 30.1912 5.55137 32.964 3.97792C34.4908 3.11154 35.1882 3.41749 35.655 5.08116C35.8079 5.62622 35.9384 6.17851 36.0544 6.73253C36.2397 7.61749 36.0272 8.0547 35.313 8.47573C34.6187 8.885 34.0649 8.66659 33.5439 8.16523C33.1692 7.80435 32.7882 7.45002 32.3182 7.00613C31.5027 7.4547 30.7162 7.88722 29.8408 8.36867C30.218 9.83345 30.5828 11.2507 30.9476 12.6679C31.041 12.7031 31.1343 12.7384 31.2277 12.7737C31.5049 12.3852 31.8206 12.0176 32.0494 11.6024C32.3209 11.1103 32.4365 10.5137 32.7749 10.0837C33.004 9.79282 33.5136 9.55637 33.8736 9.58618C34.1491 9.60903 34.5212 10.0469 34.6168 10.3692C34.9634 11.5367 35.2303 12.7291 35.4882 13.9205C35.6023 14.4473 35.5552 14.9597 35.0306 15.3157C34.5013 15.6745 34.0153 15.495 33.5596 15.2134C32.9102 14.8122 32.291 14.3226 31.5756 15.1948C31.7971 16.0378 32.0687 16.9114 32.2489 17.8033C32.4102 18.6022 32.681 19.1986 33.6207 19.2859C33.8674 19.3089 34.0901 19.5917 34.3168 19.7502C33.7313 20.8377 28.8633 23.7641 27.2031 23.9453Z" fill="white"/>
<path d="M63.1185 1.53516C63.4988 1.24472 63.4988 1.24472 64.4034 1.54826C67.5499 2.60378 70.8446 3.15713 74.053 4.00814C75.5531 4.40619 75.8592 5.19691 75.1191 6.539C74.8035 7.1112 74.4705 7.67485 74.1229 8.22834C73.7593 8.80722 73.2484 9.04968 72.5551 8.85681C71.901 8.67476 71.4686 8.32377 71.4325 7.59666C71.4025 6.99064 71.35 6.38556 71.2993 5.66473C70.8267 5.53227 70.379 5.40101 69.9279 5.28206C69.5117 5.17245 69.0919 5.07609 68.5837 4.95205C67.8225 6.25176 67.0853 7.51018 66.3482 8.76873C66.4081 8.86349 66.4682 8.95826 66.5282 9.05302C67.0829 8.92016 67.6425 8.80441 68.1908 8.64937C68.6892 8.50849 69.1668 8.22499 69.6688 8.18222C70.5465 8.10764 71.0547 8.75937 70.6685 9.52003C70.0588 10.7215 69.3672 11.8933 68.5947 12.9975C67.9975 13.8513 66.9383 13.6468 66.5263 12.6819C66.4242 12.4429 66.3788 12.1803 66.3011 11.9305C66.0755 11.2059 66.0743 11.2063 65.0679 10.9518C64.5294 11.8551 63.9194 12.7566 63.4514 13.7262C63.2759 14.0901 63.3809 14.6202 63.4525 15.0593C63.498 15.3379 63.7175 15.5882 63.8325 15.8019C63.5834 16.5063 63.0563 16.4402 62.6016 16.3295C60.608 15.8446 58.6194 15.3368 56.6434 14.7863C56.3712 14.7103 56.0087 14.3536 56.0001 14.1159C55.9921 13.8902 56.3523 13.534 56.623 13.438C57.3886 13.1666 57.8112 12.614 58.1932 11.9516C59.4779 9.72373 60.7916 7.51245 62.0963 5.29596C63.1248 3.54835 63.126 3.54916 63.1185 1.53516Z" fill="white"/>
<path d="M84.3736 19.8483C84.9982 19.6777 85.4612 19.5866 85.8981 19.4255C87.3724 18.8818 88.8203 18.2603 90.3133 17.776C91.0861 17.5254 91.9416 17.3587 92.7444 17.4066C94.1192 17.4885 95.306 18.9252 95.1122 20.0615C94.8712 21.4747 93.3541 22.4609 91.9539 22.1117C90.9379 21.8583 90.4867 21.1058 90.2792 20.0573C88.4467 20.6981 86.6799 21.3097 84.9176 21.9339C83.3537 22.4879 81.7957 23.0581 80.2331 23.6155C79.9863 23.7034 79.7312 23.7715 79.4758 23.8311C78.6297 24.0287 77.8043 24.0685 77.1913 23.3074C76.5901 22.5609 76.904 21.8146 77.2951 21.1146C78.8476 18.3363 80.4175 15.5677 81.9835 12.7969C82.4134 12.0365 82.8043 11.3085 82.7088 10.3481C82.6233 9.4864 83.2794 9.19488 84.0004 9.75947C85.5155 10.9457 87.0053 12.1676 88.4506 13.4371C89.1348 14.0382 88.9935 14.6309 88.0955 14.8434C87.3055 15.0302 86.9266 15.5185 86.5691 16.1384C85.896 17.3061 85.1978 18.4593 84.3736 19.8483Z" fill="white"/>
<path d="M87.7743 33.5528C87.7845 33.6715 87.7946 33.7902 87.8048 33.9088C86.9444 34.0192 86.363 33.6922 85.8967 32.9343C85.0988 31.6368 84.1915 30.4066 83.3468 29.1371C83.1138 28.7868 82.9402 28.3972 82.7734 28.0891C83.1554 27.3916 83.6208 27.6188 84.0998 27.6668C84.7248 27.7294 85.4063 27.8021 85.9881 27.6249C88.7797 26.774 91.5434 25.8327 94.3227 24.9407C95.1722 24.668 95.9744 24.3742 96.3296 23.4424C96.3791 23.3124 96.5325 23.1635 96.7201 23.1635C97.9052 23.7649 100.885 28.1686 100.929 29.4937C100.549 29.4695 100.136 29.5484 99.8311 29.4025C99.1228 29.0641 98.4782 29.2182 97.8029 29.4437C94.9107 30.4094 92.0154 31.3663 89.1212 32.326C88.4889 32.5355 87.8552 32.7427 87.7743 33.5528Z" fill="white"/>
</svg>
