<svg width="95" height="32" viewBox="0 0 95 32" fill="none" xmlns="http://www.w3.org/2000/svg">
<path d="M0 5C0 2.23858 2.23858 0 5 0H31V32H5C2.23858 32 0 29.7614 0 27V5Z" fill="#1E95DD"/>
<path d="M95 27C95 29.7614 92.7614 32 90 32L31 32V0L90 0C92.7614 0 95 2.23858 95 5V27Z" fill="#15191D"/>
<path d="M39.7269 21V12.2727H43.332C43.9854 12.2727 44.5494 12.3906 45.0238 12.6264C45.5011 12.8594 45.869 13.1946 46.1275 13.6321C46.386 14.0668 46.5153 14.5824 46.5153 15.179C46.5153 15.7841 46.3832 16.2983 46.119 16.7216C45.8548 17.142 45.4798 17.4631 44.994 17.6847C44.5082 17.9034 43.9329 18.0128 43.2681 18.0128H40.9883V16.3509H42.8761C43.1942 16.3509 43.4599 16.3097 43.6729 16.2273C43.8888 16.142 44.0522 16.0142 44.163 15.8438C44.2738 15.6705 44.3292 15.4489 44.3292 15.179C44.3292 14.9091 44.2738 14.6861 44.163 14.5099C44.0522 14.331 43.8888 14.1974 43.6729 14.1094C43.457 14.0185 43.1914 13.973 42.8761 13.973H41.8363V21H39.7269ZM44.6403 17.0114L46.8136 21H44.5124L42.3817 17.0114H44.6403ZM50.603 21.1236C49.9183 21.1236 49.3274 20.9886 48.8303 20.7188C48.3359 20.446 47.9553 20.0582 47.6882 19.5554C47.424 19.0497 47.2919 18.4489 47.2919 17.7528C47.2919 17.0767 47.4254 16.4858 47.6925 15.9801C47.9595 15.4716 48.3359 15.0767 48.8217 14.7955C49.3075 14.5114 49.88 14.3693 50.5391 14.3693C51.005 14.3693 51.4311 14.4418 51.8175 14.5866C52.2038 14.7315 52.5376 14.946 52.8189 15.2301C53.1001 15.5142 53.3189 15.8651 53.4751 16.2827C53.6314 16.6974 53.7095 17.1733 53.7095 17.7102V18.2301H48.0206V17.0199H51.7706C51.7678 16.7983 51.7152 16.6009 51.6129 16.4276C51.5107 16.2543 51.37 16.1193 51.1911 16.0227C51.0149 15.9233 50.8118 15.8736 50.5817 15.8736C50.3487 15.8736 50.1399 15.9261 49.9553 16.0312C49.7706 16.1335 49.6243 16.2741 49.5163 16.4531C49.4084 16.6293 49.3516 16.8295 49.3459 17.054V18.2855C49.3459 18.5526 49.3984 18.7869 49.5036 18.9886C49.6087 19.1875 49.7578 19.3423 49.951 19.4531C50.1442 19.5639 50.3743 19.6193 50.6413 19.6193C50.826 19.6193 50.9936 19.5937 51.1442 19.5426C51.2947 19.4915 51.424 19.4162 51.532 19.3168C51.6399 19.2173 51.7209 19.0952 51.7749 18.9503L53.6882 19.0057C53.6087 19.4347 53.4339 19.8082 53.1641 20.1264C52.897 20.4418 52.5462 20.6875 52.1115 20.8636C51.6768 21.0369 51.174 21.1236 50.603 21.1236ZM56.619 21.1108C56.2013 21.1108 55.8306 21.0412 55.5067 20.902C55.1857 20.7599 54.9315 20.5469 54.744 20.2628C54.5593 19.9759 54.467 19.6165 54.467 19.1847C54.467 18.821 54.5309 18.5142 54.6587 18.2642C54.7866 18.0142 54.9627 17.8111 55.1871 17.6548C55.4116 17.4986 55.6701 17.3807 55.9627 17.3011C56.2553 17.2187 56.5678 17.1634 56.9002 17.1349C57.2724 17.1009 57.5721 17.0653 57.7994 17.0284C58.0266 16.9886 58.1914 16.9332 58.2937 16.8622C58.3988 16.7884 58.4513 16.6847 58.4513 16.5511V16.5298C58.4513 16.3111 58.3761 16.142 58.2255 16.0227C58.0749 15.9034 57.8718 15.8438 57.6161 15.8438C57.3406 15.8438 57.119 15.9034 56.9513 16.0227C56.7837 16.142 56.6772 16.3068 56.6317 16.517L54.7099 16.4489C54.7667 16.0511 54.913 15.696 55.1488 15.3835C55.3874 15.0682 55.7141 14.821 56.1289 14.642C56.5465 14.4602 57.0479 14.3693 57.6332 14.3693C58.0508 14.3693 58.4357 14.419 58.788 14.5185C59.1403 14.6151 59.4471 14.7571 59.7085 14.9446C59.9698 15.1293 60.1715 15.3565 60.3136 15.6264C60.4585 15.8963 60.5309 16.2045 60.5309 16.5511V21H58.5707V20.0881H58.5195C58.4031 20.3097 58.2539 20.4972 58.0721 20.6506C57.8931 20.804 57.6815 20.919 57.4371 20.9957C57.1957 21.0724 56.9229 21.1108 56.619 21.1108ZM57.2624 19.7472C57.4869 19.7472 57.6886 19.7017 57.8675 19.6108C58.0494 19.5199 58.1942 19.3949 58.3022 19.2358C58.4102 19.0739 58.4641 18.8864 58.4641 18.6733V18.0511C58.4045 18.0824 58.332 18.1108 58.2468 18.1364C58.1644 18.1619 58.0735 18.1861 57.9741 18.2088C57.8746 18.2315 57.7724 18.2514 57.6673 18.2685C57.5621 18.2855 57.4613 18.3011 57.3647 18.3153C57.1687 18.3466 57.0011 18.3949 56.8619 18.4602C56.7255 18.5256 56.6204 18.6108 56.5465 18.7159C56.4755 18.8182 56.44 18.9403 56.44 19.0824C56.44 19.2983 56.5167 19.4631 56.6701 19.5767C56.8263 19.6903 57.0238 19.7472 57.2624 19.7472ZM64.8604 21.1236C64.1701 21.1236 63.5778 20.9815 63.0835 20.6974C62.592 20.4134 62.2141 20.0185 61.9499 19.5128C61.6857 19.0043 61.5536 18.4162 61.5536 17.7486C61.5536 17.0781 61.6857 16.4901 61.9499 15.9844C62.217 15.4759 62.5962 15.0795 63.0877 14.7955C63.582 14.5114 64.1715 14.3693 64.8562 14.3693C65.4613 14.3693 65.9883 14.4787 66.4371 14.6974C66.8888 14.9162 67.2411 15.2259 67.494 15.6264C67.7496 16.0241 67.8846 16.4915 67.8988 17.0284H65.9513C65.9116 16.6932 65.7979 16.4304 65.6104 16.2401C65.4258 16.0497 65.1843 15.9545 64.886 15.9545C64.6445 15.9545 64.4329 16.0227 64.2511 16.1591C64.0692 16.2926 63.9272 16.4915 63.8249 16.7557C63.7255 17.017 63.6758 17.3409 63.6758 17.7273C63.6758 18.1136 63.7255 18.4403 63.8249 18.7074C63.9272 18.9716 64.0692 19.1719 64.2511 19.3082C64.4329 19.4418 64.6445 19.5085 64.886 19.5085C65.0792 19.5085 65.2496 19.4673 65.3974 19.3849C65.5479 19.3026 65.6715 19.1818 65.7681 19.0227C65.8647 18.8608 65.9258 18.6648 65.9513 18.4347H67.8988C67.8789 18.9744 67.744 19.446 67.494 19.8494C67.2468 20.2528 66.8988 20.5668 66.4499 20.7912C66.0039 21.0128 65.4741 21.1236 64.8604 21.1236ZM72.6598 14.4545V15.9886H68.5305V14.4545H72.6598ZM69.3956 12.8864H71.4794V18.9418C71.4794 19.0696 71.4993 19.1733 71.5391 19.2528C71.5817 19.3295 71.6428 19.3849 71.7223 19.419C71.8018 19.4503 71.897 19.4659 72.0078 19.4659C72.0874 19.4659 72.1712 19.4588 72.2592 19.4446C72.3501 19.4276 72.4183 19.4134 72.4638 19.402L72.7791 20.9062C72.6797 20.9347 72.5391 20.9702 72.3572 21.0128C72.1783 21.0554 71.9638 21.0824 71.7138 21.0938C71.2251 21.1165 70.8061 21.0597 70.4567 20.9233C70.1101 20.7841 69.8445 20.5682 69.6598 20.2756C69.478 19.983 69.3899 19.6151 69.3956 19.1719V12.8864ZM77.2685 12.2727H79.348V18.3068C79.3452 18.8722 79.2102 19.3665 78.9432 19.7898C78.6761 20.2102 78.3068 20.5369 77.8352 20.7699C77.3665 21.0028 76.8239 21.1193 76.2074 21.1193C75.6619 21.1193 75.1662 21.0241 74.7202 20.8338C74.277 20.6435 73.9233 20.348 73.6591 19.9474C73.3977 19.5469 73.2685 19.0341 73.2713 18.4091H75.3722C75.3807 18.6335 75.4233 18.8253 75.5 18.9844C75.5795 19.1406 75.6889 19.2585 75.8281 19.3381C75.9673 19.4176 76.1335 19.4574 76.3267 19.4574C76.5284 19.4574 76.6989 19.4148 76.8381 19.3295C76.9773 19.2415 77.0824 19.1122 77.1534 18.9418C77.2273 18.7713 77.2656 18.5597 77.2685 18.3068V12.2727ZM85.3896 14.8892C85.3612 14.5767 85.2347 14.3338 85.0103 14.1605C84.7887 13.9844 84.4719 13.8963 84.06 13.8963C83.7873 13.8963 83.56 13.9318 83.3782 14.0028C83.1964 14.0739 83.06 14.1719 82.9691 14.2969C82.8782 14.419 82.8313 14.5597 82.8285 14.7188C82.8228 14.8494 82.8484 14.9645 82.9052 15.0639C82.9648 15.1634 83.0501 15.2514 83.1609 15.3281C83.2745 15.402 83.4109 15.4673 83.57 15.5241C83.729 15.581 83.908 15.6307 84.1069 15.6733L84.8569 15.8438C85.2887 15.9375 85.6694 16.0625 85.9989 16.2188C86.3313 16.375 86.6097 16.5611 86.8342 16.777C87.0614 16.9929 87.2333 17.2415 87.3498 17.5227C87.4663 17.804 87.5259 18.1193 87.5288 18.4688C87.5259 19.0199 87.3867 19.4929 87.1112 19.8878C86.8356 20.2827 86.4393 20.5852 85.9222 20.7955C85.408 21.0057 84.7873 21.1108 84.06 21.1108C83.3299 21.1108 82.6935 21.0014 82.1509 20.7827C81.6083 20.5639 81.1864 20.2315 80.8853 19.7855C80.5842 19.3395 80.4293 18.7756 80.4208 18.0938H82.4407C82.4577 18.375 82.533 18.6094 82.6665 18.7969C82.8001 18.9844 82.9833 19.1264 83.2163 19.223C83.4521 19.3196 83.7248 19.3679 84.0344 19.3679C84.3185 19.3679 84.56 19.3295 84.7589 19.2528C84.9606 19.1761 85.1154 19.0696 85.2234 18.9332C85.3313 18.7969 85.3867 18.6406 85.3896 18.4645C85.3867 18.2997 85.3356 18.1591 85.2362 18.0426C85.1367 17.9233 84.9833 17.821 84.7759 17.7358C84.5714 17.6477 84.31 17.5668 83.9918 17.4929L83.0799 17.2798C82.3242 17.1065 81.729 16.8267 81.2944 16.4403C80.8597 16.0511 80.6438 15.5256 80.6467 14.8636C80.6438 14.3239 80.7887 13.8509 81.0813 13.4446C81.3739 13.0384 81.7788 12.7216 82.2958 12.4943C82.8129 12.267 83.4023 12.1534 84.0643 12.1534C84.7404 12.1534 85.3271 12.2685 85.8242 12.4986C86.3242 12.7259 86.712 13.0455 86.9876 13.4574C87.2631 13.8693 87.4038 14.3466 87.4094 14.8892H85.3896Z" fill="white"/>
<path d="M23.6031 11.8057C23.35 11.7213 23.0969 11.6416 22.8438 11.5666C22.8859 11.3932 22.9234 11.2197 22.9609 11.0463C23.5375 8.25254 23.1578 6.00723 21.8781 5.26661C20.6453 4.55879 18.6344 5.29473 16.6 7.06661C16.3984 7.24004 16.2016 7.42285 16.0141 7.60566C15.8875 7.48378 15.7562 7.36191 15.625 7.24472C13.4922 5.35097 11.3547 4.55411 10.075 5.29942C8.84688 6.01191 8.48125 8.12598 8.99687 10.7697C9.04844 11.0322 9.10469 11.29 9.17031 11.5525C8.87031 11.6369 8.575 11.7307 8.29844 11.8291C5.79531 12.6963 4 14.065 4 15.4807C4 16.9432 5.9125 18.4103 8.51406 19.301C8.725 19.3713 8.93594 19.4416 9.15156 19.5025C9.08125 19.7838 9.02031 20.0603 8.96406 20.3463C8.47188 22.9478 8.85625 25.0103 10.0844 25.7182C11.35 26.4494 13.4781 25.6994 15.55 23.8853C15.7141 23.74 15.8781 23.59 16.0422 23.4307C16.2484 23.6322 16.4641 23.8244 16.6797 24.0119C18.6859 25.7369 20.6688 26.4353 21.8922 25.7275C23.1578 24.9963 23.5703 22.7791 23.0359 20.0791C22.9938 19.8728 22.9469 19.6619 22.8953 19.4463C23.0453 19.4041 23.1906 19.3572 23.3359 19.3103C26.0406 18.415 28 16.9666 28 15.4807C28 14.0603 26.1531 12.6822 23.6031 11.8057ZM17.2609 7.82597C19.0047 6.30722 20.6313 5.71191 21.3719 6.13847C22.1641 6.59316 22.4687 8.43067 21.9719 10.8447C21.9391 11.0041 21.9063 11.1588 21.8641 11.3135C20.8234 11.0791 19.7687 10.9103 18.7094 10.8166C18.1 9.94471 17.4344 9.11031 16.7125 8.32754C16.8953 8.15411 17.0734 7.99003 17.2609 7.82597ZM11.8375 17.9135C12.0766 18.3213 12.3203 18.7291 12.5781 19.1275C11.8469 19.0478 11.1203 18.9307 10.4031 18.776C10.6094 18.101 10.8672 17.4025 11.1672 16.69C11.3828 17.1025 11.6031 17.5103 11.8375 17.9135ZM10.4172 12.2744C11.0922 12.1244 11.8094 12.0025 12.5547 11.9088C12.3062 12.2978 12.0625 12.6963 11.8328 13.0994C11.6031 13.4978 11.3781 13.9057 11.1672 14.3182C10.8719 13.6197 10.6234 12.9353 10.4172 12.2744ZM11.7016 15.5041C12.0109 14.8572 12.3484 14.2244 12.7047 13.601C13.0609 12.9775 13.4453 12.3728 13.8484 11.7775C14.5516 11.726 15.2687 11.6978 16 11.6978C16.7313 11.6978 17.4531 11.726 18.1516 11.7775C18.55 12.3682 18.9297 12.9728 19.2906 13.5916C19.6516 14.2103 19.9891 14.8432 20.3078 15.4853C19.9937 16.1322 19.6562 16.7697 19.2953 17.3978C18.9391 18.0213 18.5594 18.626 18.1609 19.226C17.4625 19.2775 16.7359 19.301 16 19.301C15.2641 19.301 14.5516 19.2775 13.8625 19.2353C13.4547 18.64 13.0703 18.0307 12.7094 17.4072C12.3484 16.7838 12.0156 16.151 11.7016 15.5041ZM20.1672 17.9041C20.4062 17.4916 20.6313 17.0744 20.8516 16.6525C21.1516 17.3322 21.4141 18.0213 21.6437 18.7291C20.9172 18.8932 20.1812 19.0197 19.4406 19.1041C19.6937 18.7103 19.9328 18.3072 20.1672 17.9041ZM20.8422 14.3182C20.6219 13.9057 20.3969 13.4932 20.1625 13.09C19.9328 12.6916 19.6938 12.2978 19.4453 11.9088C20.2 12.0025 20.9219 12.1291 21.5969 12.2838C21.3812 12.9775 21.1281 13.6525 20.8422 14.3182ZM16.0094 9.0447C16.5016 9.5791 16.9656 10.1416 17.3969 10.7228C16.4687 10.6807 15.5359 10.6807 14.6078 10.7228C15.0672 10.1182 15.5406 9.5557 16.0094 9.0447ZM10.5719 6.17129C11.3594 5.71192 13.1078 6.36816 14.95 7.99941C15.0672 8.10253 15.1844 8.21504 15.3062 8.32754C14.5797 9.11031 13.9094 9.94471 13.2953 10.8166C12.2359 10.9103 11.1859 11.0744 10.1453 11.3041C10.0844 11.065 10.0328 10.8213 9.98125 10.5775C9.54062 8.30879 9.83125 6.59786 10.5719 6.17129ZM9.42344 18.5275C9.22656 18.4713 9.03438 18.4103 8.84219 18.3447C7.84375 18.0307 6.70937 17.5338 5.88906 16.8822C5.41562 16.5541 5.09687 16.0478 5.00781 15.4807C5.00781 14.6228 6.48906 13.526 8.62656 12.7807C8.89375 12.6869 9.16562 12.6025 9.4375 12.5228C9.75625 13.54 10.1406 14.5385 10.5859 15.5041C10.1359 16.4838 9.74687 17.4963 9.42344 18.5275ZM14.8891 23.1213C14.1156 23.8291 13.2203 24.3916 12.2453 24.776C11.725 25.0244 11.125 25.0478 10.5906 24.8369C9.84531 24.4057 9.53594 22.751 9.95781 20.5244C10.0094 20.2619 10.0656 19.9994 10.1313 19.7416C11.1813 19.9666 12.2406 20.1213 13.3141 20.201C13.9328 21.0775 14.6125 21.9166 15.3391 22.7041C15.1891 22.8494 15.0391 22.99 14.8891 23.1213ZM16.0375 21.9822C15.5594 21.4666 15.0812 20.8947 14.6172 20.2807C15.0672 20.2994 15.5312 20.3088 16 20.3088C16.4828 20.3088 16.9562 20.2994 17.425 20.276C16.9937 20.8713 16.5297 21.4385 16.0375 21.9822ZM22.1641 23.3885C22.1219 23.9603 21.8406 24.4947 21.3906 24.8557C20.6453 25.2869 19.0563 24.7244 17.3406 23.2525C17.1438 23.0838 16.9469 22.901 16.7453 22.7135C17.4625 21.9213 18.1234 21.0822 18.7234 20.201C19.7969 20.1119 20.8656 19.9478 21.9203 19.7088C21.9672 19.901 22.0094 20.0932 22.0469 20.2807C22.2766 21.2932 22.3141 22.3478 22.1641 23.3885ZM23.0172 18.3494C22.8859 18.3916 22.7547 18.4338 22.6188 18.4713C22.2906 17.4494 21.8875 16.451 21.4234 15.4807C21.8734 14.5244 22.2531 13.54 22.5719 12.5322C22.8156 12.6025 23.05 12.6775 23.275 12.7525C25.4594 13.5025 26.9922 14.6182 26.9922 15.4713C26.9922 16.39 25.3563 17.576 23.0172 18.3494ZM16 17.6463C17.1859 17.6463 18.1469 16.6853 18.1469 15.4994C18.1469 14.3135 17.1859 13.3525 16 13.3525C14.8141 13.3525 13.8531 14.3135 13.8531 15.4994C13.8531 16.6853 14.8141 17.6463 16 17.6463Z" fill="white"/>
</svg>
