<svg width="44" height="44" viewBox="0 0 44 44" fill="none" xmlns="http://www.w3.org/2000/svg">
<rect x="0.875" width="42.625" height="44" rx="21.3125" fill="#DBF0FF"/>
<path d="M25.2031 28.6094C25.6094 28.2031 26.0781 28 26.6094 28C27.1406 28 27.5938 28.2031 27.9688 28.6094C28.375 29.0156 28.5781 29.4844 28.5781 30.0156C28.5781 30.5469 28.375 31.0156 27.9688 31.4219C27.5938 31.7969 27.1406 31.9844 26.6094 31.9844C26.0781 31.9844 25.6094 31.7969 25.2031 31.4219C24.7969 31.0156 24.5938 30.5469 24.5938 30.0156C24.5938 29.4844 24.7969 29.0156 25.2031 28.6094ZM10.5781 12.0156H13.8594L14.7969 13.9844H29.6094C29.8906 13.9844 30.125 14.0938 30.3125 14.3125C30.5 14.5 30.5938 14.7344 30.5938 15.0156C30.5938 15.0469 30.5469 15.2031 30.4531 15.4844L26.8906 21.9531C26.5156 22.6406 25.9375 22.9844 25.1562 22.9844H17.7031L16.8125 24.625L16.7656 24.7656C16.7656 24.9219 16.8438 25 17 25H28.5781V27.0156H16.5781C16.0469 27.0156 15.5781 26.8125 15.1719 26.4062C14.7969 26 14.6094 25.5312 14.6094 25C14.6094 24.6875 14.6875 24.375 14.8438 24.0625L16.2031 21.5781L12.5938 13.9844H10.5781V12.0156ZM15.1719 28.6094C15.5781 28.2031 16.0469 28 16.5781 28C17.1094 28 17.5781 28.2031 17.9844 28.6094C18.3906 29.0156 18.5938 29.4844 18.5938 30.0156C18.5938 30.5469 18.3906 31.0156 17.9844 31.4219C17.5781 31.7969 17.1094 31.9844 16.5781 31.9844C16.0469 31.9844 15.5781 31.7969 15.1719 31.4219C14.7969 31.0156 14.6094 30.5469 14.6094 30.0156C14.6094 29.4844 14.7969 29.0156 15.1719 28.6094Z" fill="#0D99FF"/>
</svg>
