
<svg version="1.0" xmlns="http://www.w3.org/2000/svg"
 width="43.000000pt" height="43.000000pt" viewBox="0 0 43.000000 43.000000"
 preserveAspectRatio="xMidYMid meet">

<g transform="translate(0.000000,43.000000) scale(0.100000,-0.100000)"
fill="#000000" stroke="none">
<path d="M20 410 c0 -13 7 -20 20 -20 16 0 29 -18 55 -72 40 -82 41 -88 20
-129 -28 -54 -15 -60 132 -62 98 -2 130 1 130 11 0 9 -30 12 -117 12 -64 0
-119 3 -122 6 -3 3 -4 14 -1 25 5 17 15 19 93 19 70 0 90 3 102 18 26 30 88
149 81 156 -3 3 -77 6 -164 6 l-159 0 -6 25 c-5 19 -13 25 -35 25 -22 0 -29
-5 -29 -20z"/>
<path d="M110 71 c-13 -25 -13 -27 6 -45 19 -20 53 -5 51 22 -2 37 -41 52 -57
23z"/>
<path d="M322 81 c-21 -13 -11 -55 15 -59 30 -4 49 31 27 52 -18 18 -24 19
-42 7z"/>
</g>
</svg>