<svg width="18" height="19" viewBox="0 0 18 19" fill="none" xmlns="http://www.w3.org/2000/svg">
<path d="M3.32812 10.5312C4.20312 11.4062 5.26562 11.8438 6.51562 11.8438C7.76562 11.8438 8.82812 11.4062 9.70312 10.5312C10.5781 9.65625 11.0156 8.59375 11.0156 7.34375C11.0156 6.09375 10.5781 5.03125 9.70312 4.15625C8.82812 3.28125 7.76562 2.84375 6.51562 2.84375C5.26562 2.84375 4.20312 3.28125 3.32812 4.15625C2.45312 5.03125 2.01562 6.09375 2.01562 7.34375C2.01562 8.59375 2.45312 9.65625 3.32812 10.5312ZM12.5156 11.8438L17.4844 16.8125L15.9844 18.3125L11.0156 13.3438V12.5469L10.7344 12.2656C9.54688 13.2969 8.14062 13.8125 6.51562 13.8125C4.70312 13.8125 3.15625 13.1875 1.875 11.9375C0.625 10.6875 0 9.15625 0 7.34375C0 5.53125 0.625 4 1.875 2.75C3.15625 1.46875 4.70312 0.828125 6.51562 0.828125C8.32812 0.828125 9.85938 1.46875 11.1094 2.75C12.3594 4 12.9844 5.53125 12.9844 7.34375C12.9844 8 12.8281 8.75 12.5156 9.59375C12.2031 10.4062 11.8438 11.0625 11.4375 11.5625L11.7188 11.8438H12.5156Z" fill="#C4C4C4"/>
</svg>
