<svg width="61" height="61" viewBox="0 0 61 61" fill="none" xmlns="http://www.w3.org/2000/svg">
<path d="M0 4C0 1.79086 1.79086 0 4 0H57C59.2091 0 61 1.79086 61 4V57C61 59.2091 59.2091 61 57 61H4C1.79086 61 0 59.2091 0 57V4Z" fill="#009987"/>
<path d="M21.6109 30.2377L18.3779 33.4738M35.0751 35.075L32.0251 42.7L25.9251 25.925L42.7001 32.025L35.0751 35.075ZM35.0751 35.075L42.7001 42.7L35.0751 35.075ZM23.1618 15.6145L24.3467 20.0324L23.1618 15.6145ZM20.0325 24.3467L15.613 23.1617L20.0325 24.3467ZM33.4738 18.3763L30.2378 21.6123L33.4738 18.3763Z" stroke="white" stroke-width="2" stroke-linecap="round" stroke-linejoin="round"/>
</svg>
