<svg width="318" height="209" viewBox="0 0 318 209" fill="none" xmlns="http://www.w3.org/2000/svg">
<ellipse cx="138.235" cy="176.963" rx="119.018" ry="21.541" fill="#E5E8EB" fill-opacity="0.47"/>
<path d="M92.6732 83.5156C69.3242 88.888 39.3628 98.3929 39.363 118.229C39.3632 138.244 96.7024 156.352 110.03 183.627" stroke="black" stroke-width="16"/>
<path d="M197.125 83.5156C220.474 89.5031 250.435 100.096 250.435 122.204C250.435 144.511 203.53 163.656 188.446 174.019" stroke="black" stroke-width="16"/>
<path d="M116.361 178.365C108.327 178.172 105.636 183.117 105.294 185.614C102.477 189.867 109.197 200.268 114.059 204.859L116.361 198.971L121.343 195.251L126.922 192.152H133.431C131.45 186.03 124.394 178.558 116.361 178.365Z" fill="#4B4B5A" stroke="black" stroke-width="2"/>
<path d="M197.238 177.668C198.208 169.69 192.422 166.456 189.407 165.836C184.478 162.555 171.156 170.391 165.112 174.719L173.082 191.503C180.73 190.215 196.268 185.646 197.238 177.668Z" fill="#4B4B5A" stroke="black" stroke-width="2"/>
<ellipse cx="123.524" cy="197.847" rx="11.6983" ry="4.80411" transform="rotate(-35.7949 123.524 197.847)" fill="#C4C4C4"/>
<ellipse cx="128.19" cy="194.822" rx="2.01463" ry="1.23977" transform="rotate(-37.5332 128.19 194.822)" fill="#4B4B5A"/>
<ellipse cx="128.19" cy="194.822" rx="2.01463" ry="1.23977" transform="rotate(-37.5332 128.19 194.822)" fill="#4B4B5A"/>
<ellipse cx="120.442" cy="200.713" rx="2.01463" ry="1.23977" transform="rotate(-37.5332 120.442 200.713)" fill="#4B4B5A"/>
<rect x="158.381" y="182.43" width="10.848" height="2.1696" rx="1.0848" transform="rotate(-27.4482 158.381 182.43)" fill="#4B4B5A"/>
<rect x="162.41" y="190.18" width="10.848" height="2.1696" rx="1.0848" transform="rotate(-27.4482 162.41 190.18)" fill="#4B4B5A"/>
<path fill-rule="evenodd" clip-rule="evenodd" d="M134.26 5.71875C112.874 20.596 76.4872 99.4454 87.1492 124.737C97.8112 150.028 130.231 160.38 148.518 160.38C215.724 153.735 211.344 98.5524 188.001 55.9599L155.591 69.7231L129.556 74.3723L153.732 61.9746L168.919 51.7465L175.414 36.5454C162.183 19.1589 146.633 6.75576 134.26 5.71875Z" fill="#C3E5FF"/>
<path d="M87.1492 124.737L91.7565 122.794L87.1492 124.737ZM134.26 5.71875L134.678 0.73622L132.884 0.585809L131.405 1.61421L134.26 5.71875ZM148.518 160.38V165.38H148.764L149.01 165.356L148.518 160.38ZM188.001 55.9599L192.386 53.5569L190.212 49.5892L186.047 51.3577L188.001 55.9599ZM155.591 69.7231L156.47 74.6453L157.026 74.546L157.546 74.3253L155.591 69.7231ZM129.556 74.3723L127.275 69.9232L130.435 79.2944L129.556 74.3723ZM153.732 61.9746L156.013 66.4237L156.278 66.2879L156.525 66.1217L153.732 61.9746ZM168.919 51.7465L171.712 55.8936L172.937 55.0688L173.517 53.711L168.919 51.7465ZM175.414 36.5454L180.012 38.51L181.155 35.8335L179.393 33.5174L175.414 36.5454ZM91.7565 122.794C89.7141 117.95 89.6918 109.574 91.9069 98.5472C94.0682 87.7882 98.162 75.4263 103.293 63.2664C108.419 51.1193 114.516 39.3268 120.603 29.7088C126.794 19.9256 132.637 12.9386 137.116 9.82329L131.405 1.61421C125.19 5.9375 118.466 14.3857 112.153 24.3613C105.735 34.5021 99.3914 46.7922 94.0801 59.3785C88.7742 71.9521 84.4337 84.9744 82.1028 96.5778C79.8258 107.913 79.2533 118.878 82.5419 126.679L91.7565 122.794ZM148.518 155.38C140.166 155.38 128.24 152.979 117.176 147.553C106.119 142.131 96.4659 133.965 91.7565 122.794L82.5419 126.679C88.4945 140.799 100.382 150.455 112.773 156.532C125.156 162.605 138.583 165.38 148.518 165.38V155.38ZM183.617 58.3629C195.043 79.2118 201.342 102.347 197.332 120.576C195.362 129.532 190.913 137.323 183.245 143.31C175.516 149.345 164.173 153.808 148.026 155.404L149.01 165.356C166.465 163.63 179.778 158.704 189.399 151.192C199.083 143.632 204.68 133.719 207.099 122.724C211.865 101.053 204.303 75.3006 192.386 53.5569L183.617 58.3629ZM186.047 51.3577L153.637 65.1209L157.546 74.3253L189.956 60.5622L186.047 51.3577ZM154.712 64.801L128.677 69.4501L130.435 79.2944L156.47 74.6453L154.712 64.801ZM131.838 78.8214L156.013 66.4237L151.45 57.5255L127.275 69.9232L131.838 78.8214ZM156.525 66.1217L171.712 55.8936L166.126 47.5993L150.939 57.8274L156.525 66.1217ZM173.517 53.711L180.012 38.51L170.816 34.5809L164.321 49.7819L173.517 53.711ZM133.843 10.7013C138.669 11.1058 144.741 13.8364 151.484 18.9772C158.137 24.05 165.025 31.1508 171.435 39.5734L179.393 33.5174C172.571 24.5535 165.069 16.7595 157.547 11.0248C150.114 5.35819 142.224 1.36871 134.678 0.73622L133.843 10.7013Z" fill="#C3E5FF"/>
<path d="M104.76 95.6016C108.685 102.007 119.327 111.595 130.485 98.701" stroke="black" stroke-width="6"/>
<path d="M158.379 95.5898C162.754 101.697 174.056 110.497 184.26 96.8364" stroke="black" stroke-width="6"/>
<path d="M161.169 132.024C161.169 138.272 152.318 132.024 143.503 132.024C134.687 132.024 129.245 138.272 129.245 132.024C129.245 125.776 136.392 120.711 145.207 120.711C154.023 120.711 161.169 125.776 161.169 132.024Z" fill="#3D3D3D"/>
<path d="M133.892 4.56776C126.144 9.28795 111.267 27.5034 106.617 42.3808L120.255 35.8719L136.062 44.5503L138.851 23.7841L153.729 51.369V27.5034L170.156 52.6767L177.284 35.8719L170.156 27.5034C155.898 12.2292 139.183 1.34441 133.892 4.56776Z" fill="url(#paint0_linear_4067_32803)"/>
<rect x="124.716" y="167.047" width="7.95402" height="2.78948" rx="1.39474" transform="rotate(112.885 124.716 167.047)" fill="#C4C4C4"/>
<rect width="7.95402" height="2.78948" rx="1.39474" transform="matrix(0.388876 0.92129 0.92129 -0.388876 159.087 164.254)" fill="#C4C4C4"/>
<rect x="129.119" y="174.012" width="6.48426" height="2.78948" rx="1.39474" transform="rotate(154.898 129.119 174.012)" fill="#C4C4C4"/>
<rect width="6.48426" height="2.78948" rx="1.39474" transform="matrix(0.905556 0.424226 0.424226 -0.905556 154.681 171.219)" fill="#C4C4C4"/>
<rect x="131.614" y="180.855" width="5.38596" height="2.78948" rx="1.39474" transform="rotate(-173.516 131.614 180.855)" fill="#C4C4C4"/>
<rect width="5.38596" height="2.78948" rx="1.39474" transform="matrix(0.993604 -0.112919 -0.112919 -0.993604 152.184 178.062)" fill="#C4C4C4"/>
<path d="M90.6728 93.7434C76.0899 92.8137 65.7534 130.627 88.8132 128.147" stroke="black" stroke-width="6"/>
<path d="M94.6875 122.88C92.4351 127.802 85.4902 128.335 81.3599 126.445C77.2297 124.554 74.6967 116.062 76.5563 110.482C76.5564 102.735 86.319 92.1955 90.5033 94.8301C94.6336 96.7204 96.9398 117.959 94.6875 122.88Z" fill="#C3E5FF"/>
<path d="M127.692 98.8713C127.171 101.36 120.991 104.102 116.302 103.122C111.614 102.143 104.856 95.1612 105.376 92.6723C105.896 90.1835 112.62 95.257 117.309 96.2367C121.997 97.2164 128.212 96.3825 127.692 98.8713Z" fill="#86CCFF"/>
<path d="M85.9002 104.233C88.3953 104.723 90.7226 114.89 90.0371 118.386C89.3515 121.883 83.6121 121.305 81.117 120.816C78.6218 120.327 83.2362 115.455 83.9217 111.959C84.6073 108.462 83.4051 103.744 85.9002 104.233Z" fill="#86CCFF"/>
<path d="M152.693 100.283C150.319 101.195 145.89 100.674 145.241 98.9848C144.592 97.2953 148.592 92.5036 150.965 91.592C153.339 90.6804 151.019 94.6556 151.668 96.3451C152.317 98.0345 155.067 99.3718 152.693 100.283Z" fill="#86CCFF"/>
<path d="M161.228 95.2134C161.293 97.7552 166.882 101.561 171.67 101.438C176.458 101.315 184.359 95.6589 184.293 93.1171C184.228 90.5753 176.703 94.3606 171.915 94.4836C167.127 94.6066 161.163 92.6716 161.228 95.2134Z" fill="#86CCFF"/>
<path d="M182.884 148.593C185.96 149.237 199.479 140.309 202.963 124.596C205.757 107.364 201.382 90.1249 198.307 89.4806C195.231 88.8362 196.574 108.861 194.491 118.803C192.408 128.744 179.809 147.948 182.884 148.593Z" fill="#86CCFF"/>
<path d="M153.851 90.321L148.77 97.239L152.531 100.354" stroke="#060606" stroke-width="2"/>
<path d="M85.6849 104.758C88.4984 110.911 91.7656 122.458 82.3255 119.423" stroke="black" stroke-width="6"/>
<path d="M113.718 59.5239C111.289 67.5522 108.943 74.0643 104.818 73.4444C98.0952 71.5847 102.389 64.8596 104.818 56.8313C107.247 48.8031 108.788 42.1651 113.666 43.6412C116.123 44.3847 116.146 51.4957 113.718 59.5239Z" fill="#DBF0FF"/>
<path d="M105.193 79.7465C104.514 81.9891 103.698 83.7593 100.687 83.0241C98.8895 82.5851 97.8442 79.9712 98.5227 77.7286C99.2012 75.486 100.263 74.6767 103.086 74.677C104.928 75.2342 105.871 77.5039 105.193 79.7465Z" fill="#DBF0FF"/>
<path d="M7.34489 39.4154C-0.850955 42.1024 -1.43317 50.4916 2.00511 52.6817C23.6007 52.1683 61.7136 54.127 64.9947 51.2049C72.1522 44.8305 60.8183 36.8545 56.3242 36.8324C52.9195 35.8857 46.3402 37.5891 41.1724 29.629C36.0046 21.6688 23.6998 21.6385 20.4103 28.7521L19.7774 31.3836C19.7652 33.8631 15.5407 36.7283 7.34489 39.4154Z" fill="#F3F4F6"/>
<path d="M237.32 69.7904C229.125 72.4774 228.542 80.8666 231.981 83.0567C253.576 82.5433 291.689 84.502 294.97 81.5799C302.128 75.2055 290.794 67.2295 286.3 67.2074C282.895 66.2607 276.316 67.9641 271.148 60.004C265.98 52.0438 253.675 52.0135 250.386 59.1271L249.753 61.7586C249.741 64.2381 245.516 67.1033 237.32 69.7904Z" fill="#F3F4F6"/>
<path d="M257.924 57.8021C249.729 60.4892 249.146 68.8783 252.585 71.0684C274.18 70.555 312.293 72.5137 315.574 69.5916C322.732 63.2172 311.398 55.2413 306.904 55.2191C303.499 54.2725 296.92 55.9758 291.752 48.0157C286.584 40.0556 274.279 40.0252 270.99 47.1389L270.357 49.7703C270.345 52.2498 266.12 55.115 257.924 57.8021Z" fill="#F3F4F6"/>
<defs>
<linearGradient id="paint0_linear_4067_32803" x1="141.951" y1="4" x2="141.951" y2="52.6767" gradientUnits="userSpaceOnUse">
<stop stop-color="#DF3C3C"/>
<stop offset="1" stop-color="#FFCCCC"/>
</linearGradient>
</defs>
</svg>
