<svg width="598" height="387" viewBox="0 0 598 387" fill="none" xmlns="http://www.w3.org/2000/svg">
<ellipse cx="259.832" cy="327.11" rx="223.711" ry="40.4893" fill="#E5E8EB" fill-opacity="0.47"/>
<path d="M174.192 151.461C130.304 161.559 73.9879 179.425 73.9883 216.71C73.9886 254.331 181.766 288.367 206.817 339.634" stroke="black" stroke-width="21"/>
<path d="M370.523 151.461C414.411 162.715 470.727 182.627 470.727 224.181C470.726 266.111 382.563 302.096 354.21 321.574" stroke="black" stroke-width="21"/>
<path d="M218.718 329.741C203.618 329.377 198.559 338.674 197.917 343.367C192.622 351.361 205.252 370.911 214.392 379.541L218.718 368.472L228.082 361.481L238.569 355.655H250.803C247.079 344.149 233.818 330.104 218.718 329.741Z" fill="#4B4B5A" stroke="black" stroke-width="2"/>
<path d="M370.737 328.438C372.56 313.442 361.684 307.363 356.018 306.199C346.752 300.031 321.712 314.76 310.351 322.895L325.332 354.442C339.707 352.023 368.913 343.434 370.737 328.438Z" fill="#4B4B5A" stroke="black" stroke-width="2"/>
<ellipse cx="232.179" cy="366.362" rx="21.9886" ry="9.03" transform="rotate(-35.7949 232.179 366.362)" fill="#C4C4C4"/>
<ellipse cx="240.95" cy="360.682" rx="3.78677" ry="2.33032" transform="rotate(-37.5332 240.95 360.682)" fill="#4B4B5A"/>
<ellipse cx="240.95" cy="360.682" rx="3.78677" ry="2.33032" transform="rotate(-37.5332 240.95 360.682)" fill="#4B4B5A"/>
<ellipse cx="226.387" cy="371.752" rx="3.78677" ry="2.33032" transform="rotate(-37.5332 226.387 371.752)" fill="#4B4B5A"/>
<rect x="297.699" y="337.383" width="20.3903" height="4.07806" rx="2.03903" transform="rotate(-27.4482 297.699 337.383)" fill="#4B4B5A"/>
<rect x="305.273" y="351.945" width="20.3903" height="4.07806" rx="2.03903" transform="rotate(-27.4482 305.273 351.945)" fill="#4B4B5A"/>
<path fill-rule="evenodd" clip-rule="evenodd" d="M252.361 5.23438C212.163 33.1982 143.768 181.407 163.809 228.945C183.85 276.484 244.787 295.942 279.16 295.942C405.484 283.452 397.25 179.728 353.375 99.6691L292.456 125.539L243.52 134.277L288.961 110.974L317.507 91.7489L329.715 63.1774C304.845 30.497 275.618 7.18358 252.361 5.23438Z" fill="#85FEC1"/>
<path d="M163.809 228.945L159.202 230.888H159.202L163.809 228.945ZM252.361 5.23438L252.779 0.251845L250.984 0.101434L249.506 1.12984L252.361 5.23438ZM279.16 295.942V300.942H279.406L279.652 300.918L279.16 295.942ZM353.375 99.6691L357.76 97.2661L355.585 93.2984L351.42 95.0669L353.375 99.6691ZM292.456 125.539L293.335 130.461L293.891 130.362L294.411 130.141L292.456 125.539ZM243.52 134.277L241.238 129.828L244.398 139.199L243.52 134.277ZM288.961 110.974L291.242 115.423L291.507 115.287L291.754 115.121L288.961 110.974ZM317.507 91.7489L320.3 95.8961L321.525 95.0713L322.105 93.7135L317.507 91.7489ZM329.715 63.1774L334.313 65.142L335.457 62.4656L333.694 60.1495L329.715 63.1774ZM168.417 227.003C164.029 216.596 164.249 199.715 168.44 178.852C172.577 158.258 180.38 134.731 190.102 111.693C199.819 88.6679 211.387 66.2835 222.973 47.9751C234.664 29.5016 246.035 15.7259 255.217 9.33891L249.506 1.12984C238.588 8.72478 226.336 23.9616 214.523 42.6276C202.606 61.4587 190.791 84.3408 180.889 107.805C170.993 131.257 162.942 155.444 158.636 176.883C154.383 198.053 153.569 217.525 159.202 230.888L168.417 227.003ZM279.16 290.942C262.765 290.942 239.688 286.265 218.312 275.781C196.943 265.302 177.815 249.298 168.417 227.003L159.202 230.888C169.844 256.131 191.206 273.626 213.909 284.76C236.604 295.89 261.182 300.942 279.16 300.942V290.942ZM348.99 102.072C370.683 141.654 383.078 186.291 375.209 222.07C371.309 239.8 362.441 255.378 347.142 267.322C331.781 279.315 309.595 287.908 278.668 290.966L279.652 300.918C311.887 297.731 336.043 288.674 353.296 275.205C370.61 261.686 380.627 243.987 384.975 224.218C393.602 184.998 379.943 137.743 357.76 97.2661L348.99 102.072ZM351.42 95.0669L290.502 120.936L294.411 130.141L355.329 104.271L351.42 95.0669ZM291.577 120.616L242.641 129.355L244.398 139.199L293.335 130.461L291.577 120.616ZM245.801 138.726L291.242 115.423L286.679 106.525L241.238 129.828L245.801 138.726ZM291.754 115.121L320.3 95.8961L314.714 87.6018L286.168 106.827L291.754 115.121ZM322.105 93.7135L334.313 65.142L325.117 61.2129L312.909 89.7844L322.105 93.7135ZM251.944 10.2169C262.212 11.0775 274.424 16.7637 287.402 26.6579C300.29 36.484 313.507 50.1359 325.736 66.2054L333.694 60.1495C321.053 43.5385 307.221 29.1935 293.464 18.7055C279.797 8.28553 265.767 1.34043 252.779 0.251845L251.944 10.2169Z" fill="#85FEC1"/>
<path d="M196.91 174.184C204.29 186.224 224.291 204.245 245.264 180.009" stroke="black" stroke-width="6"/>
<path d="M297.699 174.156C305.923 185.636 327.166 202.176 346.347 176.499" stroke="black" stroke-width="6"/>
<path d="M302.943 242.635C302.943 254.379 286.306 242.635 269.736 242.635C253.166 242.635 242.938 254.379 242.938 242.635C242.938 230.891 256.37 221.371 272.94 221.371C289.511 221.371 302.943 230.891 302.943 242.635Z" fill="#3D3D3D"/>
<path d="M251.673 3.06718C237.109 11.9394 209.145 46.178 200.406 74.142L226.04 61.9076L255.751 78.2199L260.995 39.187L288.958 91.0367V46.178L319.835 93.4947L333.235 61.9076L319.835 46.178C293.037 17.4679 261.618 -2.99155 251.673 3.06718Z" fill="url(#paint0_linear_739_2206)"/>
<rect x="234.422" y="308.469" width="14.9507" height="5.24322" rx="2.62161" transform="rotate(112.885 234.422 308.469)" fill="#C4C4C4"/>
<rect width="14.9507" height="5.24322" rx="2.62161" transform="matrix(0.388876 0.92129 0.92129 -0.388876 299.027 303.223)" fill="#C4C4C4"/>
<rect x="242.699" y="321.559" width="12.1881" height="5.24322" rx="2.62161" transform="rotate(154.898 242.699 321.559)" fill="#C4C4C4"/>
<rect width="12.1881" height="5.24322" rx="2.62161" transform="matrix(0.905556 0.424226 0.424226 -0.905556 290.746 316.312)" fill="#C4C4C4"/>
<rect x="247.391" y="334.422" width="10.1237" height="5.24322" rx="2.62161" transform="rotate(-173.516 247.391 334.422)" fill="#C4C4C4"/>
<rect width="10.1237" height="5.24322" rx="2.62161" transform="matrix(0.993604 -0.112919 -0.112919 -0.993604 286.055 329.18)" fill="#C4C4C4"/>
<path d="M170.435 170.688C143.024 168.94 123.595 240.015 166.939 235.354" stroke="black" stroke-width="6"/>
<path d="M177.978 225.448C173.744 234.698 160.69 235.701 152.927 232.148C145.164 228.595 140.403 212.632 143.898 202.145C143.898 187.581 162.248 167.772 170.113 172.724C177.877 176.277 182.212 216.198 177.978 225.448Z" fill="#85FEC1"/>
<path d="M240.017 180.327C239.039 185.005 227.422 190.159 218.609 188.317C209.797 186.476 197.094 173.353 198.072 168.675C199.049 163.997 211.688 173.533 220.501 175.375C229.313 177.216 240.995 175.649 240.017 180.327Z" fill="#73F0B1"/>
<path d="M161.463 190.398C166.153 191.318 170.527 210.429 169.239 217.001C167.95 223.573 157.162 222.487 152.472 221.568C147.782 220.648 156.455 211.491 157.744 204.919C159.033 198.347 156.773 189.479 161.463 190.398Z" fill="#73F0B1"/>
<path d="M287.009 182.977C282.548 184.691 274.222 183.712 273.003 180.537C271.783 177.361 279.301 168.354 283.762 166.641C288.224 164.927 283.863 172.399 285.083 175.575C286.302 178.75 291.471 181.264 287.009 182.977Z" fill="#73F0B1"/>
<path d="M303.053 173.444C303.175 178.221 313.68 185.375 322.68 185.144C331.68 184.913 346.53 174.281 346.407 169.504C346.284 164.726 332.14 171.841 323.14 172.072C314.141 172.303 302.93 168.666 303.053 173.444Z" fill="#73F0B1"/>
<path d="M343.757 273.785C349.538 274.996 374.949 258.215 381.497 228.68C386.749 196.289 378.526 163.886 372.745 162.675C366.964 161.464 369.489 199.104 365.574 217.79C361.659 236.476 337.977 272.573 343.757 273.785Z" fill="#73F0B1"/>
<path d="M289.189 164.254L279.638 177.257L286.708 183.112" stroke="#060606" stroke-width="6"/>
<path d="M161.058 191.387C166.347 202.952 172.488 224.656 154.744 218.951" stroke="black" stroke-width="6"/>
<path d="M213.751 106.362C209.185 121.452 204.777 133.692 197.022 132.527C184.386 129.031 192.457 116.391 197.022 101.3C201.588 86.2102 204.486 73.7332 213.653 76.5077C218.272 77.9052 218.316 91.2713 213.751 106.362Z" fill="#D6FFEA"/>
<path d="M197.728 144.375C196.453 148.59 194.918 151.917 189.26 150.535C185.88 149.71 183.916 144.797 185.191 140.582C186.466 136.366 188.463 134.845 193.769 134.846C197.231 135.893 199.003 140.159 197.728 144.375Z" fill="#D6FFEA"/>
<path d="M13.8071 68.5695C-1.59818 73.6202 -2.69254 89.3889 3.7702 93.5054C44.3621 92.5404 116.001 96.2221 122.168 90.7295C135.621 78.748 114.318 63.7561 105.871 63.7144C99.4708 61.9351 87.1042 65.1367 77.3905 50.1746C67.6769 35.2124 44.5485 35.1554 38.3653 48.5265L37.1757 53.4726C37.1528 58.1332 29.2123 63.5187 13.8071 68.5695Z" fill="#F3F4F6"/>
<path d="M446.08 125.663C430.675 130.714 429.581 146.483 436.044 150.599C476.636 149.634 548.274 153.316 554.441 147.823C567.895 135.842 546.591 120.85 538.144 120.808C531.744 119.029 519.378 122.23 509.664 107.268C499.95 92.3062 476.822 92.2492 470.639 105.62L469.449 110.566C469.426 115.227 461.486 120.612 446.08 125.663Z" fill="#F3F4F6"/>
<path d="M484.807 103.128C469.402 108.179 468.307 123.947 474.77 128.064C515.362 127.099 587.001 130.781 593.168 125.288C606.621 113.307 585.318 98.3147 576.871 98.273C570.471 96.4936 558.104 99.6953 548.391 84.7332C538.677 69.771 515.548 69.714 509.365 83.085L508.176 88.0312C508.153 92.6918 500.212 98.0773 484.807 103.128Z" fill="#F3F4F6"/>
<defs>
<linearGradient id="paint0_linear_739_2206" x1="266.82" y1="2" x2="266.82" y2="93.4947" gradientUnits="userSpaceOnUse">
<stop stop-color="#DF3C3C"/>
<stop offset="1" stop-color="#FFCCCC"/>
</linearGradient>
</defs>
</svg>
