<svg width="19" height="19" viewBox="0 0 19 19" fill="none" xmlns="http://www.w3.org/2000/svg">
<path d="M15.4789 2.37245C15.2883 2.38635 15.1012 2.43105 14.9249 2.50485H14.9225C14.7533 2.57195 13.9488 2.91045 12.7257 3.42345L8.34257 5.26935C5.19747 6.59345 2.10582 7.89735 2.10582 7.89735L2.14263 7.88305C2.14263 7.88305 1.92947 7.95315 1.70682 8.10575C1.56926 8.19325 1.45089 8.30775 1.35888 8.44235C1.24963 8.60265 1.16175 8.84795 1.19441 9.10143C1.24785 9.53012 1.52572 9.78721 1.72522 9.92912C1.9271 10.0728 2.11947 10.1399 2.11947 10.1399H2.12422L5.0235 11.1166C5.15354 11.534 5.907 14.0111 6.0881 14.5817C6.19497 14.9226 6.29888 15.1357 6.42891 15.2984C6.49185 15.3815 6.56547 15.451 6.65394 15.5068C6.69993 15.5336 6.74897 15.5547 6.8 15.5697L6.77032 15.5626C6.77922 15.565 6.78635 15.5721 6.79288 15.5745C6.81663 15.581 6.83266 15.5834 6.86294 15.5881C7.32191 15.7271 7.69063 15.4421 7.69063 15.4421L7.71141 15.4255L9.42319 13.8669L12.2922 16.0679L12.3575 16.0958C12.9555 16.3582 13.5611 16.2122 13.8811 15.9545C14.2035 15.695 14.3288 15.3631 14.3288 15.3631L14.3496 15.3097L16.5666 3.95185C16.6296 3.67155 16.6456 3.40915 16.5761 3.15445C16.5045 2.89665 16.3391 2.67495 16.1124 2.53275C15.9221 2.41705 15.7014 2.36125 15.4789 2.37245ZM15.4189 3.58965C15.4165 3.62705 15.4237 3.62295 15.407 3.69475V3.70125L13.2108 14.941C13.2013 14.957 13.1852 14.992 13.1413 15.0271C13.095 15.0639 13.0582 15.087 12.8652 15.0104L9.3561 12.3201L7.23641 14.2522L7.68172 11.4081L13.415 6.06445C13.6513 5.84475 13.5724 5.79845 13.5724 5.79845C13.589 5.52885 13.2155 5.71945 13.2155 5.71945L5.98597 10.1981L5.9836 10.1862L2.51847 9.01949V9.01712L2.50957 9.01534C2.51564 9.01332 2.52159 9.01094 2.52738 9.00821L2.54638 8.99875L2.56478 8.99215C2.56478 8.99215 5.65882 7.68835 8.80391 6.36425C10.3786 5.70105 11.9651 5.03305 13.1852 4.51765C14.4054 4.00525 15.3073 3.62945 15.3584 3.60925C15.407 3.59025 15.3839 3.59025 15.4189 3.59025V3.58965Z" fill="white"/>
</svg>
