
<svg version="1.0" xmlns="http://www.w3.org/2000/svg"
 width="39.000000pt" height="29.000000pt" viewBox="0 0 39.000000 29.000000"
 preserveAspectRatio="xMidYMid meet">

<g transform="translate(0.000000,29.000000) scale(0.100000,-0.100000)"
fill="#000000" stroke="none">
<path d="M300 257 c0 -27 0 -27 -75 -27 -68 0 -75 -2 -75 -20 0 -18 7 -20 75
-20 l75 0 0 -29 0 -29 35 35 c19 19 35 38 35 42 0 4 -16 22 -35 41 l-35 34 0
-27z"/>
<path d="M43 122 c-18 -19 -33 -37 -33 -41 0 -4 16 -22 35 -41 l35 -34 0 27
c0 27 0 27 75 27 68 0 75 2 75 20 0 18 -7 20 -74 20 -74 0 -75 0 -78 28 l-3
27 -32 -33z"/>
</g>
</svg>