<svg width="214" height="105" viewBox="0 0 214 105" fill="none" xmlns="http://www.w3.org/2000/svg">
<rect x="0.556275" y="0.556275" width="212.497" height="103.467" rx="6.11902" fill="#15202B" stroke="#15202B" stroke-width="1.11255"/>
<circle cx="27.8132" cy="25.5887" r="14.4631" fill="white"/>
<rect x="46.7266" y="14.4633" width="57.8526" height="8.90039" fill="white"/>
<rect x="46.7266" y="27.8138" width="51.1773" height="8.90039" fill="#D9D9D9"/>
<rect x="13.3501" y="51.1774" width="184.683" height="8.90039" fill="white"/>
<rect x="13.3501" y="64.526" width="122.38" height="8.90039" fill="white"/>
<rect x="13.3501" y="82.3312" width="60.0777" height="8.90039" fill="white"/>
<g clip-path="url(#clip0_54_17)">
<path d="M197.769 17.0127C197.149 17.2871 196.484 17.4726 195.785 17.5564C196.506 17.1245 197.046 16.4449 197.304 15.6443C196.626 16.047 195.884 16.3305 195.11 16.4824C194.589 15.9267 193.9 15.5585 193.149 15.4347C192.398 15.311 191.627 15.4387 190.956 15.798C190.285 16.1573 189.751 16.7282 189.437 17.4219C189.124 18.1156 189.048 18.8935 189.222 19.6346C187.848 19.5656 186.504 19.2085 185.277 18.5865C184.05 17.9645 182.968 17.0914 182.1 16.024C181.804 16.5358 181.633 17.1291 181.633 17.7611C181.633 18.33 181.773 18.8901 182.041 19.3919C182.309 19.8936 182.697 20.3214 183.17 20.6374C182.621 20.6199 182.085 20.4717 181.605 20.205V20.2495C181.605 21.0474 181.881 21.8207 182.386 22.4382C182.891 23.0558 183.595 23.4795 184.377 23.6376C183.868 23.7753 183.334 23.7956 182.816 23.6969C183.037 24.3834 183.467 24.9838 184.045 25.4139C184.624 25.844 185.323 26.0823 186.044 26.0955C184.82 27.0564 183.309 27.5775 181.753 27.5752C181.477 27.5753 181.201 27.5592 180.928 27.527C182.507 28.5425 184.346 29.0815 186.223 29.0794C192.58 29.0794 196.055 23.8148 196.055 19.2489C196.055 19.1006 196.051 18.9508 196.044 18.8024C196.72 18.3136 197.304 17.7083 197.767 17.0149L197.769 17.0127V17.0127Z" fill="white"/>
</g>
<defs>
<clipPath id="clip0_54_17">
<rect width="17.8008" height="17.8008" fill="white" transform="translate(180.233 13.3486)"/>
</clipPath>
</defs>
</svg>
