<svg width="214" height="105" viewBox="0 0 214 105" fill="none" xmlns="http://www.w3.org/2000/svg">
<rect x="0.556275" y="0.556275" width="212.497" height="103.467" rx="6.11902" fill="white" stroke="white" stroke-width="1.11255"/>
<circle cx="27.8137" cy="25.5887" r="14.4631" fill="#D9D9D9"/>
<rect x="46.7271" y="14.4633" width="57.8526" height="8.90039" fill="#D9D9D9"/>
<rect x="46.7271" y="27.8138" width="51.1773" height="8.90039" fill="#D9D9D9"/>
<rect x="13.3506" y="51.1774" width="184.683" height="8.90039" fill="#D9D9D9"/>
<rect x="13.3506" y="64.526" width="122.38" height="8.90039" fill="#D9D9D9"/>
<rect x="13.3506" y="82.3312" width="60.0777" height="8.90039" fill="#D9D9D9"/>
<g clip-path="url(#clip0_63_32)">
<path d="M197.769 17.0128C197.15 17.2872 196.485 17.4726 195.785 17.5564C196.507 17.1246 197.047 16.445 197.304 15.6443C196.626 16.0471 195.884 16.3305 195.11 16.4824C194.59 15.9268 193.901 15.5585 193.149 15.4348C192.398 15.311 191.627 15.4387 190.956 15.798C190.285 16.1574 189.751 16.7282 189.438 17.422C189.124 18.1157 189.049 18.8935 189.223 19.6347C187.849 19.5657 186.505 19.2086 185.278 18.5866C184.051 17.9646 182.969 17.0915 182.101 16.0241C181.804 16.5358 181.634 17.1292 181.634 17.7611C181.633 18.33 181.773 18.8902 182.041 19.3919C182.31 19.8937 182.697 20.3215 183.17 20.6374C182.622 20.62 182.085 20.4717 181.605 20.205V20.2495C181.605 21.0474 181.881 21.8207 182.387 22.4383C182.892 23.0558 183.595 23.4796 184.377 23.6376C183.868 23.7754 183.335 23.7957 182.817 23.697C183.037 24.3835 183.467 24.9838 184.046 25.4139C184.625 25.844 185.323 26.0824 186.044 26.0956C184.821 27.0564 183.309 27.5776 181.753 27.5753C181.477 27.5754 181.202 27.5593 180.928 27.5271C182.508 28.5426 184.346 29.0816 186.224 29.0795C192.58 29.0795 196.055 23.8149 196.055 19.249C196.055 19.1006 196.051 18.9508 196.045 18.8025C196.721 18.3137 197.304 17.7084 197.768 17.015L197.769 17.0128V17.0128Z" fill="#4B4B5A"/>
</g>
<defs>
<clipPath id="clip0_63_32">
<rect width="17.8008" height="17.8008" fill="white" transform="translate(180.233 13.3486)"/>
</clipPath>
</defs>
</svg>
