<svg width="28" height="25" viewBox="0 0 28 25" fill="none" xmlns="http://www.w3.org/2000/svg">
<path d="M13.0007 6.36764C13.0007 3.61764 15.3132 1.33014 18.0632 1.36764C19.0262 1.37876 19.9656 1.66779 20.7683 2.19999C21.571 2.73218 22.203 3.4849 22.5882 4.36764H27.0007L22.9632 8.40514C22.7026 12.4609 20.9073 16.2651 17.9422 19.0445C14.9771 21.8238 11.0648 23.3696 7.00068 23.3676C3.00068 23.3676 2.00068 21.8676 2.00068 21.8676C2.00068 21.8676 6.00068 20.3676 8.00068 17.3676C8.00068 17.3676 0.000675142 13.3676 2.00068 2.36764C2.00068 2.36764 7.00068 7.36764 13.0007 8.36764V6.36764Z" stroke="#0D99FF" stroke-width="2" stroke-linecap="round" stroke-linejoin="round"/>
</svg>
