<svg width="68" height="68" viewBox="0 0 68 68" fill="none" xmlns="http://www.w3.org/2000/svg">
<rect width="68" height="68" rx="34" fill="black" fill-opacity="0.4"/>
<path d="M43.9141 28.332V25.4987H41.0807V22.6654H43.9141V19.832H46.7474V22.6654H49.5807V25.4987H46.7474V28.332H43.9141ZM21.2474 48.1654C20.4682 48.1654 19.8015 47.8882 19.2471 47.3338C18.6917 46.7784 18.4141 46.1112 18.4141 45.332V28.332C18.4141 27.5529 18.6917 26.8861 19.2471 26.3317C19.8015 25.7764 20.4682 25.4987 21.2474 25.4987H25.7099L28.3307 22.6654H36.8307V25.4987H29.5703L26.9849 28.332H21.2474V45.332H43.9141V32.582H46.7474V45.332C46.7474 46.1112 46.4702 46.7784 45.9158 47.3338C45.3605 47.8882 44.6932 48.1654 43.9141 48.1654H21.2474ZM32.5807 43.207C34.3516 43.207 35.857 42.5875 37.0971 41.3484C38.3362 40.1083 38.9557 38.6029 38.9557 36.832C38.9557 35.0612 38.3362 33.5558 37.0971 32.3157C35.857 31.0766 34.3516 30.457 32.5807 30.457C30.8099 30.457 29.3045 31.0766 28.0644 32.3157C26.8253 33.5558 26.2057 35.0612 26.2057 36.832C26.2057 38.6029 26.8253 40.1083 28.0644 41.3484C29.3045 42.5875 30.8099 43.207 32.5807 43.207ZM32.5807 40.3737C31.5891 40.3737 30.7509 40.0313 30.0661 39.3466C29.3814 38.6619 29.0391 37.8237 29.0391 36.832C29.0391 35.8404 29.3814 35.0022 30.0661 34.3174C30.7509 33.6327 31.5891 33.2904 32.5807 33.2904C33.5724 33.2904 34.4106 33.6327 35.0953 34.3174C35.78 35.0022 36.1224 35.8404 36.1224 36.832C36.1224 37.8237 35.78 38.6619 35.0953 39.3466C34.4106 40.0313 33.5724 40.3737 32.5807 40.3737Z" fill="white"/>
</svg>
