<svg width="24" height="24" viewBox="0 0 24 24" fill="none" xmlns="http://www.w3.org/2000/svg">
<path d="M4.5 22.5H19.5V18.75C19.4984 17.3581 18.9448 16.0237 17.9606 15.0394C16.9763 14.0552 15.6419 13.5016 14.25 13.5H9.75C8.3581 13.5016 7.02367 14.0552 6.03944 15.0394C5.05522 16.0237 4.50159 17.3581 4.5 18.75V22.5Z" fill="#009987"/>
<path d="M6.75 6.75C6.75 7.78835 7.05791 8.80339 7.63478 9.66674C8.21166 10.5301 9.0316 11.203 9.99091 11.6004C10.9502 11.9977 12.0058 12.1017 13.0242 11.8991C14.0426 11.6966 14.9781 11.1965 15.7123 10.4623C16.4465 9.72808 16.9466 8.79262 17.1491 7.77422C17.3517 6.75582 17.2477 5.70022 16.8504 4.74091C16.453 3.7816 15.7801 2.96166 14.9167 2.38478C14.0534 1.80791 13.0384 1.5 12 1.5C10.6076 1.5 9.27226 2.05312 8.28769 3.03769C7.30312 4.02226 6.75 5.35761 6.75 6.75Z" fill="#009987"/>
</svg>
