<svg width="114" height="32" viewBox="0 0 114 32" fill="none" xmlns="http://www.w3.org/2000/svg">
<path d="M0 5C0 2.23858 2.23858 0 5 0H31V32H5C2.23858 32 0 29.7614 0 27V5Z" fill="#0C7CCD" fill-opacity="0.29"/>
<path d="M114 27C114 29.7614 111.761 32 109 32L31 32V0L109 0C111.761 0 114 2.23858 114 5V27Z" fill="#264697"/>
<path d="M39.7921 19L37.6756 11.7273H39.6181L40.7154 16.4929H40.7757L42.0293 11.7273H43.6131L44.8667 16.5036H44.927L46.0279 11.7273H47.9668L45.8539 19H44.16L42.8496 14.5895H42.7928L41.4824 19H39.7921ZM49.6252 19.0923C49.2772 19.0923 48.9682 19.0343 48.6983 18.9183C48.4308 18.8 48.2189 18.6224 48.0627 18.3857C47.9088 18.1465 47.8319 17.8471 47.8319 17.4872C47.8319 17.1842 47.8851 16.9285 47.9917 16.7202C48.0982 16.5118 48.245 16.3426 48.432 16.2124C48.619 16.0821 48.8345 15.9839 49.0783 15.9176C49.3221 15.849 49.5826 15.8028 49.8596 15.7791C50.1697 15.7507 50.4194 15.7211 50.6088 15.6903C50.7982 15.6572 50.9355 15.611 51.0208 15.5518C51.1084 15.4903 51.1522 15.4039 51.1522 15.2926V15.2749C51.1522 15.0926 51.0894 14.9517 50.964 14.8523C50.8385 14.7528 50.6692 14.7031 50.4561 14.7031C50.2265 14.7031 50.0418 14.7528 49.9022 14.8523C49.7625 14.9517 49.6737 15.089 49.6358 15.2642L48.0343 15.2074C48.0816 14.8759 48.2035 14.58 48.4 14.3196C48.5989 14.0568 48.8712 13.8509 49.2168 13.7017C49.5648 13.5502 49.9827 13.4744 50.4703 13.4744C50.8184 13.4744 51.1391 13.5159 51.4327 13.5987C51.7263 13.6792 51.9819 13.7976 52.1998 13.9538C52.4176 14.1077 52.5856 14.2971 52.704 14.522C52.8248 14.7469 52.8851 15.0038 52.8851 15.2926V19H51.2516V18.2401H51.209C51.1119 18.4247 50.9876 18.581 50.8361 18.7088C50.687 18.8366 50.5106 18.9325 50.307 18.9964C50.1058 19.0604 49.8785 19.0923 49.6252 19.0923ZM50.1614 17.956C50.3484 17.956 50.5165 17.9181 50.6657 17.8423C50.8172 17.7666 50.9379 17.6624 51.0279 17.5298C51.1178 17.3949 51.1628 17.2386 51.1628 17.0611V16.5426C51.1131 16.5687 51.0527 16.5923 50.9817 16.6136C50.9131 16.6349 50.8373 16.6551 50.7544 16.674C50.6716 16.6929 50.5864 16.7095 50.4988 16.7237C50.4112 16.7379 50.3271 16.7509 50.2466 16.7628C50.0833 16.7888 49.9436 16.8291 49.8276 16.8835C49.714 16.938 49.6264 17.009 49.5648 17.0966C49.5056 17.1818 49.476 17.2836 49.476 17.402C49.476 17.5819 49.54 17.7192 49.6678 17.8139C49.798 17.9086 49.9625 17.956 50.1614 17.956ZM55.6834 11.7273V19H53.9469V11.7273H55.6834ZM58.5252 11.7273V19H56.7887V11.7273H58.5252ZM62.1802 19.103C61.6097 19.103 61.1172 18.9905 60.7029 18.7656C60.291 18.5384 59.9738 18.2152 59.7512 17.7962C59.5311 17.3748 59.421 16.8741 59.421 16.294C59.421 15.7306 59.5323 15.2382 59.7548 14.8168C59.9773 14.393 60.291 14.0639 60.6958 13.8295C61.1007 13.5928 61.5777 13.4744 62.127 13.4744C62.5152 13.4744 62.8703 13.5348 63.1923 13.6555C63.5143 13.7763 63.7924 13.955 64.0268 14.1918C64.2612 14.4285 64.4435 14.7209 64.5737 15.0689C64.7039 15.4145 64.769 15.8111 64.769 16.2585V16.6918H60.0282V15.6832H63.1532C63.1509 15.4986 63.1071 15.334 63.0218 15.1896C62.9366 15.0452 62.8194 14.9328 62.6703 14.8523C62.5235 14.7694 62.3542 14.728 62.1625 14.728C61.9683 14.728 61.7943 14.7718 61.6404 14.8594C61.4866 14.9446 61.3646 15.0618 61.2747 15.2109C61.1847 15.3577 61.1374 15.5246 61.1326 15.7116V16.7379C61.1326 16.9605 61.1764 17.1558 61.264 17.3239C61.3516 17.4896 61.4759 17.6186 61.6369 17.7109C61.7979 17.8033 61.9896 17.8494 62.2122 17.8494C62.3661 17.8494 62.5057 17.8281 62.6312 17.7855C62.7567 17.7429 62.8644 17.6802 62.9544 17.5973C63.0443 17.5144 63.1118 17.4126 63.1568 17.2919L64.7512 17.3381C64.685 17.6955 64.5394 18.0069 64.3145 18.272C64.0919 18.5348 63.7995 18.7396 63.4373 18.8864C63.0751 19.0308 62.6561 19.103 62.1802 19.103ZM68.7347 13.5455V14.8239H65.2937V13.5455H68.7347ZM66.0146 12.2386H67.7511V17.2848C67.7511 17.3913 67.7676 17.4777 67.8008 17.544C67.8363 17.608 67.8872 17.6541 67.9535 17.6825C68.0198 17.7086 68.0991 17.7216 68.1914 17.7216C68.2577 17.7216 68.3275 17.7157 68.4009 17.7038C68.4767 17.6896 68.5335 17.6778 68.5714 17.6683L68.8342 18.9219C68.7513 18.9455 68.6341 18.9751 68.4826 19.0107C68.3335 19.0462 68.1547 19.0687 67.9464 19.0781C67.5392 19.0971 67.19 19.0497 66.8988 18.9361C66.61 18.8201 66.3886 18.6402 66.2347 18.3963C66.0832 18.1525 66.0098 17.8459 66.0146 17.4766V12.2386ZM76.2223 14.3622H74.4467C74.4231 14.1799 74.3745 14.0154 74.3011 13.8686C74.2277 13.7218 74.1307 13.5964 74.0099 13.4922C73.8892 13.388 73.746 13.3087 73.5803 13.2543C73.4169 13.1974 73.2358 13.169 73.0369 13.169C72.6842 13.169 72.38 13.2554 72.1243 13.4283C71.871 13.6011 71.6757 13.8509 71.5384 14.1776C71.4034 14.5043 71.3359 14.8996 71.3359 15.3636C71.3359 15.8466 71.4046 16.2514 71.5419 16.5781C71.6816 16.9025 71.8769 17.1475 72.1278 17.3132C72.3812 17.4766 72.6806 17.5582 73.0263 17.5582C73.2204 17.5582 73.3968 17.5334 73.5554 17.4837C73.7164 17.4339 73.8572 17.3617 73.978 17.267C74.1011 17.17 74.2017 17.0528 74.2798 16.9155C74.3603 16.7758 74.416 16.6184 74.4467 16.4432L76.2223 16.4538C76.1915 16.7758 76.098 17.093 75.9418 17.4055C75.7879 17.718 75.576 18.0033 75.3061 18.2614C75.0362 18.517 74.7071 18.7206 74.3189 18.8722C73.933 19.0237 73.4903 19.0994 72.9908 19.0994C72.3326 19.0994 71.7431 18.955 71.2223 18.6662C70.7038 18.375 70.2943 17.9512 69.9936 17.3949C69.6929 16.8385 69.5426 16.1615 69.5426 15.3636C69.5426 14.5634 69.6953 13.8852 70.0007 13.3288C70.3061 12.7725 70.7192 12.3499 71.2401 12.0611C71.7609 11.7723 72.3445 11.6278 72.9908 11.6278C73.4311 11.6278 73.8383 11.6894 74.2124 11.8125C74.5864 11.9332 74.9155 12.1108 75.1996 12.3452C75.4837 12.5772 75.7145 12.8625 75.892 13.201C76.0696 13.5395 76.1797 13.9266 76.2223 14.3622ZM79.7743 19.103C79.2014 19.103 78.709 18.9858 78.2971 18.7514C77.8875 18.5147 77.5714 18.1856 77.3489 17.7642C77.1287 17.3404 77.0186 16.8492 77.0186 16.2905C77.0186 15.7294 77.1287 15.2382 77.3489 14.8168C77.5714 14.393 77.8875 14.0639 78.2971 13.8295C78.709 13.5928 79.2014 13.4744 79.7743 13.4744C80.3472 13.4744 80.8385 13.5928 81.248 13.8295C81.66 14.0639 81.976 14.393 82.1962 14.8168C82.4187 15.2382 82.53 15.7294 82.53 16.2905C82.53 16.8492 82.4187 17.3404 82.1962 17.7642C81.976 18.1856 81.66 18.5147 81.248 18.7514C80.8385 18.9858 80.3472 19.103 79.7743 19.103ZM79.785 17.7926C79.9933 17.7926 80.1697 17.7287 80.3141 17.6009C80.4585 17.473 80.5686 17.2955 80.6444 17.0682C80.7225 16.8409 80.7615 16.5781 80.7615 16.2798C80.7615 15.9768 80.7225 15.7116 80.6444 15.4844C80.5686 15.2571 80.4585 15.0795 80.3141 14.9517C80.1697 14.8239 79.9933 14.7599 79.785 14.7599C79.5695 14.7599 79.3873 14.8239 79.2381 14.9517C79.0913 15.0795 78.9789 15.2571 78.9007 15.4844C78.825 15.7116 78.7871 15.9768 78.7871 16.2798C78.7871 16.5781 78.825 16.8409 78.9007 17.0682C78.9789 17.2955 79.0913 17.473 79.2381 17.6009C79.3873 17.7287 79.5695 17.7926 79.785 17.7926ZM85.1561 15.8892V19H83.4196V13.5455H85.0708V14.5469H85.1312C85.252 14.2131 85.4579 13.9515 85.7491 13.7621C86.0403 13.5703 86.3871 13.4744 86.7896 13.4744C87.1731 13.4744 87.5057 13.5608 87.7875 13.7337C88.0716 13.9041 88.2917 14.1432 88.448 14.451C88.6066 14.7564 88.6847 15.1139 88.6824 15.5234V19H86.9458V15.8643C86.9482 15.5613 86.8713 15.3246 86.715 15.1541C86.5611 14.9837 86.3469 14.8984 86.0723 14.8984C85.89 14.8984 85.729 14.9387 85.5893 15.0192C85.452 15.0973 85.3455 15.2098 85.2697 15.3565C85.1963 15.5033 85.1584 15.6809 85.1561 15.8892ZM91.494 15.8892V19H89.7575V13.5455H91.4087V14.5469H91.4691C91.5898 14.2131 91.7958 13.9515 92.087 13.7621C92.3782 13.5703 92.725 13.4744 93.1275 13.4744C93.511 13.4744 93.8436 13.5608 94.1254 13.7337C94.4094 13.9041 94.6296 14.1432 94.7859 14.451C94.9445 14.7564 95.0226 15.1139 95.0202 15.5234V19H93.2837V15.8643C93.2861 15.5613 93.2092 15.3246 93.0529 15.1541C92.899 14.9837 92.6848 14.8984 92.4102 14.8984C92.2279 14.8984 92.0669 14.9387 91.9272 15.0192C91.7899 15.0973 91.6834 15.2098 91.6076 15.3565C91.5342 15.5033 91.4963 15.6809 91.494 15.8892ZM98.6451 19.103C98.0745 19.103 97.5821 18.9905 97.1678 18.7656C96.7559 18.5384 96.4386 18.2152 96.2161 17.7962C95.9959 17.3748 95.8858 16.8741 95.8858 16.294C95.8858 15.7306 95.9971 15.2382 96.2196 14.8168C96.4422 14.393 96.7559 14.0639 97.1607 13.8295C97.5655 13.5928 98.0426 13.4744 98.5918 13.4744C98.9801 13.4744 99.3352 13.5348 99.6571 13.6555C99.9791 13.7763 100.257 13.955 100.492 14.1918C100.726 14.4285 100.908 14.7209 101.039 15.0689C101.169 15.4145 101.234 15.8111 101.234 16.2585V16.6918H96.4931V15.6832H99.6181C99.6157 15.4986 99.5719 15.334 99.4867 15.1896C99.4015 15.0452 99.2843 14.9328 99.1351 14.8523C98.9883 14.7694 98.8191 14.728 98.6273 14.728C98.4332 14.728 98.2592 14.7718 98.1053 14.8594C97.9514 14.9446 97.8295 15.0618 97.7395 15.2109C97.6496 15.3577 97.6022 15.5246 97.5975 15.7116V16.7379C97.5975 16.9605 97.6413 17.1558 97.7289 17.3239C97.8165 17.4896 97.9408 17.6186 98.1017 17.7109C98.2627 17.8033 98.4545 17.8494 98.677 17.8494C98.8309 17.8494 98.9706 17.8281 99.0961 17.7855C99.2215 17.7429 99.3292 17.6802 99.4192 17.5973C99.5092 17.5144 99.5766 17.4126 99.6216 17.2919L101.216 17.3381C101.15 17.6955 101.004 18.0069 100.779 18.272C100.557 18.5348 100.264 18.7396 99.9022 18.8864C99.54 19.0308 99.1209 19.103 98.6451 19.103ZM104.667 19.103C104.092 19.103 103.598 18.9846 103.186 18.7479C102.777 18.5111 102.462 18.1821 102.241 17.7607C102.021 17.3369 101.911 16.8468 101.911 16.2905C101.911 15.7318 102.021 15.2417 102.241 14.8203C102.464 14.3965 102.78 14.0663 103.19 13.8295C103.602 13.5928 104.093 13.4744 104.663 13.4744C105.168 13.4744 105.607 13.5656 105.981 13.7479C106.357 13.9302 106.651 14.1882 106.862 14.522C107.075 14.8535 107.187 15.2429 107.199 15.6903H105.576C105.543 15.411 105.448 15.192 105.292 15.0334C105.138 14.8748 104.937 14.7955 104.688 14.7955C104.487 14.7955 104.311 14.8523 104.159 14.9659C104.008 15.0772 103.889 15.2429 103.804 15.4631C103.721 15.6809 103.68 15.9508 103.68 16.2727C103.68 16.5947 103.721 16.867 103.804 17.0895C103.889 17.3097 104.008 17.4766 104.159 17.5902C104.311 17.7015 104.487 17.7571 104.688 17.7571C104.849 17.7571 104.991 17.7228 105.114 17.6541C105.24 17.5855 105.343 17.4848 105.423 17.3523C105.504 17.2173 105.555 17.054 105.576 16.8622H107.199C107.182 17.312 107.07 17.705 106.862 18.0412C106.656 18.3774 106.366 18.639 105.991 18.826C105.62 19.0107 105.178 19.103 104.667 19.103ZM111.166 13.5455V14.8239H107.725V13.5455H111.166ZM108.446 12.2386H110.183V17.2848C110.183 17.3913 110.199 17.4777 110.232 17.544C110.268 17.608 110.319 17.6541 110.385 17.6825C110.451 17.7086 110.531 17.7216 110.623 17.7216C110.689 17.7216 110.759 17.7157 110.833 17.7038C110.908 17.6896 110.965 17.6778 111.003 17.6683L111.266 18.9219C111.183 18.9455 111.066 18.9751 110.914 19.0107C110.765 19.0462 110.586 19.0687 110.378 19.0781C109.971 19.0971 109.622 19.0497 109.33 18.9361C109.042 18.8201 108.82 18.6402 108.666 18.3963C108.515 18.1525 108.441 17.8459 108.446 17.4766V12.2386Z" fill="white"/>
<path d="M15.5 28C21.8513 28 27 22.8513 27 16.5C27 10.1487 21.8513 5 15.5 5C9.14873 5 4 10.1487 4 16.5C4 22.8513 9.14873 28 15.5 28Z" fill="#3396FF" stroke="#66B1FF"/>
<path d="M11.0337 13.558C13.5003 11.1525 17.4997 11.1525 19.9663 13.558L20.2632 13.8475C20.3865 13.9677 20.3865 14.1627 20.2632 14.283L19.2477 15.2733C19.186 15.3334 19.086 15.3334 19.0244 15.2733L18.6158 14.8749C16.895 13.1968 14.105 13.1968 12.3842 14.8749L11.9466 15.3015C11.885 15.3617 11.785 15.3617 11.7233 15.3015L10.7078 14.3112C10.5844 14.191 10.5844 13.996 10.7078 13.8757L11.0337 13.558ZM22.0666 15.606L22.9704 16.4874C23.0937 16.6076 23.0937 16.8027 22.9704 16.9229L18.8949 20.8971C18.7716 21.0174 18.5717 21.0174 18.4483 20.8971L15.5558 18.0765C15.525 18.0464 15.475 18.0464 15.4442 18.0765L12.5517 20.8971C12.4284 21.0174 12.2285 21.0174 12.1051 20.8971L8.02957 16.9228C7.90624 16.8026 7.90624 16.6076 8.02957 16.4873L8.9334 15.606C9.05674 15.4857 9.2567 15.4857 9.38004 15.606L12.2726 18.4266C12.3034 18.4567 12.3534 18.4567 12.3842 18.4266L15.2766 15.606C15.3999 15.4857 15.5999 15.4857 15.7232 15.606L18.6158 18.4266C18.6466 18.4567 18.6966 18.4567 18.7274 18.4266L21.62 15.606C21.7433 15.4857 21.9432 15.4857 22.0666 15.606V15.606Z" fill="white"/>
</svg>
