<?xml version="1.0" standalone="no"?>
<!DOCTYPE svg PUBLIC "-//W3C//DTD SVG 20010904//EN"
 "http://www.w3.org/TR/2001/REC-SVG-20010904/DTD/svg10.dtd">
<svg version="1.0" xmlns="http://www.w3.org/2000/svg"
 width="42.000000pt" height="42.000000pt" viewBox="0 0 42.000000 42.000000"
 preserveAspectRatio="xMidYMid meet">

<g transform="translate(0.000000,42.000000) scale(0.100000,-0.100000)"
fill="#000000" stroke="none">
<path d="M53 363 c-10 -3 -13 -42 -13 -143 0 -113 3 -142 16 -154 13 -13 42
-16 160 -16 l144 0 0 35 c0 24 5 35 15 35 12 0 15 14 15 65 0 51 -3 65 -15 65
-10 0 -15 11 -15 35 l0 34 -152 3 c-110 2 -152 6 -156 16 -3 9 31 12 147 12
94 0 151 4 151 10 0 10 -273 13 -297 3z m327 -173 l0 -51 -72 3 -73 3 -3 35
c-5 46 17 60 90 60 l58 0 0 -50z"/>
<path d="M270 190 c0 -5 5 -10 10 -10 6 0 10 5 10 10 0 6 -4 10 -10 10 -5 0
-10 -4 -10 -10z"/>
</g>
</svg>