<svg width="1440" height="710" viewBox="0 0 1440 710" fill="none" xmlns="http://www.w3.org/2000/svg">
<g opacity="0.3">
<path opacity="0.1" d="M-89.3962 527.671L-52.6615 5.69779C-7.91926 8.997 16.6804 15.9661 33.9981 22.451C53.6876 29.8872 70.7537 38.6151 92.5691 64.4876C154.99 138.446 138.902 235.767 171.584 311.144C186.913 346.558 207.073 382.629 258.067 415.038C278.987 428.32 331.064 448.01 379.551 441.42C418.898 436.082 434.42 417.432 438.447 404.205C450.771 362.358 444.823 319.592 444.802 277.244C444.781 234.897 450.795 192.092 486.415 152.416C522.036 112.739 589.153 75.981 692.029 54.2399C794.904 32.4988 936.002 28.0558 1051.07 48.9719C1261.57 87.2577 1274.31 182.155 1477.29 225.378C1520.85 234.697 1605.21 247.601 1644.12 259.108C1803.81 306.382 1786.84 370.165 1747.98 396.64C1709.11 423.115 1586.5 440.828 1495.59 439.792L1490.88 436.672L1488.86 435.379L1476.61 427.508C1511.95 423.919 1560.95 411.254 1577.65 399.929C1578.19 399.563 1578.73 399.213 1579.18 398.844C1615.59 370.596 1589.84 331.266 1498.09 314.232C1451.8 305.615 1404 307.819 1355.11 304.12C1302.91 300.176 1255.61 293.28 1212.61 281.792C1174.96 271.72 1137.31 260.212 1099.71 250.126C1044.48 235.271 956.983 235.719 909.005 254.407C861.027 273.096 845.016 292.684 842.337 317.423C834.533 388.994 873.743 441.594 805.086 524.869C732.182 613.202 558.5 643.488 375.34 653.848C371.668 654.052 368.043 654.242 364.373 654.415C130.282 665.46 -94.6157 601.837 -89.3962 527.671Z" fill="#00CC9B"/>
<path opacity="0.1" d="M-89.3918 526.488L-62.9763 150.19C-22.189 170.762 -8.89428 197.281 1.30547 221.768L67.8933 381.481C77.8565 405.324 88.2542 429.663 120.392 451.787C152.53 473.912 210.961 493.82 281.355 498.37C350.252 502.864 417.9 491.73 460.952 474.689C504.004 457.648 525.509 435.4 541.1 413.166C591.008 341.907 586.594 265.748 638.459 194.685C657.566 168.496 685.435 142.476 738.369 123.03C791.303 103.583 873.55 91.7038 954.407 98.2807C1043.85 105.561 1110.32 132.513 1163.29 158.719C1216.26 184.924 1267.92 213.65 1349.62 229.048C1419.5 242.26 1502.2 243.876 1572.08 257.073C1674.66 276.429 1747.41 325.587 1729.27 362.737C1711.13 399.887 1610.22 423.72 1506.35 436.116L1491.77 435.207L1489.75 433.909L1477.5 426.013C1512.85 422.414 1561.89 409.71 1578.59 398.349C1579.13 397.983 1579.67 397.631 1580.12 397.261C1616.55 368.926 1590.79 329.474 1498.99 312.387C1452.67 303.744 1404.84 305.954 1355.93 302.244C1303.7 298.287 1256.37 291.371 1213.35 279.847C1175.67 269.743 1138.01 258.2 1100.38 248.083C1045.12 233.182 957.575 233.631 909.57 252.377C861.565 271.123 845.545 290.773 842.865 315.588C835.057 387.381 874.288 440.144 805.593 523.676C732.648 612.283 558.868 642.662 375.606 653.054C371.931 653.259 368.305 653.45 364.632 653.624C130.409 664.702 -94.6142 600.883 -89.3918 526.488Z" fill="#00CC9B"/>
<path opacity="0.15" d="M-89.3939 524.891L-86.6164 485.209C-74.1914 493.762 -60.5177 502.136 -45.6484 510.3C21.881 546.965 122.761 579.369 243.741 590.901C359.595 601.886 485.907 591.565 565.78 564.569C630.168 542.822 663.354 512.062 677.097 480.721C690.84 449.381 687.285 416.995 687.465 384.919C687.618 346.506 693.296 308.319 704.497 270.357C711.696 245.994 721.693 221.223 754.857 200.168C788.022 179.113 848.835 162.156 921.602 161.545C1011.14 160.793 1092.26 183.769 1155.74 207.162C1219.22 230.556 1281.03 257.086 1367.43 268.315C1430.06 276.397 1500.03 275.464 1559.25 286.665C1641.22 302.125 1679.12 338.143 1659.75 367.427C1640.37 396.711 1569.9 415.561 1492.92 429.356L1490.67 431.991L1478.41 424.067C1513.78 420.455 1562.84 407.706 1579.55 396.306C1580.1 395.938 1580.64 395.585 1581.09 395.214C1617.49 366.778 1591.72 327.187 1499.86 310.041C1453.52 301.367 1405.66 303.585 1356.72 299.862C1304.46 295.891 1257.11 288.95 1214.07 277.386C1176.37 267.247 1138.68 255.664 1101.04 245.511C1045.74 230.558 958.15 231.008 910.118 249.82C862.087 268.632 846.059 288.35 843.377 313.253C835.564 385.297 874.817 438.245 806.084 522.071C733.099 610.987 559.224 641.473 375.86 651.902C372.183 652.107 368.555 652.299 364.881 652.473C130.529 663.591 -94.6192 599.547 -89.3939 524.891Z" fill="#00CC9B"/>
<path opacity="0.15" d="M1747.45 311.179C1729.96 287.724 1683.45 267.421 1610.3 256.591C1537.14 245.761 1449.6 229.725 1401.5 205.895C1512.24 235.009 1540.62 232.239 1640.45 248.748C1736.13 264.603 1748.81 291.628 1747.45 311.179Z" fill="#00CC9B"/>
<path opacity="0.15" d="M700.852 48.8047C551.824 64.3464 436.065 124.876 434.61 186.701C387.688 122.96 529.376 47.1275 700.852 48.8047Z" fill="#00CC9B"/>
<path opacity="0.15" d="M851.454 484.287C835.195 525.471 789.369 570.904 699.821 600.236C610.273 629.568 501.94 647.084 409.806 648.09C585.339 659.659 877.389 614.808 851.454 484.287Z" fill="#00CC9B"/>
</g>
</svg>
