<svg width="26" height="27" viewBox="0 0 26 27" fill="none" xmlns="http://www.w3.org/2000/svg">
<path d="M2.67534 19.4923C1.18645 16.9803 0.66565 14.0112 1.21072 11.1425C1.75579 8.27371 3.32925 5.70256 5.63569 3.91169C7.94213 2.12083 10.823 1.23342 13.7373 1.41606C16.6517 1.59871 19.3992 2.83884 21.464 4.90365C23.5288 6.96846 24.7689 9.71594 24.9516 12.6303C25.1342 15.5447 24.2468 18.4255 22.4559 20.7319C20.6651 23.0384 18.0939 24.6118 15.2252 25.1569C12.3564 25.702 9.38732 25.1812 6.87534 23.6923V23.6923L2.72534 24.8673C2.55531 24.917 2.37503 24.9201 2.20341 24.8762C2.03178 24.8323 1.87513 24.743 1.74986 24.6178C1.6246 24.4925 1.53534 24.3358 1.49144 24.1642C1.44753 23.9926 1.45061 23.8123 1.50034 23.6423L2.67534 19.4923Z" stroke="#0D99FF" stroke-width="2" stroke-linecap="round" stroke-linejoin="round"/>
<path d="M7.00032 10.3047C7.01346 9.51891 7.33572 8.76993 7.89727 8.22009C8.45881 7.67024 9.21441 7.36382 10.0003 7.36722H10.4378C10.6097 7.36749 10.7785 7.4126 10.9275 7.4981C11.0766 7.5836 11.2008 7.70652 11.2878 7.85472L12.2128 9.39222C12.3019 9.53567 12.3522 9.69979 12.3587 9.86851C12.3653 10.0372 12.3279 10.2048 12.2503 10.3547L11.6628 11.5547C11.8693 12.308 12.2684 12.9945 12.8207 13.5468C13.373 14.0992 14.0595 14.4982 14.8128 14.7047L16.0128 14.1172C16.1628 14.0396 16.3303 14.0022 16.499 14.0088C16.6677 14.0154 16.8319 14.0657 16.9753 14.1547L18.5128 15.0797C18.661 15.1667 18.7839 15.2909 18.8694 15.44C18.9549 15.5891 19 15.7579 19.0003 15.9297V16.3672C19.0037 17.1531 18.6973 17.9087 18.1474 18.4703C17.5976 19.0318 16.8486 19.3541 16.0628 19.3672C14.8699 19.3772 13.687 19.1496 12.583 18.6977C11.4789 18.2458 10.4759 17.5787 9.63238 16.7352C8.78885 15.8916 8.12169 14.8886 7.66979 13.7846C7.2179 12.6805 6.99032 11.4976 7.00032 10.3047V10.3047Z" stroke="#0D99FF" stroke-width="2" stroke-linecap="round" stroke-linejoin="round"/>
</svg>
